<svg width="222" height="222" viewBox="0 0 222 222" fill="none" xmlns="http://www.w3.org/2000/svg">
<rect x="1" y="1" width="220" height="220" stroke="#017F36" stroke-opacity="0.4" stroke-width="2" stroke-dasharray="8 8"/>
<path d="M113.551 77.5977H134.645V81.8457H113.551V103.135H109.303V81.8457H88.2578V77.5977H109.303V56.2598H113.551V77.5977Z" fill="#017F36" fill-opacity="0.8"/>
<path d="M79.0273 125.864V136.738H80.5215V141.171H79.1685V138H70.7349V141.171H69.3818V136.738H70.3115C70.7266 136.03 71.1139 135.236 71.4736 134.356C71.8389 133.471 72.1626 132.546 72.4448 131.583C72.7326 130.615 72.965 129.644 73.1421 128.67C73.3247 127.696 73.4409 126.761 73.4907 125.864H79.0273ZM77.6245 127.134H74.7358C74.686 127.82 74.5754 128.587 74.4038 129.434C74.2323 130.275 74.0109 131.138 73.7397 132.023C73.4741 132.909 73.1753 133.758 72.8433 134.572C72.5168 135.385 72.1709 136.107 71.8057 136.738H77.6245V127.134ZM90.2168 133.435C90.2168 134.182 90.12 134.848 89.9263 135.435C89.7326 136.022 89.4531 136.517 89.0879 136.921C88.7227 137.325 88.2799 137.635 87.7598 137.851C87.2451 138.061 86.6613 138.166 86.0083 138.166C85.3996 138.166 84.8407 138.061 84.3315 137.851C83.828 137.635 83.3908 137.325 83.02 136.921C82.6548 136.517 82.3698 136.022 82.165 135.435C81.9658 134.848 81.8662 134.182 81.8662 133.435C81.8662 132.438 82.035 131.592 82.3726 130.895C82.7101 130.192 83.1916 129.658 83.8169 129.292C84.4478 128.922 85.1976 128.736 86.0664 128.736C86.8965 128.736 87.6214 128.922 88.2412 129.292C88.8665 129.663 89.3507 130.2 89.6938 130.903C90.0425 131.6 90.2168 132.444 90.2168 133.435ZM83.2939 133.435C83.2939 134.165 83.3908 134.799 83.5845 135.335C83.7782 135.872 84.077 136.287 84.481 136.581C84.8849 136.874 85.4051 137.021 86.0415 137.021C86.6724 137.021 87.1898 136.874 87.5938 136.581C88.0033 136.287 88.3049 135.872 88.4985 135.335C88.6922 134.799 88.7891 134.165 88.7891 133.435C88.7891 132.71 88.6922 132.084 88.4985 131.559C88.3049 131.027 88.006 130.618 87.6021 130.33C87.1981 130.042 86.6751 129.898 86.0332 129.898C85.0869 129.898 84.3924 130.211 83.9497 130.836C83.5125 131.462 83.2939 132.328 83.2939 133.435ZM92.126 132.538C92.126 131.243 92.2505 130.139 92.4995 129.226C92.7485 128.307 93.1331 127.571 93.6533 127.018C94.179 126.459 94.8542 126.077 95.6787 125.873C96.387 125.679 97.1064 125.513 97.8369 125.375C98.5674 125.231 99.2785 125.106 99.9702 125.001L100.211 126.213C99.8623 126.263 99.4971 126.321 99.1152 126.387C98.7334 126.448 98.3516 126.514 97.9697 126.586C97.5879 126.653 97.2282 126.725 96.8906 126.802C96.5531 126.874 96.2542 126.949 95.9941 127.026C95.5238 127.154 95.117 127.375 94.7739 127.69C94.4364 128.006 94.168 128.44 93.9688 128.994C93.7751 129.547 93.6589 130.244 93.6201 131.085H93.7197C93.8857 130.842 94.1126 130.601 94.4004 130.363C94.6882 130.125 95.0312 129.929 95.4297 129.774C95.8281 129.613 96.2764 129.533 96.7744 129.533C97.5602 129.533 98.216 129.705 98.7417 130.048C99.2674 130.385 99.6631 130.861 99.9287 131.476C100.194 132.09 100.327 132.809 100.327 133.634C100.327 134.624 100.156 135.457 99.8125 136.132C99.4749 136.807 98.999 137.317 98.3848 137.66C97.7705 137.997 97.0483 138.166 96.2183 138.166C95.5763 138.166 95.0008 138.042 94.4917 137.792C93.9881 137.543 93.5592 137.178 93.2051 136.697C92.8564 136.215 92.5881 135.626 92.3999 134.929C92.2173 134.231 92.126 133.435 92.126 132.538ZM96.3262 137.021C96.8519 137.021 97.3029 136.91 97.6792 136.688C98.061 136.467 98.3543 136.118 98.5591 135.643C98.7694 135.161 98.8745 134.536 98.8745 133.767C98.8745 132.804 98.6891 132.051 98.3184 131.509C97.9531 130.961 97.3665 130.687 96.5586 130.687C96.055 130.687 95.5985 130.795 95.189 131.011C94.7795 131.221 94.4336 131.473 94.1514 131.766C93.8691 132.059 93.6644 132.322 93.5371 132.555C93.5371 133.119 93.5786 133.667 93.6616 134.198C93.7446 134.729 93.8885 135.208 94.0933 135.634C94.298 136.06 94.5802 136.398 94.9399 136.647C95.3052 136.896 95.7673 137.021 96.3262 137.021ZM106.113 128.753C107.197 128.753 108.003 128.996 108.528 129.483C109.054 129.97 109.317 130.748 109.317 131.816V138H108.312L108.047 136.655H107.98C107.726 136.987 107.46 137.267 107.184 137.494C106.907 137.715 106.586 137.884 106.221 138C105.861 138.111 105.418 138.166 104.893 138.166C104.339 138.166 103.847 138.069 103.415 137.875C102.989 137.682 102.651 137.389 102.402 136.996C102.159 136.603 102.037 136.105 102.037 135.501C102.037 134.594 102.397 133.897 103.116 133.41C103.836 132.923 104.931 132.657 106.403 132.613L107.972 132.546V131.99C107.972 131.204 107.803 130.654 107.466 130.338C107.128 130.023 106.652 129.865 106.038 129.865C105.562 129.865 105.108 129.934 104.677 130.073C104.245 130.211 103.836 130.374 103.448 130.562L103.025 129.517C103.434 129.306 103.905 129.126 104.436 128.977C104.967 128.828 105.526 128.753 106.113 128.753ZM107.956 133.518L106.569 133.576C105.435 133.62 104.635 133.805 104.17 134.132C103.706 134.458 103.473 134.92 103.473 135.518C103.473 136.038 103.631 136.423 103.946 136.672C104.262 136.921 104.68 137.045 105.2 137.045C106.008 137.045 106.669 136.821 107.184 136.373C107.698 135.925 107.956 135.252 107.956 134.356V133.518ZM119.386 131.185C119.386 131.755 119.22 132.201 118.888 132.521C118.556 132.837 118.127 133.05 117.601 133.161V133.227C118.171 133.305 118.661 133.509 119.07 133.841C119.485 134.168 119.693 134.669 119.693 135.344C119.693 135.864 119.568 136.323 119.319 136.722C119.07 137.12 118.68 137.433 118.149 137.66C117.618 137.887 116.926 138 116.074 138H112.156V128.902H116.041C116.694 128.902 117.269 128.977 117.767 129.126C118.271 129.27 118.666 129.508 118.954 129.84C119.242 130.172 119.386 130.621 119.386 131.185ZM118.257 135.344C118.257 134.807 118.052 134.42 117.643 134.182C117.239 133.944 116.649 133.825 115.875 133.825H113.542V136.879H115.908C116.671 136.879 117.252 136.763 117.651 136.531C118.055 136.293 118.257 135.897 118.257 135.344ZM117.983 131.343C117.983 130.911 117.825 130.59 117.51 130.38C117.194 130.164 116.677 130.056 115.958 130.056H113.542V132.671H115.717C116.464 132.671 117.028 132.563 117.41 132.347C117.792 132.131 117.983 131.797 117.983 131.343ZM123.229 128.902V134.622C123.229 134.732 123.226 134.876 123.221 135.053C123.215 135.225 123.207 135.41 123.196 135.609C123.185 135.803 123.174 135.991 123.163 136.174C123.157 136.351 123.149 136.498 123.138 136.614L128.102 128.902H129.795V138H128.508V132.422C128.508 132.245 128.511 132.018 128.517 131.741C128.522 131.465 128.53 131.193 128.542 130.928C128.553 130.657 128.561 130.446 128.566 130.297L123.619 138H121.917V128.902H123.229ZM138.926 130.073H135.929V138H134.568V130.073H131.613V128.902H138.926V130.073ZM142.113 132.654H144.902C145.677 132.654 146.322 132.751 146.836 132.945C147.351 133.139 147.736 133.426 147.99 133.808C148.25 134.19 148.38 134.663 148.38 135.228C148.38 135.792 148.253 136.282 147.999 136.697C147.75 137.112 147.362 137.433 146.836 137.66C146.316 137.887 145.644 138 144.819 138H140.727V128.902H142.113V132.654ZM146.994 135.294C146.994 134.735 146.795 134.348 146.396 134.132C146.004 133.91 145.453 133.8 144.745 133.8H142.113V136.879H144.753C145.417 136.879 145.957 136.758 146.372 136.514C146.787 136.265 146.994 135.858 146.994 135.294ZM93.1802 154.916C93.1802 155.912 93.0446 156.814 92.7734 157.622C92.5023 158.43 92.0983 159.113 91.5615 159.672C91.0303 160.231 90.3662 160.638 89.5693 160.892L92.4248 163.889H90.4077L88.0586 161.149C87.9867 161.149 87.9119 161.152 87.8345 161.158C87.7625 161.163 87.6906 161.166 87.6187 161.166C86.6779 161.166 85.8561 161.017 85.1533 160.718C84.4561 160.419 83.875 159.993 83.4102 159.439C82.9508 158.886 82.605 158.225 82.3726 157.456C82.1457 156.686 82.0322 155.834 82.0322 154.899C82.0322 153.659 82.237 152.572 82.6465 151.637C83.056 150.701 83.6758 149.974 84.5059 149.454C85.3415 148.933 86.3874 148.673 87.6436 148.673C88.8444 148.673 89.8543 148.931 90.6733 149.445C91.4979 149.96 92.1204 150.685 92.541 151.62C92.9671 152.55 93.1802 153.648 93.1802 154.916ZM83.5181 154.916C83.5181 155.945 83.6647 156.836 83.958 157.588C84.2513 158.341 84.6995 158.922 85.3027 159.332C85.9115 159.741 86.6834 159.946 87.6187 159.946C88.5594 159.946 89.3286 159.741 89.9263 159.332C90.5295 158.922 90.9749 158.341 91.2627 157.588C91.5505 156.836 91.6943 155.945 91.6943 154.916C91.6943 153.349 91.3651 152.126 90.7065 151.247C90.0535 150.361 89.0326 149.918 87.6436 149.918C86.7028 149.918 85.9281 150.12 85.3193 150.524C84.7106 150.928 84.2568 151.504 83.958 152.251C83.6647 152.993 83.5181 153.881 83.5181 154.916ZM99.165 148.864C100.161 148.864 100.983 148.989 101.63 149.238C102.283 149.481 102.77 149.855 103.091 150.358C103.412 150.862 103.573 151.504 103.573 152.284C103.573 152.926 103.457 153.463 103.224 153.895C102.992 154.321 102.687 154.667 102.311 154.932C101.935 155.198 101.534 155.403 101.107 155.546L104.436 161H102.792L99.8208 155.937H97.2974V161H95.8862V148.864H99.165ZM99.082 150.084H97.2974V154.741H99.2231C100.214 154.741 100.941 154.539 101.406 154.135C101.877 153.731 102.112 153.136 102.112 152.351C102.112 151.526 101.863 150.942 101.365 150.599C100.872 150.256 100.111 150.084 99.082 150.084ZM105.399 157.049V155.82H112.538V157.049H105.399ZM119.975 151.902H121.494L117.568 156.293L121.81 161H120.191L116.057 156.385V161H114.671V151.902H116.057V156.318L119.975 151.902ZM131.297 156.435C131.297 157.182 131.201 157.848 131.007 158.435C130.813 159.022 130.534 159.517 130.168 159.921C129.803 160.325 129.361 160.635 128.84 160.851C128.326 161.061 127.742 161.166 127.089 161.166C126.48 161.166 125.921 161.061 125.412 160.851C124.909 160.635 124.471 160.325 124.101 159.921C123.735 159.517 123.45 159.022 123.246 158.435C123.046 157.848 122.947 157.182 122.947 156.435C122.947 155.438 123.116 154.592 123.453 153.895C123.791 153.192 124.272 152.658 124.897 152.292C125.528 151.922 126.278 151.736 127.147 151.736C127.977 151.736 128.702 151.922 129.322 152.292C129.947 152.663 130.431 153.2 130.774 153.903C131.123 154.6 131.297 155.444 131.297 156.435ZM124.375 156.435C124.375 157.165 124.471 157.799 124.665 158.335C124.859 158.872 125.158 159.287 125.562 159.581C125.965 159.874 126.486 160.021 127.122 160.021C127.753 160.021 128.27 159.874 128.674 159.581C129.084 159.287 129.385 158.872 129.579 158.335C129.773 157.799 129.87 157.165 129.87 156.435C129.87 155.71 129.773 155.084 129.579 154.559C129.385 154.027 129.087 153.618 128.683 153.33C128.279 153.042 127.756 152.898 127.114 152.898C126.167 152.898 125.473 153.211 125.03 153.836C124.593 154.462 124.375 155.328 124.375 156.435ZM140.345 151.902V159.83H141.648V164.146H140.312V161H133.871V164.146H132.551V159.83H133.265C133.785 159.11 134.216 158.322 134.56 157.464C134.903 156.606 135.163 155.707 135.34 154.766C135.517 153.82 135.611 152.865 135.622 151.902H140.345ZM139.009 152.998H136.851C136.801 153.806 136.682 154.628 136.494 155.463C136.311 156.299 136.068 157.096 135.763 157.854C135.459 158.607 135.105 159.265 134.701 159.83H139.009V152.998Z" fill="#081B3B" fill-opacity="0.6"/>
</svg>
