<svg width="124" height="124" viewBox="0 0 124 124" fill="none" xmlns="http://www.w3.org/2000/svg">
<circle cx="62" cy="62" r="62" fill="#017F36" fill-opacity="0.15"/>
<g clip-path="url(#clip0_28_2240)">
<path d="M80.2769 27.979C79.2967 28.2162 23.2363 43.7252 22.5882 43.9466C21.6712 44.2311 20.691 45.069 20.2484 45.9386C19.5053 47.4088 19.2998 46.5235 24.8489 66.6015C27.6472 76.7354 30.0344 85.3199 30.1767 85.6836C30.5087 86.6005 31.4731 87.5491 32.4216 87.8811C33.1963 88.1656 33.2121 88.1815 33.307 88.9403C33.4651 90.047 33.971 91.0272 34.714 91.6595C35.9946 92.7504 33.7654 92.6871 66.9969 92.6871C100.418 92.6871 98.0783 92.7662 99.3431 91.6279C99.6909 91.3117 100.134 90.7584 100.323 90.4106L100.671 89.7624L100.719 70.0164C100.766 48.2784 100.813 49.4483 99.8016 48.2309C99.5328 47.9147 98.9637 47.4721 98.5052 47.2507C97.6831 46.8397 97.6831 46.8397 93.541 46.8397H89.3831L89.146 46.0018C89.0195 45.5591 88.0077 41.9072 86.9168 37.9074C85.8102 33.9076 84.7826 30.3821 84.6245 30.0659C83.8656 28.5798 81.8262 27.5996 80.2769 27.979ZM82.0159 31.0935C82.4586 31.5678 83.3281 34.8087 83.0593 34.9668C82.9645 35.03 81.6839 35.4095 80.2294 35.8205C78.775 36.2157 69.2103 38.8559 58.9657 41.6858L40.358 46.8397H38.4925C37.4807 46.8397 36.3898 46.9188 36.0736 46.9978C35.7574 47.0927 35.1093 47.4879 34.635 47.9147L33.7813 48.6578L28.6906 50.0648C25.8765 50.8395 23.5525 51.4403 23.5209 51.3928C23.3944 51.2664 22.4933 47.9622 22.4933 47.6302C22.4933 47.4721 22.6514 47.1559 22.8411 46.9346C23.1573 46.5868 26.7144 45.5591 52.057 38.5555C69.6687 33.6862 81.0673 30.6034 81.3045 30.6508C81.5258 30.6982 81.842 30.888 82.0159 31.0935ZM84.5138 39.346C84.7668 40.263 84.9249 41.0692 84.8774 41.1009C84.83 41.1483 80.1978 42.4605 74.5697 44.0098L64.3409 46.8397L57.6061 46.8239C53.464 46.8239 50.9978 46.7607 51.1875 46.6816C51.3614 46.6026 57.4796 44.8793 64.7836 42.8715C72.0876 40.8637 79.2809 38.8717 80.7512 38.4607C82.2372 38.0338 83.5811 37.686 83.755 37.686C84.0237 37.6702 84.1344 37.9074 84.5138 39.346ZM86.1264 45.1955C86.3477 45.9702 86.5216 46.65 86.5216 46.7132C86.5216 46.7923 83.913 46.8397 80.7195 46.8397C77.5418 46.8397 74.9649 46.7923 75.0123 46.7448C75.123 46.65 85.6205 43.7094 85.6995 43.7569C85.7153 43.7727 85.9209 44.4209 86.1264 45.1955ZM97.3511 49.6222C98.0783 49.9067 98.0625 49.385 98.0625 69.8267V89.0352L97.6831 89.4778L97.3037 89.9205L67.2499 89.9679C33.7971 89.9995 36.4214 90.0944 36.0894 88.9245C35.963 88.5135 35.9313 82.6639 35.963 69.3366L36.0104 50.3494L36.3898 49.9384L36.7692 49.5273H66.9337C83.5178 49.5273 97.2088 49.5747 97.3511 49.6222ZM33.2437 53.5113V55.4559L29.2756 56.5467C27.1097 57.1317 25.2758 57.5901 25.2283 57.5269C25.0702 57.3688 24.2323 54.2227 24.3272 54.1279C24.3904 54.0646 29.4337 52.626 33.2121 51.5984C33.2279 51.5825 33.2437 52.4521 33.2437 53.5113ZM33.2437 71.7712C33.2437 85.067 33.2437 85.3199 32.9434 85.0196C32.6114 84.6718 25.8765 60.4833 26.0504 60.3094C26.1295 60.2303 31.8525 58.5703 33.2121 58.2383C33.2279 58.2225 33.2437 64.325 33.2437 71.7712Z" fill="#081B3B"/>
<path d="M42.619 55.1555C41.8285 55.4401 40.8483 56.3412 40.4373 57.1949C40.1527 57.764 40.1211 58.1593 40.1211 60.9892C40.1211 64.5621 40.216 64.9257 41.4017 65.9692C42.5558 66.981 42.6664 66.9968 47.4725 66.9968C51.7094 66.9968 51.8359 66.981 52.5631 66.6331C52.99 66.4276 53.5749 65.9692 53.8753 65.6055C54.7765 64.5621 54.9346 63.7084 54.8713 60.5465C54.8239 58.1118 54.7923 57.764 54.4761 57.1791C54.0176 56.3254 52.8793 55.3294 52.0889 55.0922C51.1245 54.7919 43.4727 54.8551 42.619 55.1555ZM51.7569 58.0486L52.2153 58.5071V60.8153C52.2153 62.0642 52.1521 63.2815 52.0572 63.5187C51.7569 64.3092 51.1403 64.4198 47.1247 64.3566L43.4885 64.3092L43.1091 63.8665C42.7455 63.4396 42.7297 63.329 42.7297 60.9734V58.5071L43.1881 58.0486L43.6466 57.5901H47.4725H51.2984L51.7569 58.0486Z" fill="#081B3B"/>
<path d="M40.706 72.5617C40.2475 72.7514 40.042 73.5419 40.042 75.2177C40.042 76.8619 40.0578 76.9093 40.5005 77.3678C40.785 77.6365 41.1328 77.8263 41.3858 77.8263C41.6387 77.8263 41.9866 77.6365 42.2711 77.3678C42.7296 76.9093 42.7296 76.8777 42.7296 75.0596C42.7296 73.3206 42.7138 73.2099 42.3344 72.8463C41.9707 72.4669 41.2435 72.3404 40.706 72.5617Z" fill="#081B3B"/>
<path d="M46.0336 72.6566C45.5435 73.036 45.417 73.5419 45.417 75.2177C45.417 76.8619 45.4328 76.9093 45.8755 77.3678C46.3656 77.8579 46.8082 77.9369 47.3616 77.6366C48.0256 77.2887 48.0888 77.0358 48.1046 75.0912C48.1046 73.3206 48.0888 73.2099 47.7094 72.8463C47.2825 72.4194 46.4604 72.3246 46.0336 72.6566Z" fill="#081B3B"/>
<path d="M51.2035 72.9411C50.8241 73.3838 50.7925 73.5261 50.7925 75.028C50.7925 76.0082 50.8715 76.7987 50.998 77.0358C51.4249 77.8895 52.4841 78.0318 53.1639 77.352C53.4485 77.0674 53.4801 76.8145 53.4801 75.1387C53.4801 73.3206 53.4643 73.2099 53.0849 72.8463C52.5157 72.2613 51.7252 72.3088 51.2035 72.9411Z" fill="#081B3B"/>
<path d="M59.3767 72.8305C58.9657 73.1941 58.9341 73.2731 58.8866 74.8383C58.8392 76.1821 58.8866 76.5773 59.1238 77.0358C59.4558 77.684 60.0724 77.9527 60.7205 77.7314C61.4794 77.4784 61.7323 76.7196 61.6691 74.8383C61.6217 73.2731 61.5901 73.1941 61.179 72.8305C60.9261 72.6249 60.5308 72.451 60.2779 72.451C60.0249 72.451 59.6297 72.6249 59.3767 72.8305Z" fill="#081B3B"/>
<path d="M64.7834 72.8463C64.404 73.2099 64.3882 73.3206 64.3882 75.107C64.3882 77.2729 64.5305 77.6049 65.5107 77.763C65.9691 77.8421 66.1588 77.7788 66.5383 77.4627L66.9967 77.0674V75.1387C66.9967 73.2257 66.9967 73.2099 66.5541 72.8305C65.9691 72.3404 65.2735 72.3404 64.7834 72.8463Z" fill="#081B3B"/>
<path d="M70.1589 72.8463C69.7795 73.2099 69.7637 73.3206 69.7637 75.1387C69.7637 76.8145 69.7953 77.0674 70.0799 77.352C70.7597 78.0318 71.8189 77.8895 72.2458 77.0358C72.3722 76.7987 72.4513 76.0082 72.4513 75.028C72.4513 73.5261 72.4197 73.3838 72.0402 72.9411C71.5185 72.3088 70.728 72.2613 70.1589 72.8463Z" fill="#081B3B"/>
<path d="M78.2219 72.8463C77.8425 73.2099 77.8267 73.3206 77.8267 75.0596C77.8267 76.8777 77.8267 76.9093 78.2851 77.3678C78.5697 77.6365 78.9175 77.8263 79.1705 77.8263C79.4234 77.8263 79.7712 77.6365 80.0558 77.3678C80.4985 76.9093 80.5143 76.8619 80.5143 75.2177C80.5143 73.4787 80.3246 72.7514 79.8028 72.5459C79.2495 72.3404 78.6013 72.451 78.2219 72.8463Z" fill="#081B3B"/>
<path d="M83.8182 72.6566C83.3281 73.036 83.2017 73.5419 83.2017 75.2177C83.2017 76.8619 83.2175 76.9093 83.6601 77.3678C84.1502 77.8579 84.5929 77.9369 85.1462 77.6366C85.8102 77.2887 85.8735 77.0358 85.8893 75.0912C85.8893 73.3206 85.8735 73.2099 85.494 72.8463C85.0672 72.4194 84.2451 72.3246 83.8182 72.6566Z" fill="#081B3B"/>
<path d="M88.9877 72.9411C88.5925 73.3996 88.5767 73.5261 88.5767 75.1703C88.5767 76.8777 88.5767 76.9093 89.0351 77.3678C89.2881 77.6207 89.6517 77.8263 89.8414 77.8263C90.2999 77.8263 91.0429 77.4152 91.1694 77.1148C91.2168 76.9726 91.2643 76.0398 91.2643 75.0438C91.2643 73.3206 91.2485 73.2099 90.869 72.8463C90.2999 72.2613 89.5094 72.3088 88.9877 72.9411Z" fill="#081B3B"/>
<path d="M40.4371 82.332C39.9312 82.8221 39.9312 83.5177 40.4213 84.1026L40.8007 84.5453H46.7293H52.6578L53.0689 84.1659C53.6064 83.66 53.638 82.7746 53.1163 82.2845C52.7527 81.9367 52.6894 81.9367 46.7767 81.9367H40.8165L40.4371 82.332Z" fill="#081B3B"/>
<path d="M59.361 82.3003C58.9973 82.6956 58.9025 83.486 59.1712 83.992C59.4716 84.5611 60.1672 84.6243 65.6847 84.6243C70.0007 84.6243 71.139 84.5769 71.5817 84.3872C72.4986 84.0236 72.6883 82.9643 71.9769 82.2529C71.6765 81.9525 71.4236 81.9367 65.6847 81.9367H59.693L59.361 82.3003Z" fill="#081B3B"/>
</g>
<defs>
<clipPath id="clip0_28_2240">
<rect width="80.9444" height="80.9444" fill="white" transform="translate(19.8057 19.8055)"/>
</clipPath>
</defs>
</svg>
