<svg width="42" height="49" viewBox="0 0 42 49" fill="none" xmlns="http://www.w3.org/2000/svg">
<path d="M2.7898 0C1.66325 0 0.75 0.931646 0.75 2.08089V43.332C0.75 44.4813 1.66325 45.4129 2.7898 45.4129H11.5804C12.7069 45.4129 13.6202 44.4813 13.6202 43.332C13.6202 42.1828 12.7069 41.2512 11.5804 41.2512H4.8296V4.16178H32.6777C33.8043 4.16178 34.7175 3.23013 34.7175 2.08089C34.7175 0.931646 33.8043 0 32.6777 0H2.7898Z" fill="#003250"/>
<path fill-rule="evenodd" clip-rule="evenodd" d="M21.7906 31.1834C19.6541 29.0194 18.3311 26.0205 18.3311 22.7065C18.3311 16.1093 23.5736 10.7612 30.0406 10.7612C36.5075 10.7612 41.75 16.1093 41.75 22.7065C41.75 26.0205 40.4271 29.0194 38.2906 31.1834L39.9794 46.6893C40.0601 47.4301 39.7462 48.1584 39.1565 48.5985C38.5668 49.0387 37.7913 49.1234 37.1236 48.8206L30.0406 45.6092L22.9575 48.8206C22.2898 49.1234 21.5144 49.0387 20.9247 48.5985C20.335 48.1584 20.021 47.4301 20.1017 46.6893L21.7906 31.1834ZM25.6137 33.7686L24.5489 43.5448L29.2121 41.4305C29.7396 41.1914 30.3416 41.1914 30.869 41.4305L35.5322 43.5448L34.4674 33.7686C33.1017 34.338 31.6071 34.6518 30.0406 34.6518C28.4741 34.6518 26.9794 34.338 25.6137 33.7686ZM22.4107 22.7065C22.4107 18.4078 25.8267 14.923 30.0406 14.923C34.2544 14.923 37.6704 18.4078 37.6704 22.7065C37.6704 27.0052 34.2544 30.49 30.0406 30.49C25.8267 30.49 22.4107 27.0052 22.4107 22.7065Z" fill="#003250"/>
</svg>
