<svg width="106" height="106" viewBox="0 0 106 106" fill="none" xmlns="http://www.w3.org/2000/svg">
<path fill-rule="evenodd" clip-rule="evenodd" d="M45.05 19.0006V18.5501C45.05 16.4416 45.8876 14.4195 47.3785 12.9286C48.8694 11.4377 50.8915 10.6001 53 10.6001C55.1084 10.6001 57.1306 11.4377 58.6215 12.9286C60.1124 14.4195 60.95 16.4416 60.95 18.5501V19.0006C62.1494 18.5765 63.4331 18.4465 64.6932 18.6215C65.9533 18.7964 67.1531 19.2712 68.1916 20.006C69.2302 20.7408 70.0772 21.714 70.6616 22.8441C71.246 23.9741 71.5506 25.2279 71.55 26.5001V55.817L77.4091 48.3865C78.6694 46.7957 80.4894 45.746 82.4974 45.4517C84.5054 45.1573 86.55 45.6404 88.2139 46.8024C89.8778 47.9644 91.0354 49.7177 91.4504 51.7042C91.8654 53.6908 91.5066 55.7609 90.4471 57.4918L75.2467 82.1898C70.1958 90.3996 61.2468 95.4001 51.6087 95.4001C36.2785 95.4001 23.85 82.9716 23.85 67.6413V37.1001C23.8493 35.8279 24.154 34.5741 24.7384 33.4441C25.3227 32.314 26.1698 31.3408 27.2083 30.606C28.2469 29.8712 29.4466 29.3964 30.7067 29.2215C31.9668 29.0465 33.2505 29.1765 34.45 29.6006V26.5001C34.4493 25.2279 34.754 23.9741 35.3384 22.8441C35.9227 21.714 36.7698 20.7408 37.8083 20.006C38.8469 19.2712 40.0466 18.7964 41.3067 18.6215C42.5668 18.4465 43.8505 18.5765 45.05 19.0006ZM54.8738 16.6763C55.3708 17.1732 55.65 17.8473 55.65 18.5501V50.3501H60.95V26.5001C60.95 25.7973 61.2292 25.1232 61.7261 24.6263C62.2231 24.1293 62.8972 23.8501 63.6 23.8501C64.3028 23.8501 64.9768 24.1293 65.4738 24.6263C65.9708 25.1232 66.25 25.7973 66.25 26.5001V55.817C66.25 60.8467 72.5994 63.0462 75.7131 59.0978L81.5696 51.6671C81.9905 51.1319 82.6001 50.778 83.2736 50.678C83.9471 50.5779 84.6333 50.7394 85.1915 51.1291C85.7497 51.5189 86.1377 52.1075 86.2758 52.7742C86.4139 53.4409 86.2917 54.1352 85.9342 54.7146L70.7338 79.4127C68.1705 83.5763 64.3184 86.7897 59.7626 88.5649C55.2068 90.3401 50.1962 90.58 45.4916 89.2483C40.787 87.9165 36.6456 85.0858 33.6962 81.1861C30.7468 77.2865 29.1506 72.5308 29.15 67.6413V37.1001C29.15 36.3973 29.4292 35.7232 29.9261 35.2263C30.4231 34.7293 31.0972 34.4501 31.8 34.4501C32.5028 34.4501 33.1768 34.7293 33.6738 35.2263C34.1708 35.7232 34.45 36.3973 34.45 37.1001V55.6501H39.75V26.5001C39.75 25.7973 40.0292 25.1232 40.5261 24.6263C41.0231 24.1293 41.6972 23.8501 42.4 23.8501C43.1028 23.8501 43.7768 24.1293 44.2738 24.6263C44.7708 25.1232 45.05 25.7973 45.05 26.5001V50.3501H50.35V18.5501C50.35 17.8473 50.6292 17.1732 51.1261 16.6763C51.6231 16.1793 52.2972 15.9001 53 15.9001C53.7028 15.9001 54.3768 16.1793 54.8738 16.6763Z" fill="url(#paint0_radial_82_62)"/>
<path fill-rule="evenodd" clip-rule="evenodd" d="M106 53C106 23.7281 82.2719 0 53 0C23.7281 0 0 23.7281 0 53C0 82.2719 23.7281 106 53 106C82.2719 106 106 82.2719 106 53ZM53 5.3C79.3437 5.3 100.7 26.6564 100.7 53C100.7 79.3437 79.3437 100.7 53 100.7C26.6564 100.7 5.3 79.3437 5.3 53C5.3 26.6564 26.6564 5.3 53 5.3Z" fill="url(#paint1_radial_82_62)"/>
<defs>
<radialGradient id="paint0_radial_82_62" cx="0" cy="0" r="1" gradientUnits="userSpaceOnUse" gradientTransform="translate(53 0.000239102) rotate(90) scale(80.2292 88.333)">
<stop stop-color="#F8533E"/>
<stop offset="1" stop-color="#B8B8B8"/>
</radialGradient>
<radialGradient id="paint1_radial_82_62" cx="0" cy="0" r="1" gradientUnits="userSpaceOnUse" gradientTransform="translate(53 0.000239102) rotate(90) scale(80.2292 88.333)">
<stop stop-color="#F8533E"/>
<stop offset="1" stop-color="#B8B8B8"/>
</radialGradient>
</defs>
</svg>
