<svg width="40" height="40" viewBox="0 0 40 40" fill="none" xmlns="http://www.w3.org/2000/svg">
<path d="M7.08751 0C3.16128 0 0 3.16128 0 7.08751V32.9125C0 36.8387 3.16128 40 7.08751 40H26.095L40 20.005L26.095 4e-05H7.08751V0ZM17.7313 7.30251H22.2475C22.5248 7.30251 22.6837 7.40391 22.6837 7.64251V32.5325C22.6837 32.7018 22.6039 32.8037 22.3662 32.8037H19.91C19.7526 32.8037 19.6337 32.6679 19.6337 32.5662V23.3512H17.6512L12.145 32.5662C12.0659 32.7358 11.9077 32.8037 11.67 32.8037H8.85747C8.54147 32.8037 8.34331 32.5662 8.54123 32.26L14.6012 22.875C11.3537 21.6509 9.53123 19.1687 9.53123 15.8025C9.53123 10.1919 13.2949 7.30247 17.7312 7.30247L17.7313 7.30251ZM17.6125 9.47751C15.196 9.47751 12.8187 11.2116 12.8187 15.4625C12.8187 19.5429 15.3543 21.175 17.9687 21.175H19.6337V9.47751H17.6125Z" fill="#F8533E"/>
</svg>
