<svg width="172" height="150" viewBox="0 0 172 150" fill="none" xmlns="http://www.w3.org/2000/svg">
<g clip-path="url(#clip0_47_61)">
<path d="M170.092 36.02C170.504 36.1243 170.646 36.0888 170.895 36.447C170.969 37.9377 170.041 39.5696 169.364 40.8579C169.14 40.8037 168.939 40.7219 168.725 40.6383C168.275 39.6215 169.724 37.3144 170.038 36.2131L170.092 36.02Z" fill="#101055"/>
<path d="M119.991 46.6698C119.556 46.0564 118.962 45.3952 118.778 44.6589C118.965 44.3554 119.241 44.3371 119.567 44.2177C120.315 44.564 120.793 45.8333 121.301 46.4854C121.595 46.8644 121.968 47.185 122.279 47.557C122.191 47.7888 122.105 48.0076 121.994 48.2292C121.87 48.3076 121.737 48.3475 121.6 48.3981C120.973 48.0262 120.478 47.2203 119.991 46.6698Z" fill="#101055"/>
<path d="M170.657 24.6204C171.099 24.6195 171.286 24.5619 171.659 24.8144C172.241 26.2727 172.041 28.0387 172.028 29.5858C171.672 29.5887 171.464 29.6045 171.142 29.4294C170.497 28.3258 170.72 25.9558 170.657 24.6204Z" fill="#101055"/>
<path d="M161.496 50.437C161.449 50.2183 161.413 50.0558 161.444 49.8301C161.535 49.1668 163.468 47.5037 164.065 47.0578C164.416 46.7954 164.833 46.4546 165.295 46.5199L165.382 46.8062C165.25 47.4283 164.842 47.8346 164.448 48.312C163.829 48.9091 162.563 50.4033 161.684 50.525L161.496 50.437Z" fill="#101055"/>
<path d="M138.658 0.331787L139.032 0.408096C139.198 0.678096 139.192 0.684791 139.157 1.00139C138.481 1.67625 135.31 2.19528 134.262 2.47518C133.993 2.38809 133.876 2.22382 133.68 2.02838L133.683 1.7144C134.842 0.829548 137.222 0.516156 138.658 0.331787Z" fill="#101055"/>
<path d="M157.045 3.52722C157.104 3.54761 157.164 3.56509 157.222 3.58839C158.326 4.03402 161.232 5.73208 161.592 6.88431C161.66 7.10421 161.432 7.38179 161.327 7.57635C160.569 7.38586 157.549 4.92849 156.738 4.30286L157.045 3.52722Z" fill="#101055"/>
<path d="M145.322 -0.0296631C146.85 -0.00141066 149.531 0.144512 150.752 1.1316C150.965 1.30315 150.901 1.51839 150.922 1.77266C150.019 2.0881 146.727 1.19189 145.613 0.98043C145.328 0.708391 145.373 0.353055 145.322 -0.0296631Z" fill="#101055"/>
<path d="M119.149 12.1998C119.423 12.3525 119.581 12.5057 119.787 12.7422C119.795 13.3162 117.629 16.8082 117.193 17.7466C116.864 17.5375 116.647 17.4111 116.431 17.0753C116.894 15.4334 118.087 13.5163 119.149 12.1998Z" fill="#101055"/>
<path d="M138.477 57.4087C138.536 57.2013 138.576 56.8046 138.768 56.6954C139.011 56.5573 144.075 56.7391 144.389 56.8259C144.43 56.8375 144.469 56.8565 144.509 56.8716C144.541 57.2077 144.576 57.5424 144.582 57.8802C142.516 57.8549 140.519 57.7049 138.477 57.4087Z" fill="#101055"/>
<path d="M127.753 4.04419L127.982 4.10914C128.253 4.4071 128.282 4.42282 128.328 4.81923C127.925 5.76059 125.278 7.43506 124.419 8.13176C124.117 7.82302 123.932 7.74555 123.898 7.30428C124.592 6.00904 126.597 4.93691 127.753 4.04419Z" fill="#101055"/>
<path d="M166.831 12.738C167.886 13.4982 169.382 16.0477 169.685 17.3382C169.783 17.7591 169.688 17.8089 169.466 18.1561C169.408 18.1468 169.349 18.1404 169.291 18.1281C169.092 18.0859 168.941 18.0475 168.814 17.8753C167.915 16.6491 167.18 15.041 166.384 13.7205C166.368 13.2801 166.593 13.0943 166.831 12.738Z" fill="#101055"/>
<path d="M126.276 52.3226C126.591 52.0922 126.93 51.7494 127.337 51.7587C127.795 52.087 128.26 52.5154 128.748 52.7872C129.706 53.3211 131.666 53.7658 132.038 54.8875L131.908 55.5894C129.936 54.6964 128.008 53.6246 126.276 52.3226Z" fill="#101055"/>
<path d="M114.541 22.5736C114.93 22.6374 115.168 22.6799 115.508 22.8966C115.66 23.4526 114.972 27.7042 114.889 28.7297C114.543 28.7507 114.257 28.7926 113.935 28.6324C113.5 27.1997 114.248 24.1482 114.541 22.5736Z" fill="#101055"/>
<path d="M3.53506 75.621C4.41133 75.632 5.25709 75.6382 6.05462 76.0517C6.17917 76.116 6.30003 76.1865 6.41722 76.2632C6.5346 76.3401 6.64761 76.4228 6.75628 76.5114C6.86513 76.5999 6.96905 76.6938 7.06802 76.793C7.167 76.8924 7.26066 76.9966 7.34898 77.1055C7.43711 77.2147 7.51953 77.328 7.59623 77.4454C7.67274 77.5631 7.74295 77.6844 7.80687 77.8092C7.87098 77.9343 7.92841 78.0622 7.97916 78.1931C8.0301 78.3238 8.07407 78.4569 8.11107 78.5924C8.41091 79.6832 8.27086 80.9347 7.68804 81.9102C7.00643 83.0516 6.00436 83.5477 4.75039 83.8293C3.77301 83.7719 2.87727 83.7067 2.00913 83.1929C1.03233 82.6151 0.369905 81.7066 0.132243 80.5943C-0.106001 79.4805 0.0694869 78.2604 0.719717 77.3135C1.40016 76.3232 2.39352 75.8531 3.53506 75.621Z" fill="#F2D261"/>
<path d="M48.0797 6.69204C48.6024 6.66815 49.078 6.66611 49.5615 6.89708C50.9514 7.56058 51.3637 9.54087 51.8358 10.8833C53.2118 11.4186 55.5821 12.0891 56.1823 13.5577C56.3287 13.9162 56.3247 14.266 56.1588 14.6155C55.4928 16.0165 53.344 16.4231 51.991 16.8749C51.2364 18.3603 51.1057 19.9759 49.7335 21.0763C49.1294 21.1873 48.6097 21.2152 48.0602 20.8937C46.8902 20.2092 46.5547 18.2205 46.1854 17.0001C44.753 16.4368 42.4429 16.0168 41.6832 14.5357C41.5019 14.1827 41.4676 13.8384 41.6143 13.4653C42.1637 12.0708 44.6394 11.4958 45.9457 11.0668C46.412 9.49631 46.7531 7.76883 48.0797 6.69204Z" fill="#101055"/>
<path d="M97.0015 4.86295C98.7918 4.66431 100.822 5.2844 102.23 6.38159C102.329 6.45945 102.425 6.53964 102.519 6.62217C102.614 6.70489 102.706 6.78984 102.796 6.87702C102.886 6.96401 102.974 7.05334 103.06 7.14499C103.145 7.23644 103.229 7.32993 103.31 7.42547C103.391 7.5212 103.47 7.61877 103.546 7.71819C103.622 7.8178 103.696 7.91916 103.767 8.02227C103.839 8.12537 103.907 8.23023 103.974 8.33683C104.04 8.44343 104.103 8.55159 104.164 8.6613C104.225 8.77101 104.283 8.88217 104.339 8.99479C104.394 9.10722 104.447 9.221 104.496 9.33615C104.546 9.45149 104.593 9.5679 104.637 9.68537C104.681 9.80285 104.723 9.9213 104.761 10.0407C104.799 10.1603 104.834 10.2807 104.867 10.4019C104.899 10.5232 104.928 10.6453 104.955 10.768C104.981 10.8907 105.004 11.014 105.025 11.1379C105.045 11.2618 105.062 11.3861 105.076 11.5107C105.326 13.6165 104.73 15.8357 103.37 17.4717C101.936 19.1951 100.057 19.9518 97.8842 20.1746C95.9876 20.1361 94.2135 19.7284 92.6815 18.5261C92.5775 18.4429 92.4755 18.3573 92.3755 18.2692C92.2758 18.181 92.1783 18.0903 92.083 17.9971C91.9875 17.9041 91.8945 17.8088 91.8041 17.7111C91.7134 17.6132 91.6253 17.5132 91.5397 17.4111C91.454 17.309 91.371 17.2048 91.2907 17.0986C91.2103 16.9924 91.1325 16.8841 91.0574 16.7738C90.9824 16.6637 90.9103 16.5518 90.8409 16.438C90.7714 16.3242 90.7048 16.2088 90.641 16.0917C90.5773 15.9746 90.5166 15.856 90.4589 15.7358C90.4009 15.6156 90.3461 15.494 90.2944 15.3711C90.2427 15.2484 90.194 15.1243 90.1483 14.9989C90.1027 14.8736 90.0603 14.7472 90.021 14.6196C89.9817 14.4923 89.9456 14.3639 89.9126 14.2346C89.8797 14.1055 89.8501 13.9755 89.8237 13.8446C89.7972 13.7139 89.7741 13.5827 89.7543 13.4508C89.7343 13.319 89.7177 13.1866 89.7043 13.0538C89.5192 11.0965 90.1721 9.03149 91.4269 7.52333C92.8698 5.78974 94.8245 5.07499 97.0015 4.86295Z" fill="#101055"/>
<path d="M96.3645 7.59578C97.3787 7.51627 98.3567 7.55879 99.3097 7.95054C99.4596 8.01073 99.606 8.07831 99.749 8.15326C99.8921 8.22821 100.031 8.31025 100.166 8.39937C100.301 8.48869 100.431 8.58452 100.556 8.68685C100.681 8.78918 100.8 8.89762 100.914 9.01218C101.028 9.12655 101.136 9.24656 101.239 9.37219C101.34 9.49763 101.436 9.62791 101.525 9.76306C101.613 9.8984 101.695 10.0378 101.77 10.1813C101.845 10.3248 101.912 10.4717 101.972 10.622C102.479 11.8983 102.453 13.3744 101.848 14.6126C101.122 16.0963 99.88 16.8378 98.3814 17.3533C97.4517 17.4818 96.5368 17.3965 95.6579 17.0531C95.5775 17.0222 95.4981 16.9892 95.4196 16.954C95.341 16.9191 95.2633 16.8821 95.1866 16.8431C95.1099 16.8038 95.0343 16.7628 94.9597 16.7199C94.8853 16.6768 94.812 16.6318 94.7398 16.585C94.6675 16.5382 94.5965 16.4896 94.5268 16.4391C94.4573 16.3884 94.389 16.3361 94.322 16.2821C94.2549 16.2279 94.1894 16.1721 94.1253 16.1146C94.0611 16.0571 93.9986 15.998 93.9376 15.9372C93.8766 15.8765 93.8172 15.8141 93.7595 15.7502C93.7018 15.6864 93.6457 15.621 93.5913 15.5542C93.5368 15.4874 93.4842 15.4192 93.4335 15.3495C93.3825 15.28 93.3336 15.2092 93.2865 15.1371C93.2392 15.0651 93.1939 14.9918 93.1505 14.9172C93.1071 14.8429 93.0657 14.7673 93.0262 14.6906C92.9868 14.6141 92.9494 14.5366 92.914 14.4579C92.8786 14.3795 92.8451 14.3001 92.8138 14.2197C92.7541 14.0717 92.7021 13.9211 92.6578 13.7679C92.6136 13.6145 92.5774 13.4593 92.5491 13.3022C92.521 13.1453 92.501 12.9872 92.489 12.828C92.4771 12.669 92.4734 12.5097 92.4779 12.3501C92.4824 12.1906 92.495 12.0318 92.516 11.8735C92.5369 11.7153 92.5658 11.5586 92.6028 11.4035C92.64 11.2483 92.685 11.0954 92.7376 10.9447C92.7905 10.7942 92.851 10.6468 92.9189 10.5026C93.6206 9.01189 94.8688 8.15122 96.3645 7.59578Z" fill="#FEFEFE"/>
<path d="M123.346 26.9864C125.935 25.6602 128.652 24.536 131.317 23.3706C136.072 21.2763 140.85 19.2353 145.651 17.2477C150.614 15.1594 155.517 12.739 160.553 10.8551C159.899 11.9208 158.733 12.873 157.902 13.8289C154.014 18.3018 149.886 22.5385 145.951 26.9657C144.732 28.3372 142.966 29.9479 142.131 31.5542C141.352 30.8718 125.864 27.5587 123.346 26.9864Z" fill="#8D79C6"/>
<path d="M160.553 10.8551L161.027 10.6282L161.238 10.7109C161.319 12.4095 153.187 32.1088 152.059 35.001C150.522 38.9415 149.049 42.9032 147.476 46.83C146.777 48.5758 146.149 50.4303 145.266 52.0858L143.459 40.6346C143.008 37.6098 142.654 34.567 142.131 31.5542C142.966 29.9479 144.732 28.3372 145.951 26.9657C149.887 22.5385 154.014 18.3018 157.902 13.8289C158.733 12.8729 159.899 11.9208 160.553 10.8551Z" fill="#101055"/>
<path d="M124.814 134.899C125.775 135.594 126.732 136.236 127.763 136.822C125.341 138.047 122.373 138.667 120.126 140.147C120.076 140.159 120.026 140.169 119.976 140.181C118.232 140.59 116.483 141.428 114.795 142.051C111.182 143.387 107.5 144.772 103.78 145.776C79.9415 152.207 56.8124 151.443 34.2583 140.94C35.4652 140.261 36.7744 139.785 38.067 139.299C40.2129 140.772 43.3421 141.569 45.809 142.37C57.7064 146.234 69.7781 147.609 82.2359 146.69C85.3708 146.459 88.4804 146.174 91.5721 145.592C97.3146 144.509 102.801 142.748 108.434 141.264C110.205 140.866 112.028 140.007 113.726 139.355C117.456 137.953 121.152 136.468 124.814 134.899Z" fill="#101055"/>
<path d="M67.308 23.0027L97.1053 35.0295C100.742 36.4619 104.354 38.0073 108.041 39.3032C110.377 38.3344 112.712 37.3176 115.123 36.551C114.94 36.0492 114.617 35.4422 114.744 34.906C115.042 34.6089 115.086 34.5815 115.495 34.4889C116.228 34.8402 116.466 37.0651 116.819 37.8736C116.982 38.2479 117.099 38.5782 117.198 38.9746C117.033 39.2851 110.766 41.8706 109.909 42.2024C109.694 44.9557 109.855 47.815 109.856 50.58C109.857 52.9747 109.651 55.5949 109.96 57.9643C108.893 57.9812 107.822 57.9745 106.761 58.1044C106.836 56.0528 106.779 53.9804 106.779 51.9265L106.785 42.4832C102.857 41.1766 99.0932 39.4453 95.2464 37.9249L68.874 27.2784C68.865 28.7994 68.8258 30.3317 68.8871 31.8512C68.9083 32.3825 69.2439 34.1787 69.0254 34.53C68.2026 34.3861 67.6311 34.2335 66.8376 34.5553C66.7217 34.6025 66.6 34.6345 66.4809 34.6738L66.2124 34.7641C66.0003 32.2884 66.1072 29.6129 66.2037 27.1255C51.9174 33.1841 37.663 39.317 23.4405 45.5242L23.4294 108.13L23.4207 125.786C23.4117 129.217 23.3222 132.675 23.4419 136.102C27.1088 134.835 30.5834 133.103 34.1632 131.62C44.8524 127.19 55.3976 122.45 66.093 118.037C66.0804 115.597 66.0806 113.158 66.0936 110.719C67.0277 110.838 67.9173 110.899 68.8499 110.699L68.8613 117.664C72.4181 119.427 76.1097 120.94 79.7397 122.547C85.1214 124.93 90.4772 127.345 95.8984 129.637C99.5542 131.183 103.158 133.049 106.868 134.429C106.906 131.854 106.918 129.279 106.901 126.704L106.864 119.232C107.77 119.372 108.656 119.44 109.572 119.48L109.884 119.65C110.28 121.757 109.923 125.92 109.98 128.3L110.006 134.509C116.239 131.997 122.509 129.556 128.712 126.975C136.185 123.864 143.644 120.599 151.28 117.912L151.242 76.9147C151.259 69.7287 151.389 62.5185 151.214 55.3348C152.945 54.9276 154.332 53.7824 156.021 53.3641C156.46 53.4582 156.48 53.5709 156.755 53.9097C156.132 54.2982 155.511 54.6605 154.859 54.9981L154.944 90.0664C154.941 100.029 154.735 110.025 154.953 119.984C146.35 123.407 137.837 127.065 129.23 130.473C124.565 132.32 119.912 134.158 115.277 136.08C112.956 137.042 110.555 137.93 108.318 139.074C100.716 135.496 93.0142 132.207 85.3549 128.762L75.0338 124.17C72.6081 123.098 70.1858 121.968 67.6822 121.088C62.6748 122.961 57.8076 125.226 52.9001 127.345C46.1491 130.26 39.3418 133.09 32.537 135.877C30.1499 136.855 27.7966 138.052 25.3787 138.927C24.2296 139.341 22.966 140.014 21.7731 140.213C21.3097 140.29 20.9415 140.273 20.5653 139.962C19.4118 139.011 19.9162 131.86 19.9357 130.202C19.1611 129.508 18.4644 128.699 17.7906 127.908C17.3037 127.332 16.827 126.747 16.3606 126.155C15.8942 125.562 15.4382 124.961 14.9927 124.352C14.547 123.744 14.1122 123.127 13.6882 122.503C13.2642 121.879 12.8512 121.248 12.4493 120.61C12.0472 119.971 11.6564 119.326 11.277 118.674C10.8976 118.022 10.5295 117.363 10.1729 116.698C9.81655 116.033 9.47177 115.362 9.13862 114.685C8.80566 114.008 8.48452 113.325 8.17519 112.637C7.86586 111.948 7.56864 111.254 7.28352 110.556C6.9986 109.857 6.72588 109.153 6.46536 108.445C6.20484 107.736 5.95672 107.024 5.72099 106.307C5.48527 105.589 5.26223 104.868 5.05188 104.144C4.84134 103.419 4.64348 102.69 4.45831 101.959C4.27333 101.227 4.10104 100.492 3.94143 99.754C3.78202 99.0162 3.63549 98.2757 3.50184 97.5326C3.36839 96.7895 3.24782 96.0443 3.14012 95.2971C2.85888 93.2705 2.43992 90.7634 2.65027 88.7493C2.70867 88.1912 2.82285 87.8027 3.26593 87.4278C3.65322 87.3378 3.97601 87.3384 4.37085 87.4028C4.79127 87.4712 5.08791 87.6142 5.25903 88.0235C5.72506 89.1369 5.70008 92.2482 5.85958 93.627C6.09376 95.6513 6.39098 97.6945 6.84655 99.6806C8.27397 105.907 10.7151 112.344 14.0662 117.786C15.8489 120.681 17.9516 123.375 19.9833 126.096C20.0528 120.985 19.92 115.864 19.9267 110.751L19.9697 66.9049L19.929 52.0427C19.9214 49.2792 19.8163 46.4627 19.9976 43.705C20.4258 43.2352 20.9012 42.897 21.4677 42.6107C23.6317 41.5176 25.9653 40.6325 28.1972 39.6786L39.4504 34.8381C48.7004 30.8583 57.9262 26.6557 67.308 23.0027Z" fill="#101055"/>
<path d="M23.4405 45.5242C37.663 39.317 51.9174 33.1841 66.2037 27.1255C66.1072 29.6129 66.0003 32.2884 66.2124 34.7641L66.4808 34.6738C66.6 34.6345 66.7217 34.6025 66.8376 34.5553C67.6311 34.2335 68.2026 34.3861 69.0254 34.53C69.2439 34.1787 68.9083 32.3825 68.8871 31.8512C68.8258 30.3317 68.865 28.7994 68.874 27.2784L95.2464 37.9249C99.0932 39.4453 102.857 41.1766 106.785 42.4832L106.779 51.9265C103.637 51.4677 99.5109 49.075 96.4943 47.7949L71.9433 37.3197C71.1658 36.9576 69.6018 35.9944 68.7564 36.1668C67.7113 36.4587 67.1264 36.3139 66.1261 35.9918C58.2001 39.1249 50.3637 42.6343 42.5621 46.08C38.5945 47.8322 34.6853 49.689 30.6418 51.2633C30.7456 67.0332 30.7663 82.8032 30.7037 98.5733C30.7304 107.349 30.9506 116.153 30.7853 124.928C38.9065 121.4 47.1064 117.973 55.2834 114.577C58.6368 113.184 62.0826 111.962 65.3928 110.473C65.6391 110.362 65.7272 110.319 65.8771 110.1C65.923 109.748 65.9654 109.395 66.036 109.046C67.0239 108.871 68.0146 108.924 69.0129 108.946C69.2895 109.291 69.3011 109.421 69.245 109.878C69.2203 110.067 69.1929 110.255 69.1631 110.442C76.1009 112.731 82.5925 116.085 89.2848 118.978L100.175 123.675C102.42 124.642 104.761 125.521 106.901 126.704C106.918 129.279 106.906 131.854 106.868 134.429C103.158 133.049 99.5542 131.183 95.8984 129.637C90.4772 127.345 85.1213 124.93 79.7397 122.547C76.1096 120.94 72.418 119.427 68.8612 117.664L68.8499 110.699C67.9173 110.899 67.0276 110.838 66.0936 110.719C66.0806 113.158 66.0804 115.598 66.093 118.037C55.3976 122.45 44.8524 127.19 34.1631 131.62C30.5834 133.103 27.1088 134.835 23.4419 136.102C23.3222 132.675 23.4117 129.217 23.4207 125.786L23.4294 108.13L23.4405 45.5242Z" fill="#FEFEFE"/>
<path d="M161.257 50.6942C161.505 52.5362 161.415 54.4664 161.419 56.3229L161.44 65.5311C161.522 78.0638 161.342 90.5998 161.565 103.131C161.447 110.298 161.54 117.47 161.43 124.636C158.768 125.994 155.88 126.907 153.123 128.058L141.675 132.749C136.761 134.79 125.018 140.083 120.126 140.148C122.373 138.667 125.341 138.047 127.763 136.822C126.731 136.236 125.775 135.595 124.814 134.899C121.151 136.468 117.456 137.954 113.726 139.355C112.028 140.007 110.205 140.866 108.433 141.264C102.801 142.748 97.3145 144.509 91.5719 145.592C88.4803 146.174 85.3706 146.459 82.2357 146.69C69.7779 147.609 57.7062 146.234 45.8089 142.37C43.3419 141.569 40.2128 140.772 38.0669 139.299C36.7742 139.785 35.4651 140.261 34.2582 140.94C32.8711 141.522 31.4556 142.184 29.9282 142.249C28.7146 142.301 27.1053 142.142 26.1965 141.267C25.4574 140.555 25.4083 139.905 25.3787 138.927C27.7965 138.052 30.1499 136.855 32.537 135.877C39.3417 133.091 46.1491 130.26 52.9001 127.345C57.8076 125.226 62.6748 122.961 67.6822 121.088C70.1858 121.968 72.6081 123.098 75.0338 124.17L85.3549 128.762C93.0142 132.207 100.716 135.496 108.318 139.074C110.555 137.93 112.956 137.042 115.277 136.08C119.912 134.159 124.565 132.32 129.23 130.473C137.837 127.065 146.35 123.407 154.953 119.984C154.735 110.025 154.941 100.029 154.944 90.0665L154.859 54.9982C155.511 54.6606 156.132 54.2983 156.755 53.9098C158.302 52.9163 159.719 51.7101 161.257 50.6942Z" fill="#8D79C6"/>
<path d="M70.1632 125.698L94.0724 135.116C97.6233 136.503 105.602 139.276 108.433 141.264C102.801 142.748 97.3145 144.509 91.572 145.592C88.4803 146.174 85.3707 146.459 82.2357 146.69C69.7779 147.609 57.7063 146.234 45.8089 142.37C43.3419 141.569 40.2128 140.772 38.0669 139.299C44.177 136.88 50.2489 134.369 56.2826 131.765C60.9255 129.797 65.6064 127.86 70.1632 125.698Z" fill="#FEFEFE"/>
<path d="M109.909 42.2024C110.149 45.2015 109.932 48.2845 109.976 51.2959C112.039 50.441 118.563 47.9528 119.991 46.6698C120.478 47.2203 120.973 48.0262 121.6 48.3981C121.737 48.3474 121.87 48.3075 121.994 48.2292C123.141 49.7595 124.709 51.2298 126.276 52.3226C128.008 53.6245 129.936 54.6964 131.908 55.5894C133.601 56.6033 136.518 57.3038 138.476 57.4086C140.519 57.7048 142.516 57.8548 144.582 57.8802L144.494 113.565C141.138 115.144 137.65 116.5 134.22 117.91L118.535 124.353C115.64 125.542 112.881 127.176 109.98 128.3C109.923 125.92 110.279 121.757 109.884 119.65L109.571 119.48C108.656 119.44 107.77 119.372 106.864 119.232L106.847 118.325L106.739 118.151C106.957 115.439 106.808 112.627 106.806 109.905L106.807 93.817L106.898 71.0181C106.899 67.1079 107.045 63.1238 106.82 59.2217C106.759 58.86 106.774 58.4717 106.761 58.1044C107.822 57.9745 108.893 57.9812 109.96 57.9643C109.651 55.5949 109.856 52.9747 109.856 50.58C109.855 47.815 109.694 44.9557 109.909 42.2024Z" fill="#8FE2E4"/>
<path d="M109.96 57.9644C110.026 58.4007 110.157 58.8189 109.923 59.2214C109.391 59.6106 108.325 59.4725 107.667 59.4708L106.82 59.2217C106.759 58.86 106.774 58.4717 106.761 58.1045C107.822 57.9746 108.893 57.9812 109.96 57.9644Z" fill="#FEFEFE"/>
<path d="M130.663 57.1112C132.255 57.0308 133.714 57.3081 135.129 58.0441C136.95 58.991 138.302 60.4138 138.878 62.42C139.421 64.3059 139.257 66.3666 138.244 68.0641C137.069 70.0336 135.239 71.0772 133.076 71.6099C131.355 71.7838 129.764 71.6929 128.212 70.8358C128.103 70.7756 127.995 70.7125 127.889 70.6467C127.784 70.5809 127.679 70.5124 127.577 70.4411C127.475 70.37 127.374 70.2963 127.276 70.22C127.177 70.1435 127.08 70.0647 126.986 69.9835C126.891 69.9022 126.799 69.8185 126.708 69.7325C126.618 69.6464 126.53 69.5582 126.444 69.4677C126.358 69.3772 126.275 69.2845 126.194 69.1895C126.112 69.0948 126.034 68.998 125.958 68.8991C125.882 68.8003 125.808 68.6995 125.737 68.5968C125.666 68.4941 125.598 68.3897 125.532 68.2837C125.466 68.1775 125.403 68.0697 125.343 67.9604C125.283 67.8509 125.226 67.74 125.171 67.6278C125.117 67.5156 125.065 67.4019 125.016 67.2867C124.968 67.1718 124.922 67.0557 124.879 66.9384C124.836 66.8211 124.797 66.7027 124.76 66.5833C124.723 66.4641 124.69 66.3439 124.659 66.2227C124.191 64.3243 124.473 62.1387 125.504 60.4689C126.683 58.557 128.536 57.5752 130.663 57.1112Z" fill="#FEFEFE"/>
<path d="M106.82 59.2218L107.667 59.4708C108.444 59.5789 109.165 59.5448 109.942 59.4944L109.946 103.623L109.94 113.716C109.94 114.961 110.163 116.778 109.883 117.955L109.724 117.932L109.763 118.005L109.733 118.024C110.03 118.338 110.058 118.425 110.166 118.847L110.042 119.304C109.867 119.399 109.772 119.445 109.571 119.48C108.656 119.44 107.77 119.372 106.864 119.233L106.847 118.325L106.739 118.151C106.957 115.439 106.808 112.627 106.806 109.905L106.807 93.817L106.898 71.0182C106.899 67.108 107.045 63.1238 106.82 59.2218Z" fill="#101055"/>
<path d="M106.847 118.325C107.855 117.958 108.686 117.939 109.733 118.024C110.03 118.338 110.058 118.425 110.167 118.847L110.043 119.304C109.867 119.399 109.772 119.445 109.572 119.48C108.656 119.44 107.77 119.372 106.864 119.233L106.847 118.325Z" fill="#FEFEFE"/>
<path d="M68.7563 36.167C69.6018 35.9945 71.1658 36.9577 71.9433 37.3198L96.4943 47.795C99.5109 49.0751 103.637 51.4678 106.779 51.9266C106.779 53.9805 106.836 56.0529 106.761 58.1045C106.774 58.4718 106.759 58.8601 106.82 59.2218C107.046 63.1238 106.899 67.108 106.898 71.0182L106.807 93.817L106.806 109.905C106.808 112.627 106.957 115.439 106.739 118.151L106.847 118.325L106.864 119.233L106.901 126.704C104.761 125.522 102.42 124.642 100.175 123.675L89.2848 118.978C82.5925 116.085 76.1009 112.731 69.1631 110.443C69.1929 110.255 69.2202 110.067 69.245 109.878C69.3011 109.421 69.2895 109.291 69.0129 108.946C68.6561 103.167 68.9594 97.2653 68.9347 91.4715L68.8845 50.3503L68.9034 41.2125C68.9086 39.6904 69.1445 37.6268 68.7563 36.167Z" fill="#F2D261"/>
<path d="M66.1261 35.9918C67.1265 36.314 67.7113 36.4587 68.7564 36.1669C69.1446 37.6267 68.9087 39.6903 68.9034 41.2124L68.8845 50.3502L68.9348 91.4714C68.9595 97.2652 68.6562 103.167 69.013 108.946C68.0147 108.924 67.0239 108.871 66.0361 109.046C65.9655 109.395 65.9231 109.748 65.8771 110.1C65.7272 110.319 65.6392 110.362 65.3928 110.473C62.0827 111.962 58.6369 113.184 55.2835 114.577C47.1065 117.973 38.9066 121.4 30.7854 124.928C30.9507 116.153 30.7305 107.349 30.7037 98.5733C30.7663 82.8032 30.7457 67.0332 30.6418 51.2633C34.6853 49.689 38.5945 47.8322 42.5621 46.08C50.3637 42.6344 58.2002 39.1249 66.1261 35.9918Z" fill="#F2D261"/>
<path d="M66.1262 35.9918C67.1265 36.314 67.7114 36.4587 68.7565 36.1669C69.1446 37.6267 68.9087 39.6903 68.9035 41.2124L68.8846 50.3502L68.9349 91.4714C68.9596 97.2652 68.6562 103.167 69.013 108.946C68.0147 108.924 67.024 108.871 66.0361 109.046C66.3241 106.7 66.1314 104.092 66.1439 101.713L66.1532 85.7912L66.1262 35.9918Z" fill="#101055"/>
</g>
<defs>
<clipPath id="clip0_47_61">
<rect width="172" height="150" fill="white"/>
</clipPath>
</defs>
</svg>
