<svg width="148" height="150" viewBox="0 0 148 150" fill="none" xmlns="http://www.w3.org/2000/svg">
<g clip-path="url(#clip0_47_195)">
<path d="M115.722 2.53039C115.316 2.17668 114.95 1.83303 114.884 1.26928C114.842 0.901288 114.962 0.619539 115.199 0.345201C115.47 0.0322376 115.923 -0.109557 116.327 -0.0852184C116.623 -0.067229 116.879 0.0499634 117.081 0.270069C117.371 0.587794 117.494 1.11478 117.413 1.53039C117.329 1.96293 117.049 2.26266 116.705 2.51319L115.722 2.53039Z" fill="#101055"/>
<path d="M115.722 2.53038L116.705 2.51318L116.676 2.87297L116.667 3.02562C116.584 4.59255 116.929 8.08064 116.583 9.33858L115.847 9.26794C115.834 7.02376 115.859 4.77086 115.722 2.53038Z" fill="#BF8F30"/>
<path d="M15.6934 26.2034C16.2785 26.1447 16.8864 26.1074 17.4564 26.2799C18.2777 26.5283 19.0238 27.1246 19.3836 27.9082C19.4252 27.9985 19.462 28.0907 19.4941 28.1849C19.5261 28.2789 19.5534 28.3744 19.5759 28.4714C19.5982 28.5682 19.6156 28.6659 19.628 28.7645C19.6404 28.8631 19.6478 28.962 19.6501 29.0613C19.6524 29.1608 19.6495 29.26 19.6416 29.359C19.6338 29.4581 19.6209 29.5565 19.603 29.6542C19.5851 29.7521 19.5623 29.8487 19.5345 29.9441C19.5068 30.0396 19.4743 30.1334 19.437 30.2256C19.0525 31.182 18.2957 31.7664 17.362 32.1375C16.7921 32.2452 16.2413 32.3076 15.6751 32.1365C15.5698 32.1039 15.4666 32.0659 15.3652 32.0227C15.2639 31.9793 15.1652 31.9309 15.069 31.8775C14.9726 31.8239 14.8793 31.7655 14.7892 31.7023C14.699 31.6392 14.6124 31.5716 14.5293 31.4994C14.4462 31.4273 14.3671 31.351 14.292 31.2706C14.2169 31.1902 14.1462 31.1061 14.08 31.0185C14.0136 30.9308 13.952 30.84 13.8953 30.746C13.8385 30.652 13.7867 30.5553 13.7399 30.4558C13.3674 29.6579 13.3203 28.7264 13.6748 27.9132C14.0835 26.9764 14.7772 26.5653 15.6934 26.2034Z" fill="#101055"/>
<path d="M126.951 26.8567L131.859 26.8628C131.826 29.7704 131.834 32.6779 131.882 35.5853L126.949 35.5956C126.998 32.6847 126.957 29.7683 126.951 26.8567Z" fill="#4D60BC"/>
<path d="M126.981 75.2649C128.634 75.222 130.294 75.2421 131.948 75.2336L131.95 84.008L126.958 84.009C126.984 81.0944 126.991 78.1797 126.981 75.2649Z" fill="#4D60BC"/>
<path d="M126.883 38.8949L131.914 38.8936L131.912 47.6869C130.243 47.6597 128.57 47.6766 126.9 47.675L126.883 38.8949Z" fill="#4D60BC"/>
<path d="M126.958 50.7937L131.936 50.7876L131.908 59.7119L126.965 59.7323L126.958 50.7937Z" fill="#4D60BC"/>
<path d="M113.792 26.9102C115.53 27.0131 117.291 26.971 119.032 26.9758C118.826 29.8432 118.913 32.744 118.916 35.6176L113.727 35.5993C113.729 32.9766 113.439 29.4035 113.792 26.9102Z" fill="#8FE2E4"/>
<path d="M126.986 62.9343L131.961 62.9092C132.038 65.9602 131.96 69.0322 131.95 72.0856L126.965 72.0854L126.986 62.9343Z" fill="#4D60BC"/>
<path d="M113.709 75.2483L118.907 75.2525C118.894 78.2081 118.907 81.1635 118.946 84.1187L113.685 84.094C113.71 81.1455 113.718 78.197 113.709 75.2483Z" fill="#8FE2E4"/>
<path d="M113.802 38.8201L119.033 38.8508C119.059 41.8031 119.054 44.7554 119.017 47.7076C117.256 47.7571 115.484 47.7272 113.721 47.7338C113.761 45.2709 113.433 41.0447 113.802 38.8201Z" fill="#8FE2E4"/>
<path d="M113.684 50.7756L118.994 50.7902C118.945 53.7841 119.005 56.7886 119.017 59.7833C117.255 59.79 115.494 59.7845 113.733 59.7666L113.684 50.7756Z" fill="#8FE2E4"/>
<path d="M99.8249 26.9673C101.667 26.9853 103.509 26.9928 105.351 26.9898C105.352 29.8818 105.46 32.8183 105.3 35.703L99.7803 35.7477C99.8887 32.8234 99.8398 29.8932 99.8249 26.9673Z" fill="#8FE2E4"/>
<path d="M113.703 62.9635L118.998 62.9624L119.009 72.0711L113.721 72.0833C113.732 69.0433 113.726 66.0033 113.703 62.9635Z" fill="#8FE2E4"/>
<path d="M99.8092 38.8728C101.651 38.8585 103.515 38.9032 105.354 38.8127C105.348 42.1135 105.389 45.418 105.226 48.7154C103.454 47.5813 101.856 47.6516 99.8342 47.7323C99.7964 44.7792 99.7881 41.8261 99.8092 38.8728Z" fill="#8FE2E4"/>
<path d="M116.676 2.87305C116.728 3.58945 116.757 4.30003 116.769 5.01802C116.753 6.46952 116.756 7.92094 116.776 9.37226C120.225 9.32676 123.693 9.21009 127.141 9.28708L127.143 16.9942C129.096 16.9905 131.053 16.9598 133.006 16.9865C128.964 17.0453 124.923 17.0422 120.882 16.9773C122.132 16.9334 123.393 16.9675 124.645 16.968L124.651 11.7511L107.603 11.7429L107.623 16.9413L105.192 16.9339C105.184 14.3304 105.192 11.727 105.217 9.12385C108.761 9.13884 112.304 9.18689 115.847 9.26802L116.583 9.33866C116.929 8.08072 116.584 4.59263 116.667 3.0257L116.676 2.87305Z" fill="#F2D261"/>
<path d="M107.603 11.7429L124.651 11.7511L124.645 16.9681C123.393 16.9675 122.132 16.9334 120.882 16.9773L107.623 16.9413L107.603 11.7429Z" fill="#FEFEFE"/>
<path d="M96.038 16.9058L105.192 16.9338L107.623 16.9412L120.882 16.9772C124.923 17.0421 128.965 17.0452 133.006 16.9865C133.922 16.9872 134.85 16.9568 135.764 17.0031L135.785 22.4899C138.769 22.4809 141.777 22.3902 144.758 22.5126C144.739 22.9124 144.783 22.9203 144.493 23.1872C144.136 23.2298 143.801 23.2531 143.442 23.2534C139.891 23.2478 136.332 23.097 132.783 23.1828L110.699 23.1722C106.389 23.1899 101.966 23.4256 97.6713 23.1698C95.2345 23.3116 91.7351 23.4793 89.3532 23.1849L89.2241 22.9253L89.3256 22.6841C90.5519 22.0036 94.2859 22.779 95.9572 22.4071L96.1118 22.1103C95.9327 20.4042 96.0353 18.6208 96.038 16.9058Z" fill="#101055"/>
<path d="M132.95 120.599C134.501 120.58 136.049 120.56 137.6 120.605C136.122 121.976 134.795 123.551 133.366 124.979C130.849 127.475 128.211 129.837 125.453 132.066C117.35 138.62 105.264 144.182 95.2134 146.891C91.0343 148.016 86.8539 148.738 82.5587 149.257C59.2265 152.079 37.749 145.729 19.3138 131.271C18.5361 130.661 17.3152 129.778 17.241 128.71C17.211 128.275 17.3925 127.877 17.6909 127.566C18.107 127.133 18.5122 127.094 19.0476 127.337C20.4582 127.977 22.0225 129.842 23.3616 130.805C26.3716 132.97 29.6199 134.937 32.8743 136.713C33.7037 137.174 34.5409 137.62 35.386 138.051C36.231 138.483 37.0834 138.899 37.9432 139.301C38.8029 139.703 39.6694 140.09 40.5427 140.461C41.416 140.833 42.2955 141.189 43.1811 141.53C44.0668 141.872 44.9583 142.197 45.8555 142.507C46.7527 142.817 47.6552 143.112 48.5628 143.39C49.4703 143.669 50.3824 143.931 51.2991 144.178C52.2158 144.425 53.1367 144.656 54.0617 144.871C54.9865 145.086 55.9148 145.285 56.8466 145.467C57.7783 145.65 58.7131 145.816 59.6509 145.966C60.5885 146.116 61.5285 146.25 62.4708 146.367C63.4132 146.485 64.3574 146.585 65.3033 146.67C66.2492 146.754 67.1963 146.822 68.1445 146.874C69.0928 146.925 70.0417 146.96 70.9913 146.979C71.9408 146.997 72.8904 146.999 73.84 146.985C74.7895 146.971 75.7385 146.939 76.6871 146.892C77.3503 146.859 78.0131 146.818 78.6754 146.769C79.3375 146.72 79.9991 146.663 80.66 146.598C81.3209 146.533 81.9809 146.46 82.64 146.379C83.299 146.298 83.957 146.21 84.614 146.113C85.2708 146.016 85.9264 145.911 86.5808 145.798C87.2351 145.686 87.888 145.565 88.5396 145.437C89.1909 145.308 89.8407 145.172 90.4888 145.027C91.1368 144.883 91.783 144.731 92.4274 144.571C93.0719 144.411 93.7142 144.243 94.3543 144.068C94.9947 143.892 95.6328 143.709 96.2685 143.518C96.9043 143.327 97.5376 143.129 98.1686 142.923C98.7996 142.716 99.4279 142.502 100.054 142.281C100.679 142.06 101.302 141.83 101.922 141.594C102.542 141.357 103.16 141.113 103.774 140.862C104.388 140.61 104.999 140.351 105.607 140.085C106.215 139.819 106.819 139.545 107.42 139.264C108.022 138.983 108.619 138.695 109.213 138.4C109.807 138.104 110.398 137.802 110.985 137.492C111.571 137.182 112.154 136.866 112.733 136.542C113.312 136.218 113.887 135.887 114.458 135.55C115.029 135.212 115.595 134.867 116.158 134.516C116.72 134.164 117.278 133.806 117.832 133.441C118.386 133.076 118.935 132.704 119.48 132.326C120.025 131.948 120.565 131.563 121.1 131.172C121.635 130.78 122.166 130.383 122.691 129.978C123.216 129.574 123.737 129.164 124.253 128.747C124.768 128.33 125.279 127.907 125.784 127.478C126.289 127.049 126.789 126.614 127.283 126.172C127.778 125.731 128.267 125.284 128.751 124.831C129.234 124.378 129.712 123.919 130.185 123.454C130.657 122.989 131.124 122.519 131.585 122.043C132.046 121.567 132.501 121.086 132.95 120.599Z" fill="#8FE2E4"/>
<path d="M132.783 23.1828C136.332 23.0971 139.891 23.2479 143.442 23.2534L143.479 29.2378L143.481 79.7505L143.504 104.952C142.378 107.566 138.058 112.738 135.882 114.739C134.59 114.753 133.303 114.769 132.012 114.714C129.732 114.624 127.433 114.682 125.151 114.681L125.051 97.4219C122.777 97.4036 120.503 97.4077 118.228 97.4344L118.226 114.591L111.744 114.567C111.773 108.867 111.821 103.145 111.67 97.4468C110.1 97.3386 108.511 97.3693 106.937 97.3547C107.142 83.4939 106.685 69.6063 106.98 55.7518C107.313 59.3304 107.07 63.1502 107.075 66.7516L107.061 87.7106L126.186 87.6934C129.652 87.6883 133.145 87.7669 136.608 87.6444L136.859 87.5611C137.273 86.5971 137.11 28.2378 137.121 23.2942C135.709 23.2788 134.172 23.4124 132.783 23.1828Z" fill="#8FE2E4"/>
<path d="M19.7261 120.417L92.5001 120.307L114.778 120.418L121.37 120.463C122.682 120.473 124.08 120.404 125.382 120.576C123.966 120.838 122.219 122.68 121.102 123.568C118.325 125.774 115.25 127.663 112.173 129.419C102.983 134.662 93.5329 138.065 83.0557 139.63C63.38 142.569 44.4176 137.347 28.1193 126.287C25.6633 124.62 23.6131 122.543 21.2582 120.765C20.8168 120.431 20.2617 120.46 19.7261 120.417Z" fill="url(#paint0_linear_47_195)"/>
<path d="M41.1739 47.7964C41.1749 45.0191 40.6231 41.689 42.6818 39.4548C43.8387 38.1993 45.5504 37.7265 47.2142 37.6996C51.9303 37.6228 56.6602 37.6921 61.3773 37.6906C63.5479 37.69 67.0202 37.4183 69.0617 37.8377C70.201 38.0718 71.2716 38.7371 72.0833 39.553C74.2488 41.7297 73.7403 44.9329 73.7238 47.7316L99.8345 47.7324C101.857 47.6517 103.455 47.5813 105.227 48.7154C107.349 50.9548 107.001 52.9339 106.98 55.7519C106.685 69.6064 107.142 83.494 106.937 97.3548C106.903 100.861 106.9 104.368 106.927 107.874C106.934 109.849 107.242 112.338 106.76 114.239C106.433 115.529 105.563 116.579 104.731 117.581L131.431 117.748L141.218 117.715C142.89 117.705 144.619 117.605 146.285 117.702C146.711 117.727 147.145 117.801 147.48 118.086C147.806 118.363 147.955 118.801 147.946 119.219C147.936 119.641 147.752 120.003 147.426 120.274C146.687 120.887 139.055 120.605 137.6 120.605C136.049 120.56 134.501 120.58 132.95 120.599C130.431 120.672 127.902 120.601 125.382 120.576C124.08 120.404 122.682 120.473 121.37 120.463L114.778 120.418L92.5001 120.307L19.7261 120.418L7.30739 120.378C5.38312 120.375 3.2973 120.557 1.38872 120.38C1.09298 120.352 0.825678 120.282 0.573786 120.121C0.252543 119.915 0.0373185 119.623 -0.0384086 119.248C-0.122373 118.832 -0.0912829 118.396 0.135367 118.033C0.567144 117.683 0.970755 117.528 1.52157 117.436C3.41475 117.118 7.57469 117.401 9.72268 117.363C9.49843 117.201 9.27364 117.036 9.06745 116.851C7.70462 115.629 7.40331 114.447 7.33502 112.692C7.18596 108.867 7.33024 104.983 7.33369 101.151L7.37089 76.6469L7.3406 60.0853C7.33476 57.1739 7.14079 54.1157 7.42882 51.2239C7.51385 50.3686 7.88424 49.6432 8.49139 49.0284C9.07914 48.4332 9.90602 47.9715 10.7372 47.8361C13.0701 47.4556 17.6297 47.7517 20.2389 47.758L41.1739 47.7964Z" fill="#101055"/>
<path d="M46.5147 40.7718C50.9648 40.5898 55.4861 40.74 59.9431 40.7395C62.492 40.7392 65.997 40.4662 68.4157 40.8773C69.4148 41.0469 69.9614 41.7564 70.5239 42.5353C70.7837 44.2448 70.6267 46.0937 70.593 47.8189L68.387 47.8022L44.3627 47.7585C44.3794 46.0506 43.9086 43.367 44.8184 41.8861C45.2204 41.2318 45.7949 40.9593 46.5147 40.7718Z" fill="#FEFEFE"/>
<path d="M73.5387 88.654L83.7318 88.6458C83.7214 94.6108 83.7421 100.576 83.794 106.541C83.8118 109.269 84.0914 112.812 83.7364 115.442C83.6763 115.887 83.4579 116.227 83.2105 116.593C82.8999 116.858 82.5529 117.092 82.2232 117.333C82.051 117.344 81.8801 117.355 81.7077 117.359C80.1976 117.4 75.4226 117.778 74.3842 116.731C74.0172 116.361 73.78 115.935 73.6976 115.421C73.3495 113.246 73.6221 109.343 73.6208 106.977L73.5387 88.654Z" fill="#9F7ED1"/>
<path d="M29.6596 88.7339L40.2306 88.7413C40.1575 94.9394 40.2242 101.144 40.2016 107.343C40.1926 109.808 40.4322 113.209 40.0472 115.57C39.975 116.013 39.7544 116.362 39.51 116.731C38.8024 117.326 38.2622 117.455 37.3359 117.476C36.2617 117.501 32.368 117.525 31.5475 117.361C31.0639 117.265 30.6053 117.064 30.2508 116.717C29.8586 116.333 29.7901 116.065 29.7231 115.525C29.3801 112.758 29.6399 109.524 29.6442 106.717L29.6596 88.7339Z" fill="#9F7ED1"/>
<path d="M10.5341 70.5183C10.1854 68.1395 10.4323 63.504 10.4347 60.9564C10.4371 58.4347 10.2075 54.5508 10.5107 52.1522C10.555 51.8006 10.656 51.5905 10.8723 51.3048C11.2993 50.7403 11.5185 50.5786 12.2309 50.4963C15.3275 50.1379 19.1122 50.4 22.2989 50.4045L42.1742 50.4233L81.557 50.4019C88.0853 50.3958 94.6323 50.2654 101.158 50.376C101.816 50.3871 103.154 50.376 103.666 50.7903C104.026 51.0813 104.114 52.1699 104.153 52.6262C104.332 54.744 104.195 56.9688 104.191 59.0953L104.171 69.9752C103.174 71.7448 96.5003 78.6172 94.7368 80.0146L83.8265 80.0135C83.7903 82.2683 83.9971 84.6654 83.7391 86.8945C83.4128 87.1178 83.1901 87.0694 82.8 87.0823C79.6817 87.0626 76.5632 87.064 73.4447 87.0866L73.4444 80.0336C62.3496 80.1234 51.2548 80.1302 40.1598 80.054L40.1535 87.1352C36.6399 87.113 33.1262 87.1134 29.6125 87.1365C29.6015 84.7621 29.6113 82.3878 29.6417 80.0135C26.4275 80.0301 23.2133 80.03 19.9991 80.0133C17.8102 78.7109 12.4312 72.6784 10.5341 70.5183Z" fill="#9F7ED1"/>
<path d="M73.4447 80.0335C73.4343 77.4155 72.8458 73.9557 74.8524 71.9388C74.9151 71.8767 74.9793 71.8162 75.0451 71.7573C75.1108 71.6986 75.1779 71.6414 75.2465 71.5859C75.315 71.5303 75.3849 71.4765 75.4561 71.4243C75.5273 71.3722 75.5998 71.322 75.6737 71.2735C75.7474 71.225 75.8223 71.1783 75.8985 71.1335C75.9747 71.0889 76.0519 71.0461 76.1302 71.0052C76.2083 70.9641 76.2875 70.9251 76.3677 70.8883C76.448 70.8512 76.529 70.8162 76.6109 70.7832C76.6929 70.7503 76.7756 70.7193 76.859 70.6904C76.9427 70.6615 77.0269 70.6347 77.1117 70.61C77.1966 70.5853 77.282 70.5626 77.3679 70.542C77.4538 70.5215 77.5402 70.5032 77.6272 70.4869C77.714 70.4709 77.8013 70.4569 77.8889 70.4449C77.9764 70.4331 78.0642 70.4234 78.1523 70.4158C78.2405 70.4084 78.3287 70.4031 78.4169 70.3999C78.5053 70.3967 78.5937 70.3958 78.6821 70.397C78.7698 70.3975 78.8574 70.4003 78.9449 70.4052C79.0324 70.41 79.1198 70.4169 79.2071 70.4261C79.2943 70.4353 79.3812 70.4465 79.4678 70.4597C79.5544 70.4731 79.6407 70.4886 79.7266 70.5063C79.8125 70.5237 79.8979 70.5433 79.9827 70.565C80.0676 70.5869 80.1519 70.6107 80.2357 70.6364C80.3195 70.6623 80.4026 70.6902 80.4849 70.72C80.5673 70.75 80.6489 70.7819 80.7296 70.8158C80.8104 70.8497 80.8903 70.8855 80.9693 70.9232C81.0483 70.9611 81.1264 71.0008 81.2037 71.0422C81.2807 71.0839 81.3567 71.1273 81.4316 71.1727C81.5066 71.218 81.5804 71.2652 81.653 71.3142C81.7256 71.363 81.797 71.4137 81.8671 71.4661C81.9373 71.5184 82.006 71.5725 82.0733 71.6282C82.1408 71.684 82.2069 71.7414 82.2716 71.8004C82.3362 71.8593 82.3993 71.9198 82.461 71.9819C84.452 74.0134 83.8815 77.4232 83.8267 80.0134C83.7906 82.2682 83.9973 84.6653 83.7393 86.8944C83.413 87.1176 83.1904 87.0692 82.8003 87.0822C79.682 87.0624 76.5635 87.0638 73.4449 87.0864L73.4447 80.0335Z" fill="#F2D261"/>
<path d="M29.6416 80.0135C29.6049 77.4042 29.0618 73.9667 31.078 71.9389C32.1488 70.8619 33.6397 70.3212 35.1503 70.3357C36.5112 70.349 37.878 70.854 38.8099 71.8635C40.7341 73.9492 40.0141 77.4617 40.1597 80.054L40.1533 87.1352C36.6397 87.113 33.1261 87.1134 29.6124 87.1365C29.6014 84.7621 29.6111 82.3878 29.6416 80.0135Z" fill="#F2D261"/>
</g>
<defs>
<linearGradient id="paint0_linear_47_195" x1="94.2124" y1="145.922" x2="51.4899" y2="95.3293" gradientUnits="userSpaceOnUse">
<stop stop-color="#EDC032"/>
<stop offset="1" stop-color="#FFF299"/>
</linearGradient>
<clipPath id="clip0_47_195">
<rect width="148" height="150" fill="white"/>
</clipPath>
</defs>
</svg>
