<svg width="179" height="150" viewBox="0 0 179 150" fill="none" xmlns="http://www.w3.org/2000/svg">
<g clip-path="url(#clip0_47_147)">
<path d="M153.198 69.1594C153.462 69.1637 153.736 69.1643 153.997 69.208C154.518 69.2951 155.018 69.6908 155.292 70.1326C155.598 70.6251 155.645 71.2071 155.506 71.7626C155.31 72.5429 154.757 72.9531 154.109 73.3617C153.683 73.3623 153.213 73.3771 152.803 73.2417C152.211 73.0463 151.724 72.5463 151.493 71.974C151.279 71.448 151.315 70.8711 151.574 70.3677C151.935 69.6663 152.488 69.4177 153.198 69.1594Z" fill="#5DBFBC"/>
<path d="M162.902 131.157C164.884 131.375 166.39 131.139 168.144 130.131C168.41 129.978 168.371 130.022 168.651 130.077C168.403 130.366 168.398 130.35 168.405 130.728C166.698 132.912 164.574 134.697 162.582 136.609C162.703 134.783 162.866 132.988 162.902 131.157Z" fill="#F2D261"/>
<path d="M155.161 140.786C155.087 142.491 154.981 144.194 154.845 145.895C153.751 145.917 152.656 145.946 151.562 145.921C151.537 144.475 151.539 143.023 151.461 141.579C152.773 141.471 153.914 141.212 155.161 140.786Z" fill="#8D79C6"/>
<path d="M86.1105 18.8618C86.4226 18.8458 86.7409 18.8295 87.0486 18.8943C87.6816 19.0275 88.2939 19.3958 88.6382 19.9538C88.9942 20.5301 89.0456 21.2052 88.8592 21.8489C88.5777 22.8203 87.8962 23.1683 87.0541 23.6026C86.6392 23.5889 86.2339 23.5738 85.8376 23.4375C85.2181 23.2243 84.7196 22.7952 84.4464 22.1943C84.1824 21.6135 84.1912 20.9755 84.4216 20.3849C84.7433 19.5592 85.338 19.2123 86.1105 18.8618Z" fill="#5DBFBC"/>
<path d="M163.011 127.476C163.137 127.162 163.149 126.904 163.464 126.756C165.458 127.229 167.606 128.795 169.702 128.697C170.03 128.333 170.345 127.895 170.821 127.735C170.245 128.541 169.248 130.25 168.405 130.728C168.397 130.35 168.403 130.366 168.65 130.077C168.371 130.022 168.409 129.978 168.144 130.131C166.389 131.139 164.884 131.375 162.902 131.157C162.961 129.931 162.978 128.702 163.011 127.476Z" fill="#DDD0AB"/>
<path d="M2.15062 57.8855C2.66078 57.8569 3.17979 57.8029 3.66341 58.0026C4.36884 58.294 4.90584 58.8715 5.19818 59.5715C5.53248 60.3718 5.5419 61.3089 5.17049 62.0983C4.7905 62.9058 4.3146 63.1766 3.49126 63.4418C3.04019 63.4486 2.51404 63.4892 2.0761 63.3726C1.36439 63.1838 0.685498 62.6298 0.328069 61.9918C0.283152 61.9123 0.24242 61.8308 0.205878 61.7472C0.169336 61.6636 0.137172 61.5782 0.109384 61.4912C0.0815971 61.4043 0.0583809 61.3162 0.0397291 61.2269C0.020887 61.1376 0.00670727 61.0475 -0.00280894 60.9566C-0.0121348 60.8658 -0.0168938 60.7747 -0.0170841 60.6835C-0.0172745 60.5922 -0.0127055 60.5012 -0.0033796 60.4103C0.00594629 60.3195 0.0198389 60.2294 0.0383003 60.14C0.0567618 60.0507 0.0797923 59.9625 0.107389 59.8755C0.44512 58.8146 1.20052 58.35 2.15062 57.8855Z" fill="#8FE2E4"/>
<path d="M157.897 137.717C159.25 137.819 160.602 137.85 161.958 137.885L162.237 137.884C161.722 140.609 161.333 143.465 160.618 146.141L158.357 145.793L158.31 142.015L158.239 138.812C158.239 138.681 158.242 138.551 158.233 138.421C158.202 137.996 158.213 137.976 157.897 137.717Z" fill="#8D79C6"/>
<path d="M157.897 137.717C159.25 137.819 160.602 137.85 161.958 137.885C161.078 141.036 160.455 140.199 158.31 142.015L158.239 138.812C158.239 138.681 158.242 138.551 158.233 138.421C158.202 137.996 158.213 137.976 157.897 137.717Z" fill="#4E5072"/>
<path d="M18.4531 58.6078C19.3336 58.5386 20.1335 58.4752 20.9917 58.7552C22.133 59.1275 23.1066 59.9306 23.619 61.0261C24.1426 62.1443 24.1146 63.4483 23.6478 64.5809C23.0426 66.0501 21.9561 66.8186 20.5395 67.3906C19.6151 67.4586 18.7349 67.5123 17.8502 67.1632C17.7065 67.1063 17.5661 67.0422 17.4291 66.9709C17.2919 66.8997 17.1586 66.8217 17.0294 66.7369C16.9002 66.6522 16.7755 66.5611 16.6554 66.4638C16.5353 66.3662 16.4205 66.263 16.3108 66.1541C16.2012 66.0451 16.0974 65.9308 15.9994 65.8112C15.9014 65.6918 15.8096 65.5677 15.7242 65.4389C15.6385 65.31 15.5597 65.1771 15.4878 65.0403C15.4156 64.9036 15.3507 64.7635 15.2928 64.6201C15.2336 64.4801 15.1818 64.3373 15.1375 64.1918C15.0931 64.0464 15.0565 63.8992 15.0276 63.7501C14.9985 63.6007 14.9771 63.4503 14.9636 63.2989C14.9501 63.1475 14.9445 62.9959 14.9468 62.8441C14.9491 62.6919 14.9593 62.5403 14.9773 62.3895C14.9952 62.2384 15.0209 62.0888 15.0544 61.9406C15.0879 61.7924 15.129 61.6463 15.1777 61.5023C15.2263 61.3582 15.2822 61.217 15.3456 61.0789C15.9802 59.7141 17.1005 59.0849 18.4531 58.6078Z" fill="#8FE2E4"/>
<path d="M-56.812 -71.1428H235.526V221.429H235.389L235.395 -70.9934L8.54012 -70.9964L-40.5585 -70.996L-51.101 -70.9954C-52.6283 -70.9972 -55.2549 -71.2683 -56.66 -70.8787L-56.812 -70.8068V-71.1428Z" fill="#4E5072"/>
<path d="M66.3297 76.9625L70.1861 84.9125C71.34 87.2682 72.6607 89.6622 73.3718 92.1951C73.6924 93.3374 73.9374 94.6285 73.5702 95.7868C73.3404 96.512 72.6541 97.3462 71.9327 97.6342C71.6278 97.7559 71.4002 97.6702 71.1162 97.5257C71.0716 97.5031 71.0322 97.4711 70.9928 97.4402C69.7133 96.4451 69.4849 93.472 68.9202 91.9574C67.7078 88.7051 64.1966 81.7865 62.2729 78.8371C63.7449 78.4128 65.0345 77.7734 66.3297 76.9625Z" fill="#4E5072"/>
<path d="M85.9004 87.4571C86.0759 87.4415 86.2517 87.4352 86.4277 87.4382C86.604 87.4415 86.7795 87.4541 86.9542 87.476C87.1289 87.4979 87.302 87.5291 87.4735 87.5697C87.645 87.6101 87.8138 87.6596 87.9799 87.7182C89.3094 88.1768 90.3086 89.1388 90.881 90.4185C90.9278 90.5216 90.972 90.6257 91.0135 90.7308C91.055 90.8361 91.0938 90.9424 91.13 91.0497C91.1659 91.1569 91.1994 91.2649 91.2302 91.3737C91.2608 91.4826 91.2887 91.5922 91.3138 91.7025C91.3388 91.813 91.361 91.924 91.3806 92.0354C91.4 92.1468 91.4167 92.2586 91.4306 92.3708C91.4445 92.4832 91.4554 92.5958 91.4634 92.7085C91.4716 92.8215 91.4769 92.9345 91.4794 93.0477C91.4819 93.1608 91.4814 93.2739 91.478 93.3868C91.4747 93.5 91.4687 93.6129 91.4597 93.7257C91.4506 93.8384 91.4387 93.9509 91.424 94.0631C91.4094 94.1753 91.3919 94.2871 91.3715 94.3985C91.3511 94.5098 91.3279 94.6204 91.3018 94.7305C91.276 94.8406 91.2472 94.9501 91.2156 95.0588C91.1842 95.1674 91.15 95.2752 91.1128 95.3823C91.0759 95.4891 91.0363 95.595 90.9941 95.7C90.235 97.5754 88.9951 98.6348 87.1746 99.3794C86.2293 99.4834 85.418 99.306 84.5729 98.8597C83.1167 98.0902 82.1494 96.598 81.7252 95.0371C81.2521 93.2977 81.436 91.4608 82.3864 89.914C83.2389 88.5257 84.35 87.8382 85.9004 87.4571Z" fill="#101055"/>
<path d="M170.427 31.0346C171.878 30.9552 173.134 31.1357 174.349 32.0123C175.665 32.9617 176.544 34.5123 176.77 36.1112C176.995 37.6994 176.561 39.4174 175.561 40.6789C174.518 41.9957 173.199 42.4674 171.597 42.6714C170.42 42.7143 169.308 42.4874 168.274 41.9063C168.184 41.8556 168.095 41.8028 168.007 41.7477C167.92 41.6925 167.834 41.6351 167.749 41.5754C167.665 41.5158 167.582 41.4541 167.5 41.3903C167.419 41.3265 167.339 41.2606 167.261 41.1926C167.183 41.1246 167.107 41.0547 167.032 40.9829C166.958 40.9111 166.885 40.8373 166.814 40.7617C166.744 40.6861 166.675 40.6088 166.608 40.5297C166.541 40.4505 166.477 40.3696 166.414 40.2872C166.352 40.2049 166.291 40.121 166.233 40.0354C166.175 39.9497 166.119 39.8627 166.065 39.7743C166.011 39.6859 165.959 39.5962 165.91 39.5052C165.861 39.4141 165.814 39.3218 165.77 39.2283C165.725 39.135 165.683 39.0405 165.643 38.9449C165.604 38.8493 165.567 38.7527 165.532 38.6552C165.497 38.5574 165.465 38.4591 165.435 38.36C165.406 38.2608 165.378 38.1609 165.354 38.0603C165.331 37.9685 165.311 37.8762 165.293 37.7834C165.275 37.6907 165.26 37.5974 165.247 37.5037C165.234 37.4102 165.224 37.3163 165.216 37.222C165.208 37.1279 165.202 37.0336 165.199 36.9392C165.196 36.8447 165.195 36.7502 165.197 36.6557C165.199 36.5613 165.203 36.4669 165.209 36.3726C165.216 36.2783 165.225 36.1842 165.237 36.0903C165.248 35.9966 165.262 35.9032 165.279 35.81C165.295 35.7169 165.314 35.6243 165.335 35.5323C165.356 35.4403 165.38 35.3489 165.406 35.258C165.432 35.1672 165.461 35.077 165.491 34.9874C165.522 34.8981 165.555 34.8096 165.59 34.722C165.625 34.6342 165.663 34.5475 165.703 34.462C165.743 34.3763 165.785 34.2916 165.829 34.208C165.873 34.1246 165.919 34.0423 165.968 33.9612C166.016 33.88 166.067 33.8002 166.12 33.7217C167.151 32.1597 168.638 31.3846 170.427 31.0346Z" fill="#5DBFBC"/>
<path d="M122.39 42.3217C123.853 42.2357 125.191 42.2497 126.569 42.8503C128.127 43.5288 129.282 44.7906 129.872 46.3791C130.804 48.8877 130.139 52.014 129.083 54.3868C128.203 56.3631 126.86 58.06 124.783 58.8423C123.356 59.1526 122.026 58.9763 120.797 58.1514C118.748 56.776 117.524 53.9957 117.028 51.6537C116.537 49.3334 116.601 47.0334 117.97 44.994C119.074 43.35 120.511 42.6797 122.39 42.3217Z" fill="#101055"/>
<path d="M52.1519 41.7588C52.273 41.7525 52.394 41.7483 52.5151 41.7463C54.6074 41.7137 56.6118 42.468 58.1135 43.9442C60.7191 46.5057 60.64 49.7405 60.6826 53.1294C60.9949 53.4776 61.2981 53.8335 61.5921 54.1971C63.1774 56.198 62.6016 58.1414 62.345 60.4574L55.7402 60.4454C54.9982 60.9105 54.2939 61.228 53.476 61.5271C51.8282 61.7191 50.6431 61.498 49.3022 60.4723L43.2687 60.4225C43.2562 60.352 43.2428 60.2817 43.2313 60.2108C43.0232 58.9274 42.6641 57.3088 42.895 56.0297C43.1186 54.7923 44.4424 54.3165 44.88 53.1142C45.9877 50.0705 44.6476 47.69 47.0703 44.5037C48.2925 42.896 50.1969 42.0405 52.1519 41.7588Z" fill="#101055"/>
<path d="M72.1262 99.4486C72.0714 98.9883 71.9187 98.3957 72.1568 97.9831C72.5927 97.7485 73.0395 97.7966 73.5177 97.7543C75.8744 99.7788 78.2548 101.759 80.429 103.983C82.0498 102.545 84.0599 100.226 86.4157 100.321C89.127 100.431 91.5819 103.287 93.7498 104.692C95.3714 103.358 96.9711 101.999 98.5489 100.614C99.4698 99.7928 100.391 98.7846 101.425 98.1151C101.741 97.9103 102.062 97.74 102.443 97.7845C102.734 97.8188 102.894 97.9103 103.133 98.0828C103.333 98.4777 103.378 98.7474 103.236 99.1786C102.407 101.689 97.7549 105.916 95.3885 107.047C94.8081 107.324 94.1558 107.489 93.5389 107.669L93.7838 130.875C93.7861 134.222 94.0593 137.859 93.6653 141.173C93.5557 139.044 93.6676 136.863 93.6679 134.728V121.393L79.4507 121.411C79.5894 119.003 79.5272 116.567 79.5392 114.154C79.552 111.547 79.63 108.931 79.5749 106.325C76.8633 104.418 74.1863 102.059 72.1262 99.4486Z" fill="#5DBFBC"/>
<path d="M173.007 86.3958C173.014 86.4369 173.019 86.478 173.026 86.5192C173.313 88.0546 175.929 91.6506 176.68 93.5286C180.722 103.635 179.047 115.569 173.108 124.579C172.397 125.658 171.641 126.736 170.821 127.735C170.346 127.895 170.031 128.333 169.703 128.697C167.607 128.795 165.458 127.229 163.464 126.756C163.149 126.904 163.137 127.162 163.011 127.476C162.996 126.395 162.895 125.213 163.08 124.147C163.401 122.296 165.557 118.425 166.394 116.313C166.105 115.57 165.831 114.821 165.487 114.102C165.587 113.46 164.038 110.487 163.671 109.684C163.554 109.315 163.502 108.99 163.469 108.605C163.378 107.506 163.025 104.481 163.774 103.596C165.379 105.481 165.601 108.203 166.918 110.309C167.225 111.191 167.489 112.201 167.923 113.024C170.736 105.205 173.29 94.7143 173.007 86.3958Z" fill="url(#paint0_linear_47_147)"/>
<path d="M163.774 103.596C165.379 105.481 165.601 108.203 166.918 110.309C167.225 111.191 167.489 112.201 167.923 113.024C168.462 114.4 170.866 119.682 170.341 120.829C170.194 121.151 169.927 121.327 169.581 121.374C169.082 121.443 168.514 121.109 168.182 120.759C167.295 119.824 166.87 117.547 166.394 116.313C166.105 115.57 165.831 114.821 165.487 114.102C165.587 113.46 164.038 110.487 163.671 109.684C163.554 109.315 163.501 108.99 163.469 108.605C163.378 107.506 163.025 104.481 163.774 103.596Z" fill="#4E5072"/>
<path d="M55.6196 7.14602C69.2233 0.362308 87.0228 -1.24369 101.91 0.958884C106.755 1.67574 111.639 2.95403 116.28 4.51774C116.761 4.67889 117.24 4.84432 117.718 5.01403C118.195 5.18374 118.671 5.35784 119.146 5.53632C119.62 5.71479 120.093 5.89755 120.564 6.0846C121.035 6.27164 121.505 6.46298 121.972 6.6586C122.44 6.85421 122.906 7.05403 123.37 7.25803C123.834 7.46203 124.296 7.67031 124.756 7.88288C125.217 8.09526 125.675 8.31184 126.131 8.5326C126.587 8.75336 127.042 8.97832 127.494 9.20746C127.946 9.43641 128.396 9.66955 128.844 9.90689C129.292 10.144 129.738 10.3854 130.182 10.6309C130.625 10.8762 131.067 11.1255 131.506 11.3789C131.945 11.6322 132.382 11.8896 132.816 12.1509C133.25 12.4122 133.682 12.6775 134.112 12.9466C134.541 13.2157 134.969 13.4888 135.393 13.7657C135.818 14.0427 136.24 14.3236 136.66 14.6083C137.079 14.8929 137.496 15.1813 137.91 15.4735C138.325 15.7656 138.736 16.0616 139.145 16.3612C139.554 16.661 139.96 16.9644 140.364 17.2715C140.767 17.5785 141.168 17.8893 141.565 18.2037C141.963 18.518 142.358 18.8359 142.75 19.1575C143.142 19.479 143.531 19.804 143.917 20.1326C144.303 20.4614 144.686 20.7936 145.067 21.1292C145.447 21.4646 145.824 21.8035 146.197 22.146C146.571 22.4885 146.942 22.8343 147.31 23.1835C147.677 23.5328 148.042 23.8854 148.403 24.2412C148.764 24.597 149.122 24.956 149.477 25.3183C149.832 25.6806 150.183 26.0461 150.531 26.4149C150.879 26.7836 151.224 27.1556 151.565 27.5306C151.906 27.9055 152.244 28.2835 152.579 28.6646C152.913 29.0457 153.244 29.4299 153.572 29.8172C153.899 30.2042 154.223 30.5943 154.544 30.9875C154.864 31.3804 155.181 31.7763 155.494 32.1752C158.87 36.4149 161.797 40.734 164.203 45.6015C170.608 58.5597 173.395 71.9583 173.007 86.3957C173.29 94.7143 170.735 105.205 167.923 113.024C167.489 112.201 167.225 111.191 166.918 110.309C169.783 102.4 170.962 93.8589 171.302 85.4829C172.025 65.0003 164.482 43.9666 150.471 28.9515C150.006 28.4444 149.534 27.9432 149.057 27.4477C148.579 26.9523 148.096 26.4629 147.606 25.9795C147.117 25.496 146.621 25.0187 146.12 24.5475C145.619 24.076 145.112 23.611 144.599 23.1523C144.086 22.6935 143.568 22.241 143.044 21.7949C142.52 21.349 141.991 20.9095 141.456 20.4763C140.922 20.0434 140.382 19.6171 139.836 19.1975C139.291 18.7776 138.741 18.3647 138.186 17.9586C137.631 17.5525 137.07 17.1533 136.505 16.7609C135.94 16.3685 135.37 15.9832 134.796 15.6049C134.221 15.2266 133.642 14.8555 133.058 14.4915C132.474 14.1273 131.886 13.7704 131.294 13.4209C130.701 13.0714 130.105 12.7292 129.504 12.3943C128.903 12.0595 128.298 11.732 127.689 11.412C127.08 11.092 126.467 10.7796 125.85 10.4749C125.234 10.1699 124.614 9.87269 123.99 9.58317C123.366 9.29364 122.738 9.01184 122.107 8.73774C121.476 8.46346 120.842 8.19707 120.205 7.9386C119.567 7.68012 118.927 7.42955 118.283 7.18688C117.64 6.94402 116.993 6.70926 116.344 6.4826C115.694 6.25574 115.042 6.03698 114.388 5.82631C113.733 5.61545 113.075 5.41279 112.416 5.21831C111.756 5.02365 111.094 4.83727 110.43 4.65917C109.765 4.48089 109.099 4.31079 108.43 4.14888C107.762 3.98717 107.091 3.83364 106.419 3.68831C105.747 3.54298 105.073 3.40593 104.397 3.27717C103.722 3.14841 103.044 3.02802 102.366 2.91602C101.687 2.80402 101.007 2.70031 100.326 2.60488C99.6451 2.50965 98.9628 2.42278 98.2796 2.34431C97.5961 2.26583 96.9119 2.19584 96.2269 2.13431C95.542 2.0726 94.8563 2.01936 94.17 1.9746C93.4837 1.92983 92.7969 1.89355 92.1096 1.86574C90.8183 1.82174 89.5267 1.8085 88.2347 1.82603C86.9426 1.84336 85.6518 1.89136 84.3621 1.97003C83.0723 2.04869 81.7851 2.15803 80.5006 2.29803C79.2161 2.43784 77.9356 2.60802 76.6591 2.80859C75.3826 3.00936 74.1116 3.24022 72.8462 3.50117C71.5807 3.76231 70.3221 4.05326 69.0703 4.37402C67.8186 4.69498 66.5752 5.04536 65.3402 5.42517C64.1051 5.80517 62.8797 6.21421 61.6639 6.65231C59.9616 7.27174 58.1959 7.87231 56.5729 8.68146L55.6196 7.14602Z" fill="#101055"/>
<path d="M5.7387 86.0143C6.0199 91.0431 6.49381 95.996 7.53555 100.93C10.0121 112.661 15.6528 124.641 23.2653 133.915C26.0619 137.322 29.1865 140.39 32.4143 143.381C28.289 143.23 24.3447 141.531 20.8161 139.496C11.5886 134.175 4.27073 126.173 1.48724 115.674C-1.22374 105.447 0.467192 95.1131 5.7387 86.0143Z" fill="url(#paint1_linear_47_147)"/>
<path d="M142.695 81.4374C146.905 78.2428 152.39 77.0628 157.593 77.7982C162.449 78.4848 168.224 81.3734 171.211 85.3582C171.242 85.3994 171.272 85.4411 171.302 85.4828C170.962 93.8588 169.783 102.4 166.918 110.309C165.601 108.203 165.379 105.481 163.774 103.596C163.025 104.481 163.378 107.506 163.469 108.605C163.501 108.99 163.554 109.315 163.671 109.684C164.038 110.487 165.587 113.46 165.487 114.102C165.082 115.241 164.167 118.612 163.222 119.147L163.145 118.845C162.026 118.636 160.548 118.814 159.394 118.818L150.278 118.853C150.478 115.523 150.293 112.101 150.267 108.764C149.744 108.729 149.277 108.664 148.806 108.42C146.385 107.168 142.699 102.421 141.886 99.8674C141.705 99.298 141.614 98.5848 141.958 98.0579C142.236 97.632 142.744 97.5371 143.202 97.4022L143.138 97.2239C143.873 97.1051 144.545 96.8831 144.988 96.2388C145.306 95.7765 145.437 95.1702 145.426 94.6162C145.396 92.9725 144.829 91.19 144.469 89.5897C143.842 86.88 143.251 84.1625 142.695 81.4374Z" fill="url(#paint2_linear_47_147)"/>
<path d="M156.196 87.606C157.152 87.5474 158.091 87.5697 158.995 87.9209C160.165 88.3749 161.041 89.2766 161.495 90.4428C162.191 92.2291 161.891 94.4257 161.116 96.1466C160.374 97.794 159.242 98.9297 157.554 99.5763C156.6 99.6626 155.782 99.5011 154.955 99.0103C153.346 98.0566 152.369 96.2851 151.954 94.5029C151.586 92.9194 151.621 91.1617 152.528 89.76C153.411 88.3948 154.672 87.8931 156.196 87.606Z" fill="#101055"/>
<path d="M143.202 97.4023C143.904 98.0935 144.353 99.0638 144.894 99.8863C146.087 101.697 147.538 103.611 149.201 105.009C151.164 102.797 153.275 100.567 156.435 100.353C158.534 100.21 161.391 101.298 162.956 102.706C163.256 102.976 163.517 103.287 163.774 103.596C163.025 104.481 163.378 107.506 163.469 108.605C163.501 108.99 163.554 109.315 163.671 109.684C164.038 110.487 165.587 113.46 165.487 114.102C165.082 115.241 164.167 118.612 163.222 119.147L163.145 118.845C162.026 118.636 160.548 118.814 159.394 118.818L150.278 118.853C150.478 115.523 150.293 112.101 150.267 108.764C149.744 108.729 149.277 108.664 148.806 108.42C146.385 107.168 142.699 102.421 141.886 99.8675C141.705 99.2981 141.614 98.5849 141.958 98.0581C142.236 97.6321 142.744 97.5372 143.202 97.4023Z" fill="#5DBFBC"/>
<path d="M163.145 118.846C163.284 117.103 163.095 110.783 163.67 109.684C164.038 110.487 165.587 113.46 165.487 114.102C165.082 115.241 164.167 118.612 163.222 119.147L163.145 118.846Z" fill="#8FE2E4"/>
<path d="M111.738 71.1166C110.668 74.3106 109.881 77.5926 109.017 80.8463C108.392 83.1986 107.68 85.5112 107.101 87.8789C106.506 90.3175 106.241 93.1858 105.307 95.4798C105.016 96.1958 104.647 96.8618 103.881 97.1358C103.328 97.3335 102.824 97.2752 102.313 96.9926C101.724 96.6669 101.361 96.1372 101.213 95.4866C101.046 94.7489 101.141 93.968 101.281 93.2332C101.732 90.8658 102.453 88.5098 103.054 86.1746C103.853 83.016 104.62 79.8497 105.356 76.6758C106.053 73.7143 106.323 70.6406 107.054 67.7126C107.158 67.2926 107.292 66.8823 107.457 66.4818C107.621 66.0814 107.813 65.6951 108.034 65.3229C109.25 63.2798 111.126 62.0441 113.409 61.4709C118.474 60.1992 131.889 59.8503 136.246 62.5203C137.637 63.3723 138.87 64.6038 139.58 66.0843C140.541 68.0901 140.55 70.7163 140.943 72.9058C141.455 75.7555 142.02 78.6221 142.695 81.4375C143.25 84.1626 143.842 86.8801 144.469 89.5898C144.829 91.1901 145.396 92.9726 145.426 94.6163C145.437 95.1703 145.306 95.7766 144.988 96.2389C144.544 96.8832 143.873 97.1052 143.138 97.224C142.513 96.9918 141.752 96.7755 141.452 96.1103C140.636 94.2986 140.057 89.3389 139.561 87.1415C138.398 81.9975 136.955 76.9146 135.679 71.7972C135.381 77.7806 135.444 83.7492 135.446 89.7375C135.448 92.4575 135.714 95.5126 135.344 98.2012C135.271 97.4829 135.312 96.738 135.314 96.0158C127.616 96.2429 119.882 96.1138 112.18 96.1269C112.16 87.812 112.107 79.4206 111.738 71.1166Z" fill="#8D79C6"/>
<path d="M56.209 61.0448C56.9721 61.3331 57.8114 61.5979 58.4914 62.0568C60.7693 63.5939 62.331 67.3228 63.4435 69.7791C64.3191 71.7125 65.8833 74.9591 66.33 76.9625C65.0348 77.7734 63.7453 78.4128 62.2733 78.8371L61.9638 78.9402C61.5476 79.8722 62.9256 84.3519 63.1808 85.6342C64.6825 93.1748 66.1159 100.725 67.7503 108.24C68.7847 112.996 70.1193 117.746 70.9158 122.544C68.5803 122.559 62.8266 122.874 60.8224 122.446C58.9345 122.055 55.9949 122.255 54.0339 122.393C52.7829 122.477 51.5199 122.453 50.2683 122.396C48.1977 122.131 45.9069 122.311 43.8117 122.313C40.5385 122.264 37.266 122.294 33.9941 122.404C34.1201 121.896 34.2416 121.386 34.3584 120.876C36.3771 112.046 37.9875 103.059 39.689 94.1597C40.5709 89.5471 41.7585 84.9137 42.3712 80.2611C42.438 79.7548 42.5604 79.2148 42.2755 78.7594C40.8821 78.4282 39.5363 77.5216 38.4437 76.6236C38.5865 75.9762 38.8591 75.3365 39.0815 74.7114C40.6817 70.9105 43.0332 63.2499 47.1319 61.6059C47.6447 61.4002 48.1837 61.2551 48.7184 61.1182C49.1446 62.6274 50.4028 67.0428 51.7759 67.8885C52.0814 68.0768 52.4009 68.1339 52.7432 67.9974C54.1609 67.4319 55.789 62.4662 56.209 61.0448Z" fill="#F2D261"/>
<path d="M7.42822 83.7538L7.56811 83.8903C8.27583 83.6181 9.0966 82.3212 9.68214 81.7523C10.767 80.696 11.922 79.723 13.1471 78.8335C14.9599 77.5121 16.8724 76.5792 18.9599 75.7661C25.8312 73.0886 31.9978 73.6083 39.0813 74.7115C38.8589 75.3366 38.5862 75.9763 38.4435 76.6238C39.536 77.5218 40.8818 78.4283 42.2753 78.7595C42.5602 79.2149 42.4377 79.7549 42.3709 80.2612C41.7583 84.9138 40.5706 89.5472 39.6888 94.1598C37.9873 103.059 36.3768 112.046 34.3582 120.876C34.2413 121.387 34.1199 121.896 33.9939 122.404C37.2657 122.294 40.5383 122.264 43.8115 122.313C45.9067 122.311 48.1974 122.131 50.268 122.396C51.5196 122.453 52.7826 122.477 54.0336 122.393C55.9946 122.255 58.9343 122.055 60.8222 122.446C60.8447 130.589 60.6812 138.756 60.849 146.895C58.5828 146.827 56.3004 146.881 54.0325 146.879C52.7657 146.89 51.4989 146.889 50.2321 146.874C48.1046 146.812 45.9626 146.861 43.8337 146.859L39.9714 146.86C36.8033 144.595 33.8777 142.174 31.0214 139.523C20.037 129.324 12.3394 115.098 9.26647 100.462C8.10768 94.9412 7.63235 89.3821 7.42822 83.7538Z" fill="url(#paint3_linear_47_147)"/>
<path d="M42.2755 78.7594C40.9081 80.1991 36.2187 90.1651 35.5318 92.2714C35.0379 93.7859 35.0296 95.5008 34.4389 96.9651C34.1603 97.6562 33.6621 98.2791 32.9527 98.5582C32.537 98.7219 31.9703 98.7531 31.5675 98.5297C31.1758 98.3125 30.9757 98.0137 30.8353 97.6017C30.3856 96.2831 30.574 94.0977 30.934 92.7405C31.7037 89.8397 33.4152 87.0585 34.725 84.3614C35.9746 81.7888 37.1219 79.1591 38.4438 76.6237C39.5363 77.5217 40.8821 78.4282 42.2755 78.7594Z" fill="#4E5072"/>
<path d="M43.8115 122.313C45.9067 122.311 48.1975 122.131 50.2681 122.396L50.2321 146.874C48.1047 146.812 45.9627 146.861 43.8338 146.859C43.8783 138.677 43.8709 130.495 43.8115 122.313Z" fill="#4E5072"/>
<path d="M54.034 122.393C55.995 122.255 58.9346 122.055 60.8225 122.446C60.8451 130.589 60.6815 138.756 60.8494 146.895C58.5832 146.827 56.3007 146.881 54.0328 146.879C52.766 146.89 51.4992 146.889 50.2324 146.874L50.2684 122.396C51.52 122.453 52.783 122.477 54.034 122.393Z" fill="#4E5072"/>
<path d="M50.2684 122.396C51.52 122.453 52.783 122.477 54.034 122.393C53.9929 130.555 53.9925 138.717 54.0328 146.879C52.766 146.89 51.4992 146.889 50.2324 146.874L50.2684 122.396Z" fill="#FEFEFE"/>
<path d="M5.73871 86.0142C5.41668 77.542 6.36306 68.7608 8.74944 60.6154C9.01266 59.6914 9.29196 58.7723 9.58735 57.8582C9.88273 56.944 10.194 56.0352 10.5212 55.132C10.8482 54.2285 11.1909 53.3312 11.5495 52.44C11.9079 51.5487 12.2817 50.664 12.6709 49.7857C13.0603 48.9074 13.4648 48.0361 13.8845 47.172C14.3042 46.308 14.7389 45.4515 15.1886 44.6025C15.6381 43.7536 16.1024 42.9128 16.5815 42.0802C17.0603 41.2475 17.5537 40.4234 18.0614 39.608C18.5692 38.7925 19.091 37.9862 19.6268 37.1891C20.1627 36.392 20.7124 35.6043 21.2757 34.8262C21.8391 34.0483 22.4159 33.2804 23.0061 32.5225C23.5963 31.7648 24.1995 31.0176 24.8158 30.2808C25.432 29.5442 26.061 28.8185 26.7025 28.1037C27.3441 27.389 27.998 26.6858 28.6641 25.994C29.3303 25.3021 30.0083 24.6221 30.6982 23.954C31.3881 23.2858 32.0895 22.6299 32.8022 21.9862C34.914 20.0742 37.2801 17.7414 39.7892 16.3702C40.1204 16.8371 40.4156 17.332 40.7216 17.8157C37.4089 20.1242 34.2657 22.9994 31.3791 25.8137C30.9895 26.1975 30.6039 26.5852 30.2223 26.9768C29.8405 27.3684 29.4628 27.764 29.0892 28.1634C28.7156 28.5626 28.3462 28.9657 27.981 29.3725C27.6155 29.7796 27.2543 30.1902 26.8972 30.6045C26.5402 31.0186 26.1874 31.4364 25.8389 31.858C25.4903 32.2795 25.1461 32.7044 24.8063 33.1328C24.4664 33.5614 24.131 33.9933 23.8 34.4285C23.4688 34.864 23.1422 35.3026 22.8202 35.7445C22.498 36.1866 22.1803 36.6319 21.8673 37.0802C21.5542 37.5286 21.2458 37.9802 20.942 38.4351C20.638 38.8898 20.3388 39.3476 20.0441 39.8085C19.7497 40.2693 19.4599 40.7331 19.1748 41.2C18.8897 41.6668 18.6094 42.1364 18.3338 42.6088C18.0584 43.0814 17.7878 43.5566 17.5219 44.0345C17.256 44.5126 16.9951 44.9934 16.7391 45.4768C16.4829 45.9601 16.2318 46.446 15.9857 46.9345C15.7396 47.4229 15.4984 47.9138 15.2622 48.4071C15.0261 48.9004 14.7949 49.3961 14.5688 49.8942C14.3427 50.3923 14.1217 50.8927 13.9059 51.3954C13.6901 51.898 13.4794 52.4028 13.2738 52.9097C13.0681 53.4165 12.8677 53.9255 12.6726 54.4365C12.4773 54.9476 12.2873 55.4605 12.1025 55.9754C11.9177 56.4902 11.7382 57.0069 11.5641 57.5254C11.3897 58.044 11.2207 58.5643 11.057 59.0862C10.8934 59.6081 10.7351 60.1318 10.5823 60.6571C10.4292 61.1822 10.2816 61.7089 10.1392 62.2371C9.99702 62.7653 9.86018 63.2949 9.72866 63.826C9.59715 64.357 9.47115 64.8893 9.35068 65.4228C9.23001 65.9565 9.11477 66.4913 9.00496 67.0271C8.89533 67.5631 8.79103 68.1001 8.69206 68.6382C8.59329 69.1763 8.50002 69.7153 8.41228 70.2551C8.32454 70.7951 8.24223 71.3359 8.16534 71.8777C7.61578 75.8054 7.47846 79.7922 7.42821 83.7537C7.63234 89.382 8.10767 94.9411 9.26646 100.462C12.3394 115.098 20.037 129.324 31.0214 139.523C33.8777 142.174 36.8033 144.595 39.9714 146.86L43.8337 146.859C45.9626 146.861 48.1046 146.812 50.2321 146.874C51.4989 146.889 52.7657 146.89 54.0325 146.879C56.3004 146.881 58.5828 146.827 60.849 146.895C68.0995 147.167 75.4465 146.946 82.7064 146.957L82.6959 141.214L79.1156 141.213C79.0354 137.322 79.2269 133.398 79.2983 129.505C79.3477 126.823 79.2403 124.084 79.4505 121.411L93.6677 121.393V134.728C93.6674 136.863 93.5555 139.044 93.6651 141.173L90.1787 141.258C90.1382 143.171 90.1879 145.094 90.1976 147.008L112.509 147.009C112.689 130.046 112.579 113.086 112.18 96.1268C119.882 96.1137 127.616 96.2428 135.314 96.0157C135.312 96.738 135.271 97.4828 135.344 98.2011C135.714 95.5125 135.448 92.4574 135.446 89.7374C135.444 83.7491 135.381 77.7805 135.679 71.7971C136.955 76.9145 138.399 81.9974 139.561 87.1414C140.058 89.3388 140.636 94.2985 141.452 96.1102C141.752 96.7754 142.514 96.9917 143.138 97.224L143.202 97.4022C142.744 97.5371 142.236 97.632 141.958 98.058C141.614 98.5848 141.705 99.298 141.886 99.8674C142.699 102.421 146.384 107.168 148.806 108.42C149.277 108.664 149.744 108.729 150.267 108.764C150.292 112.101 150.478 115.523 150.278 118.853L159.394 118.818C160.548 118.814 162.026 118.636 163.145 118.845L163.222 119.147C164.167 118.612 165.082 115.241 165.487 114.102C165.83 114.821 166.105 115.57 166.394 116.313C165.557 118.425 163.401 122.296 163.08 124.147C162.895 125.213 162.995 126.395 163.011 127.476C162.978 128.702 162.961 129.931 162.902 131.157C162.866 132.988 162.703 134.783 162.582 136.609C162.486 137.034 162.418 137.487 162.237 137.884L161.957 137.885C160.602 137.85 159.25 137.819 157.897 137.717C158.213 137.976 158.202 137.996 158.233 138.421C158.242 138.551 158.239 138.681 158.238 138.812C157.19 139.035 156.038 139.308 155.189 140.009L155.161 140.786C153.914 141.212 152.773 141.471 151.461 141.579C151.461 140.656 151.453 139.743 151.381 138.822C148.687 141.752 145.767 144.751 142.662 147.249C145.018 147.236 147.39 147.172 149.744 147.295L149.755 149.905L32.4237 149.705L32.4385 146.686C33.9559 146.779 35.4558 146.851 36.9772 146.831C35.3859 145.761 33.9085 144.581 32.4143 143.381C29.1866 140.39 26.0619 137.322 23.2653 133.915C15.6528 124.641 10.0122 112.661 7.53556 100.93C6.49382 95.996 6.01991 91.0431 5.73871 86.0142Z" fill="#101055"/>
<path d="M155.189 134.847C155.529 134.366 155.907 133.908 156.271 133.445C156.344 134.779 155.964 136.348 156.636 137.542C157.098 137.819 157.367 137.736 157.897 137.717C158.213 137.976 158.202 137.996 158.233 138.421C158.242 138.551 158.239 138.682 158.238 138.812C157.19 139.036 156.038 139.308 155.189 140.009L155.2 138.118C155.18 137.029 155.192 135.937 155.189 134.847Z" fill="#FFFDB4"/>
<path d="M151.381 138.822L151.732 138.423C152.739 138.071 154.133 138.172 155.2 138.118L155.189 140.009L155.161 140.786C153.914 141.212 152.773 141.471 151.461 141.579C151.461 140.656 151.453 139.743 151.381 138.822Z" fill="#4E5072"/>
<path d="M85.8641 132.639C86.1719 132.663 86.3863 132.709 86.6706 132.83C87.2373 133.505 86.9615 139.805 86.9607 141.18C87.6664 141.184 88.3735 141.209 89.0793 141.224L89.1612 146.988L87.3943 146.982L83.9123 146.977C83.7107 145.078 83.8106 143.109 83.8432 141.203L85.4998 141.142C85.5098 139.251 85.0762 134.055 85.8641 132.639Z" fill="#FEFEFE"/>
<path d="M122.938 107.352L124.551 107.341C124.689 120.564 124.658 133.813 124.548 147.037C124.029 147.054 123.55 147.093 123.046 146.946C122.787 146.298 122.93 111.389 122.938 107.352Z" fill="#FEFEFE"/>
<path d="M135.344 98.2011C135.715 95.5125 135.448 92.4574 135.447 89.7374C135.444 83.7491 135.381 77.7805 135.679 71.7971C136.956 76.9145 138.399 81.9974 139.561 87.1414C140.058 89.3388 140.636 94.2985 141.452 96.1103C141.752 96.7754 142.514 96.9917 143.138 97.224L143.202 97.4023C142.744 97.5371 142.237 97.632 141.959 98.058C141.614 98.5848 141.705 99.298 141.886 99.8674C142.699 102.421 146.385 107.168 148.806 108.42C149.278 108.664 149.745 108.729 150.267 108.764C150.293 112.101 150.478 115.523 150.278 118.853C150.082 121.01 150.18 123.232 150.183 125.399C150.214 129.437 150.201 133.475 150.143 137.513C148.914 139.05 147.437 140.593 145.848 141.77C143.623 143.771 141.272 145.549 138.835 147.282L135.17 147.301L135.155 142.07C134.765 127.467 135.216 112.808 135.344 98.2011Z" fill="#FEFEFE"/>
</g>
<defs>
<linearGradient id="paint0_linear_47_147" x1="158.932" y1="111.982" x2="180.095" y2="105.856" gradientUnits="userSpaceOnUse">
<stop stop-color="#D2D1C7"/>
<stop offset="1" stop-color="#9A94DC"/>
</linearGradient>
<linearGradient id="paint1_linear_47_147" x1="4.90224" y1="123.648" x2="21.9373" y2="112.704" gradientUnits="userSpaceOnUse">
<stop stop-color="#3D92BD"/>
<stop offset="1" stop-color="#88E2D4"/>
</linearGradient>
<linearGradient id="paint2_linear_47_147" x1="172.214" y1="90.2891" x2="143.678" y2="97.5926" gradientUnits="userSpaceOnUse">
<stop stop-color="#AAA6DC"/>
<stop offset="1" stop-color="#E6E7E5"/>
</linearGradient>
<linearGradient id="paint3_linear_47_147" x1="9.45086" y1="112.091" x2="44.2212" y2="109.662" gradientUnits="userSpaceOnUse">
<stop stop-color="#79CECB"/>
<stop offset="1" stop-color="#DFE7E4"/>
</linearGradient>
<clipPath id="clip0_47_147">
<rect width="179" height="150" fill="white"/>
</clipPath>
</defs>
</svg>
