<svg width="150" height="150" viewBox="0 0 150 150" fill="none" xmlns="http://www.w3.org/2000/svg">
<g clip-path="url(#clip0_47_2506)">
<path d="M109.042 149.049C109.162 149.275 109.112 149.452 109.089 149.695C109.076 149.845 109.07 149.783 109.111 149.917L109.131 150H107.889L107.905 149.933C107.98 149.919 108.054 149.908 108.127 149.889C108.587 149.77 108.818 149.44 109.042 149.049Z" fill="#FEFEFE"/>
<path d="M55.3025 149.936C56.398 149.858 57.5162 149.902 58.6147 149.905L64.1889 149.915L84.1357 149.919L100.497 149.912L105.115 149.915C106.034 149.911 106.991 149.845 107.905 149.933L107.889 150H55.3008L55.3025 149.936Z" fill="#8D79C6"/>
<path d="M42.9406 70.3115C40.3435 69.0832 38.1276 67.4833 36.1934 65.3562C32.84 61.6682 31.0792 56.5228 31.3202 51.5578C31.3276 51.4013 31.3369 51.2448 31.3482 51.0884C31.3594 50.932 31.3726 50.7759 31.3877 50.6199C31.4028 50.4638 31.4197 50.308 31.4387 50.1523C31.4577 49.9968 31.4786 49.8414 31.5014 49.6864C31.5242 49.5313 31.5489 49.3765 31.5755 49.222C31.6022 49.0675 31.6307 48.9134 31.6612 48.7596C31.6916 48.6058 31.7239 48.4525 31.7582 48.2994C31.7924 48.1465 31.8286 47.994 31.8666 47.8418C31.9046 47.6898 31.9444 47.5382 31.9861 47.3871C32.0279 47.2361 32.0716 47.0855 32.1171 46.9354C32.1625 46.7854 32.2098 46.636 32.259 46.4871C32.3081 46.3383 32.3591 46.1901 32.4119 46.0426C32.4648 45.8949 32.5195 45.748 32.576 45.6018C32.6324 45.4555 32.6907 45.31 32.7508 45.1653C32.8108 45.0204 32.8727 44.8764 32.9363 44.7331C32.9999 44.5899 33.0653 44.4474 33.1325 44.3057C33.1996 44.1641 33.2685 44.0233 33.3392 43.8834C33.4098 43.7434 33.4821 43.6044 33.5561 43.4662C33.6302 43.328 33.706 43.1908 33.7835 43.0546C33.8609 42.9182 33.9401 42.7829 34.0209 42.6487C34.1017 42.5143 34.1841 42.381 34.2682 42.2488C34.3524 42.1164 34.4381 41.9852 34.5254 41.855C34.6127 41.7248 34.7017 41.5958 34.7923 41.4678C34.8828 41.3398 34.9749 41.213 35.0686 41.0873C35.1622 40.9616 35.2574 40.8371 35.3542 40.7137C35.451 40.5904 35.5492 40.4683 35.6489 40.3474C35.7487 40.2265 35.85 40.1069 35.9528 39.9885C36.0555 39.87 36.1597 39.7529 36.2654 39.6371C36.3709 39.5213 36.4779 39.4068 36.5864 39.2936C36.6949 39.1804 36.8048 39.0686 36.9159 38.9581C37.0271 38.8477 37.1397 38.7386 37.2537 38.6309C37.3676 38.5232 37.4829 38.4169 37.5994 38.3121C40.3731 35.8055 44.1062 34.0399 47.8285 33.5659C49.5535 33.3462 51.2444 33.3825 52.9741 33.4743L53.029 86.5166C51.6712 84.6763 50.2902 82.8535 48.8859 81.0484C46.9436 78.5114 45.5655 76.4016 42.6737 74.7958C41.4778 74.1318 40.2792 73.6866 38.923 73.4917C38.2502 73.3949 37.4818 73.4014 36.8347 73.2397C37.6641 72.8754 38.3891 72.2442 39.1829 71.8004C40.3647 71.1394 41.662 70.7382 42.9406 70.3115Z" fill="#5EBFBD"/>
<path d="M67.0858 130.072C67.3835 129.958 67.6545 129.906 67.9729 129.891C69.6812 129.808 71.4124 129.862 73.1239 129.86L82.6836 129.849L91.521 129.846C93.0282 129.846 94.57 129.783 96.0735 129.865C96.3215 130.034 96.5576 130.201 96.7828 130.399C97.8401 130.322 98.9358 130.376 99.998 130.376C102.046 130.383 104.094 130.378 106.143 130.361C106.186 135.9 106.18 141.439 106.125 146.978L80.7936 146.999L57.1167 146.987L57.1182 129.992C58.0012 130.167 59.0201 130.08 59.9201 130.079L64.537 130.064C65.3825 130.061 66.2427 130.019 67.0858 130.072Z" fill="#F1D161"/>
<path d="M67.0857 130.072C67.3834 129.958 67.6543 129.906 67.9728 129.891C69.6811 129.808 71.4123 129.862 73.1238 129.86L82.6835 129.849L91.5209 129.846C93.0281 129.846 94.5698 129.783 96.0733 129.865C96.3213 130.034 96.5575 130.201 96.7826 130.399C97.0527 130.897 97.133 131.409 96.9534 131.959C96.8484 132.28 96.6363 132.559 96.3271 132.706C95.5995 133.053 88.2823 132.891 86.9857 132.865L74.6396 132.864C72.5292 132.864 70.4006 132.924 68.292 132.858C67.7105 132.84 67.1894 132.778 66.7842 132.31C66.5172 132.002 66.4166 131.612 66.4431 131.21C66.4775 130.69 66.7088 130.406 67.0857 130.072Z" fill="#101055"/>
<path d="M150 88.3116C149.971 88.4133 149.941 88.5143 149.909 88.6147C149.67 89.349 149.187 89.942 148.485 90.2799C147.835 90.5936 147.082 90.6591 146.398 90.4193C145.683 90.1689 145.059 89.6071 144.753 88.9124C144.449 88.2214 144.467 87.4103 144.76 86.7186C144.779 86.6748 144.799 86.6314 144.82 86.5885C144.841 86.5457 144.864 86.5034 144.887 86.4617C144.91 86.4199 144.934 86.3787 144.96 86.3382C144.985 86.2977 145.011 86.2578 145.039 86.2187C145.066 86.1794 145.094 86.1409 145.123 86.1031C145.153 86.0653 145.183 86.0282 145.214 85.9919C145.245 85.9556 145.277 85.9201 145.31 85.8854C145.342 85.8507 145.376 85.8169 145.411 85.7839C145.445 85.7508 145.481 85.7186 145.517 85.6874C145.553 85.6561 145.59 85.6258 145.627 85.5964C145.665 85.567 145.703 85.5385 145.742 85.511C145.782 85.4836 145.821 85.4571 145.862 85.4316C145.902 85.4061 145.943 85.3816 145.985 85.3581C146.026 85.3346 146.069 85.3123 146.111 85.291C146.154 85.2696 146.197 85.2493 146.241 85.23C146.285 85.2109 146.329 85.1928 146.374 85.1758C147.031 84.9306 147.747 84.951 148.381 85.2554C149.295 85.6947 149.667 86.4435 150 87.3415V88.3116Z" fill="#8D79C6"/>
<path d="M126.202 30.6979C126.783 30.6561 127.311 30.6657 127.855 30.9016C127.937 30.9374 128.017 30.977 128.094 31.0206C128.172 31.064 128.248 31.1113 128.321 31.1622C128.394 31.2132 128.465 31.2677 128.533 31.3256C128.601 31.3834 128.666 31.4444 128.728 31.5087C128.79 31.5729 128.848 31.6401 128.904 31.7101C128.959 31.7801 129.011 31.8527 129.059 31.9278C129.107 32.0029 129.151 32.0801 129.192 32.1595C129.233 32.239 129.269 32.3202 129.302 32.4032C129.319 32.4472 129.335 32.4916 129.35 32.5364C129.365 32.5812 129.379 32.6264 129.392 32.6719C129.404 32.7174 129.416 32.7632 129.426 32.8093C129.437 32.8554 129.446 32.9017 129.454 32.9483C129.462 32.9948 129.469 33.0415 129.474 33.0885C129.48 33.1354 129.485 33.1824 129.488 33.2296C129.491 33.2766 129.493 33.3238 129.494 33.3711C129.495 33.4183 129.495 33.4656 129.493 33.5127C129.492 33.56 129.489 33.6072 129.485 33.6542C129.481 33.7013 129.476 33.7482 129.47 33.795C129.464 33.8419 129.456 33.8886 129.448 33.935C129.439 33.9814 129.429 34.0276 129.418 34.0736C129.407 34.1195 129.395 34.1652 129.382 34.2106C129.369 34.2559 129.354 34.3009 129.338 34.3455C129.323 34.39 129.306 34.4342 129.288 34.4779C129.271 34.5218 129.252 34.5651 129.232 34.6078C128.851 35.4129 128.184 35.8644 127.37 36.1496C126.632 36.2578 125.91 36.2293 125.255 35.8377C125.18 35.7928 125.107 35.7443 125.037 35.6921C124.967 35.64 124.899 35.5845 124.835 35.5257C124.77 35.4669 124.708 35.4051 124.65 35.3403C124.591 35.2753 124.536 35.2077 124.484 35.1374C124.432 35.0671 124.384 34.9944 124.339 34.9193C124.294 34.8442 124.253 34.767 124.216 34.6878C124.179 34.6087 124.146 34.528 124.117 34.4455C124.088 34.3631 124.063 34.2795 124.042 34.1946C123.855 33.4374 123.953 32.5806 124.365 31.9121C124.8 31.2063 125.428 30.8946 126.202 30.6979Z" fill="#8D79C6"/>
<path d="M136.183 99.8465C136.77 99.8308 137.375 99.9559 137.874 100.272C138.486 100.66 138.893 101.293 139.052 101.993C139.233 102.79 139.096 103.638 138.632 104.315C138.139 105.036 137.437 105.373 136.597 105.519C135.957 105.54 135.314 105.411 134.771 105.062C134.734 105.038 134.698 105.013 134.662 104.988C134.626 104.962 134.591 104.935 134.557 104.908C134.522 104.88 134.489 104.852 134.456 104.823C134.423 104.794 134.391 104.764 134.359 104.733C134.328 104.702 134.297 104.67 134.267 104.638C134.238 104.606 134.209 104.573 134.181 104.539C134.152 104.505 134.125 104.47 134.099 104.435C134.072 104.4 134.047 104.364 134.022 104.328C133.998 104.291 133.974 104.254 133.951 104.216C133.929 104.179 133.907 104.14 133.886 104.102C133.865 104.063 133.846 104.024 133.827 103.984C133.808 103.944 133.79 103.904 133.774 103.863C133.757 103.822 133.741 103.781 133.726 103.74C133.712 103.698 133.698 103.656 133.686 103.614C133.673 103.572 133.662 103.53 133.651 103.487C133.641 103.444 133.632 103.401 133.623 103.358C133.47 102.585 133.608 101.744 134.049 101.087C134.575 100.304 135.295 100.009 136.183 99.8465Z" fill="#8D79C6"/>
<path d="M143.185 42.0917C143.195 41.1706 142.931 38.3357 143.518 37.6708C143.678 37.4886 143.896 37.3972 144.137 37.399C144.347 37.4004 144.54 37.4789 144.686 37.6313C145.304 38.2732 145.047 41.1829 145.044 42.1177C146.074 42.1345 148.756 41.941 149.571 42.1902C149.739 42.2417 149.875 42.3778 150 42.4973V43.5941C149.836 43.7451 149.665 43.8908 149.445 43.9505C148.474 44.2135 146.177 44.035 145.081 44.0253C145.06 44.9674 145.293 47.6488 144.819 48.3851C144.687 48.5899 144.497 48.733 144.252 48.7705C143.996 48.8098 143.759 48.739 143.562 48.5675C142.918 48.0046 143.176 44.8518 143.184 44.0151C142.399 44.0155 139.1 44.2303 138.564 43.7638C138.376 43.5996 138.279 43.3595 138.261 43.1137C138.242 42.8492 138.327 42.5671 138.514 42.3746C138.992 41.884 142.35 42.0979 143.185 42.0917Z" fill="#101055"/>
<path d="M134.428 64.749C134.939 65.5759 135.338 66.4727 135.86 67.2962C137.216 69.4358 139.38 70.6097 141.574 71.71C138.347 73.2192 136.171 75.2815 134.609 78.4855L134.509 78.634L134.402 78.5999C132.949 75.2946 130.916 73.3374 127.663 71.8654C128.373 71.4119 129.168 71.0925 129.88 70.6335C131.976 69.2817 133.516 67.0368 134.428 64.749Z" fill="#F1D161"/>
<path d="M118.833 112.695C120.003 112.91 121.174 113.123 122.31 113.482C126.235 114.72 129.351 117.31 131.662 120.675C131.747 120.802 131.831 120.929 131.913 121.058C131.996 121.187 132.076 121.317 132.155 121.447C132.235 121.578 132.312 121.71 132.388 121.842C132.464 121.975 132.538 122.108 132.611 122.243C132.683 122.377 132.754 122.513 132.823 122.649C132.893 122.785 132.96 122.922 133.026 123.06C133.092 123.198 133.156 123.336 133.219 123.476C133.281 123.615 133.342 123.755 133.401 123.896C133.46 124.037 133.518 124.179 133.573 124.321C133.629 124.463 133.683 124.606 133.735 124.75C133.787 124.894 133.837 125.038 133.886 125.183C133.935 125.327 133.981 125.473 134.026 125.619C134.071 125.765 134.115 125.911 134.156 126.058C134.197 126.206 134.237 126.353 134.275 126.501C134.313 126.649 134.349 126.798 134.383 126.947C134.417 127.096 134.449 127.245 134.48 127.395C134.51 127.544 134.539 127.694 134.566 127.845C134.592 127.995 134.617 128.146 134.641 128.297C134.664 128.448 134.685 128.599 134.704 128.751C134.724 128.902 134.741 129.054 134.757 129.206C134.773 129.358 134.787 129.51 134.799 129.662C134.811 129.815 134.821 129.967 134.829 130.12C134.837 130.272 134.843 130.425 134.848 130.578C134.852 130.73 134.855 130.883 134.856 131.036C134.856 131.189 134.855 131.341 134.852 131.494C134.849 131.647 134.844 131.8 134.838 131.952C134.831 132.105 134.822 132.257 134.812 132.41C134.801 132.562 134.789 132.715 134.775 132.867C134.761 133.019 134.744 133.171 134.727 133.323C134.709 133.474 134.689 133.626 134.667 133.777C134.646 133.928 134.622 134.079 134.597 134.23C134.571 134.381 134.544 134.531 134.515 134.681C134.485 134.835 134.453 134.99 134.419 135.144C134.385 135.297 134.35 135.451 134.312 135.604C134.275 135.757 134.235 135.909 134.194 136.061C134.152 136.213 134.109 136.365 134.064 136.515C134.019 136.666 133.972 136.817 133.923 136.966C133.874 137.116 133.823 137.265 133.771 137.414C133.718 137.562 133.664 137.71 133.608 137.857C133.551 138.004 133.493 138.151 133.433 138.296C133.374 138.442 133.312 138.587 133.249 138.731C133.185 138.875 133.12 139.019 133.053 139.161C132.986 139.304 132.917 139.446 132.847 139.586C132.776 139.727 132.704 139.867 132.63 140.006C132.556 140.145 132.481 140.283 132.403 140.421C132.326 140.558 132.247 140.694 132.166 140.829C132.085 140.965 132.003 141.099 131.919 141.232C131.835 141.365 131.749 141.497 131.662 141.629C131.575 141.76 131.486 141.89 131.395 142.019C131.305 142.147 131.213 142.275 131.119 142.402C131.025 142.528 130.93 142.654 130.833 142.778C130.736 142.902 130.638 143.025 130.538 143.147C130.438 143.269 130.337 143.39 130.234 143.509C130.131 143.628 130.027 143.746 129.921 143.863C129.816 143.98 129.708 144.095 129.6 144.209C129.491 144.323 129.381 144.436 129.27 144.547C129.158 144.659 129.046 144.769 128.932 144.877C128.818 144.986 128.702 145.093 128.585 145.199C128.469 145.304 128.35 145.408 128.231 145.511C128.112 145.614 127.991 145.715 127.869 145.815C127.748 145.915 127.624 146.013 127.5 146.11C127.376 146.207 127.25 146.302 127.124 146.396C126.997 146.489 126.869 146.581 126.74 146.672C126.612 146.763 126.482 146.852 126.35 146.939C123.784 148.68 120.83 149.763 117.71 149.859C117.507 149.909 117.304 149.962 117.098 150H109.13L109.11 149.917C109.07 149.783 109.075 149.845 109.089 149.695C109.112 149.452 109.162 149.275 109.042 149.049C109.287 147.93 109.131 144.98 109.128 143.621L109.073 130.297C112.85 126.291 115.613 121.836 117.56 116.693C118.046 115.41 118.563 114.04 118.833 112.695Z" fill="#5EBFBD"/>
<path d="M109.111 149.917C109.989 149.946 110.877 149.897 111.757 149.896C113.742 149.905 115.726 149.893 117.711 149.859C117.507 149.909 117.304 149.962 117.098 150H109.131L109.111 149.917Z" fill="#CBE1DE"/>
<path d="M0 79.3123C0.424232 78.4258 0.836278 77.8041 1.80489 77.449C2.47737 77.2026 3.22318 77.21 3.86997 77.5306C4.57784 77.8816 5.10214 78.5384 5.33997 79.2868C5.35484 79.333 5.36851 79.3795 5.38097 79.4263C5.39344 79.4732 5.40469 79.5203 5.41471 79.5678C5.42474 79.6153 5.43353 79.6629 5.44109 79.7108C5.44865 79.7586 5.45496 79.8067 5.46003 79.8549C5.46511 79.9031 5.46893 79.9515 5.4715 79.9999C5.47407 80.0483 5.47539 80.0967 5.47545 80.1452C5.47551 80.1937 5.47432 80.2421 5.47188 80.2905C5.46944 80.339 5.46574 80.3873 5.46079 80.4356C5.45585 80.4838 5.44966 80.5318 5.44223 80.5797C5.43479 80.6276 5.42612 80.6754 5.41623 80.7228C5.40633 80.7703 5.39521 80.8174 5.38286 80.8643C5.37052 80.9112 5.35697 80.9577 5.34221 81.0039C5.32747 81.0501 5.31153 81.0959 5.29441 81.1412C5.27729 81.1866 5.259 81.2315 5.23956 81.2759C5.22011 81.3203 5.19954 81.3641 5.17783 81.4075C5.15611 81.4508 5.13329 81.4936 5.10936 81.5358C4.78157 82.1121 4.24884 82.5022 3.61173 82.6738C2.87561 82.8723 1.98391 82.8543 1.31126 82.4639C0.631589 82.0695 0.266799 81.3961 0 80.6846V79.3123Z" fill="#8D79C6"/>
<path d="M32.1857 24.2679C32.809 24.2559 33.3876 24.3731 33.9154 24.7166C33.9567 24.7433 33.9973 24.771 34.0371 24.7998C34.077 24.8286 34.1161 24.8584 34.1545 24.8892C34.1928 24.9199 34.2304 24.9517 34.2671 24.9844C34.3038 25.017 34.3397 25.0506 34.3748 25.0852C34.4098 25.1196 34.444 25.155 34.4772 25.1912C34.5104 25.2274 34.5426 25.2645 34.574 25.3024C34.6053 25.3403 34.6357 25.379 34.6651 25.4184C34.6944 25.4579 34.7227 25.498 34.7501 25.539C34.7774 25.5798 34.8037 25.6213 34.8289 25.6636C34.8541 25.7058 34.8782 25.7486 34.9012 25.7921C34.9243 25.8355 34.9462 25.8795 34.9669 25.9241C34.9877 25.9687 35.0073 26.0138 35.0257 26.0593C35.0443 26.1049 35.0616 26.1509 35.0777 26.1973C35.0939 26.2437 35.1088 26.2906 35.1226 26.3377C35.1363 26.385 35.1489 26.4326 35.1602 26.4804C35.1715 26.5283 35.1817 26.5764 35.1905 26.6247C35.3307 27.4311 35.1026 28.2807 34.6132 28.9321C34.0471 29.6853 33.3037 29.9632 32.4038 30.0823C31.7821 30.0483 31.1675 29.8979 30.6415 29.555C30.601 29.5292 30.5613 29.5023 30.5222 29.4744C30.4833 29.4465 30.445 29.4176 30.4075 29.3877C30.37 29.3577 30.3334 29.3268 30.2975 29.295C30.2616 29.2631 30.2266 29.2304 30.1925 29.1967C30.1583 29.163 30.1251 29.1284 30.0927 29.093C30.0604 29.0575 30.0291 29.0212 29.9987 28.9841C29.9683 28.947 29.9389 28.9091 29.9105 28.8705C29.8821 28.8319 29.8547 28.7925 29.8283 28.7524C29.802 28.7124 29.7767 28.6716 29.7526 28.6301C29.7284 28.5887 29.7053 28.5467 29.6833 28.5041C29.6613 28.4614 29.6405 28.4182 29.6208 28.3745C29.6011 28.3307 29.5826 28.2865 29.5652 28.2417C29.5479 28.1971 29.5317 28.152 29.5166 28.1064C29.5017 28.0608 29.4879 28.0148 29.4753 27.9686C29.4627 27.9223 29.4514 27.8757 29.4413 27.8288C29.4312 27.7819 29.4223 27.7348 29.4147 27.6874C29.4062 27.6372 29.399 27.5866 29.3931 27.5358C29.3874 27.4852 29.3828 27.4344 29.3795 27.3835C29.3763 27.3325 29.3744 27.2815 29.3738 27.2304C29.3731 27.1794 29.3738 27.1284 29.3758 27.0773C29.3778 27.0264 29.3811 26.9755 29.3858 26.9247C29.3904 26.8738 29.3963 26.8231 29.4035 26.7727C29.4108 26.7221 29.4193 26.6717 29.4292 26.6216C29.4389 26.5716 29.45 26.5218 29.4624 26.4722C29.4748 26.4227 29.4884 26.3736 29.5033 26.3249C29.5182 26.276 29.5344 26.2276 29.5518 26.1795C29.5692 26.1316 29.5878 26.0841 29.6076 26.037C29.6274 25.99 29.6484 25.9436 29.6707 25.8976C29.6929 25.8517 29.7163 25.8063 29.7409 25.7616C29.7654 25.7168 29.7911 25.6727 29.8179 25.6293C29.8448 25.5859 29.8727 25.5432 29.9017 25.5012C29.9307 25.4592 29.9608 25.418 29.992 25.3775C30.5608 24.6502 31.3039 24.38 32.1857 24.2679Z" fill="#8D79C6"/>
<path d="M4.74898 119.69C4.75456 118.861 4.54433 115.622 4.99871 115.124C5.1783 114.927 5.46116 114.835 5.72266 114.848C5.90312 114.856 6.13843 114.895 6.26161 115.038C6.79676 115.664 6.57476 118.766 6.57045 119.686C7.4607 119.677 10.4073 119.446 10.9512 119.954C11.1235 120.115 11.2035 120.285 11.1922 120.523C11.181 120.762 11.0733 120.979 10.8861 121.128C10.2388 121.643 7.43295 121.399 6.5145 121.386C6.51413 122.111 6.71019 125.487 6.29596 125.976C6.14433 126.155 5.90999 126.237 5.68091 126.235C5.44239 126.233 5.17679 126.132 5.01047 125.957C4.8855 125.826 4.80167 125.683 4.76326 125.505C4.60956 124.791 4.73332 122.239 4.72446 121.379C4.00742 121.382 0.70164 121.573 0.221142 121.158C0.127991 121.078 0.0644369 120.971 0 120.868V120.089C0.128245 119.966 0.254448 119.841 0.420258 119.77C0.963866 119.535 3.9427 119.686 4.74898 119.69Z" fill="#101055"/>
<path d="M38.6275 0H40.1283C40.4738 1.08965 40.2806 3.86478 40.2881 5.13853C41.201 5.14909 44.047 4.92316 44.766 5.37188C44.9592 5.49252 45.0983 5.66719 45.1332 5.89834C45.1703 6.14521 45.0931 6.38111 44.9271 6.56566C44.3541 7.20268 41.22 6.97513 40.2541 6.97497C40.2405 7.84491 40.4864 11.2154 40.0845 11.7529C39.9239 11.9675 39.6663 12.0777 39.4042 12.0989C39.1427 12.1201 38.8575 12.0373 38.6731 11.8441C38.2619 11.4129 38.4293 7.82184 38.4261 7.01159C37.4432 7.01662 34.456 7.25767 33.796 6.70409C33.603 6.54214 33.5164 6.33202 33.511 6.08391C33.5057 5.84968 33.5863 5.62563 33.7525 5.45741C34.3583 4.84431 37.5162 5.1253 38.4389 5.13885C38.4544 4.02042 38.2269 0.832557 38.6275 0Z" fill="#101055"/>
<path d="M20.187 40.3325C20.6036 40.731 20.9584 41.7074 21.2886 42.2354C22.8551 44.7402 24.7851 46.253 27.5297 47.3397C23.8621 49.1233 22.2268 50.5596 20.1568 54.0927L20.1271 54.1568C19.9579 54.1466 19.4968 53.1273 19.3843 52.9308C17.7551 50.0835 15.7664 48.7567 12.9375 47.2691C16.8341 45.4661 18.172 44.1347 20.187 40.3325Z" fill="#F1D161"/>
<path d="M23.2978 120.609C22.7768 120.4 22.2637 120.172 21.7585 119.927C21.2534 119.682 20.7574 119.42 20.2705 119.14C19.7837 118.86 19.3072 118.564 18.841 118.251C18.3749 117.938 17.9203 117.609 17.4771 117.265C17.3569 117.169 17.2378 117.073 17.12 116.974C17.0021 116.876 16.8855 116.776 16.7702 116.675C16.6547 116.574 16.5406 116.472 16.4278 116.368C16.3149 116.264 16.2034 116.159 16.0933 116.052C15.983 115.945 15.8741 115.837 15.7666 115.728C15.659 115.618 15.5528 115.508 15.448 115.396C15.3432 115.284 15.2398 115.171 15.1379 115.056C15.0358 114.941 14.9352 114.825 14.8361 114.708C14.737 114.591 14.6393 114.473 14.5431 114.354C14.4469 114.234 14.3522 114.113 14.259 113.992C14.1658 113.87 14.0742 113.747 13.984 113.623C13.8939 113.499 13.8052 113.373 13.7182 113.247C13.6311 113.121 13.5457 112.993 13.4618 112.865C13.3779 112.737 13.2956 112.607 13.2149 112.477C13.1342 112.346 13.0551 112.215 12.9777 112.082C12.9003 111.95 12.8245 111.817 12.7504 111.682C12.6762 111.548 12.6038 111.413 12.533 111.277C12.4622 111.141 12.3931 111.004 12.3258 110.866C12.2584 110.728 12.1927 110.589 12.1288 110.45C12.0648 110.31 12.0026 110.17 11.9421 110.029C11.8817 109.888 11.823 109.747 11.766 109.604C11.709 109.462 11.6539 109.319 11.6004 109.175C11.547 109.031 11.4954 108.887 11.4456 108.741C11.3957 108.596 11.3477 108.451 11.3015 108.304C11.2553 108.158 11.2109 108.011 11.1683 107.864C11.1257 107.717 11.0849 107.569 11.046 107.42C11.0071 107.272 10.97 107.123 10.9348 106.974C10.8996 106.825 10.8662 106.675 10.8347 106.525C10.8032 106.375 10.7735 106.224 10.7457 106.073C10.7179 105.922 10.692 105.771 10.668 105.62C10.6439 105.468 10.6217 105.316 10.6015 105.164C10.5812 105.012 10.5628 104.86 10.5463 104.708C9.98765 99.6622 11.4334 95.0181 14.5922 91.0836C17.0283 88.0492 21.2165 85.5609 25.1262 85.1333C25.1731 87.1097 25.626 88.9268 26.5156 90.6944C27.1613 91.9778 28.0506 93.1489 28.8758 94.3224C30.094 96.0272 31.2946 97.7443 32.4775 99.4738C37.9282 107.468 43.4442 115.416 49.0256 123.32C49.8107 124.433 53.8181 129.831 54.0916 130.74C54.3506 131.602 54.1749 134.888 54.1682 135.972C54.1412 140.317 54.0198 144.69 54.1345 149.033C54.3333 149.342 54.5281 149.569 54.7963 149.818L55.3027 149.936L55.301 150H33.9286L33.6712 149.859C30.0072 149.714 26.5818 148.102 23.8475 145.711C23.7436 145.62 23.6409 145.526 23.5393 145.432C23.4378 145.338 23.3374 145.242 23.2382 145.145C23.139 145.049 23.041 144.951 22.9442 144.851C22.8474 144.752 22.7518 144.652 22.6575 144.55C22.5632 144.448 22.4702 144.346 22.3785 144.242C22.2867 144.138 22.1961 144.033 22.1069 143.927C22.0177 143.821 21.9299 143.713 21.8433 143.605C21.7568 143.497 21.6716 143.388 21.5877 143.277C21.5038 143.167 21.4214 143.055 21.3403 142.943C21.2592 142.831 21.1794 142.717 21.1011 142.603C21.0229 142.488 20.946 142.373 20.8705 142.257C20.7951 142.14 20.721 142.023 20.6485 141.905C20.5759 141.787 20.5048 141.668 20.4352 141.548C20.3656 141.428 20.2974 141.308 20.2307 141.186C20.1641 141.064 20.099 140.942 20.0353 140.819C19.9716 140.696 19.9095 140.572 19.849 140.447C19.7884 140.323 19.7294 140.197 19.6719 140.071C19.6143 139.945 19.5584 139.818 19.5041 139.691C19.4497 139.563 19.397 139.435 19.3458 139.306C19.2946 139.177 19.245 139.048 19.197 138.918C19.1489 138.788 19.1025 138.657 19.0578 138.526C19.013 138.395 18.9698 138.263 18.9283 138.131C18.8868 137.998 18.8469 137.866 18.8086 137.732C18.7704 137.599 18.7337 137.465 18.6988 137.331C18.6638 137.197 18.6305 137.063 18.5989 136.928C18.5672 136.793 18.5372 136.657 18.5089 136.522C18.4806 136.386 18.454 136.25 18.4291 136.114C18.4042 135.977 18.3809 135.84 18.3594 135.704C18.3378 135.567 18.3179 135.429 18.2996 135.292C18.2814 135.155 18.265 135.017 18.2502 134.879C18.2354 134.741 18.2223 134.603 18.2108 134.465C18.1995 134.327 18.1898 134.189 18.1818 134.05C17.8317 128.502 19.7073 124.666 23.2978 120.609Z" fill="#5EBFBD"/>
<path d="M54.796 149.818L55.3024 149.936L55.3006 150H33.9283L33.6709 149.859C34.8463 149.914 36.0343 149.859 37.2116 149.858L43.9503 149.854H50.7725C52.1093 149.854 53.4615 149.892 54.796 149.818Z" fill="#CBE1DE"/>
<path d="M55.8863 92.3816C56.0404 90.3301 55.9297 88.2014 55.9347 86.1395L55.9463 74.0135L55.9228 37.4595L55.9316 26.5052C55.9331 24.7189 55.7683 22.5077 56.0561 20.7828C56.3114 19.2525 57.1013 17.9566 58.272 16.9464C59.5859 15.8128 61.2422 15.1754 62.9875 15.326C63.0956 15.3355 63.2034 15.3476 63.311 15.3623C63.4186 15.3772 63.5256 15.3946 63.6323 15.4148C63.739 15.4348 63.8452 15.4574 63.9507 15.4827C64.0563 15.508 64.1612 15.5359 64.2654 15.5664C64.3696 15.5969 64.473 15.63 64.5755 15.6655C64.678 15.7011 64.7797 15.7392 64.8803 15.7798C64.981 15.8203 65.0806 15.8633 65.1792 15.9089C65.2778 15.9544 65.3752 16.0023 65.4714 16.0526C65.5676 16.1028 65.6625 16.1555 65.756 16.2105C65.8497 16.2654 65.9419 16.3227 66.0327 16.3823C66.1235 16.4418 66.2127 16.5035 66.3005 16.5674C66.3882 16.6314 66.4743 16.6975 66.5588 16.7656C66.6432 16.8338 66.726 16.904 66.807 16.9763C66.8881 17.0485 66.9673 17.1226 67.0446 17.1988C67.122 17.275 67.1974 17.353 67.271 17.4329C67.3444 17.5128 67.4159 17.5944 67.4854 17.6778C68.3298 18.6863 68.8231 19.9265 68.9779 21.2286C69.1999 23.0935 69.0595 25.1201 69.0617 27.0018L69.0335 38.6289L69.0327 74.519C69.0324 75.5024 68.8622 78.4493 69.1411 79.1816C69.3248 79.6635 69.8549 80.0719 70.3725 80.1144C70.7645 80.1466 71.1461 79.995 71.4349 79.734C71.8357 79.372 71.9157 78.9689 71.9252 78.4528C72.0295 72.7694 71.9246 67.065 71.9151 61.3797L71.894 27.5807L71.9047 15.0635C71.904 13.1798 71.7484 10.4252 71.9933 8.66411C72.2006 7.17484 72.8564 5.87529 73.9419 4.83078C75.23 3.59121 76.9196 2.90713 78.7115 2.96151C78.8149 2.96383 78.918 2.96873 79.0211 2.97622C79.1241 2.98369 79.2269 2.99373 79.3294 3.00635C79.4319 3.01895 79.5341 3.03412 79.6359 3.05183C79.7377 3.06955 79.839 3.08978 79.9398 3.11255C80.0406 3.13532 80.1407 3.1606 80.2402 3.18837C80.3398 3.21614 80.4385 3.24638 80.5364 3.27909C80.6345 3.3118 80.7316 3.34693 80.8278 3.38448C80.9241 3.42204 81.0193 3.46198 81.1136 3.50429C81.2078 3.54661 81.301 3.59125 81.3931 3.63822C81.4851 3.68518 81.5758 3.73442 81.6654 3.78592C81.7549 3.83742 81.8432 3.89112 81.9301 3.94703C82.017 4.00293 82.1025 4.06098 82.1864 4.12115C82.2704 4.18133 82.3528 4.24356 82.4337 4.30785C82.5146 4.37214 82.5938 4.43841 82.6713 4.50665C82.7489 4.57491 82.8248 4.64505 82.8988 4.71708C82.9728 4.78911 83.045 4.86295 83.1154 4.93859C83.2392 5.07548 83.3575 5.21684 83.4705 5.36267C83.5835 5.50851 83.6908 5.65841 83.7925 5.81237C83.8942 5.96633 83.9898 6.12391 84.0795 6.28511C84.1692 6.44631 84.2528 6.61067 84.3301 6.77819C84.4073 6.94571 84.4782 7.11591 84.5426 7.28879C84.607 7.46167 84.6648 7.63674 84.7159 7.81399C84.7671 7.99124 84.8115 8.17017 84.8491 8.35079C84.8868 8.5314 84.9175 8.71318 84.9414 8.89612C85.0578 9.82292 85.003 10.7771 84.9982 11.7093L85.0042 15.2377L85.0142 29.1005L85.0005 72.8989C85.0038 74.114 84.8246 78.868 85.1948 79.6452C85.4161 80.1102 85.8424 80.3552 86.3504 80.3806C86.7402 80.3999 87.1175 80.2783 87.4006 80.005C87.6919 79.7234 87.8098 79.3764 87.8472 78.9809C88.0096 77.2586 87.8834 75.4067 87.8841 73.6722L87.8845 63.2804L87.886 29.9516L87.8894 23.4376C87.8904 21.8278 87.6849 19.1167 88.1547 17.6703C89.0514 14.9084 91.4092 12.7275 94.3908 12.6879C96.1427 12.6645 97.7804 13.3924 99.0222 14.6115C101.54 17.0832 101.11 20.2556 101.12 23.4768L101.135 60.9374L101.109 73.5959C101.11 75.2519 101.021 76.9385 101.085 78.5902C101.099 78.9456 101.163 79.3334 101.341 79.6461C101.398 79.7463 101.468 79.8434 101.553 79.9218C101.829 80.1759 102.257 80.29 102.625 80.2616C102.675 80.2579 102.725 80.2517 102.774 80.243C102.823 80.2343 102.871 80.2232 102.919 80.2096C102.967 80.196 103.015 80.1799 103.061 80.1616C103.107 80.1432 103.153 80.1226 103.197 80.0996C103.241 80.0767 103.284 80.0516 103.326 80.0243C103.368 79.997 103.408 79.9676 103.447 79.9363C103.486 79.9049 103.523 79.8717 103.558 79.8365C103.594 79.8014 103.627 79.7646 103.659 79.7261C103.922 79.4037 103.998 79.0013 104.035 78.5971C104.12 77.679 104.067 76.7176 104.067 75.7952L104.069 70.5455L104.078 53.8514C104.076 52.0375 103.853 47.5036 104.351 45.9645C105.115 43.608 107.123 41.6866 109.618 41.3438C111.315 41.1108 112.918 41.526 114.285 42.5624C115.649 43.5972 116.607 45.1145 116.835 46.8228C116.957 47.7392 116.905 48.7035 116.904 49.6275L116.901 53.9749L116.895 68.5868L116.906 93.3149L116.91 100.975C116.908 103.942 116.942 106.867 116.388 109.796C116.32 110.149 116.248 110.501 116.17 110.852C116.092 111.203 116.01 111.553 115.922 111.901C115.834 112.25 115.741 112.597 115.643 112.943C115.545 113.289 115.442 113.633 115.334 113.976C115.225 114.319 115.113 114.66 114.995 115C114.876 115.339 114.754 115.677 114.626 116.013C114.498 116.349 114.365 116.683 114.228 117.015C114.09 117.347 113.948 117.678 113.801 118.006C113.654 118.334 113.502 118.659 113.345 118.983C113.188 119.307 113.027 119.628 112.861 119.947C112.695 120.266 112.524 120.582 112.349 120.896C112.174 121.21 111.994 121.521 111.81 121.83C111.626 122.138 111.437 122.444 111.244 122.748C111.051 123.051 110.853 123.351 110.651 123.648C110.449 123.946 110.243 124.24 110.033 124.532C109.822 124.823 109.607 125.112 109.388 125.397C108.867 126.081 108.314 126.738 107.729 127.369C107.198 127.942 106.593 128.489 106.148 129.132L106.142 130.361C104.094 130.378 102.046 130.383 99.9978 130.376C98.9356 130.376 97.8399 130.322 96.7826 130.399C96.5574 130.201 96.3213 130.034 96.0733 129.865C94.5698 129.783 93.028 129.846 91.5209 129.845L82.6835 129.849L73.1237 129.859C71.4122 129.862 69.6811 129.808 67.9728 129.891C67.6543 129.906 67.3833 129.958 67.0857 130.071C66.2425 130.019 65.3823 130.061 64.5368 130.064L59.9199 130.079C59.0199 130.08 58.001 130.167 57.118 129.992L57.0964 129.89C57.0389 129.629 56.9779 129.379 56.8441 129.144C56.4055 128.373 55.7924 127.664 55.2625 126.954C54.6116 126.063 53.9755 125.162 53.3541 124.251C46.9532 115.164 40.6186 106.032 34.3502 96.8536C32.6306 94.3121 29.3535 90.4152 28.513 87.6283C28.4903 87.551 28.4687 87.4734 28.4481 87.3954C28.4275 87.3175 28.4079 87.2393 28.3893 87.1609C28.3708 87.0825 28.3532 87.0038 28.3367 86.9249C28.3202 86.846 28.3048 86.7669 28.2904 86.6876C28.276 86.6083 28.2626 86.5288 28.2503 86.4491C28.238 86.3694 28.2268 86.2897 28.2166 86.2098C28.2065 86.1298 28.1973 86.0497 28.1892 85.9694C28.1811 85.8892 28.1741 85.809 28.1681 85.7286C28.1622 85.6482 28.1573 85.5678 28.1535 85.4873C28.1497 85.4067 28.1469 85.3262 28.1451 85.2456C28.1434 85.165 28.1427 85.0845 28.1432 85.0039C28.1436 84.9233 28.1451 84.8426 28.1476 84.7621C28.1502 84.6815 28.1538 84.601 28.1585 84.5205C28.163 84.44 28.1688 84.3597 28.1756 84.2794C28.1823 84.199 28.1901 84.1188 28.199 84.0387C28.208 83.9587 28.218 83.8787 28.2289 83.7988C28.24 83.7189 28.252 83.6392 28.2651 83.5597C28.2783 83.4802 28.2924 83.4009 28.3076 83.3217C28.3228 83.2426 28.3391 83.1636 28.3564 83.0848C28.3736 83.0061 28.392 82.9276 28.4113 82.8494C28.4306 82.7712 28.451 82.6932 28.4725 82.6155C28.4939 82.5378 28.5163 82.4604 28.5398 82.3833C28.5632 82.3062 28.5877 82.2294 28.6131 82.1529C28.6386 82.0764 28.6651 82.0003 28.6927 81.9245C28.7201 81.8487 28.7486 81.7734 28.7781 81.6984C28.8076 81.6234 28.838 81.5487 28.8695 81.4745C28.9009 81.4003 28.9334 81.3265 28.9668 81.2532C29.0002 81.1797 29.0345 81.1068 29.0699 81.0345C29.1051 80.962 29.1414 80.89 29.1786 80.8184C29.2158 80.7469 29.254 80.676 29.2931 80.6056C29.3322 80.5351 29.3722 80.4651 29.4131 80.3957C29.454 80.3262 29.4959 80.2573 29.5386 80.189C29.6131 80.0704 29.6905 79.9538 29.7708 79.839C29.8511 79.7243 29.9341 79.6116 30.02 79.5009C30.1058 79.3903 30.1943 79.2818 30.2854 79.1756C30.3766 79.0692 30.4704 78.9652 30.5667 78.8636C30.663 78.762 30.7618 78.6628 30.863 78.5661C30.9643 78.4693 31.0678 78.3751 31.1737 78.2834C31.2796 78.1918 31.3876 78.1028 31.4979 78.0165C31.6081 77.9301 31.7204 77.8465 31.8348 77.7657C31.9492 77.6849 32.0655 77.607 32.1837 77.532C32.302 77.4569 32.422 77.3849 32.5438 77.3158C32.6655 77.2467 32.789 77.1806 32.9141 77.1176C33.0391 77.0546 33.1656 76.9946 33.2936 76.9379C33.4216 76.8812 33.551 76.8276 33.6817 76.7772C33.8123 76.7268 33.9441 76.6796 34.077 76.6357C34.21 76.5919 34.344 76.5513 34.479 76.5141C34.614 76.4768 34.7499 76.4429 34.8865 76.4123C37.238 75.886 39.7602 76.4006 41.7732 77.7048C44.3013 79.3426 45.9348 82.198 47.6837 84.587C49.1616 86.6303 50.6713 88.6498 52.2128 90.6455C52.722 91.2957 53.1711 92.2565 53.7915 92.7721C54.0938 93.0234 54.5848 93.1317 54.966 93.0371C55.3657 92.9381 55.6206 92.6768 55.8863 92.3816Z" fill="#FEFEFE"/>
<path d="M73.7366 21.4129C73.6886 18.6842 73.6757 15.9554 73.6979 13.2264C73.7039 11.9116 73.5914 10.4586 73.8185 9.16452C73.9783 8.25326 74.3964 7.11311 75.0608 6.45408C75.9147 5.60718 77.3354 5.13704 78.5174 5.16526C79.8818 5.19784 81.1295 5.77055 82.0713 6.75644C82.534 7.24085 82.9751 7.89219 83.0995 8.55663C83.2723 9.47904 83.2046 10.5032 83.2095 11.439L83.2228 16.1798L83.1913 33.5486C82.4056 32.4042 81.7786 31.1261 81.0122 29.9602C80.4925 29.1797 79.9502 28.415 79.3853 27.6663C78.8206 26.9176 78.2343 26.1862 77.6263 25.4721C77.0184 24.7579 76.3901 24.0623 75.7412 23.3853C75.0924 22.7081 74.4242 22.0506 73.7366 21.4129Z" fill="white"/>
<path d="M89.5687 45.1817C89.397 43.9112 89.4858 42.5384 89.4843 41.255L89.4658 34.5252L89.4178 24.0312C89.4116 22.3918 89.2489 20.6255 89.4374 19.0024C89.541 18.1106 89.7948 17.4851 90.3459 16.77C91.1696 15.7012 92.3853 15.1045 93.713 14.9455C95.1836 14.7695 96.6058 15.1981 97.7598 16.1217C98.7587 16.9212 99.3339 17.8575 99.4707 19.1422C99.6673 20.9866 99.5202 23.2653 99.516 25.1614C99.5203 29.0565 99.5033 32.9515 99.465 36.8466L99.4457 66.5149L99.4801 75.0617C99.4823 76.51 99.3269 78.103 99.5435 79.5325C99.654 80.2615 99.9736 80.9092 100.543 81.3865C101.196 81.933 102.079 82.211 102.925 82.1051C102.979 82.0979 103.032 82.0894 103.086 82.0796C103.139 82.0697 103.192 82.0586 103.245 82.0462C103.298 82.0338 103.35 82.0201 103.402 82.0052C103.455 81.9904 103.506 81.9742 103.558 81.9567C103.609 81.9392 103.66 81.9205 103.71 81.9006C103.761 81.8808 103.811 81.8597 103.86 81.8373C103.91 81.815 103.958 81.7914 104.007 81.7667C104.055 81.742 104.103 81.7162 104.15 81.6892C104.197 81.6622 104.243 81.634 104.289 81.6047C104.334 81.5755 104.379 81.5452 104.423 81.5137C104.468 81.4823 104.511 81.4498 104.554 81.4162C104.596 81.3827 104.638 81.3481 104.679 81.3125C104.72 81.2769 104.76 81.2404 104.799 81.2029C104.838 81.1654 104.876 81.127 104.914 81.0876C104.951 81.0483 104.987 81.008 105.023 80.9668C105.058 80.9257 105.092 80.8837 105.126 80.8409C105.39 80.4999 105.667 80.0335 105.713 79.5963C105.825 78.5234 105.76 77.4018 105.758 76.3218L105.75 70.7328L105.746 52.647C105.742 51.3485 105.445 47.5755 105.831 46.4898C106.38 44.9466 107.731 43.9694 109.326 43.7304C110.769 43.5144 112.282 43.8258 113.459 44.7062C114.398 45.4083 115.076 46.4581 115.232 47.6281C115.341 48.4538 115.29 49.308 115.287 50.1393L115.292 53.4957L115.295 65.8609L115.228 91.937L115.234 100.112C115.237 103.202 115.284 106.192 114.683 109.237C113.623 114.602 111.108 119.886 107.756 124.193C106.827 125.387 105.608 126.492 104.832 127.782C101.585 127.728 98.3381 127.717 95.0908 127.749C93.2489 127.763 91.3567 127.85 89.5206 127.735C89.9904 125.799 90.7161 123.878 91.2809 121.962C91.9707 119.622 92.5224 117.203 93.0597 114.823C93.3098 113.752 93.546 112.679 93.7682 111.602C93.9905 110.525 94.1987 109.445 94.3928 108.363C94.587 107.281 94.7671 106.196 94.9331 105.109C95.099 104.023 95.2508 102.934 95.3885 101.843C95.5262 100.752 95.6497 99.6595 95.7589 98.5654C95.8682 97.4713 95.9632 96.376 96.044 95.2795C96.1248 94.1829 96.1913 93.0855 96.2437 91.9872C96.2959 90.889 96.3339 89.7902 96.3576 88.6909C96.3813 87.5917 96.3907 86.4923 96.3859 85.3928C96.381 84.2933 96.3618 83.194 96.3283 82.095C96.2949 80.9961 96.2472 79.8977 96.1852 78.8C96.1232 77.7021 96.0469 76.6054 95.9564 75.5097C95.866 74.4138 95.7613 73.3194 95.6424 72.2263C95.5234 71.1333 95.3902 70.042 95.2429 68.9524C95.0955 67.8628 94.934 66.7753 94.7585 65.6899C94.5829 64.6045 94.3932 63.5215 94.1895 62.441C93.4085 58.2197 92.3363 54.1534 91.1314 50.037C90.6604 48.4286 90.262 46.7095 89.5687 45.1817Z" fill="white"/>
<path d="M58.6431 127.795C57.5761 126.455 56.6126 125.046 55.6253 123.646C53.788 121.049 51.9788 118.432 50.1977 115.796L39.5713 100.463C38.1189 98.3366 36.6331 96.2034 35.1264 94.1161C33.7729 92.2413 32.2846 90.3455 31.2201 88.2853C30.5886 87.0632 30.3963 85.6897 30.4978 84.326C30.6198 82.6874 31.3379 81.0904 32.595 80.0114C33.9217 78.8728 35.6213 78.3756 37.3509 78.5211C38.6552 78.631 40.0881 79.0935 41.1336 79.8964C42.4493 80.9069 43.3664 82.4624 44.3445 83.7849L49.2963 90.4919C50.0827 91.5649 50.8074 92.7318 51.6671 93.7432C52.409 94.6159 53.2701 95.0952 54.4255 95.1753C55.3751 95.2411 56.2819 94.9336 56.9862 94.2893C57.4424 93.8716 57.6828 93.3772 57.7449 92.7657C57.8205 92.022 57.7865 91.251 57.7881 90.5041C57.8 89.0224 57.7871 87.5408 57.7494 86.0595C57.6999 82.9708 57.6993 79.8721 57.7115 76.7831L57.7682 36.2807L57.7611 25.5301C57.7674 24.3689 57.69 23.1731 57.7512 22.0168C57.8225 20.6669 58.4452 19.4832 59.4541 18.5952C60.4594 17.7103 61.7918 17.4087 63.1067 17.5014C64.92 17.6294 66.5192 18.9882 67.0154 20.7364C67.3083 21.7682 67.0907 23.2228 67.0746 24.3049C67.0445 26.0083 67.028 27.7118 67.025 29.4154L67.0799 64.6183C67.0811 67.4818 67.0547 70.3452 67.0008 73.2082C66.9665 75.035 66.8052 76.9897 67.0018 78.7996C67.0139 78.9045 67.0301 79.0089 67.0503 79.1126C67.0705 79.2163 67.0948 79.3191 67.1231 79.4209C67.1513 79.5227 67.1835 79.6232 67.2195 79.7225C67.2556 79.8219 67.2955 79.9196 67.3392 80.0158C67.3829 80.1121 67.4303 80.2065 67.4814 80.299C67.5324 80.3914 67.5869 80.4818 67.645 80.5701C67.7031 80.6584 67.7646 80.7443 67.8295 80.8278C67.8942 80.9112 67.9621 80.992 68.0332 81.0702C68.6277 81.7301 69.4084 82.101 70.2973 82.1365C71.192 82.1721 72.1789 81.8584 72.8376 81.2395C73.3261 80.7803 73.6868 80.0097 73.7486 79.3439C73.8891 77.8295 73.7567 75.8183 73.7559 74.2458L73.6871 61.8964L73.7363 21.4133C74.4239 22.0511 75.0921 22.7085 75.7409 23.3857C76.3898 24.0627 77.0181 24.7583 77.626 25.4725C78.2338 26.1867 78.8202 26.9181 79.385 27.6667C79.9499 28.4154 80.4922 29.1801 81.0119 29.9606C81.7783 31.1265 82.4052 32.4046 83.191 33.5491L83.1914 66.3873L83.1886 75.2444C83.1885 76.7284 83.0476 78.3847 83.2673 79.845C83.3605 80.4643 83.792 81.0818 84.2345 81.5142C84.842 82.1078 85.65 82.5015 86.5111 82.4722C87.3501 82.4436 88.2176 82.0528 88.7829 81.4304C89.2481 80.9182 89.4976 80.2719 89.5754 79.5897C89.692 78.5669 89.5872 77.44 89.5759 76.4075L89.5357 70.5229L89.548 53.9335L89.5723 48.634C89.5716 47.4873 89.5266 46.3269 89.5685 45.1817C90.2618 46.7095 90.6602 48.4287 91.1312 50.0371C92.3361 54.1534 93.4083 58.2197 94.1893 62.4411C94.393 63.5215 94.5827 64.6044 94.7583 65.6898C94.9339 66.7752 95.0953 67.8628 95.2427 68.9524C95.3901 70.042 95.5232 71.1333 95.6422 72.2264C95.7611 73.3194 95.8658 74.4139 95.9562 75.5097C96.0467 76.6054 96.123 77.7021 96.185 78.8C96.247 79.8977 96.2947 80.9961 96.3281 82.095C96.3616 83.194 96.3808 84.2933 96.3857 85.3928C96.3905 86.4923 96.3811 87.5917 96.3574 88.6909C96.3337 89.7902 96.2957 90.889 96.2435 91.9873C96.1911 93.0855 96.1246 94.1829 96.0438 95.2795C95.9631 96.376 95.868 97.4713 95.7588 98.5654C95.6495 99.6595 95.526 100.752 95.3883 101.843C95.2506 102.934 95.0988 104.023 94.9329 105.109C94.7669 106.196 94.5868 107.281 94.3926 108.363C94.1985 109.445 93.9903 110.525 93.768 111.602C93.5458 112.679 93.3096 113.752 93.0595 114.823C92.5222 117.203 91.9705 119.622 91.2807 121.962C90.7159 123.878 89.9902 125.799 89.5204 127.735C86.2319 127.598 82.8839 127.72 79.591 127.723L58.6431 127.795Z" fill="white"/>
<path d="M58.7942 96.1719C59.8663 96.1265 61.1542 96.8727 62.0918 97.3394C66.8407 99.7036 70.5044 104.248 72.1615 109.243C72.5828 110.513 73.6041 114.357 72.9277 115.599C72.7021 116.013 72.3598 116.181 71.9259 116.312C71.5834 116.314 71.2833 116.288 70.9654 116.15C70.6307 116.005 70.4023 115.799 70.2715 115.455C70.0073 114.76 70.0669 113.924 69.9707 113.193C69.7706 111.674 69.3271 110.095 68.732 108.684C67.3257 105.35 64.6174 102.208 61.448 100.441C60.4865 99.9046 59.5162 99.5856 58.52 99.1469C58.0662 98.9471 57.6815 98.6251 57.5173 98.1431C57.3884 97.7649 57.4348 97.3659 57.621 97.0158C57.8892 96.5112 58.2639 96.3226 58.7942 96.1719Z" fill="#101055"/>
</g>
<defs>
<clipPath id="clip0_47_2506">
<rect width="150" height="150" fill="white"/>
</clipPath>
</defs>
</svg>
