<svg width="150" height="150" viewBox="0 0 150 150" fill="none" xmlns="http://www.w3.org/2000/svg">
<g clip-path="url(#clip0_47_2478)">
<path d="M75.8482 111.557L104.13 111.533C104.138 113.944 104.175 116.36 104.136 118.772L84.8916 118.784C81.8126 118.779 78.7268 118.837 75.6492 118.789C75.6675 118.777 75.6846 118.763 75.7042 118.754C76.6608 118.301 77.482 117.756 78.021 116.806C78.4768 116.003 78.5195 115.032 78.2547 114.158C77.8702 112.888 76.9524 112.171 75.8482 111.557Z" fill="#FEFEFE"/>
<path d="M45.7766 111.549L75.8482 111.558C76.9524 112.172 77.8701 112.889 78.2546 114.158C78.5195 115.032 78.4767 116.004 78.021 116.806C77.4819 117.756 76.6607 118.301 75.7042 118.755C75.6846 118.764 75.6674 118.778 75.6491 118.789C74.5959 118.833 73.52 118.785 72.4648 118.785L66.0235 118.785L45.7747 118.799L45.7766 111.549Z" fill="#8D79C6"/>
<path d="M48.1933 121.085L84.9541 121.088L95.8176 121.11C97.623 121.114 99.494 121.021 101.292 121.139L101.351 121.183C102.601 122.128 103.417 122.438 103.668 124.223C103.842 125.464 103.576 126.738 102.815 127.744C102.352 128.356 101.808 128.547 101.224 128.971C102.376 129.013 104.559 128.839 105.568 129.077C105.784 129.128 105.958 129.219 106.112 129.379C106.23 129.502 106.35 129.667 106.386 129.836C106.568 130.702 106.428 132.337 106.424 133.263C106.415 135.145 106.478 137.051 106.4 138.93C106.381 139.377 106.308 139.893 106.086 140.286C105.273 140.854 101.941 140.558 100.788 140.564C99.2324 140.67 97.6558 140.601 96.0966 140.62C96.7419 142.28 97.1667 143.657 96.4189 145.381C95.9652 146.428 95.1698 147.163 94.2412 147.797C95.0161 147.794 96.304 147.631 96.8954 148.225C97.0762 148.406 97.1501 148.641 97.143 148.894C97.132 149.284 96.9943 149.663 96.8043 150H53.7196C53.5337 149.666 53.3421 149.276 53.3308 148.887C53.3238 148.645 53.3922 148.412 53.5646 148.235C54.1559 147.626 55.4041 147.784 56.1859 147.79C55.8455 147.576 55.4931 147.356 55.1834 147.098C54.2268 146.302 53.5757 145.179 53.4839 143.924C53.3882 142.615 54.0095 141.55 54.8339 140.603L47.7664 140.624C46.6312 140.629 45.3235 140.759 44.2097 140.589C44.0572 140.492 43.8946 140.395 43.763 140.27C43.491 140.013 43.484 139.714 43.4709 139.363C43.4006 137.468 43.5054 135.536 43.5137 133.637C43.5191 132.378 43.4012 131.022 43.5291 129.776C43.5525 129.548 43.6502 129.318 43.8278 129.167C44.3138 128.752 47.0655 128.949 47.7906 128.956C47.9931 128.951 48.1725 128.934 48.3717 128.898C48.3367 128.746 47.3951 127.899 47.2048 127.633C46.5351 126.696 46.2275 125.592 46.4258 124.445C46.6926 122.902 47.5057 122.047 48.7466 121.185C48.5607 121.105 48.3925 121.102 48.1933 121.085Z" fill="#101055"/>
<path d="M44.2097 140.589C48.6019 140.448 53.0121 140.57 57.4059 140.568L80.9064 140.54L94.3478 140.557L98.548 140.539C99.2862 140.537 100.055 140.496 100.788 140.564C99.2325 140.67 97.6559 140.601 96.0967 140.62C96.7419 142.28 97.1667 143.657 96.4189 145.382C95.9653 146.428 95.1699 147.163 94.2413 147.797C95.0162 147.794 96.3041 147.632 96.8955 148.225C97.0762 148.406 97.1502 148.641 97.143 148.894C97.132 149.284 96.9943 149.663 96.8043 150H53.7196C53.5337 149.666 53.3421 149.277 53.3309 148.887C53.3238 148.645 53.3922 148.412 53.5646 148.235C54.156 147.626 55.4042 147.784 56.186 147.79C55.8456 147.576 55.4931 147.356 55.1834 147.098C54.2269 146.302 53.5758 145.179 53.4839 143.924C53.3883 142.615 54.0095 141.55 54.8339 140.603L47.7665 140.624C46.6313 140.629 45.3236 140.759 44.2097 140.589Z" fill="#8D79C6"/>
<path d="M56.1859 147.79L94.2413 147.797C95.0162 147.794 96.3041 147.632 96.8954 148.225C97.0762 148.406 97.1502 148.641 97.143 148.894C97.132 149.284 96.9943 149.663 96.8043 150H53.7196C53.5337 149.666 53.3421 149.277 53.3308 148.887C53.3238 148.645 53.3922 148.412 53.5646 148.235C54.156 147.626 55.4042 147.784 56.1859 147.79Z" fill="#101055"/>
<path d="M45.7916 131.242L104.091 131.298L104.103 135.751C104.107 136.573 104.155 137.425 104.082 138.242L45.7773 138.279L45.7916 131.242Z" fill="#8D79C6"/>
<path d="M48.1934 121.085L84.9542 121.088L95.8176 121.11C97.6231 121.114 99.4941 121.021 101.292 121.139L101.351 121.183C102.601 122.128 103.417 122.438 103.668 124.223C103.842 125.464 103.576 126.738 102.815 127.744C102.352 128.356 101.808 128.547 101.224 128.971C99.1134 129.042 96.9772 128.975 94.863 128.977L82.0758 128.981L47.7907 128.956C47.9931 128.951 48.1726 128.934 48.3718 128.898C48.3368 128.746 47.3952 127.899 47.2049 127.633C46.5352 126.696 46.2276 125.592 46.4259 124.445C46.6926 122.902 47.5058 122.047 48.7467 121.185C48.5608 121.105 48.3926 121.102 48.1934 121.085Z" fill="#F1D161"/>
<path d="M24.2126 6.89209C24.3582 6.89618 24.5087 6.89851 24.6525 6.92319C25.0931 6.99879 25.3279 7.35743 25.5522 7.70541C25.5862 8.35516 25.5626 9.0068 25.55 9.65695C26.1421 9.6385 26.8751 9.53872 27.4381 9.73611C27.7342 9.84001 28.023 10.0491 28.1453 10.3467C28.2606 10.627 28.2188 10.9386 28.1128 11.2144C27.9099 11.7422 27.5879 11.9688 27.0859 12.1908C26.5951 12.1561 26.1045 12.1189 25.614 12.0791C25.6133 12.6714 25.6924 13.4301 25.4684 13.9851C25.2998 14.4027 25.0038 14.5592 24.609 14.733C24.532 14.7425 24.4547 14.7489 24.3771 14.7523C24.0377 14.7679 23.6878 14.6851 23.4399 14.438C22.9096 13.9091 23.0552 12.8367 23.0718 12.1461C22.3114 12.1714 21.4977 12.2351 20.8939 11.6747C20.6804 11.4766 20.5319 11.2087 20.5284 10.9131C20.5247 10.6199 20.6684 10.3447 20.8723 10.1408C21.463 9.55028 22.3199 9.61695 23.0853 9.6206C23.0708 8.97321 22.9463 8.07911 23.2745 7.50248C23.4918 7.12116 23.8054 6.99466 24.2126 6.89209Z" fill="#101055"/>
<path d="M8.32734 28.3662C9.59037 28.3138 10.761 28.5363 11.8208 29.2599C12.9813 30.0522 13.858 31.3732 14.1045 32.7603C14.3418 34.0958 14.0772 35.5426 13.2925 36.6588C12.3581 37.9879 11.0812 38.6115 9.51615 38.8869C8.07301 39.0134 6.74868 38.7536 5.57126 37.8802C4.42394 37.0291 3.72563 35.7985 3.52923 34.387C3.51637 34.3003 3.50569 34.2133 3.49719 34.126C3.48869 34.0387 3.48237 33.9512 3.47824 33.8635C3.47411 33.7759 3.47217 33.6882 3.47244 33.6005C3.47269 33.5128 3.47514 33.4252 3.47977 33.3376C3.48441 33.25 3.49124 33.1626 3.50027 33.0754C3.50928 32.9881 3.52047 32.9011 3.53383 32.8145C3.5472 32.7278 3.56272 32.6414 3.58041 32.5555C3.5981 32.4697 3.61791 32.3843 3.63987 32.2993C3.66182 32.2143 3.68589 32.13 3.71207 32.0463C3.73824 31.9626 3.76649 31.8796 3.79681 31.7973C3.82714 31.715 3.85951 31.6335 3.89392 31.5528C3.92832 31.4722 3.96472 31.3924 4.0031 31.3135C4.0415 31.2347 4.08185 31.1568 4.12413 31.08C4.16643 31.0031 4.21061 30.9274 4.25668 30.8528C4.30277 30.7782 4.35068 30.7047 4.40043 30.6325C4.45018 30.5602 4.50171 30.4892 4.55501 30.4196C5.4972 29.1933 6.82206 28.5749 8.32734 28.3662Z" fill="#F1D161"/>
<path d="M27.2138 111.993C27.5837 112.012 27.9991 112.129 28.2631 112.403C28.779 112.938 28.5917 114.038 28.5692 114.718C29.3263 114.696 30.1242 114.624 30.7573 115.129C31.0196 115.339 31.2177 115.625 31.241 115.968C31.2624 116.28 31.104 116.571 30.8907 116.789C30.2759 117.415 29.426 117.344 28.6242 117.333C28.6072 117.902 28.7181 118.635 28.4685 119.16C28.2717 119.574 27.9216 119.713 27.5118 119.854C27.084 119.84 26.7145 119.806 26.3973 119.487C25.9001 118.987 26.0128 117.97 26.0131 117.324C25.3355 117.325 24.3991 117.447 23.8621 116.959C23.828 116.927 23.7957 116.894 23.7651 116.859C23.7345 116.824 23.7057 116.788 23.6789 116.75C23.652 116.712 23.6272 116.673 23.6043 116.633C23.5815 116.592 23.5609 116.551 23.5423 116.508C23.5238 116.466 23.5075 116.422 23.4934 116.378C23.4794 116.334 23.4677 116.289 23.4583 116.244C23.4489 116.198 23.4418 116.152 23.4372 116.106C23.4326 116.06 23.4303 116.013 23.4304 115.967C23.4312 115.638 23.5655 115.298 23.81 115.074C24.3503 114.578 25.3136 114.755 25.9854 114.779C25.9753 114.127 25.8534 113.244 26.1764 112.659C26.4049 112.245 26.7808 112.111 27.2138 111.993Z" fill="#101055"/>
<path d="M18.2867 58.7947C17.7091 58.3552 17.179 57.9024 16.7131 57.3421C15.2117 55.536 14.5582 53.3566 14.7911 51.0158C14.8064 50.8729 14.8252 50.7305 14.8475 50.5886C14.8699 50.4467 14.8957 50.3055 14.925 50.1648C14.9542 50.0241 14.9869 49.8843 15.023 49.7453C15.0592 49.6062 15.0988 49.4682 15.1417 49.331C15.1846 49.1939 15.2309 49.058 15.2805 48.9232C15.3301 48.7884 15.3831 48.6549 15.4393 48.5227C15.4955 48.3905 15.5549 48.2598 15.6176 48.1305C15.6802 48.0012 15.7459 47.8735 15.8149 47.7474C15.8837 47.6213 15.9557 47.4971 16.0308 47.3746C16.1058 47.252 16.1838 47.1314 16.2647 47.0128C16.3457 46.8941 16.4295 46.7775 16.5163 46.663C16.6029 46.5484 16.6923 46.4361 16.7846 46.3259C16.8768 46.2158 16.9717 46.1079 17.0692 46.0025C17.1667 45.897 17.2667 45.794 17.3694 45.6934C17.472 45.5928 17.577 45.4948 17.6843 45.3994C17.7917 45.3041 17.9015 45.2114 18.0135 45.1214C20.4308 43.1589 22.7991 42.9282 25.7698 43.2348C24.7663 53.0418 26.147 61.3201 30.6078 70.1419C30.9844 70.9049 31.3816 71.6571 31.7993 72.3984C32.217 73.1397 32.6547 73.8691 33.1122 74.5866C33.5698 75.3039 34.0466 76.0083 34.5426 76.6997C35.0387 77.3911 35.5533 78.0684 36.0863 78.7316C37.096 79.957 38.1353 81.1569 39.2039 82.3313C40.0749 83.294 41.3902 84.5616 42.0133 85.6659C41.8891 87.414 41.3259 89.2961 40.8091 90.9685L31.8888 90.9752C32.1549 92.4383 32.3685 93.8676 32.2888 95.3616C32.1655 97.6775 30.9845 99.7937 29.2619 101.315C29.1526 101.411 29.041 101.504 28.9271 101.594C28.8132 101.684 28.6971 101.771 28.579 101.856C28.4607 101.94 28.3404 102.021 28.218 102.1C28.0958 102.178 27.9716 102.253 27.8455 102.326C27.7194 102.398 27.5917 102.467 27.4622 102.533C27.3327 102.599 27.2016 102.661 27.069 102.72C26.9364 102.78 26.8023 102.836 26.6669 102.888C26.5315 102.941 26.3949 102.99 26.257 103.036C26.1191 103.082 25.9802 103.124 25.8403 103.163C25.7003 103.202 25.5595 103.237 25.4177 103.269C25.276 103.301 25.1335 103.329 24.9904 103.354C24.8472 103.378 24.7035 103.399 24.5593 103.417C24.4151 103.435 24.2706 103.449 24.1257 103.459C23.9808 103.469 23.8357 103.476 23.6905 103.479C23.5453 103.482 23.4 103.482 23.2548 103.478C23.1096 103.474 22.9646 103.466 22.8198 103.455C22.677 103.444 22.5346 103.43 22.3926 103.412C22.2506 103.395 22.1091 103.374 21.9681 103.349C21.8271 103.324 21.6868 103.296 21.5473 103.265C21.4077 103.233 21.269 103.198 21.1311 103.16C20.9932 103.121 20.8564 103.08 20.7207 103.034C20.5849 102.989 20.4503 102.941 20.3169 102.889C20.1835 102.837 20.0515 102.782 19.9208 102.723C19.7903 102.665 19.6612 102.603 19.5335 102.538C19.406 102.473 19.2801 102.405 19.1559 102.334C19.0317 102.263 18.9093 102.189 18.7888 102.112C18.6683 102.035 18.5498 101.954 18.4333 101.871C18.3167 101.788 18.2022 101.702 18.0899 101.614C17.9776 101.525 17.8676 101.434 17.7599 101.339C17.6522 101.245 17.5468 101.148 17.4438 101.049C17.3409 100.95 17.2405 100.848 17.1426 100.743C17.0447 100.639 16.9494 100.532 16.8568 100.423C15.325 98.6216 14.6982 96.3125 14.8906 93.9733C15.1078 91.3315 16.4802 89.47 18.4459 87.7949C17.4401 86.707 16.4988 85.5651 15.5125 84.4602C14.3494 83.1572 13.1485 81.8901 11.9915 80.5808C11.6943 80.6959 11.396 80.8084 11.0968 80.9185C9.05432 81.6657 6.91428 81.708 4.92239 80.7651C3.08783 79.8966 1.32418 78.0539 0.619922 76.1392C0.373283 75.4685 0.301478 74.7399 0.0518159 74.0831C0.035018 74.0389 0.017272 73.9951 0 73.9511V71.5863C0.259143 70.8191 0.329215 70.0116 0.643393 69.2522C1.44975 67.3031 3.1435 65.6761 5.08712 64.8864C7.47211 63.9172 9.77389 64.1585 12.0995 65.1408C14.1986 63.0612 16.261 60.9458 18.2867 58.7947Z" fill="#8ED3D0"/>
<path d="M145.215 57.062C145.577 57.0683 145.944 57.1714 146.2 57.4404C146.711 57.9767 146.568 59.0325 146.556 59.7195C147.309 59.6845 148.134 59.5783 148.742 60.1285C148.986 60.3493 149.124 60.6525 149.118 60.9825C149.112 61.3216 148.951 61.6634 148.705 61.8951C148.195 62.3768 147.19 62.1999 146.533 62.1818C146.558 62.7526 146.673 63.5057 146.455 64.0407C146.268 64.4973 145.891 64.6868 145.457 64.8635C145.052 64.8352 144.61 64.748 144.331 64.4231C143.884 63.904 144.049 62.9072 144.071 62.2621C143.423 62.2642 142.777 62.2211 142.135 62.1327C141.805 61.8061 141.473 61.4327 141.453 60.9415C141.442 60.6641 141.565 60.4251 141.76 60.2357C142.389 59.627 143.265 59.7072 144.065 59.7376C144.049 59.1178 143.925 58.2466 144.241 57.6945C144.464 57.3058 144.807 57.1858 145.215 57.062Z" fill="#101055"/>
<path d="M124.096 0H124.786C126.213 0.757189 125.473 2.34599 126.416 3.40774C127.138 4.22117 128.58 3.70912 129.251 4.54825C129.478 4.83173 129.507 5.19545 129.458 5.54342C129.263 6.94232 127.281 6.34208 126.449 6.9827C125.6 7.63693 126.105 9.23253 125.216 9.86234C124.934 10.0621 124.544 10.0881 124.213 10.0289C122.894 9.79305 123.334 7.97265 122.7 7.16074C122.187 6.50312 121.271 6.63863 120.539 6.54092C120.151 6.48907 119.76 6.39535 119.521 6.05703C119.317 5.7676 119.263 5.30273 119.333 4.96181C119.566 3.82107 121.5 4.06569 122.305 3.51598C123.064 2.99836 122.963 2.05515 123.141 1.26753C123.284 0.636608 123.556 0.335899 124.096 0Z" fill="#8ED3D0"/>
<path d="M123.779 116.968C124.097 116.933 124.397 116.936 124.696 117.065C125.614 117.465 125.462 118.773 125.788 119.563C126.24 120.658 127.307 120.445 128.205 120.824C128.79 121.071 128.965 121.466 129.188 122.018C129.111 122.242 129.033 122.479 128.925 122.69C128.494 123.534 127.289 123.376 126.524 123.666C125.338 124.117 125.645 125.36 125.23 126.303C125.058 126.691 124.859 126.865 124.467 127.014C124.267 127.028 124.053 127.03 123.855 126.998C122.484 126.774 122.968 124.903 122.247 124.064C121.555 123.259 119.867 123.761 119.23 122.762C119.036 122.459 119.051 122.071 119.15 121.737C119.495 120.57 120.998 120.88 121.851 120.357C122.692 119.842 122.656 118.859 122.895 118.017C123.048 117.477 123.304 117.242 123.779 116.968Z" fill="#F1D161"/>
<path d="M139.603 20.4585C140.864 20.342 142.095 20.439 143.193 21.12C144.326 21.8227 145.25 23.087 145.535 24.3928C145.841 25.7975 145.546 27.2244 144.757 28.4176C143.87 29.7588 142.659 30.3427 141.123 30.6658C139.739 30.7746 138.499 30.5722 137.354 29.7378C137.28 29.6849 137.208 29.6302 137.137 29.5738C137.066 29.5172 136.996 29.459 136.928 29.399C136.86 29.339 136.794 29.2774 136.729 29.2141C136.664 29.1509 136.601 29.086 136.539 29.0196C136.477 28.9531 136.417 28.8851 136.359 28.8157C136.301 28.7463 136.244 28.6754 136.189 28.6032C136.134 28.5308 136.082 28.4572 136.03 28.3823C135.979 28.3074 135.93 28.2312 135.883 28.1539C135.836 28.0765 135.79 27.9979 135.747 27.9183C135.703 27.8387 135.662 27.7579 135.623 27.6762C135.583 27.5946 135.546 27.5119 135.511 27.4284C135.476 27.3448 135.443 27.2603 135.412 27.1751C135.381 27.0898 135.352 27.0039 135.325 26.9173C135.298 26.8306 135.274 26.7432 135.251 26.6554C135.229 26.5675 135.209 26.4791 135.191 26.3902C135.173 26.3013 135.158 26.2119 135.144 26.1223C134.951 24.761 135.4 23.403 136.231 22.3259C137.114 21.1818 138.192 20.651 139.603 20.4585Z" fill="#F1D161"/>
<path d="M73.286 2.30258C74.0241 2.2635 74.7763 2.27249 75.5158 2.27558C75.8981 2.27688 76.2804 2.28286 76.6626 2.29353C77.0448 2.3042 77.4269 2.31955 77.8087 2.33958C78.1905 2.35961 78.5721 2.38432 78.9533 2.4137C79.3346 2.44309 79.7154 2.47713 80.0958 2.51585C80.4761 2.55457 80.856 2.59794 81.2353 2.64597C81.6147 2.694 81.9934 2.74666 82.3714 2.80397C82.7494 2.86127 83.1267 2.9232 83.5033 2.98975C83.8798 3.05631 84.2554 3.12748 84.6302 3.20324C85.005 3.279 85.3788 3.35934 85.7515 3.44426C86.1244 3.52919 86.4961 3.61866 86.8667 3.7127C87.2373 3.80673 87.6068 3.90529 87.975 4.00838C88.3432 4.11146 88.71 4.21904 89.0756 4.33112C89.4412 4.4432 89.8053 4.55975 90.168 4.68075C90.5307 4.80176 90.8919 4.92719 91.2516 5.05704C91.6111 5.1869 91.9691 5.32114 92.3255 5.45977C92.6818 5.5984 93.0364 5.74138 93.3892 5.88871C93.7421 6.03602 94.093 6.18764 94.4422 6.34357C94.7913 6.4995 95.1385 6.65967 95.4837 6.8241C95.8289 6.98853 96.172 7.15717 96.5132 7.33001C96.8542 7.50285 97.193 7.67985 97.5298 7.861C97.8665 8.04214 98.201 8.22739 98.5332 8.41673C98.8653 8.60608 99.1951 8.79947 99.5225 8.9969C99.85 9.19433 100.175 9.39574 100.498 9.60113C100.82 9.80653 101.14 10.0159 101.457 10.2291C101.775 10.4423 102.089 10.6594 102.402 10.8804C102.714 11.1013 103.023 11.3261 103.329 11.5546C103.636 11.7831 103.94 12.0154 104.241 12.2513C104.541 12.4873 104.839 12.7269 105.134 12.9702C105.429 13.2135 105.721 13.4603 106.01 13.7108C106.299 13.9612 106.585 14.2151 106.868 14.4726C107.15 14.7301 107.43 14.9909 107.706 15.2552C107.983 15.5194 108.256 15.7871 108.525 16.0581C108.729 16.2609 108.93 16.4656 109.129 16.6721C109.329 16.8786 109.526 17.0869 109.722 17.2972C109.917 17.5073 110.111 17.7193 110.302 17.9331C110.494 18.1467 110.684 18.3622 110.871 18.5795C111.059 18.7968 111.245 19.0158 111.428 19.2365C111.612 19.4571 111.793 19.6794 111.973 19.9036C112.152 20.1276 112.33 20.3532 112.505 20.5805C112.68 20.8078 112.853 21.0368 113.025 21.2673C113.196 21.4978 113.365 21.7299 113.532 21.9636C113.698 22.1972 113.863 22.4323 114.025 22.669C114.188 22.9057 114.348 23.1438 114.506 23.3835C114.664 23.6231 114.82 23.8642 114.974 24.1066C115.127 24.3492 115.279 24.5932 115.428 24.8385C115.577 25.0838 115.724 25.3305 115.868 25.5785C116.013 25.8265 116.155 26.0758 116.295 26.3265C116.435 26.5772 116.573 26.8291 116.708 27.0823C116.843 27.3355 116.976 27.5898 117.107 27.8455C117.237 28.1012 117.365 28.358 117.491 28.616C117.617 28.874 117.741 29.1332 117.862 29.3936C117.983 29.6538 118.101 29.9152 118.217 30.1777C118.334 30.4402 118.447 30.7038 118.559 30.9684C118.67 31.233 118.779 31.4985 118.886 31.7651C118.992 32.0317 119.096 32.2993 119.197 32.5679C119.299 32.8364 119.398 33.1059 119.495 33.3762C119.591 33.6466 119.685 33.9178 119.776 34.1899C119.868 34.462 119.957 34.7349 120.044 35.0086C120.13 35.2823 120.214 35.5568 120.295 35.8321C120.377 36.1074 120.456 36.3835 120.532 36.6602C120.608 36.937 120.682 37.2144 120.753 37.4925C120.824 37.7707 120.893 38.0494 120.959 38.3288C121.025 38.6082 121.088 38.8881 121.149 39.1686C121.21 39.4492 121.268 39.7303 121.324 40.0119C121.403 40.3988 121.476 40.7867 121.545 41.1756C121.613 41.5646 121.676 41.9543 121.734 42.3448C121.793 42.7354 121.845 43.1266 121.893 43.5186C121.941 43.9106 121.983 44.3031 122.021 44.6962C122.058 45.0893 122.09 45.4828 122.117 45.8767C122.144 46.2707 122.166 46.6649 122.182 47.0594C122.199 47.454 122.21 47.8486 122.216 48.2433C122.222 48.6381 122.223 49.033 122.219 49.4278C122.215 49.8227 122.205 50.2174 122.19 50.612C122.175 51.0066 122.155 51.4009 122.13 51.795C122.105 52.189 122.074 52.5827 122.039 52.9759C122.003 53.3691 121.962 53.7618 121.916 54.154C121.87 54.5461 121.819 54.9377 121.763 55.3285C121.706 55.7193 121.645 56.1093 121.578 56.4984C121.511 56.8876 121.439 57.2758 121.362 57.6631C121.285 58.0504 121.203 58.4366 121.116 58.8217C121.029 59.2068 120.937 59.5907 120.839 59.9733C120.742 60.3561 120.639 60.7374 120.532 61.1172C120.424 61.4972 120.312 61.8757 120.195 62.2526C120.077 62.6297 119.955 63.0051 119.827 63.3788C119.7 63.7525 119.568 64.1245 119.43 64.4947C119.293 64.865 119.151 65.2334 119.004 65.5998C118.857 65.9663 118.705 66.3308 118.549 66.6933C118.392 67.0557 118.231 67.416 118.065 67.7742C117.898 68.1324 117.727 68.4884 117.552 68.8421C117.376 69.1958 117.196 69.5471 117.011 69.8959C116.826 70.2448 116.637 70.5913 116.443 70.9352C116.249 71.2791 116.05 71.6203 115.847 71.959C115.644 72.2977 115.437 72.6336 115.225 72.9667C115.013 73.2999 114.796 73.6302 114.576 73.9576C114.355 74.285 114.13 74.6094 113.901 74.9309C113.672 75.2523 113.438 75.5708 113.2 75.8861C112.272 77.1393 111.243 78.3727 110.175 79.5101C109.069 80.6884 107.898 81.8199 106.891 83.0877C102.446 88.6882 99.4352 96.0725 98.6291 103.169C98.4013 105.175 98.4208 107.185 98.4088 109.2L76.828 109.243L51.7061 109.228C51.687 106.655 51.6191 104.141 51.2389 101.59C50.285 95.1902 47.3915 88.6821 43.385 83.6104C42.5055 82.4971 41.4995 81.4975 40.5466 80.4488C39.3481 79.13 38.1759 77.7526 37.1026 76.3295C36.9303 76.1021 36.7601 75.8731 36.592 75.6425C36.4239 75.4118 36.258 75.1797 36.0942 74.9461C35.9304 74.7124 35.7688 74.4772 35.6093 74.2406C35.4499 74.004 35.2926 73.7659 35.1375 73.5264C34.9824 73.2868 34.8296 73.0459 34.679 72.8035C34.5284 72.5611 34.3801 72.3173 34.234 72.0722C34.0878 71.8272 33.944 71.5808 33.8025 71.3331C33.6609 71.0853 33.5216 70.8362 33.3845 70.5858C33.2476 70.3355 33.113 70.084 32.9805 69.8312C32.8482 69.5784 32.7182 69.3244 32.5906 69.0691C32.463 68.814 32.3377 68.5576 32.2147 68.3001C32.0919 68.0426 31.9714 67.7839 31.8532 67.5242C31.735 67.2644 31.6193 67.0036 31.506 66.7418C31.3926 66.4799 31.2817 66.217 31.1732 65.9531C31.0647 65.6892 30.9587 65.4242 30.8552 65.1583C30.7516 64.8925 30.6504 64.6257 30.5517 64.3579C30.453 64.0901 30.3569 63.8215 30.2631 63.552C30.1695 63.2825 30.0782 63.0122 29.9895 62.7409C29.9008 62.4697 29.8146 62.1977 29.7308 61.925C29.6471 61.6521 29.5659 61.3786 29.4873 61.1044C29.4086 60.83 29.3325 60.555 29.259 60.2794C29.1853 60.0036 29.1143 59.7272 29.0458 59.4502C28.9774 59.1732 28.9114 58.8956 28.8481 58.6173C28.7847 58.3391 28.7239 58.0604 28.6657 57.7811C28.6075 57.5017 28.5518 57.2218 28.4987 56.9414C28.4457 56.661 28.3952 56.3802 28.3474 56.099C28.2995 55.8176 28.2543 55.5359 28.2116 55.2538C28.1689 54.9716 28.1288 54.6891 28.0913 54.4062C28.0539 54.1233 28.0191 53.8401 27.9869 53.5566C27.9546 53.2731 27.9249 52.9893 27.898 52.7052C27.8709 52.4211 27.8466 52.1369 27.8249 51.8524C27.8031 51.5678 27.784 51.2831 27.7675 50.9982C27.1374 38.7558 31.956 26.4497 40.118 17.4059C41.3735 16.0147 42.7338 14.7637 44.1544 13.5431C52.3698 6.48415 62.5295 2.85146 73.286 2.30258Z" fill="#FEFEFE"/>
<path d="M73.9792 77.3658C74.208 77.0697 74.4179 76.8452 74.8065 76.7925C75.2595 76.731 75.6314 76.9695 75.979 77.2265C76.1145 77.5063 76.1672 77.7392 76.1784 78.0499C76.2648 80.4732 76.1706 82.9311 76.1735 85.3585L76.174 97.49C76.1738 98.4734 76.3186 102.305 76.0972 102.939C75.9956 103.229 75.775 103.445 75.5 103.576C75.2271 103.706 74.8815 103.741 74.6003 103.616C74.2911 103.479 74.0998 103.173 73.993 102.864C73.9057 102.612 73.868 102.337 73.8583 102.071C73.8027 100.531 73.8759 98.9688 73.8815 97.4273L73.8751 89.071C73.8749 86.13 73.8269 83.1905 73.8597 80.2497C73.8695 79.3582 73.7321 78.2242 73.9792 77.3658Z" fill="#101055"/>
<path d="M86.7907 40.1396C87.2121 40.1433 87.581 40.2482 87.9031 40.5267C88.1297 40.7225 88.2844 40.9743 88.2878 41.2805C88.293 41.7445 87.9725 42.1103 87.6765 42.4334C86.8096 43.3791 85.861 44.2471 84.9564 45.1559L78.9122 51.2027L74.7753 55.361C73.9039 56.2528 73.0509 57.2631 72.1001 58.0651C71.8346 58.2889 71.5556 58.4489 71.1998 58.4522C70.9124 58.455 70.7132 58.3614 70.4848 58.1962C69.5548 57.5237 68.7517 56.5198 67.9502 55.6953C66.7239 54.4337 65.4741 53.1935 64.2317 51.9478C63.7825 51.5105 63.0743 50.9451 62.9564 50.295C62.9077 50.0269 62.9756 49.7612 63.1364 49.5422C63.3375 49.2684 63.6632 49.0869 63.9985 49.0443C64.2595 49.0112 64.5041 49.0648 64.7243 49.2089C65.2644 49.5625 65.7476 50.1571 66.1997 50.6191C67.1709 51.6198 68.1366 52.6256 69.097 53.6366C69.7521 54.3217 70.3954 55.0583 71.144 55.643L71.2351 55.7134C73.4813 53.6231 75.5823 51.38 77.729 49.1895C79.1756 47.713 80.6846 46.2978 82.1297 44.8197C83.3282 43.5937 85.5494 40.9992 86.7907 40.1396Z" fill="#101055"/>
<path d="M73.9368 24.86C74.4345 24.8186 74.9427 24.824 75.442 24.8233C81.4183 24.8152 87.5663 27.4433 91.7764 31.6638C91.924 31.8103 92.0699 31.9586 92.2139 32.1087C92.3579 32.2588 92.5 32.4106 92.6403 32.5642C92.7806 32.7178 92.9189 32.8732 93.0553 33.0302C93.1917 33.1872 93.3262 33.3459 93.4587 33.5063C93.5913 33.6666 93.7218 33.8286 93.8503 33.9922C93.9788 34.1557 94.1053 34.3208 94.2297 34.4874C94.3541 34.6541 94.4765 34.8223 94.5968 34.9921C94.717 35.1618 94.8352 35.333 94.9513 35.5056C95.0673 35.6782 95.1812 35.8522 95.293 36.0277C95.4047 36.2031 95.5143 36.3799 95.6217 36.558C95.729 36.7362 95.8342 36.9156 95.9373 37.0963C96.0402 37.2771 96.1409 37.4591 96.2395 37.6423C96.3379 37.8256 96.4341 38.01 96.528 38.1955C96.6219 38.3812 96.7135 38.5679 96.8028 38.7557C96.8921 38.9436 96.979 39.1325 97.0637 39.3226C97.1484 39.5126 97.2307 39.7036 97.3107 39.8956C97.3906 40.0877 97.4681 40.2807 97.5433 40.4747C97.6184 40.6686 97.6912 40.8634 97.7616 41.0592C97.8319 41.255 97.8998 41.4515 97.9653 41.6489C98.0309 41.8464 98.0939 42.0446 98.1544 42.2436C98.2151 42.4425 98.2732 42.6423 98.3289 42.8427C98.3846 43.0431 98.4377 43.2442 98.4884 43.446C98.5392 43.6477 98.5875 43.8501 98.6332 44.053C98.6789 44.2558 98.7221 44.4592 98.7628 44.6633C98.8034 44.8673 98.8415 45.0717 98.8772 45.2767C98.9128 45.4816 98.946 45.6869 98.9767 45.8927C99.0072 46.0985 99.0353 46.3046 99.0607 46.511C99.0862 46.7174 99.1091 46.9242 99.1294 47.1312C99.1499 47.3383 99.1677 47.5455 99.1829 47.7529C99.1982 47.9603 99.211 48.1679 99.2211 48.3758C99.2313 48.5835 99.2389 48.7913 99.2439 48.9993C99.2488 49.2072 99.2513 49.4152 99.2512 49.6232C99.2207 55.6527 96.4977 61.939 92.211 66.1664C89.5776 68.7634 86.5423 70.648 83.1002 71.9734C82.4556 72.2215 81.6662 72.609 80.9673 72.5848C80.65 72.5738 80.3254 72.4661 80.1167 72.2158C79.9306 71.9925 79.8525 71.6777 79.8789 71.3912C79.9114 71.0401 80.0939 70.7069 80.4026 70.5255C81.0971 70.1175 82.0744 69.9032 82.8336 69.5931C85.2493 68.6063 87.4189 67.3276 89.3777 65.5946C93.7412 61.7341 96.4883 56.4886 96.8277 50.629C96.8392 50.4448 96.8482 50.2605 96.855 50.0761C96.8618 49.8918 96.8663 49.7073 96.8685 49.5229C96.8707 49.3384 96.8706 49.1539 96.8682 48.9693C96.8658 48.7848 96.8611 48.6004 96.8541 48.416C96.8472 48.2317 96.8379 48.0474 96.8264 47.8632C96.8148 47.6791 96.8009 47.4952 96.7848 47.3114C96.7686 47.1275 96.7501 46.9439 96.7294 46.7606C96.7087 46.5773 96.6858 46.3943 96.6606 46.2114C96.6353 46.0286 96.6077 45.8462 96.5778 45.6642C96.548 45.482 96.516 45.3004 96.4817 45.1191C96.4474 44.9379 96.4107 44.757 96.3719 44.5765C96.3331 44.3962 96.292 44.2163 96.2487 44.037C96.2054 43.8576 96.1599 43.6788 96.1122 43.5006C96.0644 43.3224 96.0144 43.1448 95.9622 42.9678C95.91 42.7909 95.8557 42.6146 95.7991 42.4389C95.7425 42.2633 95.6837 42.0884 95.6229 41.9143C95.562 41.7401 95.4989 41.5667 95.4336 41.3942C95.3684 41.2216 95.301 41.0498 95.2315 40.8788C95.162 40.7079 95.0903 40.5379 95.0166 40.3688C94.9429 40.1996 94.867 40.0315 94.7891 39.8643C94.7112 39.697 94.6311 39.5307 94.549 39.3655C94.467 39.2003 94.3829 39.0361 94.2968 38.8729C94.2106 38.7097 94.1225 38.5476 94.0322 38.3867C93.942 38.2257 93.8498 38.0659 93.7557 37.9072C93.6615 37.7486 93.5654 37.5911 93.4674 37.4348C93.3692 37.2786 93.2692 37.1236 93.1672 36.9697C93.0653 36.8159 92.9615 36.6634 92.8558 36.5123C92.75 36.361 92.6424 36.2111 92.533 36.0626C92.4235 35.9141 92.3122 35.767 92.199 35.6212C92.0859 35.4755 91.9709 35.3312 91.8541 35.1882C91.7374 35.0453 91.619 34.9039 91.4988 34.764C91.3786 34.624 91.2566 34.4856 91.1329 34.3487C87.3933 30.177 82.0413 27.3886 76.41 27.0882C75.513 27.0417 74.6163 27.0447 73.7197 27.0973C72.8231 27.1497 71.9321 27.2513 71.0468 27.4021C65.5338 28.3812 60.2162 31.978 57.0336 36.5688C56.9289 36.7183 56.826 36.8691 56.725 37.0212C56.624 37.1732 56.525 37.3265 56.4279 37.481C56.3308 37.6356 56.2355 37.7913 56.1423 37.9481C56.049 38.105 55.9577 38.2631 55.8684 38.4223C55.779 38.5815 55.6917 38.7418 55.6064 38.9032C55.5211 39.0645 55.4378 39.2269 55.3565 39.3904C55.2753 39.5539 55.1961 39.7183 55.1189 39.8836C55.0418 40.049 54.9667 40.2154 54.8937 40.3828C54.8207 40.5501 54.7498 40.7183 54.681 40.8873C54.6122 41.0564 54.5456 41.2263 54.481 41.3971C54.4165 41.5678 54.354 41.7393 54.2937 41.9115C54.2334 42.0838 54.1753 42.2569 54.1193 42.4307C54.0634 42.6044 54.0096 42.7788 53.9581 42.9539C53.9064 43.1289 53.857 43.3046 53.8098 43.481C53.7625 43.6573 53.7175 43.8342 53.6748 44.0117C53.632 44.1891 53.5914 44.3671 53.553 44.5455C53.5146 44.7239 53.4785 44.9028 53.4446 45.0822C53.4107 45.2616 53.3791 45.4413 53.3497 45.6214C53.3203 45.8016 53.2932 45.9821 53.2683 46.163C53.2434 46.3437 53.2207 46.5248 53.2003 46.7063C53.1799 46.8876 53.1618 47.0692 53.1459 47.251C53.1301 47.4329 53.1166 47.6149 53.1052 47.7971C53.094 47.9794 53.085 48.1616 53.0783 48.344C53.0715 48.5264 53.067 48.7089 53.0648 48.8914C53.0626 49.0739 53.0627 49.2564 53.0651 49.4389C53.0674 49.6215 53.0721 49.8039 53.079 49.9863C53.0859 50.1688 53.0951 50.351 53.1065 50.5332C53.1181 50.7154 53.1318 50.8974 53.1478 51.0793C53.1639 51.2611 53.1821 51.4427 53.2026 51.624C53.2232 51.8054 53.2461 51.9864 53.2712 52.1672C53.2962 52.3481 53.3235 52.5285 53.3531 52.7086C53.3827 52.8888 53.4145 53.0685 53.4486 53.2478C54.7192 60.1149 59.1067 65.6824 65.2766 68.8424C65.839 69.1304 66.4193 69.4108 67.0114 69.6325C67.7447 69.9071 69.0021 70.1173 69.591 70.5516C69.8247 70.7238 69.9719 70.996 70.007 71.283C70.0445 71.5899 69.95 72.005 69.724 72.229C69.5422 72.409 69.3224 72.4921 69.0687 72.5064C68.4533 72.5416 67.7849 72.2627 67.2083 72.0664C66.8376 71.9389 66.4701 71.8029 66.1057 71.6581C65.7414 71.5134 65.3806 71.3602 65.0235 71.1985C64.6664 71.0367 64.3132 70.8667 63.9641 70.6883C63.615 70.5099 63.2703 70.3235 62.9299 70.129C62.5896 69.9343 62.254 69.7319 61.9231 69.5215C61.5924 69.3112 61.2667 69.0931 60.9461 68.8674C60.6256 68.6418 60.3105 68.4087 60.001 68.1681C59.6914 67.9275 59.3876 67.6798 59.0897 67.425C58.9413 67.2963 58.7944 67.1658 58.6492 67.0335C58.504 66.9011 58.3604 66.7671 58.2184 66.6312C58.0765 66.4953 57.9363 66.3577 57.7977 66.2184C57.6591 66.0792 57.5223 65.9382 57.3871 65.7955C57.252 65.653 57.1187 65.5087 56.9871 65.3628C56.8555 65.2169 56.7258 65.0694 56.5978 64.9203C56.4698 64.7712 56.3437 64.6205 56.2193 64.4684C56.0951 64.3162 55.9728 64.1626 55.8522 64.0074C55.7317 63.8522 55.6131 63.6956 55.4964 63.5375C55.3797 63.3795 55.265 63.22 55.1522 63.0591C55.0394 62.8982 54.9286 62.736 54.8198 62.5723C54.711 62.4087 54.6042 62.2438 54.4995 62.0776C54.3948 61.9114 54.2921 61.7439 54.1914 61.5752C54.0907 61.4065 53.9921 61.2366 53.8957 61.0654C53.7992 60.8942 53.7048 60.7219 53.6125 60.5485C53.5202 60.375 53.4301 60.2005 53.3421 60.0248C53.2541 59.8491 53.1683 59.6724 53.0846 59.4946C53.001 59.3169 52.9195 59.1382 52.8402 58.9584C52.7609 58.7786 52.6838 58.5979 52.6089 58.4162C52.5341 58.2346 52.4615 58.0521 52.3911 57.8687C52.3207 57.6852 52.2525 57.5009 52.1866 57.3158C52.1208 57.1307 52.0572 56.9448 51.9959 56.7582C51.9346 56.5716 51.8755 56.3841 51.8188 56.196C51.7621 56.0079 51.7076 55.8191 51.6555 55.6297C51.6034 55.4403 51.5537 55.2503 51.5062 55.0595C51.4587 54.8689 51.4136 54.6777 51.3709 54.4859C51.3281 54.2942 51.2876 54.102 51.2496 53.9092C51.2116 53.7164 51.1759 53.5232 51.1425 53.3296C51.1092 53.136 51.0782 52.942 51.0496 52.7476C51.0211 52.5532 50.9949 52.3586 50.9711 52.1635C50.9473 51.9684 50.9258 51.7731 50.9068 51.5776C50.8878 51.3821 50.8712 51.1863 50.857 50.9904C50.8425 50.7895 50.8306 50.5884 50.8211 50.3873C50.8116 50.1861 50.8046 49.9848 50.8001 49.7835C50.7957 49.5821 50.7936 49.3807 50.794 49.1794C50.7945 48.978 50.7974 48.7766 50.8028 48.5753C50.8082 48.374 50.8162 48.1728 50.8265 47.9716C50.8369 47.7704 50.8497 47.5695 50.865 47.3687C50.8804 47.1679 50.8982 46.9673 50.9185 46.7669C50.9387 46.5665 50.9615 46.3664 50.9868 46.1666C51.012 45.9668 51.0396 45.7673 51.0697 45.5682C51.0999 45.3691 51.1325 45.1704 51.1675 44.972C51.2025 44.7737 51.2399 44.5758 51.2799 44.3785C51.3198 44.181 51.3622 43.9841 51.4069 43.7879C51.4517 43.5915 51.4989 43.3957 51.5484 43.2005C51.598 43.0052 51.65 42.8107 51.7044 42.6169C51.7588 42.4229 51.8156 42.2297 51.8748 42.0372C51.9339 41.8446 51.9955 41.6529 52.0593 41.4618C52.1232 41.2709 52.1894 41.0808 52.258 40.8914C52.3266 40.702 52.3975 40.5134 52.4707 40.3258C52.5439 40.1383 52.6194 39.9516 52.6973 39.7658C52.7751 39.5801 52.8552 39.3953 52.9376 39.2115C53.02 39.0278 53.1046 38.845 53.1915 38.6634C53.2784 38.4817 53.3675 38.301 53.4588 38.1216C53.5501 37.9421 53.6437 37.7637 53.7395 37.5866C53.8352 37.4093 53.9331 37.2334 54.0332 37.0587C54.1333 36.8839 54.2355 36.7103 54.3398 36.5381C54.4442 36.3658 54.5507 36.1948 54.6593 36.0252C54.7679 35.8556 54.8785 35.6873 54.9912 35.5204C55.1039 35.3535 55.2187 35.1881 55.3355 35.024C55.4522 34.8599 55.571 34.6973 55.6918 34.5362C55.8127 34.3751 55.9355 34.2154 56.0603 34.0573C56.185 33.8992 56.3116 33.7427 56.4402 33.5877C56.5688 33.4327 56.6994 33.2794 56.8318 33.1276C61.3166 28.0256 67.1882 25.2916 73.9368 24.86Z" fill="#101055"/>
<path d="M56.8056 12.8418C57.7896 12.2206 59.4377 11.6094 60.5441 11.1844C69.8217 7.61993 81.7746 7.62052 90.8953 11.6682C93.0951 12.5709 95.1557 13.7455 97.1419 15.0428C103.961 19.497 109.52 25.7577 112.673 33.3194C112.784 33.5864 112.893 33.8546 112.999 34.1239C113.104 34.3932 113.207 34.6637 113.307 34.9353C113.407 35.2068 113.504 35.4795 113.598 35.7531C113.692 36.0268 113.783 36.3015 113.87 36.5772C113.958 36.8529 114.043 37.1295 114.125 37.4069C114.207 37.6844 114.286 37.9628 114.362 38.242C114.438 38.5213 114.51 38.8013 114.58 39.0821C114.65 39.363 114.717 39.6445 114.78 39.9267C114.844 40.209 114.904 40.492 114.962 40.7755C115.019 41.059 115.074 41.3432 115.125 41.628C115.176 41.9128 115.224 42.1981 115.27 42.4839C115.315 42.7697 115.357 43.056 115.395 43.3427C115.434 43.6295 115.47 43.9166 115.503 44.2041C115.535 44.4916 115.565 44.7794 115.591 45.0676C115.617 45.3558 115.64 45.6442 115.66 45.9327C115.681 46.2214 115.697 46.5103 115.711 46.7993C115.725 47.0883 115.736 47.3774 115.743 47.6667C115.75 47.9559 115.755 48.2452 115.756 48.5346C115.757 48.8239 115.755 49.1132 115.75 49.4025C115.745 49.6919 115.737 49.9811 115.725 50.2703C115.714 50.5593 115.699 50.8483 115.682 51.1372C115.664 51.4259 115.643 51.7145 115.619 52.0029C115.595 52.2912 115.568 52.5792 115.538 52.867C115.507 53.1548 115.474 53.4422 115.437 53.7292C115.401 54.0162 115.361 54.3028 115.319 54.5891C115.276 54.8752 115.23 55.1609 115.181 55.446C115.132 55.7312 115.08 56.0158 115.025 56.2999C114.97 56.5839 114.911 56.8673 114.85 57.1501C114.789 57.4329 114.724 57.715 114.657 57.9963C114.589 58.2777 114.519 58.5583 114.445 58.8381C114.372 59.1179 114.295 59.3969 114.215 59.6752C114.136 59.9533 114.053 60.2305 113.967 60.5069C113.449 62.2023 112.75 63.8548 112.072 65.4913C111.072 67.9047 108.545 72.0588 106.804 74.0794C105.809 75.2337 104.686 76.2652 103.72 77.4493C102.966 78.3733 102.045 79.9257 101.188 80.651C101.596 80.0101 102.065 79.4806 102.519 78.8801C103.1 78.1136 103.645 77.3148 104.292 76.6023C105.097 75.7173 105.982 74.894 106.755 73.9835C109.657 70.5657 112.77 64.5184 113.951 60.1917C114.193 59.3016 114.846 57.4098 114.764 56.5744C114.653 56.5565 114.555 56.5432 114.443 56.5419C114.402 56.6434 114.363 56.744 114.315 56.8427C114.152 56.8301 113.76 56.7383 113.623 56.7732C113.375 56.8361 113.167 57.0935 112.909 57.1124C112.536 57.1398 112.074 56.8653 111.732 56.907C111.41 56.9462 111.203 57.2895 110.799 57.2835C110.006 57.2716 109.216 57.3702 108.424 57.3316C108.255 57.4665 108.239 57.7326 108.078 57.7669C108.052 57.7363 108.027 57.7052 108.001 57.6751C107.895 57.5525 107.944 57.5949 107.816 57.5166C107.262 57.5976 106.927 57.9642 106.435 58.1498C105.838 58.3748 105.361 58.092 104.648 58.453C104.549 58.5031 104.445 58.5468 104.344 58.5926L103.996 58.45C103.329 58.8204 102.816 59.3825 102.095 59.6955L101.761 59.57C101.644 59.7179 101.526 59.8628 101.4 60.0034L101.331 59.9873C101.292 59.8051 101.339 59.7546 101.399 59.5833C101.228 59.5952 101.153 59.6469 101.015 59.7443C101.036 59.9492 101.172 59.9355 101.042 60.1001L100.886 60.097C98.1807 66.7608 92.446 71.9706 85.8947 74.7469C83.4865 75.7675 80.9902 76.3764 78.4265 76.8651C77.8713 76.9709 77.1211 77.2001 76.572 77.081C80.8966 76.4453 85.1006 75.334 88.896 73.1195C95.3637 69.3458 100.085 63.8371 102.013 56.49C104.014 48.8639 102.883 41.5016 98.9104 34.7088C98.7926 34.511 98.6724 34.3148 98.5497 34.1199C98.4272 33.925 98.3022 33.7317 98.1749 33.54C98.0474 33.3482 97.9178 33.158 97.7858 32.9694C97.6538 32.7809 97.5195 32.594 97.3828 32.4087C97.2461 32.2234 97.1072 32.0399 96.9661 31.8579C96.825 31.6761 96.6817 31.496 96.5362 31.3177C96.3906 31.1393 96.2428 30.9627 96.0929 30.788C95.943 30.6133 95.791 30.4404 95.6369 30.2694C95.4828 30.0984 95.3266 29.9294 95.1683 29.7623C95.01 29.5951 94.8497 29.4299 94.6874 29.2668C94.525 29.1036 94.3606 28.9424 94.1943 28.7832C94.028 28.624 93.8598 28.4669 93.6897 28.3118C93.5195 28.1568 93.3474 28.0039 93.1735 27.853C92.9995 27.7023 92.8238 27.5536 92.6463 27.4071C92.4687 27.2607 92.2894 27.1164 92.1082 26.9743C91.9271 26.8322 91.7443 26.6923 91.5598 26.5548C91.3752 26.4172 91.189 26.2818 91.0011 26.1488C90.8132 26.0158 90.6237 25.8851 90.4326 25.7567C90.2416 25.6284 90.049 25.5024 89.8547 25.3786C89.6606 25.255 89.4649 25.1338 89.2678 25.0151C89.0706 24.8962 88.872 24.7798 88.672 24.6658C88.4719 24.5519 88.2705 24.4404 88.0678 24.3314C87.865 24.2223 87.661 24.1158 87.4556 24.0119C87.2502 23.9079 87.0436 23.8065 86.8357 23.7075C86.6279 23.6086 86.4188 23.5122 86.2086 23.4184C85.9983 23.3246 85.787 23.2335 85.5746 23.1449C85.3621 23.0563 85.1485 22.9703 84.9339 22.8869C84.7193 22.8036 84.5037 22.723 84.2871 22.6449C84.0706 22.5668 83.8532 22.4914 83.6347 22.4188C83.4163 22.346 83.1971 22.276 82.9768 22.2087C82.7567 22.1413 82.5358 22.0767 82.3141 22.0149C82.0924 21.953 81.8699 21.8938 81.6468 21.8374C79.5684 21.2933 77.3482 20.9508 75.1981 20.944C70.4751 20.9292 65.0479 22.4539 60.9887 24.8514C60.7881 24.9706 60.5889 25.0921 60.3913 25.216C60.1937 25.3401 59.9977 25.4664 59.8032 25.5951C59.6086 25.7239 59.4157 25.855 59.2242 25.9884C59.0329 26.1219 58.8433 26.2577 58.6553 26.3958C58.4672 26.5339 58.2809 26.6742 58.0963 26.8168C57.9117 26.9595 57.7288 27.1044 57.5477 27.2514C57.3667 27.3985 57.1874 27.5478 57.01 27.6992C56.8325 27.8506 56.657 28.0042 56.4832 28.1599C56.3096 28.3157 56.1378 28.4735 55.9679 28.6334C55.7981 28.7933 55.6302 28.9553 55.4643 29.1192C55.2984 29.2832 55.1345 29.4492 54.9727 29.6173C54.8108 29.7853 54.651 29.9552 54.4932 30.1271C54.3355 30.2989 54.18 30.4727 54.0265 30.6484C53.873 30.8242 53.7217 31.0017 53.5726 31.181C53.4234 31.3604 53.2764 31.5416 53.1317 31.7246C52.9869 31.9075 52.8445 32.0922 52.7042 32.2786C52.564 32.4651 52.4261 32.6532 52.2904 32.843C52.1548 33.0328 52.0215 33.2242 51.8905 33.4172C51.7595 33.6102 51.6308 33.8048 51.5047 34.001C51.3784 34.1972 51.2546 34.3949 51.1332 34.5941C51.0117 34.7933 50.8927 34.994 50.7762 35.196C50.6597 35.3981 50.5456 35.6015 50.434 35.8064C50.3225 36.0113 50.2134 36.2175 50.1068 36.425C50.0002 36.6326 49.8962 36.8415 49.7948 37.0515C49.6934 37.2616 49.5945 37.4728 49.4981 37.6852C49.4018 37.8977 49.3081 38.1113 49.217 38.3261C49.1259 38.5409 49.0374 38.7568 48.9516 38.9737C48.8658 39.1906 48.7826 39.4085 48.7021 39.6275C48.6216 39.8464 48.5437 40.0663 48.4685 40.2871C48.3934 40.508 48.3209 40.7297 48.2511 40.9523C48.1814 41.1749 48.1143 41.3983 48.05 41.6226C47.9856 41.8468 47.9241 42.0718 47.8653 42.2976C47.7758 42.6578 47.6934 43.0197 47.6181 43.3833C47.5429 43.7468 47.4746 44.1116 47.4135 44.4777C47.3524 44.8439 47.2984 45.2111 47.2516 45.5794C47.2049 45.9476 47.1653 46.3166 47.1328 46.6864C47.1005 47.0562 47.0754 47.4265 47.0574 47.7973C47.0394 48.1681 47.0287 48.5391 47.0252 48.9103C47.0217 49.2815 47.0254 49.6526 47.0363 50.0237C47.0472 50.3947 47.0654 50.7654 47.0908 51.1359C47.1162 51.5062 47.1488 51.8758 47.1887 52.2449C47.2285 52.614 47.2755 52.9822 47.3297 53.3494C47.3838 53.7167 47.4451 54.0827 47.5136 54.4476C47.582 54.8124 47.6576 55.1758 47.7402 55.5377C47.8227 55.8996 47.9123 56.2598 48.009 56.6182C48.1056 56.9766 48.2092 57.333 48.3197 57.6874C48.4302 58.0418 48.5476 58.3939 48.672 58.7437C48.7962 59.0935 48.9272 59.4407 49.065 59.7855C49.6704 61.26 50.4613 62.6746 51.2836 64.0379C52.0402 65.2925 52.9322 66.3916 53.8834 67.5001C57.9219 72.2051 62.7144 74.9686 68.7011 76.4517L68.6387 76.5021C67.5062 76.4593 65.8714 75.7489 64.8035 75.3619C61.7964 74.2719 58.3345 72.1493 56.0026 69.9597C55.1177 69.1288 54.3472 68.2049 53.561 67.2834C52.9905 66.6146 52.4105 65.9757 51.9142 65.2471C50.6767 63.4301 49.7209 61.4775 48.7937 59.4919L48.6844 59.4645C48.2915 59.7414 47.8472 59.7288 47.3964 59.8471C47.0359 59.9418 46.568 59.6525 46.1825 59.6425C45.2536 59.6182 44.2455 59.756 43.3223 59.5972C42.726 59.4947 42.2133 59.1228 41.5927 59.0273C40.5821 58.8718 40.3465 57.6384 39.0219 57.6957C38.8382 57.7036 38.6972 57.4704 38.5174 57.3878C37.7225 57.5381 36.4199 57.9477 35.7923 58.4526C35.7762 58.4656 35.7605 58.4791 35.7447 58.4923L35.5017 58.4554L35.3669 58.6714L35.3983 58.5798C35.3868 59.0885 35.7356 59.8906 35.8924 60.3831C36.8584 63.4171 38.1432 66.2327 39.7241 68.9968C40.0771 69.6141 40.5148 70.1796 40.8665 70.7938C41.6513 72.1638 43.4619 74.4194 44.5531 75.5853C44.9218 75.9792 46.0087 76.7369 46.1203 77.2186L46.0623 77.2487C42.7179 73.873 40.0905 70.2008 37.9736 65.9387C37.8324 65.6474 37.6948 65.3544 37.5607 65.0598C37.4267 64.7651 37.2963 64.4688 37.1696 64.1709C37.0428 63.873 36.9197 63.5736 36.8003 63.2727C36.6809 62.9718 36.5653 62.6695 36.4533 62.3658C36.3412 62.062 36.233 61.7569 36.1285 61.4506C36.0241 61.1441 35.9234 60.8364 35.8264 60.5276C35.7295 60.2187 35.6364 59.9087 35.5471 59.5975C35.4577 59.2863 35.3722 58.9741 35.2906 58.6609C35.209 58.3476 35.1312 58.0334 35.0573 57.7181C34.9833 57.403 34.9133 57.087 34.8472 56.7701C34.781 56.4532 34.7187 56.1355 34.6604 55.8171C34.602 55.4987 34.5476 55.1796 34.4971 54.8598C34.4466 54.5401 34.4 54.2197 34.3574 53.8988C34.3147 53.5779 34.276 53.2566 34.2412 52.9347C34.2064 52.6128 34.1756 52.2905 34.1488 51.9679C34.122 51.6453 34.0992 51.3225 34.0802 50.9993C34.0613 50.6761 34.0463 50.3527 34.0354 50.0292C34.0244 49.7056 34.0175 49.382 34.0144 49.0583C34.0114 48.7345 34.0123 48.4109 34.0172 48.0872C34.0222 47.7635 34.0311 47.4399 34.044 47.1165C34.0568 46.7929 34.0737 46.4696 34.0946 46.1466C34.1154 45.8235 34.1401 45.5008 34.1688 45.1783C34.1976 44.8559 34.2304 44.5339 34.267 44.2123C34.3036 43.8906 34.3442 43.5694 34.3887 43.2488C34.4333 42.9281 34.4818 42.6081 34.5342 42.2886C34.5866 41.9692 34.6429 41.6505 34.7032 41.3324C34.7635 41.0142 34.8276 40.6969 34.8955 40.3804C34.9636 40.0639 35.0355 39.7483 35.1113 39.4337C35.1871 39.1189 35.2667 38.8051 35.3502 38.4923C35.4337 38.1796 35.521 37.8678 35.6121 37.5572C35.7033 37.2465 35.7982 36.9371 35.8969 36.6288C35.9957 36.3205 36.0983 36.0134 36.2045 35.7077C38.7528 28.2546 43.7622 21.6579 50.0326 16.9345C51.2622 16.0083 52.5866 15.0144 53.9721 14.3359C54.7855 13.8037 55.7051 13.3149 56.6004 12.9356C56.6616 12.8913 56.7358 12.8697 56.8056 12.8418Z" fill="url(#paint0_linear_47_2478)"/>
<path d="M56.6005 12.9355C56.5365 13.1761 56.2346 13.3863 56.0647 13.581C55.6958 14.0036 55.0573 14.3676 54.4862 14.3898C54.3993 14.3932 54.3126 14.3908 54.2259 14.3876L54.1301 14.4947C53.9987 14.437 54.0568 14.4837 53.9722 14.3359C54.7856 13.8036 55.7052 13.3149 56.6005 12.9355Z" fill="#8ED3D0"/>
<path d="M56.8057 12.8418C57.7896 12.2206 59.4377 11.6094 60.5441 11.1844C69.8217 7.61993 81.7747 7.62052 90.8954 11.6682L90.8423 11.8286C90.9118 11.9203 91.0021 11.9874 90.9997 12.1051L90.8524 12.1424C90.8321 12.1255 90.812 12.1083 90.7914 12.0917C90.2206 11.6309 89.5919 11.9065 88.9711 11.5284C88.2916 11.1146 87.8334 11.3479 87.1178 11.2068C86.9416 11.1721 86.7619 11.0447 86.6031 10.9595C85.7986 10.5278 85.112 10.0966 84.1694 10.2215C83.8827 10.2595 83.5851 10.235 83.2955 10.2556C82.1205 10.3391 80.916 10.473 79.7382 10.4579C78.9375 10.4477 78.1165 10.2308 77.3208 10.3636C76.9541 10.4248 76.4353 10.4693 76.0958 10.6057C75.9482 10.6649 75.8441 10.9047 75.7153 10.9942C75.4168 11.2018 74.3346 11.0793 74.0104 10.9399C73.9641 10.8005 73.983 10.725 74.0009 10.5818L73.9243 10.5348C73.8622 10.7631 73.804 10.9935 73.7311 11.2185C73.1445 11.2314 72.5516 11.1778 71.9688 11.2035C71.4059 11.2283 70.8475 11.3224 70.285 11.3558C69.7776 11.3859 69.2256 11.3663 68.7269 11.4531C68.1137 11.5598 67.5255 11.8999 66.9078 11.9708C66.227 12.0489 65.5219 11.9118 64.8362 11.9471C63.9241 11.994 62.9378 12.0649 62.0387 12.2203C61.5438 12.3057 61.0588 12.4454 60.5633 12.5244C59.8013 12.646 58.9682 12.581 58.2761 12.9492C58.0257 13.0825 57.8025 13.2219 57.5152 13.2393C57.277 13.1405 56.9444 13.0588 56.8057 12.8418Z" fill="#8ED3D0"/>
</g>
<defs>
<linearGradient id="paint0_linear_47_2478" x1="72.9978" y1="10.4929" x2="75.4514" y2="61.1672" gradientUnits="userSpaceOnUse">
<stop stop-color="#7BCEC2"/>
<stop offset="1" stop-color="#CAE4DC"/>
</linearGradient>
<clipPath id="clip0_47_2478">
<rect width="150" height="150" fill="white"/>
</clipPath>
</defs>
</svg>
