<svg width="167" height="150" viewBox="0 0 167 150" fill="none" xmlns="http://www.w3.org/2000/svg">
<g clip-path="url(#clip0_47_100)">
<path d="M2.98074 14.5754C2.81695 14.5995 2.65263 14.6242 2.48777 14.6416C2.04806 14.6876 1.94662 14.5993 1.61584 14.3376C1.55776 14.0006 1.58667 14.0078 1.76973 13.7132C2.11737 13.5594 2.17759 13.5479 2.55468 13.5916C2.77146 13.9202 2.96656 14.1661 2.98074 14.5754Z" fill="#66A7AC"/>
<path d="M145.449 9.80811C145.821 9.93587 146.222 10.1443 146.542 10.3746C146.801 10.5616 146.945 10.707 147.01 11.0255L146.744 11.2114C146.304 11.4329 145.849 11.6301 145.401 11.8347C145.404 11.1603 145.432 10.4828 145.449 9.80811Z" fill="#8FE2E4"/>
<path d="M144.638 9.80359L144.723 9.87779C144.648 10.5102 144.895 11.1271 144.645 11.7236L144.419 11.8031L143.782 11.4153C143.518 11.2463 143.349 11.0708 143.14 10.8413C143.115 10.6481 143.051 10.5531 143.177 10.3843C143.514 9.93296 144.121 9.87537 144.638 9.80359Z" fill="#8FE2E4"/>
<path d="M145.166 13.2565C145.697 13.6352 146.823 14.1337 147.004 14.78L146.745 15.0573L145.433 15.784C145.299 14.9359 145.197 14.1147 145.166 13.2565Z" fill="#8FE2E4"/>
<path d="M147.44 11.6443C147.525 11.6799 147.56 11.6863 147.63 11.7587C147.884 12.0225 148.028 12.6833 147.935 13.0259C147.847 13.3527 147.69 13.3972 147.417 13.541C146.971 13.545 146.671 13.2956 146.311 13.0639C146.098 12.9295 145.813 12.858 145.575 12.7642C145.557 12.5513 145.545 12.6769 145.694 12.4045C146.289 12.1819 146.862 11.9073 147.44 11.6443Z" fill="#8FE2E4"/>
<path d="M144.638 13.234C144.792 14.0162 144.701 14.959 144.703 15.7628C144.288 15.6852 143.881 15.57 143.473 15.4642C143.396 15.3996 143.32 15.3402 143.254 15.2628C142.991 14.9582 142.984 14.9121 143.008 14.5299C143.368 13.9521 144.077 13.6015 144.638 13.234Z" fill="#8FE2E4"/>
<path d="M142.581 11.0793C142.597 11.0957 142.617 11.1085 142.629 11.1281C143.069 11.8425 143.58 12.2236 144.244 12.7149C143.86 12.8627 143.504 13.0679 143.143 13.2624C142.957 13.4547 142.827 13.6229 142.57 13.7156C142.383 13.7828 142.334 13.7051 142.17 13.6251C142.098 13.4852 142.029 13.3569 142.003 13.1997C141.865 12.3637 142.092 11.7372 142.581 11.0793Z" fill="#8FE2E4"/>
<path d="M4.5172 13.6443C4.48241 12.9926 4.34566 12.1384 4.5619 11.5175C4.69437 11.1372 4.79286 10.9789 5.15229 10.7927L5.41242 10.8937C5.59146 11.2092 5.60297 11.3472 5.56443 11.7061L5.57567 13.5377C6.54342 13.5289 7.70278 13.399 8.54527 13.9698L8.57445 14.1487C7.81813 14.8033 6.47624 14.6274 5.53125 14.6606C5.52616 15.5067 5.69905 16.8107 5.35488 17.5655C5.07708 17.7458 5.09983 17.7495 4.77654 17.6866C4.17411 16.9317 4.64593 15.7435 4.49981 14.8344C4.49017 14.7747 4.47893 14.715 4.4685 14.6555C3.96776 14.6563 3.47907 14.622 2.98075 14.5754C2.96657 14.1661 2.77147 13.9202 2.55469 13.5916C3.2069 13.6786 3.86071 13.6521 4.5172 13.6443Z" fill="#8FE2E4"/>
<path d="M29.2131 132.989C29.6726 132.984 30.2114 133.054 30.6374 133.23C31.2813 133.494 31.7847 134.06 32.0286 134.707C32.0626 134.795 32.092 134.885 32.1166 134.976C32.1412 135.068 32.1609 135.16 32.1758 135.254C32.1906 135.348 32.2004 135.442 32.2052 135.536C32.2102 135.631 32.2101 135.725 32.2049 135.82C32.1999 135.914 32.1899 136.008 32.1749 136.102C32.16 136.196 32.1401 136.288 32.1153 136.38C32.0905 136.471 32.0609 136.561 32.0267 136.649C31.9924 136.737 31.9536 136.824 31.9103 136.908C31.4928 137.718 30.8665 137.97 30.0337 138.219C29.579 138.222 29.1403 138.196 28.7062 138.044C28.1404 137.846 27.6413 137.325 27.3975 136.786C27.0905 136.108 27.0996 135.337 27.3721 134.649C27.7323 133.74 28.3538 133.37 29.2131 132.989Z" fill="#8FE2E4"/>
<path d="M1.80767 87.2127C2.24926 87.1894 2.73821 87.1393 3.17177 87.2419C3.90427 87.4152 4.59368 87.9418 4.95016 88.6045C5.29299 89.242 5.33555 89.9735 5.08558 90.6499C4.75988 91.5314 4.12961 91.9493 3.31522 92.3368C2.72804 92.4046 2.21955 92.3816 1.66877 92.144C0.732069 91.7395 0.296371 90.945 -0.0678711 90.0394C-0.025229 89.8544 0.0200012 89.67 0.0678174 89.4863C0.363011 88.3562 0.79898 87.7999 1.80767 87.2127Z" fill="#8FE2E4"/>
<path d="M129.71 0.147285C130.358 0.110321 130.906 0.0757707 131.509 0.346306C132.264 0.684878 132.866 1.28648 133.145 2.07104C133.388 2.74952 133.362 3.48693 133.038 4.13247C132.574 5.06006 131.756 5.42167 130.823 5.74551C130.215 5.83497 129.641 5.88613 129.06 5.64077C128.405 5.36407 127.897 4.81095 127.633 4.15524C127.326 3.3905 127.315 2.53658 127.652 1.78041C128.076 0.829254 128.791 0.50675 129.71 0.147285Z" fill="#8FE2E4"/>
<path d="M88.5091 63.2334C91.1289 65.7633 93.7316 67.2193 97.4502 67.1575C101.076 67.0972 103.807 65.6293 106.384 63.176C106.495 64.25 106.593 65.325 106.68 66.4013C106.477 67.068 106.181 67.6715 105.771 68.2369C104.36 70.1834 101.741 71.4815 99.401 71.8225C96.2411 72.2829 92.9313 71.6733 90.3495 69.7372C89.3609 68.9958 87.8635 67.57 87.6826 66.2998C87.851 65.2562 88.1997 64.2413 88.5091 63.2334Z" fill="#8FE2E4"/>
<path d="M9.00623 101.529L9.19063 101.518C9.40447 101.709 12.1043 108.793 12.5809 109.807C14.9192 114.778 17.7799 119.606 21.3699 123.774C20.4275 124.586 19.4997 125.444 18.4781 126.154C14.5063 121.187 11.0892 115.35 8.59623 109.502C7.60467 107.176 6.84139 104.771 5.87793 102.438L9.00623 101.529Z" fill="#8FE2E4"/>
<path d="M154.5 26.5029L154.729 26.56C160.854 34.5494 163.826 41.8969 167.009 51.3049L164.189 52.0134L163.377 52.1837C163.28 52.1497 163.161 52.1516 163.086 52.0822C162.888 51.8995 161.8 48.0941 161.574 47.4756C160.705 45.1056 159.729 42.7803 158.646 40.4998C157.564 38.2191 156.38 35.9927 155.094 33.8205C153.994 31.9795 152.751 30.2291 151.628 28.402C152.558 27.7327 153.539 27.127 154.5 26.5029Z" fill="#8FE2E4"/>
<path d="M81.2805 0.591695C89.1932 -0.0723231 98.9981 1.27875 106.6 3.55661C107.185 3.72839 107.767 3.90732 108.347 4.09339C108.928 4.27946 109.506 4.47268 110.081 4.67303C110.656 4.87339 111.229 5.0808 111.8 5.29527C112.37 5.50973 112.938 5.73115 113.502 5.95955C114.067 6.18794 114.63 6.4233 115.188 6.66562C115.748 6.90794 116.304 7.15705 116.857 7.41294C117.41 7.66883 117.96 7.93151 118.506 8.20098C119.053 8.47062 119.596 8.74687 120.136 9.02973C120.675 9.31258 121.211 9.60196 121.744 9.89785C122.277 10.1939 122.806 10.4965 123.331 10.8056C123.856 11.1147 124.377 11.4303 124.895 11.7522C125.412 12.0742 125.926 12.4024 126.435 12.7369C126.944 13.0715 127.45 13.4123 127.951 13.7593C128.452 14.1062 128.948 14.4594 129.441 14.8187C129.933 15.1778 130.421 15.5429 130.904 15.9142C131.387 16.2854 131.866 16.6626 132.341 17.0456C132.815 17.4287 133.284 17.8175 133.748 18.2121C134.213 18.6066 134.672 19.0068 135.127 19.4127C135.582 19.8186 136.031 20.23 136.476 20.647C136.921 21.0639 137.36 21.4863 137.794 21.9142C138.228 22.3419 138.657 22.7749 139.081 23.2133C139.504 23.6517 139.922 24.0952 140.335 24.5437C140.748 24.9923 141.155 25.446 141.556 25.9047C141.958 26.3633 142.354 26.8268 142.744 27.2952C143.134 27.7636 143.518 28.2367 143.897 28.7145C144.275 29.1924 144.648 29.6749 145.014 30.1621C145.381 30.649 145.742 31.1404 146.096 31.6363C146.451 32.1322 146.799 32.6324 147.141 33.1369C147.484 33.6413 147.82 34.15 148.149 34.6629C148.479 35.1755 148.802 35.6922 149.119 36.2129C149.437 36.7337 149.747 37.2582 150.051 37.7866C150.356 38.315 150.653 38.847 150.944 39.3828C153.555 44.2425 155.465 49.3045 157.044 54.5804C157.258 55.2948 157.89 56.7833 157.684 57.4698C157.562 57.5004 157.327 57.5652 157.207 57.5662C156.88 57.5687 156.831 57.4746 156.718 57.2159C156.072 55.7237 155.779 53.9312 155.302 52.3637C154.622 50.1327 153.745 47.9287 152.864 45.7701C148.951 36.1937 142.462 27.7055 134.97 20.6612C131.378 17.3175 127.262 14.4155 123.069 11.8811C101.495 -1.15822 74.6808 -1.54179 52.0293 8.95634C48.5445 10.5712 45.1526 12.611 41.989 14.7814C41.2153 15.312 38.9675 17.2923 38.254 17.4678C37.8921 17.3662 37.86 17.3563 37.6191 17.0703C37.666 16.8145 37.6125 16.8932 37.7398 16.7475C39.1411 15.1452 41.9119 13.6254 43.7521 12.4658C55.1876 5.26125 67.8295 1.4633 81.2805 0.591695Z" fill="#101055"/>
<path d="M10.7607 62.7069C11.2023 62.8628 11.4878 62.9295 11.596 63.4202C11.8411 64.5326 11.2478 67.5133 11.2063 68.9008C11.1176 71.6762 11.1761 74.4484 11.3818 77.2175C11.4311 77.9754 11.4914 78.7324 11.5628 79.4887C11.6341 80.2448 11.7166 80.9997 11.8101 81.7534C11.9034 82.5072 12.0077 83.2594 12.1229 84.0101C12.2382 84.7608 12.3643 85.5097 12.5013 86.2567C12.6384 87.0036 12.7863 87.7484 12.9451 88.4911C13.1039 89.234 13.2734 89.9742 13.4538 90.7119C13.6342 91.4498 13.8252 92.1848 14.0268 92.9169C14.2286 93.6491 14.441 94.3781 14.664 95.104C14.8869 95.83 15.1203 96.5526 15.3644 97.2717C15.6083 97.991 15.8627 98.7065 16.1277 99.4181C16.3925 100.13 16.6676 100.838 16.9531 101.541C17.2385 102.245 17.5342 102.945 17.84 103.64C18.1458 104.335 18.4617 105.025 18.7877 105.711C19.1136 106.397 19.4495 107.078 19.7953 107.754C20.141 108.43 20.4966 109.101 20.8618 109.767C21.2272 110.432 21.6021 111.093 21.9866 111.748C22.2924 112.274 22.6046 112.797 22.923 113.317C23.2417 113.836 23.5666 114.351 23.8977 114.862C24.2291 115.373 24.5665 115.88 24.9102 116.383C25.2538 116.886 25.6036 117.385 25.9595 117.879C26.3155 118.374 26.6774 118.863 27.0453 119.349C27.4132 119.834 27.787 120.315 28.1667 120.791C28.5464 121.268 28.9318 121.739 29.3231 122.206C29.7144 122.673 30.1113 123.135 30.5138 123.592C30.9163 124.049 31.3244 124.501 31.7382 124.948C32.1518 125.395 32.5709 125.837 32.9955 126.273C33.42 126.71 33.8497 127.141 34.2847 127.567C34.7198 127.994 35.1601 128.415 35.6054 128.83C36.0509 129.245 36.5014 129.655 36.9569 130.059C37.4123 130.463 37.8726 130.862 38.3379 131.255C38.803 131.648 39.273 132.035 39.7478 132.416C40.2225 132.798 40.7019 133.173 41.1857 133.543C41.6696 133.913 42.158 134.276 42.651 134.634C43.1438 134.992 43.6409 135.343 44.1425 135.689C44.6438 136.034 45.1495 136.373 45.6594 136.706C46.1691 137.039 46.6829 137.366 47.2007 137.687C47.7184 138.007 48.24 138.321 48.7655 138.628C49.2911 138.936 49.8204 139.237 50.3533 139.532C50.8861 139.826 51.4225 140.114 51.9626 140.396C52.5025 140.677 53.0458 140.952 53.5924 141.22C54.1391 141.488 54.689 141.749 55.2421 142.004C55.7952 142.258 56.3513 142.506 56.9105 142.747C57.4697 142.988 58.0317 143.222 58.5965 143.449C59.1614 143.676 59.7291 143.896 60.2995 144.109C60.8697 144.322 61.4425 144.528 62.0179 144.727C62.5933 144.927 63.171 145.119 63.7511 145.303C64.3311 145.488 64.9133 145.666 65.4976 145.836C66.0821 146.007 66.6686 146.17 67.257 146.327C68.2329 146.584 69.2135 146.822 70.1988 147.04C71.184 147.259 72.1731 147.459 73.1662 147.639C74.1593 147.819 75.1555 147.979 76.1548 148.12C77.1541 148.261 78.1558 148.382 79.1598 148.484C80.1639 148.586 81.1695 148.668 82.1767 148.73C83.1841 148.792 84.1922 148.835 85.2012 148.858C86.2102 148.88 87.2191 148.884 88.2281 148.867C89.2372 148.85 90.2456 148.814 91.2533 148.757C92.2609 148.701 93.267 148.625 94.2716 148.53C95.2763 148.434 96.2788 148.319 97.279 148.184C98.279 148.049 99.2761 147.894 100.27 147.72C101.264 147.546 102.255 147.353 103.241 147.14C104.228 146.927 105.21 146.695 106.187 146.444C107.165 146.193 108.137 145.922 109.104 145.633C110.071 145.344 111.032 145.035 111.986 144.708C112.941 144.381 113.889 144.036 114.831 143.672C115.772 143.307 116.706 142.925 117.632 142.524C118.558 142.123 119.477 141.705 120.387 141.268C121.297 140.831 122.198 140.377 123.09 139.905C123.982 139.433 124.865 138.943 125.738 138.437C126.611 137.93 127.474 137.407 128.327 136.866C129.179 136.326 130.021 135.769 130.852 135.195C131.682 134.622 132.502 134.033 133.309 133.427C134.117 132.822 134.913 132.2 135.696 131.564C136.48 130.927 137.25 130.275 138.008 129.608C138.766 128.941 139.511 128.26 140.242 127.564C140.973 126.868 141.691 126.158 142.394 125.434C143.098 124.709 143.787 123.972 144.462 123.221C145.136 122.469 145.796 121.705 146.441 120.928C147.086 120.151 147.715 119.362 148.329 118.56C148.943 117.759 149.541 116.945 150.123 116.12C150.705 115.295 151.271 114.459 151.82 113.612C152.966 111.827 154.047 110.005 155.065 108.144C156.083 106.284 157.034 104.39 157.919 102.463C158.305 101.628 159.433 98.1824 159.905 97.9031C160.282 97.9671 160.369 97.9376 160.626 98.2127L160.545 98.7294C155.132 112.597 146.414 124.983 134.44 133.955C133.922 134.347 133.4 134.733 132.873 135.112C132.346 135.491 131.814 135.863 131.278 136.229C130.741 136.595 130.201 136.954 129.655 137.306C129.11 137.659 128.561 138.004 128.007 138.343C127.453 138.682 126.895 139.014 126.333 139.339C125.771 139.664 125.206 139.982 124.636 140.293C124.066 140.604 123.492 140.907 122.915 141.204C122.337 141.501 121.756 141.79 121.172 142.072C120.587 142.355 119.999 142.63 119.408 142.897C118.817 143.165 118.222 143.425 117.624 143.679C117.026 143.931 116.426 144.177 115.822 144.415C115.218 144.653 114.611 144.883 114.001 145.106C113.392 145.329 112.78 145.545 112.165 145.753C111.55 145.96 110.932 146.16 110.312 146.353C109.693 146.545 109.071 146.73 108.446 146.907C107.822 147.084 107.195 147.253 106.566 147.415C105.938 147.576 105.307 147.73 104.675 147.876C104.042 148.022 103.408 148.16 102.772 148.29C102.136 148.42 101.499 148.542 100.86 148.656C100.221 148.771 99.5808 148.877 98.9394 148.975C98.2978 149.074 97.6551 149.164 97.0114 149.247C96.3676 149.329 95.7229 149.404 95.0772 149.47C94.4315 149.537 93.7852 149.595 93.1382 149.646C92.4911 149.696 91.8435 149.739 91.1953 149.773C90.5472 149.807 89.8989 149.834 89.2501 149.852C88.6012 149.87 87.9523 149.88 87.3034 149.883C86.6543 149.885 86.0053 149.879 85.3564 149.865C84.7075 149.851 84.059 149.829 83.4108 149.799C82.7624 149.769 82.1145 149.731 81.467 149.685C80.8197 149.639 80.173 149.585 79.5269 149.523C78.8809 149.46 78.2357 149.39 77.5915 149.312C76.947 149.234 76.3037 149.148 75.6616 149.054C75.0466 148.967 74.4327 148.872 73.82 148.77C73.2073 148.668 72.596 148.559 71.986 148.442C71.376 148.324 70.7675 148.199 70.1605 148.067C69.5537 147.935 68.9485 147.795 68.3449 147.648C67.7415 147.501 67.1399 147.346 66.5403 147.184C65.9406 147.022 65.3431 146.852 64.7477 146.676C64.1521 146.499 63.5589 146.314 62.968 146.123C62.3772 145.931 61.7888 145.732 61.2027 145.526C60.6168 145.32 60.0334 145.107 59.4527 144.886C58.8719 144.665 58.294 144.438 57.719 144.203C57.1439 143.968 56.5718 143.726 56.0027 143.477C55.4335 143.228 54.8676 142.972 54.3049 142.709C53.7419 142.446 53.1824 142.176 52.6263 141.899C52.0702 141.622 51.5176 141.338 50.9686 141.048C50.4194 140.757 49.874 140.46 49.3323 140.156C48.7905 139.852 48.2525 139.541 47.7185 139.224C47.1843 138.906 46.6542 138.582 46.128 138.252C45.602 137.921 45.0802 137.585 44.5624 137.241C44.0446 136.898 43.5311 136.548 43.0219 136.192C42.5129 135.836 42.0082 135.473 41.5079 135.105C41.0078 134.736 40.5123 134.361 40.0213 133.98C39.5304 133.6 39.0443 133.213 38.563 132.82C38.0816 132.427 37.6051 132.028 37.1336 131.624C36.662 131.219 36.1955 130.809 35.7341 130.392C35.2729 129.976 34.8168 129.554 34.3658 129.127C33.9149 128.699 33.4693 128.266 33.029 127.828C32.5886 127.389 32.1538 126.945 31.7245 126.496C31.2953 126.046 30.8716 125.592 30.4536 125.132C30.0355 124.673 29.6232 124.208 29.2166 123.738C28.81 123.268 28.4092 122.793 28.0144 122.313C27.6196 121.833 27.2307 121.348 26.8478 120.859C26.4649 120.369 26.0882 119.875 25.7176 119.376C25.4182 118.972 25.1228 118.566 24.8312 118.157C24.5397 117.747 24.2521 117.335 23.9684 116.92C23.6849 116.506 23.4053 116.088 23.1297 115.668C22.8538 115.248 22.5822 114.825 22.3147 114.399C22.0471 113.974 21.7836 113.546 21.5241 113.115C21.2647 112.685 21.0095 112.252 20.7585 111.817C20.5073 111.382 20.2603 110.944 20.0177 110.504C19.7748 110.064 19.5363 109.621 19.302 109.177C19.0678 108.732 18.8378 108.285 18.6121 107.836C18.3862 107.387 18.1647 106.936 17.9476 106.483C17.7306 106.029 17.5179 105.574 17.3095 105.116C17.1012 104.659 16.8971 104.2 16.6975 103.739C16.4978 103.277 16.3026 102.814 16.1119 102.349C15.9212 101.884 15.7349 101.417 15.5531 100.949C15.3711 100.48 15.1938 100.01 15.0211 99.5378C14.8482 99.0658 14.6798 98.5923 14.516 98.1171C14.3523 97.6419 14.193 97.1651 14.0383 96.6867C13.8838 96.2085 13.7338 95.7289 13.5882 95.2478C13.4428 94.7665 13.3019 94.2841 13.1656 93.8003C13.0295 93.3164 12.8979 92.8313 12.7708 92.345C12.6438 91.8586 12.5215 91.371 12.4039 90.8823C12.2863 90.3935 12.1734 89.9038 12.0651 89.4131C11.9568 88.9222 11.8532 88.4303 11.7544 87.9374C11.6555 87.4446 11.5613 86.9508 11.4718 86.4562C11.3824 85.9616 11.2977 85.466 11.2178 84.9696C11.1379 84.4733 11.0627 83.9764 10.9922 83.4787C10.9219 82.981 10.8562 82.4827 10.7952 81.9838C10.7344 81.4847 10.6783 80.9851 10.6269 80.4851C10.5755 79.9851 10.5289 79.4846 10.4872 78.9835C10.4454 78.4826 10.4084 77.9814 10.3761 77.4798C10.344 76.9782 10.3166 76.4762 10.2939 75.9739C10.2715 75.4717 10.2537 74.9694 10.2407 74.4669C10.1194 70.5677 10.2032 66.5721 10.7607 62.7069Z" fill="#101055"/>
<path d="M36.9986 120.696C36.0785 120.033 35.1458 118.816 34.3952 117.951C33.8062 117.271 33.232 116.579 32.6727 115.876C32.1132 115.171 31.5689 114.456 31.0399 113.729C30.5109 113.001 29.9976 112.263 29.5 111.514C29.0023 110.765 28.5209 110.006 28.0556 109.236C27.5903 108.466 27.1415 107.687 26.7094 106.899C26.2773 106.11 25.8621 105.312 25.4639 104.506C25.0656 103.699 24.6847 102.885 24.3211 102.062C23.9575 101.239 23.6115 100.409 23.2832 99.5721C22.5956 97.8962 21.9729 96.1964 21.4152 94.4727C20.8576 92.7489 20.3667 91.0064 19.9424 89.2452C19.2594 86.4241 17.4888 74.3523 18.4726 72.0402C18.7009 72.0694 19.3197 73.4609 20.1854 73.9294C20.5194 74.1099 20.7956 74.2746 21.0876 74.5162C20.8997 75.1251 20.4753 76.2222 20.7375 76.8388C20.8593 77.1257 20.7905 76.8584 20.8569 77.1675C20.8965 77.3512 20.9484 77.5149 21.0113 77.6919L21.1682 77.6708C22.0529 79.0178 22.878 79.5723 24.3615 80.1525C24.3942 81.6458 24.7785 82.5975 25.8789 83.6676C28.1385 85.8645 31.6902 87.4958 34.7535 88.125C36.6727 93.1478 38.7013 98.3542 41.2322 103.094C41.2927 104.156 42.5426 105.334 43.3112 106.022C43.6202 106.303 43.9395 106.572 44.269 106.828C44.5986 107.085 44.9373 107.329 45.2852 107.56C45.6333 107.791 45.9896 108.009 46.3541 108.213C46.7186 108.417 47.0904 108.606 47.4693 108.782L48.2596 110.021C48.2663 114.409 46.9041 114.588 45.8175 118.233C45.1281 120.545 45.6267 123.102 43.7049 124.974C43.4123 125.259 43.0842 125.503 42.7063 125.66C41.6385 125.169 37.5085 120.635 37.1897 120.629C37.1223 120.628 37.0623 120.674 36.9986 120.696Z" fill="#FCEAAF"/>
<path d="M150.945 80.1402C151.091 79.1157 151.542 78.239 151.726 77.2506C152.088 75.2963 152.207 73.4371 152.782 71.5051C153.146 70.2807 153.756 69.1375 154.099 67.9214C154.484 66.5596 154.526 65.0427 155.024 63.727C155.255 63.1144 155.585 62.5514 156.107 62.1429C156.693 61.6838 157.442 61.435 158.187 61.525C158.794 61.5981 159.327 61.8834 159.698 62.3743C160.194 63.0317 160.28 63.8845 160.143 64.6752C159.956 65.7579 159.43 66.7605 159.185 67.8276C158.713 69.8816 159.763 71.6366 160.112 73.6058C161.81 73.8496 164.384 73.9281 165.475 75.4407C165.894 76.0217 166.081 76.9522 165.929 77.654C165.821 78.1492 165.445 78.5834 165.337 79.0466C165.237 79.4767 166.202 80.6419 166.136 81.5138C166.059 82.537 165.259 82.983 164.927 83.8602C164.275 85.5847 165.864 86.3505 163.154 87.9009C163.106 87.9282 163.058 87.9541 163.01 87.9815L162.856 88.0704C162.825 88.0881 162.793 88.105 162.762 88.1221C162.488 89.2677 162.217 90.3448 161.141 91.0115C160.761 91.2475 160.315 91.4079 159.9 91.574C159.48 92.673 159.114 93.2036 157.994 93.6916C156.685 94.2622 155.177 94.4189 153.807 94.8118C153.574 95.4799 153.33 96.1442 153.077 96.805C152.824 97.4657 152.561 98.1226 152.288 98.7756C152.015 99.4284 151.733 100.077 151.441 100.722C151.149 101.366 150.847 102.006 150.536 102.642C150.225 103.277 149.904 103.908 149.574 104.534C149.245 105.16 148.905 105.781 148.557 106.397C148.209 107.013 147.852 107.623 147.485 108.229C147.118 108.834 146.743 109.434 146.359 110.028C145.974 110.622 145.581 111.21 145.179 111.792C144.778 112.375 144.368 112.951 143.949 113.521C143.53 114.091 143.102 114.655 142.667 115.212C142.231 115.77 141.787 116.321 141.335 116.865C140.883 117.409 140.423 117.946 139.955 118.477C139.487 119.007 139.011 119.531 138.527 120.047C138.044 120.563 137.552 121.072 137.054 121.574C136.555 122.076 136.049 122.57 135.535 123.057C134.268 124.24 132.967 125.496 131.559 126.51C129.632 125.599 127.851 124.573 126.071 123.41C125.995 121.241 126.139 119.033 126.198 116.862C126.237 115.449 126.103 113.742 126.423 112.373C126.792 110.796 129.111 107.558 130.041 106.031C131.779 103.176 133.381 100.237 135.093 97.3659C136.033 95.7898 137.147 94.263 137.975 92.6293L138.025 92.5281C139.456 90.4407 140.616 88.1553 141.969 86.0135C143.204 84.0592 144.624 82.2852 146.109 80.5209C146.101 80.0052 146.079 79.4727 146.141 78.96C146.497 76.0091 148.933 71.3355 151.287 69.4846L151.237 69.6895C150.248 73.6262 145.143 77.8273 147.756 82.435C148.402 83.5739 149.372 84.6132 150.409 85.4025C150.37 84.0775 150.389 83.2664 151.018 82.0653C151.142 81.8232 151.268 81.5822 151.396 81.3424L150.945 80.1402Z" fill="#101055"/>
<path d="M157.369 62.6793C157.909 62.6686 158.437 62.6464 158.878 63.0075C159.17 63.2475 159.187 63.5759 159.146 63.931C158.921 65.884 158.076 67.6168 158.218 69.6329C158.296 70.7362 158.78 71.7755 158.847 72.8429C158.864 73.114 158.877 73.2246 158.699 73.4351C157.985 73.504 157.28 73.3478 156.576 73.2359L156.446 73.2163C155.509 73.0722 154.545 73.0157 153.945 72.2025C153.601 71.0113 155.405 68.0962 155.733 66.7095C155.966 65.7297 155.8 64.6151 156.145 63.6664C156.35 63.1009 156.863 62.9113 157.369 62.6793Z" fill="#FEFEFE"/>
<path d="M154.274 74.0403C156.332 74.2889 162.779 74.6223 164.174 75.6991C164.567 76.0029 164.88 76.4379 164.897 76.9513C164.931 77.9156 164.157 78.652 163.5 79.2402C163.773 79.4148 164.085 79.6061 164.308 79.8442C164.688 80.2495 164.952 80.914 164.905 81.4717C164.824 82.4577 164.185 83.013 163.487 83.6116C163.686 84.0635 163.839 84.4725 163.877 84.9691C164.019 86.8061 162.909 86.2974 161.901 87.1013C161.521 87.4045 161.693 88.7499 161.423 89.2832C160.988 90.1455 160.149 90.1696 159.505 90.7599C159.159 91.0773 158.912 91.5182 158.608 91.8772C157.638 93.0247 155.64 93.2639 154.216 93.3956C153.179 93.4918 151.576 93.559 150.764 92.8109C150.383 92.4595 150.093 91.8828 150.137 91.3554C150.163 91.0449 150.323 90.7615 150.591 90.596C151.193 90.2223 152.139 90.6729 152.756 90.8304C153.707 91.073 154.765 90.8593 155.613 90.3573C155.472 89.768 151.47 89.7263 150.635 88.5148C150.39 88.1588 150.338 87.776 150.428 87.3598C150.535 86.8594 150.894 86.6256 151.286 86.3593C153.775 86.6116 156.577 87.3541 159.065 87.0608L158.98 86.722L159.132 87.0439L159.107 86.7632C157.419 86.0341 152.648 85.8571 151.783 85.1644C151.384 84.8443 151.289 84.2499 151.289 83.7681C151.289 83.4083 151.406 83.04 151.685 82.7987C153.057 81.6129 157.734 83.4129 159.597 83.4295C159.962 83.4327 160.086 83.3577 160.323 83.096L160.297 82.8423C158.864 81.8408 155.042 81.8282 153.201 81.3922C152.78 81.2923 152.49 81.1476 152.279 80.7493C152.031 80.284 152.145 79.5407 152.344 79.079C152.48 78.7653 152.685 78.4406 153.03 78.3295C154.589 77.8286 159.614 79.7663 161.275 79.0455C160.675 77.4903 154.542 78.2205 153.215 76.698C152.984 76.4325 152.857 76.1697 152.915 75.8106C153.038 75.0576 153.727 74.4967 154.274 74.0403Z" fill="#FEFEFE"/>
<path d="M106.953 69.709C116.253 70.4392 125.255 71.6933 131.668 79.2782C134.009 82.0478 135.584 85.4367 136.769 88.8409C137.187 90.0399 137.492 91.3837 138.026 92.528L137.975 92.6292C137.147 94.2629 136.033 95.7897 135.093 97.3658C133.381 100.237 131.779 103.176 130.041 106.031C129.111 107.558 126.792 110.796 126.423 112.373C126.103 113.742 126.237 115.449 126.198 116.862C126.139 119.033 125.995 121.241 126.071 123.41C127.851 124.573 129.632 125.599 131.559 126.509C129.747 127.892 127.941 129.393 125.992 130.575C124.199 131.465 122.541 132.746 120.76 133.691C115.159 136.661 108.848 139.11 102.649 140.469L102.638 79.9888C103.076 79.7199 103.461 79.3422 103.827 78.9833C106.338 76.5233 106.9 73.0593 106.953 69.709Z" fill="#8D79C6"/>
<path d="M126.072 123.41C127.851 124.573 129.633 125.599 131.559 126.509C129.748 127.892 127.941 129.393 125.993 130.575C126.177 128.215 126.072 125.777 126.072 123.41Z" fill="#F2D261"/>
<path d="M31.3362 23.7733C35.2765 24.3422 39.2334 24.7914 43.1713 25.3647C46.6676 25.8736 50.2126 26.5478 53.7343 26.8253L48.9173 59.1018L47.4686 68.4339C47.2756 69.6891 46.935 71.0528 46.8622 72.3085C46.7567 72.7277 46.651 73.1445 46.5718 73.5696C45.232 76.0909 47.4386 76.6515 44.1634 79.2179C45.1713 79.9473 46.09 80.8223 46.3178 82.1107C46.4843 83.0522 46.1615 83.9164 45.5933 84.6621C43.9255 86.8515 40.297 87.8062 37.6889 88.1105C36.6987 88.2259 35.7459 88.2042 34.7536 88.1249C31.6903 87.4957 28.1386 85.8645 25.879 83.6675C24.7785 82.5974 24.3942 81.6457 24.3616 80.1524C22.8781 79.5723 22.053 79.0178 21.1682 77.6707C20.8714 76.4399 20.9587 75.5394 21.4557 74.3825C20.9726 74.165 20.4764 73.921 20.0699 73.5768C19.2544 72.8863 18.6913 71.8681 18.6295 70.7935C18.5613 69.6053 19.0529 68.652 19.8173 67.7839C19.5205 67.4879 19.21 67.1865 18.9678 66.8426C18.2091 65.7647 18.2415 64.7911 18.4379 63.5573C17.9265 62.7814 17.2625 62.1406 16.7631 61.3572C15.5149 60.2129 13.3944 57.1797 12.189 55.7115C8.91649 51.7255 5.4689 47.8689 2.33203 43.7715C4.39259 42.261 6.43361 40.7246 8.4551 39.1622C9.74667 38.1757 11.0848 36.9961 12.53 36.2496C12.8913 36.0631 13.2743 35.9873 13.6725 35.926L13.8574 35.8073C13.874 35.0868 13.1841 34.1485 12.9411 33.4363C17.1172 31.5923 21.4733 30.0744 25.745 28.4608C27.5362 27.7839 29.393 27.1561 31.1291 26.3477C31.1963 25.4903 31.2495 24.6289 31.3362 23.7733Z" fill="#101055"/>
<path d="M13.9759 36.1155C14.7673 37.5024 15.2054 39.423 15.7305 40.9417L19.833 52.9289C18.6798 54.1399 17.7765 55.672 17.8448 57.404C17.8777 58.245 18.2125 59.0363 18.8524 59.5937C19.9753 60.5719 21.2883 60.3973 22.6524 60.3678C21.3659 61.0696 20.0214 61.6669 18.8585 62.5672C18.4758 62.103 17.8338 61.0779 17.3504 60.7921C14.1638 56.1793 10.1628 52.1052 6.75344 47.6556C7.62618 46.8758 8.37902 46.1047 9.03042 45.1283C8.33647 43.9115 7.46212 43.0257 6.46387 42.0525C8.83559 39.9777 11.4246 37.9658 13.9759 36.1155Z" fill="#8FE2E4"/>
<path d="M30.5623 27.5852L30.7071 27.624C30.9512 28.2128 28.9766 43.8624 28.6672 45.7609C28.197 45.9032 27.7115 46.0403 27.2662 46.2492C27.1748 46.2928 27.0847 46.3385 26.9956 46.3864C26.9064 46.4342 26.8185 46.4842 26.7317 46.5364C26.6449 46.5885 26.5594 46.6426 26.4754 46.6987C26.3911 46.7549 26.3084 46.8131 26.227 46.8731C26.1455 46.9332 26.0655 46.9953 25.9872 47.0592C25.9087 47.1232 25.8318 47.189 25.7565 47.2566C25.6812 47.3241 25.6075 47.3935 25.5354 47.4648C25.4635 47.5358 25.3933 47.6086 25.3248 47.6831C25.2563 47.7575 25.1896 47.8336 25.1246 47.9113C25.0597 47.989 24.9967 48.0682 24.9357 48.1489C24.8745 48.2296 24.8153 48.3117 24.7583 48.3953C24.701 48.4787 24.6458 48.5635 24.5926 48.6498C24.5394 48.7358 24.4884 48.8232 24.4395 48.9117C24.3904 49.0003 24.3436 49.09 24.299 49.1809C24.2542 49.2718 24.2117 49.3637 24.1713 49.4565C24.131 49.5494 24.0929 49.6432 24.0571 49.7378C23.5264 51.1778 23.5641 52.8771 24.2259 54.2689C24.8222 55.5227 25.7035 56.1755 26.9697 56.6531L26.5977 58.6617L23.3626 60.1355C22.9239 58.8873 22.5594 57.6013 22.1628 56.3381C19.9428 50.139 17.3201 43.9194 15.6899 37.5361C16.0122 37.4807 16.3371 37.4268 16.6555 37.3516C17.2869 37.2026 18.1195 36.9945 18.4347 36.3527C18.8592 35.4886 17.8385 33.5742 17.5227 32.7128C21.6471 30.6203 26.3076 29.4479 30.5623 27.5852Z" fill="#8FE2E4"/>
<path d="M35.7826 25.3984C40.1605 25.8021 44.5249 26.6102 48.8961 27.1151L48.7444 28.0066C48.6183 28.7721 48.3298 29.9501 48.9039 30.6042C49.5585 31.3505 51.2146 31.3848 52.1628 31.5163C50.6955 41.93 49.1415 52.3308 47.501 62.7187C46.9339 66.1888 46.7757 70.0663 45.528 73.3524L44.1048 72.4034C44.8236 71.7755 45.3993 71.1016 45.6468 70.1533C46.3215 67.5707 43.3212 67.0098 42.6408 65.9089C42.8148 65.7069 42.9858 65.513 43.1111 65.2759C43.5055 64.5302 43.4675 63.6969 43.1946 62.9164C42.6796 61.4453 41.657 60.6466 40.3028 60.0254C40.8972 58.8259 40.745 58.261 40.669 57.0093L40.9711 56.8915C41.842 56.6724 42.6706 56.4348 43.4311 55.9328C44.7393 55.069 46.0667 53.0812 46.3783 51.5346C46.7653 49.6122 46.2404 47.6448 45.1204 46.0639C45.0457 45.9589 44.9684 45.8558 44.8886 45.7548C44.8087 45.6537 44.7264 45.5547 44.6416 45.4577C44.5569 45.3608 44.4697 45.2659 44.3802 45.1733C44.2906 45.0808 44.1987 44.9905 44.1045 44.9024C44.0105 44.8146 43.9142 44.7291 43.8157 44.6458C43.7174 44.5628 43.6171 44.4823 43.5146 44.4042C43.4121 44.326 43.3077 44.2506 43.2015 44.1779C43.0954 44.105 42.9874 44.0349 42.8777 43.9674C42.768 43.9 42.6565 43.8355 42.5434 43.7737C42.4305 43.7119 42.316 43.653 42.2001 43.5969C42.0841 43.5408 41.9669 43.4877 41.8484 43.4375C41.7297 43.3874 41.6099 43.3402 41.489 43.2961C41.368 43.252 41.246 43.2109 41.1229 43.1729C40.9997 43.135 40.8758 43.1002 40.7511 43.0684C40.6264 43.0366 40.5009 43.008 40.3746 42.9824C40.2484 42.9571 40.1217 42.9349 39.9943 42.9158C39.8778 42.8993 39.761 42.8857 39.6439 42.8748C39.5269 42.8641 39.4096 42.8563 39.292 42.8515C39.1746 42.8465 39.0571 42.8445 38.9395 42.8456C38.822 42.8465 38.7045 42.8502 38.5871 42.8568C38.4697 42.8636 38.3525 42.8733 38.2357 42.8858C38.1188 42.8983 38.0023 42.9137 37.8862 42.9321C37.77 42.9503 37.6543 42.9715 37.539 42.9956C37.424 43.0197 37.3096 43.0466 37.1959 43.0762C37.0821 43.1058 36.9691 43.1383 36.8569 43.1737C36.7448 43.2091 36.6336 43.2471 36.5231 43.2878C36.4129 43.3287 36.3037 43.3723 36.1955 43.4185C36.0874 43.4648 35.9806 43.5136 35.8749 43.565C35.7691 43.6166 35.6648 43.6708 35.5618 43.7274C35.4587 43.784 35.3571 43.8432 35.257 43.9049C35.1569 43.9667 35.0584 44.0309 34.9615 44.0975C34.8645 44.1642 34.7692 44.2331 34.6757 44.3043C34.5838 44.3727 34.4936 44.4433 34.4051 44.5162C34.3168 44.5892 34.2304 44.6644 34.1458 44.7417C34.0612 44.8192 33.9787 44.8988 33.8982 44.9804C33.8178 45.0618 33.7394 45.1454 33.6632 45.2311C33.5869 45.3166 33.5128 45.4041 33.4411 45.4933C33.3694 45.5828 33.2999 45.674 33.2326 45.7668C33.1655 45.8597 33.1009 45.9542 33.0386 46.0505C32.9762 46.1467 32.9163 46.2445 32.859 46.3438C32.8018 46.4431 32.747 46.5437 32.6947 46.6457C32.6424 46.7478 32.5928 46.8511 32.5459 46.9556C32.499 47.0602 32.4547 47.1659 32.4132 47.2727C32.3716 47.3797 32.3328 47.4875 32.2967 47.5963C32.2607 47.705 32.2274 47.8147 32.1969 47.9252C32.1664 48.0358 32.1388 48.147 32.1139 48.259C32.0891 48.3709 32.0672 48.4834 32.0481 48.5965C32.029 48.7095 32.0128 48.823 31.9994 48.9369C31.7195 51.3782 32.8034 53.3276 34.2229 55.1847C32.1546 56.2553 29.9769 57.1668 27.8779 58.1858C28.65 55.4989 28.8494 52.418 29.1995 49.6368C29.7265 45.4534 30.2312 41.2674 30.7135 37.0786C31.0129 34.4089 31.2284 31.7097 31.6437 29.0558C32.5432 29.2529 33.5447 29.5532 34.4629 29.5767C34.9195 29.5885 35.1272 29.4902 35.459 29.1881C35.9022 28.152 35.7529 26.5433 35.7826 25.3984Z" fill="#8FE2E4"/>
<path d="M36.8188 55.5812C37.6236 55.5919 38.4337 55.9131 39.0021 56.4916C39.5141 57.0123 39.8762 57.7701 39.8178 58.5126C39.7678 59.1488 39.4408 59.6438 38.9403 60.0206C37.482 61.1194 35.1994 61.7317 33.4954 62.407L27.2134 64.9412C26.5668 65.2007 25.6758 65.3213 25.1395 65.7638C25.1218 66.1297 25.2468 66.2708 25.4406 66.5639C25.5254 66.6083 25.5993 66.6991 25.6951 66.6972C26.3521 66.6831 27.5134 65.9933 28.145 65.7373L35.2294 62.9231C36.5763 62.3861 37.9993 61.6961 39.4014 61.3433C39.9297 61.2105 40.2672 61.2651 40.7256 61.5723C41.4731 62.0738 42.1727 62.9148 42.3129 63.8253C42.4251 64.5549 42.1219 65.1568 41.5647 65.617C40.4441 66.5424 38.6116 66.9311 37.2628 67.4539C35.7681 68.0333 27.3145 71.2045 26.7343 72.1773C26.6211 72.367 26.6832 72.4208 26.73 72.6169C28.7126 73.0216 40.3453 66.4779 42.5891 67.087C43.3543 67.2948 43.9979 67.9811 44.3539 68.6706C44.6143 69.1747 44.6873 69.7147 44.4941 70.2547C44.2548 70.9222 43.7019 71.4276 43.1123 71.7919C41.6599 72.6892 38.8268 73.451 37.1509 74.0628C34.3398 75.0892 31.5254 76.204 28.7865 77.4099C28.9369 77.7514 29.125 78.0871 29.2931 78.4208C31.7706 77.3996 34.2611 76.4108 36.7645 75.4546C38.746 74.6582 40.7369 73.7561 42.7899 73.1665C43.2098 73.2922 43.6203 73.4266 44.0044 73.642C44.7307 74.0497 45.1835 74.7356 45.3636 75.5446C45.5518 76.3913 45.0395 77.1603 44.4047 77.6684C42.6312 79.0875 36.5041 80.868 34.2046 81.7875C33.7922 81.9525 33.1381 82.0589 32.8817 82.4392C32.9454 82.7754 33.0477 82.9133 33.2703 83.1697C34.6954 83.3655 40.2054 80.1632 42.3686 79.9503C43.0677 79.8817 43.7785 80.0205 44.3148 80.4981C44.849 80.9738 45.1653 81.7701 45.2052 82.4754C45.2464 83.1983 44.9322 83.8661 44.4438 84.3833C42.7706 86.1549 38.7056 87.1599 36.3379 87.2049C33.2751 87.2631 30.3976 85.4167 27.9293 83.8112C27.1922 83.332 26.2633 82.8482 25.8428 82.0393C25.3959 81.1803 25.7845 79.1065 25.2468 78.5815C25.0204 78.6806 24.691 78.859 24.4429 78.8582C23.7952 78.8558 22.8368 78.1838 22.4442 77.6923C20.8285 75.6689 23.5257 74.6807 23.6448 73.4213C22.8689 72.7873 21.3421 73.3934 20.297 72.3415C19.8239 71.8658 19.5372 71.0234 19.5621 70.3572C19.6159 68.9103 21.2656 68.7919 22.0984 67.9854C22.2986 66.9346 19.9555 66.8641 19.4711 65.7378C19.2032 65.1142 19.309 64.1146 19.6229 63.5264C19.9154 62.9781 20.5663 62.6108 21.0951 62.3229C23.3579 61.091 25.9349 60.1551 28.3077 59.1268C31.0918 57.9198 33.9281 56.4959 36.8188 55.5812Z" fill="#FEFEFE"/>
<path d="M54.0724 85.8353C55.3297 84.7502 56.6829 83.7586 57.9736 82.7113L64.5402 77.3402C66.2091 75.9955 68.5348 73.7351 70.3817 72.8383C72.6512 71.7364 84.6506 69.6527 87.3833 69.4598C87.3266 73.8594 87.7743 76.5602 90.8809 79.8838C90.8809 80.6011 90.8641 81.3238 90.8887 82.0403L90.8435 141.959C82.4226 142.047 75.3751 141.439 67.2531 139.118C60.1709 137.007 51.7419 133.393 45.9844 128.715C42.9736 126.776 39.363 123.389 36.9986 120.696C37.0622 120.674 37.1222 120.628 37.1896 120.629C37.5084 120.635 41.6384 125.168 42.7063 125.66C43.0842 125.503 43.4123 125.259 43.7048 124.974C45.6266 123.102 45.128 120.545 45.8174 118.233C46.904 114.588 48.2662 114.409 48.2595 110.021L47.4692 108.782C47.0903 108.606 46.7185 108.417 46.354 108.213C45.9895 108.009 45.6332 107.791 45.2851 107.56C44.9372 107.329 44.5985 107.085 44.2689 106.828C43.9394 106.572 43.6201 106.303 43.3111 106.022C42.5425 105.334 41.2926 104.156 41.2322 103.094C38.7012 98.3541 36.6726 93.1478 34.7534 88.1249C35.7458 88.2042 36.6985 88.2259 37.6888 88.1105C40.2968 87.8062 43.9253 86.8515 45.5932 84.6621C46.1613 83.9164 46.4841 83.0522 46.3176 82.1107C46.0899 80.8223 45.1711 79.9472 44.1632 79.2179C47.4385 76.6515 45.2319 76.0909 46.5716 73.5696C48.6754 76.2489 50.5686 79.0258 52.1894 82.0277C52.8577 83.2657 53.3632 84.6372 54.0724 85.8353Z" fill="#101055"/>
<path d="M46.5716 73.5696C48.6754 76.249 50.5686 79.0258 52.1894 82.0277C52.8577 83.2657 53.3632 84.6372 54.0724 85.8353C54.0877 85.8948 54.1019 85.9545 54.1179 86.014C54.4418 87.2105 55.2877 88.444 55.7933 89.5883C57.6969 93.8967 61.4972 103.1 58.9917 107.48C58.4053 108.504 57.6094 109.143 56.5964 109.715C54.8724 110.286 52.4426 110.019 50.6829 109.749C46.7188 108.616 43.5707 106.525 41.2322 103.094C38.7012 98.3541 36.6726 93.1478 34.7534 88.1249C35.7458 88.2042 36.6985 88.2259 37.6888 88.1105C40.2968 87.8062 43.9253 86.8516 45.5932 84.6621C46.1613 83.9164 46.4841 83.0523 46.3176 82.1107C46.0899 80.8224 45.1711 79.9473 44.1632 79.2179C47.4385 76.6516 45.2319 76.0909 46.5716 73.5696Z" fill="#8D79C6"/>
<path d="M47.4692 108.782C47.0903 108.606 46.7185 108.417 46.354 108.213C45.9895 108.009 45.6332 107.791 45.2851 107.56C44.9372 107.329 44.5985 107.085 44.2689 106.828C43.9394 106.572 43.6201 106.303 43.3111 106.022C42.5425 105.334 41.2926 104.156 41.2321 103.094C43.5707 106.525 46.7188 108.616 50.6829 109.749C52.4426 110.019 54.8724 110.286 56.5964 109.715C60.1109 108.876 63.9942 107.009 67.1814 105.28L67.2263 124.527C67.2568 129.385 67.3735 134.262 67.2531 139.118C60.1709 137.007 51.7419 133.393 45.9844 128.715C42.9736 126.776 39.363 123.389 36.9985 120.696C37.0622 120.674 37.1222 120.628 37.1896 120.629C37.5084 120.635 41.6384 125.169 42.7062 125.66C43.0841 125.503 43.4122 125.259 43.7048 124.974C45.6266 123.102 45.128 120.545 45.8174 118.233C46.904 114.588 48.2662 114.409 48.2595 110.021L47.4692 108.782Z" fill="#F2D261"/>
<path d="M46.8617 72.3086C46.958 72.4929 47 72.6067 46.9703 72.8175C46.9211 73.1652 46.8215 73.3816 47.0212 73.7074C47.6322 74.7046 48.4714 75.622 49.1437 76.5882C50.067 77.9159 51.0889 79.3474 51.8374 80.7801C51.9908 81.0734 52.0189 81.3855 52.1628 81.6737C52.3641 82.0763 52.7187 82.4119 52.9406 82.8059C53.2264 83.3141 53.4183 83.9628 53.6594 84.5063C53.8155 84.5821 53.9709 84.637 54.1339 84.6949C54.2562 84.5098 54.1875 84.592 54.3785 84.4149C57.2376 81.7626 54.9299 80.403 55.3077 76.9715C55.9624 71.0274 57.9982 65.3601 59.4779 59.6041C60.0592 57.3445 60.952 55.1676 61.0923 52.8043C61.1586 51.6852 61.8414 50.7153 61.9417 49.6072C62.0742 48.1474 62.0014 46.6816 62.1729 45.2175C62.6191 41.4132 63.4835 37.6784 64.1344 33.9065C64.4534 32.0572 64.5382 30.1795 65.062 28.3704C65.5287 26.7576 66.28 25.1912 66.9391 23.6457C67.6497 21.9804 67.2322 19.7733 67.8239 18.0116C68.2698 16.6846 70.3854 12.9844 70.4681 12.1688C70.4919 11.9349 70.4049 11.6355 70.3576 11.4078C70.2874 11.073 70.2323 10.8528 70.3038 10.5102C70.566 10.0921 70.8676 9.99004 71.2865 9.75888C71.5932 9.5896 71.5643 9.58343 71.6622 9.2478C70.6953 9.17736 65.2788 10.1173 64.6314 10.7299C64.6046 10.755 64.5859 10.7875 64.5631 10.8164C62.4788 10.6589 53.8329 15.112 51.5658 16.3353C50.5132 16.9032 49.3916 17.7742 48.2667 18.1519C49.4697 16.9029 52.5908 15.6244 54.1939 14.7081C59.7338 11.5417 66.1309 9.78807 72.3803 8.79727C75.3031 8.33387 78.2175 7.882 81.174 7.69852C89.1164 7.2054 97.1774 8.40138 104.819 10.5134C105.734 10.8063 106.643 11.1166 107.547 11.4442C108.45 11.7719 109.347 12.1167 110.237 12.4787C111.127 12.8407 112.009 13.2196 112.885 13.6155C113.76 14.0114 114.628 14.4239 115.488 14.853C116.347 15.2823 117.199 15.7277 118.041 16.1893C118.884 16.6511 119.718 17.1289 120.542 17.6226C121.366 18.1164 122.181 18.6258 122.986 19.1508C123.791 19.6758 124.585 20.2159 125.37 20.7713C127.032 21.9678 128.562 23.4081 130.07 24.7889C136.034 30.2489 141.155 36.3584 144.817 43.6018C148.505 50.8972 152.088 61.2638 151.287 69.4846C148.933 71.3355 146.497 76.0091 146.141 78.96C146.079 79.4727 146.1 80.0052 146.109 80.5209C144.624 82.2852 143.204 84.0592 141.969 86.0135C140.616 88.1553 139.456 90.4407 138.025 92.5281C137.491 91.3838 137.186 90.0399 136.769 88.841C135.584 85.4368 134.009 82.0479 131.667 79.2783C125.255 71.6933 116.253 70.4392 106.952 69.7091C106.938 68.5784 106.881 67.5166 106.68 66.4013C106.593 65.325 106.494 64.2499 106.384 63.176C103.807 65.6293 101.076 67.0972 97.4498 67.1575C93.7311 67.2193 91.1284 65.7633 88.5086 63.2333C88.1993 64.2413 87.8505 65.2562 87.6822 66.2998C87.5465 67.3543 87.4424 68.3982 87.383 69.46C84.6502 69.6528 72.6509 71.7365 70.3814 72.8384C68.5345 73.7352 66.2088 75.9957 64.5399 77.3403L57.9733 82.7114C56.6826 83.7587 55.3294 84.7503 54.0721 85.8354C53.3629 84.6373 52.8573 83.2658 52.1891 82.0278C50.5683 79.0259 48.6751 76.249 46.5713 73.5697C46.6505 73.1446 46.7562 72.7278 46.8617 72.3086Z" fill="url(#paint0_linear_47_100)"/>
<path d="M98.4931 16.6537C94.6109 15.5659 89.6576 15.2148 85.636 15.2298C84.0548 15.2357 76.9209 16.0194 76.0723 15.7307C76.098 15.4312 76.1076 15.3996 76.3589 15.2207C77.2177 14.6089 79.23 14.6167 80.2853 14.539C88.5424 13.9323 93.8179 14.6528 101.875 16.4118C103.6 16.9143 105.376 17.3416 107.061 17.9633C117.538 21.826 125.592 27.6924 132.47 36.4545C134.567 39.1258 136.569 41.9989 138.21 44.9732C141.577 51.0774 143.491 57.5911 144.233 64.5069C144.35 65.6 144.671 67.2865 144.318 68.3266C144.235 68.57 144.281 68.4833 144.059 68.6488C143.751 68.4565 143.685 68.2674 143.6 67.9138C143.317 66.7269 143.356 65.3742 143.24 64.1547C143.028 61.9325 142.688 59.7712 142.151 57.6037C138.903 44.491 130.124 32.7176 119.019 25.1676C113.826 21.6364 108.122 19.1994 102.095 17.5175C100.976 17.2055 99.6549 16.7188 98.4931 16.6537Z" fill="#FEFEFE"/>
<path d="M100.324 27.3354C103.588 27.0716 106.133 27.4688 108.687 29.6733C111.176 31.8223 112.804 34.8697 113.025 38.1665C113.143 39.9242 112.853 41.7649 112.255 43.4187C111.531 45.0212 110.762 46.507 109.637 47.8659C109.467 45.7104 108.992 43.5188 108.392 41.4413C108.167 40.6621 107.823 39.7568 107.048 39.3708C105.538 38.6192 102.655 40.4845 101.175 40.9951C99.9165 41.4293 98.6038 41.7303 97.2704 41.7877C96.433 41.8238 95.4393 41.808 94.6281 41.586C93.7592 41.3478 89.2962 39.3352 88.8203 39.5789C87.1934 40.4117 86.3769 45.1911 85.8293 46.8571C85.7314 47.155 85.6728 47.4526 85.3803 47.594C85.3273 47.5707 85.2721 47.5528 85.2218 47.5246C83.9774 46.8279 82.9914 43.6482 82.5153 42.3834C82.234 41.2862 82.1577 40.053 82.2477 38.924C82.4211 36.7466 83.3396 34.6244 85.0452 33.2125C86.9081 31.6707 89.2531 31.2885 91.5906 31.507C95.1176 28.6873 96.1924 28.5587 100.324 27.3354Z" fill="#101055"/>
<path d="M82.5153 42.3833C82.9915 43.6481 83.9774 46.8279 85.2219 47.5246C85.2722 47.5527 85.3273 47.5706 85.3803 47.5939C85.6728 47.4525 85.7314 47.1549 85.8294 46.8571C86.3769 45.191 87.1935 40.4116 88.8204 39.5789C89.2962 39.3351 93.7592 41.3478 94.6282 41.5859C95.4394 41.808 96.4331 41.8238 97.2705 41.7876C98.6038 41.7303 99.9165 41.4292 101.175 40.995C102.655 40.4845 105.538 38.6191 107.048 39.3707C107.823 39.7567 108.167 40.6621 108.392 41.4413C108.992 43.5188 109.467 45.7104 109.637 47.8658C110.762 46.507 111.531 45.0212 112.255 43.4186C113.007 44.0065 113.527 44.5789 113.635 45.5655C113.771 46.7944 113.128 48.1064 112.364 49.0305C111.976 49.5 111.455 49.909 110.997 50.3116C110.983 50.3529 110.969 50.3941 110.955 50.4356C110.515 51.7875 110.33 53.2548 110.025 54.6447C109.396 57.5087 108.161 60.8122 106.384 63.176C103.807 65.6293 101.076 67.0972 97.4501 67.1574C93.7314 67.2193 91.1287 65.7632 88.5089 63.2333C86.4053 60.371 85.4432 57.3614 84.4985 53.9837C84.192 52.8889 83.9402 51.7329 83.5085 50.6829C82.6398 48.5697 80.5815 47.7903 80.8379 45.0964C80.9511 43.9058 81.6595 43.1328 82.5153 42.3833Z" fill="#FEFEFE"/>
<path d="M91.6435 45.5234C91.8503 45.5065 92.061 45.4888 92.2686 45.4987C92.6947 45.5188 93.1015 45.7071 93.3702 46.0419C93.6052 46.3344 93.6935 46.6947 93.6359 47.0643C93.5324 47.73 93.1216 48.0463 92.5925 48.4023C92.4081 48.4138 92.4019 48.4186 92.194 48.4079C91.7195 48.3835 91.1973 48.1655 90.9083 47.7752C90.7266 47.5296 90.6599 47.2226 90.6862 46.9218C90.7458 46.2404 91.1478 45.9284 91.6435 45.5234Z" fill="#101055"/>
<path d="M101.819 45.5429C102.058 45.5186 102.333 45.4744 102.572 45.4977C102.989 45.5387 103.405 45.791 103.67 46.1137C103.933 46.4336 104.033 46.8078 103.972 47.2138C103.882 47.8138 103.526 48.0911 103.054 48.4213C102.782 48.4545 102.489 48.5001 102.216 48.4647C101.795 48.4103 101.399 48.1478 101.15 47.8101C100.915 47.4919 100.834 47.1174 100.899 46.7285C101.003 46.114 101.332 45.8679 101.819 45.5429Z" fill="#101055"/>
<path d="M91.23 56.9509C91.2715 56.9924 91.3081 57.0399 91.3547 57.0755C92.3072 57.807 102.196 57.4569 103.864 57.2721C103.533 58.8779 103.199 60.2493 102.2 61.5886C101.221 62.6132 100.125 63.3077 98.7118 63.5643C97.0522 63.8657 95.3076 63.5308 93.9424 62.5191C92.0907 61.1466 91.5094 59.1136 91.23 56.9509Z" fill="#8FE2E4"/>
</g>
<defs>
<linearGradient id="paint0_linear_47_100" x1="148.567" y1="75.8046" x2="42.1792" y2="32.9646" gradientUnits="userSpaceOnUse">
<stop stop-color="#F9BD15"/>
<stop offset="1" stop-color="#FDF4D0"/>
</linearGradient>
<clipPath id="clip0_47_100">
<rect width="167" height="150" fill="white"/>
</clipPath>
</defs>
</svg>
