<svg width="150" height="150" viewBox="0 0 150 150" fill="none" xmlns="http://www.w3.org/2000/svg">
<g clip-path="url(#clip0_47_2411)">
<path d="M123.391 114.562C123.607 114.574 123.835 114.591 124.039 114.669C124.31 114.773 124.545 114.965 124.646 115.243C124.776 115.602 124.67 115.995 124.499 116.321C124.077 117.127 122.486 119.117 121.649 119.389C121.454 119.39 121.262 119.392 121.074 119.332C120.811 119.249 120.561 119.093 120.44 118.835C120.316 118.57 120.359 118.233 120.461 117.969C120.708 117.331 122.812 114.82 123.391 114.562Z" fill="#101055"/>
<path d="M117.842 120.479L117.906 120.481C117.993 120.483 118.081 120.485 118.167 120.498C118.486 120.544 118.968 120.733 119.137 121.028C119.281 121.279 119.223 121.62 119.133 121.879C118.825 122.774 116.633 124.594 115.779 125.034C115.645 125.021 115.517 125.002 115.386 124.97C115.034 124.885 114.665 124.67 114.484 124.346C114.364 124.13 114.349 123.893 114.413 123.657C114.464 123.469 114.554 123.323 114.688 123.181C115.022 122.829 117.484 120.683 117.842 120.479Z" fill="#101055"/>
<path d="M137.12 85.77C137.344 85.7708 137.589 85.7583 137.806 85.8239C138.052 85.8986 138.231 86.0597 138.352 86.2844C138.783 87.0841 138.163 89.3083 137.89 90.1646C137.723 90.6883 137.561 90.9813 137.066 91.2384C136.873 91.2526 136.691 91.2555 136.499 91.2226C136.215 91.1735 135.954 91.0311 135.797 90.7835C135.315 90.0248 136.201 87.1647 136.43 86.2305C136.644 86.0574 136.888 85.9172 137.12 85.77Z" fill="#101055"/>
<path d="M127.984 108.036C128.168 108.03 128.356 108.022 128.54 108.034C128.829 108.052 129.131 108.169 129.322 108.394C129.508 108.614 129.56 108.909 129.525 109.188C129.416 110.068 127.679 112.593 126.991 113.121C126.907 113.137 126.83 113.151 126.745 113.151C126.388 113.149 125.943 113.089 125.704 112.793C125.534 112.581 125.503 112.244 125.534 111.982C125.631 111.171 127.338 108.518 127.984 108.036Z" fill="#101055"/>
<path d="M132.062 101.002C132.288 101.001 132.554 101.032 132.763 101.122C133.026 101.234 133.212 101.453 133.305 101.721C133.63 102.664 132.593 104.297 132.154 105.132C131.868 105.674 131.629 106.157 131.011 106.351C130.821 106.349 130.644 106.333 130.46 106.281C130.177 106.201 129.932 106.019 129.801 105.752C129.616 105.379 129.669 104.957 129.804 104.577C130.05 103.88 131.106 101.804 131.576 101.294C131.704 101.156 131.894 101.078 132.062 101.002Z" fill="#101055"/>
<path d="M135.066 93.3959C135.277 93.3836 135.487 93.3695 135.691 93.4392C135.971 93.5347 136.179 93.7282 136.302 93.9948C136.726 94.9111 135.964 96.4983 135.642 97.3885C135.381 98.1131 135.199 98.7242 134.46 99.073C134.212 99.0875 133.977 99.0824 133.739 99.0023C133.493 98.9192 133.293 98.7827 133.185 98.5391C132.823 97.726 133.593 96.4104 133.865 95.6258C134.028 95.156 134.136 94.6669 134.302 94.1988C134.469 93.7272 134.624 93.6075 135.066 93.3959Z" fill="#101055"/>
<path d="M111.714 125.609C111.909 125.611 112.083 125.631 112.27 125.689C112.561 125.779 112.803 125.946 112.946 126.219C113.08 126.475 113.165 126.781 113.062 127.064C112.84 127.675 109.633 129.714 108.955 130.022C108.795 130.043 108.632 130.068 108.473 130.023C108.167 129.936 107.905 129.647 107.766 129.372C107.641 129.124 107.582 128.812 107.682 128.545C107.88 128.013 111.073 125.942 111.714 125.609Z" fill="#101055"/>
<path d="M104.492 130.159C104.737 130.139 105.009 130.105 105.248 130.184C105.542 130.28 105.857 130.558 105.992 130.835C106.005 130.86 106.016 130.886 106.026 130.913C106.036 130.939 106.044 130.966 106.051 130.993C106.058 131.021 106.064 131.048 106.068 131.077C106.073 131.104 106.076 131.133 106.077 131.161C106.079 131.189 106.079 131.217 106.077 131.246C106.076 131.274 106.073 131.302 106.069 131.33C106.065 131.358 106.059 131.386 106.052 131.413C106.045 131.441 106.037 131.468 106.027 131.494C105.96 131.683 105.847 131.869 105.696 132.002C105.156 132.48 102.513 133.743 101.765 134.063C101.593 134.095 101.417 134.114 101.248 134.064C100.94 133.974 100.616 133.758 100.466 133.468C100.45 133.436 100.436 133.404 100.423 133.371C100.41 133.338 100.398 133.304 100.389 133.27C100.379 133.235 100.371 133.201 100.365 133.166C100.359 133.131 100.354 133.096 100.351 133.06C100.349 133.025 100.348 132.989 100.348 132.954C100.349 132.918 100.351 132.883 100.356 132.847C100.36 132.812 100.366 132.777 100.373 132.742C100.381 132.708 100.39 132.673 100.401 132.64C100.683 131.767 101.944 131.465 102.675 131.099C103.284 130.794 103.887 130.473 104.492 130.159Z" fill="#101055"/>
<path d="M96.819 133.751C97.0299 133.729 97.2486 133.725 97.4509 133.799C97.766 133.914 98.015 134.162 98.1498 134.468C98.2728 134.748 98.2804 135.084 98.146 135.361C98.0502 135.558 97.8688 135.742 97.6746 135.843C96.9068 136.244 94.5057 136.988 93.59 137.276C93.4235 137.302 93.2439 137.33 93.0779 137.289C92.7649 137.212 92.4767 136.987 92.328 136.702C92.1899 136.437 92.1288 135.981 92.2636 135.707C92.5987 135.026 95.9389 134.066 96.819 133.751Z" fill="#101055"/>
<path d="M17.792 134.411C18.4666 134.38 19.0837 134.417 19.6996 134.731C19.7464 134.755 19.7926 134.78 19.8381 134.806C19.8837 134.832 19.9287 134.859 19.9729 134.887C20.017 134.915 20.0605 134.945 20.1033 134.975C20.146 135.006 20.1878 135.038 20.229 135.07C20.2702 135.103 20.3105 135.136 20.3498 135.171C20.3893 135.206 20.4278 135.241 20.4654 135.278C20.5031 135.315 20.5398 135.352 20.5755 135.39C20.6113 135.429 20.646 135.468 20.6797 135.509C20.7135 135.549 20.7462 135.59 20.7778 135.632C20.8096 135.674 20.8402 135.716 20.8697 135.76C20.8992 135.803 20.9276 135.847 20.9549 135.892C20.9822 135.937 21.0083 135.982 21.0333 136.029C21.0583 136.075 21.0821 136.121 21.1048 136.169C21.1274 136.216 21.1489 136.264 21.1691 136.313C21.1893 136.361 21.2083 136.41 21.2261 136.459C21.2439 136.509 21.2604 136.559 21.2756 136.609C21.5381 137.479 21.4605 138.465 21.0021 139.257C20.5017 140.122 19.7142 140.58 18.7823 140.847C18.0956 140.925 17.4113 140.784 16.8008 140.461C16.0316 140.054 15.4164 139.382 15.1817 138.534C14.9463 137.684 15.0865 136.63 15.5341 135.871C16.0451 135.004 16.8652 134.657 17.792 134.411Z" fill="#F1D161"/>
<path d="M11.3191 20.3638C11.4401 20.3772 11.5667 20.3901 11.6836 20.425C12.5792 20.6922 12.7611 22.9289 13.4799 23.7011C14.1893 24.4631 16.3702 24.6468 16.7361 25.4581C16.8079 25.6171 16.7826 25.8525 16.732 26.017C16.4027 27.0861 14.3147 27.2559 13.5272 28.0234C12.4673 29.0563 12.7651 30.8115 11.4511 31.572C11.3551 31.5508 11.2594 31.5313 11.1672 31.4961C10.2299 31.1387 9.90236 28.8988 9.09624 28.0551C8.40212 27.3285 6.26796 27.0227 5.98129 26.2113C5.92268 26.0455 5.91369 25.8826 5.95838 25.7116C5.97152 25.6608 5.98923 25.6117 6.01151 25.5643C6.47289 24.5717 8.47456 24.615 9.26871 23.6452C9.88614 22.8911 9.99805 21.9335 10.4268 21.089C10.6516 20.6462 10.8531 20.5094 11.3191 20.3638Z" fill="#5EBFBD"/>
<path d="M150 103.093C148.948 103.785 147.482 105.501 146.587 106.472C146.066 107.037 145.57 107.75 144.87 108.093L144.694 108.03L144.8 108.094C144.498 107.97 144.213 107.749 143.969 107.534C143.26 106.909 139.798 103.415 139.43 102.824C139.437 102.719 139.456 102.638 139.507 102.545C140.119 101.435 141.603 100.279 142.506 99.3656C143.082 98.7821 143.62 98.1275 144.247 97.5981C144.446 97.4295 144.653 97.2742 144.907 97.2036C145.808 97.7973 147.302 99.5705 148.124 100.409C148.737 101.037 149.408 101.609 150 102.258V103.093Z" fill="#F1D161"/>
<path d="M134.306 123.222C135.692 123.102 137.003 123.334 138.181 124.1C139.516 124.968 140.453 126.521 140.772 128.067C141.094 129.63 140.704 131.338 139.814 132.652C138.833 134.1 137.391 134.814 135.71 135.127C134.006 135.176 132.512 134.983 131.133 133.889C131.057 133.828 130.982 133.764 130.909 133.699C130.835 133.634 130.764 133.567 130.694 133.498C130.624 133.429 130.555 133.359 130.489 133.286C130.422 133.214 130.357 133.141 130.295 133.065C130.231 132.99 130.17 132.913 130.111 132.835C130.052 132.757 129.995 132.677 129.939 132.596C129.884 132.515 129.831 132.433 129.779 132.349C129.728 132.265 129.679 132.18 129.631 132.094C129.584 132.008 129.539 131.921 129.496 131.833C129.453 131.744 129.413 131.655 129.374 131.565C129.335 131.475 129.299 131.384 129.265 131.291C129.231 131.199 129.199 131.107 129.169 131.013C129.14 130.919 129.113 130.825 129.088 130.73C129.063 130.635 129.04 130.54 129.02 130.444C128.999 130.348 128.981 130.251 128.966 130.154C128.95 130.057 128.937 129.96 128.926 129.863C128.744 128.178 129.292 126.559 130.35 125.251C131.382 123.975 132.696 123.389 134.306 123.222Z" fill="#F1D161"/>
<path d="M46.7392 150C46.4589 149.568 46.2253 149.174 46.3164 148.633C46.3665 148.337 46.5292 148.123 46.78 147.964C46.9583 147.85 47.0771 147.817 47.2851 147.8C48.0287 147.737 48.798 147.778 49.5451 147.778L53.7039 147.779L69.3801 147.797L95.3998 147.754L100.63 147.765C101.355 147.765 102.199 147.631 102.897 147.81C103.223 147.892 103.515 148.074 103.674 148.378C103.814 148.648 103.874 149.036 103.781 149.329C103.685 149.628 103.465 149.808 103.229 150H46.7392Z" fill="#101055"/>
<path d="M11.9789 85.6953C12.2233 85.7103 12.5246 85.7435 12.75 85.8396C13.0939 85.9862 13.2759 86.317 13.4177 86.6435C13.7939 87.5095 13.9483 88.5252 14.1963 89.4367C14.64 91.0675 15.1209 92.6806 15.709 94.2655C19.9318 105.645 25.9948 114.938 35.2988 122.844C37.3667 124.602 39.5695 126.307 41.867 127.752C42.7061 128.28 43.587 128.748 44.4459 129.243C45.3421 129.76 46.2362 130.307 47.1632 130.766C49.7422 132.042 52.3403 133.241 55.061 134.184C55.9909 134.506 56.9323 134.818 57.8761 135.097C58.5866 135.307 59.3559 135.456 60.0227 135.783C60.3201 135.929 60.497 136.154 60.5898 136.472C60.6845 136.797 60.5997 137.125 60.433 137.411C60.1715 137.859 59.8682 138.014 59.3789 138.133C56.5031 137.786 51.7027 135.876 49.0551 134.664C48.5438 134.433 48.0354 134.197 47.5299 133.954C47.0245 133.711 46.5221 133.462 46.0228 133.206C45.5236 132.951 45.0276 132.689 44.5349 132.421C44.0423 132.153 43.553 131.879 43.0672 131.599C42.5813 131.319 42.099 131.033 41.6203 130.741C41.1416 130.449 40.6667 130.151 40.1955 129.846C39.7242 129.542 39.2568 129.233 38.7933 128.917C38.3298 128.601 37.8704 128.28 37.4149 127.952C36.9594 127.625 36.5082 127.292 36.0611 126.954C35.6139 126.615 35.1711 126.271 34.7326 125.922C34.2941 125.572 33.8599 125.217 33.4302 124.857C33.0006 124.496 32.5756 124.131 32.1551 123.76C31.7345 123.389 31.3187 123.012 30.9076 122.631C30.4965 122.249 30.0902 121.863 29.6887 121.471C29.2873 121.08 28.8908 120.683 28.4993 120.282C28.1078 119.88 27.7213 119.474 27.3399 119.063C26.9585 118.652 26.5823 118.236 26.2113 117.815C25.8403 117.395 25.4747 116.969 25.1143 116.54C24.754 116.11 24.399 115.676 24.0495 115.237C23.7 114.799 23.3561 114.356 23.0177 113.909C22.6792 113.461 22.3464 113.01 22.0193 112.555C21.6921 112.099 21.3707 111.64 21.0551 111.176C20.7395 110.713 20.4297 110.245 20.1256 109.774C19.8216 109.303 19.5236 108.828 19.2315 108.349C18.9394 107.87 18.6533 107.388 18.3733 106.902C18.0933 106.416 17.8193 105.927 17.5515 105.434C17.2837 104.941 17.0221 104.445 16.7668 103.946C16.5113 103.447 16.2621 102.944 16.0193 102.439C15.7765 101.933 15.54 101.425 15.3098 100.914C15.0797 100.402 14.8559 99.8879 14.6387 99.3709C14.4214 98.854 14.2106 98.3343 14.0063 97.8121C13.802 97.2898 13.6042 96.765 13.4131 96.2378C12.6834 94.2702 11.0192 89.4187 10.8163 87.4807C10.7787 87.1221 10.8068 86.7389 10.971 86.4121C11.1864 85.9834 11.5442 85.8343 11.9789 85.6953Z" fill="#101055"/>
<path d="M0 114.561L0.0209089 114.488C0.218823 113.782 0.296389 113.051 0.505172 112.345C1.11817 110.271 2.5899 108.463 4.46427 107.385C4.59251 107.31 4.72254 107.239 4.85436 107.171C4.98619 107.102 5.11963 107.038 5.2547 106.976C5.38978 106.915 5.52631 106.857 5.66429 106.802C5.80227 106.747 5.94153 106.696 6.08208 106.648C6.22262 106.601 6.36428 106.557 6.50704 106.516C6.64979 106.475 6.79348 106.439 6.93809 106.405C7.0827 106.372 7.22805 106.342 7.37416 106.316C7.52026 106.29 7.66692 106.268 7.81414 106.249C7.96136 106.23 8.10896 106.215 8.25694 106.204C8.40491 106.192 8.55308 106.185 8.70144 106.181C8.84979 106.177 8.99816 106.177 9.14653 106.18C9.2949 106.184 9.44309 106.191 9.59109 106.202C9.73909 106.213 9.88673 106.228 10.034 106.246C10.1813 106.264 10.328 106.286 10.4741 106.312C10.6203 106.338 10.7657 106.367 10.9104 106.4C11.0551 106.433 11.1989 106.47 11.3418 106.51C13.6373 107.138 15.5137 108.738 16.6819 110.792C17.8214 112.796 18.0565 115.352 17.4469 117.563C16.8388 119.768 15.1686 121.721 13.1912 122.838C13.0662 122.908 12.9395 122.975 12.8112 123.039C12.683 123.102 12.5532 123.163 12.4219 123.22C12.2907 123.278 12.1581 123.332 12.0242 123.383C11.8902 123.434 11.7552 123.481 11.6189 123.525C11.4826 123.57 11.3454 123.61 11.2071 123.648C11.0689 123.685 10.9298 123.719 10.7898 123.75C10.6499 123.781 10.5093 123.808 10.368 123.831C10.2267 123.855 10.085 123.875 9.9427 123.892C9.80044 123.909 9.65785 123.922 9.51494 123.932C9.37202 123.942 9.22895 123.948 9.08572 123.951C8.9425 123.953 8.7993 123.952 8.65611 123.948C8.51293 123.944 8.36994 123.936 8.22715 123.924C8.08436 123.913 7.94192 123.898 7.79985 123.88C7.65779 123.861 7.51626 123.84 7.37527 123.814C7.23428 123.789 7.094 123.76 6.95442 123.728C6.81484 123.696 6.67614 123.66 6.53832 123.621C4.32521 122.985 2.38778 121.592 1.27159 119.553C0.857568 118.797 0.564082 117.987 0.356676 117.151C0.24808 116.714 0.184062 116.187 0 115.777V114.561Z" fill="#5EBFBD"/>
<path d="M70.8739 47.2243C71.4291 47.524 71.9784 47.7811 72.5814 47.9704C74.9602 48.7168 77.1799 48.2849 79.3493 47.1572C79.4917 49.6114 79.3713 52.1232 79.3732 54.5828L79.3788 67.8186C79.3431 72.7546 79.3474 77.6904 79.3915 82.6261C80.5216 82.6104 81.8804 82.4586 82.9909 82.6664C80.8934 82.7663 78.7596 82.687 76.658 82.6845C73.5745 82.6809 70.482 82.717 67.3994 82.6514C67.8046 82.4639 70.1482 82.5938 70.7665 82.5984L70.8255 67.8449L70.8185 54.4977C70.8169 52.0927 70.6906 49.6186 70.8739 47.2243Z" fill="#A4D8D5"/>
<path d="M124.553 0H126.81C128.091 0.412333 129.351 0.665919 130.557 1.30805C132.716 2.4566 134.329 4.73158 135.006 7.04647C135.052 7.20184 135.094 7.35825 135.132 7.51569C135.171 7.67312 135.205 7.8314 135.236 7.99053C135.267 8.14965 135.294 8.30943 135.317 8.46986C135.34 8.6303 135.359 8.7912 135.374 8.95255C135.389 9.11391 135.4 9.27554 135.407 9.43745C135.414 9.59935 135.417 9.76133 135.417 9.92339C135.416 10.0855 135.411 10.2474 135.403 10.4092C135.394 10.5711 135.381 10.7326 135.365 10.8938C135.348 11.055 135.328 11.2157 135.303 11.3759C135.279 11.5362 135.251 11.6957 135.219 11.8545C135.187 12.0134 135.151 12.1713 135.111 12.3284C135.071 12.4855 135.027 12.6415 134.98 12.7965C134.932 12.9514 134.881 13.1051 134.826 13.2576C134.771 13.41 134.712 13.561 134.65 13.7106C134.588 13.8602 134.522 14.0082 134.452 14.1546C134.383 14.3009 134.309 14.4455 134.233 14.5883C132.965 16.8979 130.764 18.7714 128.211 19.495C125.714 20.2025 123.099 19.8243 120.848 18.5632C118.472 17.2318 116.934 15.1267 116.212 12.5134C115.538 10.0689 115.935 7.28917 117.207 5.1001C119.045 1.9385 121.142 0.918363 124.553 0Z" fill="#5EBFBD"/>
<path d="M67.3995 82.6514C70.4821 82.717 73.5746 82.6808 76.6581 82.6845C78.7597 82.687 80.8935 82.7662 82.991 82.6663C83.1475 82.7486 83.3064 82.8308 83.4293 82.961C83.6158 83.1585 83.6839 83.4068 83.7029 83.6725C83.7993 85.018 83.7122 86.4392 83.7103 87.7919L83.7106 95.7806L83.7248 123.126C85.1709 123.106 93.7232 122.964 94.3667 123.23C94.552 123.306 94.6909 123.494 94.766 123.674C94.8656 123.913 94.9086 124.234 94.8012 124.477C94.5425 125.062 90.4458 129.387 89.6005 130.322L76.8371 144.527C76.5068 144.901 75.5136 146.121 75.0552 146.203C74.7708 146.255 74.395 145.999 74.1901 145.832C73.7107 145.444 73.311 144.913 72.8974 144.454C71.7517 143.182 70.6632 141.859 69.5133 140.592C66.7672 137.566 64.1218 134.457 61.3943 131.414L57.732 127.312C57.0311 126.541 56.2694 125.796 55.6056 124.996C55.4291 124.783 55.2992 124.537 55.2741 124.258C55.2481 123.968 55.3548 123.627 55.5579 123.414C55.7671 123.194 56.2944 123.15 56.5824 123.127C57.6841 123.041 58.8406 123.11 59.9468 123.114L66.1502 123.132C66.1254 115.285 66.1413 107.439 66.1979 99.5919C66.151 95.5627 66.1457 91.5336 66.1819 87.5045C66.188 86.3233 66.1064 85.117 66.1461 83.9407C66.1572 83.612 66.2214 83.2716 66.4398 83.0141C66.7018 82.705 67.0171 82.6849 67.3995 82.6514Z" fill="#101055"/>
<path d="M68.3354 84.8136L76.6502 84.8087C78.2809 84.8103 79.9205 84.777 81.5499 84.8435C81.6708 88.1752 81.6008 91.5412 81.6014 94.8762L81.5834 114.002L81.5966 120.532C81.6001 121.729 81.5537 122.955 81.6339 124.149C81.6477 124.352 81.6736 124.531 81.7851 124.707C81.8345 124.785 81.9079 124.876 81.9785 124.933C82.1913 125.104 82.5356 125.146 82.7982 125.169C83.7149 125.25 84.6878 125.182 85.6113 125.182L91.3747 125.183C89.7911 127.177 87.9558 129.041 86.2507 130.94L78.0987 140.067C77.1013 141.264 75.9732 142.389 74.9167 143.537C73.5423 142.129 72.2548 140.619 70.9442 139.151L62.835 129.966C61.4315 128.37 60.0583 126.746 58.6101 125.19C60.4995 125.169 62.3901 125.184 64.2796 125.189C65.2132 125.192 66.2132 125.268 67.1402 125.161C67.4191 125.129 67.7584 125.076 67.9795 124.889C68.0604 124.82 68.1354 124.705 68.1815 124.611C68.3027 124.362 68.305 124.088 68.314 123.816C68.3611 122.378 68.3236 120.926 68.3236 119.486L68.3279 111.409L68.3354 84.8136Z" fill="#F1D161"/>
<path d="M20.4663 38.0859C21.0543 35.6561 22.2357 33.3507 23.4486 31.1833C27.9593 23.123 34.7192 15.4909 42.643 10.6561C44.0853 9.77609 45.5436 8.79244 47.0418 8.02249C47.428 7.82267 47.8165 7.62715 48.2071 7.43593C48.5977 7.24471 48.9904 7.05784 49.3851 6.87532C49.7798 6.6928 50.1766 6.51468 50.5753 6.34096C50.9739 6.16722 51.3745 5.99793 51.7769 5.83308C52.1793 5.66824 52.5836 5.50786 52.9897 5.35197C53.3956 5.19608 53.8033 5.04471 54.2127 4.89785C54.622 4.75099 55.033 4.60869 55.4455 4.47094C55.858 4.33318 56.2719 4.20002 56.6874 4.07144C57.1028 3.94286 57.5196 3.8189 57.9379 3.69956C58.3561 3.58022 58.7755 3.46552 59.1962 3.35547C59.617 3.24543 60.0389 3.14006 60.462 3.03936C60.885 2.93867 61.3091 2.84267 61.7343 2.75137C62.1595 2.66008 62.5857 2.57351 63.0128 2.49165C63.44 2.4098 63.868 2.33269 64.2968 2.26033C64.7256 2.18795 65.1552 2.12034 65.5855 2.05749C66.0159 1.99464 66.4469 1.93657 66.8784 1.88327C67.3101 1.82997 67.7422 1.78146 68.1749 1.73774C68.6077 1.69402 69.0408 1.6551 69.4743 1.62097C69.9079 1.58684 70.3418 1.55753 70.7759 1.53302C71.2101 1.50851 71.6445 1.48882 72.0792 1.47394C72.5139 1.45905 72.9486 1.44899 73.3835 1.44374C73.8184 1.43849 74.2532 1.43806 74.6881 1.44245C75.1229 1.44684 75.5577 1.45605 75.9924 1.47007C76.4271 1.4841 76.8615 1.50293 77.2958 1.52659C77.7301 1.55024 78.164 1.57869 78.5976 1.61196C79.0312 1.64523 79.4644 1.6833 79.8972 1.72617C80.3299 1.76903 80.7622 1.81669 81.1939 1.86914C81.6256 1.92158 82.0567 1.9788 82.4872 2.0408C82.9177 2.1028 83.3474 2.16955 83.7763 2.24108C84.2053 2.3126 84.6334 2.38887 85.0607 2.46987C85.488 2.55089 85.9144 2.63662 86.3398 2.72708C86.7651 2.81753 87.1895 2.91269 87.6127 3.01255C87.9764 3.10375 88.3392 3.19839 88.7011 3.29647C89.0629 3.39454 89.4238 3.49604 89.7837 3.60095C90.1437 3.70586 90.5026 3.81418 90.8605 3.9259C91.2185 4.03762 91.5752 4.15271 91.9309 4.27119C92.2867 4.38967 92.6413 4.5115 92.9947 4.63668C93.348 4.76188 93.7002 4.89041 94.0511 5.02227C94.4021 5.15414 94.7518 5.28932 95.1003 5.42782C95.4487 5.56631 95.7958 5.70809 96.1415 5.85316C96.4872 5.99823 96.8315 6.14656 97.1745 6.29815C97.5173 6.44974 97.8588 6.60457 98.1988 6.76263C98.5388 6.92069 98.8772 7.08196 99.2141 7.24643C99.551 7.41091 99.8864 7.57856 100.22 7.74939C100.554 7.92022 100.886 8.09419 101.216 8.27131C101.547 8.44843 101.876 8.62867 102.203 8.81202C102.53 8.99537 102.855 9.1818 103.178 9.37131C103.502 9.56083 103.824 9.75339 104.143 9.949C104.463 10.1446 104.781 10.3432 105.098 10.5449C105.414 10.7465 105.728 10.9511 106.04 11.1587C106.352 11.3663 106.662 11.5768 106.971 11.7902C107.279 12.0037 107.585 12.2201 107.889 12.4393C108.193 12.6586 108.495 12.8807 108.795 13.1057C109.095 13.3307 109.393 13.5585 109.688 13.7891C109.984 14.0198 110.277 14.2532 110.569 14.4894C110.86 14.7256 111.149 14.9645 111.435 15.2061C111.722 15.4478 112.006 15.6922 112.288 15.9393C112.57 16.1862 112.85 16.4359 113.127 16.6884C113.405 16.9407 113.68 17.1957 113.952 17.4532C114.225 17.7107 114.494 17.9708 114.762 18.2335C115.03 18.4962 115.295 18.7614 115.557 19.0291C115.82 19.2967 116.08 19.5669 116.337 19.8395C116.594 20.1121 116.849 20.3871 117.101 20.6645C117.353 20.9421 117.603 21.2219 117.85 21.5041C120.278 24.3144 122.3 27.2914 124.226 30.4564C125.672 32.8314 126.996 35.3572 127.647 38.0741C128.21 38.0656 129.074 37.9418 129.602 38.1063C128.89 38.2689 127.934 38.1666 127.198 38.1649L122.335 38.1457C122.121 37.487 121.905 36.8522 121.567 36.2454C121.512 36.146 121.454 36.0481 121.394 35.9517C121.334 35.8552 121.272 35.7603 121.207 35.6669C121.142 35.5735 121.075 35.4818 121.006 35.3916C120.937 35.3015 120.865 35.2132 120.792 35.1267C120.718 35.04 120.643 34.9553 120.565 34.8725C120.487 34.7896 120.407 34.7087 120.326 34.6298C120.244 34.5509 120.16 34.474 120.075 34.3992C119.989 34.3244 119.902 34.2518 119.813 34.1812C119.724 34.1107 119.633 34.0424 119.541 33.9763C119.448 33.9103 119.354 33.8466 119.258 33.7852C119.163 33.7238 119.066 33.6648 118.967 33.6082C118.869 33.5516 118.769 33.4974 118.668 33.4458C118.567 33.394 118.464 33.3448 118.361 33.2981C118.257 33.2515 118.152 33.2075 118.047 33.166C117.941 33.1245 117.834 33.0856 117.726 33.0494C117.619 33.013 117.51 32.9794 117.401 32.9486C117.293 32.9173 117.185 32.8888 117.076 32.8629C116.967 32.8371 116.858 32.814 116.747 32.7936C116.637 32.7732 116.527 32.7555 116.416 32.7406C116.305 32.7257 116.193 32.7136 116.082 32.7042C115.97 32.6949 115.858 32.6883 115.746 32.6845C115.635 32.6807 115.523 32.6796 115.411 32.6814C115.299 32.6832 115.187 32.6877 115.075 32.6952C114.963 32.7025 114.852 32.7126 114.741 32.7255C114.629 32.7384 114.518 32.754 114.408 32.7724C114.297 32.7908 114.188 32.812 114.078 32.8358C113.969 32.8597 113.86 32.8863 113.752 32.9156C113.644 32.9449 113.536 32.9769 113.43 33.0116C113.323 33.0461 113.218 33.0834 113.113 33.1233C113.008 33.1632 112.905 33.2057 112.802 33.2508C112.7 33.2958 112.598 33.3434 112.498 33.3935C112.398 33.4436 112.299 33.4961 112.202 33.5511C110.419 34.5609 109.378 36.218 108.847 38.1558C100.362 38.0514 91.8758 38.179 83.3901 38.1523C82.484 35.2383 81.3449 33.676 78.7003 32.1306C76.7282 31.1758 74.569 30.9031 72.4702 31.6405C72.0323 31.7941 71.5964 31.9835 71.195 32.217C68.7597 33.6798 67.473 35.3952 66.7833 38.1552L41.2637 38.0892C41.232 37.9744 41.1975 37.8605 41.1603 37.7474C41.123 37.6343 41.083 37.5222 41.0403 37.4111C40.9976 37.2999 40.9521 37.1898 40.904 37.0809C40.8559 36.972 40.8052 36.8644 40.7518 36.7579C40.6984 36.6515 40.6425 36.5464 40.584 36.4427C40.5255 36.339 40.4646 36.2367 40.4011 36.1359C40.3376 36.0352 40.2717 35.936 40.2033 35.8386C40.1351 35.741 40.0644 35.6452 39.9914 35.5512C39.9184 35.457 39.8432 35.3648 39.7656 35.2745C39.6882 35.184 39.6085 35.0956 39.5267 35.009C39.4449 34.9225 39.361 34.838 39.2751 34.7556C39.1891 34.6732 39.1012 34.5929 39.0114 34.5148C38.9215 34.4367 38.8298 34.3608 38.7363 34.2872C38.6427 34.2134 38.5474 34.1421 38.4503 34.0731C38.3534 34.0041 38.2547 33.9375 38.1544 33.8733C38.0541 33.8091 37.9523 33.7474 37.849 33.6882C37.755 33.6336 37.6596 33.5814 37.5629 33.5317C37.4663 33.4819 37.3685 33.4346 37.2695 33.3896C37.1705 33.3447 37.0704 33.3023 36.9692 33.2625C36.8681 33.2226 36.766 33.1852 36.6631 33.1504C36.5601 33.1157 36.4563 33.0835 36.3517 33.0539C36.247 33.0242 36.1417 32.9972 36.0357 32.9729C35.9297 32.9486 35.8232 32.9269 35.7162 32.9079C35.6092 32.8888 35.5017 32.8725 35.3938 32.8589C35.286 32.8453 35.1779 32.8343 35.0695 32.826C34.9611 32.8178 34.8525 32.8123 34.7438 32.8094C34.6352 32.8066 34.5265 32.8065 34.4178 32.8091C34.3091 32.8118 34.2005 32.8171 34.0921 32.8251C33.9836 32.8331 33.8755 32.8438 33.7677 32.8573C33.6598 32.8707 33.5522 32.8868 33.4451 32.9057C33.3381 32.9245 33.2315 32.946 33.1255 32.9701C33.0195 32.9942 32.9142 33.021 32.8095 33.0504C32.7002 33.08 32.5918 33.1123 32.4842 33.1474C32.3766 33.1824 32.2699 33.2201 32.1641 33.2604C32.0584 33.3009 31.9537 33.3439 31.8502 33.3896C31.7466 33.4353 31.6442 33.4834 31.5432 33.5342C31.442 33.5851 31.3422 33.6385 31.2438 33.6943C31.1452 33.7501 31.0482 33.8083 30.9527 33.8691C30.8572 33.9298 30.7632 33.9929 30.6709 34.0583C30.5785 34.1238 30.4878 34.1915 30.3988 34.2614C30.3099 34.3314 30.2228 34.4036 30.1375 34.478C30.0521 34.5523 29.9687 34.6288 29.8872 34.7074C29.8057 34.7859 29.7263 34.8665 29.6488 34.9491C29.5714 35.0316 29.4961 35.1161 29.4229 35.2024C29.3497 35.2888 29.2787 35.377 29.21 35.4669C29.1412 35.5568 29.0748 35.6483 29.0107 35.7416C28.9466 35.8349 28.8848 35.9297 28.8254 36.0261C28.7661 36.1225 28.7091 36.2203 28.6546 36.3195C28.3422 36.8812 28.1314 37.4678 27.943 38.0802L20.4663 38.0859Z" fill="#CBE1DE"/>
<path d="M60.7478 9.6202C61.4314 9.59248 62.0538 9.62355 62.6768 9.948C62.7201 9.97095 62.7628 9.99496 62.805 10.02C62.8471 10.0451 62.8885 10.0712 62.9294 10.0983C62.9702 10.1254 63.0103 10.1535 63.0498 10.1826C63.0892 10.2117 63.128 10.2418 63.1659 10.2728C63.2038 10.3038 63.241 10.3357 63.2774 10.3686C63.3137 10.4015 63.3493 10.4352 63.3841 10.4698C63.4187 10.5044 63.4525 10.5399 63.4854 10.5761C63.5184 10.6124 63.5505 10.6495 63.5817 10.6874C63.6127 10.7252 63.6428 10.7638 63.672 10.8032C63.7013 10.8425 63.7296 10.8826 63.7567 10.9234C63.784 10.9641 63.8102 11.0055 63.8354 11.0476C63.8606 11.0896 63.8847 11.1323 63.9077 11.1755C63.9309 11.2187 63.9529 11.2625 63.9738 11.3069C63.9947 11.3512 64.0145 11.396 64.0331 11.4413C64.0519 11.4866 64.0695 11.5324 64.0859 11.5785C64.1023 11.6247 64.1175 11.6713 64.1317 11.7182C64.1489 11.7724 64.1647 11.827 64.1792 11.882C64.1936 11.937 64.2067 11.9923 64.2183 12.048C64.2298 12.1036 64.24 12.1596 64.2488 12.2157C64.2575 12.2719 64.2649 12.3283 64.2707 12.3849C64.2766 12.4414 64.281 12.4981 64.2841 12.5549C64.287 12.6116 64.2885 12.6685 64.2886 12.7253C64.2887 12.7822 64.2873 12.839 64.2845 12.8958C64.2817 12.9526 64.2774 13.0093 64.2717 13.0658C64.2661 13.1224 64.259 13.1788 64.2504 13.235C64.2418 13.2912 64.2318 13.3472 64.2203 13.4029C64.2089 13.4586 64.1961 13.5139 64.1818 13.569C64.1676 13.624 64.1519 13.6787 64.1348 13.7329C64.1177 13.7871 64.0993 13.8409 64.0796 13.8942C64.0597 13.9475 64.0386 14.0003 64.0161 14.0525C63.9937 14.1047 63.9699 14.1564 63.9448 14.2074C63.9196 14.2584 63.8932 14.3087 63.8656 14.3584C63.3991 15.1912 62.6976 15.6531 61.7947 15.8937C61.0687 15.9043 60.4529 15.8504 59.7989 15.4915C59.7529 15.4667 59.7075 15.4407 59.6628 15.4136C59.618 15.3864 59.574 15.3581 59.5308 15.3288C59.4875 15.2994 59.445 15.2689 59.4033 15.2373C59.3616 15.2058 59.3208 15.1732 59.2807 15.1395C59.2407 15.1058 59.2016 15.0711 59.1634 15.0355C59.1251 14.9998 59.0878 14.9632 59.0515 14.9256C59.0151 14.888 58.9797 14.8496 58.9453 14.8102C58.9109 14.7708 58.8776 14.7306 58.8452 14.6895C58.8129 14.6484 58.7817 14.6064 58.7515 14.5637C58.7212 14.521 58.6921 14.4776 58.6642 14.4334C58.6363 14.3892 58.6094 14.3443 58.5838 14.2987C58.5582 14.2531 58.5337 14.2069 58.5104 14.1601C58.4871 14.1133 58.4651 14.0659 58.4442 14.0179C58.4234 13.97 58.4037 13.9215 58.3853 13.8725C58.3669 13.8236 58.3498 13.7742 58.334 13.7243C58.3182 13.6745 58.3036 13.6243 58.2904 13.5737C58.2771 13.5217 58.2651 13.4695 58.2543 13.417C58.2437 13.3645 58.2343 13.3117 58.2262 13.2587C58.2181 13.2057 58.2113 13.1526 58.2058 13.0992C58.2004 13.0459 58.1963 12.9925 58.1935 12.939C58.1907 12.8854 58.1892 12.8319 58.189 12.7783C58.1888 12.7247 58.19 12.6711 58.1925 12.6175C58.1949 12.564 58.1988 12.5105 58.2039 12.4572C58.2091 12.4038 58.2155 12.3506 58.2233 12.2976C58.2311 12.2446 58.2402 12.1917 58.2505 12.1392C58.2609 12.0866 58.2725 12.0343 58.2855 11.9823C58.2985 11.9302 58.3128 11.8786 58.3283 11.8273C58.3438 11.776 58.3606 11.7251 58.3787 11.6746C58.3968 11.6241 58.416 11.5741 58.4365 11.5246C58.4571 11.4751 58.4788 11.4261 58.5017 11.3777C58.5247 11.3292 58.5488 11.2814 58.5741 11.2341C58.5994 11.1869 58.6259 11.1403 58.6535 11.0944C59.1277 10.3086 59.8615 9.81986 60.7478 9.6202Z" fill="#5EBFBD"/>
<path d="M71.195 32.2169C70.8881 31.4362 70.755 30.4489 70.89 29.6159C71.057 28.5849 71.5813 27.7169 72.4283 27.1028C73.3709 26.4191 74.615 26.0866 75.7677 26.2866C76.8062 26.4666 77.8048 27.0733 78.3823 27.9643C79.2615 29.3207 79.0461 30.6523 78.7003 32.1304C76.7282 31.1756 74.569 30.9029 72.4702 31.6403C72.0323 31.794 71.5964 31.9834 71.195 32.2169Z" fill="#A4D8D5"/>
<path d="M71.195 32.2171C71.5963 31.9836 72.0323 31.7942 72.4701 31.6405C74.569 30.9031 76.7281 31.1759 78.7002 32.1307C81.3449 33.6761 82.4839 35.2383 83.3901 38.1523C91.8758 38.179 100.362 38.0514 108.847 38.1559C109.378 36.218 110.419 34.561 112.202 33.5511C112.299 33.4961 112.398 33.4436 112.498 33.3935C112.598 33.3434 112.7 33.2959 112.802 33.2508C112.905 33.2057 113.008 33.1632 113.113 33.1234C113.218 33.0834 113.323 33.0462 113.43 33.0116C113.536 32.977 113.644 32.945 113.752 32.9157C113.86 32.8864 113.969 32.8598 114.078 32.8358C114.187 32.812 114.297 32.7909 114.408 32.7724C114.518 32.7541 114.629 32.7384 114.741 32.7255C114.852 32.7126 114.963 32.7025 115.075 32.6952C115.187 32.6878 115.299 32.6832 115.411 32.6814C115.523 32.6797 115.635 32.6807 115.746 32.6845C115.858 32.6883 115.97 32.6949 116.082 32.7043C116.193 32.7137 116.305 32.7258 116.416 32.7406C116.527 32.7556 116.637 32.7732 116.747 32.7937C116.858 32.8141 116.967 32.8372 117.076 32.8629C117.185 32.8888 117.293 32.9174 117.401 32.9486C117.51 32.9795 117.619 33.0131 117.726 33.0494C117.834 33.0856 117.941 33.1245 118.047 33.166C118.152 33.2075 118.257 33.2516 118.361 33.2981C118.464 33.3448 118.567 33.394 118.668 33.4458C118.769 33.4975 118.869 33.5516 118.967 33.6083C119.066 33.6649 119.163 33.7239 119.258 33.7852C119.354 33.8466 119.448 33.9104 119.54 33.9764C119.633 34.0425 119.724 34.1108 119.813 34.1813C119.902 34.2518 119.989 34.3245 120.075 34.3993C120.16 34.4741 120.244 34.5509 120.326 34.6298C120.407 34.7087 120.487 34.7896 120.565 34.8726C120.642 34.9554 120.718 35.0401 120.792 35.1267C120.865 35.2132 120.937 35.3016 121.006 35.3917C121.075 35.4818 121.142 35.5736 121.207 35.6669C121.272 35.7603 121.334 35.8552 121.394 35.9517C121.454 36.0482 121.512 36.1461 121.567 36.2454C121.905 36.8523 122.121 37.487 122.335 38.1458L127.198 38.1649C127.934 38.1667 128.89 38.2689 129.602 38.1063C130.487 38.3255 131.237 38.6573 131.735 39.472C132.171 40.1858 132.266 41.1006 132.037 41.9007C131.833 42.6151 131.358 43.17 130.711 43.5247C130.422 43.6827 130.116 43.7895 129.795 43.8564C130.345 44.9823 130.538 46.8384 130.733 48.0877C131.379 52.2307 131.724 56.4301 131.375 60.6201C131.176 63.0002 130.719 65.3708 130.582 67.751C129.672 67.7519 127.543 67.59 126.793 67.8915C128.249 71.3145 129.913 74.6728 131.242 78.1467C132.203 78.1436 135.424 77.9166 136.116 78.4531C136.342 78.628 136.457 78.9031 136.489 79.1801C136.557 79.757 136.376 80.4046 136.269 80.9691C135.643 84.2589 134.274 87.1549 132.195 89.7803C128.639 94.2721 123.646 97.2244 117.923 97.8822C112.02 98.5609 106.411 96.9862 101.756 93.2812C101.526 93.0978 101.301 92.9097 101.08 92.717C100.858 92.5244 100.641 92.3272 100.428 92.1257C100.214 91.9241 100.005 91.7183 99.8003 91.5081C99.5954 91.2979 99.3949 91.0837 99.1988 90.8653C99.0027 90.647 98.8112 90.4247 98.6242 90.1984C98.4372 89.9722 98.2548 89.7423 98.0772 89.5086C97.8997 89.2749 97.727 89.0377 97.5591 88.7968C97.3912 88.5561 97.2284 88.312 97.0706 88.0645C96.9128 87.8171 96.76 87.5665 96.6124 87.3128C96.4648 87.0591 96.3225 86.8025 96.1855 86.543C96.0484 86.2835 95.9167 86.0212 95.7904 85.7562C95.6641 85.4913 95.5432 85.2239 95.4279 84.9541C95.3126 84.6842 95.2028 84.412 95.0986 84.1376C94.9944 83.8633 94.8959 83.5869 94.803 83.3085C94.7101 83.0301 94.623 82.7499 94.5417 82.4678C94.4602 82.1858 94.3846 81.9022 94.3149 81.6172C94.17 81.0059 93.9806 80.3718 93.9225 79.7467C93.8834 79.3275 93.8867 78.7946 94.2045 78.4701C94.7423 77.9207 98.0999 78.1659 99.0254 78.1722C99.4061 77.1931 99.8792 76.234 100.301 75.271L103.617 67.8761C103.112 67.6169 81.7212 67.8178 79.3788 67.8189L79.3732 54.5832C79.3713 52.1236 79.4917 49.6118 79.3493 47.1576C77.1799 48.2853 74.9602 48.7172 72.5814 47.9708C71.9784 47.7815 71.4291 47.5244 70.8739 47.2247C70.6906 49.619 70.8169 52.0931 70.8185 54.4981L70.8255 67.8453C62.7004 67.7555 54.5752 67.749 46.45 67.8258L51.1852 78.1908C52.1475 78.1978 54.1418 78.062 54.9758 78.1949C55.2399 78.2371 55.4962 78.3238 55.689 78.517C55.9369 78.7656 56.0009 79.1546 55.9925 79.4917C55.9722 80.3116 55.7731 81.1856 55.5833 81.98C55.5215 82.2313 55.4552 82.4814 55.3842 82.7302C55.3133 82.9789 55.2378 83.2263 55.1577 83.4724C55.0775 83.7184 54.9929 83.9628 54.9039 84.2057C54.8147 84.4486 54.7211 84.6897 54.6231 84.9292C54.525 85.1687 54.4226 85.4062 54.3159 85.6418C54.209 85.8775 54.0979 86.1111 53.9825 86.3426C53.867 86.5742 53.7474 86.8035 53.6234 87.0307C53.4995 87.2578 53.3715 87.4826 53.2394 87.7049C53.1071 87.9274 52.9709 88.1473 52.8305 88.3646C52.6902 88.5819 52.5459 88.7967 52.3977 89.0088C52.2494 89.2208 52.0973 89.43 51.9412 89.6365C51.7853 89.8428 51.6255 90.0462 51.4621 90.2467C51.2986 90.4473 51.1315 90.6448 50.9606 90.8391C50.7898 91.0335 50.6155 91.2246 50.4376 91.4125C50.2597 91.6003 50.0785 91.7849 49.8938 91.9662C49.7091 92.1474 49.5212 92.3251 49.33 92.4994C45.1968 96.2686 39.4895 98.3851 33.8999 98.1072C27.8882 97.8083 22.646 95.4353 18.5976 90.9488C15.707 87.7457 13.6972 83.5685 13.4189 79.2163C13.6005 78.7906 13.7236 78.4912 14.1757 78.3165C15.1439 77.9422 17.5454 78.2261 18.6981 78.171C20.1252 74.7028 21.8063 71.3479 23.266 67.897C22.6241 67.7053 18.7243 67.832 17.7736 67.8307C16.6377 61.4385 16.5311 55.4806 17.611 49.0726C17.7913 48.0148 18.0157 46.9664 18.2842 45.9274C18.4813 45.1591 18.7616 44.3511 18.8481 43.5664C18.8508 43.5408 18.853 43.5151 18.8554 43.4895C18.1688 42.8464 17.7345 42.201 17.6649 41.229C17.6065 40.4116 17.8377 39.542 18.4033 38.9327C18.9591 38.334 19.6751 38.1349 20.4663 38.086L27.943 38.0803C28.1314 37.4678 28.3421 36.8813 28.6546 36.3195C28.7091 36.2203 28.766 36.1225 28.8254 36.0261C28.8848 35.9297 28.9465 35.8349 29.0107 35.7417C29.0748 35.6484 29.1412 35.5568 29.2099 35.467C29.2787 35.3771 29.3497 35.2889 29.4229 35.2024C29.496 35.1161 29.5713 35.0317 29.6488 34.9492C29.7262 34.8666 29.8057 34.786 29.8871 34.7075C29.9687 34.6289 30.0521 34.5524 30.1375 34.4781C30.2227 34.4037 30.3098 34.3314 30.3988 34.2614C30.4877 34.1915 30.5784 34.1238 30.6708 34.0584C30.7632 33.993 30.8571 33.9299 30.9526 33.8691C31.0481 33.8084 31.1452 33.7501 31.2437 33.6944C31.3421 33.6385 31.4419 33.5852 31.5431 33.5343C31.6442 33.4835 31.7465 33.4353 31.8502 33.3897C31.9537 33.344 32.0583 33.3009 32.1641 33.2605C32.2698 33.2202 32.3765 33.1825 32.4841 33.1474C32.5918 33.1124 32.7002 33.08 32.8095 33.0504C32.9142 33.021 33.0195 32.9943 33.1254 32.9702C33.2315 32.946 33.338 32.9246 33.4451 32.9057C33.5522 32.8869 33.6597 32.8708 33.7676 32.8574C33.8754 32.8439 33.9836 32.8332 34.0921 32.8251C34.2005 32.8171 34.309 32.8118 34.4177 32.8092C34.5264 32.8065 34.6351 32.8066 34.7438 32.8095C34.8525 32.8123 34.961 32.8178 35.0694 32.826C35.1778 32.8343 35.2859 32.8453 35.3938 32.859C35.5017 32.8726 35.6091 32.8889 35.7162 32.9079C35.8232 32.927 35.9297 32.9486 36.0356 32.973C36.1416 32.9973 36.2469 33.0243 36.3516 33.054C36.4562 33.0835 36.56 33.1157 36.663 33.1505C36.766 33.1853 36.868 33.2226 36.9692 33.2626C37.0704 33.3024 37.1705 33.3448 37.2695 33.3897C37.3684 33.4346 37.4662 33.482 37.5629 33.5318C37.6596 33.5815 37.7549 33.6336 37.849 33.6882C37.9523 33.7474 38.0541 33.8091 38.1544 33.8734C38.2547 33.9376 38.3533 34.0042 38.4503 34.0732C38.5474 34.1421 38.6427 34.2135 38.7362 34.2872C38.8298 34.3608 38.9215 34.4367 39.0113 34.5148C39.1012 34.593 39.1891 34.6732 39.275 34.7557C39.3609 34.8381 39.4448 34.9226 39.5267 35.0091C39.6085 35.0956 39.6881 35.1841 39.7656 35.2745C39.8431 35.3648 39.9184 35.4571 39.9913 35.5512C40.0644 35.6453 40.135 35.7411 40.2033 35.8386C40.2716 35.9361 40.3376 36.0352 40.401 36.136C40.4645 36.2368 40.5255 36.339 40.584 36.4427C40.6425 36.5464 40.6984 36.6515 40.7517 36.758C40.8051 36.8644 40.8559 36.9721 40.9039 37.081C40.9521 37.1898 40.9975 37.2999 41.0403 37.4111C41.083 37.5223 41.123 37.6344 41.1603 37.7475C41.1975 37.8605 41.2319 37.9745 41.2637 38.0892L66.7833 38.1553C67.473 35.3952 68.7597 33.6799 71.195 32.2171Z" fill="#101055"/>
<path d="M34.3916 34.9632C35.3952 34.9305 36.3938 35.2596 37.2138 35.8317C37.2779 35.8756 37.3408 35.9211 37.4026 35.9682C37.4644 36.0153 37.5251 36.0638 37.5846 36.1139C37.644 36.1639 37.7022 36.2154 37.759 36.2683C37.816 36.3213 37.8716 36.3756 37.9259 36.4312C37.9801 36.4868 38.0329 36.5437 38.0844 36.6019C38.1358 36.6602 38.1858 36.7197 38.2344 36.7803C38.283 36.8409 38.3301 36.9028 38.3756 36.9657C38.4211 37.0287 38.465 37.0928 38.5073 37.1579C38.5497 37.2231 38.5904 37.2892 38.6296 37.3564C38.6687 37.4235 38.7062 37.4915 38.7419 37.5605C38.7777 37.6295 38.8118 37.6993 38.8442 37.7699C38.8765 37.8406 38.9071 37.912 38.936 37.9841C38.9648 38.0563 38.9919 38.1291 39.0172 38.2027C39.0425 38.2761 39.066 38.3501 39.0876 38.4247C39.1092 38.4993 39.129 38.5745 39.147 38.6502C39.1649 38.7258 39.1811 38.8017 39.1953 38.8781C39.4199 40.1415 39.113 41.5391 38.3636 42.5834C37.5091 43.7741 36.3561 44.324 34.9449 44.5526C34.8721 44.5563 34.7992 44.5583 34.7262 44.5586C34.6534 44.559 34.5805 44.5577 34.5077 44.5547C34.4348 44.5516 34.3621 44.5469 34.2894 44.5405C34.2167 44.5341 34.1443 44.5261 34.072 44.5164C33.9998 44.5067 33.9277 44.4952 33.856 44.4822C33.7842 44.4691 33.7128 44.4544 33.6418 44.4381C33.5707 44.4217 33.5 44.4036 33.4298 44.384C33.3595 44.3645 33.2897 44.3433 33.2205 44.3204C33.1513 44.2976 33.0826 44.2731 33.0144 44.247C32.9463 44.2211 32.8789 44.1935 32.812 44.1644C32.7452 44.1352 32.679 44.1046 32.6136 44.0724C32.5481 44.0402 32.4834 44.0065 32.4195 43.9714C32.3557 43.9362 32.2926 43.8996 32.2304 43.8615C32.1682 43.8234 32.1069 43.7839 32.0466 43.743C31.9862 43.7021 31.9268 43.6598 31.8685 43.6161C31.8101 43.5725 31.7527 43.5275 31.6963 43.4812C30.6873 42.6641 30.0768 41.4678 29.9456 40.182C29.8142 38.8936 30.1558 37.6728 30.9844 36.6726C31.8446 35.6342 33.0685 35.0906 34.3916 34.9632Z" fill="#FEFEFE"/>
<path d="M115.249 34.8877C116.37 34.773 117.517 35.1719 118.406 35.8498C118.467 35.896 118.527 35.9437 118.586 35.9928C118.645 36.0419 118.702 36.0925 118.758 36.1446C118.814 36.1965 118.869 36.2499 118.923 36.3047C118.976 36.3593 119.029 36.4154 119.079 36.4728C119.13 36.5301 119.179 36.5887 119.227 36.6486C119.275 36.7084 119.321 36.7693 119.366 36.8314C119.411 36.8935 119.454 36.9568 119.496 37.0211C119.537 37.0854 119.577 37.1507 119.616 37.217C119.654 37.2832 119.691 37.3504 119.726 37.4185C119.761 37.4866 119.794 37.5555 119.825 37.6254C119.857 37.6951 119.887 37.7656 119.915 37.8369C119.943 37.9081 119.969 37.98 119.993 38.0527C120.018 38.1252 120.04 38.1983 120.061 38.2719C120.082 38.3457 120.101 38.4198 120.118 38.4945C120.135 38.5692 120.15 38.6442 120.164 38.7196C120.177 38.795 120.189 38.8707 120.198 38.9467C120.377 40.2709 120.032 41.6798 119.196 42.7324C118.352 43.7963 117.145 44.3595 115.814 44.5021C115.744 44.5076 115.673 44.5115 115.602 44.5138C115.532 44.5161 115.461 44.5168 115.39 44.5158C115.319 44.515 115.248 44.5124 115.178 44.5082C115.107 44.504 115.036 44.4982 114.966 44.4908C114.895 44.4834 114.825 44.4744 114.755 44.4638C114.685 44.4532 114.615 44.4409 114.546 44.4271C114.476 44.4133 114.407 44.3979 114.338 44.3809C114.27 44.3639 114.201 44.3454 114.133 44.3253C114.065 44.3051 113.998 44.2835 113.931 44.2602C113.864 44.237 113.798 44.2122 113.732 44.186C113.666 44.1598 113.601 44.1321 113.536 44.1028C113.472 44.0736 113.408 44.0429 113.345 44.0108C113.282 43.9785 113.219 43.9449 113.158 43.91C113.096 43.8749 113.036 43.8385 112.976 43.8007C112.916 43.7629 112.857 43.7237 112.799 43.6832C112.74 43.6428 112.683 43.601 112.627 43.5578C112.566 43.5105 112.506 43.4616 112.447 43.4113C112.388 43.3611 112.331 43.3093 112.274 43.2561C112.218 43.203 112.163 43.1484 112.11 43.0925C112.056 43.0366 112.004 42.9794 111.953 42.9209C111.902 42.8624 111.853 42.8027 111.805 42.7418C111.758 42.6808 111.711 42.6187 111.667 42.5554C111.622 42.4923 111.579 42.428 111.538 42.3627C111.496 42.2972 111.456 42.2309 111.418 42.1636C111.38 42.0962 111.343 42.0279 111.308 41.9588C111.274 41.8897 111.241 41.8197 111.209 41.7489C111.178 41.6781 111.148 41.6066 111.12 41.5343C111.093 41.462 111.067 41.3891 111.043 41.3156C111.018 41.242 110.996 41.1678 110.976 41.0932C110.955 41.0185 110.936 40.9434 110.92 40.8678C110.903 40.7922 110.888 40.7163 110.875 40.64C110.862 40.5636 110.851 40.487 110.842 40.4102C110.672 39.0895 111.02 37.8271 111.834 36.7747C112.694 35.6617 113.871 35.0716 115.249 34.8877Z" fill="#FEFEFE"/>
<path d="M74.7853 33.5005C76.1916 33.397 77.7855 33.962 78.8821 34.8308C80.1805 35.8599 81.1042 37.4788 81.2955 39.1268C81.4896 40.8004 80.9657 42.4584 79.9142 43.7654C78.7362 45.2293 77.3019 45.9633 75.4517 46.1577C73.9149 46.1743 72.5041 45.8344 71.2729 44.8836C71.1878 44.819 71.1043 44.7523 71.0226 44.6835C70.9408 44.6148 70.8607 44.544 70.7824 44.4711C70.7041 44.3984 70.6278 44.3237 70.5533 44.2471C70.4786 44.1705 70.406 44.0921 70.3354 44.0119C70.2648 43.9316 70.1963 43.8497 70.1298 43.7661C70.0633 43.6824 69.9989 43.5971 69.9366 43.5103C69.8743 43.4234 69.8142 43.335 69.7564 43.2452C69.6986 43.1553 69.643 43.0641 69.5897 42.9714C69.5364 42.8787 69.4854 42.7848 69.4367 42.6897C69.3882 42.5945 69.342 42.4981 69.2982 42.4006C69.2544 42.3031 69.2131 42.2046 69.1743 42.1051C69.1354 42.0055 69.099 41.905 69.0651 41.8036C69.0313 41.7023 69 41.6001 68.9712 41.4972C68.9425 41.3943 68.9164 41.2906 68.8929 41.1863C68.8692 41.0821 68.8482 40.9774 68.8299 40.872C68.8116 40.7667 68.7959 40.6611 68.7828 40.555C68.575 38.9009 69.1234 37.2361 70.1536 35.9381C71.3271 34.4596 72.9371 33.7063 74.7853 33.5005Z" fill="#FEFEFE"/>
<path d="M116.196 49.645C116.694 50.1977 118.421 54.4737 118.848 55.4257C122.264 62.9668 125.604 70.5415 128.868 78.1497C124.679 78.2342 120.478 78.1633 116.288 78.1654L116.283 58.5231C116.273 55.5806 116.365 52.5804 116.196 49.645Z" fill="#FEFEFE"/>
<path d="M35.9379 49.8594C36.5757 50.7951 37.2648 52.7951 37.7754 53.9354L42.2486 63.8044L46.8418 73.9032C47.1936 74.6769 47.533 75.459 47.8981 76.2264C48.1763 76.8113 48.5375 77.4219 48.7166 78.0436L48.6339 78.1483C44.4144 78.1814 40.195 78.1862 35.9754 78.1628C35.9652 68.7317 35.8102 59.2889 35.9379 49.8594Z" fill="#FEFEFE"/>
<path d="M33.6856 49.9175C33.987 50.6249 33.8425 74.9373 33.8431 78.156L21.1896 78.1572L21.1504 78.1106C21.159 77.9542 21.14 77.998 21.1987 77.8761C22.3911 75.4065 23.4452 72.8552 24.5428 70.3417L28.1217 62.3347L31.5997 54.669C32.3147 53.0934 33.0626 51.5323 33.6856 49.9175Z" fill="#FEFEFE"/>
<path d="M114.128 49.8555C114.254 50.4445 114.145 51.2364 114.139 51.8499C114.123 53.2362 114.116 54.6226 114.118 56.009C114.174 63.3916 114.176 70.7742 114.126 78.1568L101.527 78.1469C101.471 78.0997 101.506 78.1362 101.46 78.0117C101.796 77.0622 102.312 76.1444 102.723 75.2219L105.488 69.0265L109.666 59.448C111.1 56.2394 112.619 53.0305 114.128 49.8555Z" fill="#FEFEFE"/>
<path d="M121.075 43.9045C123.979 43.8025 126.891 43.9386 129.795 43.8564C130.345 44.9823 130.538 46.8384 130.733 48.0876C131.379 52.2307 131.724 56.4301 131.375 60.6201C131.176 63.0002 130.719 65.3708 130.582 67.751C129.672 67.7519 127.543 67.59 126.793 67.8915C125.369 64.6194 123.951 61.3225 122.458 58.0827C120.679 54.2236 118.818 50.3835 117.275 46.4217C118.865 45.9229 119.97 45.1414 121.075 43.9045Z" fill="#CBE1DE"/>
<path d="M18.8554 43.4893C19.1594 43.6466 19.4319 43.777 19.773 43.8271C20.8183 43.9801 21.9748 43.8842 23.0324 43.8795L29.1663 43.8733C30.2888 45.1139 31.2176 45.8882 32.8087 46.4831C31.554 49.9066 29.9179 53.2302 28.3831 56.5375C26.6373 60.2994 24.9328 64.0996 23.2661 67.8968C22.6242 67.705 18.7243 67.8317 17.7737 67.8304C16.6378 61.4383 16.5312 55.4803 17.6111 49.0724C17.7913 48.0146 18.0157 46.9662 18.2843 45.9272C18.4813 45.1589 18.7617 44.3509 18.8481 43.5662C18.8509 43.5405 18.8531 43.5149 18.8554 43.4893Z" fill="#CBE1DE"/>
<path d="M96.2029 80.2898C100.128 80.183 104.076 80.2716 108.004 80.2663L134.233 80.2592C133.472 84.1898 131.621 87.5643 128.825 90.4285C126.21 93.1167 122.521 94.9085 118.861 95.6059C118.703 95.6351 118.545 95.6624 118.386 95.6878C118.228 95.7132 118.069 95.7366 117.91 95.7579C117.751 95.7794 117.591 95.7989 117.432 95.8164C117.272 95.8339 117.112 95.8494 116.952 95.863C116.792 95.8765 116.632 95.8882 116.472 95.8978C116.312 95.9074 116.151 95.9151 115.991 95.9208C115.831 95.9265 115.67 95.9302 115.51 95.9318C115.349 95.9336 115.189 95.9333 115.028 95.9311C114.867 95.9288 114.707 95.9246 114.547 95.9185C114.386 95.9122 114.226 95.9041 114.066 95.894C113.905 95.8839 113.745 95.8718 113.585 95.8577C113.426 95.8435 113.266 95.8275 113.106 95.8095C112.947 95.7914 112.787 95.7715 112.628 95.7496C112.469 95.7276 112.311 95.7037 112.152 95.6778C111.994 95.6519 111.836 95.6241 111.678 95.5945C111.52 95.5647 111.363 95.533 111.206 95.4994C111.049 95.4657 110.892 95.4301 110.736 95.3926C110.58 95.3551 110.425 95.3157 110.269 95.2744C110.114 95.2331 109.96 95.1899 109.806 95.1448C109.651 95.0996 109.498 95.0526 109.345 95.0037C109.192 94.9548 109.04 94.904 108.888 94.8513C108.737 94.7986 108.586 94.7441 108.435 94.6877C108.285 94.6313 108.135 94.573 107.987 94.513C107.838 94.4529 107.69 94.391 107.542 94.3274C107.395 94.2636 107.248 94.198 107.103 94.1306C106.957 94.0634 106.812 93.9943 106.668 93.9234C106.524 93.8525 106.381 93.7798 106.239 93.7054C106.096 93.6309 105.955 93.5547 105.815 93.4767C105.674 93.3989 105.535 93.3193 105.397 93.238C105.258 93.1566 105.121 93.0736 104.984 92.9888C104.848 92.904 104.713 92.8176 104.578 92.7295C104.444 92.6414 104.311 92.5517 104.179 92.4604C100.186 89.7102 97.0644 85.0781 96.2029 80.2898Z" fill="#8D79C6"/>
<path d="M15.7778 80.2813C18.2656 80.226 20.7652 80.2769 23.2545 80.2764L37.9324 80.2706L47.8765 80.2647C49.8142 80.2644 51.7792 80.2013 53.7123 80.3157C52.8617 84.538 51.2991 87.4609 48.27 90.5592C45.6813 93.167 41.944 94.9701 38.3543 95.6401C38.1951 95.6709 38.0355 95.6996 37.8756 95.7263C37.7156 95.753 37.5554 95.7778 37.3948 95.8005C37.2343 95.8233 37.0734 95.844 36.9123 95.8627C36.7513 95.8814 36.59 95.8982 36.4285 95.9129C36.2669 95.9276 36.1053 95.9402 35.9435 95.9508C35.7816 95.9615 35.6197 95.9701 35.4577 95.9768C35.2957 95.9834 35.1336 95.988 34.9715 95.9905C34.8093 95.9931 34.6472 95.9936 34.4851 95.9922C34.3229 95.9907 34.1608 95.9872 33.9987 95.9816C33.8366 95.976 33.6747 95.9685 33.5128 95.9589C33.3509 95.9493 33.1892 95.9377 33.0275 95.924C32.866 95.9105 32.7046 95.8948 32.5434 95.8772C32.3822 95.8596 32.2212 95.84 32.0606 95.8183C31.8999 95.7966 31.7395 95.7729 31.5794 95.7472C31.4192 95.7215 31.2594 95.6939 31.1 95.6642C30.9406 95.6345 30.7815 95.6028 30.6229 95.5693C30.4643 95.5356 30.3061 95.4999 30.1484 95.4623C29.9906 95.4247 29.8333 95.3852 29.6766 95.3437C29.5198 95.3022 29.3636 95.2587 29.208 95.2133C29.0523 95.1679 28.8972 95.1205 28.7427 95.0712C28.5882 95.0219 28.4344 94.9707 28.2812 94.9175C28.1279 94.8644 27.9754 94.8094 27.8235 94.7525C27.6718 94.6955 27.5207 94.6367 27.3703 94.5759C27.2199 94.5153 27.0703 94.4527 26.9215 94.3883C26.7728 94.3238 26.6248 94.2575 26.4776 94.1894C26.3305 94.1212 26.1842 94.0512 26.0388 93.9795C25.8934 93.9076 25.7489 93.8339 25.6053 93.7586C25.4618 93.6832 25.3192 93.606 25.1776 93.527C25.036 93.4481 24.8954 93.3673 24.7557 93.2848C24.6161 93.2023 24.4775 93.1181 24.34 93.0321C24.2025 92.9462 24.0661 92.8586 23.9307 92.7692C23.7954 92.6798 23.6612 92.5888 23.5282 92.4962C20.9795 90.7413 18.5549 88.0196 17.2553 85.1989C16.5542 83.6772 16.0828 81.9277 15.7778 80.2813Z" fill="#5EBFBD"/>
<path d="M82.5117 43.8792L109.911 43.8682C110.954 45.0102 111.832 45.7919 113.327 46.2951C112.214 48.4647 111.295 50.7778 110.304 53.0076L106.505 61.3975C105.54 63.5516 104.625 65.7424 103.617 67.8758C103.112 67.6166 81.7212 67.8175 79.3788 67.8187L79.3732 54.5829C79.3713 52.1233 79.4917 49.6115 79.3494 47.1573C80.6355 46.3079 81.7352 45.2189 82.5117 43.8792Z" fill="#CBE1DE"/>
<path d="M39.9769 43.8696L67.6027 43.8746C68.5387 45.2511 69.5112 46.267 70.874 47.2247C70.6907 49.619 70.817 52.0931 70.8186 54.4981L70.8256 67.8453C62.7005 67.7555 54.5753 67.749 46.45 67.8258C46.0663 66.9197 45.6174 66.038 45.2104 65.1415L42.7686 59.7053L36.7764 46.3577C38.1662 45.7622 39.0536 45.0655 39.9769 43.8696Z" fill="#CBE1DE"/>
</g>
<defs>
<clipPath id="clip0_47_2411">
<rect width="150" height="150" fill="white"/>
</clipPath>
</defs>
</svg>
