<svg width="150" height="150" viewBox="0 0 150 150" fill="none" xmlns="http://www.w3.org/2000/svg">
<g clip-path="url(#clip0_47_2451)">
<path d="M73.8279 149.932L109.908 149.928L119.477 149.93C121.311 149.935 123.168 149.987 124.999 149.937L125.016 150H73.8279H33.9443C34.8817 149.789 36.4207 149.925 37.4181 149.925L44.7893 149.921L73.8279 149.932Z" fill="#4E5072"/>
<path d="M126.192 113.852C126.369 113.87 126.522 113.887 126.692 113.819C127.81 113.363 130.142 110.452 131.269 109.538L131.254 137.766L126.183 137.765L126.192 113.852Z" fill="#FEFEFE"/>
<path d="M37.3491 12.7978C41.5497 12.7268 45.7608 12.7886 49.9625 12.7875L71.2928 12.7654L131.318 12.7437L131.269 109.537C130.142 110.452 127.81 113.363 126.692 113.818C126.522 113.887 126.369 113.87 126.192 113.852L126.196 51.2954C126.216 44.3802 126.194 37.4651 126.13 30.55L126.128 23.8298C126.129 22.6054 126.185 21.3502 126.102 20.1293C126.073 19.6878 125.963 19.2883 125.64 18.9679C125.33 18.6606 124.922 18.5477 124.496 18.5269C123.483 18.4774 122.448 18.5236 121.432 18.5254L115.398 18.5354L95.7913 18.5742L37.3523 18.6105L37.3491 12.7978Z" fill="url(#paint0_linear_47_2451)"/>
<path d="M64.285 0H65.6475C66.1839 0.267305 66.6197 0.497462 66.9789 1.00183C67.0298 1.0745 67.077 1.14952 67.1205 1.22688C67.164 1.30424 67.2035 1.38356 67.2392 1.46484C67.2747 1.54612 67.3062 1.62896 67.3337 1.71337C67.3611 1.79777 67.3843 1.88333 67.4031 1.97002C67.422 2.05672 67.4367 2.14415 67.4469 2.2323C67.4572 2.32045 67.463 2.40889 67.4645 2.49762C67.466 2.58635 67.4632 2.67494 67.4558 2.76338C67.4485 2.85182 67.4368 2.93968 67.4208 3.02697C67.2984 3.71751 66.9034 4.35442 66.3058 4.73054C65.7052 5.10864 64.9867 5.14926 64.3137 4.96263C63.6494 4.77835 63.0162 4.39039 62.6944 3.7615C62.3783 3.14382 62.3982 2.3562 62.621 1.71233C62.9242 0.836361 63.481 0.380045 64.285 0Z" fill="#F1D161"/>
<path d="M9.41671 121.423C9.56762 121.577 9.99022 124.155 10.1534 124.676C10.3683 125.362 10.6562 126.039 11.0663 126.633C11.464 127.208 11.9554 127.641 12.492 128.084C10.5668 129.645 9.80563 131.93 9.47731 134.313C9.27455 133.837 9.25056 133.21 9.12259 132.701C8.68624 130.966 7.77162 129.255 6.34961 128.146C8.52562 126.155 8.9519 124.253 9.41671 121.423Z" fill="#F1D161"/>
<path d="M141.037 4.43115C141.257 4.86688 141.211 5.4953 141.311 5.97788C141.772 8.19855 142.567 9.80008 144.33 11.2408C144.28 11.2697 144.229 11.2976 144.181 11.3292C142.001 12.7544 141.581 15.0915 141.123 17.4803C141.077 17.4761 141.027 17.4888 140.986 17.4677C140.929 17.4378 140.571 15.608 140.509 15.3769C140.055 13.6941 139.255 12.2812 137.916 11.159C140.012 9.30034 140.685 7.1405 141.037 4.43115Z" fill="#F1D161"/>
<path d="M150 75.0431C149.721 75.5347 149.453 75.9343 148.995 76.2835C148.262 76.8405 147.285 76.9833 146.391 76.8533C145.509 76.7252 144.785 76.211 144.272 75.4929C143.766 74.784 143.6 73.9569 143.769 73.1035C143.78 73.0463 143.793 72.9894 143.808 72.9328C143.822 72.8763 143.838 72.8201 143.855 72.7644C143.872 72.7086 143.89 72.6533 143.91 72.5984C143.93 72.5436 143.951 72.4893 143.974 72.4354C143.996 72.3816 144.02 72.3283 144.045 72.2757C144.07 72.2231 144.096 72.1711 144.124 72.1197C144.152 72.0683 144.181 72.0176 144.211 71.9676C144.241 71.9177 144.272 71.8686 144.305 71.8201C144.337 71.7718 144.371 71.7242 144.406 71.6775C144.441 71.6307 144.477 71.5848 144.514 71.5399C144.551 71.4949 144.589 71.4509 144.629 71.4078C144.668 71.3646 144.708 71.3225 144.75 71.2814C144.791 71.2403 144.833 71.2002 144.877 71.1613C144.92 71.1222 144.964 71.0842 145.01 71.0473C145.055 71.0105 145.101 70.9748 145.148 70.9402C145.195 70.9055 145.243 70.8721 145.291 70.8399C145.336 70.8106 145.382 70.7824 145.428 70.7553C145.475 70.7283 145.522 70.7025 145.569 70.6779C145.617 70.6531 145.665 70.6297 145.714 70.6074C145.763 70.5851 145.812 70.5641 145.862 70.5443C145.912 70.5244 145.962 70.5059 146.013 70.4886C146.064 70.4713 146.115 70.4553 146.166 70.4405C146.218 70.4258 146.27 70.4123 146.322 70.4001C146.375 70.388 146.427 70.3772 146.48 70.3676C146.533 70.3581 146.586 70.3499 146.639 70.343C146.692 70.3362 146.745 70.3306 146.799 70.3264C146.853 70.3221 146.907 70.3193 146.96 70.3178C147.014 70.3162 147.067 70.316 147.12 70.3171C147.174 70.3182 147.227 70.3207 147.281 70.3245C147.335 70.3283 147.388 70.3335 147.442 70.3399C147.495 70.3465 147.548 70.3543 147.6 70.3634C147.653 70.3725 147.706 70.383 147.759 70.3947C148.778 70.616 149.449 71.2467 150 72.0879V75.0431Z" fill="#5EBFBD"/>
<path d="M6.91156 69.2452C7.87962 68.9597 8.88027 68.95 9.78614 69.4608C10.5994 69.9196 11.1767 70.7198 11.4049 71.621C11.4188 71.6771 11.4313 71.7335 11.4423 71.7903C11.4533 71.8471 11.4629 71.9041 11.471 71.9613C11.479 72.0185 11.4856 72.0759 11.4907 72.1334C11.4958 72.191 11.4994 72.2487 11.5016 72.3066C11.5037 72.3643 11.5043 72.422 11.5035 72.4798C11.5026 72.5377 11.5002 72.5954 11.4964 72.653C11.4925 72.7107 11.4872 72.7683 11.4804 72.8257C11.4735 72.8831 11.4652 72.9403 11.4554 72.9972C11.4456 73.0542 11.4344 73.1109 11.4217 73.1673C11.409 73.2236 11.3948 73.2796 11.3792 73.3353C11.3636 73.391 11.3465 73.4462 11.328 73.501C11.3096 73.5558 11.2897 73.61 11.2684 73.6637C11.2471 73.7174 11.2245 73.7706 11.2004 73.8233C11.1764 73.8758 11.151 73.9277 11.1243 73.979C11.0976 74.0302 11.0696 74.0808 11.0403 74.1306C11.0109 74.1804 10.9803 74.2294 10.9485 74.2776C10.4721 75.0095 9.74718 75.4894 8.89435 75.6678C7.98563 75.8579 7.06971 75.7106 6.29965 75.1834C5.98878 74.9707 5.74597 74.7175 5.50105 74.4356C5.47597 74.3951 5.4504 74.3551 5.42582 74.3144C5.39501 74.2639 5.36547 74.2127 5.33721 74.1606C5.30896 74.1087 5.28201 74.056 5.25638 74.0027C5.23074 73.9494 5.20645 73.8954 5.18352 73.8408C5.16057 73.7863 5.13899 73.7313 5.1188 73.6756C5.09859 73.62 5.07979 73.564 5.06239 73.5074C5.04499 73.4509 5.029 73.394 5.01443 73.3366C4.99986 73.2792 4.98673 73.2215 4.97504 73.1635C4.96334 73.1055 4.9531 73.0472 4.94431 72.9887C4.93552 72.9302 4.92819 72.8715 4.92233 72.8127C4.91647 72.7538 4.91207 72.6948 4.90914 72.6357C4.90622 72.5766 4.90477 72.5175 4.90479 72.4583C4.9048 72.3991 4.9063 72.34 4.90927 72.2809C4.91224 72.2218 4.91667 72.1629 4.92258 72.104C4.92849 72.0451 4.93586 71.9864 4.94469 71.9279C4.95353 71.8694 4.96381 71.8111 4.97554 71.7531C4.98728 71.6951 5.00045 71.6375 5.01506 71.5801C5.29556 70.5093 5.99667 69.8047 6.91156 69.2452Z" fill="#5EBFBD"/>
<path d="M99.3293 0H100.296C100.468 0.0497732 100.639 0.102452 100.809 0.158038C101.673 0.443213 102.387 1.02897 102.784 1.85563C103.174 2.6684 103.235 3.67175 102.93 4.52165C102.621 5.38421 101.948 6.12519 101.106 6.49286C100.298 6.84558 99.3535 6.87215 98.5416 6.51771C97.6986 6.1496 96.9971 5.40309 96.6769 4.54107C96.3609 3.69042 96.4873 2.63089 96.887 1.83406C97.421 0.768984 98.2485 0.337286 99.3293 0Z" fill="#5EBFBD"/>
<path d="M6.02347 12.0742L6.04245 12.1572C6.26354 13.1689 6.31034 14.2284 6.4816 15.2529C7.24267 19.806 8.55901 22.9303 12.076 26.0306C9.02909 29.0286 7.4262 31.5998 6.56697 35.8461C6.35591 36.8892 6.27322 37.9596 6.04745 38.9964C5.32334 34.0395 4.14702 29.3951 0 26.1368V26.0567C4.3654 22.4196 5.45745 17.4485 6.02347 12.0742Z" fill="#5EBFBD"/>
<path d="M27.2915 21.6879L123.001 21.6802C123.15 31.6079 123.048 41.5508 123.045 51.4802L123.059 106.612L123.086 135.397L123.083 142.981C123.085 144.236 123.208 145.62 123.037 146.856L27.2689 146.849C27.1592 138.052 27.2426 129.247 27.2448 120.45L27.2454 73.6139L27.2476 39.8825L27.2603 28.6512C27.2618 26.3327 27.2219 24.0055 27.2915 21.6879Z" fill="#FEFEFE"/>
<path d="M105.992 69.7002C106.211 70.3979 106.036 75.2093 106.053 76.3361L112.77 76.3332L112.775 80.1264C110.524 80.1086 108.273 80.1054 106.021 80.1167C106.044 76.6453 105.901 73.1714 105.992 69.7002Z" fill="#8D79C6"/>
<path d="M105.991 95.0165C105.933 93.9519 106.023 92.8537 106.024 91.7848L105.976 86.0174L105.976 82.2075C105.977 81.523 105.93 80.7936 106.021 80.1167C106.125 81.2033 106.056 82.3406 106.054 83.4341L106.054 89.9101C108.296 89.8844 110.544 89.9332 112.786 89.8875L112.775 93.6379C110.535 93.6628 108.296 93.6725 106.056 93.6668C106.049 94.1139 106.069 94.5756 105.991 95.0165Z" fill="#8D79C6"/>
<path d="M44.0969 76.3979L44.0953 71.9575C44.0947 71.0659 44.044 70.1464 44.1393 69.2607C44.3142 72.1875 44.1409 75.179 44.1324 78.1122C44.1217 81.806 44.2056 85.5001 44.17 89.1951C44.1535 90.9189 44.0446 92.6457 44.0086 94.3709C43.9557 94.0963 43.9578 93.8029 43.9427 93.5237L37.3891 93.5196C37.3128 92.3292 37.3557 91.1172 37.3559 89.924L44.1015 89.8913C44.1177 86.6192 44.1167 83.3472 44.0987 80.0752L37.3271 80.0518L37.331 76.4079L44.0969 76.3979Z" fill="#8D79C6"/>
<path d="M79.4297 61.9804L98.2736 61.9724C103.098 61.9709 107.937 61.8858 112.76 61.9889L112.77 65.585L91.0005 65.6557C89.3676 65.661 87.7347 65.6572 86.1018 65.6443C85.3573 65.6402 84.4966 65.5523 83.7656 65.6691C82.4896 65.0396 80.4022 63.1012 79.4297 61.9804Z" fill="#8D79C6"/>
<path d="M37.3232 62.0053C40.4848 62.0666 43.6556 62.0214 46.8181 62.0209L70.8417 61.9839C69.4588 63.3841 68.0877 64.5635 66.4914 65.7159C66.2151 65.5711 40.3197 65.7059 37.3341 65.71L37.3232 62.0053Z" fill="#8D79C6"/>
<path d="M37.276 34.2192L112.782 34.2583C112.769 35.4951 112.779 36.7326 112.781 37.9694C110.068 37.8891 107.341 37.947 104.627 37.9461L89.9354 37.9388L37.3015 37.9417C37.257 36.7042 37.281 35.4578 37.276 34.2192Z" fill="#8D79C6"/>
<path d="M37.3118 48.1001L59.8776 48.1187L112.772 48.1408L112.769 51.8495L37.3027 51.8541L37.3118 48.1001Z" fill="#8D79C6"/>
<path d="M103.961 104.936C105.415 104.979 106.871 104.951 108.325 104.944C109.172 104.941 110.131 104.84 110.955 105.03C111.482 105.152 111.98 105.486 112.341 105.883C112.663 106.236 112.848 106.609 112.903 107.084C113.064 108.491 112.942 110.042 112.938 111.463L112.913 119.942L112.878 129.635C112.878 131.286 112.977 132.989 112.875 134.633C112.825 135.446 112.442 136.054 111.836 136.582C111.447 136.922 111.05 137.091 110.533 137.12C108.905 137.209 107.256 137.154 105.625 137.153L97.3353 137.152L70.9678 137.126L49.4699 137.127L43.5049 137.114C42.4016 137.114 41.2547 137.173 40.1574 137.085C39.2998 137.016 38.571 136.807 38.006 136.107C37.6356 135.647 37.463 135.082 37.4075 134.502C37.2625 132.989 37.4144 131.408 37.4132 129.886C37.3863 126.861 37.3783 123.837 37.389 120.812L37.412 111.838C37.4157 110.44 37.2843 108.897 37.4609 107.516C37.5576 106.762 37.8855 106.117 38.4893 105.64C38.8215 105.378 39.193 105.234 39.6068 105.156C40.3704 105.012 41.1986 105.073 41.9725 105.077C43.3501 105.084 44.745 105.125 46.1204 105.057C46.3872 105.795 46.6728 106.525 46.9773 107.248C51.3295 117.568 60.0676 125.275 69.4164 131.056C71.2306 132.178 73.0959 133.514 75.0689 134.316C75.2433 134.251 75.4152 134.18 75.5845 134.103C77.809 133.09 80.773 131.114 82.8403 129.743C92.4695 123.354 99.9304 115.961 103.961 104.936Z" fill="#F1D161"/>
<path d="M70.8419 61.9837C72.1104 60.7432 73.1451 59.2663 74.0416 57.7392C74.3899 57.1458 74.6964 56.5184 75.0696 55.9414C76.2958 58.0082 77.5928 60.3992 79.4297 61.9804C80.4022 63.1011 82.4896 65.0395 83.7657 65.669C90.4021 70.5015 97.9271 70.964 105.795 69.7316L105.992 69.7001C105.901 73.1713 106.045 76.6452 106.022 80.1166C105.931 80.7935 105.977 81.5229 105.977 82.2074L105.976 86.0173L106.025 91.7847C106.023 92.8536 105.934 93.9518 105.991 95.0164C105.877 98.2544 105.066 101.894 103.961 104.936C99.9305 115.961 92.4696 123.354 82.8405 129.742C80.7731 131.114 77.8092 133.089 75.5847 134.103C75.4153 134.18 75.2435 134.251 75.069 134.316C73.096 133.514 71.2307 132.178 69.4165 131.056C60.0677 125.275 51.3296 117.568 46.9774 107.248C46.6729 106.525 46.3873 105.795 46.1205 105.057C44.8977 101.566 44.156 98.0757 44.0088 94.371C44.0448 92.6457 44.1537 90.9189 44.1702 89.1951C44.2058 85.5002 44.1219 81.806 44.1326 78.1123C44.1411 75.179 44.3144 72.1875 44.1395 69.2608C45.1972 69.5546 46.2913 69.7839 47.3728 69.9729C53.7362 71.0848 61.1872 69.4449 66.4917 65.7157C68.088 64.5633 69.4591 63.384 70.8419 61.9837Z" fill="#101055"/>
<path d="M75.043 62.3949L75.1419 62.3968L75.1349 62.4309L75.2229 62.3833L75.2415 62.4954C80.3349 68.5705 87.7028 72.9234 95.6773 73.6179C97.9586 73.8167 100.2 73.7332 102.477 73.5223L102.53 88.286C102.538 91.2995 102.706 94.3985 102.288 97.3872C101.177 105.334 97.0012 112.902 91.3451 118.52C87.1784 122.658 82.921 125.694 77.9436 128.762C77.2349 129.199 75.7488 130.242 74.9707 130.341C73.6092 129.673 72.2978 128.829 71.0184 128.019C69.9132 127.333 68.8273 126.617 67.7607 125.872C66.6942 125.127 65.6485 124.354 64.6237 123.552C63.599 122.75 62.5966 121.922 61.6166 121.066C60.6366 120.211 59.6804 119.329 58.748 118.422C53.328 113.073 48.9968 105.639 47.8425 98.047C47.3452 94.7757 47.5268 91.4795 47.5463 88.183C47.5984 83.2673 47.6233 78.3514 47.621 73.4354C49.2451 73.5967 50.8312 73.778 52.4685 73.7228C60.1848 73.4624 67.1979 70.3277 72.7355 65.0058C73.5739 64.2 74.25 63.2435 75.043 62.3949Z" fill="#5EBFBD"/>
<path d="M75.0288 96.5302L83.5599 88.0176C84.0998 87.4794 84.6586 86.9561 85.1815 86.4018C85.7573 85.7913 86.321 85.0893 86.9649 84.5575C87.3411 84.2469 87.7874 83.987 88.2901 83.9979C88.7479 84.0077 89.1481 84.2626 89.4421 84.5999C89.7055 84.9023 89.8654 85.2758 89.8307 85.6814C89.7957 86.0887 89.5801 86.4473 89.3234 86.755C88.751 87.4409 88.0451 88.0592 87.4143 88.6929L83.2418 92.8663L77.4956 98.6394C76.6419 99.4918 75.8045 100.404 74.911 101.211C73.9184 102.039 70.312 106.285 69.4561 106.414C69.1016 106.467 68.7242 106.391 68.4352 106.176C67.548 105.518 65.9397 103.717 65.0854 102.853C63.9932 101.749 62.7566 100.679 61.765 99.4918C61.5644 99.2516 61.3878 99.0216 61.3467 98.7035C61.2893 98.2595 61.447 97.8288 61.727 97.4868C62.022 97.1261 62.4238 96.8884 62.8915 96.8517C63.2268 96.8255 63.5255 96.9181 63.8053 97.1011C64.3972 97.4879 64.9487 98.1061 65.4502 98.6056C66.7082 99.8591 67.918 101.212 69.2519 102.382C71.23 100.484 73.1173 98.4947 75.0288 96.5302Z" fill="#FEFEFE"/>
<path d="M75.043 62.395C75.1191 63.0738 74.9585 63.8366 74.9443 64.5286C74.909 66.2451 74.9332 67.9664 74.9343 69.6835L74.9575 89.7376C74.9532 91.0819 74.7663 95.5324 75.0291 96.5304C73.1176 98.4949 71.2303 100.484 69.2522 102.382C67.9183 101.212 66.7085 99.8593 65.4505 98.6058C64.9491 98.1063 64.3976 97.4881 63.8056 97.1013C63.5258 96.9183 63.2272 96.8257 62.8919 96.852C62.4241 96.8886 62.0223 97.1263 61.7273 97.487C61.4474 97.829 61.2896 98.2597 61.347 98.7037C61.3882 99.0218 61.5647 99.2518 61.7654 99.492C62.7569 100.679 63.9936 101.749 65.0857 102.854C65.94 103.718 67.5483 105.518 68.4356 106.177C68.7246 106.391 69.1019 106.467 69.4564 106.414C70.3123 106.286 73.9188 102.039 74.9113 101.212C74.9821 108.051 75.0098 114.891 74.9944 121.73L74.9881 127.521C74.989 128.432 75.0745 129.439 74.9707 130.341C73.6092 129.673 72.2978 128.829 71.0184 128.019C69.9132 127.333 68.8273 126.617 67.7607 125.872C66.6942 125.127 65.6485 124.354 64.6237 123.552C63.599 122.751 62.5966 121.922 61.6166 121.066C60.6366 120.211 59.6804 119.329 58.748 118.422C53.328 113.073 48.9968 105.639 47.8425 98.0471C47.3452 94.7758 47.5268 91.4796 47.5463 88.1832C47.5984 83.2674 47.6233 78.3516 47.621 73.4355C49.2451 73.5968 50.8312 73.7782 52.4685 73.7229C60.1848 73.4625 67.1979 70.3279 72.7355 65.006C73.5739 64.2001 74.25 63.2436 75.043 62.395Z" fill="#A4D8D5"/>
</g>
<defs>
<linearGradient id="paint0_linear_47_2451" x1="100.959" y1="117.983" x2="82.6167" y2="5.53158" gradientUnits="userSpaceOnUse">
<stop stop-color="#DBF2EE"/>
<stop offset="1" stop-color="white"/>
</linearGradient>
<clipPath id="clip0_47_2451">
<rect width="150" height="150" fill="white"/>
</clipPath>
</defs>
</svg>
