<svg width="150" height="150" viewBox="0 0 150 150" fill="none" xmlns="http://www.w3.org/2000/svg">
<g clip-path="url(#clip0_47_2074)">
<path d="M0 0H14.4049H15.4006H150V73.8621V79.9478V150H0V0Z" fill="white"/>
<path d="M134.251 127.676C134.423 127.657 134.595 127.643 134.768 127.634C135.146 127.618 135.526 127.771 135.797 128.035C136.398 128.622 136.35 129.596 136.359 130.367C137.191 130.348 138.042 130.269 138.687 130.907C138.962 131.179 139.139 131.557 139.135 131.947C139.13 132.352 138.955 132.722 138.655 132.992C138.015 133.57 137.095 133.392 136.303 133.358C136.306 133.762 136.334 134.205 136.272 134.603C136.18 135.195 135.896 135.575 135.411 135.909C135.248 135.957 135.081 135.986 134.911 135.996C134.544 136.019 134.119 135.905 133.85 135.646C133.249 135.068 133.294 134.17 133.288 133.407C132.506 133.407 131.742 133.442 131.14 132.846C130.861 132.57 130.691 132.192 130.715 131.796C130.74 131.396 130.953 131.028 131.258 130.775C131.866 130.269 132.56 130.277 133.298 130.359C133.288 129.916 133.247 129.424 133.318 128.989C133.422 128.361 133.742 128.027 134.251 127.676Z" fill="#4BBEB1"/>
<path d="M14.4049 0H15.4006C15.6045 0.138236 15.8342 0.273368 16.0056 0.451247C16.5684 1.03554 16.4566 2.09495 16.4733 2.84663C17.31 2.90118 18.2412 2.88623 18.8821 3.51948C19.1226 3.75712 19.2984 4.07309 19.2924 4.4186C19.2863 4.76615 19.0898 5.0883 18.8434 5.32197C18.1659 5.96433 17.3815 5.92853 16.514 5.91297C16.5019 6.67141 16.592 7.51162 16.095 8.14438C15.8462 8.46111 15.4988 8.68588 15.0924 8.72543C14.7146 8.76217 14.3358 8.62 14.0517 8.37371C13.3341 7.75151 13.3503 6.72457 13.3156 5.85664C12.571 5.86674 11.7634 5.9417 11.1672 5.39791C10.8849 5.1404 10.7338 4.79834 10.7418 4.41551C10.7507 3.98442 10.9643 3.53726 11.2825 3.24847C11.8213 2.75946 12.7294 2.89044 13.3954 2.9157C13.4001 2.45622 13.4123 1.9847 13.4692 1.52848C13.5537 0.850474 13.873 0.405104 14.4049 0Z" fill="#8FE2E4"/>
<path d="M4.25462 122.754C4.45803 122.75 4.67191 122.74 4.87224 122.78C5.51225 122.908 5.87494 123.371 6.21653 123.88C6.25142 124.465 6.21728 125.062 6.20751 125.647C6.65738 125.667 7.13291 125.645 7.57715 125.713C8.01577 125.779 8.48881 126.035 8.75219 126.396C8.7806 126.436 8.8069 126.476 8.83109 126.518C8.85529 126.56 8.87723 126.603 8.89693 126.647C8.91664 126.692 8.934 126.737 8.94901 126.783C8.96402 126.829 8.97659 126.876 8.98674 126.923C8.9969 126.971 9.00456 127.018 9.00974 127.067C9.01493 127.115 9.0176 127.163 9.01775 127.211C9.01791 127.26 9.01556 127.308 9.01069 127.356C9.00583 127.405 8.99848 127.453 8.98863 127.5C8.87267 128.088 8.51345 128.367 8.04504 128.683C7.45033 128.767 6.82922 128.741 6.22908 128.747C6.23915 129.303 6.31583 129.981 6.14112 130.515C5.98558 130.99 5.65204 131.219 5.23103 131.448C5.072 131.492 4.9156 131.523 4.75006 131.524C4.36403 131.527 3.94202 131.382 3.67104 131.101C3.05694 130.465 3.12701 129.56 3.14308 128.749C2.43107 128.75 1.42538 128.845 0.886737 128.29C0.467366 127.858 0.491944 127.304 0.516905 126.749C0.632158 126.549 0.76022 126.347 0.916898 126.178C1.48079 125.567 2.36471 125.663 3.11982 125.659C3.10591 125.055 3.02001 124.324 3.2125 123.748C3.38975 123.218 3.76952 122.979 4.25462 122.754Z" fill="#4BBEB1"/>
<path d="M113.234 0.407227C113.416 0.43449 113.545 0.428824 113.672 0.582792C114.013 0.994969 114.152 2.10986 114.347 2.64693C114.546 3.19202 114.817 3.72758 115.152 4.20137C116.234 5.72927 118.261 5.45325 119.11 6.40979C119.05 6.90203 116.319 7.77166 115.769 8.18557C114.699 8.99116 114.341 10.1832 113.954 11.3977C113.838 11.7619 113.752 12.1328 113.526 12.4465C113.304 12.3788 113.136 12.3298 113 12.1284C112.842 11.8954 112.756 11.5014 112.663 11.2306C112.347 10.315 111.976 9.3961 111.329 8.65733C110.487 7.6954 108.95 7.57084 107.946 6.86291C107.726 6.70801 107.601 6.57235 107.556 6.30522C108.189 5.59231 110.456 5.40925 111.435 4.42735C112.742 3.11513 112.442 1.26456 113.234 0.407227Z" fill="#F2D261"/>
<path d="M109.723 27.2266C111.909 27.5484 113.931 28.169 116.012 28.8959C125.303 32.1404 133.924 38.3208 139.803 46.2367C140.09 46.6178 140.371 47.0027 140.648 47.3916C140.924 47.7806 141.195 48.1733 141.46 48.5698C141.725 48.9663 141.985 49.3664 142.239 49.7702C142.493 50.1739 142.741 50.5812 142.984 50.9919C143.226 51.4026 143.463 51.8167 143.694 52.2341C143.925 52.6515 144.15 53.072 144.369 53.4956C144.589 53.9192 144.802 54.3459 145.009 54.7756C145.216 55.2052 145.418 55.6376 145.613 56.073C145.808 56.5083 145.997 56.9461 146.18 57.3867C146.363 57.8273 146.54 58.2704 146.71 58.7159C146.881 59.1614 147.045 59.6092 147.202 60.0593C147.36 60.5095 147.512 60.9617 147.658 61.416C147.803 61.8704 147.942 62.3268 148.074 62.7851C148.207 63.2433 148.333 63.7033 148.452 64.1651C148.572 64.6269 148.685 65.0903 148.792 65.5552C148.898 66.0202 148.998 66.4865 149.092 66.9543C149.349 68.2513 149.546 69.5572 149.685 70.872C149.783 71.8256 149.732 72.9522 150 73.8624V79.948C149.996 79.9749 149.99 80.0017 149.985 80.0286C149.804 81.0723 149.813 82.1739 149.71 83.2308C149.529 85.1002 149.232 86.9508 148.817 88.7825C148.727 89.1756 148.632 89.5676 148.532 89.9585C148.434 90.3493 148.331 90.739 148.223 91.1276C148.115 91.5161 148.002 91.9033 147.885 92.2894C147.769 92.6753 147.648 93.0599 147.522 93.4431C147.397 93.8263 147.267 94.208 147.132 94.5881C146.998 94.9684 146.859 95.3471 146.716 95.7241C146.573 96.1012 146.426 96.4766 146.275 96.8503C146.124 97.224 145.968 97.596 145.808 97.9661C145.648 98.3362 145.484 98.7044 145.315 99.0709C145.147 99.4373 144.974 99.8017 144.797 100.164C144.621 100.526 144.44 100.887 144.255 101.245C144.07 101.604 143.881 101.96 143.688 102.314C143.495 102.668 143.298 103.019 143.096 103.369C142.895 103.718 142.69 104.066 142.481 104.41C142.272 104.755 142.059 105.098 141.842 105.438C141.625 105.777 141.405 106.115 141.18 106.45C140.955 106.785 140.727 107.117 140.495 107.447C140.263 107.776 140.027 108.103 139.787 108.428C139.547 108.752 139.304 109.073 139.057 109.392C138.81 109.711 138.559 110.027 138.305 110.34C138.051 110.653 137.793 110.963 137.532 111.27C137.271 111.577 137.006 111.881 136.738 112.182C136.469 112.483 136.198 112.781 135.923 113.076C135.648 113.371 135.369 113.663 135.087 113.951C134.806 114.24 134.521 114.525 134.232 114.807C133.944 115.089 133.653 115.367 133.358 115.643C133.064 115.918 132.766 116.19 132.465 116.458C132.164 116.727 131.86 116.992 131.553 117.254C131.247 117.515 130.937 117.773 130.624 118.028C130.311 118.282 129.996 118.533 129.677 118.78C129.359 119.028 129.037 119.271 128.713 119.511C128.389 119.751 128.062 119.987 127.733 120.22C126.967 120.772 126.185 121.302 125.388 121.809C124.591 122.316 123.781 122.8 122.956 123.26C122.131 123.721 121.294 124.157 120.445 124.57C119.595 124.982 118.734 125.37 117.862 125.732C117.111 126.046 116.327 126.407 115.538 126.607C117.734 123.031 118.404 119.069 117.642 114.957C117.425 114.111 117.166 113.285 116.896 112.455C115.184 108.437 113.238 106.688 109.789 104.221L109.786 88.207C109.687 86.7845 109.691 85.3073 109.769 83.8844C109.682 82.1871 109.764 80.4517 109.774 78.7511L109.767 70.8278L109.725 39.6335C109.698 38.794 109.717 37.9482 109.716 37.1081C109.737 33.8198 109.806 30.5138 109.723 27.2266Z" fill="#8FE2E4"/>
<path d="M109.716 37.1079C110.738 37.1986 111.808 37.6442 112.771 37.9943C116.646 39.4027 120.119 41.2146 123.525 43.5295C124.205 43.9919 125.067 44.4676 125.591 45.1139C125.796 45.3663 125.916 45.6658 125.875 45.9942C125.833 46.3342 125.617 46.63 125.342 46.825C125.302 46.8535 125.261 46.8799 125.219 46.9042C125.177 46.9285 125.133 46.9506 125.089 46.9706C125.044 46.9905 124.999 47.0081 124.952 47.0233C124.906 47.0385 124.859 47.0514 124.811 47.062C124.763 47.0724 124.715 47.0804 124.667 47.086C124.618 47.0916 124.569 47.0946 124.521 47.0952C124.472 47.0958 124.423 47.0939 124.374 47.0896C124.326 47.0853 124.278 47.0784 124.23 47.0691C124.131 47.0501 124.034 47.0219 123.941 46.9846C123.847 46.9474 123.758 46.9017 123.673 46.8475C123.015 46.4309 122.406 45.8735 121.769 45.4156C120.544 44.5309 119.265 43.7324 117.931 43.0202C116.445 42.2152 114.91 41.4619 113.325 40.8711C112.136 40.4278 110.909 40.0817 109.725 39.6333C109.698 38.7938 109.717 37.948 109.716 37.1079Z" fill="white"/>
<path d="M109.769 83.8841C110.569 82.8148 111.485 81.8364 112.344 80.8155C113.635 79.2733 114.902 77.7117 116.145 76.131L123.5 66.9291C124.798 65.2837 125.998 63.5187 127.381 61.9463C127.686 61.6006 128.039 61.2208 128.518 61.1529C128.807 61.1121 129.123 61.1875 129.357 61.3634C129.662 61.5937 129.916 61.9847 129.941 62.3723C129.962 62.695 129.827 62.9424 129.653 63.2031C128.692 64.6356 127.416 65.9133 126.353 67.278L114.984 81.591L111.244 86.3467C110.766 86.966 110.215 87.5534 109.786 88.2067C109.687 86.7842 109.69 85.307 109.769 83.8841Z" fill="white"/>
<path d="M116.896 112.454C118.3 111.56 119.752 110.752 121.129 109.812C126.728 105.987 130.829 101.523 134.007 95.5249C134.452 94.7001 134.862 93.8582 135.238 92.9992C135.613 92.1402 135.952 91.2671 136.254 90.3797C136.626 89.2628 136.898 87.0632 137.476 86.1871C137.766 85.746 138.292 85.5853 138.799 85.6873C139.123 85.7523 139.405 85.9339 139.578 86.2178C140.111 87.0919 139.459 88.7404 139.198 89.6661C136.849 97.9962 131.346 105.544 124.409 110.677C122.152 112.347 119.97 113.478 117.642 114.956C117.425 114.11 117.166 113.284 116.896 112.454Z" fill="white"/>
<path d="M109.668 132.035C109.611 134.734 109.647 137.442 109.646 140.141C109.645 141.676 109.808 143.396 109.458 144.89C109.238 145.832 108.762 146.679 108.115 147.394C106.972 148.66 105.456 149.328 103.764 149.416C102.007 149.509 100.21 149.443 98.4486 149.446L88.6574 149.459L57.3509 149.448L30.9973 149.458L23.5652 149.423C22.0184 149.416 20.431 149.474 18.8916 149.322C18.7392 149.306 18.5877 149.285 18.437 149.257C18.2864 149.229 18.137 149.195 17.9891 149.156C17.8411 149.116 17.695 149.071 17.5508 149.02C17.4065 148.968 17.2645 148.911 17.1248 148.847C16.9852 148.785 16.8483 148.716 16.7141 148.642C16.5799 148.569 16.4489 148.49 16.3211 148.405C16.1933 148.321 16.0692 148.231 15.9486 148.137C15.828 148.042 15.7114 147.943 15.5988 147.839C14.3774 146.73 13.6791 145.361 13.616 143.708C13.5253 141.33 13.617 138.912 13.6194 136.53L13.609 121.801L13.5467 67.3425L13.5519 34.3441L13.5475 24.3877C13.5433 22.6088 13.4239 20.7391 13.5773 18.9707C13.6926 17.6421 14.2141 16.4672 15.1299 15.4933C16.2581 14.2934 17.7141 13.6733 19.3479 13.6212C21.4739 13.5534 23.6192 13.6139 25.7476 13.6123L38.3982 13.6003L75.4463 13.5963L95.1888 13.5877L101.04 13.5755C102.141 13.5726 103.283 13.5088 104.378 13.6169C105.652 13.7428 106.908 14.3931 107.83 15.2676C109.943 17.2716 109.681 19.6989 109.68 22.356C109.673 23.9796 109.687 25.603 109.723 27.2263C109.806 30.5135 109.736 33.8196 109.716 37.1078C109.717 37.9479 109.698 38.7937 109.724 39.6332L109.767 70.8275L109.773 78.7509C109.764 80.4514 109.681 82.1868 109.769 83.8841C109.691 85.3071 109.687 86.7842 109.786 88.2067L109.789 104.221C113.238 106.688 115.184 108.437 116.895 112.454C117.166 113.284 117.425 114.11 117.642 114.956C118.404 119.069 117.734 123.031 115.537 126.607C115.062 127.162 114.668 127.801 114.189 128.362C112.873 129.903 111.35 130.947 109.668 132.035Z" fill="#101055"/>
<path d="M99.1313 16.1333C100.605 16.1278 103.355 15.9322 104.66 16.2779C105.238 16.431 105.775 16.7213 106.197 17.1477C106.758 17.7146 107.029 18.4679 107.102 19.2505C107.192 20.2107 107.146 21.2139 107.149 22.1792L107.161 27.1031L107.166 43.9985L107.221 103.311C104.868 102.756 102.604 102.359 100.177 102.734C100.125 100.136 100.175 97.5359 100.159 94.9368L100.142 70.404L100.117 16.1859C99.7836 16.189 99.4628 16.1694 99.1313 16.1333Z" fill="#F2D261"/>
<path d="M99.903 133.632C102.396 133.886 104.646 133.73 107.077 133.096L107.105 140.404C107.11 141.717 107.274 143.274 107.005 144.558C106.899 145.066 106.606 145.502 106.244 145.865C105.651 146.46 104.955 146.814 104.111 146.899C103.178 146.993 102.171 146.922 101.229 146.922L95.336 146.927L76.6504 146.928L19.9647 146.925C18.8413 146.917 17.8961 146.707 17.0817 145.869C16.9764 145.761 16.8787 145.645 16.7888 145.523C16.6988 145.401 16.6174 145.274 16.5444 145.141C16.4716 145.008 16.4079 144.871 16.3534 144.73C16.2989 144.589 16.2541 144.444 16.219 144.297C15.9083 143.019 16.1076 140.69 16.1022 139.295C21.8834 139.362 27.6704 139.298 33.4521 139.3L68.2591 139.313C74.2151 139.346 80.171 139.341 86.1269 139.298L91.8893 139.295C93.1591 139.292 94.4627 139.33 95.7276 139.208C97.0168 139.084 98.1644 138.523 98.9832 137.505C99.8985 136.367 100.049 135.047 99.903 133.632Z" fill="#F2D261"/>
<path d="M16.1022 139.295C16.0826 138.663 16.0716 138.031 16.0691 137.398L16.095 58.5754L16.0713 32.2311L16.0666 23.8201C16.067 22.2754 15.991 20.6736 16.1244 19.1358C16.1892 18.3893 16.6182 17.6972 17.1441 17.178C17.6965 16.6328 18.3356 16.2691 19.117 16.1878C20.0436 16.0914 21.0197 16.1399 21.9536 16.1377L27.1194 16.1412L44.0775 16.1508L99.1311 16.1333C99.4626 16.1694 99.7834 16.189 100.117 16.1859L100.141 70.404L100.159 94.9368C100.175 97.5359 100.125 100.136 100.177 102.734C95.6244 103.692 91.7149 105.974 89.1371 109.935C88.6975 110.61 88.2719 111.328 87.9657 112.076L78.9374 112.078C77.2803 112.076 75.5921 112.009 73.9399 112.12C73.5781 112.345 73.2988 112.546 73.1981 112.981C73.1161 113.336 73.2473 113.714 73.4556 114.002C73.5932 114.192 73.7699 114.332 73.9581 114.469C78.4472 114.67 82.9729 114.393 87.4683 114.513C87.9123 114.793 88.4451 115.229 89.0057 115.11C89.3074 115.046 89.4805 114.868 89.6284 114.608C90.1116 113.759 90.3617 112.776 90.8367 111.908C92.4261 109.003 95.416 106.626 98.5705 105.659C101.891 104.64 105.464 104.884 108.538 106.527C108.632 106.577 108.725 106.628 108.817 106.68C108.91 106.732 109.001 106.785 109.093 106.839C109.184 106.893 109.274 106.949 109.364 107.005C109.454 107.061 109.543 107.119 109.631 107.177C109.719 107.236 109.807 107.296 109.894 107.356C109.981 107.417 110.067 107.479 110.152 107.541C110.238 107.604 110.322 107.668 110.406 107.733C110.49 107.798 110.573 107.864 110.655 107.931C110.738 107.997 110.819 108.065 110.9 108.134C110.98 108.203 111.06 108.273 111.139 108.344C111.218 108.414 111.296 108.486 111.373 108.559C111.45 108.632 111.526 108.705 111.602 108.78C111.677 108.854 111.751 108.93 111.825 109.006C111.898 109.083 111.971 109.16 112.043 109.238C112.114 109.316 112.185 109.395 112.255 109.475C112.324 109.555 112.393 109.636 112.461 109.717C112.529 109.799 112.595 109.881 112.661 109.964C112.727 110.047 112.791 110.131 112.855 110.216C112.919 110.301 112.981 110.386 113.043 110.472C113.105 110.559 113.165 110.646 113.225 110.734C113.284 110.821 113.343 110.91 113.4 110.999C113.457 111.088 113.513 111.178 113.569 111.268C113.624 111.359 113.678 111.45 113.731 111.542C113.784 111.634 113.835 111.726 113.886 111.819C113.937 111.913 113.986 112.006 114.035 112.101C114.083 112.195 114.13 112.29 114.176 112.385C114.222 112.481 114.267 112.577 114.311 112.673C114.355 112.77 114.397 112.867 114.439 112.965C114.48 113.062 114.52 113.16 114.559 113.259C114.598 113.357 114.636 113.456 114.673 113.556C114.709 113.655 114.744 113.755 114.779 113.856C114.813 113.956 114.846 114.057 114.877 114.158C115.915 117.586 115.625 121.268 113.921 124.434C113.87 124.529 113.818 124.623 113.764 124.717C113.711 124.811 113.656 124.904 113.601 124.996C113.545 125.089 113.488 125.18 113.43 125.271C113.372 125.362 113.313 125.453 113.253 125.542C113.193 125.632 113.131 125.721 113.069 125.809C113.007 125.897 112.943 125.984 112.879 126.07C112.814 126.157 112.748 126.243 112.682 126.327C112.615 126.412 112.547 126.496 112.479 126.579C112.41 126.663 112.34 126.745 112.269 126.826C112.199 126.908 112.127 126.988 112.054 127.068C111.981 127.148 111.907 127.227 111.833 127.305C111.758 127.382 111.682 127.459 111.606 127.535C111.529 127.611 111.452 127.686 111.373 127.761C111.295 127.835 111.216 127.908 111.135 127.98C111.055 128.052 110.974 128.123 110.892 128.193C110.81 128.263 110.727 128.333 110.643 128.401C110.56 128.469 110.475 128.536 110.39 128.602C110.304 128.668 110.218 128.733 110.131 128.797C110.044 128.861 109.956 128.923 109.868 128.985C109.779 129.047 109.69 129.107 109.6 129.167C109.51 129.226 109.419 129.285 109.328 129.342C109.236 129.399 109.144 129.455 109.051 129.51C108.958 129.565 108.865 129.619 108.771 129.672C108.677 129.725 108.582 129.776 108.486 129.827C108.391 129.877 108.295 129.926 108.198 129.974C108.101 130.022 108.004 130.069 107.906 130.114C107.809 130.16 107.71 130.204 107.611 130.247C107.512 130.291 107.413 130.333 107.313 130.373C107.213 130.414 107.113 130.453 107.012 130.492C106.911 130.53 106.809 130.567 106.708 130.603C106.606 130.638 106.503 130.673 106.401 130.706C106.298 130.739 106.195 130.771 106.092 130.802C105.985 130.832 105.879 130.861 105.771 130.889C105.664 130.917 105.557 130.943 105.449 130.968C105.341 130.993 105.233 131.017 105.125 131.039C105.017 131.062 104.908 131.083 104.799 131.102C104.69 131.122 104.581 131.141 104.472 131.158C104.362 131.175 104.253 131.19 104.143 131.205C104.033 131.219 103.924 131.232 103.813 131.244C103.704 131.255 103.593 131.265 103.483 131.274C103.373 131.283 103.262 131.291 103.152 131.297C103.042 131.303 102.931 131.308 102.82 131.311C102.71 131.315 102.599 131.317 102.489 131.317C102.378 131.318 102.267 131.317 102.157 131.315C102.046 131.313 101.935 131.31 101.825 131.305C101.714 131.3 101.604 131.294 101.493 131.287C101.383 131.279 101.273 131.27 101.163 131.26C101.052 131.25 100.942 131.238 100.833 131.225C100.723 131.212 100.613 131.198 100.504 131.182C100.394 131.167 100.285 131.15 100.176 131.131C100.066 131.113 99.9575 131.093 99.8489 131.072C99.7403 131.051 99.632 131.028 99.5239 131.005C99.4158 130.981 99.3081 130.956 99.2006 130.929C99.0931 130.903 98.9861 130.875 98.8793 130.846C98.7726 130.817 98.6662 130.787 98.5601 130.755C98.4542 130.724 98.3486 130.691 98.2433 130.656C98.1381 130.622 98.0334 130.586 97.9291 130.549C97.8248 130.513 97.7209 130.474 97.6175 130.435C97.5142 130.396 97.4114 130.355 97.309 130.313C97.2066 130.271 97.1047 130.228 97.0034 130.183C96.9022 130.139 96.8014 130.093 96.7012 130.046C96.6011 129.999 96.5015 129.951 96.4026 129.901C96.3036 129.852 96.2053 129.801 96.1075 129.749C96.0098 129.697 95.9127 129.644 95.8163 129.59C92.6713 127.835 90.5344 124.911 89.5779 121.468C89.3428 120.622 89.3685 118.994 88.5207 118.541C88.2079 118.373 87.807 118.35 87.4748 118.474C87.1948 118.579 87.0008 118.789 86.8972 119.067C86.4513 120.264 87.5033 122.975 87.9201 124.152L69.0412 124.137L63.2029 124.132C62.0898 124.123 60.894 124.021 59.7887 124.128C59.4119 124.164 59.024 124.273 58.7425 124.539C58.5081 124.761 58.4095 125.068 58.4221 125.386C58.4359 125.732 58.5705 126.032 58.8396 126.254C59.1469 126.508 59.5481 126.611 59.9376 126.644C61.0521 126.738 62.2414 126.639 63.3621 126.628C65.1991 126.619 67.036 126.624 68.8729 126.641C75.6487 126.688 82.4244 126.694 89.2002 126.66C92.1469 130.73 95.0157 132.536 99.903 133.632C100.049 135.047 99.8984 136.367 98.9832 137.504C98.1643 138.523 97.0168 139.084 95.7276 139.208C94.4627 139.33 93.1591 139.292 91.8892 139.295L86.1268 139.298C80.171 139.34 74.2151 139.345 68.2591 139.312L33.4521 139.3C27.6703 139.298 21.8833 139.362 16.1022 139.295Z" fill="white"/>
<path d="M70.322 25.1367C71.3664 25.0627 72.4535 25.1211 73.502 25.1195L79.5676 25.122C79.7909 25.2615 80.0143 25.3937 80.1593 25.6202C80.3384 25.9 80.4312 26.2445 80.3554 26.5734C80.2521 27.0215 79.9646 27.2749 79.5823 27.4967C78.8223 27.6004 70.9434 27.6177 70.4387 27.4896C70.1068 27.4054 69.794 27.2222 69.6249 26.9156C69.4498 26.598 69.4458 26.1628 69.5627 25.8248C69.6919 25.4507 69.9856 25.3001 70.322 25.1367Z" fill="#101055"/>
<path d="M59.397 112.08C61.2009 112.019 63.0162 112.057 64.8213 112.058C66.1191 112.059 67.4962 111.971 68.7799 112.152C69.0253 112.312 69.2558 112.472 69.4033 112.733C69.545 112.984 69.6036 113.3 69.5217 113.58C69.3896 114.033 69.0379 114.27 68.6381 114.47C67.1838 114.557 65.6913 114.474 64.2324 114.483C62.8165 114.491 61.3391 114.6 59.9333 114.494C59.6627 114.473 59.3919 114.427 59.1439 114.312C58.84 114.171 58.5811 113.937 58.4801 113.61C58.381 113.288 58.4463 112.883 58.6115 112.593C58.7902 112.279 59.0649 112.17 59.397 112.08Z" fill="#101055"/>
<path d="M107.761 110.161C108.048 110.175 108.341 110.258 108.584 110.415C108.816 110.563 108.97 110.783 109.018 111.057C109.081 111.41 108.987 111.775 108.849 112.099C108.476 112.971 107.922 113.835 107.478 114.677C106.41 116.737 105.32 118.785 104.209 120.822C103.631 121.874 103.058 122.929 102.492 123.987C102.096 124.74 101.735 125.576 101.248 126.27C101.011 126.608 100.735 126.841 100.316 126.904C100.114 126.935 99.8916 126.925 99.7031 126.841C98.8283 126.452 95.845 123.987 94.8627 123.253C94.3371 122.88 93.7494 122.516 93.5642 121.854C93.4768 121.542 93.5124 121.211 93.6926 120.939C93.8921 120.637 94.2455 120.444 94.597 120.386C94.859 120.342 95.1491 120.353 95.3864 120.485C95.7567 120.69 96.0927 121.108 96.4324 121.377C97.5359 122.254 98.6572 123.107 99.7963 123.937C101.505 120.826 103.12 117.659 104.799 114.532C105.44 113.337 106.081 111.798 106.888 110.736C107.12 110.431 107.412 110.296 107.761 110.161Z" fill="#4BBEB1"/>
<path d="M37.7163 25.1413L58.7639 25.1263L63.6297 25.115C64.4287 25.1119 65.4051 24.961 66.1748 25.173C66.5894 25.2871 66.9872 25.5398 67.1838 25.9341C67.3029 26.1726 67.3338 26.4388 67.2282 26.6903C67.0498 27.1149 66.7205 27.3758 66.3092 27.5517L49.2792 27.5481C45.6405 27.5517 41.9721 27.6645 38.3384 27.5456C38.011 27.5349 37.5563 27.535 37.2625 27.3864C37.006 27.2566 36.7794 26.9292 36.7058 26.6567C36.6168 26.3276 36.6762 26.0025 36.8495 25.7109C37.0556 25.3637 37.3397 25.2364 37.7163 25.1413Z" fill="#101055"/>
<path d="M59.8993 87.4724C61.9656 87.3947 64.0537 87.4505 66.1227 87.4494L77.7146 87.444L88.1081 87.4403C89.5252 87.4429 90.9844 87.3587 92.3968 87.4248C92.7373 87.4407 93.0843 87.4859 93.3825 87.6619C93.6357 87.8113 93.8213 88.0454 93.8816 88.3358C93.9587 88.7059 93.8385 89.0906 93.6154 89.3888C93.3677 89.7197 93.0371 89.8236 92.6451 89.8838L69.7461 89.8793C67.615 89.8761 65.4839 89.8848 63.3528 89.9052C62.2587 89.9137 61.1413 89.9717 60.0487 89.9245C59.7124 89.9099 59.3426 89.8812 59.061 89.6789C58.7973 89.4896 58.6253 89.1798 58.5732 88.8625C58.5203 88.5404 58.5768 88.2178 58.7763 87.9543C59.0567 87.584 59.4708 87.5354 59.8993 87.4724Z" fill="#101055"/>
<path d="M59.3744 75.2364C61.7274 75.1123 64.1462 75.2244 66.5076 75.222L81.8845 75.2341L89.2551 75.2201C90.2885 75.2171 91.9756 75.066 92.951 75.2874C93.3136 75.3697 93.597 75.6468 93.7679 75.9681C93.9012 76.2186 93.9307 76.4869 93.8435 76.7579C93.69 77.2359 93.3629 77.4722 92.9378 77.6979C91.0192 77.7841 89.0747 77.7272 87.1534 77.7313L75.1948 77.7098L64.8563 77.6692C63.0218 77.661 61.1605 77.7307 59.3302 77.624C59.115 77.489 58.9158 77.3582 58.7731 77.1426C58.5899 76.8656 58.4894 76.5164 58.5648 76.1865C58.6698 75.7283 58.9887 75.4664 59.3744 75.2364Z" fill="#101055"/>
<path d="M59.7383 51.2284C67.2314 51.3447 74.745 51.2417 82.2399 51.2287L88.7144 51.2353C89.8662 51.2353 91.0566 51.1722 92.2049 51.2472C92.6262 51.2746 93.1351 51.3513 93.4892 51.6011C93.7212 51.7648 93.8734 52.0704 93.9209 52.3481C93.9711 52.6423 93.8971 52.9301 93.7249 53.1721C93.4435 53.5675 93.1483 53.6712 92.6847 53.7509C89.8069 53.7612 86.9292 53.7546 84.0515 53.731L71.1786 53.7293C68.8069 53.7178 66.4352 53.7194 64.0635 53.734C62.7236 53.7415 61.3676 53.7967 60.0291 53.7513C59.7597 53.7421 59.4816 53.723 59.2363 53.6041C58.9105 53.4465 58.6587 53.1248 58.563 52.7784C58.4775 52.469 58.4993 52.1182 58.6723 51.8422C58.9155 51.4541 59.311 51.3115 59.7383 51.2284Z" fill="#101055"/>
<path d="M59.6864 39.064C67.9681 39.1772 76.261 39.0969 84.5439 39.1123C85.8642 39.1148 92.2808 38.9739 93.1541 39.2522C93.4388 39.3429 93.6832 39.6191 93.7999 39.8871C93.9291 40.184 93.9501 40.5168 93.8186 40.8168C93.6248 41.2587 93.3129 41.4587 92.8749 41.616C86.184 41.6722 79.4932 41.667 72.8023 41.6006L64.3317 41.6125C62.9672 41.6147 61.5895 41.6718 60.2265 41.6258C59.8965 41.6147 59.5581 41.5669 59.2602 41.4174C58.9643 41.2688 58.7393 41.0361 58.6456 40.7135C58.5466 40.3719 58.579 39.9807 58.7702 39.6764C58.9935 39.3215 59.289 39.1601 59.6864 39.064Z" fill="#101055"/>
<path d="M47.1909 71.1548C47.8385 71.1431 48.5813 71.0096 49.1082 71.4782C49.492 71.8195 49.5038 72.4584 49.5178 72.944C49.6432 77.2863 49.5442 81.6595 49.5383 86.0054L49.5304 91.085C49.5292 92.0052 49.5808 92.9543 49.5077 93.8697C49.483 94.1788 49.4575 94.5938 49.2193 94.8196C48.9736 95.0525 48.6833 95.1608 48.3537 95.1998C47.663 95.2812 46.9245 95.231 46.2292 95.2295L42.452 95.2242C37.6213 95.2383 32.7908 95.226 27.9603 95.1875C27.3597 95.1907 26.7172 95.2421 26.2375 94.8116C25.9026 94.5113 25.85 94.1565 25.8169 93.7242C25.7383 92.6953 25.8087 91.6168 25.8158 90.5815L25.8341 84.7884L25.8306 76.8776C25.8284 75.5127 25.7613 74.1177 25.8278 72.7563C25.8454 72.3965 25.8536 71.8931 26.1103 71.6193C26.3255 71.3899 26.6122 71.263 26.9197 71.2219C27.6821 71.1201 28.5092 71.1784 29.2787 71.1807L33.3629 71.1914L47.1909 71.1548Z" fill="#101055"/>
<path d="M28.3496 73.6266C31.0457 73.545 33.7653 73.6129 36.4635 73.6134C39.9909 73.614 43.5291 73.5669 47.0548 73.6585C47.115 75.9883 47.0785 78.3303 47.079 80.6613L47.0731 92.7659C40.8419 92.8307 34.5998 92.8018 28.3685 92.7546L28.3496 73.6266Z" fill="#F2D261"/>
<path d="M26.7351 35.0219C28.2946 34.8868 29.933 34.9789 31.501 34.9788L40.699 34.9945L45.8677 35.01C46.7881 35.0131 47.8935 34.9098 48.7922 35.1015C49.1421 35.1763 49.3441 35.5025 49.5278 35.7776L49.5461 49.763C49.5467 52.365 49.6441 55.0075 49.5469 57.6058C49.5362 57.8926 49.5215 58.2426 49.4078 58.5065C49.2413 58.8929 48.8934 59.0561 48.5218 59.1982C47.4176 59.2558 46.2936 59.2217 45.1876 59.2239L38.9007 59.2195C34.8647 59.2133 30.7954 59.3088 26.7635 59.1689C26.3764 58.9568 26.135 58.7308 25.8674 58.3778C25.7538 57.4058 25.8152 56.3881 25.82 55.4088L25.8416 50.4675L25.8281 40.3426C25.826 39.2822 25.6637 36.7778 25.9164 35.8505C26.031 35.4303 26.3793 35.2237 26.7351 35.0219Z" fill="#101055"/>
<path d="M28.3284 37.4885C34.5777 37.4383 40.8359 37.5208 47.0855 37.5486L47.0751 56.7518C44.9671 56.8161 42.8406 56.7597 40.7297 56.7609L28.3338 56.7672L28.3284 37.4885Z" fill="#F2D261"/>
<path d="M26.7982 107.024C28.2653 106.927 29.7855 107.002 31.2574 107.004L40.001 107.013L45.5646 107.001C46.4474 106.999 47.7638 106.861 48.5925 107.071C48.8686 107.141 49.2316 107.37 49.3636 107.629C49.5207 107.937 49.5383 108.387 49.5486 108.731C49.6489 112.065 49.5222 115.434 49.5332 118.771C49.5454 122.47 49.6927 126.199 49.583 129.894C49.5736 130.208 49.5511 130.549 49.4345 130.843C49.282 131.228 48.9935 131.398 48.6266 131.548C47.4465 131.708 46.1383 131.597 44.9437 131.597L37.4762 131.574L30.7135 131.591C29.7159 131.597 27.5595 131.761 26.7002 131.515C26.373 131.422 26.1328 131.148 25.9879 130.85C25.8647 130.596 25.8474 130.275 25.8373 129.997C25.792 128.747 25.8391 127.481 25.8391 126.229L25.8574 117.958L25.859 112.252C25.8505 111.087 25.7893 109.898 25.8417 108.735C25.8558 108.423 25.9026 108.105 26.0077 107.81C26.1612 107.378 26.3975 107.215 26.7982 107.024Z" fill="#101055"/>
<path d="M39.0831 109.46L47.0651 109.463L47.0418 129.128L36.3098 129.148L28.3717 129.134L28.3667 109.482L39.0831 109.46Z" fill="#F2D261"/>
</g>
<defs>
<clipPath id="clip0_47_2074">
<rect width="150" height="150" fill="white"/>
</clipPath>
</defs>
</svg>
