<svg width="159" height="150" viewBox="0 0 159 150" fill="none" xmlns="http://www.w3.org/2000/svg">
<g clip-path="url(#clip0_47_512)">
<path d="M-53.4453 -56.25H213.782V211.607H-53.4453V-56.25Z" fill="#FEFEFE"/>
<path d="M156.954 78.5635L158.951 78.5849C158.867 82.4804 158.624 86.3096 158.295 90.1912C157.675 90.2618 157.045 90.1156 156.432 90.0209C156.518 88.6144 156.716 87.2121 156.812 85.8048C156.976 83.4019 157 80.9711 156.954 78.5635Z" fill="#8FE2E4"/>
<path d="M153.899 53.0723L154.319 53.1193C155.174 53.9174 157.681 63.1896 157.842 64.8182C157.508 65.1237 156.975 65.1334 156.54 65.1975L156.094 65.1821C155.635 64.604 155.302 62.3785 155.096 61.5739C154.428 58.9091 153.593 56.2975 152.593 53.7393L153.899 53.0723Z" fill="#8FE2E4"/>
<path d="M142.268 29.7778C143.776 30.714 148.559 38.6603 149.762 40.6284C149.25 40.9221 148.719 41.1858 148.195 41.4581C147.85 41.4121 147.769 41.3182 147.579 41.0213C146.562 39.4262 145.679 37.7301 144.65 36.1324C143.453 34.2754 142.077 32.5584 140.706 30.8304C141.211 30.4598 141.746 30.1242 142.268 29.7778Z" fill="#9F7ED1"/>
<path d="M123.001 12.4795C125.153 13.0843 131.629 18.5225 133.52 20.4229L132.169 21.5419L132.138 21.5757C131.828 21.6473 131.51 21.2026 131.27 20.9871C128.449 18.4451 125.225 16.1113 122.002 14.1136L123.001 12.4795Z" fill="#9F7ED1"/>
<path d="M99.2414 1.99805C103.459 3.10191 107.699 4.35828 111.689 6.13545L110.673 7.81766C110.394 8.01359 109.885 7.63064 109.621 7.492C106.58 5.89113 101.894 4.71062 98.4741 4.11187C98.7928 3.40848 99.0485 2.74721 99.2414 1.99805Z" fill="#9F7ED1"/>
<path d="M78.5146 -0.340539C81.1025 -0.367743 83.7333 -0.291884 86.3067 -0.00728622C86.1584 0.648755 85.9927 1.30139 85.8346 1.95508C83.9793 1.86789 82.1232 1.80912 80.2661 1.77878C77.8541 1.7398 75.4495 1.88288 73.0461 2.07619L72.8049 0.00997651C74.7089 -0.146971 76.6046 -0.279329 78.5146 -0.340539Z" fill="#9F7ED1"/>
<path d="M0.623047 80.2886L2.84959 80.4374C2.89308 81.7031 2.98616 82.9651 3.12882 84.2232C3.27313 85.4312 4.3898 91.4371 4.20791 92.1057L3.93755 92.1938L2.02025 92.6401C1.27259 88.5113 0.670281 84.4929 0.623047 80.2886Z" fill="#4E5072"/>
<path d="M7.56593 105.663L7.68884 105.691C8.23165 106.175 9.44278 109.531 9.83527 110.36C10.8468 112.497 12.0441 114.544 13.2007 116.604C12.5613 116.901 11.9418 117.253 11.3186 117.583L11.1088 117.524C9.63041 115.905 6.53069 108.566 5.59644 106.307L7.56593 105.663Z" fill="#4E5072"/>
<path d="M16.3173 30.793C16.9781 31.1866 17.5447 31.7166 18.1237 32.2188C16.7852 34.0878 15.3612 35.9199 14.15 37.8747C13.358 39.1533 12.4773 41.1573 11.6046 42.2457C10.8877 41.8865 10.2053 41.5287 9.54272 41.0736C11.3815 37.5723 13.7127 33.7718 16.3173 30.793Z" fill="#4E5072"/>
<path d="M59.2473 2.2104C59.3339 2.20099 59.4918 2.24101 59.58 2.25487C59.9274 2.87351 60.0492 3.62215 60.2207 4.30722C56.1776 5.4035 52.3299 6.73599 48.5115 8.47026C47.9906 7.96462 47.6908 7.01404 47.4014 6.35225C51.1522 4.55677 55.2822 3.42204 59.2473 2.2104Z" fill="#8D79C6"/>
<path d="M35.3101 12.7686C35.8347 12.9684 36.384 14.0155 36.7011 14.4827C33.366 16.9698 30.0817 19.4205 27.0329 22.2623C26.5021 21.657 25.9528 21.0792 25.3865 20.5071C28.4805 17.6188 31.8135 15.1387 35.3101 12.7686Z" fill="#4E5072"/>
<path d="M4.1733 54.0161C4.94915 54.2845 5.6942 54.6313 6.44473 54.9622C4.90374 58.6887 4.24193 62.8546 3.64276 66.8246C2.85726 66.6439 2.05088 66.5212 1.25781 66.3752C1.5734 64.2787 1.97459 62.1988 2.46138 60.1355C2.94816 58.0722 3.5188 56.0324 4.1733 54.0161Z" fill="#4E5072"/>
<path d="M21.2968 127.995C22.4132 128.739 24.9339 131.627 26.0902 132.748C27.4214 134.039 28.8932 135.163 30.2602 136.414L28.6941 138.02C25.2617 135.694 22.1645 132.357 19.3962 129.292L21.2968 127.995Z" fill="#4E5072"/>
<path d="M45.3768 112.357C46.0323 112.388 46.6766 112.406 47.3194 112.552L47.6685 112.535C47.6683 114.365 47.643 116.2 47.6952 118.029C47.7665 119.155 47.7988 120.282 47.792 121.41C47.9248 128.156 47.8614 134.9 47.9371 141.646C49.6271 141.661 59.8023 141.37 60.4244 141.917C60.7 142.159 60.8175 142.529 60.9378 142.863C60.8274 143.38 60.6899 143.837 60.2316 144.149C59.1734 144.869 57.1013 144.469 55.8832 144.438C54.0332 144.348 47.0224 144.933 45.8841 143.857C45.6495 143.636 45.5242 143.427 45.4738 143.106C45.1299 140.909 45.3564 138.398 45.3624 136.172L45.4655 121.183C46.1033 121.199 46.7108 121.184 47.3468 121.126C47.2888 120.447 47.3014 119.753 47.2865 119.071C47.2085 119.069 47.1307 119.068 47.0527 119.064C46.4616 119.033 46.1842 119.031 45.6607 119.348C45.6179 119.373 45.5764 119.401 45.5344 119.428L45.4663 119.386L45.4976 118.268C45.5153 117.307 45.4673 116.343 45.4368 115.382C45.429 114.374 45.4089 113.365 45.3768 112.357Z" fill="#101055"/>
<path d="M45.5859 118.247C45.5765 117.427 45.4538 116.729 46.106 116.115C46.2373 115.991 46.2315 116.017 46.4327 115.921C46.7579 116.004 46.9317 116.098 47.1073 116.404C47.3839 116.884 47.2527 117.716 47.1971 118.25C46.6637 118.379 46.1151 118.385 45.5859 118.247Z" fill="#FEFEFE"/>
<path d="M45.3765 112.357C46.032 112.388 46.6763 112.406 47.3191 112.552L47.2906 115.417C46.6682 115.447 46.0505 115.511 45.4365 115.382C45.4287 114.374 45.4087 113.365 45.3765 112.357Z" fill="#9F7ED1"/>
<path d="M146.718 71.4482C148.069 71.7632 149.316 72.3107 150.068 73.5532C150.514 74.2898 150.575 75.0151 150.592 75.8564C150.793 85.8539 150.579 95.8865 150.53 105.887L150.591 129.983L150.593 141.815C150.595 143.572 150.885 146.258 150.444 147.91C150.114 149.146 149.321 149.75 148.269 150.382L89.1356 150.365L70.484 150.386C67.4902 150.386 64.2989 150.608 61.3252 150.292C61.1631 150.277 61.002 150.254 60.8419 150.224C60.6818 150.195 60.5233 150.159 60.3662 150.115C60.2092 150.072 60.0544 150.022 59.9017 149.965C59.7491 149.908 59.5992 149.845 59.452 149.775C59.3048 149.706 59.1609 149.63 59.0201 149.547C58.8795 149.465 58.7427 149.377 58.6096 149.283C58.4765 149.189 58.3478 149.089 58.2234 148.984C58.099 148.879 57.9793 148.768 57.8643 148.653C56.7281 147.489 56.3353 145.95 55.8828 144.438C57.101 144.469 59.173 144.869 60.2313 144.149C60.6895 143.837 60.827 143.38 60.9374 142.864C60.9609 143.146 60.9197 143.006 61.0812 143.276C62.5241 143.61 66.9853 143.349 68.7251 143.349L88.5349 143.391C88.4855 140.723 88.4409 138.016 88.5474 135.349C88.6972 138.179 88.4683 141.036 88.6742 143.86C89.1476 144.656 89.5665 145.078 90.3666 145.539C105.375 145.717 120.396 145.42 135.407 145.573C138.77 145.585 142.132 145.576 145.494 145.545C145.753 145.381 146.069 145.206 146.272 144.973C146.646 144.543 146.632 144.055 146.65 143.514C146.732 141.023 146.625 138.493 146.618 135.999L146.62 121.595L146.718 71.4482Z" fill="#8FE2E4"/>
<path d="M46.6762 53.9531C46.7265 55.7031 46.7407 57.4534 46.719 59.2041C47.541 59.1933 48.3649 59.1965 49.1848 59.1319C50.7078 59.3584 51.998 59.6158 53.4513 60.1643C57.8559 61.4895 62.1096 63.8665 65.4502 67.0478C68.2044 69.9751 70.7094 73.0327 71.9573 76.9274C72.7144 79.0399 73.2321 81.098 73.4873 83.3295C73.6463 86.7311 73.5638 89.8382 72.671 93.1529C72.2 95.251 71.1436 97.234 70.1527 99.126C69.5246 100.116 68.9304 101.167 68.2229 102.1C66.1963 104.776 63.1866 107.292 60.3577 109.083C55.5009 111.576 52.9482 111.975 47.6684 112.535L47.3192 112.551C46.6764 112.405 46.0321 112.388 45.3766 112.357C39.953 112.088 33.1768 109.148 29.2342 105.377C23.8948 100.27 20.8987 93.8291 20.7617 86.3929C20.6328 79.3922 23.2004 72.2514 28.1086 67.2173C28.2586 67.0609 28.4104 66.9064 28.564 66.7538C28.7178 66.601 28.8734 66.4503 29.0309 66.3015C29.1883 66.1526 29.3476 66.0057 29.5087 65.8607C29.6696 65.716 29.8324 65.5732 29.997 65.4323C30.1615 65.2914 30.3279 65.1526 30.4959 65.0158C30.6638 64.8791 30.8334 64.7444 31.0048 64.6117C31.1762 64.4792 31.3491 64.3487 31.5236 64.2204C31.6981 64.0922 31.8741 63.9661 32.0515 63.8421C32.2291 63.7181 32.4083 63.5964 32.5888 63.477C32.7694 63.3575 32.9515 63.2402 33.135 63.1251C33.3186 63.0102 33.5034 62.8975 33.6896 62.7869C33.8759 62.6765 34.0635 62.5684 34.2525 62.4626C34.4414 62.3567 34.6316 62.2533 34.823 62.1523C35.0145 62.0512 35.2072 61.9524 35.401 61.856C35.595 61.7597 35.79 61.6658 35.9861 61.5742C36.1823 61.4827 36.3796 61.3936 36.5779 61.3069C36.7764 61.2202 36.9759 61.1361 37.1763 61.0545C37.3767 60.9727 37.5782 60.8934 37.7807 60.8167C37.9831 60.74 38.1863 60.6657 38.3906 60.5938C38.5948 60.5222 38.8 60.453 39.0059 60.3864C39.2118 60.3198 39.4184 60.2557 39.626 60.1941C39.8335 60.1326 40.0418 60.0736 40.2507 60.0171C40.4597 59.9607 40.6693 59.9069 40.8797 59.8557C41.09 59.8046 41.3009 59.756 41.5122 59.71C41.7238 59.6639 41.9359 59.6205 42.1485 59.5797C42.3609 59.5389 42.5739 59.5008 42.7876 59.4654C43.001 59.4298 43.2148 59.3969 43.429 59.3668C43.6433 59.3366 43.858 59.309 44.0731 59.2841C44.2881 59.2592 44.5033 59.2369 44.7187 59.2174C44.9343 59.1977 45.15 59.1808 45.3659 59.1667C45.582 59.1524 45.798 59.1408 46.0141 59.1319C46.2304 59.123 46.4467 59.1167 46.6631 59.113C46.6518 57.3931 46.6562 55.6731 46.6762 53.9531Z" fill="#F2D261"/>
<path d="M44.7681 62.0421C44.8931 62.0136 45.0075 62.0456 45.133 62.0631C45.2668 62.3796 45.2572 62.5161 45.1849 62.8499C44.8444 63.2017 44.163 63.2582 43.6841 63.3474C41.0833 63.8319 38.7592 64.416 36.4003 65.6873C28.0785 70.1728 23.7825 79.5361 24.7582 88.7779C24.8436 89.588 25.7382 92.852 25.5651 93.3163C25.5448 93.3705 25.52 93.423 25.4973 93.4761L24.985 93.394C24.1523 92.5807 23.8597 89.424 23.7426 88.2696C23.7232 88.0736 23.7064 87.8775 23.6919 87.6811C23.6775 87.4846 23.6655 87.2879 23.6559 87.0912C23.6463 86.8945 23.6391 86.6977 23.6343 86.5009C23.6294 86.304 23.627 86.107 23.627 85.9099C23.627 85.7131 23.6294 85.5162 23.6343 85.3193C23.639 85.1224 23.6461 84.9256 23.6557 84.7289C23.6652 84.532 23.6772 84.3354 23.6917 84.1391C23.7061 83.9427 23.7229 83.7465 23.742 83.5505C23.7614 83.3545 23.7829 83.1588 23.8068 82.9633C23.8308 82.7678 23.8571 82.5725 23.8858 82.3776C23.9147 82.1828 23.9459 81.9883 23.9793 81.7943C24.0128 81.6002 24.0487 81.4065 24.0868 81.2133C24.125 81.0201 24.1657 80.8274 24.2086 80.6352C24.2516 80.443 24.2968 80.2514 24.3443 80.0603C24.392 79.8691 24.4419 79.6787 24.4941 79.489C24.5465 79.2991 24.6011 79.1098 24.658 78.9213C24.7149 78.7328 24.7741 78.545 24.8355 78.3579C24.8969 78.1708 24.9606 77.9844 25.0268 77.7989C25.0927 77.6135 25.161 77.4289 25.2316 77.2449C25.3021 77.0611 25.3748 76.8781 25.4498 76.6961C25.5248 76.514 25.602 76.3329 25.6815 76.1528C25.761 75.9726 25.8426 75.7935 25.9263 75.6155C26.0102 75.4373 26.0961 75.2602 26.1841 75.0842C26.2723 74.9081 26.3626 74.7331 26.455 74.5592C26.5474 74.3856 26.6419 74.2129 26.7387 74.0413C26.8352 73.8699 26.9339 73.6996 27.0346 73.5304C27.1353 73.3615 27.2382 73.1936 27.3431 73.0269C27.448 72.8604 27.5549 72.6951 27.6638 72.5312C27.7727 72.3673 27.8836 72.2048 27.9965 72.0436C28.1094 71.8823 28.2243 71.7225 28.341 71.5642C28.4577 71.4058 28.5765 71.2489 28.6972 71.0933C28.8178 70.9378 28.9403 70.7838 29.0647 70.6314C32.9603 65.8845 38.6326 62.659 44.7681 62.0421Z" fill="#DB773A"/>
<path d="M47.4383 70.4238L49.7849 70.3589L49.8582 73.5936C52.1482 74.2815 53.8387 74.9174 55.5793 76.6098C54.7599 77.659 53.6868 78.5534 52.7635 79.5181C52.0991 78.8743 51.3387 78.173 50.4999 77.7744C49.3389 77.223 47.6351 77.2416 46.4359 77.6985C46.3486 77.7317 46.2634 77.7692 46.1802 77.8113C46.0969 77.8533 46.016 77.8996 45.9375 77.9502C45.859 78.0009 45.7835 78.0555 45.7107 78.1139C45.638 78.1725 45.5686 78.2348 45.5025 78.3007C45.4362 78.3666 45.3737 78.4358 45.3149 78.5084C45.2559 78.5809 45.2009 78.6564 45.1499 78.7347C45.0989 78.813 45.0522 78.8937 45.0098 78.9769C44.9673 79.0602 44.9293 79.1455 44.8957 79.2327C43.0674 83.9053 53.6122 83.8504 55.636 89.0882C56.2644 90.7147 55.9614 92.6041 55.2907 94.1725C54.2242 96.667 52.1351 97.6411 49.7831 98.577C49.7079 99.5095 49.8327 101.814 49.4704 102.533L46.0959 102.592C45.9814 101.37 45.9913 100.125 45.9587 98.8977C43.8553 98.4397 41.8023 97.9359 39.9158 96.8563C40.0329 95.5053 40.3344 94.1498 40.5695 92.8144C41.1099 93.1456 41.6473 93.4514 42.2344 93.6933C44.1888 94.4998 47.2883 95.0208 49.2698 94.1328C49.3564 94.0932 49.4408 94.0493 49.5229 94.0012C49.605 93.9529 49.6844 93.9006 49.7612 93.8443C49.838 93.7878 49.9117 93.7275 49.9822 93.6635C50.0528 93.5997 50.12 93.5323 50.1837 93.4613C50.2473 93.3905 50.3073 93.3166 50.3635 93.2395C50.4197 93.1624 50.4717 93.0826 50.5195 93.0001C50.5675 92.9178 50.6112 92.8332 50.6505 92.7461C50.6897 92.6593 50.7244 92.5706 50.7546 92.4801C51.7708 89.4374 46.0975 88.1036 44.2097 86.9375C42.8435 86.0937 41.6225 84.9032 40.9742 83.4104C40.2349 81.7078 40.1274 79.8348 40.8513 78.1152C41.9268 75.5606 43.6943 74.608 46.1442 73.6286C46.1411 72.5677 46.1479 71.5067 46.1646 70.4457L47.4383 70.4238Z" fill="#FEFEFE"/>
<path d="M90.2538 68.0175C92.5999 67.9181 94.9812 68.0081 97.3304 68.018L110.756 68.114L111.067 68.1556C116.692 68.7183 122.471 67.758 128.108 68.2362L128.837 68.2349C131.056 68.2515 133.275 68.2472 135.494 68.2221L140.902 68.2438C142.325 68.2422 144.98 67.8287 146.028 68.8755C146.694 69.541 146.72 70.5622 146.718 71.4481L146.62 121.595L146.618 135.999C146.625 138.493 146.732 141.023 146.65 143.514C146.632 144.055 146.646 144.543 146.272 144.973C146.069 145.206 145.753 145.381 145.494 145.544C142.132 145.576 138.77 145.585 135.407 145.573C120.396 145.42 105.375 145.717 90.3666 145.539C89.5664 145.077 89.1476 144.656 88.6742 143.86C88.4683 141.036 88.6972 138.179 88.5474 135.349L88.5643 125.311L88.5497 115.967L88.5523 109.701L88.5299 99.2692L88.5281 93.1058L88.5396 83.3107C88.547 81.1784 88.5433 79.046 88.5283 76.9136C88.5315 74.9543 88.1564 71.7304 88.6134 69.9325C88.8749 68.9032 89.3642 68.53 90.2538 68.0175Z" fill="#4E5072"/>
<path d="M128.108 68.2362L128.838 68.2349L128.877 73.2281L123.675 73.2313L123.747 68.2595C125.201 68.2754 126.655 68.3089 128.108 68.2362Z" fill="#000008"/>
<path d="M111.109 104.846C111.14 102.804 111.153 100.761 111.148 98.7179C111.151 97.6329 111.076 96.4704 111.224 95.3969C111.303 94.8196 111.498 93.9741 111.962 93.5718C112.293 93.2838 112.875 93.2687 113.287 93.2336C114.932 93.0934 116.667 93.2713 118.324 93.2702C119.441 93.2694 120.566 93.1222 121.681 93.1868C122.641 93.2425 122.979 93.3929 123.606 94.1128C124.063 95.264 124.283 104.113 123.808 105.255C123.501 105.593 123.143 105.888 122.802 106.19C121.064 106.353 114.006 106.479 112.508 106.162C111.833 106.019 111.467 105.375 111.109 104.846Z" fill="#FEFEFE"/>
<path d="M123.843 110.528C124.208 111.86 124.263 120.792 123.595 121.646C123.213 122.133 122.151 122.31 121.584 122.369C120.027 122.528 114.752 122.579 113.305 122.37C112.778 122.294 111.982 122.131 111.594 121.729C111.309 121.434 111.222 120.801 111.174 120.407C110.951 118.57 111.143 116.555 111.143 114.698C111.143 113.656 111.013 112.568 111.085 111.535C111.131 110.865 111.37 110.252 111.909 109.831C112.131 109.657 112.393 109.503 112.672 109.448C113.787 109.23 121.493 109.156 122.563 109.38C123.183 109.51 123.422 109.895 123.777 110.373L123.843 110.528Z" fill="#FEFEFE"/>
<path d="M112.876 125.466C116.104 125.347 119.37 125.427 122.601 125.445C123.131 125.851 123.482 126.231 123.871 126.78C123.913 128.78 124.3 136.205 123.712 137.601C123.45 138.225 122.792 138.5 122.207 138.735C120.404 138.745 113.399 139.09 112.178 138.448C111.8 138.248 111.373 137.813 111.266 137.392C110.997 136.333 111.036 126.929 111.536 126.208C111.857 125.747 112.354 125.58 112.876 125.466Z" fill="#FEFEFE"/>
<path d="M99.4513 93.4382C100.936 93.4193 105.543 93.0746 106.577 93.8326C107.226 94.3082 107.481 95.3827 107.559 96.1392C107.729 97.7976 107.749 102.708 107.544 104.287C107.47 104.848 107.298 105.617 106.905 106.048C105.995 107.049 103.613 106.791 102.366 106.79C100.784 106.791 95.9664 107.271 94.915 106.22C94.3367 105.642 94.136 104.363 94.1091 103.586C94.0536 101.979 93.7289 94.8564 94.8649 93.9208C95.8077 93.1442 98.2726 93.4308 99.4513 93.4382Z" fill="#F2D261"/>
<path d="M95.7587 109.373C97.7457 109.316 99.742 109.339 101.73 109.326C103.078 109.318 104.584 109.168 105.905 109.428C106.738 109.592 107.089 110.118 107.55 110.788C107.759 112.473 107.922 119.266 107.576 120.769C107.369 121.668 106.726 122.158 105.997 122.647C102.563 122.849 99.0226 122.689 95.5781 122.658C94.9479 122.234 94.5554 121.774 94.1454 121.137C93.9763 119.714 93.9317 111.785 94.3257 110.678C94.5669 110 95.142 109.662 95.7587 109.373Z" fill="#F2D261"/>
<path d="M96.0858 125.188C98.2385 125.079 104.018 124.922 105.8 125.38C106.5 125.56 106.991 125.915 107.339 126.562C107.825 127.467 107.829 136.183 107.464 137.285C107.215 138.036 106.692 138.444 106.001 138.771C102.491 138.791 98.9811 138.783 95.4715 138.746C95.0325 138.436 94.5975 138.117 94.3277 137.639C94.1873 137.39 94.14 137.117 94.1178 136.836C94.0312 135.726 93.9276 127.374 94.2186 126.668C94.561 125.836 95.2833 125.472 96.0858 125.188Z" fill="#F2D261"/>
<path d="M136.971 73.2073C138.128 73.1997 139.675 72.9614 140.631 73.7213C141.193 74.6645 141.116 86.1591 140.718 87.6035C140.64 87.8879 140.526 88.2619 140.264 88.4152C139.297 88.9794 136.717 88.6595 135.536 88.6486L129.341 88.6559L123.579 88.6679L106.556 88.7393C103.478 88.7529 100.251 88.9609 97.1873 88.7273C96.5101 88.6755 95.466 88.5609 94.9117 88.1699C94.6278 87.9695 94.4571 87.4788 94.3749 87.1581C94.1025 86.0942 94.0845 76.861 94.2512 75.512C94.3256 74.9096 94.467 74.4453 94.7859 73.9295C95.3016 73.5423 96.1928 73.4202 96.8282 73.3681C99.7255 73.1306 102.777 73.2941 105.688 73.2776L123.674 73.2313L128.876 73.2282C131.554 73.2279 134.299 73.3407 136.971 73.2073Z" fill="#8FE2E4"/>
<path d="M128.838 68.2346C131.057 68.2512 133.275 68.2469 135.494 68.2218L140.902 68.2435C142.326 68.2419 144.98 67.8284 146.028 68.8752C146.694 69.5407 146.721 70.5619 146.718 71.4478L146.62 121.595L146.618 135.998C146.625 138.493 146.732 141.023 146.65 143.514C146.632 144.054 146.646 144.542 146.272 144.972C146.07 145.206 145.754 145.381 145.494 145.544C142.132 145.575 138.77 145.585 135.408 145.573C135.394 143.307 135.392 141.04 135.402 138.774C136.723 138.783 138.104 138.877 139.415 138.709C136.355 138.465 132.836 139.085 129.889 138.628C129.07 138.501 128.816 138.233 128.33 137.577C128.106 134.299 128.266 130.911 128.267 127.619L128.203 110.514C126.747 110.547 125.299 110.566 123.842 110.528L123.776 110.373C123.843 108.672 123.806 106.957 123.808 105.255C124.282 104.112 124.062 95.2636 123.606 94.1123C123.705 92.3148 123.534 90.4759 123.58 88.6676L129.341 88.6556L135.537 88.6482C136.717 88.6592 139.297 88.9791 140.264 88.4149C140.526 88.2616 140.64 87.8876 140.718 87.6032C141.116 86.1588 141.194 74.6642 140.631 73.7209C139.675 72.9611 138.128 73.1994 136.971 73.2069C134.3 73.3404 131.555 73.2276 128.877 73.2279L128.838 68.2346Z" fill="#101055"/>
<path d="M130.32 106.46C132.3 106.192 137.295 106.292 139.409 106.399C138.126 106.586 136.744 106.485 135.447 106.479C135.442 107.297 135.425 108.118 135.447 108.936C136.688 108.922 138.049 108.801 139.274 109.003C136.116 109.276 132.739 109.054 129.561 109.06C129.894 108.982 130.047 108.985 130.294 108.74C130.545 108.006 130.391 107.22 130.32 106.46Z" fill="#4E5072"/>
<path d="M138.328 92.9263C139.028 92.9627 139.71 92.9167 140.228 93.4746C141.18 94.4982 140.962 102.655 140.834 104.309C140.785 104.947 140.72 105.531 140.209 105.974C139.961 106.189 139.724 106.302 139.41 106.399C137.295 106.292 132.301 106.191 130.32 106.46C129.826 106.434 129.151 106.333 128.771 105.983C128.253 105.505 128.224 104.719 128.19 104.055C128.096 102.245 127.944 95.6358 128.377 94.1215C128.49 93.7276 128.726 93.4461 128.993 93.1455C130.516 92.6331 136.325 92.9828 138.328 92.9263Z" fill="#FEFEFE"/>
<path d="M139.274 109.003C139.897 109.238 140.349 109.412 140.646 110.051C140.8 110.381 140.839 110.69 140.861 111.047C141.032 113.787 141.113 136.675 140.703 137.632C140.475 138.165 139.918 138.483 139.415 138.709C136.355 138.465 132.837 139.085 129.889 138.628C129.07 138.501 128.817 138.233 128.33 137.577C128.106 134.299 128.266 130.911 128.268 127.62L128.203 110.514C128.237 110.376 128.232 110.381 128.295 110.226C128.55 109.601 128.96 109.312 129.561 109.059C132.74 109.054 136.116 109.276 139.274 109.003Z" fill="#FEFEFE"/>
<path d="M46.6764 53.9535C46.8035 47.7256 46.625 41.4715 46.6331 35.2402C46.6373 32.0949 47.3959 29.3565 49.6913 27.0954C51.1026 25.7051 53.0361 24.6792 54.9941 24.3569C57.502 23.9441 60.2705 24.1469 62.8136 24.1401L77.1672 24.1537L120.1 24.2143C122.002 25.4087 124.825 27.923 126.71 29.4064L132.645 34.0871C133.887 35.0694 135.201 36.0233 136.324 37.1429C137.645 38.1113 140.625 39.8178 140.933 41.5053C141.262 43.3054 140.959 45.9492 140.961 47.8543L140.961 62.0541C140.956 64.1044 140.818 66.2017 140.903 68.2439L135.494 68.2222C133.276 68.2473 131.057 68.2516 128.838 68.235L128.108 68.2363C122.471 67.7581 116.692 68.7184 111.067 68.1557L110.756 68.1141L97.3308 68.0181C94.9816 68.0082 92.6003 67.9182 90.2542 68.0176C89.3646 68.5301 88.8753 68.9033 88.6138 69.9326C88.1569 71.7305 88.5319 74.9544 88.5287 76.9137C88.5437 79.0461 88.5474 81.1785 88.54 83.3108L88.5285 93.1059L88.5303 99.2693L88.5527 109.701L88.5501 115.967L88.5647 125.311L88.5478 135.349C88.4413 138.016 88.4859 140.723 88.5353 143.391L68.7255 143.349C66.9857 143.349 62.5245 143.61 61.0816 143.276C60.9201 143.006 60.9613 143.146 60.9378 142.864C60.8175 142.529 60.7001 142.159 60.4245 141.917C59.8024 141.37 49.6271 141.661 47.9371 141.646C47.8614 134.901 47.9249 128.156 47.792 121.41C47.7988 120.282 47.7665 119.156 47.6952 118.03C47.643 116.2 47.6683 114.365 47.6686 112.535C52.9484 111.975 55.5012 111.576 60.358 109.083C63.1868 107.292 66.1965 104.776 68.2231 102.101C68.9306 101.167 69.5248 100.116 70.153 99.1264C71.1438 97.2344 72.2002 95.2514 72.6713 93.1533C73.564 89.8386 73.6465 86.7315 73.4876 83.3299C73.2323 81.0984 72.7146 79.0403 71.9575 76.9278C70.7096 73.0331 68.2046 69.9755 65.4504 67.0482C62.1098 63.8669 57.8561 61.4899 53.4515 60.1647C51.9982 59.6162 50.708 59.3588 49.185 59.1323C48.3651 59.1969 47.5412 59.1938 46.7192 59.2045C46.741 57.4538 46.7267 55.7035 46.6764 53.9535Z" fill="#FEFEFE"/>
<path d="M46.6764 53.9535C46.8035 47.7256 46.625 41.4715 46.6331 35.2402C46.6373 32.0949 47.3959 29.3565 49.6913 27.0954C51.1026 25.7051 53.0361 24.6792 54.9941 24.3569C57.502 23.9441 60.2705 24.1469 62.8136 24.1401L77.1672 24.1537L120.1 24.2143C122.002 25.4087 124.825 27.923 126.71 29.4064L132.645 34.0871C133.887 35.0694 135.201 36.0233 136.324 37.1429C136.178 37.5099 136.094 37.8646 135.732 38.0704C134.149 38.3454 132.316 38.1733 130.706 38.174L120.772 38.1842L120.829 49.9475C120.838 51.9075 120.988 53.9957 120.82 55.946C120.787 56.3216 120.743 56.7088 120.491 57.008C120.221 57.3279 119.833 57.4535 119.426 57.4339C119.076 57.4169 118.836 57.3018 118.535 57.1336C118.385 56.7004 118.272 56.2863 118.23 55.828C117.963 52.8706 118.18 49.734 118.177 46.7533C118.172 40.059 118.23 33.3563 118.126 26.6632L74.1705 26.6271L62.2419 26.6387C60.0516 26.6415 57.6549 26.4514 55.4978 26.8063C53.9586 27.0598 52.4374 27.935 51.3315 29.0311C49.5063 30.8399 49.1031 32.9545 49.1102 35.4269C49.1326 43.319 49.3964 51.2425 49.185 59.1323C48.3651 59.1969 47.5412 59.1938 46.7192 59.2045C46.741 57.4538 46.7267 55.7035 46.6764 53.9535Z" fill="#101055"/>
<path d="M120.793 28.0391C122.749 29.6912 124.797 31.2329 126.836 32.7791C127.955 33.6277 129.419 34.5158 130.336 35.576C127.169 35.6717 123.981 35.6003 120.812 35.5916C120.779 33.0742 120.772 30.5567 120.793 28.0391Z" fill="#FEFEFE"/>
<path d="M136.324 37.1426C137.645 38.1109 140.625 39.8175 140.933 41.5049C141.262 43.3051 140.959 45.9489 140.961 47.854L140.961 62.0538C140.956 64.1041 140.818 66.2014 140.903 68.2436L135.494 68.2219C133.275 68.247 131.057 68.2512 128.838 68.2347L128.108 68.236C122.471 67.7578 116.692 68.7181 111.067 68.1554C113.44 67.9917 115.912 68.1421 118.295 68.1491C118.305 64.5438 118.052 60.708 118.535 57.1332C118.836 57.3014 119.076 57.4165 119.426 57.4335C119.833 57.4532 120.221 57.3276 120.491 57.0077C120.743 56.7084 120.787 56.3213 120.82 55.9457C120.988 53.9953 120.838 51.9072 120.829 49.9471L120.772 38.1839L130.706 38.1737C132.316 38.1729 134.149 38.3451 135.732 38.0701C136.094 37.8643 136.178 37.5096 136.324 37.1426Z" fill="url(#paint0_linear_47_512)"/>
</g>
<defs>
<linearGradient id="paint0_linear_47_512" x1="129.504" y1="37.5732" x2="129.712" y2="67.9434" gradientUnits="userSpaceOnUse">
<stop stop-color="#38B7A3"/>
<stop offset="1" stop-color="#7DD9C6"/>
</linearGradient>
<clipPath id="clip0_47_512">
<rect width="159" height="150" fill="white"/>
</clipPath>
</defs>
</svg>
