<svg width="29" height="23" viewBox="0 0 29 23" fill="none" xmlns="http://www.w3.org/2000/svg">
<path d="M28.4137 6.36351L12.3637 22.4135C11.9887 22.7883 11.4802 22.9988 10.95 22.9988C10.4198 22.9988 9.91126 22.7883 9.53622 22.4135L0.583722 13.4135C0.209315 13.0385 -0.000976562 12.5303 -0.000976562 12.0004C-0.000976562 11.4705 0.209315 10.9622 0.583722 10.5873L3.08372 8.08726C3.45855 7.714 3.96599 7.50443 4.49497 7.50443C5.02395 7.50443 5.53139 7.714 5.90622 8.08726L11 13.0273L23.095 1.08101C23.4699 0.707366 23.9776 0.497559 24.5068 0.497559C25.0361 0.497559 25.5438 0.707366 25.9187 1.08101L28.4125 3.52351C28.6 3.70935 28.7489 3.93049 28.8505 4.17416C28.9522 4.41784 29.0046 4.67923 29.0047 4.94325C29.0048 5.20727 28.9526 5.46871 28.8512 5.71247C28.7498 5.95623 28.6011 6.1775 28.4137 6.36351Z" fill="#2EDA73"/>
</svg>
