<svg width="150" height="150" viewBox="0 0 150 150" fill="none" xmlns="http://www.w3.org/2000/svg">
<g clip-path="url(#clip0_47_2161)">
<path d="M0 0H108.581H109.022H150V44.8061V45.9398V150H128.812H127.833H76.3392H73.7549H65.546H0V114.368V10.5899V7.49613V0Z" fill="#101055"/>
<path d="M74.3036 149.913C75.9102 149.826 77.5444 149.877 79.1538 149.887L86.1089 149.906L109.353 149.908L122.427 149.899C123.645 149.899 126.884 149.748 127.833 150H76.339H73.7547H65.5458L65.5308 149.928C68.2721 149.893 71.0134 149.883 73.7548 149.899L74.3036 149.913Z" fill="#8F79C7"/>
<path d="M31.2607 118.197L57.7205 118.202C57.7989 124.16 57.8049 130.118 57.7385 136.076C56.862 135.71 55.8736 135.509 54.971 135.193C53.3099 134.61 51.6675 133.88 50.0711 133.141C43.9384 130.3 37.9296 125.872 33.417 120.834C32.6721 120.003 31.866 119.137 31.2607 118.197Z" fill="#8FE2E4"/>
<path d="M64.3031 147.666C63.5358 147.352 62.8114 146.984 62.177 146.442C60.747 145.222 59.8149 143.354 59.6787 141.482C59.5996 140.395 59.658 139.279 59.6649 138.19L59.6737 132.934L59.6805 114.272L59.6602 90.9022L59.6835 83.9055C59.6869 82.7606 59.6248 81.5951 59.6872 80.4537C59.7124 79.9951 59.819 79.4998 60.1417 79.154C60.433 78.842 61.0926 78.8253 61.504 78.8048C62.6163 78.7491 63.7477 78.7938 64.8623 78.7945L71.211 78.799L77.8214 78.7976C79.0838 78.7947 80.3597 78.751 81.62 78.8021C81.9304 78.8147 82.1954 78.842 82.4859 78.9615C83.2929 79.2939 84.0084 80.1159 84.6207 80.7225C85.7729 81.8775 86.9352 83.0222 88.1077 84.1566C88.7668 84.7955 89.4133 85.4932 90.1707 86.0169C90.6837 86.3717 91.265 86.6516 91.8773 86.7811C93.055 87.0303 94.4686 86.8872 95.6686 86.8829L101.756 86.8749L127.661 86.8658C128.851 86.8642 130.983 86.6692 132.044 87.0715C132.256 87.1519 132.47 87.328 132.632 87.4831C132.928 87.7676 133.179 88.1484 133.266 88.5543C133.463 89.48 133.324 90.622 133.321 91.5744L133.309 97.8496L129.271 97.859L129.257 90.7144L105.602 90.6757L94.9814 90.7164C93.1186 90.7251 91.2412 90.7835 89.3802 90.7284L89.2915 90.6694C88.3675 90.0479 87.5844 89.164 86.796 88.3815C85.4798 87.07 84.174 85.7482 82.8786 84.4161C82.3675 83.8925 81.7675 83.1762 81.0499 82.9542C79.9956 82.628 76.1531 82.802 74.839 82.8041C71.7316 82.8089 68.6172 82.7767 65.5105 82.8367C65.0421 83.147 64.4602 83.5419 64.3201 84.1243C64.1406 84.8705 64.3167 105.128 64.3535 105.264C64.3864 105.386 64.3751 105.35 64.4449 105.461C64.1695 107.534 64.2988 109.726 64.2978 111.82C64.2972 112.849 64.2114 113.945 64.3107 114.966C64.3319 115.185 64.369 115.39 64.504 115.57C64.6397 115.75 64.8358 115.868 65.0241 115.987C65.1581 116.752 65.2113 117.571 65.1565 118.347C64.9438 118.428 64.7044 118.543 64.5392 118.704C64.3006 118.938 64.2638 119.289 64.2478 119.605C64.1967 120.611 64.2662 121.647 64.2725 122.656L64.2949 128.793L64.3031 147.666Z" fill="white"/>
<path d="M65.5105 82.8367C68.6171 82.7767 71.7315 82.8089 74.8389 82.804C76.153 82.802 79.9956 82.628 81.0498 82.9542C81.7675 83.1761 82.3675 83.8924 82.8786 84.4161C84.174 85.7481 85.4798 87.0699 86.796 88.3814C87.5844 89.164 88.3675 90.0478 89.2915 90.6694L89.3801 90.7284C91.2412 90.7835 93.1186 90.725 94.9814 90.7164L105.602 90.6757L129.257 90.7143L129.271 97.859L89.0395 97.9051L78.0794 97.8972C76.1431 97.8947 73.9292 97.7252 72.0273 98.0163C70.199 98.2962 68.3649 99.233 67.0634 100.549C65.7049 101.922 64.9511 103.624 64.4448 105.461C64.3751 105.35 64.3864 105.386 64.3534 105.264C64.3166 105.128 64.1406 84.8705 64.32 84.1243C64.4602 83.5419 65.042 83.147 65.5105 82.8367Z" fill="#F2D261"/>
<path d="M0 114.368C0.242903 115.665 0.573771 116.793 1.72616 117.591C2.2725 117.969 2.7878 118.106 3.43881 118.166C4.43725 118.257 5.47813 118.198 6.4818 118.193L11.7326 118.169L23.9736 118.182C26.4 118.185 28.8356 118.141 31.2609 118.197C31.8662 119.137 32.6723 120.003 33.4172 120.834C37.9298 125.872 43.9386 130.3 50.0713 133.141C51.6677 133.88 53.3101 134.61 54.9712 135.193C55.8738 135.509 56.8622 135.711 57.7387 136.076C57.7191 140.122 57.1607 144.097 60.2733 147.236C61.6436 148.617 63.596 149.651 65.531 149.928L65.546 150H0V114.368Z" fill="white"/>
<path d="M13.1311 130.909C13.6097 130.883 14.0677 130.941 14.4995 131.156C15.1228 131.467 15.5631 132.025 15.7557 132.691C15.9359 133.314 15.8914 134.02 15.5697 134.59C15.1961 135.252 14.6216 135.528 13.9207 135.717C13.2434 135.788 12.6658 135.792 12.0689 135.401C11.5532 135.063 11.2293 134.515 11.1165 133.914C10.9847 133.213 11.1161 132.458 11.5347 131.873C11.9325 131.317 12.4719 131.033 13.1311 130.909Z" fill="#8FE2E4"/>
<path d="M35.1149 135.883C35.4155 135.996 35.4021 136.163 35.477 136.448C36.2336 139.333 36.586 140.67 39.6357 141.629C40.2215 141.813 40.9806 141.953 41.5037 142.267C41.2554 142.576 39.4076 142.942 38.9122 143.126C38.4673 143.29 38.0582 143.491 37.671 143.767C36.0057 144.953 35.7026 146.779 35.3768 148.666C35.2949 148.8 35.3512 148.748 35.2048 148.818C34.8503 148.271 34.8083 146.558 34.4544 145.764C33.2676 143.105 31.4865 143.186 29.1089 142.276L29.0195 142.241C30.2931 141.73 31.6403 141.518 32.8145 140.753C34.4453 139.691 34.7414 137.641 35.1149 135.883Z" fill="#3A449A"/>
<path d="M97.3411 24.7725C100.814 25.2689 107.826 29.2023 110.683 31.3458C112.839 32.9627 113.813 34.4924 116.62 35.3501C118.591 35.9521 120.303 35.5632 122.285 35.4226C125.961 35.1619 129.363 36.7196 131.583 39.6679C131.691 39.8091 131.796 39.9529 131.897 40.0994C131.998 40.2459 132.095 40.3948 132.188 40.546C132.281 40.6974 132.371 40.851 132.457 41.0067C132.542 41.1626 132.624 41.3205 132.702 41.4803C132.78 41.6402 132.854 41.8019 132.923 41.9655C132.993 42.1291 133.059 42.2942 133.12 42.461C133.182 42.6279 133.239 42.7962 133.292 42.966C133.345 43.1357 133.394 43.3066 133.438 43.4787C133.483 43.6508 133.523 43.824 133.559 43.9982C133.595 44.1724 133.626 44.3473 133.653 44.5231C133.681 44.6988 133.703 44.875 133.721 45.0519C133.74 45.2288 133.754 45.406 133.763 45.5836C133.773 45.7612 133.778 45.9389 133.778 46.1167C133.779 46.2944 133.775 46.4721 133.767 46.6498C133.758 46.8274 133.746 47.0047 133.728 47.1816C133.711 47.3587 133.69 47.5352 133.664 47.711C133.606 48.1259 133.524 48.536 133.419 48.9415C133.314 49.347 133.186 49.745 133.035 50.1356C132.364 51.8274 131.504 53.1544 131.61 55.0631C131.711 56.8977 132.473 58.6505 133.1 60.3547C133.679 61.9259 134.258 63.4813 134.695 65.0992C136.158 70.5188 136.655 75.0878 136.625 80.6686C136.61 83.4036 136.481 86.0751 136.035 88.7779C135.89 89.6585 135.772 91.21 135.342 91.9348C135.08 89.875 135.847 87.7323 134.16 86.064C134.085 85.9902 134.007 85.9194 133.927 85.8516C133.847 85.7838 133.764 85.7193 133.679 85.6581C133.593 85.5969 133.505 85.5391 133.415 85.4848C133.326 85.4304 133.234 85.3796 133.14 85.3325C133.046 85.2854 132.95 85.242 132.853 85.2024C132.756 85.1628 132.657 85.1271 132.557 85.0952C132.457 85.0633 132.355 85.0354 132.253 85.0115C132.151 84.9877 132.048 84.9679 131.944 84.952C130.786 84.7851 129.498 84.8946 128.325 84.8993L121.648 84.9185L97.3731 84.9313C97.2741 79.2562 97.3523 73.5699 97.3491 67.8937C97.3485 66.989 97.4443 62.4729 97.2811 62.034C97.085 61.879 96.9889 61.9143 96.7441 61.9102C97.1355 61.1806 96.9829 60.4401 97.0295 59.6457L97.2327 59.6114C97.3575 59.4638 97.3507 59.2963 97.3567 59.1113C97.3961 57.8936 97.3488 56.665 97.3475 55.4461L97.3443 47.9816L97.3411 24.7725Z" fill="#8FE2E4"/>
<path d="M65.0239 115.987C65.0531 115.988 65.0821 115.989 65.1112 115.99C65.4093 115.997 65.6677 115.991 65.9009 115.783C66.2455 115.476 66.3011 114.889 66.3067 114.459C66.33 112.689 66.2718 110.91 66.2683 109.138C66.2625 106.315 66.1848 104.014 68.36 101.885C69.4261 100.841 70.9101 100.094 72.39 99.8983C73.2927 99.7792 74.2196 99.811 75.1287 99.8078L79.1855 99.805L92.4452 99.8078L123.563 99.7874C128.023 99.7934 132.494 99.7508 136.953 99.8085C138.784 99.8322 140.468 100.555 141.739 101.884C142.98 103.181 143.756 105.085 143.693 106.889C143.641 108.395 143.161 109.955 142.825 111.419C142.247 114.023 141.623 116.616 140.953 119.197C140.674 120.3 140.201 121.597 140.134 122.722C140.118 122.989 140.198 123.169 140.36 123.379C139.977 123.609 139.919 124.07 139.816 124.477C139.715 124.878 139.56 125.551 139.728 125.936C139.845 125.963 139.948 125.984 140.068 125.995C139.772 126.006 139.469 126.017 139.278 126.281C138.746 127.018 138.622 128.444 138.4 129.331L136.264 138.115C135.834 139.885 135.503 141.819 134.78 143.492C134.412 144.342 133.894 145.055 133.237 145.706C132.183 146.75 130.716 147.63 129.239 147.888C127.898 148.122 125.349 147.967 123.881 147.964L113.195 147.976L66.2887 147.951L66.2792 129.323L66.2781 122.993C66.2771 121.857 66.3158 120.705 66.2585 119.572C66.2453 119.31 66.2311 119.051 66.087 118.825C65.8771 118.496 65.5177 118.404 65.1563 118.347C65.2111 117.571 65.158 116.752 65.0239 115.987Z" fill="#F2D261"/>
<path d="M0 0H108.581H109.022H150V44.8061V45.9398V150H128.812C129.374 149.892 129.933 149.777 130.483 149.621C130.636 149.577 130.787 149.529 130.938 149.479C131.088 149.427 131.237 149.372 131.385 149.313C131.533 149.254 131.679 149.192 131.823 149.127C131.968 149.062 132.111 148.992 132.252 148.919C132.393 148.847 132.533 148.771 132.67 148.69C132.808 148.611 132.943 148.528 133.077 148.441C133.21 148.355 133.341 148.266 133.47 148.173C133.599 148.081 133.725 147.985 133.85 147.886C133.974 147.787 134.096 147.685 134.215 147.58C134.334 147.475 134.451 147.367 134.564 147.256C134.678 147.145 134.79 147.031 134.898 146.915C135.006 146.799 135.112 146.68 135.214 146.559C135.316 146.438 135.416 146.314 135.512 146.187C135.609 146.061 135.702 145.932 135.792 145.801C135.882 145.671 135.968 145.537 136.052 145.402C136.135 145.267 136.215 145.13 136.292 144.991C136.47 144.667 136.629 144.333 136.77 143.991C136.911 143.649 137.032 143.301 137.134 142.945C137.947 140.197 138.5 137.338 139.172 134.55C139.734 132.221 140.45 129.893 140.897 127.54C140.946 127.279 141.028 126.927 140.931 126.674C140.795 126.316 140.402 126.123 140.068 125.995C139.948 125.984 139.845 125.963 139.728 125.936C139.56 125.551 139.714 124.878 139.816 124.477C139.919 124.07 139.977 123.609 140.36 123.379C140.588 123.562 140.766 123.694 141.069 123.706C141.34 123.716 141.584 123.621 141.77 123.423C141.958 123.224 142.06 122.947 142.143 122.691C142.743 120.854 143.094 118.866 143.548 116.981C144.213 114.218 144.962 111.498 145.485 108.698C145.603 108.067 145.681 107.429 145.683 106.786C145.688 104.373 144.656 101.895 142.944 100.195C140.671 97.9374 138.318 97.882 135.313 97.888C135.306 95.9155 135.209 93.9018 135.342 91.9351C135.772 91.2103 135.889 89.6587 136.035 88.7782C136.481 86.0754 136.61 83.4038 136.625 80.6688C136.655 75.088 136.158 70.519 134.695 65.0994C134.258 63.4815 133.678 61.9261 133.1 60.3549C132.473 58.6507 131.711 56.8979 131.609 55.0633C131.504 53.1546 132.363 51.8276 133.034 50.1359C133.186 49.7453 133.314 49.3472 133.419 48.9417C133.524 48.5363 133.606 48.1261 133.663 47.7113C133.689 47.5354 133.711 47.3589 133.728 47.1819C133.745 47.0049 133.758 46.8276 133.766 46.65C133.775 46.4724 133.779 46.2947 133.778 46.1169C133.777 45.9391 133.772 45.7614 133.763 45.5839C133.754 45.4062 133.74 45.229 133.721 45.0521C133.703 44.8753 133.68 44.699 133.653 44.5233C133.626 44.3476 133.595 44.1726 133.559 43.9985C133.523 43.8243 133.483 43.6511 133.438 43.4789C133.394 43.3068 133.345 43.1359 133.292 42.9662C133.239 42.7965 133.181 42.6282 133.12 42.4613C133.058 42.2945 132.993 42.1293 132.923 41.9657C132.853 41.8021 132.78 41.6404 132.702 41.4806C132.624 41.3207 132.542 41.1628 132.456 41.007C132.371 40.8512 132.281 40.6977 132.188 40.5463C132.094 40.395 131.997 40.2461 131.896 40.0997C131.796 39.9532 131.691 39.8093 131.583 39.6681C129.363 36.7198 125.961 35.1621 122.285 35.4229C120.303 35.5635 118.591 35.9524 116.62 35.3503C113.812 34.4927 112.839 32.9629 110.683 31.346C107.826 29.2025 100.813 25.2691 97.3409 24.7727C97.3221 22.3278 97.32 19.8829 97.3348 17.4379C97.3374 15.8996 97.4514 14.2691 97.1802 12.7506C97.133 12.4895 97.0741 12.2311 97.0037 11.9753C96.9333 11.7195 96.8516 11.4674 96.7585 11.2189C96.6655 10.9705 96.5616 10.7267 96.4466 10.4876C96.3317 10.2485 96.2063 10.015 96.0703 9.78716C94.879 7.7475 93.0004 6.28828 90.706 5.69158C89.1041 5.27498 87.3577 5.42026 85.7146 5.42295L80.3443 5.43167L62.3946 5.42817L21.9387 5.43261L9.13642 5.43504C6.87855 5.43472 4.60333 5.37554 2.34781 5.44953C1.9246 5.4634 1.53221 5.5472 1.16895 5.77299C0.54726 6.15938 0.225974 6.77483 0.0668008 7.46843L0 7.49613V0Z" fill="white"/>
<path d="M150 45.94C149.77 46.5274 149.505 47.1024 148.982 47.4898C148.484 47.859 147.806 47.9794 147.202 47.8578C146.484 47.7125 145.755 47.2535 145.363 46.6278C145.321 46.5608 145.283 46.4919 145.249 46.4211C145.214 46.3503 145.183 46.278 145.156 46.2041C145.129 46.1302 145.105 46.0551 145.086 45.9788C145.066 45.9026 145.05 45.8255 145.038 45.7477C145.026 45.6698 145.018 45.5915 145.014 45.5129C145.01 45.4342 145.01 45.3555 145.014 45.2769C145.018 45.1982 145.026 45.1199 145.038 45.0421C145.05 44.9641 145.065 44.887 145.085 44.8108C145.095 44.7687 145.107 44.7268 145.12 44.6852C145.132 44.6437 145.146 44.6026 145.161 44.5617C145.176 44.5209 145.192 44.4805 145.209 44.4405C145.226 44.4005 145.243 44.361 145.262 44.3218C145.281 44.2827 145.301 44.2442 145.322 44.2061C145.343 44.1681 145.365 44.1306 145.388 44.0937C145.411 44.0568 145.435 44.0205 145.459 43.9847C145.484 43.9491 145.51 43.9141 145.536 43.8797C145.563 43.8453 145.59 43.8117 145.619 43.7786C145.647 43.7456 145.676 43.7134 145.706 43.682C145.736 43.6505 145.767 43.6199 145.798 43.59C145.83 43.5601 145.862 43.531 145.895 43.5028C145.928 43.4746 145.962 43.4472 145.996 43.4208C146.031 43.3943 146.066 43.3687 146.102 43.344C146.137 43.3194 146.174 43.2957 146.211 43.2728C146.248 43.2501 146.285 43.2283 146.323 43.2074C146.88 42.905 147.555 42.8181 148.164 43.0045C149.071 43.2821 149.587 44.0066 150 44.8062V45.94Z" fill="#8FE2E4"/>
<path d="M127.512 15.3153C128.098 15.2689 128.565 15.3197 129.088 15.6143C129.158 15.6531 129.225 15.6953 129.291 15.7409C129.356 15.7864 129.419 15.835 129.48 15.8868C129.54 15.9386 129.598 15.9934 129.653 16.051C129.708 16.1085 129.76 16.1686 129.809 16.2314C129.859 16.2942 129.904 16.3593 129.947 16.4267C129.99 16.494 130.029 16.5633 130.065 16.6346C130.1 16.7059 130.132 16.7787 130.161 16.8531C130.189 16.9275 130.214 17.0032 130.235 17.0802C130.257 17.1632 130.275 17.247 130.288 17.3317C130.302 17.4165 130.311 17.5017 130.316 17.5873C130.322 17.673 130.322 17.7588 130.319 17.8445C130.316 17.9303 130.308 18.0157 130.296 18.1007C130.284 18.1857 130.268 18.2699 130.248 18.3533C130.227 18.4367 130.203 18.5188 130.174 18.5998C130.146 18.6808 130.113 18.7601 130.077 18.8378C130.04 18.9155 130 18.9912 129.956 19.0649C129.536 19.76 128.906 20.0957 128.14 20.2852C127.618 20.2992 127.196 20.2642 126.721 20.0274C126.682 20.0082 126.644 19.988 126.607 19.9668C126.569 19.9456 126.532 19.9235 126.496 19.9004C126.46 19.8774 126.424 19.8534 126.389 19.8285C126.354 19.8036 126.319 19.7778 126.286 19.7512C126.252 19.7244 126.219 19.6969 126.186 19.6685C126.154 19.6401 126.122 19.6109 126.092 19.581C126.061 19.551 126.031 19.5202 126.001 19.4887C125.972 19.4571 125.944 19.4248 125.916 19.3918C125.888 19.3588 125.862 19.3251 125.836 19.2908C125.81 19.2564 125.785 19.2214 125.761 19.1857C125.737 19.1501 125.713 19.1138 125.691 19.0769C125.669 19.0401 125.648 19.0027 125.627 18.9647C125.607 18.9268 125.588 18.8884 125.569 18.8494C125.551 18.8104 125.534 18.771 125.517 18.7312C125.501 18.6915 125.486 18.6513 125.471 18.6106C125.457 18.57 125.444 18.529 125.432 18.4877C125.408 18.4072 125.388 18.3256 125.372 18.243C125.356 18.1603 125.344 18.0771 125.337 17.9934C125.329 17.9097 125.326 17.8257 125.327 17.7415C125.329 17.6575 125.334 17.5736 125.343 17.49C125.353 17.4065 125.367 17.3237 125.385 17.2414C125.403 17.1593 125.425 17.0783 125.451 16.9984C125.477 16.9185 125.508 16.84 125.542 16.7632C125.576 16.6863 125.614 16.6114 125.656 16.5385C126.077 15.817 126.745 15.5296 127.512 15.3153Z" fill="#8FE2E4"/>
<path d="M108.581 0H109.022C109.322 1.26765 109.658 2.68969 110.346 3.80563C111.592 5.82504 114.215 6.29612 116.356 6.78677C114.859 7.12434 113.311 7.50236 111.946 8.22081C109.724 9.39054 109.379 12.0927 108.7 14.2677C108.385 12.8838 108.053 11.3113 107.354 10.0714C106.099 7.84627 103.696 7.3603 101.419 6.71345C102.748 6.50533 104.249 6.11298 105.432 5.47063C107.518 4.33787 107.956 2.09982 108.581 0Z" fill="#3A449A"/>
<path d="M57.7658 116.264L21.1198 116.283L9.4032 116.296C7.47127 116.292 5.48958 116.372 3.56504 116.242C3.21201 116.218 2.9605 116.131 2.68121 115.911C2.21564 115.544 2.07893 114.944 2.03116 114.38C1.93146 113.203 2.02272 111.958 2.02965 110.775L2.03344 104.398L2.03713 82.1808L2.01121 14.5285L1.99671 10.1207C1.99656 9.43342 1.92654 8.6589 2.03655 7.98304C2.06268 7.82246 2.12859 7.62484 2.25565 7.5167C2.49778 7.31063 3.01978 7.29478 3.32106 7.28832C5.77044 7.23576 8.22777 7.26625 10.6781 7.2581L26.5984 7.24859L61.6697 7.24561L80.4162 7.2501L85.9133 7.26247C87.069 7.26664 88.2676 7.20951 89.4143 7.35595C90.9029 7.54604 92.233 8.27618 93.2984 9.3198C94.2405 10.2429 95.0047 11.4857 95.2413 12.7958C95.5401 14.4496 95.4019 16.2964 95.408 17.9785L95.424 27.0989L95.4361 59.6082C95.9691 59.6044 96.498 59.5963 97.0292 59.6458C96.9826 60.4402 97.1352 61.1807 96.7438 61.9103L95.419 61.9487C95.3071 64.7206 95.3964 67.5166 95.4139 70.2911C95.4446 75.1749 95.476 80.077 95.42 84.9604C91.1976 84.9995 91.6418 84.9642 88.6901 82.0667C87.5163 80.9145 84.9927 78.07 83.7086 77.3824C83.0751 77.0432 82.4014 76.8951 81.6871 76.9007L67.214 76.845L63.0413 76.8498C62.2264 76.8538 61.3463 76.8051 60.5431 76.9373C59.8305 77.0545 59.2264 77.3553 58.7181 77.8669C58.4578 78.1286 58.2565 78.4423 58.0653 78.7563C57.9156 79.1479 57.8037 79.5044 57.7363 79.9206C57.9218 83.1649 57.7462 86.4582 57.7542 89.7082L57.7895 96.7424C57.7886 97.7442 57.8308 98.77 57.7768 99.7688C57.8402 105.266 57.7202 110.766 57.7658 116.264Z" fill="white"/>
<path d="M57.7066 86.2761C57.7374 84.8278 57.7103 83.3759 57.7009 81.9274C57.6969 81.3081 57.5966 80.5186 57.7363 79.9209C57.9218 83.1652 57.7461 86.4585 57.7542 89.7085L57.7895 96.7427C57.7886 97.7445 57.8308 98.7704 57.7768 99.7691C57.637 98.9917 57.7105 98.1037 57.7127 97.3112L57.7209 93.1467L16.552 93.1654L16.5493 86.2114C21.0725 86.3023 25.6091 86.2189 30.134 86.2291L57.7066 86.2761Z" fill="#8F79C7"/>
<path d="M16.5518 71.3754L81.4565 71.353L81.4521 74.8547C81.4514 75.4761 81.3874 76.1838 81.5063 76.7927L81.6874 76.9008L67.2143 76.8452L63.0415 76.85C62.2266 76.854 61.3465 76.8053 60.5434 76.9375C59.8307 77.0546 59.2266 77.3555 58.7183 77.867C58.458 78.1288 58.2567 78.4424 58.0656 78.7565C56.2958 78.5756 54.414 78.6784 52.6338 78.6767L43.2387 78.6796L16.5521 78.6831L16.5518 71.3754Z" fill="#8F79C7"/>
<path d="M49.1515 12.0508C49.4607 12.3983 49.6921 12.8589 49.9296 13.2585C50.5781 14.3501 51.1713 15.4947 52.0327 16.4389C53.1105 17.6205 54.3969 18.3132 56.0088 18.3765C58.0601 18.457 59.5132 17.3058 60.9443 15.9869C62.2814 16.9346 63.5255 18.0312 64.7774 19.0872C66.925 20.8665 69.0084 22.7182 71.0274 24.6422C68.7583 26.969 67.5495 29.6947 67.4526 32.9581C67.3511 36.3838 68.1761 38.4885 70.5036 40.9607C70.5038 40.9799 70.5042 40.9991 70.5041 41.0183C70.4975 42.8792 70.5114 44.775 70.2514 46.6201C69.6298 51.0293 67.4131 55.5755 64.2537 58.6962C60.0249 62.8732 54.6071 64.9789 48.6687 64.9409C42.9123 64.7246 37.6882 62.8253 33.6675 58.5618C33.5603 58.45 33.4542 58.3371 33.3493 58.223C33.2444 58.109 33.1408 57.9939 33.0383 57.8776C32.9359 57.7614 32.8347 57.6441 32.7348 57.5257C32.6349 57.4073 32.5362 57.2878 32.4388 57.1673C32.3414 57.0469 32.2453 56.9254 32.1505 56.8028C32.0557 56.6804 31.9622 56.5569 31.87 56.4324C31.7778 56.3079 31.6869 56.1824 31.5974 56.0559C31.5078 55.9295 31.4196 55.8021 31.3327 55.6737C31.2459 55.5455 31.1604 55.4163 31.0763 55.2861C30.9922 55.1561 30.9095 55.0251 30.8282 54.8933C30.7468 54.7613 30.6669 54.6286 30.5884 54.4951C30.5099 54.3615 30.4328 54.2271 30.3572 54.0919C30.2815 53.9567 30.2073 53.8207 30.1346 53.6839C30.0618 53.5472 29.9905 53.4097 29.9206 53.2714C29.8507 53.1331 29.7824 52.9941 29.7155 52.8544C29.6486 52.7146 29.5832 52.5742 29.5192 52.4331C29.4552 52.292 29.3928 52.1502 29.3318 52.0077C29.271 51.8652 29.2116 51.7221 29.1537 51.5785C29.0958 51.4347 29.0395 51.2904 28.9847 51.1455C28.9298 51.0006 28.8765 50.8552 28.8247 50.7091C28.773 50.5631 28.7229 50.4165 28.6743 50.2693C28.6256 50.1223 28.5786 49.9747 28.5331 49.8267C28.4875 49.6785 28.4436 49.5299 28.4012 49.3809C28.3588 49.2319 28.3181 49.0824 28.2789 48.9325C28.2397 48.7826 28.2021 48.6323 28.1661 48.4816C28.1302 48.331 28.0958 48.1799 28.063 48.0286C28.0302 47.8771 27.999 47.7253 27.9694 47.5733C27.9399 47.4212 27.912 47.2688 27.8856 47.1161C27.8592 46.9635 27.8345 46.8106 27.8115 46.6573C27.7883 46.5041 27.7668 46.3507 27.747 46.1971C27.7272 46.0434 27.709 45.8895 27.6924 45.7355C27.6758 45.5815 27.6608 45.4273 27.6476 45.2729C27.5141 43.692 27.5758 42.1058 27.6172 40.5224C27.7922 40.3634 27.9646 40.2016 28.1343 40.037C29.9715 38.2405 30.7749 35.8803 30.7861 33.3523C30.8027 29.7031 29.3898 27.317 26.8809 24.8063C28.1603 23.5294 29.5494 22.3628 30.913 21.1778C32.8727 19.4753 34.8442 17.7655 36.7447 15.9976C37.2134 16.4666 37.6961 16.909 38.2482 17.2796C39.6477 18.2193 41.3096 18.6255 42.9763 18.2846C45.0774 17.855 46.6406 16.2325 47.7336 14.4719C48.2113 13.7024 48.6055 12.8816 49.1024 12.1243L49.1515 12.0508Z" fill="#101055"/>
<path d="M49.0799 18.5952C51.1366 20.5963 53.4819 21.7928 56.4104 21.7404C58.1319 21.7096 59.5968 21.2019 61.0775 20.3529C62.7672 21.9742 64.6648 23.5268 66.5008 24.9809C64.2729 28.6716 63.4207 33.1276 64.4773 37.354C64.963 39.2965 65.8547 40.6613 67.0068 42.2614C67.0387 45.2231 66.7564 48.0661 65.54 50.812C64.9872 50.1746 64.6806 49.2124 64.2945 48.4588C62.2125 44.3967 58.2407 41.5569 53.9743 40.1659C54.5045 39.3613 54.9687 38.525 55.2029 37.5827C55.6359 35.8404 55.2997 34.0789 54.3687 32.5574C53.4975 31.1335 51.9937 30.0781 50.3699 29.7009C48.6394 29.2991 46.9197 29.7214 45.4396 30.6582C43.9749 31.5852 42.8987 33.0072 42.5244 34.7149C42.0539 36.8611 42.8421 38.5068 43.9596 40.2806L43.8971 40.3005C40.1959 41.5104 36.8616 44.0876 34.7073 47.3185C33.9253 48.4912 33.3171 49.7643 32.6823 51.0198C31.4497 48.2875 30.8295 45.1574 31.0451 42.154C33.6174 38.837 34.507 35.2974 33.9901 31.117C33.703 28.7952 32.7113 27.0374 31.7256 24.9771C32.9803 24.0304 34.1443 22.975 35.3216 21.9352C35.8437 21.4742 36.359 20.9655 36.92 20.554C39.2291 21.8095 41.844 22.1293 44.3823 21.3928C46.2614 20.8476 47.6074 19.8345 49.0799 18.5952Z" fill="#8FE2E4"/>
<path d="M43.96 40.2808C42.8425 38.507 42.0542 36.8612 42.5248 34.7151C42.899 33.0074 43.9752 31.5853 45.4399 30.6583C46.92 29.7216 48.6397 29.2993 50.3703 29.7011C51.9941 30.0783 53.4979 31.1337 54.369 32.5575C55.3001 34.079 55.6363 35.8405 55.2033 37.5828C54.969 38.5251 54.5048 39.3614 53.9747 40.1661C58.2411 41.5571 62.2128 44.3968 64.2948 48.459C64.681 49.2125 64.9875 50.1748 65.5404 50.8121C64.9301 52.1344 64.2491 53.3133 63.377 54.4848C62.7191 55.3616 61.9884 56.1553 61.2002 56.9155L61.1505 56.9645C57.9995 60.0203 53.2212 61.7012 48.864 61.6448C44.3519 61.5865 39.7307 59.8039 36.5749 56.5408C35.9541 55.9083 35.382 55.2465 34.8137 54.5675C33.9775 53.5978 33.086 52.2397 32.6826 51.02C33.3175 49.7645 33.9257 48.4914 34.7076 47.3186C36.862 44.0877 40.1962 41.5105 43.8975 40.3007L43.96 40.2808Z" fill="white"/>
<path d="M34.8135 54.5675C35.2468 53.6764 35.5106 52.6648 35.9055 51.7468C37.4791 48.0883 40.1771 45.2332 43.9137 43.7704C47.364 42.4195 51.4061 42.4315 54.8128 43.9302C58.5012 45.5527 60.9586 48.4273 62.5238 52.0834C62.8406 52.8234 63.0252 53.6045 63.3218 54.3486L63.3768 54.4847C62.7189 55.3616 61.9882 56.1552 61.2 56.9155C61.2185 54.9437 60.3611 52.8375 59.326 51.1898C57.4947 48.275 55.017 46.2267 51.6151 45.4742C51.5223 45.4527 51.4293 45.4324 51.336 45.4132C51.2427 45.3941 51.1491 45.3762 51.0554 45.3595C50.9616 45.3427 50.8677 45.3271 50.7735 45.3126C50.6794 45.2982 50.5851 45.2851 50.4907 45.273C50.3961 45.261 50.3015 45.2502 50.2068 45.2405C50.1121 45.2309 50.0172 45.2224 49.9223 45.2152C49.8273 45.208 49.7322 45.2019 49.6371 45.197C49.542 45.1921 49.4468 45.1885 49.3516 45.186C49.2564 45.1836 49.1612 45.1823 49.066 45.1822C48.9708 45.1822 48.8755 45.1834 48.7803 45.1856C48.6851 45.1879 48.5899 45.1915 48.4948 45.1963C48.3997 45.201 48.3047 45.2069 48.2098 45.214C48.1147 45.2211 48.0199 45.2295 47.9251 45.2391C47.8304 45.2485 47.7358 45.2592 47.6413 45.2711C47.5467 45.2831 47.4524 45.2961 47.3583 45.3104C47.2641 45.3248 47.1702 45.3402 47.0764 45.3568C46.9827 45.3735 46.8891 45.3914 46.7958 45.4103C46.7024 45.4293 46.6093 45.4495 46.5166 45.4708C46.4238 45.4922 46.3312 45.5147 46.239 45.5385C46.1467 45.5621 46.0547 45.5869 45.9631 45.6129C45.8715 45.639 45.7803 45.6661 45.6894 45.6943C45.5984 45.7227 45.5079 45.7521 45.4176 45.7827C45.3275 45.8132 45.2377 45.845 45.1482 45.8779C45.0589 45.9107 44.9699 45.9446 44.8813 45.9797C44.7928 46.0147 44.7047 46.0509 44.6171 46.0882C44.5295 46.1255 44.4424 46.164 44.3558 46.2035C44.269 46.243 44.1829 46.2835 44.0972 46.3252C44.0116 46.3669 43.9265 46.4097 43.8419 46.4534C43.7573 46.4973 43.6733 46.5421 43.5899 46.588C43.5065 46.634 43.4237 46.681 43.3415 46.729C43.2592 46.777 43.1775 46.8261 43.0966 46.8762C43.0155 46.9263 42.9352 46.9773 42.8555 47.0294C40.1498 48.7748 38.5006 51.2823 37.3523 54.2341C37.0622 54.9797 36.7425 55.7575 36.5747 56.5408C35.9539 55.9083 35.3818 55.2464 34.8135 54.5675Z" fill="#8FE2E4"/>
<path d="M36.5747 56.5407C36.7426 55.7574 37.0622 54.9796 37.3524 54.234C38.5007 51.2822 40.1498 48.7747 42.8555 47.0293C42.9352 46.9772 43.0156 46.9262 43.0966 46.8761C43.1776 46.826 43.2592 46.7769 43.3416 46.7289C43.4238 46.6809 43.5066 46.6339 43.59 46.5879C43.6734 46.542 43.7574 46.4972 43.8419 46.4533C43.9265 46.4096 44.0116 46.3668 44.0973 46.3251C44.1829 46.2834 44.2691 46.2429 44.3558 46.2034C44.4424 46.1639 44.5295 46.1254 44.6171 46.0881C44.7047 46.0508 44.7928 46.0146 44.8814 45.9796C44.97 45.9445 45.0589 45.9106 45.1483 45.8778C45.2377 45.8449 45.3275 45.8131 45.4177 45.7826C45.5079 45.752 45.5985 45.7226 45.6894 45.6942C45.7803 45.666 45.8716 45.6389 45.9632 45.6128C46.0548 45.5868 46.1467 45.562 46.239 45.5384C46.3313 45.5146 46.4238 45.4921 46.5166 45.4707C46.6094 45.4494 46.7024 45.4292 46.7958 45.4102C46.8892 45.3913 46.9827 45.3734 47.0765 45.3567C47.1702 45.3401 47.2642 45.3247 47.3583 45.3103C47.4524 45.296 47.5468 45.283 47.6413 45.271C47.7358 45.2591 47.8305 45.2484 47.9252 45.239C48.0199 45.2294 48.1148 45.221 48.2098 45.2139C48.3047 45.2068 48.3998 45.2009 48.4949 45.1962C48.59 45.1914 48.6852 45.1878 48.7804 45.1855C48.8756 45.1833 48.9708 45.1821 49.066 45.1821C49.1612 45.1822 49.2564 45.1835 49.3517 45.1859C49.4469 45.1884 49.542 45.192 49.6372 45.1969C49.7323 45.2018 49.8273 45.2079 49.9224 45.2151C50.0173 45.2223 50.1121 45.2308 50.2068 45.2404C50.3016 45.2501 50.3962 45.2609 50.4907 45.2729C50.5852 45.285 50.6794 45.2982 50.7736 45.3126C50.8677 45.327 50.9617 45.3426 51.0554 45.3594C51.1492 45.3761 51.2427 45.394 51.3361 45.4131C51.4293 45.4323 51.5224 45.4526 51.6151 45.4741C55.0171 46.2266 57.4947 48.2749 59.3261 51.1897C60.3611 52.8374 61.2185 54.9436 61.2 56.9154L61.1504 56.9643C57.9994 60.0201 53.221 61.701 48.8639 61.6446C44.3517 61.5863 39.7306 59.8038 36.5747 56.5407Z" fill="white"/>
</g>
<defs>
<clipPath id="clip0_47_2161">
<rect width="150" height="150" fill="white"/>
</clipPath>
</defs>
</svg>
