<svg width="150" height="150" viewBox="0 0 150 150" fill="none" xmlns="http://www.w3.org/2000/svg">
<g clip-path="url(#clip0_47_2262)">
<path d="M0 0H38.2629H42.7416H77.0917H78.9504H150V54.7918V56.4558V150H128.395H73.9866H8.78829H0V79.3315V78.7846V41.7098V39.3391V0Z" fill="white"/>
<path d="M89.1748 42.2105C89.616 42.1883 90.0244 42.1682 90.446 42.3337C90.9673 42.5385 91.4021 42.9384 91.6177 43.4586C91.6451 43.5241 91.669 43.5909 91.6896 43.6588C91.7103 43.7267 91.7277 43.7955 91.7416 43.8651C91.7555 43.9348 91.7659 44.005 91.7728 44.0756C91.7799 44.1463 91.7833 44.2171 91.7832 44.2881C91.7832 44.3591 91.7797 44.43 91.7727 44.5007C91.7657 44.5713 91.7552 44.6414 91.7412 44.711C91.7272 44.7807 91.7098 44.8495 91.689 44.9174C91.6682 44.9853 91.6442 45.052 91.6168 45.1175C91.354 45.7303 90.8632 46.0634 90.2599 46.2909C89.8829 46.3569 89.548 46.378 89.1765 46.2644C89.111 46.244 89.0467 46.2205 88.9836 46.1937C88.9205 46.1669 88.859 46.137 88.7989 46.104C88.7388 46.0709 88.6806 46.035 88.6241 45.996C88.5678 45.957 88.5135 45.9153 88.4613 45.8707C88.4091 45.8263 88.3593 45.7793 88.3118 45.7298C88.2645 45.6803 88.2197 45.6285 88.1775 45.5744C88.1353 45.5204 88.096 45.4644 88.0596 45.4064C88.0231 45.3483 87.9896 45.2885 87.9593 45.2271C87.925 45.1601 87.8943 45.0915 87.8671 45.0213C87.84 44.9511 87.8165 44.8797 87.7968 44.8071C87.7772 44.7345 87.7613 44.661 87.7492 44.5867C87.7372 44.5124 87.729 44.4377 87.7247 44.3625C87.7204 44.2874 87.72 44.2123 87.7236 44.1371C87.7272 44.0619 87.7346 43.9872 87.746 43.9128C87.7573 43.8384 87.7725 43.7648 87.7915 43.6919C87.8105 43.6191 87.8332 43.5475 87.8596 43.477C88.1022 42.8473 88.5745 42.4779 89.1748 42.2105Z" fill="#4BBEB1"/>
<path d="M6.47614 103.652C6.88063 103.631 7.26065 103.596 7.64881 103.741C8.16723 103.933 8.58462 104.322 8.79538 104.836C9.02408 105.392 9.02049 106.078 8.76033 106.624C8.46615 107.242 7.98095 107.528 7.35514 107.738C6.97177 107.77 6.64373 107.782 6.28225 107.631C6.20883 107.599 6.13721 107.564 6.06741 107.526C5.9976 107.487 5.92998 107.444 5.86455 107.399C5.79912 107.353 5.73623 107.304 5.67587 107.251C5.61552 107.199 5.55802 107.144 5.50337 107.086C5.44872 107.027 5.39722 106.966 5.34886 106.903C5.30051 106.839 5.25556 106.773 5.21402 106.705C5.17247 106.637 5.13455 106.567 5.10026 106.495C5.06597 106.422 5.03549 106.349 5.00881 106.273C4.82166 105.754 4.82951 105.174 5.09012 104.68C5.39462 104.103 5.88615 103.85 6.47614 103.652Z" fill="#4BBEB1"/>
<path d="M121.721 16.1233C122.17 16.1044 122.547 16.1366 122.952 16.3473C123.422 16.592 123.76 17.0206 123.913 17.526C124.089 18.1109 124.031 18.7894 123.72 19.3197C123.389 19.8832 122.947 20.0669 122.354 20.2392C121.822 20.2272 121.396 20.221 120.921 19.9455C120.458 19.6773 120.107 19.2411 119.973 18.7203C119.834 18.1845 119.935 17.5941 120.228 17.1264C120.584 16.5578 121.088 16.2832 121.721 16.1233Z" fill="#4BBEB1"/>
<path d="M133.145 96.6966C133.253 96.6901 133.36 96.6911 133.467 96.6996C133.574 96.708 133.681 96.7238 133.786 96.7469C133.891 96.7702 133.994 96.8005 134.095 96.8379C134.195 96.8754 134.293 96.9197 134.388 96.9706C134.888 97.2435 135.24 97.7061 135.392 98.2532C135.546 98.8062 135.492 99.4364 135.204 99.9372C134.864 100.529 134.358 100.777 133.719 100.935C133.237 100.935 132.775 100.881 132.347 100.641C131.835 100.355 131.465 99.8943 131.317 99.3248C131.178 98.7903 131.259 98.1925 131.547 97.72C131.912 97.1219 132.482 96.8416 133.145 96.6966Z" fill="#4BBEB1"/>
<path d="M77.0918 0H78.9505C79.6409 0.344707 80.2151 0.741623 80.6594 1.38574C81.139 2.08102 81.3388 2.90912 81.1538 3.74033C80.9572 4.62327 80.3933 5.45413 79.6102 5.91697C79.5674 5.94212 79.524 5.9662 79.4801 5.98922C79.4362 6.01225 79.3918 6.03418 79.3468 6.05502C79.3018 6.07586 79.2563 6.09559 79.2103 6.1142C79.1643 6.13281 79.1179 6.15029 79.0711 6.16663C79.0242 6.18295 78.977 6.19813 78.9294 6.21215C78.8819 6.22618 78.834 6.23903 78.7859 6.25071C78.7376 6.26238 78.6892 6.27286 78.6404 6.28216C78.5917 6.29146 78.5428 6.29956 78.4937 6.30646C78.4445 6.31336 78.3953 6.31906 78.346 6.32354C78.2966 6.32802 78.2471 6.33129 78.1975 6.33335C78.148 6.33541 78.0984 6.33626 78.0488 6.33589C77.9992 6.33552 77.9496 6.33394 77.9001 6.33114C77.8506 6.32834 77.8012 6.32433 77.7519 6.3191C77.7025 6.31388 77.6534 6.30745 77.6044 6.29982C77.5553 6.29219 77.5065 6.28336 77.458 6.27334C77.4095 6.26331 77.3612 6.2521 77.3131 6.23971C76.4903 6.02392 75.7652 5.43076 75.3574 4.68806C74.9462 3.93911 74.8112 3.03981 75.0548 2.21404C75.3659 1.15899 76.1654 0.502318 77.0918 0Z" fill="#4BBEB1"/>
<path d="M143.202 57.3431C142.03 56.07 140.327 57.2889 139.094 56.4856C138.829 56.3135 138.621 56.0334 138.575 55.7176C138.535 55.4416 138.573 55.1583 138.755 54.9381C139.328 54.245 141.038 54.5091 141.855 54.4616C144.426 54.3122 142.436 50.9253 143.588 49.7201C143.832 49.4656 144.198 49.4183 144.534 49.4255C146.373 49.4655 144.87 53.1276 145.84 54.0563C146.484 54.672 148.565 54.4228 149.461 54.4216C149.647 54.5318 149.823 54.6674 150 54.7916V56.4557C149.159 57.212 147.539 56.5739 146.478 56.8275C144.599 57.2769 146.129 59.9737 145.267 61.1857C145.106 61.4132 144.881 61.4943 144.616 61.538C144.315 61.5873 143.992 61.5598 143.747 61.3604C142.914 60.6828 143.338 58.4596 143.214 57.4364C143.211 57.4052 143.206 57.3742 143.202 57.3431Z" fill="#F2D261"/>
<path d="M0 78.7846C0.240883 78.3494 0.391521 78.1177 0.882932 77.9774C1.95003 77.6725 4.1094 78.4821 4.75937 77.3806C5.3897 76.3123 4.16448 73.6344 5.68456 73.147C5.98729 73.0501 6.28671 73.0823 6.56401 73.2405C6.88456 73.4233 7.09753 73.7654 7.18102 74.1184C7.4367 75.1993 6.69661 76.976 7.79183 77.7092L7.96365 77.8224C8.8742 77.8057 10.7188 77.5159 11.3846 78.1943C11.6337 78.4482 11.7037 78.7968 11.6774 79.1422C11.6487 79.5178 11.4249 79.837 11.1331 80.0629C11.0352 80.1386 10.9285 80.2038 10.8229 80.2679C10.0855 80.2529 8.20162 80.0119 7.62601 80.5162C7.27572 80.8233 7.19125 81.3647 7.18062 81.8053C7.16213 82.571 7.41561 84.4675 6.77899 84.9969C6.55009 85.1873 6.29969 85.204 6.01964 85.1554C5.68339 85.0969 5.35538 84.9638 5.15389 84.6757C4.32797 83.4947 5.85025 80.7106 3.87417 80.3081C2.84332 80.0982 0.910049 80.7004 0.242682 79.7262C0.155796 79.5984 0.0749023 79.4669 0 79.3316V78.7846Z" fill="#F2D261"/>
<path d="M96.4762 15.4272C96.7938 15.4344 97.0012 15.4822 97.1931 15.7494C97.671 16.4147 97.7049 17.5817 97.8988 18.3719C97.9794 18.7092 98.0783 19.041 98.1956 19.3674C98.3128 19.6938 98.4476 20.0126 98.6 20.3241C99.1552 21.4438 100.349 22.3218 101.463 22.8357C102.117 23.137 102.808 23.3893 103.363 23.8589L103.369 24.0008L103.48 23.9831C103.478 24.0102 103.481 24.038 103.474 24.0641C103.296 24.7362 101.083 25.4496 100.424 25.8808C98.3794 27.2185 98.1178 28.7821 97.6592 31.0352C97.5282 31.6781 97.4857 32.2908 96.8991 32.679C96.7419 32.6632 96.5748 32.6496 96.4302 32.5807C95.9125 32.3345 95.5369 29.569 95.2961 28.8776C94.7206 27.2247 93.7615 26.1035 92.1609 25.3708C91.6661 25.1443 91.1326 24.9808 90.6505 24.7296C90.3131 24.5537 89.9843 24.3297 89.8604 23.9548C90.1357 23.1742 93.1954 22.5317 94.2645 21.1412C94.9022 20.3119 95.3241 19.341 95.5672 18.3263C95.8045 17.3365 95.8271 16.2555 96.4762 15.4272Z" fill="#F2D261"/>
<path d="M14.6501 147.388L14.6589 123.187L14.6759 116.837C14.6743 115.557 14.5693 114.2 14.7494 112.935C14.8581 112.172 15.194 111.533 15.7439 110.989C16.1336 110.603 16.6737 110.286 17.2151 110.181C18.6865 109.897 21.1701 110.066 22.7476 110.067C25.6883 110.069 28.6454 110.004 31.584 110.078C32.5261 110.102 33.4231 110.439 34.0864 111.127C34.6379 111.699 34.9564 112.475 35.0563 113.256C35.1992 114.374 35.1067 115.58 35.1023 116.707L35.098 122.679L35.154 138.334C35.156 141.338 35.0618 144.367 35.1527 147.368L14.6501 147.388Z" fill="#F2D261"/>
<path d="M99.6003 147.328L99.6285 94.639L99.622 77.6564C99.6192 74.7528 99.5001 71.7982 99.6296 68.9006C99.6474 68.5014 99.6866 68.1468 99.9645 67.8375C99.9937 67.8052 100.024 67.7745 100.057 67.7453C100.089 67.716 100.123 67.6883 100.157 67.6623C100.192 67.6364 100.229 67.6122 100.266 67.5898C100.303 67.5674 100.342 67.5469 100.381 67.5283C100.42 67.5097 100.461 67.493 100.502 67.4782C100.543 67.4636 100.584 67.4509 100.626 67.4403C100.669 67.4297 100.711 67.4212 100.754 67.4148C100.797 67.4084 100.841 67.4042 100.884 67.402C101.224 67.3845 101.519 67.5084 101.766 67.7391C102.191 68.1367 102.194 68.612 102.223 69.1531L114.559 69.1641C115.921 69.1663 118.418 68.9899 119.64 69.2035C120.297 69.3182 120.945 69.686 121.404 70.1669C121.835 70.6181 122.042 71.1304 122.102 71.7454C122.243 73.2009 122.106 74.7575 122.105 76.2229L122.107 85.9102L122.096 119.693C122.188 122.447 122.159 125.21 122.158 127.966C122.111 134.435 122.096 140.903 122.113 147.372C123.477 147.389 124.84 147.392 126.203 147.384C126.867 147.381 127.588 147.309 128.243 147.394C128.56 147.435 128.878 147.543 129.107 147.773C129.343 148.012 129.461 148.336 129.448 148.668C129.433 149.055 129.263 149.429 128.96 149.67C128.799 149.799 128.604 149.884 128.408 149.938L128.395 150H73.9865H8.7882L8.78468 149.946C8.59286 149.867 8.39505 149.78 8.23248 149.648C7.93419 149.408 7.72454 149.027 7.69536 148.645C7.67002 148.312 7.80823 147.995 8.03512 147.754C8.21317 147.567 8.41941 147.457 8.67237 147.406C9.45928 147.245 10.4121 147.37 11.2176 147.385C12.3618 147.41 13.506 147.411 14.6503 147.388L35.1528 147.368L41.8017 147.344L41.7793 112.616L41.7714 102.618C41.7642 100.895 41.6791 99.1385 41.754 97.4196C41.7715 97.0168 41.8071 96.6254 42.0572 96.2926C42.2617 96.0205 42.5571 95.8528 42.8951 95.8137C43.2557 95.772 43.6754 95.8295 43.9571 96.0774C44.3517 96.4245 44.3579 96.985 44.4042 97.4696C46.0665 97.5132 47.7351 97.4586 49.3978 97.4428L56.5225 97.4108C57.943 97.4048 60.0127 97.2409 61.3527 97.4728C62.0057 97.5857 62.4732 97.8236 62.9346 98.3025C63.3569 98.7406 63.69 99.2811 63.7754 99.8909C63.9824 101.371 63.8475 103.154 63.8486 104.66L63.8576 113.855L63.8732 147.353C66.1068 147.4 68.3466 147.366 70.5809 147.365C70.6994 142.673 70.583 137.95 70.594 133.254L70.5991 99.1351L70.607 88.3238C70.607 86.5894 70.5206 84.8143 70.5988 83.0858C70.6123 82.7869 70.6646 82.4772 70.8105 82.2123C70.9695 81.9233 71.2279 81.7177 71.5521 81.6462C71.9111 81.5671 72.3012 81.6673 72.5979 81.8794C72.938 82.1225 73.1107 82.4858 73.1819 82.8878C73.2247 83.0656 73.219 83.2086 73.3632 83.3278C74.6057 83.3779 75.8549 83.3225 77.0986 83.3261L85.9752 83.3366C87.1851 83.3378 89.4001 83.18 90.5218 83.4516C91.0928 83.5899 91.5893 84.035 91.9722 84.4656C92.3544 84.8951 92.5906 85.379 92.6473 85.9521C92.8511 88.0115 92.722 90.1894 92.7226 92.2612L92.7267 103.833L92.7232 122.173C92.7173 123.557 92.7235 124.942 92.7418 126.326C92.7595 127.345 92.8187 128.366 92.7821 129.385L92.7935 147.356C95.0596 147.37 97.3354 147.401 99.6003 147.328Z" fill="#101055"/>
<path d="M73.9994 149.947L110.48 149.923L122.974 149.927L126.501 149.923C127.128 149.92 127.784 149.874 128.408 149.939L128.395 150H73.9868L73.9994 149.947Z" fill="#343980"/>
<path d="M122.096 119.693C122.188 122.448 122.159 125.21 122.158 127.966C122.111 134.435 122.096 140.904 122.113 147.372C115.497 147.208 108.853 147.327 102.233 147.311C102.201 141.67 102.152 136.02 102.218 130.38C109.012 129.68 114.332 126.806 119.358 122.286C120.296 121.442 121.226 120.609 122.096 119.693Z" fill="#4BBEB1"/>
<path d="M44.4043 97.4697C46.0666 97.5133 47.7352 97.4587 49.3979 97.4429L56.5227 97.4109C57.9431 97.4049 60.0128 97.241 61.3528 97.4729C62.0059 97.5858 62.4733 97.8237 62.9347 98.3026C63.357 98.7407 63.6901 99.2812 63.7755 99.8911C63.9825 101.371 63.8476 103.154 63.8488 104.661L63.8577 113.855L63.8734 147.353C61.5758 147.205 59.202 147.315 56.8972 147.313C52.7443 147.302 48.5914 147.313 44.4386 147.347L44.4043 97.4697Z" fill="#4BBEB1"/>
<path d="M102.223 69.153L114.559 69.164C115.921 69.1662 118.418 68.9898 119.64 69.2034C120.297 69.3181 120.945 69.6859 121.404 70.1668C121.835 70.618 122.042 71.1303 122.101 71.7453C122.243 73.2008 122.106 74.7574 122.105 76.2228L122.107 85.9101L122.096 119.693C121.225 120.609 120.296 121.441 119.357 122.285C114.331 126.806 109.012 129.679 102.218 130.38L102.223 69.153Z" fill="#8FE2E4"/>
<path d="M73.1819 82.8877C73.2247 83.0655 73.219 83.2085 73.3633 83.3277C74.6057 83.3778 75.855 83.3225 77.0986 83.326L85.9753 83.3365C87.1851 83.3377 89.4001 83.1799 90.5219 83.4515C91.0929 83.5898 91.5893 84.035 91.9722 84.4655C92.3544 84.895 92.5907 85.379 92.6474 85.952C92.8511 88.0114 92.7221 90.1893 92.7226 92.2611L92.7267 103.833L92.7232 122.173C92.7174 123.557 92.7236 124.941 92.7418 126.326C92.7596 127.345 92.8187 128.366 92.7821 129.385L92.7935 147.356C86.2743 147.212 79.7326 147.34 73.2111 147.341C73.1806 144.128 73.1691 140.914 73.1765 137.701L73.1819 82.8877Z" fill="#F2D261"/>
<path d="M106.35 42.3994C107.476 42.4069 109.502 43.2518 110.631 43.6092C114.045 44.6903 117.431 45.8875 120.874 46.873C120.282 48.0087 119.814 49.2569 119.32 50.4398C118.525 52.3689 117.716 54.2923 116.893 56.21C116.444 57.1776 116.166 58.5606 115.372 59.3002C115.129 59.5274 114.797 59.7287 114.451 59.7001C114.064 59.6682 113.72 59.3667 113.488 59.0755C113.2 58.7129 113.04 58.2023 112.823 57.7905C112.124 56.4852 111.436 55.1736 110.76 53.856L107.159 46.9561C106.717 46.1065 106.18 45.2838 105.783 44.4152C105.644 44.1105 105.566 43.8843 105.608 43.5462C105.679 42.9782 105.909 42.7407 106.35 42.3994Z" fill="white"/>
<path d="M0 0H38.2629C35.9216 0.320147 33.6179 0.499739 31.3066 1.04381C31.0221 1.11274 30.7382 1.18471 30.4551 1.25971C30.172 1.33471 29.8898 1.41272 29.6084 1.49376C29.327 1.57479 29.0465 1.65881 28.7669 1.74584C28.4873 1.83288 28.2086 1.92289 27.9309 2.01587C27.6533 2.10885 27.3767 2.20479 27.1011 2.3037C26.8254 2.4026 26.5508 2.50443 26.2774 2.60921C26.004 2.71397 25.7316 2.82165 25.4604 2.93224C25.1894 3.04283 24.9194 3.15631 24.6507 3.27267C24.3819 3.38902 24.1145 3.50824 23.8482 3.63032C23.5821 3.7524 23.3173 3.87731 23.0537 4.00506C22.7902 4.13279 22.5281 4.26333 22.2674 4.39668C22.0067 4.53002 21.7475 4.66614 21.4897 4.80502C21.2319 4.94391 20.9756 5.08554 20.7208 5.2299C20.466 5.37426 20.2128 5.52133 19.9611 5.67111C19.7095 5.82089 19.4595 5.97333 19.2111 6.12845C18.9627 6.28358 18.716 6.44134 18.4711 6.60173C18.2261 6.76213 17.9828 6.92513 17.7413 7.09072C17.4997 7.25632 17.26 7.42447 17.0221 7.59519C16.7842 7.76591 16.5481 7.93916 16.3138 8.11493C16.0796 8.29069 15.8474 8.46894 15.617 8.64967C15.3865 8.8304 15.1581 9.01358 14.9316 9.1992C14.7051 9.38482 14.4806 9.57283 14.2581 9.76324C14.0356 9.95366 13.8152 10.1464 13.5969 10.3416C13.3785 10.5367 13.1623 10.7341 12.9481 10.9339C12.734 11.1336 12.522 11.3356 12.3122 11.5399C12.1024 11.7442 11.8948 11.9507 11.6894 12.1594C11.484 12.3682 11.2808 12.579 11.0799 12.7921C10.879 13.0052 10.6804 13.2204 10.4842 13.4377C10.2879 13.655 10.0939 13.8744 9.90231 14.0958C9.71071 14.3173 9.5215 14.5407 9.33467 14.7662C9.14785 14.9917 8.96345 15.2192 8.78149 15.4487C8.59953 15.6781 8.42003 15.9094 8.24301 16.1427C4.39069 21.2205 1.6761 27.5355 0.61579 33.8155C0.43356 34.8925 0.291266 35.9749 0.188908 37.0625C0.124555 37.8092 0.124652 38.6019 0 39.3391V0Z" fill="white"/>
<path d="M4.65625 0.377441C5.07896 0.44241 5.44536 0.527869 5.80687 0.766705C5.86548 0.804639 5.92202 0.845459 5.97647 0.889164C6.03092 0.932868 6.08301 0.979231 6.13272 1.02825C6.18244 1.07727 6.22954 1.1287 6.27401 1.18253C6.31847 1.23635 6.36008 1.2923 6.39884 1.35038C6.4376 1.40845 6.4733 1.46835 6.50595 1.53006C6.5386 1.59178 6.56802 1.65501 6.59421 1.71973C6.6204 1.78445 6.64323 1.85034 6.66269 1.9174C6.68216 1.98445 6.69817 2.05231 6.71071 2.121C6.72308 2.18984 6.73197 2.25914 6.73737 2.32889C6.74278 2.39863 6.74468 2.46848 6.74307 2.53842C6.74145 2.60835 6.73634 2.67803 6.72773 2.74745C6.71912 2.81688 6.70705 2.88569 6.69152 2.95391C6.67599 3.02211 6.65708 3.08937 6.6348 3.15567C6.61251 3.22199 6.58696 3.28702 6.55814 3.35076C6.52932 3.4145 6.49737 3.47664 6.46231 3.53716C6.42724 3.5977 6.38923 3.65632 6.34828 3.71303C5.92266 4.30007 5.36737 4.49355 4.68391 4.60287C4.33075 4.56753 4.01014 4.49919 3.69541 4.32753C3.18761 4.05059 2.80924 3.59809 2.66548 3.03301C2.53227 2.50936 2.63749 1.98761 2.92599 1.53522C3.3279 0.904987 3.94179 0.542793 4.65625 0.377441Z" fill="#4BBEB1"/>
<path d="M39.3943 2.59546C48.4116 2.25418 58.3611 5.7811 65.0924 11.8C72.5339 18.4538 77.6092 27.7935 78.1522 37.8587C78.1705 38.1736 78.185 38.4886 78.1957 38.8038C78.2063 39.1191 78.2131 39.4344 78.216 39.7498C78.2189 40.0652 78.2179 40.3805 78.213 40.696C78.2081 41.0113 78.1993 41.3265 78.1866 41.6417C78.1739 41.9568 78.1573 42.2717 78.1369 42.5865C78.1164 42.9012 78.0921 43.2157 78.064 43.5299C78.0358 43.844 78.0037 44.1577 77.9678 44.471C77.9318 44.7844 77.892 45.0973 77.8484 45.4097C77.8047 45.722 77.7573 46.0338 77.706 46.345C77.6546 46.6562 77.5994 46.9668 77.5405 47.2766C77.4815 47.5864 77.4187 47.8954 77.3521 48.2037C77.2855 48.512 77.2151 48.8195 77.1408 49.126C77.0667 49.4325 76.9888 49.7382 76.9071 50.0428C76.8253 50.3474 76.7399 50.651 76.6507 50.9535C76.5615 51.2561 76.4685 51.5575 76.372 51.8578C76.2753 52.158 76.175 52.457 76.0711 52.7547C75.9671 53.0525 75.8594 53.3489 75.7481 53.644C75.6367 53.9391 75.5218 54.2328 75.4033 54.5251C75.2847 54.8174 75.1626 55.1082 75.0369 55.3974C74.9111 55.6867 74.7818 55.9744 74.649 56.2605C74.5162 56.5466 74.3799 56.8309 74.2402 57.1136C74.1003 57.3964 73.957 57.6773 73.8102 57.9565C73.6636 58.2357 73.5134 58.5131 73.3598 58.7885C73.2062 59.064 73.0492 59.3376 72.8888 59.6091C72.7286 59.8808 72.565 60.1505 72.398 60.418C72.231 60.6856 72.0607 60.9511 71.8872 61.2145C71.7137 61.4779 71.5369 61.739 71.3571 61.998C71.1771 62.2571 70.9939 62.5139 70.8076 62.7684C70.6214 63.0229 70.432 63.275 70.2394 63.5248C70.0469 63.7747 69.8514 64.0222 69.6529 64.2672C69.4542 64.5122 69.2526 64.7548 69.048 64.9948C68.8434 65.2348 68.6359 65.4723 68.4255 65.7073C68.2432 65.9139 68.0588 66.1185 67.872 66.3209C67.6853 66.5235 67.4964 66.7239 67.3052 66.9222C67.1139 67.1205 66.9205 67.3166 66.7249 67.5107C66.5294 67.7047 66.3318 67.8966 66.132 68.0862C65.9322 68.2758 65.7303 68.4633 65.5262 68.6484C65.3222 68.8335 65.1162 69.0163 64.9082 69.1968C64.7002 69.3775 64.4902 69.5558 64.2782 69.7317C64.0662 69.9075 63.8523 70.0811 63.6365 70.2523C63.4206 70.4234 63.2029 70.5921 62.9833 70.7585C62.7637 70.9248 62.5422 71.0887 62.319 71.2501C62.0958 71.4114 61.8708 71.5703 61.644 71.7268C61.4172 71.8832 61.1888 72.0371 60.9586 72.1883C60.7284 72.3397 60.4966 72.4885 60.2632 72.6347C60.0297 72.7809 59.7946 72.9245 59.5579 73.0655C59.3213 73.2064 59.0831 73.3447 58.8433 73.4803C58.6036 73.6161 58.3624 73.7491 58.1197 73.8794C57.8769 74.0097 57.6328 74.1374 57.3873 74.2623C57.1418 74.3872 56.8949 74.5093 56.6467 74.6288C56.3984 74.7482 56.1489 74.8649 55.8981 74.9787C55.6472 75.0926 55.3951 75.2037 55.1418 75.312C54.8886 75.4202 54.6342 75.5256 54.3785 75.6282C54.1228 75.7309 53.8661 75.8307 53.6083 75.9277C53.3504 76.0245 53.0914 76.1186 52.8315 76.2098C52.5715 76.301 52.3106 76.3893 52.0488 76.4746C51.7869 76.5601 51.5241 76.6425 51.2603 76.722C50.9965 76.8016 50.7319 76.8782 50.4665 76.9519C50.2011 77.0256 49.9348 77.0964 49.6679 77.1641C49.4009 77.2319 49.1331 77.2967 48.8647 77.3585C48.5962 77.4203 48.3271 77.4791 48.0574 77.5349C47.7877 77.5907 47.5173 77.6436 47.2463 77.6935C46.9754 77.7433 46.704 77.7902 46.432 77.834C46.16 77.8778 45.8876 77.9185 45.6148 77.9563C44.3034 78.14 42.9864 78.2064 41.6651 78.2762C41.3654 78.2853 41.0656 78.2908 40.7657 78.2928C40.4659 78.2948 40.1661 78.2932 39.8663 78.2881C39.5665 78.2829 39.2668 78.2742 38.9672 78.2619C38.6676 78.2496 38.3681 78.2338 38.0689 78.2144C37.7696 78.195 37.4706 78.1721 37.172 78.1456C36.8733 78.119 36.5749 78.0889 36.277 78.0553C35.979 78.0218 35.6815 77.9846 35.3845 77.944C35.0873 77.9034 34.7907 77.8592 34.4947 77.8115C34.1987 77.7637 33.9033 77.7125 33.6085 77.6578C33.3137 77.6031 33.0195 77.5448 32.7261 77.483C32.4326 77.4213 32.1399 77.3561 31.848 77.2875C31.5561 77.2188 31.2651 77.1467 30.975 77.0711C30.6847 76.9955 30.3955 76.9165 30.1072 76.834C29.8189 76.7514 29.5317 76.6656 29.2454 76.5763C28.9592 76.487 28.6741 76.3944 28.39 76.2983C28.1059 76.2022 27.823 76.1027 27.5414 75.9999C27.2596 75.8971 26.9792 75.791 26.7001 75.6816C26.4209 75.5721 26.1431 75.4593 25.8666 75.3432C25.5902 75.2272 25.3151 75.1078 25.0413 74.9852C24.7677 74.8626 24.4956 74.7368 24.225 74.6077C23.9543 74.4786 23.6852 74.3463 23.4177 74.2109C23.1502 74.0754 22.8844 73.9368 22.6201 73.795C22.3558 73.6532 22.0933 73.5083 21.8326 73.3602C21.5719 73.2122 21.3129 73.0611 21.0556 72.9069C20.7985 72.7527 20.5432 72.5954 20.2897 72.4352C20.0363 72.2749 19.7847 72.1117 19.5351 71.9455C19.2856 71.7793 19.0381 71.6101 18.7926 71.4379C18.547 71.2658 18.3035 71.0908 18.0621 70.9129C17.8208 70.7351 17.5816 70.5544 17.3445 70.3708C17.1074 70.1872 16.8725 70.0008 16.6399 69.8116C16.4072 69.6224 16.1767 69.4304 15.9486 69.2358C15.7206 69.0412 15.4949 68.8439 15.2714 68.6439C15.0407 68.4369 14.8125 68.2272 14.587 68.0147C14.3615 67.8021 14.1386 67.5868 13.9184 67.3689C13.6981 67.1508 13.4806 66.93 13.2658 66.7066C13.0511 66.4833 12.8391 66.2572 12.6299 66.0285C12.4207 65.7999 12.2143 65.5687 12.0108 65.3349C11.8073 65.1012 11.6068 64.8651 11.4091 64.6264C11.2115 64.3877 11.0168 64.1466 10.8251 63.903C10.6334 63.6596 10.4447 63.4138 10.259 63.1656C10.0734 62.9175 9.89087 62.6671 9.71141 62.4143C9.53196 62.1617 9.35565 61.9069 9.18249 61.6498C9.00932 61.3928 8.83936 61.1337 8.67259 60.8726C8.50582 60.6113 8.34231 60.3481 8.18204 60.0829C8.02178 59.8176 7.86481 59.5504 7.71114 59.2813C7.55747 59.0122 7.40715 58.7412 7.26017 58.4683C7.11319 58.1955 6.9696 57.9209 6.82941 57.6445C6.6892 57.3681 6.55243 57.0901 6.4191 56.8103C6.28577 56.5305 6.15591 56.2491 6.02953 55.9662C5.90314 55.6832 5.78026 55.3988 5.6609 55.1128C5.54153 54.8268 5.42572 54.5393 5.31345 54.2505C5.20119 53.9616 5.09251 53.6714 4.98741 53.3799C4.8823 53.0884 4.78081 52.7956 4.68294 52.5016C4.58507 52.2074 4.49084 51.9122 4.40026 51.6159C4.30967 51.3196 4.22276 51.0221 4.13953 50.7236C4.05629 50.425 3.97674 50.1255 3.90089 49.825C3.82505 49.5245 3.75293 49.2232 3.68452 48.9209C3.61611 48.6187 3.55145 48.3156 3.49053 48.0117C3.42961 47.7079 3.37245 47.4033 3.31904 47.0981C3.26564 46.7928 3.21602 46.4869 3.17017 46.1803C3.12432 45.8739 3.08226 45.5669 3.04399 45.2594C3.00571 44.9519 2.97125 44.6439 2.94058 44.3355C2.90991 44.0271 2.88305 43.7184 2.86002 43.4093C2.83697 43.1003 2.81774 42.791 2.80233 42.4815C2.78479 42.1742 2.77106 41.8668 2.76114 41.5592C2.75121 41.2516 2.74508 40.9439 2.74276 40.6362C2.74044 40.3285 2.74193 40.0208 2.74722 39.7131C2.75251 39.4053 2.7616 39.0978 2.7745 38.7904C2.7874 38.4828 2.8041 38.1756 2.82461 37.8685C2.84511 37.5615 2.8694 37.2547 2.89749 36.9482C2.92558 36.6417 2.95746 36.3357 2.99311 36.03C3.02878 35.7243 3.06821 35.4192 3.11141 35.1145C3.15463 34.8098 3.2016 34.5057 3.25233 34.2022C3.30305 33.8986 3.35753 33.5957 3.41575 33.2935C3.47397 32.9914 3.53592 32.69 3.60161 32.3893C3.66728 32.0886 3.73667 31.7888 3.80976 31.4899C3.88286 31.1909 3.95964 30.8929 4.04011 30.5959C4.12057 30.2989 4.20469 30.0029 4.29249 29.7079C4.38027 29.413 4.47169 29.1192 4.56675 28.8265C4.6618 28.5337 4.76046 28.2422 4.86272 27.952C4.96499 27.6617 5.07083 27.3728 5.18024 27.0851C5.28965 26.7975 5.4026 26.5113 5.51909 26.2264C5.63558 25.9415 5.75558 25.6582 5.87909 25.3763C6.00258 25.0944 6.12955 24.8141 6.25999 24.5354C6.39042 24.2567 6.52428 23.9796 6.66158 23.7042C6.79886 23.4287 6.93954 23.1551 7.0836 22.8832C7.22765 22.6112 7.37505 22.341 7.52579 22.0727C7.67654 21.8044 7.83057 21.5381 7.98791 21.2736C8.14523 21.0091 8.30581 20.7466 8.46964 20.4861C8.63345 20.2256 8.80047 19.9671 8.97069 19.7106C9.1409 19.4543 9.31426 19.2001 9.49078 18.948C9.66728 18.6959 9.84688 18.446 10.0296 18.1983C10.2122 17.9507 10.398 17.7053 10.5867 17.4622C10.7755 17.2192 10.9672 16.9785 11.1619 16.7402C11.3566 16.5018 11.5542 16.2659 11.7548 16.0325C11.9553 15.7991 12.1587 15.5682 12.365 15.3398C12.5368 15.1477 12.7105 14.9574 12.8861 14.7688C13.0617 14.5803 13.2392 14.3935 13.4186 14.2084C13.5979 14.0234 13.7791 13.8402 13.9621 13.6588C14.1451 13.4774 14.3299 13.2978 14.5165 13.1201C14.7031 12.9424 14.8914 12.7666 15.0816 12.5926C15.2717 12.4187 15.4636 12.2467 15.6571 12.0765C15.8507 11.9064 16.0459 11.7383 16.2429 11.5721C16.4398 11.4059 16.6383 11.2417 16.8385 11.0794C17.0387 10.9172 17.2405 10.757 17.4439 10.5988C17.6473 10.4406 17.8523 10.2844 18.0589 10.1303C18.2654 9.97625 18.4735 9.82423 18.683 9.6743C18.8926 9.52436 19.1036 9.37653 19.3161 9.23082C19.5287 9.0851 19.7427 8.94153 19.958 8.80009C20.1735 8.65866 20.3903 8.51939 20.6084 8.38229C20.8267 8.24519 21.0463 8.11028 21.2672 7.97757C21.488 7.84486 21.7101 7.71438 21.9337 7.5861C22.1572 7.45784 22.382 7.33183 22.6079 7.20806C22.8339 7.08429 23.0612 6.96279 23.2897 6.84356C23.5181 6.72433 23.7477 6.6074 23.9784 6.49276C24.2092 6.37813 24.4411 6.26582 24.6742 6.15582C24.9073 6.04582 25.1413 5.93816 25.3765 5.83285C25.6117 5.72754 25.8479 5.62458 26.0852 5.52399C26.3224 5.4234 26.5606 5.32519 26.7999 5.22936C27.039 5.13353 27.2792 5.04011 27.5203 4.94909C27.7613 4.85807 28.0033 4.76946 28.2461 4.68327C28.489 4.59709 28.7327 4.51334 28.9772 4.43203C29.2217 4.35071 29.467 4.27185 29.7132 4.19545C29.9593 4.11904 30.2061 4.0451 30.4536 3.97364C30.7012 3.90216 30.9494 3.83318 31.1984 3.76667C31.4474 3.70017 31.697 3.63616 31.9472 3.57466C32.1974 3.51315 32.4482 3.45414 32.6997 3.39763C32.9511 3.34114 33.203 3.28716 33.4555 3.23571C35.4139 2.85545 37.4054 2.70233 39.3943 2.59546Z" fill="white"/>
<path d="M11.5215 31.8718C11.5883 31.633 11.658 31.3951 11.7307 31.158C11.8034 30.921 11.8791 30.6849 11.9576 30.4497C12.0362 30.2146 12.1177 29.9804 12.2021 29.7472C12.2865 29.5141 12.3737 29.2821 12.4639 29.0511C12.5541 28.8202 12.6471 28.5903 12.743 28.3616C12.8388 28.133 12.9375 27.9056 13.0391 27.6793C13.1406 27.4531 13.2449 27.2282 13.3521 27.0046C13.4592 26.781 13.5691 26.5588 13.6817 26.3379C13.7944 26.117 13.9098 25.8976 14.0279 25.6796C14.146 25.4616 14.2668 25.245 14.3902 25.03C14.5137 24.815 14.6399 24.6016 14.7686 24.3897C14.8974 24.1779 15.0289 23.9677 15.163 23.7591C15.297 23.5504 15.4335 23.3434 15.5727 23.1383C15.7118 22.9331 15.8535 22.7297 15.9978 22.528C16.142 22.3263 16.2887 22.1264 16.438 21.9283C16.5871 21.7304 16.7387 21.5342 16.8928 21.3399C17.0469 21.1456 17.2034 20.9534 17.3623 20.763C17.5211 20.5726 17.6823 20.3842 17.8458 20.1979C18.0094 20.0115 18.1752 19.8271 18.3433 19.6449C18.5115 19.4627 18.6818 19.2826 18.8544 19.1045C19.0269 18.9265 19.2017 18.7507 19.3788 18.577C19.5557 18.4034 19.7348 18.232 19.9161 18.0627C20.0973 17.8935 20.2806 17.7265 20.466 17.5619C20.6513 17.3973 20.8387 17.2349 21.0282 17.075C21.2177 16.915 21.409 16.7574 21.6023 16.6021C21.7956 16.4469 21.9909 16.2941 22.1881 16.1438C22.3852 15.9934 22.5842 15.8454 22.785 15.6999C22.9858 15.5545 23.1884 15.4117 23.3928 15.2713C23.5971 15.1309 23.8033 14.9931 24.0111 14.8578C24.2188 14.7225 24.4282 14.5899 24.6393 14.4598C24.8505 14.3297 25.0632 14.2023 25.2774 14.0775C25.4917 13.9527 25.7075 13.8306 25.9247 13.7112C26.2129 13.5541 26.504 13.4027 26.7981 13.2569C27.0922 13.1111 27.389 12.9711 27.6886 12.8369C27.9881 12.7027 28.2901 12.5743 28.5947 12.4519C28.8992 12.3295 29.206 12.213 29.5151 12.1025C29.8242 11.992 30.1353 11.8876 30.4485 11.7892C30.7616 11.6909 31.0766 11.5986 31.3933 11.5126C31.71 11.4265 32.0283 11.3466 32.3482 11.2729C32.668 11.1992 32.9892 11.1318 33.3117 11.0706C33.6342 11.0094 33.9578 10.9546 34.2824 10.906C34.607 10.8575 34.9325 10.8152 35.2587 10.7793C35.585 10.7435 35.9118 10.714 36.2391 10.6908C36.5666 10.6677 36.8944 10.6509 37.2225 10.6405C37.5505 10.6302 37.8786 10.6262 38.2069 10.6286C38.5351 10.631 38.8632 10.6398 39.1911 10.655C39.5189 10.6702 39.8464 10.6918 40.1734 10.7198C40.5005 10.7477 40.8268 10.7821 41.1525 10.8227C42.2394 10.9535 43.3691 11.1221 44.4203 11.4291C44.6325 11.4926 44.8426 11.5626 45.0505 11.6391C43.6249 11.4987 42.2371 11.5527 40.8137 11.6678C40.4423 11.6953 40.0716 11.7298 39.7014 11.7713C39.3313 11.8128 38.9621 11.8613 38.5939 11.9168C38.2256 11.9723 37.8585 12.0348 37.4926 12.1042C37.1267 12.1736 36.7622 12.2499 36.3992 12.3331C36.0363 12.4163 35.6749 12.5064 35.3153 12.6033C34.9557 12.7001 34.5981 12.8038 34.2424 12.9142C33.8867 13.0247 33.5333 13.1418 33.182 13.2656C32.8307 13.3894 32.482 13.5199 32.1357 13.6569C31.7894 13.7939 31.4458 13.9375 31.105 14.0875C30.7641 14.2375 30.4262 14.394 30.0912 14.5568C29.7563 14.7197 29.4246 14.8888 29.096 15.0642C28.7675 15.2396 28.4424 15.4211 28.1207 15.6088C27.7991 15.7966 27.4811 15.9904 27.1668 16.1901C26.8524 16.3899 26.542 16.5955 26.2354 16.8071C25.9289 17.0185 25.6265 17.2357 25.3283 17.4588C25.0299 17.6817 24.7359 17.9102 24.4463 18.1443C19.4835 22.2139 16.8519 26.3271 14.8388 32.3707C13.7451 32.1982 12.5983 32.1183 11.5215 31.8718Z" fill="#4BBEB1"/>
<path d="M11.521 31.8716C12.5978 32.1181 13.7446 32.1979 14.8384 32.3705C14.7719 32.5997 14.7082 32.8297 14.6474 33.0604C14.5867 33.2912 14.5289 33.5227 14.474 33.7549C14.4192 33.9872 14.3672 34.22 14.3183 34.4535C14.2693 34.6871 14.2233 34.9212 14.1802 35.1559C14.1372 35.3907 14.0971 35.6259 14.06 35.8617C14.0229 36.0974 13.9887 36.3335 13.9576 36.5701C13.9265 36.8067 13.8984 37.0437 13.8732 37.281C13.8481 37.5183 13.826 37.7559 13.8068 37.9938C13.7877 38.2315 13.7716 38.4696 13.7585 38.7079C13.7454 38.9461 13.7353 39.1845 13.7282 39.423C13.7212 39.6616 13.7171 39.9001 13.7161 40.1387C13.715 40.3774 13.717 40.616 13.722 40.8546C13.727 41.0932 13.735 41.3316 13.7461 41.57C13.7571 41.8084 13.7712 42.0466 13.7882 42.2846C13.8053 42.5227 13.8253 42.7604 13.8484 42.9979C13.8715 43.2354 13.8976 43.4726 13.9267 43.7094C13.9557 43.9462 13.9878 44.1827 14.0229 44.4187C14.0579 44.6547 14.096 44.8903 14.137 45.1255C14.178 45.3605 14.222 45.5951 14.2689 45.8291C14.3159 46.0629 14.3658 46.2962 14.4187 46.529C14.4715 46.7617 14.5273 46.9937 14.586 47.225C14.6448 47.4563 14.7064 47.6868 14.771 47.9165C14.8355 48.1462 14.903 48.3751 14.9733 48.6032C15.0437 48.8312 15.1169 49.0583 15.193 49.2845C15.2691 49.5106 15.348 49.7358 15.4297 49.9599C15.5116 50.1841 15.5962 50.4072 15.6836 50.6292C15.7711 50.8513 15.8613 51.0722 15.9543 51.2919C16.0473 51.5117 16.1431 51.7303 16.2417 51.9476C16.3402 52.1648 16.4415 52.3809 16.5455 52.5957C16.6495 52.8105 16.7562 53.0239 16.8657 53.2359C16.9751 53.448 17.0871 53.6586 17.2019 53.8678C17.3166 54.0771 17.434 54.2849 17.554 54.4911C18.2712 55.7132 19.1204 56.8519 19.9928 57.9662C20.975 59.2207 23.2354 60.9095 23.6621 62.2168L23.6952 62.3213C23.5171 62.9421 23.303 63.4779 22.7236 63.832C22.3825 64.0406 22.0177 64.0782 21.6366 63.9679C20.9342 63.7644 20.1764 62.989 19.6589 62.4884C17.4373 60.3396 15.5974 57.9525 14.1295 55.2292C10.3934 48.2983 9.24786 39.4573 11.521 31.8716Z" fill="#8FE2E4"/>
<path d="M59.8214 17.6587C59.8528 17.6612 59.8841 17.6624 59.9153 17.6663C61.2475 17.8346 62.6202 19.7029 63.4529 20.6943C63.6175 20.8872 63.7796 21.0821 63.9394 21.2791C64.0991 21.4759 64.2563 21.6748 64.4111 21.8757C64.5659 22.0766 64.7181 22.2793 64.8677 22.4839C65.0174 22.6886 65.1645 22.8951 65.309 23.1034C65.4536 23.3117 65.5955 23.5218 65.7347 23.7337C65.8741 23.9455 66.0107 24.1591 66.1446 24.3744C66.2786 24.5896 66.4098 24.8065 66.5383 25.0251C66.6668 25.2437 66.7926 25.4638 66.9157 25.6856C67.0387 25.9073 67.159 26.1305 67.2765 26.3552C67.3939 26.5799 67.5086 26.806 67.6204 27.0335C67.7322 27.2611 67.8412 27.49 67.9472 27.7203C68.0534 27.9506 68.1566 28.1822 68.2569 28.415C68.3572 28.6479 68.4546 28.882 68.5491 29.1173C68.6436 29.3526 68.7351 29.5891 68.8236 29.8266C68.9122 30.0642 68.9978 30.3028 69.0804 30.5426C69.163 30.7823 69.2426 31.023 69.3192 31.2647C69.3958 31.5064 69.4693 31.7491 69.5399 31.9926C69.6105 32.2362 69.6779 32.4806 69.7424 32.7258C69.8068 32.971 69.8682 33.217 69.9265 33.4638C69.9847 33.7104 70.0399 33.9579 70.092 34.206C70.1442 34.4541 70.1932 34.7029 70.2391 34.9523C70.285 35.2017 70.3278 35.4516 70.3674 35.702C70.4071 35.9524 70.4436 36.2033 70.477 36.4547C70.5104 36.7061 70.5407 36.9578 70.5678 37.2098C70.5949 37.462 70.6188 37.7144 70.6396 37.967C70.6604 38.2197 70.6781 38.4727 70.6926 38.7258C70.7071 38.9789 70.7184 39.2322 70.7266 39.4856C70.7347 39.739 70.7397 39.9925 70.7416 40.2461C70.7434 40.4997 70.7421 40.7532 70.7376 41.0067C70.7331 41.2602 70.7254 41.5136 70.7146 41.7669C70.7038 42.0203 70.6898 42.2734 70.6727 42.5263C70.6555 42.7793 70.6352 43.0321 70.6118 43.2845C70.5908 43.5311 70.5667 43.7774 70.5395 44.0235C70.5125 44.2695 70.4824 44.5152 70.4492 44.7605C70.4161 45.0058 70.3799 45.2506 70.3408 45.495C70.3015 45.7394 70.2593 45.9833 70.2142 46.2267C70.169 46.47 70.1208 46.7128 70.0696 46.955C70.0185 47.1972 69.9643 47.4387 69.907 47.6795C69.8499 47.9203 69.7898 48.1604 69.7269 48.3998C69.6638 48.6391 69.5978 48.8776 69.5288 49.1153C69.46 49.3531 69.3881 49.59 69.3133 49.8259C69.2385 50.0619 69.1608 50.2969 69.0803 50.531C68.9998 50.7649 68.9164 50.998 68.8301 51.23C68.7437 51.4619 68.6546 51.6928 68.5626 51.9226C68.4706 52.1523 68.3758 52.381 68.2781 52.6085C68.1806 52.836 68.0802 53.0622 67.977 53.2871C67.8737 53.5121 67.7678 53.7357 67.6591 53.9581C67.5504 54.1805 67.439 54.4015 67.3248 54.6211C67.2106 54.8407 67.0937 55.0589 66.9741 55.2757C66.8546 55.4924 66.7324 55.7077 66.6076 55.9214C66.4828 56.1351 66.3554 56.3473 66.2253 56.5579C66.0952 56.7685 65.9626 56.9774 65.8273 57.1847C65.692 57.392 65.5543 57.5977 65.4141 57.8016C65.2737 58.0055 65.1309 58.2076 64.9856 58.408C64.8404 58.6084 64.6927 58.807 64.5425 59.0038C64.3923 59.2005 64.2397 59.3954 64.0847 59.5884C63.9297 59.7814 63.7724 59.9725 63.6127 60.1616C63.4531 60.3507 63.2911 60.5379 63.1269 60.723C62.9625 60.9082 62.7959 61.0913 62.6272 61.2722C62.4583 61.4533 62.2874 61.6322 62.1142 61.8091C61.941 61.9858 61.7656 62.1604 61.588 62.3329C61.4105 62.5055 61.2309 62.6758 61.0491 62.8438C60.8675 63.0119 60.6837 63.1777 60.4979 63.3412C60.3121 63.5047 60.1243 63.666 59.9345 63.8249C53.9518 68.8081 46.8737 71.0373 39.1291 70.3384C38.3788 70.2795 37.639 70.1159 36.9097 69.9366C39.9939 69.7381 42.8969 69.4223 45.8694 68.5074C53.5034 66.1576 60.2739 60.9199 64.0128 53.7942C68.9413 44.4013 68.4432 33.4025 62.3521 24.6548C61.835 23.9195 61.2905 23.2052 60.7185 22.5119C60.0746 21.7384 58.5933 20.567 58.3399 19.6417C58.2406 19.2788 58.2702 18.877 58.4585 18.5479C58.7517 18.036 59.2751 17.7992 59.8214 17.6587Z" fill="#4BBEB1"/>
<path d="M40.2931 15.4663C40.4354 15.4496 40.5801 15.4314 40.7234 15.4312C41.0481 15.4306 41.3827 15.5631 41.612 15.7944C42.3413 16.5296 42.0521 18.464 42.0442 19.4583C42.1236 19.4727 42.2029 19.4876 42.2821 19.5031C45.1777 20.0659 47.6711 21.5059 49.3264 23.9863C50.2274 25.3366 51.3738 28.2648 51.0056 29.8922C50.9306 30.2236 50.7674 30.5183 50.4704 30.6966C50.1483 30.8899 49.7253 30.9373 49.3651 30.8349C48.218 30.5089 48.5515 29.0157 48.3505 28.1196C48.1699 27.3148 47.8334 26.5096 47.4042 25.8065C46.1683 23.7812 44.3226 22.647 42.0511 22.1097C41.8936 24.0126 42.0187 26.0145 42.0183 27.9305L41.996 38.9946C42.3591 39.0704 42.718 39.1626 43.0727 39.2713C43.4273 39.38 43.7762 39.5047 44.1195 39.6455C44.4626 39.7862 44.7987 39.9423 45.1276 40.1139C45.4564 40.2854 45.7767 40.4716 46.0885 40.6726C48.4931 42.2299 50.2372 44.8477 50.8244 47.6448C51.445 50.6019 50.9842 53.829 49.2975 56.362C47.5323 59.0133 45.1046 60.4291 42.0312 61.0499C42.0139 62.0668 42.2108 63.8727 41.8939 64.7788C41.7816 65.1005 41.5832 65.3976 41.2579 65.5307C40.8574 65.6948 40.4275 65.5933 40.044 65.4392C39.9924 65.3908 39.9404 65.3431 39.8915 65.2921C39.1803 64.5506 39.4611 62.1383 39.4701 61.1092C37.3534 60.7962 35.3111 59.969 33.7309 58.5064C31.7112 56.6369 30.162 53.6338 30.1027 50.8473C30.091 50.2958 30.209 49.7374 30.6196 49.3404C30.808 49.1584 31.046 49.0607 31.3104 49.0827C31.846 49.1271 32.2737 49.5049 32.6105 49.8872C32.6935 50.3494 32.7001 50.8379 32.7546 51.3059C32.7716 51.4616 32.793 51.6167 32.8186 51.7711C32.8442 51.9255 32.8741 52.0792 32.9083 52.232C32.9424 52.3848 32.9807 52.5366 33.0231 52.6873C33.0657 52.8379 33.1124 52.9874 33.1632 53.1355C33.214 53.2836 33.2688 53.4302 33.3277 53.5752C33.3866 53.7204 33.4494 53.8637 33.5163 54.0053C33.5831 54.1469 33.6538 54.2866 33.7285 54.4243C33.8031 54.5619 33.8814 54.6974 33.9634 54.8308C35.2106 56.841 37.1959 57.9947 39.4602 58.5383C39.57 52.8462 39.4677 47.1311 39.4708 41.4364C37.6604 40.9774 35.9106 40.2941 34.3974 39.1774C34.2516 39.0695 34.1086 38.9581 33.9682 38.8432C33.8279 38.7281 33.6905 38.6097 33.556 38.4879C33.4217 38.3662 33.2904 38.2411 33.1621 38.1128C33.0339 37.9845 32.909 37.853 32.7873 37.7185C32.6655 37.584 32.5472 37.4465 32.4324 37.3061C32.3175 37.1657 32.2062 37.0225 32.0984 36.8766C31.9907 36.7307 31.8866 36.5822 31.7862 36.4312C31.6858 36.28 31.5892 36.1265 31.4965 35.9706C31.4037 35.8147 31.3148 35.6566 31.2299 35.4963C31.1449 35.336 31.064 35.1737 30.9871 35.0094C30.9103 34.8451 30.8375 34.679 30.7689 34.511C30.7003 34.3432 30.6359 34.1737 30.5757 34.0026C30.5155 33.8314 30.4596 33.6588 30.4079 33.4849C30.3563 33.3111 30.309 33.136 30.266 32.9598C30.223 32.7835 30.1845 32.6063 30.1504 32.4282C30.1162 32.25 30.0865 32.071 30.0612 31.8915C29.6361 29.0051 30.5937 25.8929 32.3434 23.5846C34.1103 21.2539 36.5433 19.9751 39.4068 19.5802C39.4166 18.6288 39.2519 17.5294 39.4476 16.6027C39.5678 16.0334 39.8114 15.7716 40.2931 15.4663Z" fill="#101055"/>
<path d="M42.013 41.6396C43.4471 41.9607 44.8141 42.7384 45.8944 43.7292C47.6009 45.2947 48.4585 47.641 48.5352 49.9229C48.6148 52.2839 47.7277 54.4569 46.1276 56.1728C44.9147 57.377 43.6517 57.9921 42.0192 58.4571C41.9141 55.6687 42.0058 52.8562 42.0162 50.0654C42.0268 47.2583 41.9581 44.4453 42.013 41.6396Z" fill="white"/>
<path d="M39.3401 22.2168L39.4185 22.2552C39.5963 22.801 39.4662 25.8785 39.4665 26.6676L39.4694 38.7373C37.7324 38.2668 36.3663 37.5726 35.0412 36.3462C33.8088 35.0833 32.96 33.5954 32.6531 31.8435C32.6299 31.7077 32.6101 31.5715 32.5935 31.4349C32.577 31.2982 32.5638 31.1612 32.5539 31.0239C32.5441 30.8866 32.5376 30.7491 32.5344 30.6114C32.5313 30.4738 32.5315 30.3361 32.535 30.1984C32.5385 30.0608 32.5454 29.9234 32.5557 29.7861C32.5659 29.6488 32.5795 29.5118 32.5964 29.3752C32.6134 29.2386 32.6337 29.1024 32.6572 28.9668C32.6807 28.8312 32.7075 28.6961 32.7376 28.5618C32.7678 28.4275 32.8012 28.294 32.8378 28.1613C32.8744 28.0286 32.9143 27.8968 32.9573 27.7661C33.0004 27.6353 33.0466 27.5057 33.0961 27.3771C33.1454 27.2485 33.1978 27.1213 33.2534 26.9954C33.3089 26.8694 33.3675 26.7449 33.4292 26.6217C33.4909 26.4987 33.5555 26.3771 33.623 26.2571C33.6905 26.1372 33.761 26.019 33.8343 25.9025C33.9077 25.7859 33.9838 25.6712 34.0627 25.5584C35.3443 23.7467 37.1531 22.5931 39.3401 22.2168Z" fill="white"/>
</g>
<defs>
<clipPath id="clip0_47_2262">
<rect width="150" height="150" fill="white"/>
</clipPath>
</defs>
</svg>
