<svg width="150" height="150" viewBox="0 0 150 150" fill="none" xmlns="http://www.w3.org/2000/svg">
<g clip-path="url(#clip0_47_2185)">
<path d="M0 0H45.5007H57.12H85.1033H85.4374H150V54.9608V56.3114V150H116.453H24.5471H0V0Z" fill="white"/>
<path d="M37.1733 18.1826C38.6914 18.1146 40.2281 18.1622 41.7485 18.1625L50.1542 18.1635L54.4354 18.1429C55.1641 18.1385 56.0309 18.0503 56.7485 18.1842C57.0125 18.2334 57.2936 18.4123 57.4141 18.6569C57.5202 18.8725 57.5181 19.1205 57.4434 19.3449C57.3284 19.6909 57.1126 19.8478 56.7955 19.9997L43.3009 20.0198C42.005 20.0254 38.2099 20.2055 37.1893 19.9725C36.9473 19.9173 36.7337 19.8023 36.6079 19.5776C36.4658 19.324 36.4664 18.9174 36.5767 18.6528C36.685 18.3931 36.9321 18.2826 37.1733 18.1826Z" fill="#101055"/>
<path d="M82.0773 52.9171L100.506 52.9479L108.379 52.9416C109.739 52.9385 111.11 52.8909 112.469 52.9325C112.694 52.9394 112.901 52.9392 113.098 53.0583C113.391 53.2351 113.616 53.5584 113.683 53.8886C113.656 54.0118 113.637 54.1078 113.545 54.2022C113.233 54.5213 112.66 54.6045 112.238 54.6371C110.889 54.7417 109.463 54.6456 108.103 54.6415L100.594 54.6459H77.0494L56.9034 54.6524L50.0208 54.6754C48.9557 54.6824 47.8487 54.7691 46.7894 54.7088C46.4429 54.689 46.0757 54.63 45.7889 54.4198C45.6083 54.2872 45.4779 54.0922 45.4673 53.863C45.4577 53.6498 45.5379 53.3976 45.6881 53.2409C45.9011 53.0182 46.2462 52.9486 46.5417 52.9329C47.5785 52.878 48.6688 52.9606 49.7139 52.9584L57.626 52.9529L82.0773 52.9171Z" fill="#101055"/>
<path d="M45.969 119.321C47.7407 119.26 49.5309 119.313 51.3042 119.313L60.9845 119.303L92.4215 119.304L107.103 119.315C108.342 119.319 111.873 119.104 112.832 119.428C113.151 119.537 113.356 119.674 113.498 119.981C113.517 120.285 113.431 120.468 113.257 120.713C113.046 121.009 112.859 121.061 112.517 121.117L64.4912 121.101L53.0306 121.111C50.9212 121.115 48.8004 121.162 46.692 121.112C46.3014 121.102 45.893 121.093 45.6094 120.779C45.451 120.603 45.3863 120.399 45.4123 120.167C45.4576 119.761 45.6649 119.568 45.969 119.321Z" fill="#101055"/>
<path d="M62.8613 103.015L96.2124 102.987L107.169 102.997C108.915 102.997 110.742 102.886 112.478 103.001C112.74 103.019 113.024 103.057 113.227 103.24C113.409 103.405 113.471 103.645 113.485 103.881C113.498 104.122 113.427 104.313 113.258 104.489C113.04 104.717 112.641 104.797 112.342 104.826C111.746 104.883 111.116 104.826 110.516 104.819C109.501 104.814 108.485 104.814 107.469 104.82L95.9839 104.829L60.7544 104.837L49.4744 104.882C48.5369 104.882 47.5922 104.933 46.6571 104.919C46.3931 104.915 46.0453 104.911 45.819 104.751C45.5899 104.589 45.4487 104.36 45.4168 104.08C45.3872 103.821 45.4694 103.534 45.6529 103.345C45.8322 103.16 46.1083 103.075 46.3584 103.05C46.8825 102.998 47.4416 103.044 47.9703 103.044L51.5148 103.037L62.8613 103.015Z" fill="#101055"/>
<path d="M58.8797 86.2426L91.8696 86.2777L106.851 86.2823C108.601 86.2886 110.368 86.2122 112.115 86.2644C112.501 86.2758 112.926 86.3332 113.252 86.5569C113.448 86.6918 113.562 86.8676 113.584 87.1095C113.604 87.3296 113.506 87.5961 113.359 87.754C113.173 87.9523 112.891 88.0493 112.628 88.0856C111.468 88.2456 109.912 88.1193 108.721 88.1198L100.159 88.124L64.0559 88.1124L51.9951 88.1094C50.3011 88.1076 48.1833 88.2254 46.528 88.1129C46.2406 88.0932 45.9302 88.0179 45.7012 87.8345C45.537 87.7027 45.443 87.5253 45.4239 87.3176C45.4001 87.0601 45.483 86.7595 45.6674 86.5736C45.8319 86.4078 46.0324 86.334 46.2602 86.3047C47.5245 86.1415 49.0276 86.2787 50.317 86.276L58.8797 86.2426Z" fill="#101055"/>
<path d="M46.1131 69.5998L94.8178 69.5867C96.6436 69.5848 112.557 69.4685 112.934 69.63C113.183 69.7364 113.394 69.9322 113.506 70.1806C113.603 70.3977 113.623 70.6414 113.532 70.8648C113.407 71.1695 113.178 71.3142 112.884 71.4286L67.028 71.4486C61.6385 71.491 56.249 71.4996 50.8593 71.4743C50.0515 71.472 46.8124 71.5908 46.2401 71.4213C45.9146 71.3249 45.6155 71.1212 45.462 70.8109C45.3632 70.6115 45.3432 70.3917 45.4284 70.1835C45.5626 69.8555 45.7951 69.7197 46.1131 69.5998Z" fill="#101055"/>
<path d="M85.1033 0H85.4374L116.397 30.927C117.125 31.6403 117.885 32.3197 118.61 33.0365C120.734 35.1381 122.815 37.2938 124.967 39.3665C126.147 40.5041 127.346 41.6134 128.512 42.7679C128.844 43.0966 129.286 43.4287 129.543 43.812L129.486 43.9446C129.334 43.9997 129.21 44.0027 129.131 44.1498L129.164 43.8715L129.069 43.7618C127.991 43.6668 126.785 43.6998 125.705 43.7755C125.486 43.7832 125.266 43.7894 125.046 43.7941C122.336 43.8514 119.614 43.7966 116.903 43.8013L99.5942 43.8028L91.8484 43.7823C90.4713 43.7864 88.9665 43.9229 87.6027 43.7515C86.9745 43.6726 86.3607 43.3639 85.9157 42.9151C85.4983 42.4942 85.1912 41.9082 85.1172 41.3178C84.9317 39.8392 85.0256 38.2578 85.0264 36.768L85.0414 28.8775L85.0857 13.1089C85.0911 10.6889 85.0476 8.26704 85.0873 5.84766C85.1711 4.79319 85.1986 3.53814 85.0766 2.4907C84.9549 1.69308 85.0776 0.806659 85.1033 0Z" fill="#F2D261"/>
<path d="M39.5471 2.48991L65.8876 2.46974C72.282 2.57695 78.6832 2.38219 85.0766 2.4906C85.1987 3.53804 85.1711 4.79309 85.0873 5.84755L51.3404 5.80856L39.2997 5.82243C37.4981 5.82557 35.6629 5.73841 33.8663 5.81455C33.6329 5.82444 33.429 5.8729 33.2433 6.02128C32.8098 6.36762 32.9398 8.00328 32.939 8.52628L32.9549 97.5333L32.9487 125.224C32.9502 128.65 32.884 132.089 32.9261 135.513C32.9324 136.026 33.0586 136.588 33.45 136.948C33.619 137.103 33.8264 137.212 34.0258 137.323C39.1778 137.438 44.3446 137.356 49.4981 137.353L79.3451 137.365L108.453 137.386L119.181 137.387C120.84 137.387 122.528 137.46 124.183 137.399C124.561 137.386 124.849 137.261 125.125 137C125.793 136.368 125.749 135.675 125.751 134.824L125.705 43.7754C126.785 43.6997 127.991 43.6667 129.069 43.7617L129.164 43.8714L129.132 44.1497C129.142 48.4314 129.034 52.7375 129.134 57.0167L129.126 116.221L129.115 130.206L129.118 133.849C129.121 134.837 129.184 135.866 128.982 136.839C128.787 137.773 128.27 138.664 127.595 139.333C125.597 141.316 122.39 140.732 119.826 140.767C118.657 140.773 117.487 140.772 116.318 140.764C114.435 140.688 112.527 140.75 110.641 140.737L95.5914 140.723L55.6857 140.738L41.8054 140.719L37.1096 140.741C36.0703 140.745 35.0011 140.791 33.9674 140.673C32.9056 140.552 31.7737 139.991 31.017 139.24C30.2024 138.43 29.737 137.366 29.6295 136.229C29.498 134.838 29.5942 133.374 29.5987 131.972L29.6077 124.537L29.6128 101.499L29.6037 25.6417C29.7318 24.3063 29.6531 22.8847 29.6576 21.5419L29.6568 13.5873C29.6469 11.9229 29.5655 10.2473 29.6612 8.58505L29.6508 7.89245C29.6326 6.33751 29.7791 5.02646 30.9293 3.87018C32.4161 2.37558 34.3539 2.50296 36.3007 2.49661L39.5471 2.48991Z" fill="#101055"/>
<path d="M29.6611 8.58496C29.5654 10.2472 29.6469 11.9228 29.6567 13.5872L29.6576 21.5418C29.653 22.8846 29.7317 24.3063 29.6037 25.6416L29.6128 101.499L29.6076 124.537L29.5987 131.972C29.5942 133.374 29.4979 134.838 29.6295 136.229C29.737 137.366 30.2024 138.43 31.017 139.24C31.7737 139.991 32.9056 140.552 33.9673 140.673C35.001 140.791 36.0702 140.745 37.1095 140.741L41.8054 140.719L55.6857 140.738L95.5914 140.723L110.641 140.737C112.527 140.75 114.435 140.688 116.318 140.764C117.487 140.772 118.657 140.773 119.826 140.767L119.846 143.828C119.854 145.716 119.824 147.271 118.428 148.703C117.857 149.289 117.189 149.663 116.453 150H24.547C23.207 149.645 22.0449 149.251 21.1234 148.16C20.3463 147.239 19.9893 146.109 19.9322 144.917C19.8321 142.828 19.9271 140.698 19.9262 138.604L19.9032 124.846L19.9068 66.3108L19.8863 31.4884L19.8759 19.5369C19.8783 17.5612 19.7544 15.4898 19.9265 13.5232C20.0249 12.3989 20.3885 11.4221 21.124 10.5557C23.819 7.38143 28.7249 9.36222 29.6611 8.58496Z" fill="white"/>
<path d="M29.6611 8.58496C29.5654 10.2472 29.6469 11.9228 29.6567 13.5872L29.6576 21.5418C29.653 22.8846 29.7317 24.3063 29.6037 25.6416C29.5416 24.1083 29.5881 22.5606 29.5931 21.0259L29.5942 12.3978C28.5557 12.3881 24.3922 12.0993 23.7263 12.7569C23.6189 12.8629 23.5329 12.9924 23.4483 13.1167C23.3686 18.3119 23.356 23.5073 23.4105 28.7028L23.4046 40.8445L23.3992 88.9095L23.4225 125.711L23.4077 138.776C23.4102 140.968 23.3302 143.2 23.4543 145.386C23.7286 145.803 24.0737 146.248 24.5882 146.369C25.6126 146.61 28.3057 146.435 29.4746 146.435L42.5643 146.421L96.9313 146.42L108.43 146.417C110.453 146.42 112.525 146.519 114.543 146.415C114.877 146.398 115.547 146.378 115.813 146.186C116.211 145.899 116.32 145.216 116.345 144.767C116.418 143.449 116.333 142.086 116.318 140.764C117.487 140.772 118.657 140.773 119.826 140.767L119.846 143.828C119.854 145.716 119.824 147.271 118.428 148.703C117.857 149.289 117.189 149.663 116.453 150H24.547C23.207 149.645 22.0449 149.251 21.1234 148.16C20.3463 147.239 19.9893 146.109 19.9322 144.917C19.8321 142.828 19.9271 140.698 19.9262 138.604L19.9032 124.846L19.9068 66.3108L19.8863 31.4884L19.8759 19.5369C19.8783 17.5612 19.7544 15.4898 19.9265 13.5232C20.0249 12.3989 20.3885 11.4221 21.124 10.5557C23.819 7.38143 28.7249 9.36222 29.6611 8.58496Z" fill="#4BBEB1"/>
<path d="M0 0H45.5007H57.12H85.1033C85.0777 0.806659 84.9549 1.69308 85.0767 2.4907C78.6832 2.38229 72.282 2.57706 65.8876 2.46984L39.5471 2.49001L36.3007 2.49671C34.354 2.50307 32.4161 2.37568 30.9293 3.87028C29.7791 5.02657 29.6326 6.33762 29.6508 7.89255L29.6612 8.58516C28.725 9.36242 23.8191 7.38163 21.1241 10.5559C20.3886 11.4223 20.025 12.3991 19.9266 13.5234C19.7544 15.49 19.8784 17.5614 19.876 19.5371L19.8864 31.4886L19.9069 66.311L19.9033 124.846L19.9263 138.605C19.9271 140.698 19.8322 142.828 19.9323 144.917C19.9894 146.109 20.3464 147.239 21.1235 148.16C22.045 149.251 23.2071 149.646 24.5471 150H0V0Z" fill="white"/>
<path d="M8.77155 117.486C9.02517 117.467 9.32743 117.435 9.53954 117.603C10.1219 118.064 9.85559 119.972 9.88109 120.68C10.6062 120.69 12.57 120.418 13.0937 120.939C13.1742 121.019 13.2257 121.116 13.2237 121.229C13.2201 121.433 13.1207 121.589 12.9828 121.731C12.3362 122.4 10.7695 122.157 9.89195 122.165C9.88852 122.721 9.91547 123.277 9.91774 123.832C9.92003 124.395 9.86498 124.738 9.45523 125.149C9.3334 125.186 9.21638 125.213 9.08914 125.22C8.90335 125.231 8.73069 125.193 8.59937 125.049C8.15807 124.565 8.39975 122.796 8.40646 122.109C7.61533 122.091 5.98626 122.368 5.36142 121.873C5.22827 121.768 5.13378 121.612 5.1231 121.441C5.11142 121.253 5.1425 121.09 5.27961 120.951C5.8151 120.41 7.67981 120.638 8.42888 120.65C8.43687 119.919 8.37865 119.183 8.40945 118.453C8.42738 118.029 8.44892 117.782 8.77155 117.486Z" fill="#4BBEB1"/>
<path d="M8.29824 17.6548C8.37308 17.6498 8.44795 17.644 8.52294 17.6432C8.76327 17.6408 8.96419 17.6626 9.12975 17.8628C9.56084 18.3842 9.35687 20.2889 9.3639 21.0385C10.1113 21.0429 12.0435 20.7972 12.6235 21.2182C12.7761 21.3288 12.8559 21.4866 12.856 21.6746C12.8562 21.884 12.7727 22.0474 12.6268 22.1923C12.0816 22.7333 10.122 22.4763 9.36071 22.4611C9.34899 23.0664 9.38076 23.6734 9.36513 24.2783C9.35214 24.7813 9.31621 25.1618 8.93863 25.5191C8.81728 25.5499 8.69142 25.5815 8.56665 25.5937C8.36864 25.6127 8.20745 25.5658 8.0692 25.4166C7.58796 24.897 7.82123 23.2029 7.82741 22.4824C7.13312 22.4419 5.29252 22.6398 4.77677 22.2793C4.63086 22.1774 4.53068 22.0552 4.50357 21.8746C4.47012 21.6516 4.56431 21.4457 4.71527 21.2876C5.16582 20.8161 7.15083 21.0294 7.83197 21.0351C7.8459 20.1282 7.70719 19.1365 7.86332 18.2429C7.91806 17.9296 8.05596 17.8294 8.29824 17.6548Z" fill="#4BBEB1"/>
<path d="M11.4303 55.6891C12.5105 55.5869 13.7094 55.9325 14.5877 56.5631C14.6469 56.6049 14.705 56.6481 14.7622 56.6929C14.8192 56.7377 14.875 56.7839 14.9297 56.8314C14.9845 56.8789 15.038 56.9278 15.0903 56.9781C15.1426 57.0283 15.1936 57.0797 15.2434 57.1325C15.2931 57.1853 15.3414 57.2393 15.3885 57.2945C15.4355 57.3496 15.481 57.406 15.5252 57.4635C15.5694 57.521 15.6122 57.5796 15.6534 57.6391C15.6947 57.6988 15.7344 57.7595 15.7726 57.8211C15.8109 57.8827 15.8476 57.9452 15.8826 58.0086C15.9177 58.0721 15.9512 58.1364 15.9831 58.2015C16.0149 58.2666 16.0452 58.3325 16.0738 58.3991C16.1023 58.4658 16.1291 58.5331 16.1543 58.6011C16.1795 58.6691 16.203 58.7376 16.2248 58.8068C16.2466 58.8759 16.2666 58.9456 16.2849 59.0158C16.3032 59.0859 16.3198 59.1565 16.3345 59.2275C16.3493 59.2985 16.3622 59.3698 16.3733 59.4415C16.5619 60.6274 16.3278 61.8331 15.6115 62.8114C14.7617 63.972 13.6607 64.6007 12.2492 64.8091C11.0013 64.8355 9.99401 64.6174 8.99707 63.8385C8.93782 63.7927 8.87975 63.7455 8.82285 63.6969C8.76596 63.6482 8.7103 63.5982 8.65589 63.5467C8.60149 63.4953 8.5484 63.4426 8.49662 63.3885C8.44483 63.3344 8.39443 63.2791 8.3454 63.2225C8.29637 63.166 8.24878 63.1082 8.20262 63.0493C8.15646 62.9903 8.1118 62.9302 8.06863 62.8691C8.02547 62.8079 7.98385 62.7457 7.94379 62.6825C7.90371 62.6192 7.86523 62.555 7.82836 62.4898C7.79148 62.4247 7.75625 62.3587 7.72265 62.2918C7.68906 62.2249 7.65715 62.1572 7.62693 62.0886C7.5967 62.0201 7.5682 61.951 7.54142 61.881C7.51465 61.8111 7.48962 61.7406 7.46635 61.6695C7.44308 61.5983 7.42159 61.5266 7.4019 61.4543C7.38219 61.3822 7.36429 61.3095 7.34821 61.2364C7.33212 61.1632 7.31785 61.0897 7.30542 61.0159C7.29299 60.9421 7.2824 60.868 7.27366 60.7937C7.2651 60.7169 7.25844 60.64 7.25368 60.563C7.24894 60.4858 7.24611 60.4086 7.2452 60.3314C7.24428 60.2541 7.24529 60.1769 7.24821 60.0998C7.25113 60.0226 7.25596 59.9456 7.26271 59.8686C7.26946 59.7917 7.27811 59.715 7.28868 59.6385C7.29924 59.5619 7.31169 59.4857 7.32603 59.4098C7.34038 59.334 7.3566 59.2585 7.37469 59.1834C7.39279 59.1083 7.41274 59.0337 7.43453 58.9596C7.45633 58.8855 7.47995 58.812 7.5054 58.7391C7.53086 58.6661 7.55811 58.5939 7.58714 58.5223C7.61618 58.4507 7.64698 58.3799 7.67954 58.3099C7.7121 58.2399 7.74637 58.1707 7.78236 58.1023C7.81836 58.0341 7.85603 57.9667 7.89537 57.9002C7.93471 57.8337 7.97568 57.7682 8.01827 57.7039C8.06086 57.6394 8.10503 57.5761 8.15077 57.5139C8.19651 57.4516 8.24377 57.3905 8.29254 57.3306C9.08998 56.3327 10.1854 55.8372 11.4303 55.6891Z" fill="#4BBEB1"/>
<path d="M85.4375 0H150V54.9608V56.3114V150H116.453C117.189 149.663 117.857 149.29 118.428 148.704C119.824 147.271 119.854 145.716 119.846 143.828L119.826 140.767C122.39 140.732 125.597 141.316 127.595 139.333C128.27 138.664 128.787 137.773 128.982 136.839C129.184 135.866 129.121 134.837 129.119 133.849L129.115 130.206L129.126 116.221L129.134 57.0168C129.034 52.7376 129.142 48.4315 129.132 44.1498C129.21 44.0027 129.334 43.9997 129.486 43.9446L129.543 43.812C129.286 43.4287 128.844 43.0966 128.512 42.7679C127.346 41.6134 126.147 40.5041 124.967 39.3665C122.815 37.2938 120.734 35.1381 118.61 33.0365C117.885 32.3197 117.125 31.6403 116.397 30.927L85.4375 0Z" fill="white"/>
<path d="M137.539 140.683C137.803 140.696 138.014 140.696 138.223 140.883C138.787 141.386 138.536 143.119 138.551 143.829C139.237 143.841 140.825 143.584 141.355 144.002C141.512 144.126 141.603 144.267 141.623 144.469C141.641 144.651 141.591 144.833 141.458 144.964C140.942 145.47 139.228 145.264 138.503 145.261C138.485 146.229 138.788 147.429 138.16 148.242C137.879 148.27 137.593 148.293 137.372 148.079C136.874 147.602 137.089 145.997 137.101 145.311C136.328 145.302 134.999 145.519 134.333 145.106C134.135 144.984 134.01 144.81 133.98 144.574C133.956 144.393 133.989 144.214 134.113 144.074C134.577 143.545 136.416 143.798 137.11 143.82C137.117 143.099 137.026 142.353 137.088 141.636C137.128 141.179 137.186 140.988 137.539 140.683Z" fill="#4BBEB1"/>
<path d="M124.082 20.1274C124.288 20.1644 124.509 20.2268 124.656 20.3863C125.128 20.9003 124.88 22.7135 124.876 23.4386C125.662 23.4405 127.368 23.1854 127.993 23.6863C128.116 23.7844 128.193 23.9231 128.2 24.0815C128.207 24.2513 128.133 24.4271 128.007 24.5406C127.439 25.0517 125.683 24.8316 124.925 24.825C124.882 25.5928 125.003 26.3949 124.859 27.1514C124.788 27.5242 124.63 27.6794 124.326 27.8842C124.095 27.8543 123.86 27.8125 123.697 27.6292C123.241 27.1149 123.424 25.5348 123.409 24.8379C122.686 24.8132 120.993 25.0635 120.442 24.6137C120.283 24.484 120.199 24.3446 120.187 24.1394C120.176 23.9384 120.235 23.7973 120.379 23.6551C120.873 23.1674 122.754 23.4264 123.464 23.4403C123.51 22.5854 123.409 21.6699 123.563 20.8298C123.63 20.4585 123.775 20.3333 124.082 20.1274Z" fill="#4BBEB1"/>
<path d="M150 56.3113C149.906 56.6688 149.803 57.0306 149.678 57.3782C149.237 58.5929 148.306 59.6247 147.118 60.1437C145.928 60.663 144.537 60.6409 143.341 60.1509C142.168 59.6703 141.105 58.6566 140.644 57.4691C140.203 56.334 140.224 54.8861 140.71 53.7686C140.743 53.6949 140.778 53.6222 140.814 53.5503C140.85 53.4783 140.888 53.4073 140.928 53.3373C140.968 53.2672 141.009 53.1982 141.052 53.1302C141.096 53.0621 141.14 52.9952 141.187 52.9294C141.233 52.8635 141.281 52.7988 141.331 52.7353C141.38 52.6718 141.431 52.6095 141.484 52.5485C141.537 52.4876 141.591 52.4279 141.646 52.3695C141.702 52.3112 141.759 52.2543 141.817 52.1987C141.876 52.1431 141.935 52.089 141.996 52.0363C142.057 51.9836 142.119 51.9325 142.183 51.8829C142.246 51.8333 142.311 51.7853 142.377 51.7389C142.443 51.6924 142.51 51.6476 142.578 51.6044C142.646 51.5613 142.715 51.5198 142.785 51.4801C142.855 51.4402 142.926 51.4021 142.998 51.3658C143.07 51.3295 143.142 51.2949 143.216 51.2622C143.29 51.2294 143.364 51.1985 143.439 51.1694C143.512 51.1411 143.586 51.1148 143.66 51.0903C143.735 51.0658 143.809 51.0433 143.885 51.0226C143.96 51.0019 144.036 50.9831 144.113 50.9663C144.189 50.9494 144.266 50.9345 144.343 50.9215C144.421 50.9085 144.498 50.8975 144.576 50.8885C144.653 50.8795 144.731 50.8724 144.81 50.8673C144.888 50.8622 144.966 50.8591 145.044 50.8579C145.122 50.8568 145.201 50.8576 145.279 50.8604C145.357 50.8632 145.435 50.8679 145.513 50.8748C145.591 50.8815 145.669 50.8902 145.747 50.9009C145.824 50.9116 145.901 50.9242 145.978 50.9388C146.055 50.9533 146.132 50.9699 146.208 50.9885C146.284 51.0069 146.36 51.0273 146.435 51.0495C146.51 51.0718 146.584 51.096 146.658 51.122C146.732 51.148 146.804 51.1759 146.877 51.2057C146.949 51.2354 147.021 51.2669 147.092 51.3003C148.699 52.0505 149.426 53.3534 150 54.9607V56.3113Z" fill="#4BBEB1"/>
</g>
<defs>
<clipPath id="clip0_47_2185">
<rect width="150" height="150" fill="white"/>
</clipPath>
</defs>
</svg>
