<svg width="150" height="150" viewBox="0 0 150 150" fill="none" xmlns="http://www.w3.org/2000/svg">
<g clip-path="url(#clip0_47_2206)">
<path d="M0 0H27.844H102.052H150V75.1821V79.6655V150H99.1639H92.8591H16.1253H1.17483H0V148.775V29.3244V27.0658V0Z" fill="#101055"/>
<path d="M102.863 4.22168C104.045 5.2689 105.139 6.5217 106.262 7.63957C109.587 10.9487 112.831 14.3391 116.131 17.6715L121.554 23.041C122.32 23.8108 123.245 24.598 123.877 25.4754C121.413 25.5729 118.918 25.5001 116.45 25.4989L102.818 25.4898C102.885 18.4005 102.9 11.3112 102.863 4.22168Z" fill="#8FE2E4"/>
<path d="M127.957 31.9785C127.97 32.0017 127.98 32.0267 127.996 32.0479C128.061 32.1364 132.223 34.5121 132.829 34.9425C139.398 39.6086 143.414 47.9692 142.857 56.0121C142.78 57.1321 142.592 58.2303 142.416 59.3374C142.629 59.5405 142.839 59.7474 143.045 59.9579C143.252 60.1685 143.454 60.3826 143.652 60.6004C143.851 60.8183 144.045 61.0396 144.236 61.2643C144.426 61.4891 144.613 61.7171 144.795 61.9485C144.977 62.1799 145.156 62.4146 145.33 62.6523C145.504 62.89 145.673 63.1308 145.839 63.3747C146.004 63.6185 146.165 63.8652 146.322 64.1148C146.478 64.3644 146.63 64.6167 146.778 64.8717C146.926 65.1267 147.069 65.3843 147.207 65.6444C147.345 65.9046 147.479 66.1671 147.608 66.4319C147.737 66.6969 147.862 66.964 147.982 67.2333C148.101 67.5027 148.215 67.7741 148.324 68.0475C148.435 68.3209 148.54 68.5962 148.639 68.8734C148.74 69.1505 148.835 69.4294 148.925 69.71C149.015 69.9905 149.1 70.2726 149.18 70.5562C149.26 70.8399 149.335 71.1249 149.404 71.4111C149.696 72.6602 149.715 73.9441 150 75.1819V79.6653L149.981 79.7493C149.693 81.1174 149.631 82.4912 149.266 83.8577C149.218 84.0378 149.166 84.2173 149.113 84.3962C149.059 84.5751 149.004 84.7534 148.947 84.931C148.889 85.1087 148.83 85.2858 148.768 85.4622C148.708 85.6385 148.645 85.8142 148.579 85.9891C148.514 86.1641 148.447 86.3383 148.379 86.5119C148.309 86.6853 148.239 86.858 148.166 87.0298C148.093 87.2017 148.018 87.3728 147.942 87.543C147.865 87.7133 147.786 87.8827 147.706 88.0511C147.626 88.2196 147.544 88.3872 147.459 88.5539C147.375 88.7206 147.289 88.8863 147.201 89.051C147.114 89.2158 147.025 89.3795 146.933 89.5422C146.841 89.705 146.748 89.8667 146.653 90.0273C146.558 90.1881 146.462 90.3477 146.363 90.5062C146.264 90.6648 146.164 90.8222 146.062 90.9785C145.96 91.1348 145.856 91.29 145.75 91.444C145.645 91.598 145.538 91.7508 145.429 91.9023C145.32 92.054 145.209 92.2044 145.097 92.3535C144.985 92.5026 144.871 92.6505 144.755 92.7972C144.64 92.9438 144.522 93.0891 144.404 93.2332C144.285 93.3772 144.164 93.5199 144.042 93.6612C143.92 93.8025 143.797 93.9424 143.672 94.081C143.547 94.2197 143.42 94.3569 143.292 94.4926C143.164 94.6284 143.034 94.7627 142.903 94.8956C142.772 95.0285 142.64 95.16 142.506 95.2899C142.372 95.4198 142.236 95.5482 142.099 95.6752C141.962 95.8021 141.824 95.9275 141.684 96.0514C141.545 96.1753 141.404 96.2976 141.261 96.4183C141.119 96.539 140.975 96.6582 140.83 96.7757C140.685 96.8932 140.539 97.0091 140.391 97.1235C140.244 97.2377 140.095 97.3503 139.945 97.4613C139.795 97.5722 139.643 97.6815 139.491 97.7891C139.338 97.8967 139.184 98.0026 139.029 98.1068C135.886 100.184 131.763 102.238 127.952 102.327C127.907 99.4189 127.947 96.5046 127.948 93.596L127.958 76.5745L127.957 31.9785Z" fill="#8FE2E4"/>
<path d="M102.052 0H150V75.1821C149.714 73.9443 149.695 72.6604 149.404 71.4113C149.334 71.1251 149.26 70.8401 149.179 70.5564C149.099 70.2728 149.014 69.9907 148.925 69.7102C148.835 69.4296 148.74 69.1507 148.639 68.8736C148.539 68.5964 148.434 68.3211 148.324 68.0477C148.215 67.7743 148.1 67.5029 147.981 67.2335C147.861 66.9642 147.737 66.6971 147.608 66.4321C147.479 66.1673 147.345 65.9048 147.206 65.6446C147.069 65.3845 146.926 65.1269 146.777 64.8719C146.63 64.6168 146.478 64.3645 146.322 64.115C146.165 63.8654 146.004 63.6187 145.838 63.3749C145.673 63.131 145.503 62.8902 145.329 62.6525C145.155 62.4147 144.977 62.1801 144.795 61.9487C144.612 61.7173 144.426 61.4893 144.235 61.2645C144.045 61.0397 143.85 60.8185 143.652 60.6006C143.453 60.3828 143.251 60.1687 143.045 59.9581C142.839 59.7476 142.629 59.5407 142.416 59.3376C142.592 58.2305 142.779 57.1323 142.857 56.0123C143.414 47.9694 139.397 39.6088 132.828 34.9427C132.222 34.5123 128.06 32.1366 127.995 32.0481C127.98 32.0269 127.97 32.0019 127.957 31.9787C127.962 30.0642 127.99 28.1458 127.952 26.2317C127.384 25.2894 125.962 24.1119 125.132 23.2847C123.282 21.4044 121.414 19.5418 119.528 17.6968C116.738 14.9247 114.043 12.0532 111.28 9.25478C108.22 6.15432 105.079 3.13581 102.052 0Z" fill="white"/>
<path d="M144.477 18.3115C144.736 18.5821 144.911 19.0586 145.116 19.38C145.869 20.5662 147.003 21.2334 148.243 21.8169C146.487 22.7015 145.417 23.3937 144.572 25.2213L144.506 25.3388C144.237 25.1731 144.022 24.2474 143.792 23.9402C143.029 22.9209 142.125 22.3598 141.052 21.7166C142.65 20.9124 143.685 19.9271 144.477 18.3115Z" fill="#8FE2E4"/>
<path d="M127.676 6.99902C128.01 7.29378 128.229 7.95428 128.422 8.35635C129.515 10.6404 130.867 11.2249 133.017 12.3821C129.789 14.0632 129.398 14.3808 127.738 17.588C127.42 17.2684 127.191 16.5687 126.986 16.1529C125.987 14.1239 124.461 13.194 122.409 12.3663C125.707 10.6982 126.166 10.3888 127.676 6.99902Z" fill="#F2D261"/>
<path d="M0 0H27.844C27.4948 0.283383 27.2471 0.488755 27.196 0.958211C27.019 2.58753 27.1808 4.35459 27.1821 5.99697C27.1852 10.0004 27.259 14.0266 27.161 18.0271C27.0999 21.0139 27.1425 24.0091 27.144 26.9968L27.1682 44.3045L27.1597 92.2665L27.1575 120.311L27.175 129.924C27.1833 131.524 27.1096 133.18 27.2313 134.772C27.2437 135.603 27.2476 136.433 27.243 137.264C27.2508 137.667 27.2543 138.065 27.5698 138.361C27.8689 138.641 28.1597 138.692 28.5548 138.71C31.161 138.836 33.831 138.708 36.4437 138.708L52.6597 138.711L101.091 138.709L121.918 138.71C123.07 138.709 126.281 138.862 127.27 138.6C127.408 138.563 127.483 138.503 127.58 138.402C127.789 138.184 127.905 137.971 127.936 137.669C128.057 136.495 127.962 135.212 127.962 134.028L127.964 126.666L127.952 102.327C131.763 102.238 135.886 100.184 139.029 98.107C139.184 98.0028 139.338 97.8969 139.49 97.7893C139.643 97.6817 139.794 97.5724 139.944 97.4615C140.095 97.3505 140.243 97.2379 140.391 97.1237C140.539 97.0093 140.685 96.8934 140.83 96.7759C140.975 96.6583 141.119 96.5392 141.261 96.4185C141.404 96.2978 141.545 96.1755 141.684 96.0516C141.824 95.9277 141.962 95.8023 142.099 95.6754C142.236 95.5484 142.371 95.42 142.505 95.2901C142.639 95.1602 142.772 95.0287 142.903 94.8958C143.034 94.7629 143.164 94.6286 143.292 94.4928C143.42 94.3571 143.547 94.2199 143.672 94.0812C143.797 93.9426 143.92 93.8027 144.042 93.6614C144.164 93.5201 144.285 93.3774 144.403 93.2334C144.522 93.0893 144.639 92.944 144.755 92.7974C144.87 92.6507 144.984 92.5028 145.097 92.3537C145.209 92.2046 145.319 92.0542 145.428 91.9025C145.537 91.751 145.644 91.5982 145.75 91.4442C145.856 91.2902 145.959 91.135 146.061 90.9787C146.164 90.8224 146.264 90.665 146.362 90.5064C146.461 90.3479 146.558 90.1883 146.653 90.0275C146.748 89.8669 146.841 89.7052 146.933 89.5424C147.024 89.3797 147.114 89.216 147.201 89.0512C147.289 88.8865 147.375 88.7207 147.458 88.5541C147.543 88.3874 147.626 88.2198 147.706 88.0513C147.786 87.8829 147.865 87.7135 147.942 87.5433C148.018 87.373 148.093 87.2019 148.166 87.03C148.238 86.8582 148.309 86.6855 148.378 86.5121C148.447 86.3385 148.514 86.1643 148.579 85.9893C148.645 85.8144 148.708 85.6387 148.768 85.4623C148.83 85.286 148.889 85.1089 148.947 84.9312C149.003 84.7536 149.059 84.5753 149.112 84.3964C149.166 84.2175 149.217 84.038 149.266 83.8579C149.631 82.4914 149.692 81.1176 149.981 79.7495L150 79.6655V150H99.1639H92.8591H16.1253H1.17483H0V148.775V29.3244V27.0658V0Z" fill="white"/>
<path d="M137.586 135.185C137.873 135.483 138.029 135.927 138.282 136.264C139.12 137.382 140.272 138.101 141.55 138.614C139.754 139.466 138.667 140.342 137.864 142.21L137.8 142.29C137.423 142.083 137.013 141.066 136.729 140.688C136.02 139.741 135.131 139.169 134.055 138.718C135.802 137.746 136.72 136.997 137.586 135.185Z" fill="#8FE2E4"/>
<path d="M141.453 117.496C141.989 117.476 142.482 117.591 142.944 117.874C143.017 117.919 143.088 117.968 143.156 118.021C143.224 118.073 143.289 118.129 143.351 118.188C143.414 118.247 143.473 118.309 143.529 118.374C143.585 118.439 143.638 118.507 143.688 118.577C143.737 118.648 143.783 118.72 143.825 118.795C143.867 118.87 143.905 118.947 143.939 119.026C143.973 119.105 144.004 119.185 144.03 119.267C144.056 119.349 144.078 119.432 144.096 119.516C144.24 120.219 144.077 120.989 143.674 121.581C143.218 122.248 142.641 122.496 141.884 122.655C141.36 122.698 140.772 122.557 140.324 122.282C139.724 121.913 139.332 121.299 139.198 120.613C139.056 119.88 139.188 119.108 139.638 118.503C140.107 117.873 140.706 117.623 141.453 117.496Z" fill="#F2D261"/>
<path d="M8.57938 1.57422C8.86105 1.83499 9.04804 2.35375 9.24531 2.69482C9.94449 3.90375 11.0852 4.67406 12.2973 5.30225C10.6743 6.22672 9.45128 7.32361 8.67771 9.04445C8.2774 8.72978 7.75175 7.48009 7.35459 6.98632C6.7681 6.25719 5.77 5.74135 5.00146 5.22792C6.8128 4.34345 7.80364 3.45231 8.57938 1.57422Z" fill="#8FE2E4"/>
<path d="M0.0572789 27.0744C0.282795 26.6809 0.607882 26.3852 1.05004 26.2566C1.3657 26.1647 1.66825 26.1654 1.9546 26.3395C2.21867 26.4997 2.36404 26.835 2.40311 27.129C2.53469 28.1194 2.42127 29.2653 2.42291 30.2726L2.43412 37.3976L2.45508 61.157L2.46239 147.584L66.5741 147.573H87.8726L94.7936 147.577C96.0413 147.578 97.3088 147.534 98.5547 147.602C98.9962 147.625 99.3719 147.662 99.7046 147.983C99.7313 148.008 99.7565 148.035 99.7803 148.063C99.8042 148.092 99.8267 148.121 99.8476 148.153C99.8685 148.183 99.8878 148.214 99.9056 148.246C99.9232 148.28 99.9393 148.313 99.9536 148.347C99.968 148.382 99.9806 148.416 99.9914 148.451C100.002 148.487 100.011 148.522 100.018 148.558C100.026 148.596 100.031 148.632 100.034 148.668C100.038 148.705 100.04 148.742 100.039 148.78C100.04 149.106 99.9029 149.458 99.6592 149.679C99.5134 149.812 99.3478 149.886 99.1611 149.943L99.1639 150H92.8591H16.1253H1.17483H0V148.775V29.3242V27.0656L0.0572789 27.0744Z" fill="#101055"/>
<path d="M0 27.0659L0.0572789 27.0747C0.0836016 27.792 0.158468 28.6211 0 29.3246V27.0659Z" fill="#64718D"/>
<path d="M92.8447 149.93L96.8149 149.915C97.5831 149.911 98.401 149.852 99.161 149.943L99.1638 150H92.8589L92.8447 149.93Z" fill="#64718D"/>
<path d="M0 148.775C0.287754 149.363 0.540397 149.706 1.17921 149.936L1.17483 150H0V148.775Z" fill="white"/>
<path d="M1.17919 149.936L16.1405 149.922L16.1253 150H1.1748L1.17919 149.936Z" fill="#4F5979"/>
<path d="M3.7371 26.6656L9.81636 26.6616L9.79789 137.274C12.0935 137.384 14.4314 137.299 16.7313 137.294C20.2352 137.306 23.7391 137.296 27.2429 137.264C27.2507 137.668 27.2542 138.065 27.5697 138.361C27.8688 138.641 28.1596 138.692 28.5547 138.711C31.1609 138.836 33.8309 138.708 36.4436 138.708L52.6596 138.711L101.091 138.709C101.106 141.279 101.098 143.848 101.069 146.417L3.69629 146.451L3.7371 26.6656Z" fill="#F2D261"/>
<path d="M27.1611 18.0271C27.1 21.0139 27.1426 24.0091 27.1441 26.9967L27.1682 44.3045L27.1597 92.2665L27.1575 120.311L27.1751 129.924C27.1833 131.524 27.1096 133.18 27.2314 134.772C25.6542 134.611 23.9334 134.739 22.3427 134.738L12.029 134.767L12.0093 18.029C17.0596 17.9909 22.1107 18.0906 27.1611 18.0271Z" fill="#8FE2E4"/>
<path d="M29.6611 2.45135L100.357 2.43799C100.444 3.19786 100.397 3.99452 100.394 4.75956L100.383 8.8226L100.415 21.5679L100.399 24.8546C100.394 25.5693 100.334 26.3375 100.45 27.0432C100.496 27.3205 100.726 27.6268 100.938 27.8017C102.147 28.1512 104.778 27.9544 106.143 27.9524L118.49 27.9671C120.523 27.969 122.608 27.8638 124.635 27.9646C124.88 27.9768 125.098 27.9948 125.326 28.0907C125.47 28.2957 125.487 28.4955 125.497 28.7394C125.542 29.8566 125.478 31.0105 125.478 32.1325L125.493 39.8043L125.477 67.8664L125.472 136.302L29.6887 136.293C29.6396 134.011 29.6828 131.718 29.6819 129.435L29.6869 115.955L29.6825 83.8916L29.6611 2.45135Z" fill="white"/>
<path d="M47.5553 32.8423C47.9031 33.044 48.3957 34.2772 48.7353 34.6845C49.4066 35.4894 50.2974 35.9907 51.2248 36.4459C49.63 37.1712 48.6327 38.3147 47.773 39.811L47.7088 39.8916C47.417 39.8089 46.9191 38.7891 46.736 38.5136C46.123 37.591 45.2092 37.038 44.2798 36.4845C45.9267 35.4815 46.9331 34.7186 47.5553 32.8423Z" fill="#F2D261"/>
<path d="M39.8817 107.565C40.1868 107.871 40.3752 108.357 40.6348 108.714C41.4519 109.837 42.4397 110.494 43.6304 111.159C41.7753 111.92 40.8637 113.048 39.9163 114.75C39.5008 114.558 38.8264 113.079 38.4034 112.648C37.7777 112.012 36.982 111.559 36.2175 111.114C38.2589 110.043 38.6833 109.515 39.8817 107.565Z" fill="#F2D261"/>
<path d="M100.357 2.43799C100.444 3.19786 100.397 3.99452 100.394 4.75956L100.383 8.8226L100.414 21.5679L100.399 24.8546C100.394 25.5693 100.333 26.3375 100.45 27.0432C100.495 27.3205 100.726 27.6268 100.938 27.8017C96.8501 27.9672 92.7546 27.9177 88.6608 27.9362C87.2712 27.9423 84.7108 28.1279 83.4733 27.9104C83.1578 27.8549 82.8437 27.6841 82.669 27.4078C82.481 27.1103 82.473 26.7502 82.543 26.4154C82.6631 25.8422 82.9416 25.604 83.4127 25.2895C85.1648 25.2328 86.935 25.3201 88.6896 25.3156L100.331 25.268C100.35 22.3295 100.352 19.391 100.338 16.4524L50.4496 16.4726C50.1749 16.2667 49.9266 16.0714 49.7532 15.7674C49.5793 15.4625 49.5232 15.1162 49.6237 14.7775C49.7624 14.3098 50.0892 14.0888 50.4932 13.8583C52.1737 13.7913 53.903 13.8831 55.5881 13.886L66.9007 13.9034C78.0411 13.8514 89.1814 13.8622 100.322 13.9357L100.317 6.54201C100.316 5.18943 100.241 3.7839 100.357 2.43799Z" fill="#8FE2E4"/>
<path d="M42.6994 122.427C45.025 122.342 47.3659 122.388 49.6931 122.384L62.0894 122.377L97.4407 122.384L109.702 122.373C110.913 122.37 114.175 122.209 115.126 122.462C115.288 122.505 115.411 122.609 115.529 122.724C115.786 122.976 115.992 123.338 115.987 123.706C115.982 124.025 115.768 124.442 115.537 124.657C114.892 125.259 113.388 125.037 112.546 125.024L63.9259 125.026L48.7205 125.027C45.8961 125.031 43.0533 125.108 40.2307 125.018C40.1018 124.941 39.9786 124.867 39.8655 124.767C39.5624 124.5 39.3524 124.179 39.3371 123.765C39.3256 123.448 39.4187 123.109 39.6464 122.878C40.2954 122.221 41.8259 122.43 42.6994 122.427Z" fill="#F2D261"/>
<path d="M77.2124 37.9005L77.3031 37.898C87.1697 37.67 96.9206 41.8502 103.97 48.6583C104.193 48.8741 104.413 49.0925 104.631 49.3136C104.848 49.5346 105.063 49.7582 105.276 49.9846C105.488 50.2109 105.697 50.4397 105.904 50.671C106.111 50.9025 106.315 51.1364 106.516 51.3727C106.717 51.609 106.915 51.8477 107.11 52.0889C107.305 52.3301 107.498 52.5736 107.687 52.8194C107.876 53.0652 108.063 53.3133 108.246 53.5637C108.429 53.8141 108.609 54.0666 108.786 54.3213C108.964 54.576 109.138 54.8328 109.309 55.0918C109.48 55.3508 109.647 55.6118 109.812 55.8748C109.976 56.1378 110.138 56.4029 110.296 56.6699C110.454 56.9368 110.609 57.2056 110.76 57.4763C110.912 57.747 111.06 58.0195 111.205 58.2938C111.35 58.5682 111.492 58.8443 111.63 59.122C111.768 59.3997 111.903 59.6791 112.035 59.9602C112.166 60.2413 112.294 60.5239 112.419 60.808C112.544 61.0921 112.665 61.3777 112.782 61.6648C112.9 61.9519 113.014 62.2404 113.125 62.5303C113.235 62.8201 113.343 63.1113 113.446 63.4038C113.55 63.6962 113.65 63.9899 113.746 64.2849C113.843 64.5798 113.936 64.8758 114.025 65.173C114.114 65.4702 114.2 65.7684 114.282 66.0676C114.364 66.3668 114.442 66.667 114.517 66.9682C114.592 67.2692 114.663 67.5712 114.73 67.8742C114.797 68.177 114.861 68.4806 114.921 68.785C114.981 69.0895 115.037 69.3946 115.09 69.7004C115.142 70.0061 115.191 70.3125 115.237 70.6194C115.282 70.9265 115.323 71.2339 115.361 71.5418C115.398 71.8498 115.432 72.1582 115.463 72.467C115.493 72.7758 115.519 73.085 115.542 73.3944C115.564 73.7039 115.583 74.0136 115.598 74.3234C115.614 74.6334 115.625 74.9434 115.633 75.2536C115.781 83.7312 113.701 91.3764 108.915 98.4113C107.711 100.182 106.397 101.91 104.906 103.45C97.6028 110.991 88.4054 114.873 77.9441 115.033C68.7573 115.163 59.2577 111.543 52.4722 105.349C46.1066 99.5375 41.8593 92.3973 40.1961 83.9322C40.0116 83.0395 39.8609 82.1411 39.7439 81.2371C39.6269 80.333 39.5441 79.4258 39.4953 78.5155C39.4788 78.1986 39.4662 77.8816 39.4575 77.5644C39.4489 77.2472 39.4443 76.93 39.4435 76.6127C39.4427 76.2954 39.4459 75.9782 39.453 75.661C39.4601 75.3438 39.4712 75.0267 39.4862 74.7097C39.5012 74.3928 39.5201 74.0761 39.5431 73.7596C39.5659 73.4431 39.5927 73.1269 39.6235 72.8111C39.6542 72.4954 39.6888 72.1801 39.7274 71.8651C39.7659 71.5502 39.8084 71.2357 39.8548 70.9218C39.9012 70.6079 39.9515 70.2947 40.0057 69.9821C40.0599 69.6694 40.1179 69.3575 40.1799 69.0463C40.2418 68.7351 40.3075 68.4247 40.3772 68.1151C40.4468 67.8056 40.5203 67.4969 40.5976 67.1892C40.675 66.8815 40.7561 66.5747 40.8409 66.269C40.9259 65.9633 41.0146 65.6587 41.1071 65.3552C41.1997 65.0517 41.296 64.7494 41.396 64.4482C41.496 64.1471 41.5997 63.8473 41.7072 63.5488C41.8147 63.2502 41.9258 62.9531 42.0406 62.6573C42.1556 62.3615 42.2741 62.0672 42.3963 61.7744C42.5185 61.4815 42.6443 61.1902 42.7737 60.9005C42.903 60.6108 43.0361 60.3228 43.1727 60.0364C43.3092 59.7499 43.4493 59.4653 43.5929 59.1824C43.7366 58.8995 43.8838 58.6184 44.0344 58.3392C44.185 58.0599 44.3391 57.7826 44.4966 57.5072C44.6541 57.2317 44.8151 56.9582 44.9794 56.6869C45.1438 56.4154 45.3114 56.146 45.4824 55.8789C45.6534 55.6116 45.8278 55.3464 46.0054 55.0834C46.183 54.8206 46.3639 54.5599 46.548 54.3015C46.732 54.043 46.9193 53.7869 47.1097 53.533C47.3002 53.2793 47.4937 53.028 47.6904 52.779C47.8872 52.53 48.087 52.2835 48.2898 52.0395C48.4926 51.7956 48.6985 51.5541 48.9072 51.3153C49.116 51.0763 49.3278 50.84 49.5425 50.6064C57.0033 42.4877 66.2358 38.3664 77.2124 37.9005Z" fill="#C3647B"/>
<path d="M52.0915 96.6967C48.8223 91.8882 46.5345 87.4335 45.5785 81.6236C44.1952 73.217 46.4354 64.214 51.3745 57.303C51.5312 57.0855 51.6905 56.87 51.8524 56.6564C52.0143 56.4428 52.1788 56.2312 52.3459 56.0217C52.513 55.8121 52.6827 55.6046 52.8548 55.3991C53.027 55.1936 53.2016 54.9903 53.3788 54.7892C53.5558 54.5879 53.7353 54.3889 53.9173 54.1921C54.0993 53.9952 54.2836 53.8006 54.4703 53.6083C54.657 53.416 54.846 53.2259 55.0373 53.0382C55.2286 52.8505 55.4222 52.6651 55.6181 52.482C55.8139 52.299 56.0119 52.1184 56.2121 51.9403C56.4124 51.7621 56.6148 51.5864 56.8193 51.4131C57.0238 51.2398 57.2304 51.069 57.4391 50.9009C57.6477 50.7326 57.8584 50.5669 58.0711 50.4039C58.2838 50.2407 58.4985 50.0802 58.7151 49.9224C58.9317 49.7644 59.1502 49.6092 59.3706 49.4567C59.591 49.3041 59.8132 49.1543 60.0372 49.0071C60.2613 48.86 60.487 48.7156 60.7146 48.574C60.9422 48.4323 61.1715 48.2934 61.4023 48.1574C61.6333 48.0213 61.8659 47.8881 62.1 47.7576C62.3342 47.6272 62.57 47.4997 62.8073 47.375C63.0446 47.2504 63.2833 47.1287 63.5236 47.0098C63.7639 46.891 64.0056 46.775 64.2487 46.6621C64.4917 46.5492 64.7361 46.4392 64.9818 46.3322C65.2276 46.2251 65.4746 46.1211 65.7229 46.0202C65.9712 45.9192 66.2207 45.8212 66.4714 45.7263C66.7221 45.6314 66.9739 45.5395 67.2267 45.4508C67.4796 45.362 67.7336 45.2763 67.9887 45.1937C68.2437 45.1111 68.4996 45.0316 68.7566 44.9552C69.0135 44.8788 69.2713 44.8057 69.53 44.7356C69.7887 44.6655 70.0482 44.5986 70.3086 44.5348C70.5689 44.471 70.83 44.4104 71.0918 44.353C71.3537 44.2956 71.6161 44.2414 71.8793 44.1904C72.1425 44.1394 72.4062 44.0916 72.6705 44.047C72.8756 44.0137 73.0809 43.9824 73.2866 43.953C73.4923 43.9236 73.6982 43.8962 73.9043 43.8709C74.1106 43.8456 74.317 43.8223 74.5237 43.8009C74.7303 43.7796 74.9371 43.7603 75.1442 43.7431C75.3512 43.7258 75.5584 43.7105 75.7657 43.6974C75.973 43.6841 76.1805 43.6728 76.388 43.6637C76.5955 43.6545 76.8031 43.6473 77.0108 43.6421C77.2184 43.6371 77.4262 43.6339 77.634 43.6328C77.8417 43.6317 78.0494 43.6326 78.2571 43.6355C78.4648 43.6385 78.6725 43.6435 78.8801 43.6505C79.0877 43.6575 79.2953 43.6665 79.5028 43.6776C79.7102 43.6886 79.9176 43.7017 80.1248 43.7168C80.332 43.7319 80.5391 43.749 80.7459 43.7681C80.9527 43.7872 81.1594 43.8084 81.3658 43.8315C81.5723 43.8547 81.7785 43.8798 81.9844 43.907C82.1904 43.9341 82.3961 43.9633 82.6015 43.9946C82.8069 44.0257 83.012 44.0589 83.2166 44.094C83.4214 44.1292 83.6258 44.1664 83.8298 44.2055C84.0338 44.2448 84.2374 44.2859 84.4407 44.329C84.6439 44.3722 84.8467 44.4173 85.049 44.4643C85.2514 44.5114 85.4532 44.5605 85.6546 44.6116C85.856 44.6625 86.0569 44.7155 86.2572 44.7705C86.4576 44.8254 86.6574 44.8823 86.8566 44.9412C87.0558 44.9999 87.2545 45.0607 87.4525 45.1234C87.6506 45.1861 87.848 45.2507 88.0449 45.3173C88.2417 45.3838 88.4378 45.4523 88.6332 45.5227C88.8287 45.5931 89.0235 45.6654 89.2175 45.7395C89.4116 45.8137 89.6049 45.8898 89.7974 45.9677C89.99 46.0456 90.1818 46.1254 90.3728 46.2071C90.5639 46.2888 90.754 46.3724 90.9434 46.4577C91.1328 46.5432 91.3213 46.6304 91.509 46.7195C91.6967 46.8085 91.8835 46.8994 92.0694 46.9921C94.0698 48.0107 95.9356 49.2856 97.7593 50.5872C88.0673 60.5628 78.2936 70.4577 68.4383 80.2717L58.9915 89.8121C56.7099 92.1227 54.4486 94.4625 52.0915 96.6967Z" fill="white"/>
<path d="M97.7594 50.5874C98.9512 51.6131 101.135 53.444 101.965 54.7266C107.733 61.6889 110.778 70.2718 109.934 79.3514C109.153 87.7492 104.926 96.2935 98.3862 101.7C91.622 107.291 83.3146 109.997 74.5595 109.161C69.5071 108.679 64.3067 106.749 60.0883 103.946C58.7059 103.028 57.4262 101.976 56.161 100.905C55.1778 100.326 52.6943 97.6821 52.0916 96.6969C54.4486 94.4627 56.7099 92.1229 58.9916 89.8123L68.4383 80.2719C78.2937 70.4578 88.0674 60.563 97.7594 50.5874Z" fill="white"/>
<path d="M97.7594 50.5874C98.9512 51.6131 101.135 53.444 101.965 54.7266L74.6236 82.2835C68.4132 88.4349 62.259 94.642 56.161 100.905C55.1778 100.326 52.6943 97.6821 52.0916 96.6969C54.4486 94.4627 56.7099 92.1229 58.9916 89.8123L68.4383 80.2719C78.2937 70.4578 88.0674 60.563 97.7594 50.5874Z" fill="#101055"/>
</g>
<defs>
<clipPath id="clip0_47_2206">
<rect width="150" height="150" fill="white"/>
</clipPath>
</defs>
</svg>
