<svg width="150" height="150" viewBox="0 0 150 150" fill="none" xmlns="http://www.w3.org/2000/svg">
<g clip-path="url(#clip0_47_1927)">
<path d="M0 0H27.4963H120.186H150V118.444V119.131V121.334V150H143.058H84.583H82.8173H3.02061H0V146.987V66.4276V17.5085V0Z" fill="#FEFEFE"/>
<path d="M93.6782 80.3236C93.6549 82.419 93.6538 84.5143 93.6749 86.6097L91.6315 86.613C91.6396 84.5155 91.6222 82.4181 91.5791 80.3211C92.2788 80.3161 92.9785 80.3169 93.6782 80.3236Z" fill="#F3D262"/>
<path d="M61.1616 105.972C62.0424 105.863 62.9508 105.886 63.8372 105.869C65.4389 105.84 67.0408 105.824 68.6429 105.823C70.077 105.819 71.693 105.672 73.0994 105.897C73.7944 106.009 74.4356 106.259 74.995 106.696C75.8442 107.361 76.3263 108.35 76.4285 109.412C76.5369 110.538 76.1582 111.575 75.4455 112.434C74.7267 113.3 73.8 113.853 72.6612 113.951C71.8175 114.024 70.9411 113.975 70.0939 113.97L65.5667 113.939C66.1724 113.116 66.7028 111.996 66.55 110.953C66.4852 110.51 66.2883 110.1 66.0013 109.758C65.4374 109.084 64.5866 108.582 63.8876 108.057L61.1616 105.972Z" fill="#FCEAAF"/>
<path d="M53.7646 121.006L58.0194 115.924C59.2902 116.16 61.7948 115.993 63.1669 115.99C67.665 115.979 72.2037 115.82 76.6962 115.97C76.3792 116.687 75.7367 117.717 75.8513 118.515C75.5656 120.331 75.8123 122.064 76.2724 123.83C74.0773 123.895 58.1935 123.707 57.7795 123.932L57.7212 124.007C56.3775 123.039 55.0587 122.039 53.7646 121.006Z" fill="#FCEAAF"/>
<path d="M26.7856 124.037C26.8009 123.157 27.0389 122.395 27.5447 121.678C28.1551 120.812 29.0866 120.03 30.1579 119.862C31.2738 119.687 31.9185 120.171 32.7691 120.793C34.6375 122.2 36.4642 123.663 38.3339 125.067C40.8405 126.95 43.4024 128.812 45.7946 130.84C46.5483 131.39 47.3468 131.91 47.643 132.85C47.879 133.598 47.7568 134.426 47.3934 135.111C46.831 136.171 45.7604 137.236 44.5899 137.557C44.0396 137.708 43.1069 137.777 42.6039 137.457C40.8449 136.336 38.8457 134.569 37.1729 133.251L27.8359 125.971C27.1296 125.42 26.8929 124.915 26.7856 124.037Z" fill="#101055"/>
<path d="M26.7859 124.037C26.7093 123.862 26.7172 123.834 26.5141 123.796C25.6562 123.635 24.4192 123.768 23.5142 123.772C21.2878 123.782 19.0636 123.744 16.8377 123.734C15.5427 123.729 14.0823 123.863 12.8159 123.635C12.153 123.516 11.4475 123.246 10.9668 122.762C10.1517 121.94 9.63311 120.805 9.64121 119.639C9.64896 118.523 10.1492 117.443 10.9477 116.671C11.0187 116.603 11.0923 116.538 11.1684 116.475C11.2445 116.413 11.3229 116.353 11.4035 116.296C11.4842 116.24 11.5669 116.186 11.6517 116.136C11.7364 116.086 11.823 116.039 11.9113 115.995C11.9997 115.951 12.0896 115.911 12.181 115.875C12.2725 115.838 12.3652 115.805 12.4592 115.775C12.5532 115.745 12.6481 115.719 12.7441 115.697C12.8401 115.675 12.9368 115.656 13.0342 115.641C14.0645 115.473 15.1792 115.52 16.2221 115.513L21.3017 115.505L36.8447 115.492C35.4919 117.239 34.2434 119.151 32.7694 120.793C31.9187 120.171 31.2741 119.687 30.1581 119.862C29.0869 120.031 28.1554 120.812 27.545 121.678C27.0392 122.396 26.8012 123.157 26.7859 124.037Z" fill="#FCEAAF"/>
<path d="M50.4023 125.211C51.5905 123.881 52.6708 122.415 53.7646 121.006C55.0586 122.039 56.3775 123.039 57.7211 124.007L77.0834 138.297C80.1634 140.573 83.1765 142.985 86.3228 145.165C85.3239 146.621 84.6089 148.201 84.5829 150H82.8171C81.8695 149.215 80.9232 148.421 79.9159 147.714C73.8753 143.001 67.7875 138.351 61.6523 133.763C57.8949 130.925 54.0854 128.146 50.4023 125.211Z" fill="#101055"/>
<path d="M38.3736 113.468C37.7763 113.255 34.9583 113.385 34.1507 113.384L18.956 113.384C17.3746 113.379 14.6131 113.585 13.2229 113.372C12.3645 113.24 11.4561 112.824 10.8329 112.216C10.1103 111.51 9.75193 110.497 9.74711 109.498C9.74216 108.47 10.2366 107.364 10.9853 106.661C11.5817 106.101 12.1838 105.829 12.9903 105.718C14.3606 105.529 15.8276 105.642 17.2112 105.642L24.5495 105.615L37.8754 105.61C40.0964 105.604 42.3213 105.491 44.5414 105.561L39.9676 111.467C39.5117 112.049 38.9079 113.002 38.3736 113.468Z" fill="#FCEAAF"/>
<path d="M57.7212 124.006L57.7795 123.931C58.1935 123.707 74.0773 123.895 76.2724 123.829C77.7518 127.485 79.8021 130.256 83.544 131.826C86.2117 132.945 88.8206 133.034 91.6175 132.382L91.6262 138.422C91.6269 139.59 91.5739 140.777 91.6665 141.941C89.5934 142.455 87.6813 143.477 86.3228 145.165C83.1765 142.985 80.1635 140.573 77.0835 138.297L57.7212 124.006Z" fill="#FEFEFE"/>
<path d="M0 66.4277L2.11414 66.4504L2.05217 121.627L2.05673 138.084L2.0676 143.384C2.07245 144.244 2.01901 145.155 2.10684 146.007C2.16095 146.533 2.34252 146.98 2.72275 147.352C3.21183 147.832 3.62698 147.857 4.28317 147.897C7.38561 148.08 10.8729 147.941 14.0152 147.945L34.4417 147.933L64.505 147.949L74.0142 147.945C75.6526 147.945 77.3016 147.996 78.9384 147.948C79.2882 147.936 79.6374 147.957 79.916 147.714C80.9234 148.421 81.8697 149.215 82.8173 150H3.02061H0V146.987V66.4277Z" fill="#F3D262"/>
<path d="M0 146.987C0.583787 148.096 0.992402 148.937 2.14957 149.577C2.43075 149.733 2.74749 149.836 3.02061 150H0V146.987Z" fill="#FEFEFE"/>
<path d="M45.9215 103.625C48.5021 105.452 50.9972 107.41 53.5127 109.327C55.547 110.877 57.6373 112.386 59.6015 114.022C59.04 114.625 58.536 115.282 58.0198 115.924L53.765 121.006C52.6712 122.415 51.5909 123.881 50.4027 125.211C49.5307 125.922 48.8651 126.961 48.1929 127.858C47.4285 128.879 46.6567 129.899 45.7951 130.84C43.4028 128.812 40.841 126.95 38.3343 125.067C36.4646 123.663 34.6379 122.2 32.7695 120.793C34.2436 119.15 35.4921 117.239 36.8449 115.492C37.3672 114.827 37.877 114.152 38.374 113.468C38.9084 113.002 39.5122 112.049 39.9681 111.467L44.5419 105.561C45.0508 105.068 45.4806 104.392 45.8358 103.781L45.9215 103.625Z" fill="#F3D262"/>
<path d="M0 17.5085C0.461001 16.3025 1.02516 15.2898 2.26625 14.7278C2.84054 14.4677 3.45917 14.395 4.08277 14.38C5.95718 14.3349 7.84373 14.3958 9.72004 14.3936L22.8876 14.3886L65.4015 14.4359L85.8085 14.4196L90.5921 14.4243C91.5123 14.426 92.6934 14.2997 93.5795 14.5309C93.6757 14.699 93.6844 14.8234 93.6869 15.0111C93.7226 17.7015 93.6762 20.4005 93.6762 23.0917L93.6655 42.2006L93.6781 80.3233C92.9784 80.3167 92.2787 80.3158 91.579 80.3208C91.4952 79.7488 91.5464 79.1009 91.5466 78.521L91.551 74.9482L91.5626 62.5499L91.6165 16.4774L25.055 16.4711L9.21 16.4794L5.39396 16.4727C4.71441 16.4706 3.88881 16.377 3.23241 16.5288C2.68811 16.6546 2.41819 17.0047 2.13208 17.456C1.97684 19.251 2.09339 21.1422 2.09826 22.947L2.11365 33.0738L2.11414 66.4502L0 66.4275V17.5085Z" fill="#101055"/>
<path d="M21.0789 85.7312L55.9258 85.6868L66.9934 85.6739C68.9913 85.6669 71.1054 85.5185 73.0861 85.7202C73.9544 85.8085 74.602 86.0422 75.2677 86.6212C75.3192 86.6662 75.3695 86.7125 75.4186 86.7601C75.4677 86.8077 75.5156 86.8564 75.5623 86.9064C75.609 86.9563 75.6544 87.0075 75.6984 87.0598C75.7424 87.1121 75.7852 87.1654 75.8266 87.2199C75.8679 87.2743 75.9078 87.3298 75.9464 87.3863C75.985 87.4428 76.0221 87.5001 76.0577 87.5584C76.0934 87.6168 76.1275 87.6761 76.1601 87.7361C76.1927 87.7962 76.2238 87.8571 76.2534 87.9188C76.2829 87.9804 76.3108 88.0428 76.3372 88.1058C76.3637 88.1689 76.3885 88.2327 76.4116 88.297C76.4348 88.3614 76.4563 88.4263 76.4761 88.4917C76.496 88.5571 76.5142 88.623 76.5307 88.6893C76.5472 88.7557 76.5621 88.8224 76.5752 88.8895C76.5883 88.9566 76.5998 89.024 76.6095 89.0917C76.6192 89.1594 76.6272 89.2272 76.6336 89.2953C76.6398 89.3634 76.6443 89.4316 76.6472 89.4999C76.6888 90.5416 76.2966 91.6364 75.5667 92.3817C75.0767 92.8821 74.4668 93.2171 73.789 93.387C72.6292 93.678 71.2844 93.5473 70.0943 93.5447L65.3689 93.5322L28.2656 93.531L17.9986 93.5391C16.3546 93.5387 14.5738 93.6701 12.9445 93.4755C12.1917 93.3857 11.5047 93.0287 10.9517 92.5139C10.1748 91.7905 9.78865 90.8255 9.76178 89.7745C9.73422 88.6963 10.0784 87.5927 10.845 86.813C11.3333 86.3164 11.9943 85.9984 12.6701 85.8537C13.87 85.5967 15.2608 85.7329 16.4882 85.7395L21.0789 85.7312Z" fill="#FCEAAF"/>
<path d="M45.8357 103.782C45.8018 103.764 45.7685 103.745 45.7339 103.728C45.3572 103.547 44.6765 103.586 44.2619 103.576C41.6079 103.518 38.9381 103.618 36.2823 103.627L19.7221 103.637C17.9973 103.635 14.0486 103.86 12.5083 103.376C12.4399 103.356 12.3721 103.333 12.305 103.308C12.2379 103.283 12.1715 103.257 12.1058 103.228C12.0402 103.2 11.9754 103.17 11.9114 103.138C11.8475 103.106 11.7844 103.072 11.7224 103.036C11.6603 103.001 11.5992 102.963 11.5392 102.924C11.4792 102.885 11.4204 102.845 11.3626 102.803C11.3049 102.76 11.2483 102.717 11.193 102.671C11.1377 102.626 11.0837 102.579 11.0311 102.531C10.9784 102.482 10.9271 102.432 10.8771 102.381C10.8272 102.33 10.7788 102.277 10.7318 102.223C10.6848 102.169 10.6393 102.114 10.5954 102.058C10.5515 102.001 10.5092 101.944 10.4685 101.885C10.4278 101.826 10.3888 101.766 10.3514 101.705C10.3141 101.644 10.2784 101.582 10.2445 101.519C10.2106 101.456 10.1785 101.392 10.1481 101.327C10.1178 101.263 10.0893 101.197 10.0626 101.131C9.64578 100.12 9.61192 99.0151 10.0455 98.003C10.4802 96.9886 11.3726 96.1479 12.4055 95.7603C12.8212 95.6043 13.2363 95.5255 13.6789 95.5065C14.6766 95.4634 15.6926 95.5119 16.6921 95.5138L22.2072 95.511L39.7659 95.5128L61.5506 95.5186C65.1 95.521 68.6792 95.422 72.2261 95.5267C72.8749 95.5457 73.6558 95.6159 74.2462 95.8929C75.2249 96.3521 75.98 97.2483 76.3256 98.2655C76.6852 99.3244 76.6748 100.628 76.156 101.628C75.6954 102.516 74.849 103.291 73.8884 103.592C72.8152 103.928 71.5134 103.827 70.3947 103.841C68.6882 103.862 59.6501 103.662 58.7356 104.115C59.5355 104.747 60.3356 105.374 61.1617 105.972L63.8876 108.057C64.5866 108.582 65.4374 109.084 66.0014 109.757C66.2883 110.1 66.4852 110.51 66.5501 110.953C66.7029 111.995 66.1725 113.116 65.5667 113.939C64.7321 114.788 63.7591 115.348 62.5336 115.341C61.3578 115.335 60.5003 114.688 59.6015 114.023C57.6373 112.386 55.5469 110.877 53.5127 109.327C50.9971 107.411 48.502 105.452 45.9214 103.625L45.8357 103.782Z" fill="#FCEAAF"/>
<path d="M45.9211 103.625C45.0697 102.956 44.2504 102.276 44.1164 101.125C43.9841 99.9905 44.5346 98.9418 45.2394 98.0986C45.8521 97.3656 46.6408 96.6232 47.6355 96.5255C48.0858 96.4815 48.4632 96.5802 48.8685 96.77C49.7569 97.186 50.5673 97.9051 51.3485 98.493C53.0281 99.7579 54.701 101.032 56.3673 102.314C57.1321 102.9 57.9167 103.615 58.7353 104.115C59.5352 104.747 60.3353 105.374 61.1613 105.972L63.8873 108.057C64.5863 108.582 65.4371 109.084 66.001 109.757C66.288 110.1 66.4849 110.51 66.5498 110.953C66.7025 111.995 66.1721 113.116 65.5664 113.939C64.7317 114.788 63.7588 115.348 62.5333 115.341C61.3575 115.335 60.5 114.688 59.6011 114.023C57.6369 112.386 55.5466 110.877 53.5124 109.327C50.9968 107.411 48.5017 105.452 45.9211 103.625Z" fill="#101055"/>
<path d="M20.6601 77.2953C19.2774 77.3634 15.2289 77.4831 14.0221 77.2452C13.4956 77.1414 13.0036 76.9215 12.5978 76.5672C11.9995 76.0448 11.7471 75.3469 11.7125 74.5738C11.6509 73.1967 11.7001 71.8054 11.7061 70.4271L11.6966 64.7336L11.6828 45.858L11.7008 32.9933C11.7077 31.1216 11.5695 28.9531 11.7394 27.1146C11.7904 26.5634 12.0707 25.987 12.4421 25.5793C13.2228 24.7227 14.2668 24.5287 15.3695 24.5015C19.7232 24.3941 24.1056 24.4659 28.462 24.4657L52.7538 24.4681L66.4551 24.4646L70.6527 24.4603C71.516 24.4596 72.4138 24.4123 73.2713 24.5092C74.0392 24.5961 74.6919 24.938 75.244 25.4766C76.1435 26.3545 76.301 27.2935 76.3078 28.4895L76.3092 59.5511L76.3097 69.3042C76.3127 70.9466 76.4468 72.7082 76.2774 74.3337C76.1944 75.1307 75.9547 75.7527 75.3837 76.3378C75.0574 76.6722 74.6515 76.9668 74.2004 77.1048C73.0261 77.4644 69.5728 77.3324 68.1585 77.3038C68.0263 77.3012 67.8959 77.2934 67.7639 77.2848C66.6477 77.3054 65.5019 77.3633 64.3888 77.2826C62.9415 77.4017 61.4289 77.3302 59.9756 77.3333L50.6978 77.3031L20.6601 77.2953Z" fill="#8FE1E3"/>
<path d="M62.4632 70.1836C64.2263 70.8907 65.9834 71.6449 67.7642 72.3041C67.7676 73.9611 67.807 75.6289 67.7641 77.2849C66.6479 77.3055 65.5021 77.3634 64.3889 77.2827C63.6936 77.0054 62.5189 77.1567 61.7793 77.1662C61.9202 77.1516 62.1024 77.1461 62.2344 77.0944C62.257 77.0855 62.279 77.0752 62.3003 77.0637C62.3217 77.0522 62.3424 77.0396 62.3625 77.0259C62.3825 77.0121 62.4017 76.9972 62.42 76.9812C62.4383 76.9653 62.4557 76.9484 62.4722 76.9305C62.4886 76.9126 62.504 76.8939 62.5183 76.8743C62.5327 76.8546 62.5458 76.8343 62.5579 76.8133C62.57 76.7922 62.5808 76.7705 62.5904 76.7481C62.6001 76.7259 62.6084 76.7031 62.6154 76.6799C62.7218 76.3233 62.4833 76.1571 62.5035 75.8429C62.5325 75.3908 62.7112 74.8865 62.7895 74.4347C62.9912 73.2693 63.0309 71.6027 62.3723 70.5672C62.2917 70.4404 62.333 70.5456 62.2898 70.3742L62.4632 70.1836Z" fill="#101055"/>
<path d="M33.0723 49.7706C33.0477 49.4526 33.0288 49.1344 33.0155 48.8158C32.9207 45.9274 34.2134 42.7877 36.208 40.7121C38.2319 38.6058 41.0506 37.195 43.9974 37.1417C46.8991 37.0891 49.888 38.3466 51.9599 40.3622C54.6076 42.9378 55.4261 46.0232 55.4721 49.6068C55.698 49.7495 55.9286 49.8995 56.1319 50.0729C56.7779 50.6241 57.1772 51.4907 57.2239 52.333C57.2714 53.1895 56.9704 54.0706 56.385 54.7011C55.8257 55.3036 55.1094 55.5958 54.2963 55.6146C52.6773 58.378 51.7693 59.3202 49.1796 61.1502C49.1298 62.3731 49.1504 63.6031 49.1465 64.827C53.4821 66.8177 58.0444 68.3798 62.4629 70.1836L62.2895 70.3742C62.3327 70.5456 62.2914 70.4404 62.372 70.5673C63.0306 71.6028 62.9909 73.2693 62.7892 74.4347C62.7109 74.8865 62.5322 75.3908 62.5032 75.8429C62.483 76.1571 62.7215 76.3234 62.6151 76.6799C62.6081 76.7031 62.5998 76.7259 62.5901 76.7482C62.5805 76.7705 62.5697 76.7923 62.5576 76.8134C62.5456 76.8344 62.5324 76.8547 62.518 76.8743C62.5037 76.8939 62.4883 76.9127 62.4719 76.9305C62.4554 76.9484 62.438 76.9653 62.4197 76.9812C62.4014 76.9972 62.3822 77.0121 62.3622 77.0259C62.3422 77.0397 62.3215 77.0523 62.3 77.0637C62.2787 77.0752 62.2567 77.0855 62.2341 77.0945C62.1021 77.1462 61.9199 77.1516 61.779 77.1662C62.5186 77.1567 63.6933 77.0054 64.3886 77.2827C62.9414 77.4018 61.4288 77.3303 59.9755 77.3334L50.6976 77.3032L20.66 77.2954L20.6392 72.4234L39.4044 64.9827L39.4286 61.2331C37.0873 59.9874 35.4282 58.0059 34.3041 55.6327C34.0278 55.6279 33.7441 55.6275 33.4719 55.5747C32.8056 55.4454 32.2148 54.9497 31.8656 54.3831C31.3703 53.5798 31.2237 52.5238 31.4768 51.6147C31.727 50.7164 32.2898 50.2093 33.0723 49.7706Z" fill="url(#paint0_linear_47_1927)"/>
<path d="M0 0H27.4963H120.186H150V118.444V119.131V121.334V150H143.058H84.583C84.6091 148.201 85.3241 146.621 86.3229 145.165C87.6814 143.478 89.5935 142.455 91.6665 141.941C91.574 140.777 91.627 139.59 91.6263 138.422L91.6176 132.383C88.8207 133.034 86.2118 132.945 83.5441 131.826C79.8022 130.257 77.7519 127.485 76.2725 123.829C75.8124 122.064 75.5657 120.331 75.8514 118.515C75.7368 117.717 76.3793 116.687 76.6963 115.97C78.6142 110.653 80.8204 105.462 82.9488 100.228C83.8665 97.9205 84.7725 95.608 85.6668 93.2909C86.2613 91.7798 86.9199 90.2921 87.4818 88.7687C86.6219 88.7476 84.878 89.0297 84.1991 88.4944C84.0038 88.3405 83.8956 88.1288 83.869 87.883C83.8361 87.5789 83.8979 87.2432 84.1118 87.0133C84.334 86.7744 84.6533 86.6717 84.9687 86.63C85.6878 86.5346 86.4687 86.6301 87.1951 86.6333L91.6314 86.6128L93.6747 86.6095C93.6536 84.5141 93.6547 82.4187 93.6781 80.3234L93.6655 42.2007L93.6762 23.0918C93.6762 20.4006 93.7226 17.7016 93.6869 15.0111C93.6844 14.8235 93.6757 14.6991 93.5795 14.531C92.6934 14.2998 91.5123 14.4261 90.5921 14.4243L85.8085 14.4197L65.4015 14.436L22.8876 14.3887L9.72004 14.3936C7.84373 14.3958 5.95718 14.3349 4.08277 14.38C3.45917 14.395 2.84054 14.4677 2.26625 14.7278C1.02516 15.2899 0.461001 16.3025 0 17.5085V0Z" fill="#FEFEFE"/>
<path d="M145.311 73.4662C146.057 73.4199 147.854 73.2405 148.412 73.747C148.535 73.8578 148.617 73.978 148.61 74.1504C148.597 74.4532 148.402 74.7116 148.203 74.9205C147.526 75.0786 145.997 75.1571 145.379 74.8519C145.206 74.7662 145.054 74.637 145.005 74.4421C144.916 74.0899 145.129 73.7474 145.311 73.4662Z" fill="#101055"/>
<path d="M143.607 69.4985C143.92 69.5141 144.164 69.5144 144.406 69.7402C144.796 70.1045 144.768 71.0139 144.731 71.5117C144.68 72.1881 144.62 72.5587 144.095 73.0082C143.964 73.0293 143.831 73.0401 143.699 73.0251C143.507 73.0032 143.353 72.876 143.247 72.7197C142.859 72.1461 142.934 70.7853 143.1 70.1226C143.178 69.8098 143.344 69.6668 143.607 69.4985Z" fill="#101055"/>
<path d="M139.493 73.4009C139.943 73.3935 140.393 73.3896 140.843 73.3892C141.449 73.3933 142.142 73.4387 142.588 73.8937C142.628 74.0163 142.667 74.0721 142.639 74.2029C142.571 74.5188 142.226 74.7986 141.971 74.9693C141.282 75.0219 140.503 75.0797 139.816 75.0156C139.51 74.987 139.139 74.9083 138.961 74.629C138.866 74.4806 138.852 74.2949 138.881 74.1252C138.946 73.7601 139.2 73.589 139.493 73.4009Z" fill="#101055"/>
<path d="M143.494 75.367C143.608 75.3529 143.737 75.3301 143.851 75.3389C144.052 75.3541 144.224 75.4363 144.359 75.586C144.826 76.1056 144.73 77.1524 144.695 77.8019C144.667 78.321 144.655 78.6642 144.245 79.0295C143.914 79.0578 143.628 79.0856 143.362 78.8453C142.977 78.4985 142.978 77.792 142.982 77.3171C142.987 76.5843 142.945 75.9121 143.494 75.367Z" fill="#101055"/>
<path d="M135.954 13.9978C136.828 13.9319 138.447 13.8524 139.271 14.019C139.545 14.0744 139.805 14.2313 139.947 14.4768C140.074 14.6947 140.084 14.948 140.02 15.1876C139.915 15.5763 139.739 15.7476 139.402 15.9523C138.52 15.9971 136.321 16.2179 135.638 15.6022C135.447 15.4302 135.303 15.1715 135.314 14.9109C135.33 14.5313 135.679 14.2115 135.954 13.9978Z" fill="#101055"/>
<path d="M129.648 13.9539C130.247 13.9354 131.374 13.7735 131.862 14.1524C132.06 14.3061 132.168 14.4915 132.206 14.7365C132.252 15.0356 132.216 15.408 132.01 15.6444C131.594 16.1212 130.55 15.9681 129.968 15.9593C129.389 15.9649 128.236 16.1002 127.791 15.6915C127.572 15.4894 127.488 15.2303 127.479 14.9389C127.471 14.6871 127.53 14.4479 127.723 14.2719C128.18 13.8548 129.069 13.9559 129.648 13.9539Z" fill="#101055"/>
<path d="M133.68 16.3483C133.824 16.347 133.962 16.354 134.104 16.3789C134.335 16.4199 134.557 16.5176 134.686 16.7277C134.944 17.1484 134.944 20.3123 134.759 20.797C134.651 21.0806 134.272 21.2476 134.024 21.38C133.88 21.3778 133.739 21.3561 133.6 21.315C133.364 21.2445 133.192 21.0578 133.089 20.8398C132.813 20.2536 132.691 17.3412 132.987 16.7838C133.128 16.5188 133.416 16.4319 133.68 16.3483Z" fill="#101055"/>
<path d="M133.826 8.43604C133.944 8.45556 134.064 8.47518 134.178 8.51234C134.407 8.58747 134.617 8.73766 134.709 8.96732C134.91 9.4689 134.967 12.7551 134.689 13.1781C134.519 13.4375 134.171 13.5474 133.892 13.6316C133.758 13.6005 133.621 13.5697 133.491 13.524C133.265 13.4449 133.009 13.2307 132.929 13.0003C132.753 12.4968 132.753 9.43676 133.004 8.96918C133.168 8.6626 133.514 8.53254 133.826 8.43604Z" fill="#101055"/>
<path d="M144.581 46.0792C145.069 46.0611 145.519 46.1371 145.949 46.3835C146.5 46.6999 146.864 47.2364 146.997 47.8534C147.142 48.5198 147.047 49.2556 146.647 49.819C146.22 50.4191 145.653 50.6242 144.963 50.7556C144.554 50.7377 144.172 50.6555 143.801 50.4771C143.217 50.196 142.768 49.6956 142.576 49.0734C142.553 48.9987 142.534 48.923 142.519 48.8463C142.503 48.7697 142.492 48.6924 142.484 48.6146C142.477 48.5366 142.474 48.4586 142.474 48.3805C142.475 48.3023 142.479 48.2243 142.488 48.1466C142.496 48.0688 142.509 47.9917 142.525 47.9153C142.542 47.8388 142.562 47.7634 142.586 47.6891C142.61 47.6147 142.638 47.5417 142.669 47.4701C142.701 47.3986 142.736 47.3289 142.775 47.2609C143.182 46.5546 143.826 46.2663 144.581 46.0792Z" fill="#DB978D"/>
<path d="M11.9357 3.23459C12.5398 3.21081 13.0447 3.24417 13.5805 3.56713C14.1762 3.92623 14.5783 4.5358 14.7211 5.21238C14.8667 5.903 14.7436 6.62915 14.3407 7.21274C13.915 7.82937 13.3319 8.11893 12.616 8.26254C12.4841 8.26972 12.3524 8.26794 12.2207 8.25721C12.0891 8.24647 11.9588 8.22688 11.8299 8.19844C11.7009 8.16999 11.5745 8.13294 11.4506 8.0873C11.3267 8.04165 11.2064 7.98784 11.0898 7.92584C11.0518 7.90558 11.0144 7.88436 10.9775 7.86218C10.9406 7.83999 10.9043 7.81688 10.8685 7.79285C10.8328 7.76881 10.7977 7.74387 10.7633 7.71804C10.7288 7.6922 10.6951 7.6655 10.662 7.63793C10.6289 7.61037 10.5966 7.58198 10.565 7.55275C10.5333 7.52353 10.5025 7.49352 10.4724 7.46272C10.4423 7.43192 10.413 7.40037 10.3846 7.36808C10.3561 7.33577 10.3285 7.30276 10.3017 7.26905C10.2749 7.23534 10.249 7.20097 10.224 7.16593C10.199 7.13088 10.1749 7.09522 10.1517 7.05895C10.1285 7.02267 10.1062 6.98582 10.0849 6.94841C10.0636 6.911 10.0432 6.87307 10.0239 6.83461C10.0045 6.79615 9.98615 6.75723 9.96877 6.71783C9.9514 6.67844 9.93504 6.63862 9.9197 6.59839C9.90437 6.55816 9.89008 6.51757 9.87682 6.4766C9.86356 6.43563 9.85136 6.39435 9.84022 6.35276C9.67701 5.71931 9.79567 5.06061 10.1275 4.50174C10.5455 3.79769 11.1571 3.42763 11.9357 3.23459Z" fill="#DB978D"/>
<path d="M106.734 15.2368C107.04 15.2362 107.314 15.2869 107.542 15.5053C107.804 15.7558 107.874 16.2347 107.896 16.5764C107.988 17.9793 107.871 19.4664 107.874 20.8809L107.887 31.1138L107.875 63.1879C107.652 63.5387 107.445 63.7492 107.079 63.9537C106.989 63.949 106.996 63.9515 106.891 63.9335C106.601 63.8838 106.343 63.7854 106.176 63.5321C105.984 63.2418 105.921 62.8255 105.912 62.4846C105.887 61.5307 105.95 60.571 105.943 59.6156C105.902 56.0189 105.897 52.4222 105.927 48.8254L105.936 27.4655C105.946 24.9961 105.938 22.5269 105.913 20.0576C105.906 19.0196 105.743 16.8588 105.982 15.9329C106.083 15.5431 106.413 15.4133 106.734 15.2368Z" fill="#F3D262"/>
<path d="M34.382 5.37813C36.1193 5.30522 37.8752 5.34904 39.615 5.34769L48.7068 5.34321L76.0929 5.33931L100.864 5.34534L108.241 5.32942C109.931 5.3209 111.633 5.27752 113.322 5.35765C113.611 5.58476 113.833 5.79318 114.059 6.08822L114.042 50.6104L114.065 64.4328C114.07 66.6344 114.215 69.3405 114.041 71.4802C114.006 71.533 113.971 71.5862 113.933 71.6373C113.746 71.8899 113.522 72.1262 113.191 72.1549C112.915 72.1789 112.622 72.0595 112.423 71.8711C111.747 71.2323 112.025 68.9726 112.028 68.0521L111.99 7.4678L69.2527 7.43625C58.0885 7.43371 46.7584 7.27214 35.605 7.57145C35.613 8.62633 35.7952 10.9044 35.5009 11.8192C35.4112 12.0985 35.2417 12.4049 34.9568 12.5226C34.7237 12.6189 34.4652 12.5676 34.241 12.4745C33.9295 12.345 33.7094 12.1071 33.6016 11.7876C33.3043 10.9063 33.5444 9.59628 33.5222 8.65782C33.5067 8.00196 33.3961 7.32212 33.426 6.66864C33.4383 6.40192 33.4796 6.10063 33.6158 5.86608C33.7856 5.57426 34.0729 5.46206 34.382 5.37813Z" fill="#F3D262"/>
<path d="M27.4964 0H120.186C120.438 0.252861 120.731 0.517157 120.884 0.844759C121.005 1.10234 121.025 1.4097 121.029 1.69024C121.085 5.32378 121.014 8.96953 121.023 12.6048L121.012 44.0558L121.007 64.9008C121.006 68.2374 121.099 71.5976 121.007 74.9317C120.997 75.2915 120.972 75.6954 120.826 76.0274C120.728 76.2524 120.544 76.4068 120.31 76.4788C120.024 76.5665 119.521 76.5444 119.274 76.3636C118.681 75.9312 118.873 72.7396 118.88 71.932L118.936 2.15893C113.679 2.03395 108.403 2.07728 103.144 2.08644L78.6777 2.13369L47.6606 2.14116C41.4902 2.13129 35.3069 2.02418 29.1385 2.11047C29.1519 4.09109 29.1464 6.07166 29.1222 8.05217C29.115 8.80146 29.1816 9.56717 29.1238 10.3137C29.1033 10.5792 29.0575 10.8513 28.9393 11.0925C28.8238 11.3278 28.6486 11.4984 28.396 11.5779C28.1188 11.665 27.8149 11.6135 27.5698 11.4615C27.3436 11.3211 27.1407 11.0696 27.0946 10.8032C26.8864 9.59827 27.0549 7.21709 27.0506 5.90714C27.046 4.49536 26.8996 2.08326 27.0574 0.819882C27.0961 0.510886 27.3197 0.247207 27.4964 0Z" fill="#101055"/>
<path d="M112.077 82.3285L112.059 79.0064C112.055 78.3884 111.991 77.6952 112.097 77.0879C112.154 76.768 112.275 76.4334 112.514 76.2033C112.713 76.0118 112.973 75.9393 113.244 75.9579C113.598 75.9822 113.862 76.2027 114.072 76.47C114.109 76.5164 114.144 76.5634 114.179 76.6111L114.207 82.4259C115.704 82.8132 116.859 83.5579 117.654 84.9161C117.957 85.4354 118.168 85.9954 118.359 86.5638L133.549 86.5705L138.511 86.565C139.295 86.5644 140.125 86.5099 140.906 86.573C141.225 86.599 141.518 86.665 141.758 86.8915C141.962 87.0841 142.168 87.4427 142.154 87.7323C142.144 87.9516 141.995 88.1236 141.823 88.2422C140.965 88.8337 139.443 88.6401 138.443 88.6291C139.098 90.5354 139.895 92.3798 140.619 94.2595L145.755 107.533L148.428 114.524C148.872 115.7 149.341 117.397 150 118.444V119.131V121.335V150H143.058H84.5831C84.6092 148.201 85.3242 146.621 86.3231 145.165C87.6816 143.478 89.5936 142.456 91.6667 141.941C91.5741 140.777 91.6271 139.59 91.6264 138.423L91.6178 132.383C88.8208 133.035 86.2119 132.945 83.5443 131.826C79.8023 130.257 77.752 127.486 76.2726 123.83C75.8125 122.064 75.5659 120.331 75.8515 118.515C75.7369 117.717 76.3794 116.687 76.6964 115.97C78.6143 110.653 80.8205 105.462 82.949 100.228C83.8666 97.9206 84.7726 95.6082 85.667 93.2911C86.2614 91.78 86.92 90.2923 87.4819 88.7688C86.6221 88.7477 84.8782 89.0299 84.1992 88.4946C84.0039 88.3407 83.8957 88.129 83.8692 87.8832C83.8362 87.5791 83.898 87.2433 84.1119 87.0135C84.3341 86.7746 84.6534 86.6719 84.9688 86.6302C85.6879 86.5348 86.4688 86.6303 87.1952 86.6335L91.6315 86.613L93.6748 86.6097L102.726 86.5858C104.428 86.5795 106.141 86.6114 107.84 86.5478C108.416 84.8517 109.159 83.5965 110.81 82.7681C111.221 82.5621 111.632 82.4346 112.077 82.3285Z" fill="#F3D262"/>
<path d="M93.8086 88.686C98.5015 88.5057 103.213 88.7793 107.905 88.6187C108.102 89.2676 108.341 89.8466 108.685 90.4315C107.464 90.4821 106.233 90.4482 105.01 90.4406C105.134 95.3316 105.059 100.227 105.078 105.12L105.1 139.642L97.8824 139.642C97.0712 139.641 95.1527 139.508 94.4428 139.712C94.2098 139.779 94.0494 139.914 93.8827 140.083C93.8464 140.121 93.8106 140.159 93.7753 140.197C93.6571 137.357 93.7567 134.484 93.7355 131.64C94.3838 131.274 95.0216 130.898 95.6143 130.446C98.5334 128.216 100.249 125.359 100.771 121.727C100.897 120.849 100.837 119.95 100.963 119.073L100.973 119.006C101.087 118.328 94.5335 102.725 93.7201 100.485C93.8631 99.5125 93.7585 98.398 93.7744 97.4023C93.8095 94.497 93.8209 91.5916 93.8086 88.686Z" fill="#FEFEFE"/>
<path d="M75.8515 118.515C76.0534 118.778 76.2019 119.023 76.558 119.06C77.6219 119.17 78.7914 119.073 79.8636 119.066L86.1722 119.056L95.4652 119.067C97.2908 119.069 99.1525 119.143 100.973 119.006L100.963 119.073C100.837 119.95 100.897 120.849 100.771 121.727C100.249 125.359 98.5337 128.217 95.6146 130.446C95.0219 130.898 94.3841 131.274 93.7358 131.64C93.757 134.485 93.6574 137.357 93.7756 140.197C93.8109 140.159 93.8467 140.121 93.883 140.083C94.0497 139.914 94.2101 139.779 94.4431 139.712C95.153 139.509 97.0715 139.641 97.8827 139.642L105.101 139.642L115.767 139.651C117.724 139.653 119.696 139.605 121.651 139.674C123.753 139.688 125.855 139.686 127.957 139.669C129 139.666 130.172 139.558 131.2 139.724C131.452 139.765 131.691 139.854 131.872 140.04C132.073 140.246 132.137 140.505 132.113 140.786C132.087 141.094 131.961 141.327 131.789 141.577C131.817 141.595 131.845 141.614 131.874 141.63C132.36 141.896 134.178 141.695 134.828 141.736C138.192 141.949 141.398 144.566 142.564 147.675C142.705 148.048 142.816 148.43 142.899 148.819C142.982 149.209 143.035 149.603 143.058 150H84.5831C84.6092 148.201 85.3242 146.621 86.3231 145.165C87.6816 143.478 89.5936 142.455 91.6667 141.941C91.5741 140.777 91.6271 139.59 91.6264 138.422L91.6178 132.383C88.8208 133.034 86.2119 132.945 83.5443 131.826C79.8023 130.257 77.752 127.485 76.2726 123.829C75.8125 122.064 75.5659 120.331 75.8515 118.515Z" fill="#F3D262"/>
<path d="M105.101 139.642L115.767 139.651C117.724 139.652 119.697 139.605 121.651 139.674C123.753 139.688 125.855 139.686 127.957 139.669C129 139.666 130.172 139.558 131.2 139.724C131.452 139.764 131.691 139.854 131.872 140.04C132.073 140.246 132.137 140.505 132.113 140.785C132.087 141.094 131.961 141.327 131.789 141.577C131.399 141.81 131.062 141.835 130.615 141.845C128.022 141.903 125.408 141.815 122.812 141.81L105.932 141.804L98.2052 141.82C97.2412 141.823 95.4941 141.989 94.6461 141.765C94.3282 141.681 94.0091 141.511 93.8512 141.21C93.6737 140.871 93.664 140.555 93.7757 140.197C93.8109 140.159 93.8467 140.121 93.883 140.083C94.0497 139.913 94.2101 139.779 94.4432 139.712C95.153 139.508 97.0715 139.641 97.8828 139.642L105.101 139.642Z" fill="#101055"/>
<path d="M118.335 88.617C124.419 88.6098 130.509 88.5572 136.592 88.6273C135.669 90.7696 134.891 92.9849 134.072 95.1691L130.274 105.13L126.622 114.424C126.011 115.972 125.265 117.556 124.788 119.146L141.456 119.155L146.915 119.152C147.938 119.152 148.979 119.192 150 119.131V121.334V150H143.058C143.035 149.603 142.982 149.209 142.899 148.819C142.817 148.43 142.705 148.048 142.564 147.675C141.398 144.566 138.192 141.949 134.828 141.736C134.178 141.695 132.36 141.896 131.874 141.63C131.845 141.614 131.818 141.595 131.789 141.577C131.961 141.327 132.087 141.094 132.113 140.786C132.137 140.505 132.073 140.246 131.872 140.04C131.691 139.854 131.452 139.765 131.2 139.724C130.172 139.558 129 139.666 127.957 139.669C125.855 139.686 123.753 139.688 121.651 139.674L121.587 90.4314C120.27 90.4539 118.944 90.4678 117.628 90.4237C117.918 89.8427 118.154 89.2404 118.335 88.617Z" fill="#FEFEFE"/>
<path d="M124.788 119.146L141.456 119.154L146.915 119.152C147.938 119.152 148.979 119.192 150 119.131V121.334C149.72 121.961 149.679 122.789 149.501 123.464C148.938 125.59 147.797 127.433 146.276 129.009C144.135 131.228 141.032 132.493 137.962 132.532C134.325 132.579 131.097 131.327 128.494 128.75C125.861 126.146 124.798 122.78 124.788 119.146Z" fill="#F3D262"/>
<path d="M112.077 82.3285L112.059 79.0064C112.055 78.3884 111.991 77.6952 112.097 77.0879C112.154 76.768 112.275 76.4334 112.514 76.2033C112.713 76.0118 112.973 75.9393 113.244 75.9579C113.598 75.9822 113.862 76.2027 114.072 76.47C114.108 76.5164 114.144 76.5634 114.179 76.6111L114.207 82.4259C115.704 82.8132 116.859 83.5579 117.654 84.9161C117.957 85.4354 118.168 85.9954 118.359 86.5638L133.549 86.5705L138.511 86.565C139.295 86.5644 140.125 86.5099 140.905 86.573C141.225 86.599 141.518 86.665 141.758 86.8915C141.962 87.0841 142.168 87.4427 142.154 87.7323C142.143 87.9516 141.995 88.1236 141.823 88.2422C140.965 88.8337 139.443 88.6401 138.443 88.6291C139.098 90.5354 139.895 92.3798 140.619 94.2595L145.755 107.533L148.428 114.524C148.872 115.7 149.341 117.397 150 118.444V119.131C148.979 119.192 147.938 119.153 146.915 119.152L141.456 119.155L124.787 119.146C125.265 117.556 126.011 115.973 126.622 114.424L130.273 105.13L134.072 95.1693C134.89 92.9851 135.668 90.7698 136.592 88.6275C130.509 88.5575 124.419 88.61 118.335 88.6172C118.153 89.2407 117.918 89.8429 117.628 90.424C116.706 91.7483 115.704 92.3053 114.177 92.7315L114.12 118.506L114.126 127.214C114.129 128.649 114.245 130.192 114.114 131.615C114.093 131.843 114.009 132.041 113.857 132.212C113.64 132.456 113.406 132.579 113.078 132.592C112.8 132.603 112.574 132.54 112.367 132.342C112.111 132.099 112.045 131.655 112.023 131.322C111.955 130.288 112.05 129.186 112.055 128.144L112.068 121.025L112.059 103.359C112.058 99.8202 112.113 96.2721 112.025 92.735C110.525 92.2792 109.649 91.6705 108.686 90.4319C108.341 89.847 108.102 89.2679 107.905 88.619C103.214 88.7797 98.5017 88.506 93.8088 88.6864C93.8211 91.5919 93.8097 94.4974 93.7746 97.4026C93.7587 98.3983 93.8633 99.5129 93.7203 100.486C94.5337 102.725 101.087 118.328 100.973 119.006C99.1524 119.143 97.2907 119.069 95.4651 119.067L86.1721 119.056L79.8635 119.066C78.7913 119.073 77.6218 119.17 76.5579 119.06C76.2018 119.023 76.0533 118.778 75.8514 118.515C75.7369 117.717 76.3793 116.687 76.6963 115.97C78.6142 110.653 80.8204 105.462 82.9489 100.228C83.8665 97.9206 84.7725 95.6082 85.6669 93.2911C86.2613 91.78 86.9199 90.2923 87.4818 88.7688C86.622 88.7477 84.8781 89.0299 84.1991 88.4946C84.0038 88.3407 83.8956 88.129 83.8691 87.8832C83.8361 87.5791 83.8979 87.2433 84.1118 87.0135C84.334 86.7746 84.6534 86.6719 84.9687 86.6302C85.6878 86.5348 86.4687 86.6303 87.1952 86.6335L91.6314 86.613L93.6747 86.6097L102.726 86.5858C104.428 86.5795 106.14 86.6114 107.84 86.5478C108.416 84.8517 109.159 83.5965 110.81 82.7681C111.221 82.5621 111.632 82.4346 112.077 82.3285Z" fill="#101055"/>
<path d="M89.2725 88.6993L91.5219 88.6953C91.5395 89.5792 91.7286 94.0717 91.4524 94.6181C90.6209 92.8353 89.8845 90.5769 89.2725 88.6993Z" fill="#FEFEFE"/>
<path d="M91.5216 88.6951L93.8085 88.686C93.8208 91.5916 93.8094 94.497 93.7744 97.4023C93.7584 98.3979 93.863 99.5125 93.72 100.485C92.9105 98.5501 92.1546 96.5944 91.4521 94.6179C91.7283 94.0715 91.5392 89.579 91.5216 88.6951Z" fill="#F3D262"/>
<path d="M94.0198 107.211C94.9325 109.184 95.6731 111.256 96.4907 113.271C96.982 114.482 97.6363 115.736 97.9908 116.991C96.6263 117.013 95.183 117.112 93.8251 116.987C93.8273 115.528 93.7118 108.194 94.0198 107.211Z" fill="#FEFEFE"/>
<path d="M112.474 84.4621C113.188 84.3958 113.782 84.4261 114.44 84.7602C114.488 84.7839 114.534 84.8086 114.581 84.8345C114.627 84.8605 114.673 84.8876 114.718 84.9158C114.762 84.9439 114.807 84.9732 114.85 85.0037C114.894 85.0341 114.936 85.0655 114.978 85.098C115.02 85.1306 115.061 85.1642 115.101 85.1988C115.142 85.2334 115.181 85.2689 115.219 85.3054C115.258 85.342 115.295 85.3795 115.332 85.4179C115.368 85.4563 115.404 85.4956 115.439 85.5359C115.473 85.5761 115.507 85.6171 115.539 85.6589C115.572 85.7008 115.603 85.7435 115.634 85.7869C115.664 85.8304 115.694 85.8746 115.722 85.9195C115.75 85.9643 115.777 86.0099 115.803 86.0562C115.829 86.1025 115.854 86.1493 115.877 86.1968C115.901 86.2443 115.924 86.2923 115.945 86.3409C115.966 86.3896 115.986 86.4387 116.005 86.4883C116.023 86.5379 116.041 86.588 116.057 86.6385C116.074 86.6889 116.09 86.7398 116.104 86.7909C116.118 86.8422 116.131 86.8938 116.143 86.9456C116.154 86.9976 116.165 87.0498 116.174 87.1022C116.183 87.1547 116.19 87.2073 116.196 87.2601C116.202 87.313 116.207 87.3659 116.211 87.4189C116.214 87.472 116.216 87.5252 116.217 87.5783C116.218 87.6315 116.217 87.6847 116.215 87.7378C116.213 87.791 116.21 87.8441 116.205 87.897C116.2 87.9501 116.194 88.0029 116.186 88.0555C116.179 88.1082 116.17 88.1606 116.16 88.2127C116.15 88.265 116.138 88.3169 116.125 88.3684C116.112 88.4201 116.098 88.4714 116.082 88.5222C116.067 88.5731 116.05 88.6236 116.032 88.6736C116.014 88.7236 115.994 88.773 115.974 88.8219C115.953 88.871 115.931 88.9194 115.908 88.9673C115.884 89.0151 115.86 89.0623 115.834 89.1089C115.39 89.9026 114.682 90.3287 113.832 90.5757C113.085 90.7198 112.32 90.6854 111.627 90.3488C110.913 90.0016 110.405 89.3682 110.157 88.6198C110.14 88.5688 110.124 88.5175 110.109 88.4658C110.094 88.4141 110.081 88.362 110.069 88.3095C110.057 88.2571 110.046 88.2044 110.036 88.1515C110.027 88.0986 110.019 88.0454 110.012 87.9921C110.005 87.9387 109.999 87.8852 109.995 87.8316C109.991 87.7779 109.988 87.7243 109.987 87.6706C109.985 87.6168 109.985 87.563 109.986 87.5092C109.987 87.4554 109.99 87.4017 109.994 87.348C109.997 87.2944 110.003 87.2409 110.009 87.1875C110.016 87.1341 110.023 87.0808 110.033 87.0278C110.042 86.9749 110.052 86.9221 110.064 86.8696C110.076 86.8172 110.089 86.765 110.103 86.7132C110.118 86.6613 110.133 86.6098 110.15 86.5588C110.167 86.5077 110.185 86.4571 110.205 86.407C110.224 86.3568 110.245 86.3071 110.267 86.258C110.289 86.2089 110.312 86.1604 110.336 86.1124C110.803 85.2135 111.543 84.7604 112.474 84.4621Z" fill="#FEFEFE"/>
<path d="M91.6224 101.199C92.4541 103.19 93.2533 105.194 94.0199 107.211C93.712 108.194 93.8274 115.528 93.8252 116.987C93.062 116.949 92.2897 116.974 91.5255 116.975C91.573 113.167 91.4628 109.353 91.4984 105.543C91.5113 104.157 91.4004 102.548 91.6224 101.199Z" fill="#F3D262"/>
<path d="M78.6548 116.969C80.1936 112.581 82.0758 108.288 83.8024 103.97C85.3326 100.143 86.7165 96.2462 88.3236 92.4517C88.8584 93.6237 89.2542 94.8764 89.7083 96.0833C90.3489 97.786 91.0292 99.479 91.6223 101.199C91.4004 102.548 91.5113 104.157 91.4984 105.544C91.4628 109.353 91.573 113.167 91.5255 116.975C87.2379 117.036 82.943 116.978 78.6548 116.969Z" fill="#FEFEFE"/>
<path d="M137.434 92.1934C137.969 92.7368 144.52 110.335 145.391 112.643C145.949 114.119 146.634 115.596 147.078 117.108C143.916 117.141 140.748 117.099 137.585 117.092L127.81 117.11C129.7 112.557 131.522 107.928 133.246 103.308C134.627 99.6074 135.937 95.8474 137.434 92.1934Z" fill="#FEFEFE"/>
</g>
<defs>
<linearGradient id="paint0_linear_47_1927" x1="64.6941" y1="61.8194" x2="23.1806" y2="55.7643" gradientUnits="userSpaceOnUse">
<stop stop-color="#1B1B58"/>
<stop offset="1" stop-color="#504B93"/>
</linearGradient>
<clipPath id="clip0_47_1927">
<rect width="150" height="150" fill="white"/>
</clipPath>
</defs>
</svg>
