<svg width="150" height="149" viewBox="0 0 150 149" fill="none" xmlns="http://www.w3.org/2000/svg">
<g clip-path="url(#clip0_47_230)">
<path d="M22.3758 37.0249C22.4854 37.0346 22.6753 37.0458 22.7757 37.0824C23.057 37.1847 23.0925 37.3053 23.1735 37.5584C22.9019 38.5137 21.4393 39.5761 20.6457 40.1364C20.5365 40.1091 20.3498 40.0677 20.2531 40.0185C19.9896 39.8843 19.9548 39.7682 19.8818 39.5105C20.138 38.5677 21.6064 37.6023 22.3758 37.0249Z" fill="#101055"/>
<path d="M16.8072 42.408C16.9576 42.4463 17.1866 42.4843 17.3158 42.567C17.4695 42.6656 17.5803 42.7718 17.5925 42.9566C17.6479 43.7954 16.0087 45.1628 15.4295 45.7455C15.274 45.7841 15.1671 45.782 15.0086 45.7772C14.7833 45.5273 14.7432 45.4712 14.6677 45.146C14.8777 44.1073 16.0759 43.1299 16.8072 42.408Z" fill="#101055"/>
<path d="M11.8956 48.2466C12.0117 48.2675 12.2139 48.2882 12.3246 48.3436C12.6189 48.4911 12.6454 48.5891 12.758 48.8757C12.6777 49.8638 11.5426 51.0497 11.0236 51.9141L10.4229 51.8629C10.2117 51.7084 10.0843 51.6562 10.0677 51.3669C10.0181 50.4976 11.3946 48.9463 11.8956 48.2466Z" fill="#101055"/>
<path d="M0.503912 85.8057C0.652527 85.8486 0.863682 85.8905 0.993374 85.9721C1.26084 86.1408 1.31576 86.3736 1.38014 86.663C1.61114 87.7022 1.7293 89.3854 1.12468 90.2924C1.02222 90.2497 0.853297 90.1832 0.763527 90.1262C0.44022 89.921 0.355067 89.6325 0.281221 89.2771C0.0684514 88.255 -0.079011 86.7127 0.503912 85.8057Z" fill="#101055"/>
<path d="M35.8898 28.4213C36.2558 28.3967 36.433 28.4095 36.7457 28.6143C36.8281 28.7766 36.9225 28.8476 36.8563 29.0336C36.6027 29.7461 34.8103 30.4497 34.1129 30.8065C33.7432 30.8931 33.5558 30.9701 33.2293 30.7727C33.0728 30.4578 33.0613 30.4424 33.122 30.0983C33.6913 29.283 35.0083 28.8428 35.8898 28.4213Z" fill="#101055"/>
<path d="M7.86861 54.811C7.91684 54.8276 7.96553 54.8425 8.0133 54.8602C8.36361 54.9899 8.50092 55.0565 8.65092 55.3882C8.61699 56.5697 7.71076 57.7456 7.12507 58.7422C6.88946 58.7215 6.66607 58.7202 6.45999 58.591C6.32592 58.5071 6.2703 58.3499 6.25299 58.1966C6.14615 57.2551 7.26399 55.4921 7.86861 54.811Z" fill="#101055"/>
<path d="M0.781779 77.74C0.89624 77.7547 1.10393 77.7646 1.21609 77.8126C1.36078 77.8745 1.48539 77.9547 1.55001 78.1006C1.94139 78.9846 1.55693 81.2577 1.2387 82.1539C1.01439 82.1334 0.800471 82.0888 0.580317 82.0426C0.285394 81.7459 0.266008 81.4064 0.235547 81.0074C0.168624 80.1318 0.195856 78.3994 0.781779 77.74Z" fill="#101055"/>
<path d="M1.14448 93.5134L1.65494 93.6162C2.09109 94.0143 2.19794 94.6505 2.30571 95.2095C2.47001 96.0614 2.69155 97.272 2.18524 98.0158L1.78809 97.9416C1.35355 97.6083 1.24417 97.0221 1.12509 96.5133C0.915554 95.6168 0.6324 94.3271 1.14448 93.5134Z" fill="#101055"/>
<path d="M4.49817 62.0488C4.80786 62.1228 5.08409 62.1541 5.30401 62.4046C5.45055 63.1071 4.33825 65.8486 3.93025 66.528C3.80794 66.491 3.73825 66.4758 3.6194 66.4108C3.36094 66.2699 3.20771 66.0467 3.15186 65.7621C2.96102 64.7905 3.99555 62.8763 4.49817 62.0488Z" fill="#101055"/>
<path d="M2.56728 101.466C2.80013 101.48 3.02074 101.525 3.24943 101.571C3.77651 101.977 4.11736 103.077 4.27382 103.706C4.4559 104.437 4.69774 105.086 4.28074 105.771C4.15797 105.759 4.03566 105.752 3.91705 105.711C3.61266 105.608 3.44328 105.309 3.30782 105.041C2.81974 104.076 2.20543 102.521 2.56728 101.466Z" fill="#101055"/>
<path d="M1.98683 69.7327C2.22152 69.731 2.39621 69.7237 2.62237 69.7977C2.80121 69.8561 2.85221 69.9292 2.92583 70.1053C3.25398 70.8909 2.56652 73.2214 2.21483 74.0123C2.09229 74.0137 1.90306 74.0305 1.77914 74.002C1.5366 73.9463 1.37067 73.8608 1.27444 73.6183C0.898519 72.6711 1.65221 70.6695 1.98683 69.7327Z" fill="#101055"/>
<path d="M8.87104 116.362C9.05658 116.377 9.2795 116.379 9.44427 116.478C10.116 116.879 11.3973 118.918 11.4833 119.716C11.5173 120.031 11.2754 120.265 11.0869 120.489C11.038 120.473 10.9856 120.466 10.9399 120.442C10.236 120.08 8.84796 118.048 8.64004 117.234C8.55073 116.885 8.70443 116.654 8.87104 116.362Z" fill="#101055"/>
<path d="M5.3836 109.009L5.90122 109.15C6.53098 109.712 7.50437 111.709 7.55098 112.594C7.57014 112.956 7.39313 113.092 7.18729 113.36C7.03313 113.307 6.87783 113.259 6.73914 113.17C6.02675 112.716 5.23729 110.65 5.0806 109.826C5.01091 109.459 5.18906 109.292 5.3836 109.009Z" fill="#101055"/>
<path d="M29.1821 32.0593C29.5271 32.0853 29.6497 32.1687 29.8837 32.4027L29.8818 32.7222C29.4417 33.6465 27.5324 34.69 26.7129 35.3205C26.4828 35.2361 26.3132 35.1366 26.1127 34.9964C26.0427 34.8176 25.9629 34.7266 26.0183 34.5307C26.2807 33.6005 28.3606 32.5726 29.1821 32.0593Z" fill="#101055"/>
<path d="M101.914 0.517578C102.181 0.551137 102.434 0.587226 102.681 0.705142C103.153 0.930859 103.545 1.36758 103.709 1.86269C103.848 2.28079 103.827 2.74441 103.607 3.13149C103.305 3.66176 102.82 3.87598 102.25 4.00585C101.863 3.97942 101.481 3.95988 101.128 3.78289C100.676 3.5558 100.317 3.15378 100.191 2.66074C100.083 2.23919 100.166 1.8112 100.402 1.44734C100.755 0.903274 101.308 0.668822 101.914 0.517578Z" fill="#9F7ED1"/>
<path d="M89.4832 16.8452C89.7915 16.8648 90.1291 16.8937 90.4118 17.027C90.9329 17.2732 91.3206 17.7773 91.4667 18.3275C91.5973 18.8208 91.5405 19.3727 91.2657 19.8083C90.9465 20.3146 90.5042 20.5302 89.9348 20.6541C89.5328 20.5744 89.0429 20.5146 88.6813 20.3183C88.1953 20.0544 87.7878 19.4959 87.659 18.9638C87.5494 18.5107 87.6191 18.0602 87.8909 17.6771C88.2747 17.136 88.8618 16.9636 89.4832 16.8452Z" fill="#9F7ED1"/>
<path d="M147.844 17.4045C148.196 17.4425 148.572 17.4666 148.898 17.6137C149.373 17.8282 149.761 18.2364 149.936 18.7273C150.107 19.2073 150.056 19.7238 149.829 20.177C149.507 20.8227 149.016 21.0312 148.364 21.2649C147.978 21.2374 147.545 21.219 147.195 21.0445C146.717 20.8066 146.328 20.3506 146.176 19.8396C146.158 19.7792 146.143 19.718 146.131 19.656C146.119 19.5937 146.11 19.5312 146.105 19.4682C146.1 19.4053 146.098 19.3423 146.099 19.279C146.101 19.2159 146.105 19.153 146.114 19.0903C146.122 19.0276 146.133 18.9656 146.148 18.9041C146.163 18.8427 146.181 18.7821 146.202 18.7225C146.223 18.6631 146.248 18.6048 146.275 18.5478C146.303 18.491 146.333 18.4357 146.367 18.3819C146.717 17.8091 147.22 17.5797 147.844 17.4045Z" fill="#9F7ED1"/>
<path d="M143.558 49.25C143.816 49.2677 144.09 49.2843 144.338 49.3624C144.889 49.5359 145.443 49.9821 145.67 50.5174C145.882 51.0174 145.861 51.5623 145.637 52.0542C145.316 52.7583 144.78 53.0279 144.082 53.2743C143.564 53.2649 143.038 53.2497 142.588 52.9628C142.126 52.6691 141.788 52.1611 141.688 51.626C141.676 51.5616 141.667 51.4968 141.661 51.4313C141.655 51.366 141.652 51.3006 141.653 51.235C141.654 51.1694 141.658 51.104 141.665 51.0387C141.672 50.9736 141.683 50.9089 141.697 50.8447C141.711 50.7807 141.728 50.7175 141.748 50.6551C141.768 50.5926 141.792 50.5313 141.818 50.4712C141.845 50.4112 141.874 50.3526 141.907 50.2956C141.939 50.2385 141.974 50.1831 142.012 50.1297C142.4 49.5736 142.915 49.3744 143.558 49.25Z" fill="#9F7ED1"/>
<path d="M137.838 3.50537C138.271 3.51411 138.69 3.55249 139.084 3.74902C139.61 4.01128 140.018 4.48018 140.169 5.04953C140.307 5.56786 140.242 6.11514 139.966 6.57784C139.6 7.18994 139.065 7.4175 138.404 7.60713C137.9 7.61563 137.447 7.62988 136.995 7.37704C136.937 7.34394 136.881 7.30809 136.827 7.26947C136.772 7.23085 136.72 7.18963 136.67 7.14581C136.62 7.10198 136.572 7.05578 136.526 7.00721C136.48 6.95863 136.437 6.90783 136.397 6.85481C136.356 6.80195 136.319 6.74724 136.284 6.6907C136.249 6.634 136.217 6.57569 136.187 6.51578C136.158 6.45601 136.132 6.39488 136.109 6.33235C136.086 6.26983 136.066 6.20639 136.05 6.14203C136.031 6.07063 136.016 5.99853 136.005 5.92574C135.993 5.8528 135.986 5.77955 135.982 5.706C135.979 5.63229 135.979 5.55866 135.982 5.48511C135.986 5.4114 135.994 5.33815 136.006 5.26537C136.017 5.19243 136.032 5.12033 136.051 5.04908C136.07 4.97782 136.092 4.90772 136.119 4.83876C136.145 4.76965 136.174 4.70215 136.207 4.63626C136.24 4.57021 136.277 4.50608 136.316 4.44387C136.69 3.85935 137.184 3.65524 137.838 3.50537Z" fill="#9F7ED1"/>
<path d="M136.051 55.898C136.455 55.8527 136.831 55.8155 137.226 55.9392C137.298 55.9609 137.369 55.9863 137.438 56.0152C137.507 56.0441 137.575 56.0763 137.641 56.112C137.707 56.1477 137.771 56.1866 137.833 56.2285C137.895 56.2707 137.954 56.3157 138.012 56.3637C138.069 56.4118 138.124 56.4627 138.177 56.5163C138.229 56.5698 138.278 56.6258 138.325 56.6843C138.372 56.7429 138.415 56.8036 138.456 56.8666C138.496 56.9294 138.534 56.9942 138.568 57.0608C138.603 57.1304 138.634 57.2015 138.661 57.2742C138.689 57.3468 138.713 57.4206 138.733 57.4957C138.753 57.5708 138.769 57.6467 138.781 57.7233C138.794 57.8001 138.802 57.8772 138.806 57.9548C138.811 58.0323 138.811 58.1099 138.808 58.1876C138.804 58.2651 138.797 58.3424 138.785 58.4193C138.774 58.4961 138.759 58.5721 138.739 58.6473C138.72 58.7227 138.697 58.7969 138.671 58.8698C138.402 59.6173 137.866 59.9048 137.187 60.2469C136.839 60.2639 136.481 60.2901 136.138 60.2191C135.547 60.0972 134.99 59.7626 134.667 59.2468C134.354 58.7484 134.299 58.1292 134.47 57.5716C134.728 56.7354 135.306 56.2904 136.051 55.898Z" fill="#9F7ED1"/>
<path d="M94.2671 1.73604C94.6788 1.71306 95.0037 1.70777 95.3683 1.94195C96.1313 2.43168 96.158 3.74622 96.2633 4.54206C96.8416 4.60733 97.571 4.65651 98.0912 4.92194C98.4814 5.12119 98.7353 5.3926 98.8659 5.81064C98.8232 6.09606 98.823 6.21993 98.6273 6.44561C98.0573 7.10242 97.017 7.05393 96.2238 7.09208C96.1056 8.20966 96.002 8.89175 95.1115 9.66829C95.0757 9.67265 95.0402 9.67932 95.0042 9.68161C94.6213 9.70529 94.2551 9.61106 93.968 9.35091C93.4333 8.86601 93.4292 8.02121 93.3791 7.35682C92.8931 7.28144 92.3861 7.21916 91.9181 7.06542C91.4201 6.90179 90.8404 6.55247 90.6443 6.03953C90.5423 5.77272 90.567 5.519 90.7273 5.28091C91.2341 4.52827 92.3125 4.52988 93.1186 4.43566C93.2635 3.26131 93.302 2.53211 94.2671 1.73604Z" fill="#9F7ED1"/>
<path d="M54.9697 30.1006C55.2817 28.2564 55.8196 26.5137 56.8532 24.9354C58.1432 22.9656 60.099 21.1501 62.4814 20.6877C64.4626 20.3032 66.432 20.7785 68.0831 21.9112C70.7185 23.7196 72.0932 26.7153 72.6397 29.7674C72.6523 29.9971 72.6594 30.227 72.6609 30.4571C72.6624 30.6872 72.6583 30.9172 72.6484 31.147C72.6388 31.377 72.6234 31.6065 72.6023 31.8355C72.5814 32.0646 72.5548 32.2931 72.5227 32.521C72.4905 32.7489 72.4528 32.9758 72.4096 33.2018C72.3664 33.4277 72.3176 33.6526 72.2633 33.8763C72.2091 34.0999 72.1495 34.3221 72.0845 34.5427C72.0194 34.7635 71.9489 34.9826 71.8731 35.2C71.7974 35.4174 71.7164 35.6328 71.6301 35.8462C71.5437 36.0596 71.4523 36.2708 71.3557 36.4798C71.2591 36.6888 71.1574 36.8953 71.0506 37.0994C70.944 37.3035 70.8324 37.5048 70.7158 37.7033C70.5991 37.9021 70.4778 38.0978 70.3518 38.2905C70.2257 38.4833 70.0949 38.6728 69.9595 38.8593C69.8241 39.0458 69.6843 39.2288 69.54 39.4086C69.3957 39.5881 69.2471 39.7642 69.0941 39.9367C67.6835 41.5295 66.0778 42.1799 64.1963 43.0759L64.0666 43.1412C64.0673 42.7707 64.1455 42.5729 63.8919 42.2902C63.396 42.0868 63.0085 41.9753 62.4918 42.1863C62.4817 42.5863 62.4788 42.9864 62.4833 43.3866C60.4763 41.8485 58.0594 40.0621 56.958 37.7247C55.3558 35.3944 54.8028 32.8793 54.9697 30.1006Z" fill="#F2D261"/>
<path d="M69.1092 80.806C68.0661 78.446 68.6816 75.2514 69.5876 72.948C71.0848 69.1418 74.4333 65.2903 78.2324 63.6504C80.9467 62.4788 84.202 62.1667 86.9938 63.2677C88.795 63.9783 90.4039 65.2883 91.1532 67.1052C91.9304 68.9899 91.5748 71.1554 90.7803 72.9732C89.2461 76.4832 85.8086 79.1072 82.2873 80.4415C78.8239 81.7537 74.572 82.0493 71.0329 80.8177C71.9329 79.8738 74.5057 77.7607 74.6735 76.571C74.5396 76.2639 74.5362 76.2846 74.2265 76.1463C74.1166 76.1603 74.0022 76.1539 73.8967 76.1883C73.5891 76.2888 69.7512 80.1917 69.1092 80.806Z" fill="#F2D261"/>
<path d="M69.6362 97.0067C70.446 94.4578 72.401 91.8763 74.3411 90.067C77.3469 87.2642 81.0835 85.5703 85.2643 85.7507C88.0617 85.8715 90.536 87.1615 92.4205 89.1825C93.3805 90.8495 93.5388 92.583 93.051 94.4309C92.2878 97.3222 89.8585 99.7325 87.3249 101.191C84.1765 103.004 80.6547 103.567 77.0674 103.697C75.5166 103.752 73.7194 103.973 72.2014 103.663C73.0285 102.737 75.0971 100.817 75.4165 99.7383C75.4716 99.5519 75.3883 99.5085 75.2967 99.3552C75.1386 99.2628 75.0454 99.1591 74.8536 99.1819C74.1731 99.2623 71.4177 102.515 70.7628 103.22L70.2318 103.812C69.8672 103.41 69.5183 102.967 69.2822 102.476C68.4486 100.741 69.023 98.7082 69.6362 97.0067Z" fill="#F2D261"/>
<path d="M67.9562 58.5897C67.8053 58.4858 67.6915 58.4173 67.5884 58.2569C66.6162 56.7434 67.2849 52.8471 67.7082 51.2173C68.7628 47.1558 70.8559 43.6789 74.5659 41.5285C77.4282 39.8695 81.4934 39.1435 84.7223 40.0099C86.4342 40.4693 87.9528 41.4897 88.8187 43.0596C89.8216 44.8774 89.8516 47.0937 89.2585 49.0464C88.1799 52.5968 85.4481 55.1912 82.2215 56.8691C78.5019 58.8032 74.2179 59.505 70.1622 58.2293C70.8928 57.4137 72.7985 55.5904 73.2457 54.7433C73.1728 54.4402 73.1672 54.343 72.9563 54.1193C72.5047 54.0846 72.2467 54.2407 71.9047 54.5264C70.4931 55.706 69.228 57.254 67.9562 58.5897Z" fill="#F2D261"/>
<path d="M54.9883 104.148C54.8258 104.255 54.6841 104.343 54.5041 104.419C51.041 105.885 45.2927 105.208 41.9189 103.666C38.9041 102.289 36.0483 99.9156 34.9037 96.7256C34.8583 96.601 34.816 96.4755 34.7768 96.3489C34.7376 96.2222 34.7015 96.0947 34.6686 95.9663C34.6357 95.8379 34.606 95.7087 34.5795 95.5788C34.553 95.449 34.5297 95.3186 34.5096 95.1874C34.4896 95.0564 34.4728 94.9251 34.4593 94.7933C34.4459 94.6614 34.4357 94.5293 34.4286 94.3971C34.4217 94.2647 34.418 94.1323 34.4175 93.9998C34.4172 93.8672 34.4201 93.7348 34.4263 93.6024C34.4324 93.47 34.4419 93.3379 34.4547 93.206C34.4673 93.0741 34.4833 92.9425 34.5027 92.8114C34.5219 92.6802 34.5444 92.5497 34.57 92.4198C34.5957 92.2897 34.6247 92.1604 34.6568 92.0319C34.689 91.9032 34.7243 91.7754 34.7627 91.6485C34.8012 91.5217 34.8427 91.3959 34.8874 91.2712C34.9321 91.1463 34.9799 91.0226 35.0307 90.9C35.0816 90.7776 35.1354 90.6565 35.1922 90.5367C35.2523 90.412 35.3155 90.2889 35.3817 90.1674C35.4478 90.0457 35.517 89.9259 35.5893 89.8077C35.6615 89.6896 35.7365 89.5733 35.8144 89.4589C35.8924 89.3444 35.9731 89.232 36.0567 89.1215C36.1402 89.011 36.2264 88.9027 36.3153 88.7965C36.4041 88.6902 36.4956 88.5862 36.5897 88.4845C36.6837 88.3827 36.7803 88.2834 36.8793 88.1864C36.9784 88.0896 37.0798 87.9951 37.1835 87.903C37.2872 87.8111 37.3931 87.7218 37.5013 87.6351C37.6093 87.5484 37.7195 87.4643 37.832 87.383C37.9441 87.3016 38.0584 87.2231 38.1747 87.1474C38.2908 87.0717 38.4088 86.9989 38.5287 86.9291C38.6485 86.8591 38.77 86.7921 38.893 86.7282C39.0163 86.6643 39.141 86.6035 39.2671 86.5457C39.3933 86.488 39.5208 86.4334 39.6497 86.3819C39.7787 86.3304 39.9087 86.2822 40.04 86.2371C43.0467 85.2133 46.2627 85.8002 49.0443 87.186C52.225 88.7703 56.408 93.0637 57.5461 96.4202C58.2661 98.0799 59.0175 100.659 58.3626 102.431C58.1355 103.045 57.7303 103.58 57.1116 103.836C57.0135 103.876 56.9127 103.909 56.8123 103.943L56.3491 103.503C55.6859 102.812 52.444 99.1793 51.8588 99.2607C51.7667 99.2735 51.6045 99.3478 51.5159 99.3852C51.3843 99.6596 51.3652 99.7803 51.4711 100.074C51.8874 101.231 54.1134 103.099 54.9883 104.148Z" fill="#F2D261"/>
<path d="M56.1268 58.4693C50.5131 59.4485 44.086 58.7554 39.2018 55.6858C36.9944 54.2988 35.2764 52.4389 34.714 49.8404C34.2411 47.6561 34.7523 45.2899 35.9721 43.4259C37.2243 41.5122 39.0988 40.2317 41.3465 39.784C45.1074 39.0355 48.9781 40.2358 52.093 42.332C55.306 44.4943 57.9656 48.7307 58.6556 52.5221C59.011 54.4746 58.9519 56.6397 57.7946 58.3176C56.8392 57.3269 53.2485 53.2306 52.1991 52.9664C51.9003 53.0571 51.919 53.0525 51.763 53.3237C51.7371 53.9741 51.9898 54.2104 52.4165 54.667C53.6253 55.9604 54.9038 57.1894 56.1268 58.4693Z" fill="#F2D261"/>
<path d="M54.974 80.5616L54.8339 80.6388C51.8535 82.2427 46.6102 81.4018 43.5352 80.4594C40.1445 79.4199 36.7379 77.4194 35.018 74.2082C33.9484 72.2109 33.7584 69.7057 34.4457 67.5526C34.4864 67.4254 34.5304 67.2992 34.5777 67.1741C34.6247 67.0491 34.6749 66.9253 34.7281 66.8027C34.7815 66.6801 34.8379 66.5589 34.8973 66.4391C34.9567 66.3195 35.019 66.2013 35.0842 66.0845C35.1494 65.9678 35.2176 65.8528 35.2887 65.7396C35.3596 65.6262 35.4334 65.5147 35.51 65.4052C35.5866 65.2955 35.6658 65.1878 35.7477 65.0821C35.8297 64.9764 35.9143 64.8727 36.0015 64.7711C36.0886 64.6696 36.1782 64.5703 36.2704 64.4733C36.3624 64.3762 36.4568 64.2814 36.5537 64.189C36.6505 64.0966 36.7496 64.0067 36.851 63.9192C36.9524 63.8316 37.0558 63.7466 37.1614 63.6644C37.2669 63.5819 37.3744 63.5022 37.484 63.4251C37.5935 63.3481 37.705 63.2738 37.8184 63.2024C37.9316 63.1309 38.0465 63.0622 38.1631 62.9963C38.2799 62.9304 38.3982 62.8675 38.518 62.8076C40.984 61.5866 44.0867 61.7038 46.646 62.5686C51.0133 64.0442 54.9387 67.6486 56.9413 71.7559C57.992 73.9104 59.1534 77.2342 58.2645 79.6141C58.0753 80.1204 57.7174 80.6814 57.3188 81.0491C56.5857 80.2408 55.7683 79.4937 55.0109 78.7061C54.2256 77.8894 53.4936 76.9246 52.5959 76.2333C52.283 75.9925 52.003 75.8642 51.6267 75.7528L51.332 75.9679C51.331 76.0026 51.3267 76.0373 51.3292 76.0718C51.4217 77.2935 54.0977 79.6649 54.974 80.5616Z" fill="#F2D261"/>
<path d="M9.26636 98.8363L9.42467 98.697C10.4664 99.1617 11.5874 100.333 12.4837 101.061C14.3818 102.603 16.2324 104.168 18.2807 105.514C28.5088 112.234 38.782 115.691 51.0575 115.775C54.1729 115.796 57.1514 115.693 60.2251 115.133C60.1769 119.487 60.1561 123.842 60.1627 128.196L38.0218 128.173C34.444 128.172 30.2377 128.362 26.7397 128.152C26.6724 127.691 22.8847 124.115 22.1564 123.311C20.8325 121.849 19.5647 120.289 18.4535 118.661C14.2228 112.46 11.3668 106.032 9.26636 98.8363Z" fill="#8FE2E4"/>
<path d="M92.4205 89.1826C92.5011 88.9643 92.5994 88.7685 92.7124 88.5647C95.3208 83.8546 104.49 78.3929 109.55 76.3563C112.152 75.3093 114.903 74.6352 117.605 73.8943C118.166 76.6982 118.701 79.5038 118.895 82.3613C119.731 94.6271 116.058 106.921 109.232 117.094C108.305 118.447 107.325 119.762 106.293 121.038C105.26 122.314 104.177 123.546 103.046 124.736C102.02 125.811 100.648 126.871 99.771 128.049C88.5751 128.015 77.3796 128.054 66.1844 128.165C66.0526 123.13 66.1507 118.066 66.122 113.027L66.1179 109.961C68.0933 107.813 70.2011 105.79 72.2014 103.663C73.7194 103.973 75.5167 103.753 77.0674 103.697C80.6547 103.567 84.1765 103.004 87.3249 101.192C89.8585 99.7327 92.2878 97.3224 93.051 94.4311C93.5388 92.5832 93.3805 90.8497 92.4205 89.1826Z" fill="#8FE2E4"/>
<path d="M72.2015 103.663C73.7195 103.973 75.5167 103.752 77.0675 103.697C75.9681 106.759 70.2658 111.321 67.2941 112.708C66.8896 112.897 66.5716 113.028 66.1221 113.027L66.1179 109.961C68.0933 107.813 70.2012 105.79 72.2015 103.663Z" fill="#FEFEFE"/>
<path d="M62.4834 43.3868C62.4789 42.9866 62.4818 42.5865 62.4919 42.1865C63.0086 41.9755 63.3961 42.087 63.892 42.2904C64.1456 42.573 64.0674 42.7709 64.0667 43.1414C64.1502 46.4619 64.3819 49.7864 64.5723 53.1029C64.7331 55.9054 64.8294 58.7457 65.1644 61.5329C66.1106 60.5666 67.0412 59.5856 67.9563 58.5899C69.2281 57.2542 70.4931 55.7062 71.9047 54.5266C72.2467 54.2409 72.5048 54.0848 72.9564 54.1195C73.1673 54.3432 73.1728 54.4404 73.2458 54.7435C72.7985 55.5906 70.8928 57.4139 70.1622 58.2295C68.4485 59.8948 66.7438 61.702 65.3177 63.6198C65.3821 67.5984 65.5939 71.5801 65.7049 75.5586C65.7857 78.4488 65.7312 81.3998 65.9322 84.278C66.9797 83.1119 68.0207 81.9344 69.1092 80.806C69.7512 80.1917 73.5891 76.2888 73.8968 76.1883C74.0022 76.1539 74.1167 76.1603 74.2265 76.1463C74.5362 76.2846 74.5397 76.2639 74.6735 76.571C74.5058 77.7607 71.9329 79.8738 71.0329 80.8177C69.331 82.5015 67.7414 84.3044 66.0328 85.9745L66.1261 108.044C67.4209 106.543 68.8796 105.249 70.2319 103.812L70.7629 103.221C71.4178 102.515 74.1732 99.2625 74.8538 99.1821C75.0455 99.1594 75.1388 99.263 75.2968 99.3554C75.3885 99.5087 75.4718 99.5521 75.4166 99.7385C75.0972 100.818 73.0286 102.737 72.2015 103.663C70.2012 105.79 68.0934 107.813 66.118 109.961L66.1221 113.027C66.1508 118.066 66.0527 123.13 66.1844 128.166C77.3797 128.054 88.5752 128.015 99.7711 128.049C102.801 128.117 105.837 128.063 108.868 128.045C111.126 125.396 113.442 122.686 115.375 119.788C121.498 110.605 124.947 99.4331 125.614 88.4693C125.676 87.4515 125.678 82.9763 125.728 82.9212C125.776 82.8667 125.851 82.8435 125.912 82.8047C126.253 82.8244 126.373 82.8072 126.663 82.9972C126.908 83.4909 126.751 84.5439 126.76 85.1304C126.85 91.7699 125.48 99.38 123.338 105.65C117.532 122.645 106.269 134.601 90.1494 142.479C89.5634 142.765 88.9755 143.047 88.3858 143.325C85.8121 144.449 83.1926 145.278 80.4997 146.067C77.7508 147.395 71.8175 147.922 68.7243 148.289C67.6182 148.451 66.4411 148.443 65.3216 148.495C59.8916 148.751 55.3865 148.3 50.0488 147.281C49.1288 147.091 48.2138 146.88 47.3036 146.648C46.3934 146.416 45.4891 146.163 44.5904 145.89C43.692 145.617 42.8002 145.323 41.9151 145.009C41.0302 144.694 40.153 144.36 39.2834 144.006C38.4139 143.651 37.553 143.277 36.7007 142.883C35.8484 142.49 35.0055 142.077 34.1721 141.645C33.3389 141.212 32.5161 140.761 31.7036 140.291C30.8913 139.821 30.0901 139.333 29.3001 138.826C23.9341 135.43 18.9476 131.018 14.7928 126.225C14.3814 125.75 13.3071 124.701 13.2381 124.063C13.2077 123.781 13.3134 123.616 13.4742 123.4L13.7308 123.389C14.9112 123.946 17.0103 126.932 18.1676 128.052C21.0093 128.221 23.8932 128.145 26.7398 128.152C30.2378 128.362 34.444 128.172 38.0218 128.173L60.1628 128.197C60.1561 123.842 60.1769 119.487 60.2251 115.133L60.2634 109.534C58.5264 107.718 56.7174 105.974 54.9882 104.148C54.1134 103.099 51.8874 101.231 51.4711 100.074C51.3651 99.7803 51.3843 99.6597 51.5158 99.3853C51.6044 99.3478 51.7667 99.2736 51.8588 99.2607C52.444 99.1793 55.6858 102.812 56.3491 103.503L56.8122 103.943C57.9811 105.114 59.1588 106.277 60.3453 107.431C60.2336 100.313 60.4362 93.1842 60.457 86.065C58.6402 84.2198 56.8126 82.3853 54.9741 80.5617C54.0979 79.6649 51.4219 77.2935 51.3294 76.0718C51.3268 76.0373 51.3312 76.0026 51.3321 75.9679L51.6268 75.7528C52.0032 75.8643 52.2831 75.9925 52.5961 76.2334C53.4938 76.9246 54.2258 77.8894 55.0111 78.7062C55.7684 79.4937 56.5858 80.2409 57.319 81.0491C58.3634 82.1366 59.4543 83.1586 60.5678 84.1755C60.6211 77.2917 60.7678 70.4097 61.0076 63.5297C59.3606 61.8629 57.7736 60.1377 56.1268 58.4695C54.9038 57.1896 53.6253 55.9606 52.4165 54.6672C51.9898 54.2106 51.7371 53.9743 51.763 53.3239C51.919 53.0528 51.9003 53.0573 52.1991 52.9666C53.2485 53.2309 56.8392 57.3271 57.7946 58.3178L61.0988 61.7043C61.4322 55.5952 62.2731 49.4952 62.4834 43.3868Z" fill="#101055"/>
<path d="M80.4998 146.067C80.8044 144.969 81.0808 143.827 81.5957 142.805C83.0115 139.994 85.801 139.024 88.5981 138.079C88.9088 139.95 88.7915 141.48 88.3858 143.325C85.8121 144.449 83.1926 145.278 80.4998 146.067Z" fill="#4CC0B2"/>
<path d="M39.7396 132.249C41.8276 132.866 44.1671 133.576 45.4839 135.442C46.7677 137.261 46.4993 139.181 46.1 141.217C46.0583 141.224 46.017 141.239 45.9745 141.238C44.3838 141.222 41.7842 139.909 40.8175 138.698C39.2677 136.758 39.474 134.54 39.7396 132.249Z" fill="#4CC0B2"/>
<path d="M74.6202 131.393C76.6752 131.277 78.3333 131.623 80.2637 132.315C78.91 134.451 77.8334 136.38 75.2733 137.216C73.3895 137.741 71.4552 137.13 69.717 136.423C69.8693 136.015 70.0655 135.616 70.2709 135.231C71.2574 133.381 72.562 132.002 74.6202 131.393Z" fill="#4CC0B2"/>
<path d="M59.6648 134.516C62.4254 138.298 67.2808 144.055 68.7243 148.289C67.6182 148.451 66.4411 148.443 65.3216 148.495C59.8916 148.751 55.3865 148.3 50.0488 147.281C51.9151 144.844 53.7584 142.375 55.5702 139.898C56.8948 138.087 58.1721 136.194 59.6648 134.516Z" fill="#4CC0B2"/>
<path d="M90.9627 34.6659C90.6876 27.52 92.7745 20.7759 97.7 15.4415C97.8555 15.2733 98.0131 15.107 98.1726 14.9428C98.3323 14.7786 98.494 14.6163 98.6577 14.4561C98.8212 14.2956 98.9868 14.1373 99.1543 13.981C99.3218 13.8249 99.4913 13.6708 99.6627 13.5187C99.8341 13.3665 100.007 13.2165 100.182 13.0687C100.358 12.9208 100.535 12.7752 100.713 12.6318C100.892 12.4882 101.072 12.3469 101.255 12.2078C101.437 12.0688 101.621 11.9321 101.806 11.7976C101.992 11.6629 102.179 11.5306 102.368 11.4007C102.557 11.2708 102.747 11.1431 102.939 11.0178C103.131 10.8926 103.325 10.7698 103.52 10.6492C103.715 10.5286 103.911 10.4105 104.109 10.2948C104.307 10.1792 104.507 10.0659 104.707 9.95516C104.908 9.84439 105.11 9.73607 105.314 9.6302C105.517 9.52434 105.722 9.421 105.928 9.32019C106.134 9.21937 106.341 9.12109 106.55 9.02533C106.758 8.92958 106.968 8.83643 107.178 8.74588C107.389 8.65533 107.601 8.56731 107.814 8.48182C108.027 8.39649 108.241 8.31375 108.456 8.23362C108.671 8.1535 108.887 8.07605 109.104 8.00129C109.321 7.92637 109.538 7.8542 109.757 7.7848C109.976 7.71524 110.195 7.64844 110.416 7.5844C110.636 7.52036 110.857 7.459 111.079 7.40032C111.301 7.34164 111.523 7.28572 111.747 7.23256C111.97 7.17924 112.194 7.12876 112.418 7.08111C112.643 7.03346 112.868 6.9885 113.093 6.94621C113.319 6.90408 113.545 6.8647 113.772 6.82808C113.998 6.79147 114.225 6.75761 114.453 6.72651C114.68 6.69556 114.908 6.66729 115.136 6.64171C115.364 6.61627 115.593 6.59367 115.821 6.57391C116.05 6.55399 116.279 6.53691 116.508 6.52266C116.737 6.50841 116.966 6.497 117.196 6.48842C123.189 6.25631 131.169 7.59429 135.77 11.6624C135.806 11.6935 135.839 11.7263 135.873 11.7585C137.363 11.7514 141.306 11.3731 142.334 12.391C143.584 13.6264 143.072 17.6518 143.138 19.418C143.194 20.9065 144.07 21.7823 144.631 23.0773C146.135 26.5525 146.838 29.8945 146.71 33.6889C146.484 40.3717 143.304 46.4886 138.41 50.9891C132.531 56.3943 124.706 58.9117 116.772 58.5761C114.706 58.4888 112.743 58.1526 110.739 57.65C107.95 56.8916 105.32 55.8786 102.842 54.3804C101.904 55.2048 100.816 55.8912 99.7947 56.608C98.0302 57.8582 96.2509 59.0871 94.4568 60.2947C93.2108 61.1427 91.9292 62.2509 90.5798 62.9058C90.2538 62.8594 90.233 62.7951 89.9948 62.56C89.8873 62.3044 89.9205 62.1323 89.9891 61.8747C90.2722 60.8067 90.6832 59.7581 91.0072 58.6998C92.2621 54.6036 93.6592 50.3769 94.4637 46.1701C93.2365 43.5622 92.0348 40.9977 91.4462 38.1561C91.2092 37.013 91.1173 35.823 90.9627 34.6659Z" fill="#101055"/>
<path d="M143.211 25.1792C143.231 25.2123 143.252 25.244 143.27 25.278C143.654 26.0157 143.863 27.017 144.047 27.8287C144.945 31.7951 144.623 35.4305 143.587 39.3201C143.442 39.7604 143.258 40.1909 143.087 40.6222C143.421 35.5178 143.149 30.2997 143.211 25.1792Z" fill="#FEFEFE"/>
<path d="M116.772 8.61015C121.829 8.12263 127.636 9.27604 132.115 11.6925C128.504 11.6573 124.888 11.7067 121.276 11.6973C116.099 11.6518 110.922 11.6723 105.746 11.7587C109.356 10.0242 112.749 8.90804 116.772 8.61015Z" fill="#FEFEFE"/>
<path d="M104.962 46.4056L139.877 46.3408C133.804 53.1681 128.899 55.8002 119.713 56.5645C113.512 56.722 108.726 55.256 103.324 52.3364C102.037 53.013 100.84 53.9573 99.6531 54.7991C97.1652 56.5638 94.7319 58.4072 92.1746 60.0729C92.6368 58.187 93.2733 56.3283 93.825 54.4661C94.604 51.7865 95.3673 49.1024 96.1149 46.4139L104.962 46.4056Z" fill="#FEFEFE"/>
<path d="M103.3 13.2361C104.011 13.2253 106.514 13.029 107.033 13.2616C106.948 13.4172 106.924 13.4824 106.895 13.6642C106.975 13.6913 107.048 13.7224 107.136 13.7178C107.497 13.6982 107.572 13.5941 107.794 13.3452C107.932 13.2774 108.052 13.2352 108.208 13.2294C110.251 13.1536 112.329 13.2345 114.376 13.2384L126.006 13.2319L135.536 13.22C137.498 13.2177 139.481 13.1425 141.438 13.2853C141.561 14.68 141.486 16.1375 141.481 17.538L141.464 24.8791C141.465 31.5145 141.618 38.1697 141.459 44.8024C139.69 45.0689 137.64 44.878 135.842 44.872L124.966 44.8582L122.655 44.8681L114.456 44.9506L111.919 44.9563C107.535 44.8819 103.122 45.0843 98.743 44.881L96.2805 44.8559C93.2689 40.2488 92.3279 34.1781 93.2839 28.7961C93.3192 28.6017 93.3568 28.4077 93.397 28.2142C93.437 28.0208 93.4794 27.8279 93.5242 27.6355C93.5689 27.4431 93.6161 27.2512 93.6656 27.0598C93.7152 26.8686 93.767 26.678 93.8212 26.4878C93.8753 26.2978 93.9318 26.1086 93.9905 25.92C94.0495 25.7312 94.1106 25.5433 94.174 25.3562C94.2374 25.169 94.3031 24.9826 94.3711 24.7971C94.4391 24.6115 94.5094 24.4269 94.582 24.243C94.6546 24.0592 94.7294 23.8762 94.8063 23.6942C94.8834 23.512 94.9627 23.331 95.0442 23.1509C95.1256 22.9708 95.2093 22.7917 95.2953 22.6136C95.3812 22.4356 95.4692 22.2586 95.5593 22.0828C95.6496 21.9069 95.742 21.7321 95.8365 21.5583C95.9311 21.3847 96.0278 21.2122 96.1265 21.0408C96.2253 20.8695 96.3262 20.6994 96.4291 20.5306C96.532 20.3618 96.637 20.1941 96.7441 20.0278C96.851 19.8615 96.9601 19.6966 97.0713 19.533C97.1824 19.3693 97.2955 19.2071 97.4105 19.0462C97.5256 18.8854 97.6426 18.7259 97.7615 18.5678C97.8806 18.4096 98.0016 18.2531 98.1243 18.098C98.2472 17.943 98.372 17.7894 98.4986 17.6372C98.6252 17.4853 98.7537 17.3348 98.884 17.1859C99.0143 17.037 99.1464 16.8897 99.2802 16.744C99.4142 16.5983 99.55 16.4542 99.6876 16.3117C99.8249 16.1692 99.9641 16.0285 100.105 15.8895C100.246 15.7505 100.389 15.6133 100.533 15.4777C100.677 15.3421 100.823 15.2083 100.971 15.0764C101.118 14.9444 101.267 14.8141 101.418 14.6857C101.569 14.5575 101.721 14.431 101.875 14.3063C102.029 14.1816 102.184 14.0588 102.341 13.9379C102.498 13.8172 102.656 13.6983 102.816 13.5813C102.976 13.4642 103.137 13.3491 103.3 13.2361Z" fill="#FEFEFE"/>
<path d="M103.845 34.5389C106.532 34.5307 109.232 34.4723 111.918 34.5405C111.915 38.0004 111.8 41.4998 111.919 44.9564C107.535 44.8819 103.122 45.0844 98.7429 44.881C100.447 44.8479 102.151 44.8424 103.855 44.8645C103.88 41.4226 103.877 37.9808 103.845 34.5389Z" fill="#42B7CB"/>
<path d="M114.375 28.3059C117.134 28.2965 119.893 28.308 122.653 28.3403C122.622 33.8496 122.623 39.3588 122.655 44.8681L114.456 44.9506C114.655 39.4181 114.371 33.8448 114.375 28.3059Z" fill="#8D79C6"/>
<path d="M124.855 20.3342L133.124 20.3554L133.158 44.7636C135.916 44.8294 138.706 44.6446 141.459 44.8023C139.69 45.0688 137.64 44.8779 135.842 44.8719L124.966 44.8581C124.972 36.6833 124.936 28.5087 124.855 20.3342Z" fill="#8D79C6"/>
</g>
<defs>
<clipPath id="clip0_47_230">
<rect width="150" height="148" fill="white" transform="translate(0 0.5)"/>
</clipPath>
</defs>
</svg>
