<svg width="150" height="151" viewBox="0 0 150 151" fill="none" xmlns="http://www.w3.org/2000/svg">
<g clip-path="url(#clip0_47_1840)">
<path d="M0 0.5H150V66.6531V68.2848V150.5H129.04H95.5371H72.6494H54.8704H44.1771H22.3509H15.6089H0V126.596V124.969V0.5Z" fill="#101055"/>
<path d="M15.6253 150.434L22.3661 150.422L22.3508 150.5H15.6089L15.6253 150.434Z" fill="#4B4F6C"/>
<path d="M44.1907 150.443L54.8863 150.419L54.8706 150.5H44.1772L44.1907 150.443Z" fill="#4B4F6C"/>
<path d="M78.5638 97.8049C79.7593 98.6156 80.7976 99.7886 81.8558 100.774L89.6258 107.929C91.0007 109.193 92.688 110.921 94.1775 111.975C94.5848 112.263 94.9727 112.406 95.4444 112.549C95.4482 113.934 95.4262 115.324 95.4835 116.708C95.5705 121.466 95.5119 126.233 95.5096 130.993C94.3384 131.53 93.0881 131.886 91.8593 132.267C90.4526 132.708 89.0331 133.103 87.6007 133.453C86.1685 133.802 84.7265 134.105 83.2746 134.362C81.7157 134.624 80.1421 134.774 78.5782 135C78.4933 122.601 78.4885 110.203 78.5638 97.8049Z" fill="#8FE1E3"/>
<path d="M98.018 114.061C98.0947 114.877 98.0687 115.712 98.0745 116.532L119.009 116.517L123.837 116.51C124.647 116.509 125.717 116.383 126.488 116.579C127.09 116.762 128.383 116.646 129.055 116.662C128.978 121.453 129.05 126.253 129.048 131.045L129.04 150.5H95.5373H72.6495L72.6343 150.434C74.0903 150.384 75.738 149.447 76.7455 148.435C77.5084 147.67 78.0899 146.698 78.3621 145.648C78.7569 144.125 78.5918 142.352 78.5893 140.784L78.5785 135C80.1423 134.774 81.716 134.624 83.2749 134.362C84.7268 134.106 86.1688 133.802 87.601 133.453C89.0333 133.103 90.4529 132.708 91.8596 132.267C93.0883 131.886 94.3387 131.53 95.5099 130.993C95.5122 126.233 95.5708 121.466 95.4838 116.708C96.324 116.741 97.1764 116.715 98.0178 116.715C98.0054 115.83 98.0055 114.946 98.018 114.061Z" fill="#FADE89"/>
<path d="M78.5785 135C80.1423 134.774 81.716 134.624 83.2749 134.362C84.7268 134.106 86.1688 133.802 87.601 133.453C89.0333 133.103 90.4529 132.708 91.8596 132.267C93.0883 131.886 94.3387 131.53 95.5099 130.993C95.5154 137.489 95.7145 144.008 95.5373 150.5H72.6495L72.6343 150.434C74.0903 150.384 75.738 149.447 76.7455 148.435C77.5084 147.67 78.0899 146.698 78.3621 145.648C78.7569 144.125 78.5918 142.352 78.5893 140.784L78.5785 135Z" fill="#FEFEFE"/>
<path d="M105.757 83.5364L105.814 64.2404L105.802 58.6639C105.799 57.4858 105.711 56.2261 105.901 55.0628C105.995 54.4841 106.36 53.9411 106.766 53.5275C107.426 52.8536 108.269 52.5482 109.203 52.5586C110.115 52.5689 110.903 53.0107 111.514 53.6725C111.954 54.1499 112.273 54.7147 112.376 55.3587C112.562 56.5213 112.491 57.7522 112.493 58.9277L112.499 64.2588L112.487 83.5828C113.294 83.5843 114.109 83.5633 114.915 83.6107L114.934 66.681L114.943 61.6718C114.947 60.6878 114.889 59.6461 115.042 58.6727C115.155 57.9585 115.434 57.4055 115.952 56.8941C116.643 56.2109 117.531 55.833 118.505 55.847C119.474 55.8611 120.428 56.2418 121.082 56.9694C121.539 57.4787 121.762 58.1659 121.858 58.8324C121.976 59.647 121.904 60.5455 121.902 61.3695L121.892 66.1263C121.885 71.9526 121.806 77.8055 121.919 83.6297L124.329 83.6252L124.345 73.0822C124.346 71.6301 124.19 69.465 124.434 68.1C124.55 67.4479 124.912 66.8334 125.391 66.3804C126.076 65.7322 127.141 65.3975 128.067 65.4295C128.963 65.4605 129.782 65.8026 130.398 66.4614C130.841 66.9358 131.167 67.5558 131.247 68.2033C131.435 69.7185 131.321 71.3611 131.323 72.8908L131.325 81.5373L131.315 94.4334C131.316 96.8105 131.421 99.2401 131.288 101.612C131.071 105.513 129.051 108.239 126.494 111.005L126.488 116.579C125.717 116.383 124.647 116.509 123.836 116.51L119.009 116.517L98.0744 116.532C98.0685 115.712 98.0946 114.877 98.0178 114.061L98.0045 111.463C97.5602 111.412 97.1864 111.373 96.8118 111.101C95.9096 110.445 95.0979 109.555 94.2877 108.784L90.1966 104.954L82.5341 97.9093C81.2055 96.6804 79.7084 95.5033 78.5856 94.0844C78.1355 93.5155 78.0019 92.3952 78.0995 91.7063C78.238 90.7275 78.813 89.8899 79.5987 89.3093C80.2575 88.8229 81.149 88.4996 81.975 88.6373C82.3718 88.7033 82.7774 88.9141 83.124 89.1164C83.9936 89.6241 84.8131 90.2613 85.6506 90.8244C88.0523 92.4397 90.4547 94.1342 92.9604 95.5815C93.9725 94.7312 94.957 94.1063 96.3092 94.0171L96.3132 71.372L96.3173 64.735C96.317 63.5712 96.2229 62.3203 96.38 61.17C96.4862 60.3922 96.7803 59.6722 97.3374 59.1072C98.0057 58.4296 98.9524 58.0667 99.8994 58.0648C100.77 58.0631 101.589 58.4332 102.19 59.0583C102.773 59.6651 103.099 60.4285 103.217 61.2545C103.35 62.1785 103.28 63.172 103.275 64.1063L103.253 68.6363L103.287 83.5156L105.757 83.5364Z" fill="#FEFEFE"/>
<path d="M61.1103 5.94556C61.3805 5.9351 61.6508 5.92769 61.9211 5.92333C73.7574 5.8362 85.5937 5.8409 97.4299 5.93745L108.526 5.95469C110.191 5.95655 112.427 5.79829 114.042 6.01834C114.939 6.14055 115.759 6.6742 116.391 7.30173C117.06 7.96585 117.564 8.83633 117.7 9.77614C117.905 11.1867 117.775 12.7504 117.773 14.1759L117.77 22.6244L117.776 53.3641C116.589 53.6548 115.753 53.9972 114.758 54.7125C114.685 54.4352 114.615 54.1525 114.517 53.8828C114 52.4599 112.825 51.2114 111.447 50.5918C111.36 50.5514 111.271 50.5133 111.182 50.4774C111.092 50.4414 111.002 50.4077 110.911 50.3763C110.82 50.3449 110.728 50.3158 110.635 50.289C110.543 50.2621 110.45 50.2377 110.356 50.2156C110.262 50.1934 110.168 50.1737 110.073 50.1563C109.978 50.1388 109.883 50.1238 109.787 50.1112C109.692 50.0985 109.596 50.0882 109.5 50.0804C109.404 50.0726 109.308 50.0672 109.211 50.0641C109.115 50.0611 109.019 50.0605 108.922 50.0622C108.826 50.0641 108.73 50.0683 108.633 50.075C108.537 50.0816 108.441 50.0907 108.346 50.1021C108.25 50.1135 108.155 50.1273 108.06 50.1435C107.965 50.1597 107.87 50.1783 107.776 50.1992C107.682 50.2202 107.588 50.2435 107.495 50.2691C107.403 50.2948 107.31 50.3227 107.219 50.353C107.127 50.3833 107.037 50.4158 106.947 50.4506C106.888 50.4737 106.829 50.4978 106.77 50.5229C106.712 50.5479 106.654 50.574 106.597 50.601C106.539 50.6281 106.482 50.656 106.426 50.6849C106.369 50.7139 106.313 50.7438 106.257 50.7746C106.202 50.8054 106.147 50.8372 106.092 50.8699C106.038 50.9026 105.984 50.9361 105.93 50.9706C105.877 51.0051 105.824 51.0404 105.772 51.0766C105.72 51.1129 105.668 51.15 105.618 51.188C105.567 51.226 105.516 51.2648 105.467 51.3044C105.417 51.3441 105.368 51.3846 105.32 51.4259C105.271 51.4672 105.224 51.5093 105.177 51.5521C105.13 51.5951 105.084 51.6388 105.039 51.6832C104.993 51.7277 104.949 51.7728 104.905 51.8187C104.861 51.8647 104.818 51.9114 104.775 51.9588C104.733 52.0061 104.692 52.0542 104.651 52.1031C104.61 52.1518 104.57 52.2012 104.531 52.2513C104.492 52.3015 104.454 52.3523 104.417 52.4036C104.379 52.455 104.343 52.507 104.307 52.5596C104.272 52.6123 104.237 52.6655 104.203 52.7193C104.169 52.773 104.136 52.8273 104.104 52.8822C104.072 52.9371 104.041 52.9925 104.011 53.0485C103.981 53.1044 103.952 53.1609 103.924 53.2178C103.895 53.2746 103.868 53.332 103.842 53.3898C103.815 53.4477 103.79 53.5059 103.766 53.5645C103.741 53.6232 103.718 53.6823 103.695 53.7418C103.673 53.8013 103.652 53.8611 103.631 53.9212C103.611 53.9814 103.592 54.0419 103.573 54.1027C103.555 54.1636 103.537 54.2247 103.521 54.2861C103.505 54.3475 103.49 54.4092 103.475 54.4711C103.461 54.533 103.448 54.5951 103.436 54.6574C103.424 54.7198 103.412 54.7824 103.402 54.8451C103.392 54.9079 103.383 54.9708 103.375 55.0338C103.315 55.4993 103.423 56.1362 103.241 56.5556C103.078 56.5171 102.997 56.4655 102.867 56.3609C102.51 55.5788 102.682 50.7769 102.682 49.6418L100.256 49.6452L100.224 55.4933C98.5499 55.4829 97.0359 55.9617 95.7821 57.1092C94.5178 58.2664 93.8842 59.8984 93.8196 61.59L93.788 92.0505C93.5494 92.2585 93.3267 92.4869 93.0997 92.7075C92.2348 92.0382 91.2446 91.486 90.3335 90.8759C88.6029 89.7172 84.524 86.7153 82.8543 86.1812C81.3269 85.6926 79.8736 86.1593 78.5119 86.8642C78.3946 80.5592 78.4867 74.2352 78.4852 67.9281L78.4719 63.079C78.464 61.833 78.5271 60.5501 78.2784 59.3239C78.0478 58.1868 77.3694 57.0771 76.5559 56.2593C75.7342 55.4332 74.6388 54.7426 73.4983 54.4678C71.991 54.1045 68.7087 54.3019 67.025 54.305L57.166 54.2633L57.1873 23.0952L57.1855 14.4249C57.1836 12.8879 57.0732 11.252 57.2277 9.72495C57.307 8.94266 57.6033 8.23236 58.0849 7.61343C58.8411 6.64154 59.8961 6.08869 61.1103 5.94556Z" fill="#FADE89"/>
<path d="M101.247 16.5789L102.691 16.5334C102.783 17.9297 102.739 19.3549 102.739 20.7541L102.735 27.5759L101.607 27.5634L100.229 27.5754L100.261 16.5882L101.247 16.5789Z" fill="#101055"/>
<path d="M100.225 33.0977L102.714 33.0979L102.684 44.2227L100.215 44.2198L100.225 33.0977Z" fill="#101055"/>
<path d="M75.4013 24.4712C75.8211 24.608 76.786 26.8812 77.3122 27.4066C77.8787 27.9723 78.6111 28.3955 79.3158 28.7616C79.704 28.9633 80.3225 29.152 80.6169 29.4679C80.556 29.5889 80.4648 29.6707 80.3496 29.7418C80.0863 29.9046 79.7608 29.9778 79.4838 30.1221C78.8197 30.468 78.1073 30.9511 77.5602 31.4689C76.6252 32.3538 76.091 33.6033 75.488 34.7223C75.0953 34.1028 74.7956 33.4246 74.4203 32.7936C73.385 31.0527 71.7862 30.4035 70.0513 29.5379C71.7953 28.7074 73.4144 28.053 74.4288 26.3175C74.7638 25.7443 75.0131 25.1286 75.3506 24.556L75.4013 24.4712Z" fill="#FEFEFE"/>
<path d="M70.1256 14.8337C70.494 15.1849 70.6508 16.1159 70.8317 16.61C72.1508 20.2122 74.0652 20.4787 77.1856 21.9338C76.5206 22.3115 75.7807 22.5762 75.0822 22.887C71.6439 24.4166 71.4387 25.9084 70.1828 29.1542C70.1497 29.1535 70.1092 29.1727 70.0837 29.1517C69.911 29.0102 69.3576 27.2634 69.2259 26.9351C69.0238 26.4313 68.7803 25.9307 68.4938 25.4691C67.0448 23.1356 65.2666 23.2247 63.3377 21.8609C63.3096 21.841 63.2819 21.8205 63.2539 21.8002C63.6414 21.6466 64.0461 21.5229 64.4388 21.3816C68.2909 19.9947 68.5383 18.2096 70.1256 14.8337Z" fill="#FEFEFE"/>
<path d="M15.5658 56.6925C16.9886 56.5967 18.442 56.6487 19.8688 56.6554L26.8397 56.6793L49.0605 56.6866L65.0303 56.6692C66.4635 56.6707 67.8967 56.6648 69.3298 56.6515C70.3183 56.6427 71.3356 56.5891 72.3193 56.6868C73.0978 56.7641 73.8276 57.1769 74.4182 57.6766C75.3613 58.474 75.887 59.5598 75.977 60.7837C76.0862 62.2715 75.9995 63.8188 76.0038 65.3127L76.0338 74.0963L76.0549 103.529L76.048 131.117L76.0359 139.714C76.0332 141.238 76.1111 142.805 75.9909 144.322C75.9182 145.238 75.6414 145.942 75.0251 146.632C74.2337 147.519 73.2708 147.903 72.1079 147.976L35.7096 147.982L22.376 147.985C20.1257 147.982 17.7798 148.114 15.5387 147.938C14.8817 147.887 14.3157 147.679 13.7675 147.32C12.7596 146.659 12.0763 145.68 11.8438 144.49C11.6323 143.407 11.7179 142.23 11.7204 141.128L11.7199 136.83L11.7235 119.368L11.721 80.9657L11.7245 68.3833C11.7251 65.957 11.6745 63.5134 11.762 61.0888C11.7953 60.1683 11.9443 59.3759 12.4777 58.6021C13.2056 57.5458 14.322 56.9216 15.5658 56.6925Z" fill="#FEFEFE"/>
<path d="M31.6553 103.054C32.4439 103.062 33.2336 103.052 34.0225 103.051L34.028 105.658C33.5087 105.528 32.0019 103.571 31.6553 103.054Z" fill="#FADE89"/>
<path d="M54.2935 81.4666C55.1656 81.9126 56.1831 83.4765 56.7868 84.2786C55.9656 84.3039 55.1378 84.2859 54.316 84.2867C54.3354 83.3464 54.3279 82.4064 54.2935 81.4666Z" fill="#FADE89"/>
<path d="M54.3931 103.045L56.8767 103.057C56.429 103.654 55.9712 104.243 55.5036 104.825C55.128 105.261 54.7496 105.677 54.3315 106.073C54.4188 105.072 54.389 104.05 54.3931 103.045Z" fill="#FADE89"/>
<path d="M33.914 81.4763L34.0089 81.5084C34.1892 82.0936 34.0615 83.622 34.0597 84.3082L31.7075 84.291L31.6142 84.2605L31.6074 84.1255C32.2021 83.138 33.08 82.2646 33.914 81.4763Z" fill="#FADE89"/>
<path d="M63.7651 65.5681C65.5686 65.5914 67.3721 65.5984 69.1757 65.5892L69.175 66.5446L67.0909 66.5683L67.095 70.2682C67.1 70.9792 67.1315 71.6913 67.1526 72.4022L66.0211 72.3966C65.9681 70.4415 65.9879 68.4815 65.9845 66.5258C65.2462 66.5144 64.5062 66.5238 63.7678 66.5238L63.7651 65.5681Z" fill="#101055"/>
<path d="M39.1265 65.5591C40.0618 65.4614 40.9596 65.6189 41.7718 66.0964C41.6309 66.3725 41.4648 66.6345 41.304 66.8992C40.6542 66.6016 40.1032 66.4185 39.3701 66.4553C38.8843 66.4798 38.5051 66.565 38.1767 66.9409C38.0631 67.0708 37.953 67.2372 37.9843 67.418C38.1336 68.2792 40.5292 68.5823 41.218 69.1021C41.559 69.3597 41.8376 69.7429 41.8896 70.1762C41.9593 70.7552 41.8798 71.3428 41.49 71.7889C40.8953 72.47 40.0745 72.5517 39.2303 72.6249C38.2306 72.5476 37.5011 72.3753 36.6143 71.9014C36.721 71.6162 36.8546 71.3362 36.9746 71.0559C37.8291 71.4314 38.7351 71.7898 39.6901 71.6501C40.0706 71.5944 40.452 71.4412 40.6821 71.1179C40.832 70.9075 40.908 70.6036 40.8418 70.3503C40.6405 69.5814 38.5744 69.3847 37.8484 68.9652C37.4415 68.7301 37.1111 68.4052 37.0021 67.9347C36.8989 67.4882 36.9821 66.8422 37.2419 66.4597C37.6593 65.8453 38.4431 65.6805 39.1265 65.5591Z" fill="#101055"/>
<path d="M32.9579 65.4787C34.0781 65.4111 34.9751 65.4957 35.9526 66.1159C35.7987 66.4031 35.622 66.6612 35.4341 66.9265C34.8912 66.6489 34.3031 66.4346 33.6877 66.4215C33.2266 66.4116 32.6824 66.4686 32.3466 66.8221C32.1837 66.9935 32.0091 67.2665 32.057 67.5128C32.2082 68.2899 34.7176 68.7246 35.3812 69.208C35.7417 69.4705 36.041 69.8422 36.1054 70.2946C36.1749 70.7833 35.9941 71.3931 35.6928 71.7807C35.2104 72.4015 34.2514 72.548 33.5162 72.6119C32.4303 72.5665 31.5988 72.3637 30.7188 71.6849L31.2011 70.9289C32.0047 71.4024 32.7344 71.6858 33.6832 71.6395C34.2013 71.6143 34.5505 71.446 34.8873 71.0433C35.0583 70.8385 35.0833 70.7016 35.0598 70.4411C34.5317 69.5668 33.0839 69.5067 32.2168 69.0957C31.7137 68.857 31.2159 68.4787 31.0417 67.9264C30.8931 67.455 31.0253 66.9298 31.2695 66.5133C31.6467 65.8702 32.276 65.6523 32.9579 65.4787Z" fill="#101055"/>
<path d="M26.4809 65.5604L27.3904 65.5569C27.9494 67.072 28.6012 68.5953 29.239 70.0815C29.5831 70.8833 29.9732 71.673 30.252 72.5004L29.1812 72.5023C28.9956 71.9641 28.7581 71.4645 28.4884 70.9642L27.5826 70.9475L25.409 70.9362C25.2407 71.4765 25.0155 71.9919 24.7334 72.4825C24.385 72.4667 24.0349 72.4898 23.6865 72.5033C24.1373 71.4913 24.5026 70.4437 24.9135 69.4153C25.4282 68.1265 25.9825 66.8561 26.4809 65.5604Z" fill="#101055"/>
<path d="M26.8745 67.0364C27.3702 67.501 27.8469 69.4094 28.0684 70.0964L27.1912 70.1084L25.7715 70.09C26.087 69.0586 26.4979 68.0471 26.8745 67.0364Z" fill="#FEFEFE"/>
<path d="M43.415 65.5372C44.9827 65.5917 46.8035 65.2882 48.1097 66.3019C48.2496 66.5946 48.3703 66.8954 48.4292 67.2155C48.5522 67.883 48.4864 68.6115 48.0704 69.1705C47.5861 69.8215 46.8981 69.9766 46.143 70.0892C45.5915 70.1073 45.0383 70.1074 44.4865 70.1153C44.4448 70.9139 44.4662 71.7222 44.4632 72.5223L43.3691 72.5263L43.415 65.5372Z" fill="#101055"/>
<path d="M44.4442 66.4876C45.3255 66.4646 46.3904 66.3561 47.139 66.9196C47.3678 67.0917 47.5232 67.2914 47.5556 67.5836C47.6007 67.99 47.3547 68.4394 47.1053 68.7391C46.2454 69.2691 45.4119 69.2073 44.447 69.1966C44.4253 68.295 44.442 67.3895 44.4442 66.4876Z" fill="#FEFEFE"/>
<path d="M18.813 65.5379C20.0319 65.5257 21.8123 65.2951 22.8788 65.9441C23.3899 66.255 23.7031 66.7474 23.834 67.3245C23.9918 68.0193 23.902 68.779 23.4996 69.3771C23.0748 70.0084 22.547 70.23 21.8354 70.3789C21.1969 70.4017 20.5535 70.3802 19.9146 70.3745L19.9148 72.5254C19.5495 72.5445 19.1821 72.5445 18.8164 72.5517L18.813 65.5379Z" fill="#101055"/>
<path d="M19.9088 66.5061C20.6523 66.4785 21.4697 66.378 22.1512 66.7387C22.478 66.9115 22.7564 67.1979 22.845 67.565C22.966 68.0658 22.7068 68.6914 22.4372 69.1001C21.7871 69.6916 20.7534 69.521 19.9322 69.5077C19.894 68.5092 19.9107 67.5052 19.9088 66.5061Z" fill="#FEFEFE"/>
<path d="M57.7367 65.5688C58.8829 65.5533 60.2839 65.3898 61.3986 65.6835C61.954 65.8297 62.4631 66.141 62.74 66.6591C63.0324 67.2067 63.0699 67.975 62.8821 68.5615C62.6452 69.3015 62.0581 69.6261 61.4165 69.9682C62.0631 70.7517 62.6698 71.5296 63.2276 72.3787L62.3152 72.3817C62.234 72.3735 62.0736 72.3793 62.0036 72.3499C61.6717 72.21 60.5275 70.4759 60.1166 70.0429C59.6844 70.0587 59.2525 70.0811 58.8209 70.11L58.8006 72.3387C58.4281 72.3743 58.0522 72.3758 57.6782 72.3858C57.6789 70.1133 57.6984 67.841 57.7367 65.5688Z" fill="#101055"/>
<path d="M59.7729 66.4473C60.0782 66.4451 60.3893 66.4393 60.6902 66.4984C61.0977 66.5786 61.5274 66.8583 61.7496 67.2112C61.9208 67.483 62.0021 67.8133 61.9111 68.1278C61.7718 68.6091 61.4452 68.8514 61.0273 69.0878C60.3325 69.2906 59.5872 69.2165 58.8716 69.1952C58.855 68.3062 58.8734 67.414 58.876 66.5247L59.7729 66.4473Z" fill="#FEFEFE"/>
<path d="M54.3452 86.0645C55.5155 86.0828 56.6857 86.0775 57.8559 86.0488C58.8152 87.9934 59.622 90.3745 59.6031 92.5719C57.8506 92.5648 56.0981 92.5769 54.3458 92.6081L54.3452 86.0645Z" fill="#FADE89"/>
<path d="M30.5036 86.103C31.6852 86.1427 32.88 86.0963 34.0627 86.0862L34.0671 92.6378L32.2597 92.6351L28.6333 92.6422C28.735 90.3032 29.4476 88.1777 30.5036 86.103Z" fill="#FADE89"/>
<path d="M54.3848 94.5464L59.6947 94.5606C59.5144 96.4825 59.2283 98.2133 58.5114 100.022C58.3497 100.456 58.1463 100.867 57.9445 101.284L54.3861 101.274C54.402 99.0317 54.4016 96.7891 54.3848 94.5464Z" fill="#FADE89"/>
<path d="M28.6831 94.5418L34.0518 94.5393C34.0381 96.7902 34.038 99.0411 34.0516 101.292L30.6368 101.271C29.4368 99.1005 28.8325 97.0215 28.6831 94.5418Z" fill="#FADE89"/>
<path d="M52.4663 65.4785C53.2329 65.3955 54.0245 65.5108 54.7097 65.8743C55.5612 66.3259 56.1309 67.1163 56.3873 68.0368C56.6567 69.0045 56.5585 70.0855 56.041 70.9561C55.4646 71.9255 54.5882 72.333 53.5431 72.6008C52.6945 72.7076 51.8703 72.6279 51.1144 72.1961C50.2839 71.7216 49.7211 70.9354 49.4971 70.0094C49.2506 68.9907 49.3802 67.8661 49.9607 66.9814C50.5743 66.0462 51.4219 65.7078 52.4663 65.4785Z" fill="#101055"/>
<path d="M52.4235 66.4269C52.9538 66.3905 53.4371 66.3896 53.936 66.6093C54.5827 66.8942 55.0502 67.4424 55.2744 68.1081C55.5224 68.8444 55.4902 69.6861 55.1367 70.3838C54.7986 71.0509 54.2927 71.3771 53.6 71.6025C52.9682 71.7196 52.3355 71.7283 51.7469 71.4348C51.1617 71.1428 50.7492 70.6392 50.5594 70.0151C50.3244 69.2429 50.3925 68.3091 50.7998 67.6054C51.1755 66.9563 51.7154 66.6199 52.4235 66.4269Z" fill="#FEFEFE"/>
<path d="M45.1798 77.7585C47.7194 77.9501 50.3781 78.7479 52.456 80.2338C52.4217 81.5857 52.4444 82.9403 52.4505 84.2925C50.0063 84.2786 47.562 84.2782 45.1177 84.2912L45.1798 77.7585Z" fill="#FADE89"/>
<path d="M35.979 103.056L43.2074 103.059L43.191 109.652C40.531 109.536 38.2656 108.489 35.9688 107.239L35.979 103.056Z" fill="#FADE89"/>
<path d="M42.6818 77.7265C42.8562 77.6986 42.9739 77.699 43.1473 77.7339C43.3568 78.1837 43.2213 83.3241 43.2249 84.2887L36.6576 84.2835C36.4308 84.2924 36.2461 84.3065 36.0295 84.2222C35.8571 82.9635 36.0046 81.2592 36.0141 79.9538C37.9339 78.5682 40.3641 77.9728 42.6818 77.7265Z" fill="#FADE89"/>
<path d="M45.1187 103.051C47.5534 103.078 49.9882 103.088 52.4231 103.081C52.4311 104.464 52.4279 105.848 52.4136 107.231C51.9524 107.606 51.4383 107.887 50.9127 108.159C49.0812 109.127 47.1435 109.476 45.1203 109.769L45.1187 103.051Z" fill="#FADE89"/>
<path d="M36.0079 86.0505C38.4151 86.1097 40.8309 86.0618 43.2394 86.0647L43.2327 92.6417C40.8302 92.5871 38.4086 92.602 36.0059 92.6388L36.0079 86.0505Z" fill="#FADE89"/>
<path d="M52.043 86.0815C52.1737 86.0754 52.2518 86.0838 52.377 86.1092C52.5765 86.5108 52.4425 91.7472 52.4415 92.6409C50.1405 92.6191 47.8395 92.6143 45.5384 92.6267C45.3669 92.6316 45.3324 92.6509 45.1747 92.5681C45.0291 91.9286 45.1244 91.0828 45.1241 90.4211L45.123 86.1127C47.4298 86.1258 49.7365 86.1154 52.043 86.0815Z" fill="#FADE89"/>
<path d="M36.007 94.5462L43.1629 94.5442L43.1517 101.276L35.9927 101.283C36.0877 99.0476 36.0182 96.7835 36.007 94.5462Z" fill="#FADE89"/>
<path d="M45.1216 94.5425L52.4383 94.5249C52.4312 95.4344 52.545 100.943 52.3466 101.269C49.9476 101.229 47.5485 101.228 45.1494 101.265C45.2014 99.0294 45.1402 96.7796 45.1216 94.5425Z" fill="#FADE89"/>
<path d="M23.1242 115.227C25.5589 115.161 28.0084 115.218 30.4447 115.217L47.719 115.238C51.796 115.213 55.8729 115.214 59.9499 115.242C61.8248 115.248 63.7893 115.11 65.6521 115.275C66.2717 115.329 66.8068 115.519 67.303 115.901C68.1243 116.534 68.4154 117.273 68.5189 118.276C68.6517 119.562 68.5572 120.944 68.555 122.24L68.54 129.895L68.556 134.588C68.561 135.455 68.6426 136.412 68.5128 137.27C68.4161 137.908 68.1659 138.495 67.7433 138.987C67.0978 139.739 66.3072 140.028 65.3473 140.084L36.4283 140.088L27.6357 140.094C26.0621 140.098 24.3781 140.223 22.8198 140.051C22.7255 140.041 22.6318 140.027 22.5385 140.01C22.4454 139.993 22.3529 139.973 22.2612 139.949C22.1696 139.925 22.079 139.898 21.9895 139.867C21.8999 139.836 21.8116 139.802 21.7247 139.764C21.6376 139.726 21.5522 139.686 21.4683 139.641C21.3845 139.597 21.3025 139.55 21.2222 139.5C21.1419 139.45 21.0637 139.396 20.9874 139.34C20.9112 139.284 20.8373 139.225 20.7655 139.163C19.9865 138.502 19.6695 137.643 19.5836 136.653C19.4887 135.558 19.5554 134.404 19.5565 133.302L19.5617 127.08L19.5586 121.751C19.5583 120.653 19.4805 119.484 19.6493 118.399C19.7625 117.669 20.0609 116.979 20.5487 116.421C21.2357 115.635 22.109 115.306 23.1242 115.227Z" fill="#FADE89"/>
<path d="M25.7714 126.762L62.5285 126.793C62.544 127.609 62.5378 128.426 62.5417 129.243C56.6964 129.197 50.8511 129.188 45.0056 129.214L25.7607 129.216L25.7714 126.762Z" fill="#101055"/>
<path d="M0 0.5H150V66.6531V68.2848V150.5H129.04L129.048 131.045C129.05 126.253 128.978 121.453 129.055 116.662L129.036 111.844C129.661 110.913 130.496 110.14 131.131 109.213C134.273 104.624 133.662 101.961 133.814 96.8387C133.733 94.509 133.805 92.1512 133.807 89.8187L133.827 76.4995L133.84 71.5309C133.84 70.4712 133.885 69.3786 133.765 68.3259C133.649 67.3058 133.405 66.3506 132.84 65.4816C132.038 64.2478 130.618 63.2741 129.175 62.9864C127.422 62.6371 125.848 63.0516 124.386 64.0354C124.35 61.95 124.708 58.5084 123.841 56.6546C123.107 55.0859 121.863 54.1795 120.272 53.6057C120.215 50.1698 120.174 46.6754 120.273 43.2412C120.149 40.0208 120.255 36.7609 120.219 33.5352C120.17 26.3321 120.161 19.1293 120.193 11.9266C120.208 9.36187 119.889 7.32833 117.986 5.43009C115.762 3.21081 113.078 3.48557 110.193 3.48258C109.209 3.52391 108.206 3.47927 107.219 3.4823C105.459 3.50044 103.7 3.5009 101.941 3.4837L72.5911 3.49911L64.8343 3.49771C63.2687 3.49902 61.5602 3.37801 60.0177 3.658C58.7493 3.88823 57.6047 4.60934 56.705 5.51587C54.2483 7.99103 54.6948 11.26 54.728 14.4573C54.8249 23.7506 54.739 33.0578 54.7214 42.3523L54.7017 50.757C54.6983 51.7738 54.821 53.2202 54.6778 54.1769C54.5577 54.2664 54.6207 54.2407 54.4945 54.2664C53.3867 54.3767 52.1758 54.2776 51.0587 54.2744L44.1078 54.2633L20.5251 54.2579L17.3449 54.2353C14.9713 54.2224 13.1606 54.3749 11.3695 56.1222C9.87917 57.576 9.316 59.3015 9.30318 61.3427L9.30624 118.586L9.32994 136.785L9.31232 141.492C9.30573 142.44 9.2376 143.426 9.35275 144.368C9.54352 145.927 10.227 147.298 11.3373 148.408C12.5131 149.586 13.9764 150.258 15.6253 150.434L15.6089 150.5H0V126.596V124.969V0.5Z" fill="#FEFEFE"/>
<path d="M142.164 138.055C142.395 138.034 142.655 138.021 142.882 138.074C143.298 138.171 143.681 138.464 143.888 138.836C143.913 138.879 143.935 138.923 143.955 138.969C143.975 139.015 143.992 139.061 144.007 139.108C144.022 139.156 144.035 139.204 144.045 139.253C144.055 139.301 144.063 139.35 144.068 139.4C144.073 139.449 144.076 139.499 144.076 139.548C144.076 139.598 144.073 139.648 144.068 139.697C144.063 139.747 144.055 139.796 144.045 139.844C144.035 139.893 144.022 139.941 144.007 139.988C143.842 140.495 143.468 140.787 143.006 141.014C142.907 141.028 142.812 141.043 142.712 141.043C142.288 141.047 141.821 140.969 141.52 140.646C141.076 140.171 141.117 139.568 141.145 138.968C141.447 138.501 141.662 138.299 142.164 138.055Z" fill="#FADE89"/>
<path d="M104.881 3.45038C104.886 2.58588 105.001 1.81781 105.668 1.19157C106.039 0.843182 106.524 0.639614 107.036 0.657871C107.603 0.67809 108.127 0.947309 108.493 1.37762C109.031 2.00807 109.079 2.66675 109.006 3.44728C109.397 3.45382 109.805 3.43565 110.193 3.48264C109.208 3.52396 108.205 3.47933 107.218 3.48236C105.459 3.50049 103.7 3.50096 101.941 3.48375C102.918 3.42107 103.902 3.46591 104.881 3.45038Z" fill="#FADE89"/>
<path d="M14.3021 30.6936C14.7538 30.7008 15.1151 30.7315 15.53 30.935C15.6005 30.9688 15.669 31.0062 15.7356 31.0471C15.8022 31.0881 15.8665 31.1324 15.9284 31.1801C15.9903 31.2278 16.0496 31.2787 16.1063 31.3326C16.1629 31.3865 16.2165 31.4432 16.2671 31.5028C16.3178 31.5623 16.3652 31.6243 16.4095 31.6888C16.4536 31.7533 16.4943 31.8199 16.5315 31.8888C16.5687 31.9575 16.6022 32.028 16.632 32.1003C16.6618 32.1726 16.6877 32.2462 16.7098 32.3212C16.9039 32.9667 16.8321 33.7103 16.4924 34.2954C16.0951 34.9797 15.5042 35.2488 14.7762 35.4478C14.2846 35.4246 13.8739 35.3684 13.4381 35.1136C13.3687 35.0733 13.3014 35.0296 13.2364 34.9827C13.1713 34.9356 13.1088 34.8854 13.0488 34.8321C12.9888 34.7788 12.9315 34.7226 12.8772 34.6636C12.8228 34.6045 12.7714 34.5429 12.7232 34.4788C12.675 34.4146 12.6301 34.3481 12.5885 34.2794C12.547 34.2107 12.509 34.1402 12.4745 34.0677C12.44 33.9953 12.4092 33.9212 12.3821 33.8457C12.3551 33.7701 12.3318 33.6933 12.3125 33.6154C12.1617 32.9917 12.2875 32.3353 12.6288 31.7958C13.018 31.1807 13.6041 30.8439 14.3021 30.6936Z" fill="#FADE89"/>
<path d="M132.152 9.95961C132.632 9.93503 133.025 9.94837 133.468 10.168C134.001 10.4324 134.379 10.9038 134.569 11.4626C134.583 11.5024 134.596 11.5427 134.608 11.5832C134.62 11.6238 134.631 11.6646 134.641 11.7057C134.65 11.7468 134.659 11.7882 134.667 11.8297C134.675 11.8713 134.681 11.913 134.687 11.9549C134.692 11.9969 134.697 12.0389 134.7 12.081C134.704 12.1231 134.706 12.1653 134.707 12.2076C134.708 12.2499 134.708 12.2921 134.707 12.3344C134.706 12.3766 134.704 12.4188 134.701 12.461C134.698 12.5032 134.694 12.5452 134.689 12.5871C134.683 12.6291 134.677 12.6709 134.669 12.7125C134.662 12.7541 134.654 12.7955 134.644 12.8366C134.634 12.8778 134.624 12.9187 134.612 12.9593C134.6 13 134.588 13.0403 134.574 13.0802C134.56 13.1202 134.545 13.1598 134.53 13.199C134.514 13.2382 134.497 13.277 134.479 13.3153C134.461 13.3537 134.443 13.3915 134.423 13.4289C134.077 14.0784 133.529 14.446 132.834 14.6416C132.266 14.6471 131.75 14.6043 131.248 14.313C131.18 14.2731 131.113 14.2298 131.049 14.1832C130.985 14.1366 130.924 14.0869 130.865 14.034C130.806 13.9811 130.75 13.9254 130.696 13.8669C130.643 13.8083 130.593 13.7472 130.546 13.6835C130.499 13.6199 130.455 13.554 130.415 13.4859C130.374 13.4178 130.337 13.3478 130.304 13.276C130.271 13.2042 130.241 13.1308 130.215 13.056C130.189 12.9811 130.167 12.9052 130.149 12.8281C130.13 12.7508 130.115 12.6727 130.104 12.5938C130.092 12.515 130.085 12.4357 130.082 12.3562C130.079 12.2766 130.08 12.197 130.084 12.1175C130.089 12.038 130.098 11.959 130.111 11.8803C130.123 11.8017 130.14 11.7239 130.161 11.647C130.181 11.5701 130.206 11.4944 130.234 11.4199C130.262 11.3454 130.294 11.2726 130.33 11.2013C130.366 11.1301 130.405 11.0608 130.447 10.9935C130.855 10.361 131.447 10.1084 132.152 9.95961Z" fill="#FADE89"/>
<path d="M0 124.969C0.428458 124.26 0.869474 123.64 1.73089 123.446C2.44559 123.285 3.34753 123.43 3.95934 123.838C4.49785 124.198 4.83746 124.755 4.94587 125.39C4.95352 125.434 4.96005 125.478 4.96548 125.522C4.97092 125.566 4.97524 125.61 4.97845 125.655C4.98166 125.699 4.98375 125.744 4.98473 125.788C4.9857 125.832 4.98555 125.877 4.98429 125.921C4.98303 125.966 4.98066 126.01 4.97717 126.054C4.97368 126.099 4.96907 126.143 4.96336 126.187C4.95764 126.231 4.95082 126.275 4.9429 126.319C4.93497 126.362 4.92595 126.406 4.91584 126.449C4.90572 126.492 4.89453 126.535 4.88225 126.578C4.86997 126.621 4.85662 126.663 4.84222 126.705C4.8278 126.747 4.81234 126.789 4.79584 126.83C4.77934 126.871 4.7618 126.912 4.74324 126.952C4.72468 126.993 4.70512 127.033 4.68456 127.072C4.66398 127.111 4.64243 127.15 4.61991 127.189C4.59739 127.227 4.57392 127.265 4.5495 127.302C4.52508 127.339 4.49975 127.375 4.47349 127.411C4.06591 127.968 3.43573 128.384 2.74377 128.466C2.10038 128.543 1.46171 128.331 0.960797 127.928C0.452534 127.52 0.329014 127.117 0 126.596V124.969Z" fill="#FADE89"/>
<path d="M150 68.2848C149.694 69.2473 149.238 70.0212 148.339 70.5464C147.582 70.9882 146.688 71.0711 145.85 70.8389C144.944 70.5883 144.153 69.926 143.701 69.1055C143.281 68.3447 143.169 67.394 143.421 66.5598C143.692 65.662 144.366 64.9203 145.2 64.5056C146.014 64.1006 146.934 64.0206 147.791 64.3407C148.9 64.7554 149.543 65.6094 150 66.6531V68.2848Z" fill="#4A37A1"/>
<path d="M34.1487 8.31616C34.399 8.57049 34.3606 12.2495 35.8138 14.0322C37.3546 15.9225 39.7943 16.1027 42.0487 16.3347C40.1604 16.5791 38.2968 16.5884 36.6811 17.7422C34.1424 19.555 34.6237 21.8442 34.1714 24.5065L34.1043 24.3591C33.9536 22.7647 33.8554 21.0194 33.0804 19.5865C31.9226 17.4464 29.9425 16.8363 27.6801 16.5164C27.1951 16.4478 26.6403 16.4694 26.1763 16.3347C26.668 16.0164 28.173 16.0624 28.8398 15.9468C29.7484 15.7894 30.7516 15.4624 31.5246 14.9493C33.8099 13.4326 33.6783 10.7041 34.1487 8.31616Z" fill="#4A37A1"/>
<path d="M142.435 105.038C143.339 107.379 144.341 109.961 146.399 111.54C147.05 112.038 147.782 112.405 148.507 112.778C148.217 112.878 147.935 112.998 147.66 113.137C147.387 113.276 147.124 113.434 146.872 113.61C144.966 114.926 142.959 117.847 142.543 120.13L142.507 120.199C142.358 120.031 142.313 119.701 142.24 119.484C141.288 116.675 139.306 114.012 136.609 112.701C136.934 112.568 137.259 112.42 137.559 112.238C140.079 110.707 141.738 107.84 142.435 105.038Z" fill="#4A37A1"/>
<path d="M20.5249 54.2579C21.4226 52.1868 22.3067 50.0935 23.3556 48.0934C25.7595 43.5095 29.4342 38.4026 33.0889 34.7588C33.7209 34.1286 34.4948 33.1601 35.1824 32.6428C35.0264 33.1183 32.1153 35.8718 31.5146 36.5497C30.6275 37.5623 29.7785 38.606 28.9675 39.6807C28.5978 40.1652 28.2739 40.7233 27.8626 41.1663L27.8579 41.2713C28.0353 41.378 28.2312 41.34 28.4295 41.3292C28.6543 41.4988 28.6067 41.669 28.7597 41.863C28.8856 42.023 29.2354 41.9989 29.4074 42.0736C29.6364 42.1731 30.6303 43.5413 30.9452 43.7093C31.1567 43.8221 31.229 43.7157 31.4696 43.9177L31.561 43.8291C31.6967 43.9456 31.6542 43.8738 31.6914 43.9996C31.7018 44.0343 31.7122 44.0692 31.7239 44.1035C32.0348 45.0149 33.8718 45.7019 34.5956 46.2476C35.1367 46.6554 35.4773 47.2227 35.9623 47.678C36.3685 48.0593 36.9121 48.2613 37.341 48.6065C37.9466 49.094 38.171 49.9835 38.7396 50.4804C39.2547 50.9305 40.0836 51.0612 40.5405 51.5771C40.9369 52.0249 40.8336 52.5949 41.0986 53.0752C41.1208 53.0854 41.143 53.0953 41.165 53.1058C41.4602 53.2463 41.5794 53.4306 41.8218 53.6291L41.7294 53.7358L41.8439 53.6431C41.6916 53.7542 41.5444 53.8384 41.4704 54.0197L41.5023 54.1475C42.3878 54.2922 43.3946 54.1541 44.2987 54.1511C45.4656 54.1475 54.1376 54.0798 54.4943 54.2664C53.3865 54.3767 52.1756 54.2777 51.0585 54.2745L44.1076 54.2633L20.5249 54.2579Z" fill="#8FE1E3"/>
<path d="M120.273 43.2412C120.507 42.6163 120.322 37.9477 120.357 36.8073C120.369 36.4169 120.549 36.0789 120.625 35.7028C120.707 35.2943 120.654 34.811 120.643 34.3941L120.596 34.3127L120.651 34.2834L120.658 34.2222C120.824 34.3786 120.991 34.5589 121.193 34.6687C121.225 34.6864 121.258 34.7025 121.291 34.7193C123.256 36.2229 125 38.2867 126.525 40.221C126.904 40.6976 127.273 41.1804 127.635 41.6694C127.997 42.1585 128.35 42.6535 128.696 43.1543C129.041 43.6552 129.377 44.1618 129.706 44.674C130.034 45.1862 130.353 45.7038 130.664 46.2267C130.975 46.7497 131.277 47.2776 131.57 47.8106C131.863 48.3437 132.147 48.8816 132.422 49.4242C132.697 49.9667 132.962 50.5138 133.219 51.0654C133.476 51.6169 133.723 52.1726 133.961 52.7324C134.199 53.2922 134.427 53.8559 134.646 54.4234C134.865 54.991 135.075 55.562 135.275 56.1365C135.474 56.711 135.665 57.2888 135.845 57.8697C136.025 58.4506 136.196 59.0344 136.357 59.6211C136.518 60.2077 136.669 60.7969 136.81 61.3886C136.951 61.9804 137.082 62.5743 137.203 63.1704C137.324 63.7665 137.435 64.3645 137.536 64.9644C137.637 65.5642 137.728 66.1656 137.809 66.7685C138.661 73.1624 138.545 80.0098 137.233 86.3349C136.819 88.3312 136.25 90.2879 135.653 92.236C135.325 93.3046 134.615 95.7925 133.997 96.6493C133.908 96.773 133.934 96.7377 133.815 96.8387C133.733 94.509 133.805 92.1512 133.807 89.8187L133.827 76.4995L133.84 71.5309C133.84 70.4712 133.885 69.3786 133.765 68.3259C133.649 67.3058 133.405 66.3506 132.84 65.4816C132.038 64.2478 130.618 63.2741 129.175 62.9864C127.422 62.6371 125.848 63.0516 124.386 64.0354C124.35 61.95 124.708 58.5084 123.841 56.6546C123.107 55.0859 121.863 54.1795 120.272 53.6057C120.215 50.1698 120.174 46.6754 120.273 43.2412Z" fill="url(#paint0_linear_47_1840)"/>
</g>
<defs>
<linearGradient id="paint0_linear_47_1840" x1="146.416" y1="79.0829" x2="108.162" y2="51.4537" gradientUnits="userSpaceOnUse">
<stop stop-color="#9DDFDC"/>
<stop offset="1" stop-color="#E6F8EA"/>
</linearGradient>
<clipPath id="clip0_47_1840">
<rect width="150" height="150" fill="white" transform="translate(0 0.5)"/>
</clipPath>
</defs>
</svg>
