<svg width="150" height="151" viewBox="0 0 150 151" fill="none" xmlns="http://www.w3.org/2000/svg">
<g clip-path="url(#clip0_47_1582)">
<path d="M0 0.5H65.4182H72.7938H150V61.2787V102.727V150.5H94.3572H92.8884H0V71.0964V66.5845V12.3514V11.5091V0.5Z" fill="#101055"/>
<path d="M70.7874 4.50439C75.6423 4.83636 79.9818 7.33036 83.1621 10.9588C83.2031 11.0056 83.2435 11.0528 83.2834 11.1006C82.2357 11.2447 79.27 10.6277 78.0479 10.4978C75.6204 10.236 73.1859 10.091 70.7445 10.0629C70.7385 8.20991 70.7528 6.35707 70.7874 4.50439Z" fill="white"/>
<path d="M70.7678 100.55C75.1713 100.496 79.6679 101.157 84.0157 101.798C82.6234 102.548 81.3793 103.657 80.0675 104.543C77.8227 106.059 73.3203 108.511 70.7949 109.378C70.7687 106.436 70.7596 103.493 70.7678 100.55Z" fill="#8EE1E3"/>
<path d="M83.6077 6.01733C85.9792 6.60917 88.3271 7.22978 90.6399 8.02827C91.5086 8.33368 92.3702 8.65783 93.2247 9.00072C94.0792 9.34361 94.9258 9.70493 95.7646 10.0847C96.6033 10.4644 97.4334 10.8622 98.2549 11.278C99.0764 11.6939 99.8885 12.1274 100.691 12.5786C101.494 13.0298 102.286 13.4982 103.068 13.9838C103.851 14.4695 104.622 14.9719 105.382 15.4912C106.143 16.0104 106.891 16.5459 107.628 17.0976C108.366 17.6495 109.09 18.2171 109.803 18.8004C111.649 20.3051 113.594 21.9019 115.151 23.7135C113.908 24.674 112.527 25.4875 111.181 26.297C110.355 25.5489 109.61 24.7166 108.764 23.9793C108.285 23.5597 107.799 23.1484 107.305 22.7453C106.812 22.3422 106.312 21.9477 105.805 21.5618C105.298 21.1757 104.785 20.7984 104.266 20.4297C103.746 20.0612 103.22 19.7016 102.688 19.351C102.157 19.0003 101.619 18.6588 101.075 18.3264C100.532 17.994 99.9831 17.671 99.4286 17.3574C98.8742 17.0437 98.3146 16.7395 97.7497 16.4449C97.1849 16.1503 96.6152 15.8654 96.0407 15.5902C94.0217 14.6423 91.9163 13.9397 89.8942 13.022C89.1293 12.0977 88.4635 11.0957 87.7 10.1703C86.4594 8.66672 85.0469 7.32727 83.6077 6.01733Z" fill="white"/>
<path d="M22.3745 23.8856C23.7929 22.2771 25.4687 20.8443 27.1061 19.4646C35.1749 12.6655 44.2282 8.49435 54.4508 6.01855C52.7211 7.46686 51.0777 8.92034 49.62 10.6495C48.8662 11.5435 48.2006 12.5111 47.454 13.4115C46.7394 13.5962 46.0404 13.8804 45.346 14.1305C38.5455 16.5802 31.5597 21.3497 26.421 26.3989C25.019 25.6389 23.7022 24.7656 22.3745 23.8856Z" fill="white"/>
<path d="M26.4209 26.3988C31.5596 21.3496 38.5454 16.5801 45.3459 14.1304C46.0403 13.8803 46.7393 13.5961 47.4539 13.4114C44.2841 18.0178 41.7962 22.6035 39.7732 27.8185C39.2453 29.1794 38.7123 30.5553 38.3047 31.9582C36.7217 31.3824 35.1601 30.7535 33.6199 30.0715C32.0797 29.3894 30.5645 28.6558 29.0742 27.8707C28.1891 27.4049 27.2603 26.944 26.4209 26.3988Z" fill="#8EE1E3"/>
<path d="M26.5935 111.348C31.4718 116.447 38.4665 120.824 44.9358 123.556C45.9896 124.001 47.2271 124.609 48.3539 124.815C49.1608 125.727 49.8553 126.749 50.6436 127.68C52.0104 129.295 53.5746 130.806 55.1822 132.18C42.9127 129.217 31.3542 122.993 22.5911 113.857C23.8586 112.924 25.2399 112.148 26.5935 111.348Z" fill="white"/>
<path d="M89.894 13.022C91.9161 13.9397 94.0215 14.6423 96.0405 15.5902C96.615 15.8654 97.1847 16.1503 97.7496 16.4449C98.3144 16.7396 98.874 17.0437 99.4284 17.3574C99.9829 17.6711 100.532 17.9941 101.075 18.3264C101.619 18.6588 102.156 19.0004 102.688 19.351C103.22 19.7016 103.746 20.0612 104.265 20.4297C104.785 20.7984 105.298 21.1757 105.805 21.5618C106.312 21.9478 106.812 22.3423 107.305 22.7454C107.798 23.1484 108.285 23.5597 108.764 23.9794C109.61 24.7166 110.355 25.5489 111.181 26.297C107.446 28.5217 103.353 30.4433 99.2241 31.8006C97.7651 27.7929 96.2014 23.8338 94.1964 20.0613C92.8968 17.6162 91.4286 15.322 89.894 13.022Z" fill="#8EE1E3"/>
<path d="M26.5933 111.348C30.444 109.144 34.4623 107.417 38.5996 105.836C41.1141 112.538 44.1746 118.973 48.3537 124.815C47.2269 124.609 45.9894 124.001 44.9356 123.556C38.4663 120.825 31.4716 116.447 26.5933 111.348Z" fill="#8EE1E3"/>
<path d="M19.8179 26.7817C21.1115 27.6921 22.4126 28.5813 23.7629 29.406C17.6233 36.4926 13.3289 44.1984 10.8067 53.2412C9.58149 57.6335 8.85607 61.9324 8.68067 66.4947C7.1685 66.4844 5.59231 66.3814 4.08676 66.5019C4.0779 66.4677 4.06408 66.4346 4.06019 66.3996C4.0088 65.9379 4.09133 65.3874 4.12036 64.9187C4.23302 63.0991 4.42847 61.2886 4.70672 59.487C6.54918 47.5507 11.5308 35.6962 19.8179 26.7817Z" fill="white"/>
<path d="M4.02759 70.2788C5.55059 70.3885 7.11485 70.3213 8.64265 70.3093C8.81271 73.0005 8.97516 75.6895 9.40017 78.356C9.49547 78.933 9.59903 79.5085 9.71086 80.0826C9.82269 80.6567 9.94273 81.2291 10.071 81.7997C10.1993 82.3703 10.3357 82.9389 10.4803 83.5056C10.6249 84.0723 10.7776 84.6368 10.9384 85.1991C11.0992 85.7614 11.268 86.3213 11.4449 86.8787C11.6218 87.4362 11.8067 87.9911 11.9995 88.5432C12.1923 89.0954 12.393 89.6446 12.6016 90.191C12.8102 90.7374 13.0266 91.2807 13.2508 91.8208C13.475 92.3609 13.7069 92.8978 13.9465 93.4313C14.1861 93.9648 14.4333 94.4948 14.6881 95.0212C14.943 95.5477 15.2053 96.0703 15.4752 96.5892C15.745 97.108 16.0222 97.6229 16.3069 98.1338C16.5916 98.6448 16.8835 99.1515 17.1826 99.6541C17.4818 100.157 17.7881 100.655 18.1016 101.148C18.4151 101.642 18.7356 102.131 19.0631 102.616C19.3907 103.1 19.7251 103.58 20.0664 104.055C21.1902 105.602 22.486 106.986 23.695 108.461C22.3756 109.251 21.0997 110.114 19.7852 110.913C18.335 109.371 17.0948 107.741 15.8603 106.022C8.58252 95.8874 4.14693 82.7818 4.02759 70.2788Z" fill="white"/>
<path d="M70.7444 10.063C73.1858 10.0911 75.6203 10.236 78.0478 10.4979C79.2699 10.6277 82.2356 11.2448 83.2833 11.1006C88.9374 16.8311 93.0336 25.5872 95.5682 33.1293C94.1355 33.5828 92.6917 33.9974 91.2367 34.3733C89.7817 34.7492 88.3177 35.0858 86.8446 35.3831C85.3716 35.6804 83.8917 35.938 82.4048 36.1559C80.9179 36.3738 79.4263 36.5517 77.9299 36.6895C75.5529 36.9286 73.1404 37.1205 70.7497 37.0824L70.7444 10.063Z" fill="#8EE1E3"/>
<path d="M42.3337 104.503C43.3275 104.188 44.3267 103.891 45.3314 103.612C46.3361 103.334 47.3456 103.074 48.36 102.832C49.3743 102.591 50.3928 102.369 51.4153 102.165C52.4379 101.962 53.4639 101.777 54.4933 101.612C55.5227 101.446 56.5547 101.3 57.5895 101.172C58.6243 101.045 59.6611 100.937 60.7 100.848C61.7387 100.759 62.7788 100.689 63.8202 100.638C64.8616 100.588 65.9036 100.557 66.9462 100.545L66.948 107.317C66.9459 108.145 66.8016 110.001 67.0082 110.727L65.769 111.054L65.8402 115.221C65.8471 115.864 65.74 116.694 65.8915 117.313L65.9744 117.378C65.8493 117.483 65.8668 117.424 65.8571 117.535C65.7349 118.928 65.8339 120.41 65.8353 121.814L65.8388 130.065C65.8392 131.323 65.9694 132.74 65.8027 133.979C61.4633 132.646 57.9509 129.778 54.8504 126.567C54.1846 126.031 53.5382 125.142 52.9899 124.478C48.6131 119.176 44.4677 111.064 42.3337 104.503Z" fill="#8EE1E3"/>
<path d="M54.8503 126.567C55.2696 126.434 57.1646 126.994 57.6945 127.104C60.3589 127.655 63.062 127.968 65.7664 128.247L65.758 131.939C65.7573 132.592 65.6982 133.336 65.8027 133.979C61.4632 132.646 57.9508 129.778 54.8503 126.567Z" fill="white"/>
<path d="M53.7505 11.6543C57.4589 7.6257 61.393 5.36628 66.8818 4.51807C66.9999 5.76252 66.9361 7.07507 66.9332 8.32785L66.9241 14.9142L66.9454 37.0636C65.2094 37.0459 63.4755 36.9766 61.7437 36.8556C60.0119 36.7347 58.2852 36.5623 56.5636 36.3385C54.842 36.1147 53.1286 35.8398 51.4234 35.5139C49.7183 35.188 48.0243 34.8116 46.3415 34.3848C44.8809 34.0098 43.318 33.6329 41.9248 33.0493C44.6446 25.3532 48.1658 17.7271 53.7505 11.6543Z" fill="#8EE1E3"/>
<path d="M53.7505 11.6543C57.4589 7.6257 61.393 5.36628 66.8818 4.51807C66.7576 6.35157 66.855 8.25022 66.8581 10.091C64.0655 10.1849 61.2901 10.4556 58.532 10.903C56.9796 11.1515 55.3231 11.6432 53.7505 11.6543Z" fill="white"/>
<path d="M96.7636 36.843C98.5472 42.2782 99.6516 48.0217 100.287 53.6994C98.7716 53.6442 97.2445 53.6994 95.7275 53.7051L88.2558 53.7001C87.1074 53.699 85.9438 53.7423 84.7973 53.6906C89.0282 57.5805 93.3346 61.3819 97.534 65.3067C97.9879 65.7311 98.4981 66.1008 98.9458 66.5265C97.9484 66.6505 96.8404 66.5653 95.8333 66.564L89.8898 66.5547L70.7566 66.5541L70.7542 41.0405C79.8593 40.8667 88.04 39.3501 96.7636 36.843Z" fill="#8EE1E3"/>
<path d="M70.7717 70.288C80.641 70.2332 90.5102 70.2373 100.379 70.3002C100.358 73.4988 100.24 76.6698 99.8573 79.8483C99.7169 80.9852 99.5573 82.1194 99.3785 83.2509C99.2627 83.9774 99.0905 84.7265 99.0515 85.4588C98.3853 86.1868 97.8657 87.1138 97.289 87.9202C96.5581 88.9422 95.7607 89.9171 94.9631 90.8872C93.7325 92.4075 92.4431 93.8763 91.0951 95.2936C89.9749 96.4633 88.7846 97.5735 87.6786 98.7545C86.4443 98.3477 85.0589 98.1551 83.7799 97.9358C81.6262 97.5669 79.462 97.2768 77.2873 97.0655C75.1125 96.8541 72.9329 96.7219 70.7485 96.6691L70.7717 70.288Z" fill="#8EE1E3"/>
<path d="M23.7628 29.406C28.0319 31.8826 32.4348 33.7969 37.0135 35.6117C36.1984 38.6273 35.396 41.6338 34.7688 44.6956C34.4132 46.4923 34.0983 48.2961 33.8239 50.107C33.5497 51.918 33.3164 53.7341 33.1239 55.5555C32.9315 57.377 32.7802 59.2019 32.6701 61.0301C32.5599 62.8583 32.491 64.6881 32.4634 66.5194C25.6062 66.6479 18.7318 66.5635 11.8733 66.5462L6.42601 66.561C5.68023 66.5593 4.81345 66.6388 4.08667 66.5019C5.59222 66.3814 7.16841 66.4844 8.68058 66.4947C8.85598 61.9324 9.5814 57.6335 10.8066 53.2412C13.3288 44.1984 17.6232 36.4926 23.7628 29.406Z" fill="#8EE1E3"/>
<path d="M4.02759 70.2789C4.96375 70.1484 5.9863 70.2341 6.93375 70.2378L12.7887 70.2754L32.4366 70.3012C32.5012 77.7958 33.3161 85.4899 34.9281 92.8129C35.6169 95.942 36.5163 99.0012 37.3564 102.09C34.0139 103.333 30.7522 104.76 27.5712 106.372C26.2606 107.036 24.99 107.769 23.695 108.462C22.486 106.986 21.1902 105.602 20.0664 104.055C19.7251 103.58 19.3907 103.101 19.0631 102.616C18.7356 102.131 18.4151 101.642 18.1016 101.149C17.7881 100.655 17.4818 100.157 17.1826 99.6542C16.8835 99.1516 16.5916 98.6449 16.3069 98.134C16.0222 97.623 15.745 97.1081 15.4752 96.5893C15.2053 96.0704 14.943 95.5478 14.6881 95.0213C14.4333 94.495 14.1861 93.965 13.9465 93.4314C13.7069 92.8979 13.475 92.3611 13.2508 91.8209C13.0266 91.2808 12.8102 90.7375 12.6016 90.1911C12.393 89.6448 12.1923 89.0955 11.9995 88.5433C11.8067 87.9912 11.6218 87.4364 11.4449 86.8788C11.268 86.3214 11.0992 85.7616 10.9384 85.1993C10.7776 84.6369 10.6249 84.0724 10.4803 83.5057C10.3357 82.939 10.1993 82.3704 10.071 81.7998C9.94273 81.2292 9.82269 80.6568 9.71086 80.0827C9.59903 79.5087 9.49547 78.9331 9.40017 78.3561C8.97516 75.6896 8.81271 73.0006 8.64265 70.3094C7.11485 70.3214 5.55059 70.3887 4.02759 70.2789Z" fill="#8EE1E3"/>
<path d="M40.7417 36.7808C42.9851 37.5895 45.3528 38.1908 47.6775 38.7173C49.2548 39.0768 50.8405 39.395 52.4344 39.6719C54.0283 39.9489 55.6283 40.1842 57.2344 40.3778C58.8406 40.5715 60.4507 40.7232 62.0647 40.8331C63.6788 40.9429 65.2946 41.0106 66.9122 41.0364L66.926 66.5561L62.6586 66.5591L36.3996 66.5635C36.3818 64.4374 36.5086 62.3109 36.6462 60.1901C36.766 58.2086 36.9416 56.232 37.1731 54.2605C37.4044 52.2889 37.6911 50.3253 38.0332 48.3699C38.3753 46.4144 38.7722 44.4702 39.224 42.5372C39.6759 40.6041 40.1818 38.6853 40.7417 36.7808Z" fill="#8EE1E3"/>
<path d="M36.5129 70.2615L66.9157 70.2905L66.9523 96.6493C65.5287 96.6689 64.1025 96.754 62.6803 96.823C61.2588 96.9571 59.8331 97.0302 58.4117 97.1768C55.7829 97.4602 53.1703 97.8515 50.5738 98.3506C47.3615 98.9714 44.2525 99.8695 41.0918 100.696C40.4205 98.8075 39.9144 96.8485 39.4328 94.9044C39.018 93.2005 38.6449 91.4875 38.3135 89.7654C37.982 88.0435 37.6926 86.3144 37.4453 84.5783C37.1979 82.8421 36.9929 81.101 36.8302 79.3549C36.6676 77.6088 36.5475 75.8598 36.4698 74.1079C36.4232 73.1512 36.1892 71.1832 36.3753 70.3312L36.5129 70.2615Z" fill="#8EE1E3"/>
<path d="M0 0.5H65.4182C63.9929 0.69315 62.5378 0.716117 61.1055 0.862433C58.6148 1.11689 56.0937 1.54794 53.6481 2.08832C53.1639 2.1985 52.6808 2.31387 52.199 2.43443C51.7172 2.55499 51.2368 2.6807 50.7577 2.81157C50.2786 2.94244 49.801 3.07843 49.3248 3.21956C48.8486 3.36068 48.374 3.50689 47.901 3.6582C47.4279 3.80951 46.9565 3.96588 46.4868 4.12732C46.0171 4.28875 45.5492 4.4552 45.0831 4.62667C44.6169 4.79814 44.1527 4.9746 43.6904 5.15603C43.2281 5.33747 42.7678 5.52385 42.3095 5.71517C41.8511 5.90648 41.3949 6.1027 40.9408 6.30381C40.4867 6.50493 40.0348 6.71089 39.5851 6.9217C39.1354 7.13251 38.688 7.34812 38.243 7.56854C37.7979 7.78896 37.3553 8.01413 36.9151 8.24404C36.4749 8.47397 36.0371 8.70858 35.6019 8.94789C35.1667 9.1872 34.7341 9.43116 34.3041 9.67977C33.8742 9.92836 33.4469 10.1815 33.0224 10.4393C32.5979 10.6971 32.1762 10.9594 31.7574 11.2262C31.3384 11.493 30.9224 11.7643 30.5093 12.0401C30.0963 12.3158 29.6863 12.596 29.2792 12.8805C28.8721 13.1651 28.4682 13.454 28.0673 13.7472C27.6665 14.0404 27.2688 14.3379 26.8743 14.6397C26.4799 14.9415 26.0887 15.2474 25.7008 15.5576C25.3129 15.8677 24.9284 16.182 24.5473 16.5005C24.1661 16.8188 23.7884 17.1413 23.4142 17.4679C23.0399 17.7943 22.6692 18.1248 22.3021 18.4593C21.9349 18.7937 21.5714 19.1321 21.2115 19.4744C20.8517 19.8167 20.4955 20.1628 20.1431 20.5128C19.7906 20.8627 19.442 21.2164 19.0972 21.5738C18.7523 21.9312 18.4114 22.2923 18.0743 22.6569C17.7372 23.0217 17.404 23.39 17.0748 23.7619C16.7456 24.1337 16.4204 24.5091 16.0992 24.888C15.7781 25.2668 15.4611 25.6491 15.1482 26.0349C14.8353 26.4205 14.5265 26.8095 14.2219 27.2018C13.8061 27.7458 13.3984 28.2959 12.9989 28.8521C12.5994 29.4081 12.2083 29.9701 11.8256 30.5379C11.4429 31.1057 11.0686 31.6791 10.703 32.258C10.3373 32.8369 9.98034 33.4211 9.63206 34.0106C9.28379 34.6003 8.94438 35.1949 8.61381 35.7945C8.28324 36.3942 7.96167 36.9987 7.64911 37.6079C7.33654 38.2171 7.03311 38.8309 6.73882 39.4492C6.44453 40.0674 6.1595 40.69 5.88375 41.3168C5.608 41.9436 5.34163 42.5743 5.08465 43.209C4.82768 43.8437 4.5802 44.482 4.34224 45.1241C4.10427 45.7662 3.87591 46.4117 3.65717 47.0605C3.43842 47.7093 3.22938 48.3613 3.03004 49.0165C2.83071 49.6716 2.64117 50.3295 2.46144 50.9902C2.28169 51.651 2.11182 52.3142 1.95183 52.9799C1.79183 53.6458 1.64178 54.3138 1.50168 54.984C1.36158 55.6543 1.23148 56.3265 1.11139 57.0006C0.777972 58.8798 0.524119 60.7697 0.349837 62.6703C0.23817 63.9443 0.253126 65.3375 0 66.5845V12.3514V11.5091V0.5Z" fill="white"/>
<path d="M0 11.5092C0.305719 10.568 0.763154 9.75741 1.68861 9.29769C2.35239 8.96796 3.18983 8.95572 3.87687 9.22222C4.60137 9.50326 5.18933 10.1069 5.47964 10.8246C5.76735 11.5359 5.779 12.4118 5.45275 13.113C5.11529 13.8384 4.44823 14.3356 3.70247 14.5856C3.00577 14.8191 2.29646 14.7928 1.63339 14.4646C0.751484 14.028 0.296893 13.249 0 12.3514V11.5092Z" fill="#9F7ED1"/>
<path d="M107.915 62.9756L146.708 62.9896C146.703 69.0768 146.805 75.1646 146.76 81.2514C146.854 87.1483 146.788 93.06 146.766 98.958C145.69 97.9258 144.623 96.8844 143.566 95.8339C142.858 95.1285 142.073 94.1529 141.232 93.6242C141.018 93.4896 140.755 93.4386 140.505 93.4388C140.105 93.4389 139.729 93.5492 139.458 93.8538C138.728 94.6733 137.519 97.3118 136.843 98.4362C135.904 100.014 134.916 101.561 133.879 103.076C132.843 104.592 131.76 106.073 130.63 107.521C126.797 112.406 122.799 116.781 118.064 120.819C105.89 131.199 90.1175 138.19 74.1435 139.678C72.3608 139.849 70.5743 139.957 68.7839 140L68.7937 134.908C68.8154 129.794 68.8102 124.68 68.7781 119.566C77.5931 117.071 86.629 111.494 93.4797 105.503C94.0486 105.006 94.6108 104.503 95.1665 103.992C95.7222 103.481 96.2711 102.963 96.8133 102.437C97.3555 101.912 97.8907 101.38 98.4189 100.84C98.9471 100.301 99.4683 99.7551 99.9823 99.2022C100.496 98.6493 101.003 98.0897 101.502 97.5236C102.002 96.9575 102.494 96.385 102.978 95.806C103.463 95.2271 103.939 94.6419 104.409 94.0505C104.878 93.459 105.339 92.8615 105.793 92.2581C106.246 91.6547 106.692 91.0454 107.129 90.4303C107.567 89.8151 107.997 89.1944 108.418 88.5682C108.84 87.9419 109.253 87.3102 109.658 86.6731C110.063 86.036 110.459 85.3937 110.848 84.7462C111.236 84.0988 111.615 83.4463 111.987 82.7889C112.358 82.1316 112.72 81.4695 113.074 80.8027C113.428 80.1358 113.773 79.4645 114.109 78.7887C114.446 78.1128 114.773 77.4327 115.092 76.7483C115.628 75.6176 117.154 72.6608 117.18 71.6155C117.189 71.2357 116.915 70.9268 116.675 70.661C116.04 69.9569 115.198 69.3475 114.475 68.7255L110.595 65.3454C109.728 64.5966 108.808 63.8825 108.004 63.0668L107.915 62.9756Z" fill="#F8E076"/>
<path d="M72.7938 0.5H150V61.2787C149.653 60.6421 149.313 60.1404 148.575 59.9208C147.646 59.6445 144.204 59.8208 143.056 59.8205L131.328 59.818L111.005 59.8035C108.549 59.8057 106.085 59.7474 103.63 59.7935C103.254 59.8005 102.844 59.8484 102.517 60.05C102.182 60.2563 101.997 60.605 101.92 60.9815C101.858 61.2852 101.904 61.5818 102.078 61.8421C102.644 62.6892 106.556 65.8659 107.609 66.7895C108.987 68.0119 110.372 69.2269 111.763 70.4343C112.43 71.0129 113.092 71.6792 113.823 72.1704C111.942 76.2167 109.996 80.2222 107.667 84.0352C100.065 96.4832 88.6555 107.28 75.5016 113.647C73.1417 114.79 70.6484 115.724 68.1876 116.622C67.4543 116.886 66.7166 117.138 65.9744 117.378L65.8915 117.313C65.74 116.694 65.8471 115.863 65.8402 115.221L65.769 111.054L67.0082 110.727C68.2864 110.322 69.5231 109.801 70.7949 109.378C73.3203 108.511 77.8227 106.059 80.0675 104.543C81.3793 103.656 82.6234 102.548 84.0157 101.798C84.7521 101.615 87.0371 99.395 87.6786 98.7544C88.7845 97.5734 89.9749 96.4632 91.095 95.2936C92.4431 93.8763 93.7324 92.4075 94.9631 90.8872C95.7607 89.917 96.558 88.9421 97.289 87.9201C97.8657 87.1137 98.3853 86.1868 99.0515 85.4587C99.9545 84.5078 104.163 77.9568 104.292 76.9045C104.358 75.1673 104.395 73.4214 104.528 71.6879C104.023 71.081 103.329 70.54 102.748 70.0042L98.9458 66.5264C98.4982 66.1007 97.988 65.731 97.534 65.3066C93.3346 61.3818 89.0283 57.5804 84.7974 53.6905C85.9439 53.7422 87.1074 53.6989 88.2559 53.7L95.7276 53.705C97.2446 53.6993 98.7717 53.6441 100.287 53.6993C101.549 53.7228 102.811 53.6708 104.072 53.7288C103.616 49.7236 103.039 45.7779 102.133 41.8438C101.645 39.7271 101.017 37.6546 100.45 35.5596C105.092 33.726 109.809 31.8097 114.032 29.1162C115.367 28.3761 116.64 27.5145 117.916 26.6769C119.371 28.2723 120.685 30.0625 121.911 31.838C122.198 32.2495 122.479 32.6644 122.756 33.0825C123.033 33.5007 123.305 33.9221 123.572 34.3467C123.839 34.7713 124.101 35.199 124.357 35.6297C124.614 36.0605 124.866 36.4942 125.112 36.931C125.359 37.3677 125.6 37.8072 125.836 38.2496C126.073 38.692 126.303 39.1372 126.529 39.5851C126.755 40.033 126.975 40.4834 127.19 40.9364C127.405 41.3895 127.615 41.845 127.819 42.3031C128.023 42.7611 128.222 43.2215 128.416 43.6842C128.609 44.1469 128.797 44.6118 128.979 45.079C129.162 45.5461 129.339 46.0153 129.51 46.4866C129.681 46.958 129.847 47.4312 130.007 47.9064C130.167 48.3817 130.322 48.8588 130.471 49.3376C130.62 49.8165 130.763 50.2971 130.9 50.7794C131.038 51.2617 131.17 51.7455 131.296 52.2308C131.422 52.7163 131.542 53.2031 131.657 53.6913L135.782 53.6507C135.512 52.7883 135.319 51.8933 135.081 51.0206C134.706 49.6539 134.293 48.2984 133.844 46.9542C133.538 46.0446 133.214 45.1418 132.871 44.2458C132.528 43.3497 132.166 42.4611 131.786 41.5801C131.406 40.6989 131.008 39.8261 130.592 38.9615C130.176 38.097 129.742 37.2414 129.29 36.3948C128.839 35.5482 128.37 34.7114 127.883 33.8842C127.397 33.0572 126.894 32.2405 126.373 31.4343C125.853 30.628 125.317 29.8329 124.763 29.0489C124.21 28.2649 123.641 27.4928 123.056 26.7324C122.813 26.4188 122.567 26.1075 122.319 25.7983C122.071 25.489 121.82 25.182 121.567 24.8772C121.313 24.5724 121.057 24.2699 120.798 23.9696C120.539 23.6693 120.278 23.3713 120.014 23.0756C119.749 22.7799 119.483 22.4865 119.214 22.1955C118.944 21.9045 118.672 21.6158 118.398 21.3295C118.124 21.0433 117.847 20.7595 117.568 20.4781C117.288 20.1968 117.006 19.9179 116.722 19.6414C116.438 19.365 116.151 19.0912 115.862 18.8198C115.573 18.5484 115.282 18.2796 114.988 18.0134C114.694 17.7471 114.398 17.4834 114.1 17.2224C113.801 16.9613 113.5 16.7029 113.197 16.4472C112.895 16.1914 112.589 15.9383 112.282 15.6879C111.975 15.4375 111.665 15.1899 111.353 14.945C111.041 14.7 110.727 14.4578 110.411 14.2184C110.095 13.979 109.777 13.7423 109.457 13.5085C109.137 13.2747 108.815 13.0437 108.49 12.8155C108.166 12.5873 107.84 12.362 107.512 12.1396C107.183 11.9172 106.853 11.6976 106.521 11.481C106.189 11.2644 105.855 11.0507 105.519 10.84C105.183 10.6292 104.846 10.4214 104.506 10.2166C104.167 10.0118 103.826 9.80997 103.483 9.61115C103.14 9.41233 102.795 9.21655 102.448 9.02379C102.102 8.83104 101.754 8.64135 101.404 8.45472C101.054 8.26809 100.703 8.08455 100.35 7.9041C99.9966 7.72365 99.642 7.54631 99.2858 7.3721C98.9297 7.19788 98.572 7.0268 98.2128 6.85887C97.8537 6.69095 97.493 6.5262 97.1309 6.3646C96.7689 6.20302 96.4055 6.04463 96.0406 5.88944C95.6758 5.73424 95.3096 5.58227 94.942 5.43351C94.5745 5.28475 94.2057 5.13923 93.8356 4.99697C93.4656 4.85469 93.0943 4.71568 92.7217 4.57994C90.3674 3.68301 87.9664 2.93636 85.5187 2.33999C82.8271 1.701 80.1074 1.2228 77.3593 0.905384C75.8709 0.74162 74.3576 0.718414 72.8765 0.512033L72.7938 0.5Z" fill="white"/>
<path d="M104.528 71.688C105.042 72.2363 105.529 72.8074 105.99 73.4013C105.487 74.5261 105.012 75.9021 104.292 76.9046C104.357 75.1674 104.395 73.4215 104.528 71.688Z" fill="#8EE1E3"/>
<path d="M137.764 29.0003C138.373 28.9677 138.899 28.962 139.468 29.2288C139.511 29.2495 139.554 29.2713 139.596 29.2941C139.638 29.3171 139.68 29.341 139.721 29.366C139.762 29.391 139.802 29.4171 139.841 29.4441C139.881 29.4712 139.92 29.4992 139.958 29.5283C139.996 29.5574 140.033 29.5875 140.07 29.6184C140.107 29.6494 140.142 29.6813 140.177 29.7141C140.212 29.7469 140.246 29.7806 140.279 29.8152C140.313 29.8497 140.345 29.8851 140.376 29.9214C140.408 29.9576 140.438 29.9946 140.468 30.0324C140.497 30.0702 140.526 30.1087 140.553 30.148C140.581 30.1872 140.607 30.2272 140.633 30.2678C140.658 30.3083 140.682 30.3495 140.706 30.3914C140.729 30.4333 140.751 30.4758 140.773 30.5187C140.794 30.5617 140.814 30.6052 140.833 30.6492C140.852 30.6933 140.869 30.7378 140.886 30.7827C140.903 30.8277 140.918 30.8731 140.933 30.9188C140.961 31.0112 140.984 31.1049 141.003 31.1997C141.022 31.2945 141.037 31.3899 141.046 31.4861C141.056 31.5823 141.061 31.6787 141.061 31.7754C141.062 31.8721 141.057 31.9685 141.048 32.0647C141.039 32.161 141.025 32.2566 141.007 32.3515C140.988 32.4464 140.965 32.5401 140.937 32.6328C140.91 32.7254 140.878 32.8164 140.841 32.906C140.805 32.9954 140.764 33.0829 140.719 33.1685C140.282 33.9976 139.595 34.3921 138.734 34.656C138.109 34.7561 137.463 34.6758 136.898 34.3856C136.855 34.3635 136.812 34.3404 136.77 34.316C136.728 34.2917 136.687 34.2663 136.646 34.2399C136.605 34.2134 136.565 34.1859 136.526 34.1574C136.487 34.1289 136.448 34.0993 136.411 34.0688C136.373 34.0383 136.336 34.0069 136.3 33.9744C136.263 33.942 136.228 33.9087 136.194 33.8744C136.159 33.8401 136.126 33.805 136.094 33.7691C136.061 33.733 136.029 33.6962 135.999 33.6586C135.968 33.6209 135.938 33.5825 135.91 33.5433C135.881 33.5042 135.853 33.4643 135.827 33.4238C135.8 33.3832 135.775 33.3419 135.75 33.3C135.725 33.2581 135.702 33.2156 135.68 33.1724C135.658 33.1293 135.636 33.0856 135.616 33.0415C135.596 32.9972 135.578 32.9525 135.56 32.9073C135.542 32.8621 135.526 32.8165 135.51 32.7705C135.495 32.7244 135.481 32.6779 135.468 32.6312C135.455 32.5847 135.443 32.5379 135.432 32.4908C135.422 32.4437 135.412 32.3963 135.404 32.3487C135.396 32.3012 135.388 32.2535 135.382 32.2056C135.377 32.1577 135.372 32.1096 135.368 32.0615C135.365 32.0133 135.362 31.9651 135.361 31.9168C135.36 31.8685 135.36 31.8203 135.361 31.772C135.362 31.7237 135.365 31.6755 135.368 31.6273C135.372 31.5792 135.377 31.5312 135.383 31.4833C135.389 31.4354 135.396 31.3876 135.404 31.3401C135.413 31.2925 135.422 31.2452 135.433 31.1981C135.444 31.151 135.455 31.1043 135.468 31.0578C135.481 31.0113 135.496 30.9652 135.511 30.9194C135.526 30.8736 135.543 30.8281 135.56 30.7831C135.578 30.7382 135.597 30.6937 135.616 30.6497C135.636 30.6056 135.657 30.5621 135.679 30.519C135.701 30.476 135.724 30.4336 135.748 30.3917C136.205 29.6061 136.914 29.2301 137.764 29.0003Z" fill="#9F7ED1"/>
<path d="M133.617 0.618164C134.588 1.48614 135.013 4.34212 136.31 5.58734C137.342 6.57826 140.829 7.66703 141.214 8.22931C141.196 8.42497 141.163 8.49052 141.007 8.61622C140.506 9.01779 139.666 9.24731 139.074 9.50591C138.317 9.83682 137.355 10.3118 136.694 10.7994C135.072 11.995 134.874 14.4976 133.753 16.0757C133.624 16.0485 133.531 16.0243 133.443 15.9187C133.178 15.6017 133.038 15.0612 132.885 14.6817C132.464 13.641 132.058 12.4781 131.387 11.5724C130.105 9.842 127.578 9.62129 125.912 8.38756C125.888 8.37017 125.865 8.35202 125.842 8.33425C127.638 7.18851 130.732 6.66552 131.752 4.64433C132.396 3.36757 132.783 1.88058 133.57 0.687441C133.585 0.664108 133.601 0.641257 133.617 0.618164Z" fill="#F8E076"/>
<path d="M114.032 29.1162C115.181 30.6676 116.44 32.1323 117.546 33.716C121.753 39.7363 125.088 46.5583 126.928 53.6809L113.241 53.7033C111.097 53.7287 108.953 53.737 106.809 53.7281C105.902 53.7262 104.976 53.7711 104.071 53.7288C103.616 49.7236 103.039 45.7779 102.132 41.8438C101.645 39.7271 101.017 37.6546 100.45 35.5596C105.091 33.7261 109.809 31.8098 114.032 29.1162Z" fill="#8EE1E3"/>
<path d="M0 71.0964C0.169585 72.3024 0.199396 73.5401 0.312398 74.7542C0.514129 76.9212 0.80335 79.116 1.22139 81.2522C4.65375 98.7917 13.5455 113.001 27.8234 123.771C28.4074 124.205 28.9979 124.631 29.5948 125.047C30.1918 125.464 30.795 125.871 31.4043 126.27C32.0137 126.668 32.629 127.057 33.2502 127.436C33.8714 127.816 34.4982 128.186 35.1308 128.546C35.7632 128.907 36.4009 129.257 37.044 129.598C37.6872 129.939 38.3354 130.271 38.9886 130.592C39.6417 130.913 40.2996 131.225 40.9623 131.526C41.625 131.827 42.2921 132.118 42.9636 132.399C43.6351 132.68 44.3107 132.951 44.9905 133.212C45.6703 133.472 46.3538 133.722 47.0411 133.962C47.7285 134.201 48.4194 134.43 49.1137 134.649C49.8081 134.868 50.5056 135.076 51.2062 135.273C51.9069 135.471 52.6105 135.657 53.3168 135.833C54.0231 136.01 54.732 136.175 55.4433 136.329C56.1546 136.484 56.8682 136.627 57.584 136.76C58.2998 136.893 59.0173 137.015 59.7368 137.126C61.7164 137.435 63.7702 137.816 65.776 137.849C65.7788 138.747 65.5477 142.126 66.1446 142.744C66.5805 143.195 67.569 143.124 68.1482 143.105C68.8492 143.084 69.5498 143.054 70.25 143.016C70.9502 142.977 71.6499 142.93 72.3489 142.874C73.048 142.818 73.7462 142.753 74.4436 142.68C75.141 142.606 75.8374 142.524 76.5328 142.433C77.2282 142.342 77.9224 142.243 78.6152 142.135C79.3081 142.026 79.9995 141.91 80.6895 141.784C81.3794 141.659 82.0677 141.524 82.7543 141.382C83.4409 141.239 84.1256 141.088 84.8084 140.928C85.4913 140.768 86.172 140.6 86.8506 140.423C87.5292 140.246 88.2055 140.06 88.8795 139.867C89.5536 139.673 90.225 139.471 90.8939 139.26C91.5628 139.05 92.229 138.831 92.8925 138.603C93.556 138.376 94.2165 138.141 94.874 137.897C95.5316 137.653 96.186 137.401 96.8373 137.141C97.4886 136.881 98.1365 136.613 98.781 136.337C99.4255 136.06 100.067 135.776 100.704 135.484C101.341 135.191 101.975 134.891 102.605 134.583C103.235 134.275 103.861 133.959 104.483 133.635C105.105 133.311 105.723 132.979 106.337 132.64C106.95 132.301 107.56 131.954 108.165 131.599C108.77 131.245 109.371 130.883 109.967 130.513C110.563 130.144 111.154 129.767 111.74 129.383C112.327 128.998 112.909 128.607 113.486 128.208C114.062 127.809 114.634 127.403 115.201 126.99C115.767 126.577 116.329 126.156 116.885 125.729C117.441 125.302 117.992 124.868 118.537 124.427C119.082 123.986 119.622 123.538 120.156 123.084C120.69 122.629 121.219 122.168 121.741 121.7C122.264 121.233 122.78 120.759 123.291 120.278C123.802 119.797 124.306 119.31 124.805 118.817C125.304 118.324 125.796 117.825 126.282 117.319C126.768 116.814 127.248 116.302 127.721 115.785C131.538 111.686 135.02 107.088 138.068 102.392C139.079 100.832 139.94 99.1702 140.951 97.6154L144.781 101.369C145.559 102.129 146.429 103.161 147.368 103.707C147.633 103.86 147.989 103.922 148.292 103.91C148.819 103.89 149.291 103.615 149.632 103.222C149.768 103.066 149.891 102.902 150 102.727V150.5H94.3572H92.8884H0V71.0964Z" fill="white"/>
<path d="M5.97745 118.87C6.61361 118.816 7.16785 118.812 7.76391 119.091C8.4634 119.418 9.00049 120.054 9.2405 120.785C9.47901 121.51 9.42885 122.341 9.07467 123.022C8.67733 123.785 7.97971 124.233 7.17964 124.485C6.61228 124.574 6.10808 124.571 5.56574 124.358C5.52103 124.34 5.47681 124.321 5.43307 124.301C5.38933 124.281 5.34613 124.26 5.30347 124.237C5.26082 124.215 5.21876 124.192 5.17732 124.167C5.13586 124.143 5.09506 124.117 5.05492 124.091C5.01477 124.064 4.97533 124.037 4.9366 124.008C4.89787 123.98 4.8599 123.95 4.8227 123.919C4.78548 123.889 4.74907 123.858 4.71348 123.825C4.67787 123.793 4.64312 123.759 4.60924 123.725C4.57535 123.691 4.54236 123.656 4.51026 123.62C4.47817 123.584 4.44702 123.548 4.4168 123.51C4.3866 123.473 4.35737 123.435 4.32912 123.396C4.30086 123.357 4.27363 123.317 4.24742 123.277C4.22121 123.236 4.19605 123.195 4.17195 123.154C4.14784 123.112 4.12482 123.07 4.10289 123.027C4.08094 122.984 4.06012 122.941 4.04041 122.897C4.02069 122.853 4.00212 122.809 3.98469 122.764C3.6899 122.004 3.72232 121.096 4.08082 120.363C4.47493 119.557 5.15344 119.136 5.97745 118.87Z" fill="#9F7ED1"/>
<path d="M92.8883 150.5C92.0179 150.144 91.2322 149.69 90.8387 148.78C90.5431 148.098 90.584 147.274 90.8732 146.596C90.8925 146.551 90.9129 146.506 90.9345 146.462C90.9561 146.418 90.9788 146.374 91.0025 146.331C91.0262 146.288 91.051 146.246 91.0769 146.204C91.1028 146.162 91.1297 146.121 91.1576 146.08C91.1854 146.04 91.2143 146 91.2442 145.961C91.2741 145.922 91.3049 145.884 91.3368 145.846C91.3685 145.808 91.4012 145.772 91.4349 145.736C91.4685 145.7 91.503 145.665 91.5383 145.631C91.5737 145.596 91.6099 145.563 91.6469 145.531C91.6839 145.498 91.7217 145.467 91.7603 145.436C91.7988 145.406 91.8381 145.376 91.8782 145.348C91.9182 145.319 91.959 145.292 92.0005 145.265C92.0419 145.238 92.0839 145.213 92.1266 145.188C92.1693 145.164 92.2126 145.141 92.2564 145.118C92.3002 145.096 92.3446 145.075 92.3896 145.055C92.4345 145.035 92.4798 145.016 92.5256 144.998C93.2396 144.723 94.1069 144.718 94.807 145.04C95.5174 145.365 96.0038 146.031 96.2636 146.752C96.4964 147.397 96.5472 148.178 96.2318 148.807C95.8173 149.633 95.2025 150.148 94.3571 150.5H92.8883Z" fill="#9F7ED1"/>
<path d="M124.476 138.218C124.553 138.211 124.631 138.207 124.709 138.207C124.786 138.206 124.864 138.208 124.941 138.214C125.019 138.219 125.096 138.228 125.173 138.24C125.25 138.252 125.326 138.267 125.402 138.285C125.477 138.303 125.552 138.324 125.626 138.348C125.7 138.372 125.773 138.399 125.845 138.428C125.916 138.458 125.987 138.491 126.056 138.527C126.125 138.562 126.192 138.601 126.258 138.642C126.299 138.668 126.34 138.696 126.379 138.724C126.419 138.753 126.458 138.782 126.496 138.812C126.534 138.843 126.571 138.874 126.608 138.906C126.644 138.939 126.68 138.972 126.715 139.006C126.75 139.04 126.784 139.075 126.817 139.111C126.85 139.146 126.882 139.183 126.913 139.22C126.945 139.258 126.975 139.296 127.004 139.335C127.034 139.374 127.062 139.413 127.09 139.454C127.117 139.494 127.143 139.535 127.169 139.576C127.194 139.618 127.218 139.66 127.241 139.703C127.265 139.746 127.287 139.789 127.308 139.833C127.329 139.877 127.349 139.922 127.368 139.967C127.386 140.012 127.404 140.057 127.421 140.103C127.437 140.149 127.453 140.195 127.467 140.242C127.481 140.288 127.494 140.335 127.506 140.383C127.518 140.43 127.528 140.477 127.538 140.525C127.547 140.573 127.555 140.622 127.562 140.67C127.569 140.719 127.575 140.767 127.579 140.816C127.584 140.865 127.587 140.914 127.589 140.963C127.592 141.012 127.593 141.061 127.592 141.11C127.592 141.159 127.59 141.208 127.588 141.257C127.585 141.306 127.581 141.355 127.576 141.404C127.571 141.452 127.564 141.501 127.557 141.549C127.549 141.598 127.54 141.646 127.53 141.694C127.52 141.742 127.509 141.79 127.497 141.837C127.484 141.885 127.471 141.932 127.456 141.979C127.442 142.025 127.426 142.072 127.409 142.118C127.392 142.164 127.374 142.209 127.354 142.254C127.335 142.3 127.315 142.344 127.294 142.388C127.272 142.432 127.25 142.476 127.226 142.519C127.202 142.562 127.178 142.604 127.152 142.646C127.126 142.688 127.1 142.729 127.072 142.769C126.566 143.509 125.838 143.862 124.981 144.03C124.304 144.058 123.607 143.884 123.044 143.505C123.003 143.478 122.963 143.45 122.924 143.421C122.885 143.392 122.847 143.361 122.809 143.33C122.771 143.299 122.734 143.267 122.699 143.234C122.663 143.201 122.628 143.167 122.593 143.132C122.559 143.097 122.526 143.061 122.494 143.025C122.461 142.988 122.43 142.951 122.4 142.912C122.369 142.874 122.34 142.835 122.312 142.795C122.283 142.755 122.256 142.715 122.23 142.674C122.204 142.633 122.178 142.591 122.154 142.548C122.13 142.506 122.107 142.463 122.086 142.419C122.064 142.375 122.043 142.331 122.024 142.286C122.004 142.242 121.986 142.196 121.969 142.15C121.951 142.105 121.936 142.059 121.921 142.012C121.906 141.966 121.892 141.919 121.88 141.871C121.868 141.824 121.857 141.777 121.847 141.729C121.837 141.681 121.828 141.633 121.821 141.585C121.704 140.819 121.891 140.002 122.355 139.379C122.885 138.669 123.618 138.334 124.476 138.218Z" fill="#9F7ED1"/>
<path d="M10.999 133.754C11.1461 133.797 11.2309 133.836 11.3255 133.964C11.5564 134.275 11.6987 134.705 11.8502 135.06C12.3169 136.152 12.8766 137.839 13.6169 138.738C14.6314 139.971 18.3783 140.798 18.828 141.507C18.1293 142.384 14.6347 142.92 13.3871 144.593C12.431 145.874 11.9136 147.63 11.2332 149.076L11.0617 149.113C10.539 148.748 9.39708 145.061 8.27644 144.003C7.29088 143.073 3.92584 142.144 3.49292 141.582C3.69637 141.137 7.5737 139.715 8.47821 138.912C9.47648 138.027 10.3138 135.05 10.999 133.754Z" fill="#F8E076"/>
</g>
<defs>
<clipPath id="clip0_47_1582">
<rect width="150" height="150" fill="white" transform="translate(0 0.5)"/>
</clipPath>
</defs>
</svg>
