<svg width="150" height="151" viewBox="0 0 150 151" fill="none" xmlns="http://www.w3.org/2000/svg">
<g clip-path="url(#clip0_47_1518)">
<path d="M0 0.5H65.5627H67.3737H83.238H85.5223H150V86.2641V150.5H84.8407H75.8495H0V41.387V40.5295V0.5Z" fill="white"/>
<path d="M35.209 13.9108C35.6987 13.8877 36.1461 13.9424 36.579 14.1902C36.6416 14.226 36.7024 14.2649 36.7612 14.3068C36.82 14.3487 36.8765 14.3935 36.9308 14.441C36.9851 14.4886 37.0369 14.5388 37.0862 14.5915C37.1355 14.6443 37.1821 14.6993 37.2258 14.7568C37.2697 14.8142 37.3105 14.8736 37.3483 14.9351C37.3861 14.9966 37.4207 15.0598 37.4523 15.1248C37.4838 15.1898 37.512 15.2561 37.5368 15.3239C37.5617 15.3917 37.5831 15.4605 37.6011 15.5305C37.7507 16.1154 37.6597 16.736 37.3257 17.2418C36.9482 17.8136 36.4083 18.0668 35.7611 18.2136C35.354 18.2485 34.9492 18.1976 34.5762 18.0257C34.0483 17.7821 33.6627 17.3401 33.4774 16.7904C33.4548 16.7228 33.4354 16.6543 33.4194 16.5849C33.4035 16.5154 33.391 16.4454 33.3819 16.3747C33.3728 16.304 33.3673 16.2331 33.3652 16.1618C33.3631 16.0906 33.3645 16.0195 33.3695 15.9484C33.3744 15.8773 33.3827 15.8066 33.3945 15.7364C33.4064 15.6661 33.4217 15.5966 33.4404 15.5278C33.4591 15.4591 33.4811 15.3914 33.5064 15.3248C33.5318 15.2583 33.5604 15.1931 33.5921 15.1293C33.9418 14.4295 34.4959 14.1315 35.209 13.9108Z" fill="#101055"/>
<path d="M142.66 23.1472C143.076 23.1689 143.479 23.2446 143.84 23.4601C144.346 23.7625 144.692 24.248 144.825 24.8217C144.958 25.394 144.876 26.0051 144.555 26.5021C144.134 27.155 143.534 27.3825 142.809 27.5208C142.341 27.4757 141.9 27.3957 141.499 27.1353C141.011 26.818 140.679 26.3404 140.564 25.7677C140.551 25.6984 140.54 25.6287 140.533 25.5585C140.526 25.4883 140.523 25.4179 140.523 25.3473C140.523 25.2768 140.527 25.2064 140.534 25.1362C140.541 25.066 140.551 24.9963 140.565 24.9271C140.579 24.8579 140.597 24.7896 140.618 24.7222C140.639 24.6547 140.663 24.5885 140.69 24.5236C140.718 24.4585 140.748 24.395 140.782 24.333C140.816 24.271 140.852 24.2108 140.892 24.1525C141.321 23.5278 141.945 23.2801 142.66 23.1472Z" fill="#101055"/>
<path d="M29.5707 135.423C29.9464 135.399 30.3351 135.431 30.6893 135.564C30.7555 135.588 30.8203 135.616 30.8838 135.647C30.9472 135.678 31.0088 135.712 31.0687 135.749C31.1286 135.787 31.1865 135.827 31.2422 135.87C31.298 135.914 31.3514 135.96 31.4025 136.009C31.4535 136.057 31.5019 136.108 31.5477 136.162C31.5935 136.216 31.6364 136.272 31.6764 136.33C31.7166 136.388 31.7536 136.448 31.7875 136.51C31.8213 136.572 31.852 136.635 31.8794 136.701C31.9085 136.77 31.9339 136.841 31.9556 136.913C31.9772 136.985 31.995 137.058 32.0089 137.132C32.0229 137.207 32.033 137.281 32.0391 137.356C32.0453 137.431 32.0475 137.507 32.0458 137.582C32.0441 137.657 32.0384 137.732 32.0287 137.807C32.0191 137.882 32.0057 137.956 31.9883 138.029C31.9709 138.102 31.9497 138.175 31.9247 138.246C31.8997 138.317 31.8711 138.387 31.8389 138.455C31.5197 139.146 30.9811 139.499 30.2926 139.75C29.7312 139.817 29.2205 139.776 28.7243 139.482C28.2233 139.184 27.8765 138.688 27.7405 138.124C27.7237 138.054 27.7104 137.983 27.7005 137.911C27.6907 137.84 27.6843 137.768 27.6815 137.696C27.6786 137.623 27.6792 137.551 27.6834 137.479C27.6876 137.407 27.6953 137.335 27.7064 137.264C27.7175 137.192 27.7321 137.122 27.7502 137.052C27.7682 136.982 27.7895 136.913 27.8144 136.845C27.8391 136.777 27.867 136.71 27.8983 136.645C27.9295 136.58 27.9639 136.516 28.0013 136.455C28.3688 135.859 28.9146 135.592 29.5707 135.423Z" fill="#101055"/>
<path d="M1.8675 87.6062C2.2331 87.5805 2.62118 87.6075 2.96662 87.736C3.02675 87.7588 3.08561 87.7845 3.14321 87.813C3.20081 87.8416 3.25687 87.873 3.31138 87.907C3.36591 87.9411 3.41863 87.9778 3.46954 88.0172C3.52045 88.0565 3.56931 88.0981 3.61613 88.1422C3.66295 88.1863 3.70749 88.2326 3.74975 88.281C3.79202 88.3295 3.83181 88.3799 3.86912 88.4323C3.90643 88.4847 3.94108 88.5387 3.97307 88.5945C4.00507 88.6503 4.03426 88.7075 4.06062 88.7662C4.33921 89.3759 4.33607 90.1229 4.08388 90.7408C3.78797 91.4657 3.31175 91.8123 2.61857 92.1003C1.99285 92.1684 1.41466 92.1875 0.86897 91.8173C0.424156 91.5154 0.199832 91.0699 0.119067 90.5489C0.00827985 89.8341 -0.00333533 88.8224 0.464959 88.2361C0.841506 87.7647 1.30427 87.6801 1.8675 87.6062Z" fill="#101055"/>
<path d="M4.33573 35.8503C4.64118 35.3618 5.03246 34.9292 5.61505 34.787C6.03694 34.6841 6.5365 34.795 6.89629 35.0315C7.33068 35.317 7.54991 35.8105 7.62823 36.3095C7.78431 37.304 7.63475 38.3732 7.66622 39.3803C8.7052 39.367 10.741 39.0085 11.5073 39.767C11.8291 40.0855 11.9994 40.556 11.9928 41.0054C11.9865 41.4388 11.8274 41.8838 11.509 42.1858C10.7273 42.9271 8.67217 42.5657 7.61707 42.6059C7.62332 43.6128 7.9021 45.8558 7.22525 46.5757C6.92099 46.8995 6.48141 47.0654 6.04124 47.0685C5.59329 47.0716 5.13543 46.9008 4.82423 46.5727C4.01533 45.72 4.32413 43.7148 4.32245 42.6082C3.24792 42.6013 1.20404 42.8807 0.432259 42.0995C0.241223 41.9061 0.116727 41.63 0 41.3871V40.5296C0.198489 40.0444 0.366637 39.7192 0.872024 39.5137C1.73864 39.1613 3.34059 39.3851 4.32129 39.3791C4.30986 38.2323 4.20067 36.9838 4.33573 35.8503Z" fill="#101055"/>
<path d="M143.544 120.192C143.658 120.176 143.77 120.159 143.885 120.154C144.37 120.131 144.88 120.266 145.229 120.618C146.066 121.462 145.761 123.525 145.759 124.658C146.813 124.702 148.463 124.362 149.3 125.126C149.685 125.477 149.881 125.994 149.905 126.509C149.921 126.897 149.81 127.253 149.528 127.528C148.683 128.354 146.873 128.089 145.767 128.082C145.759 129.063 145.991 130.655 145.56 131.521C145.283 132.077 144.843 132.279 144.275 132.454C143.701 132.436 143.216 132.382 142.8 131.942C142.004 131.101 142.308 129.159 142.317 128.056C141.209 127.994 139.255 128.363 138.391 127.555C138.044 127.23 137.915 126.775 137.913 126.311C137.91 125.868 138.028 125.42 138.358 125.105C139.127 124.372 141.293 124.639 142.348 124.646C142.361 123.637 142.112 122.293 142.417 121.341C142.613 120.729 142.985 120.465 143.544 120.192Z" fill="#101055"/>
<path d="M65.5626 0.5H67.3736H83.2379H85.5222C86.346 0.689089 87.1833 0.792677 87.9976 1.02561C88.1647 1.07376 88.3306 1.12575 88.4952 1.18158C88.6599 1.2374 88.8233 1.29701 88.9852 1.36038C89.1471 1.42376 89.3075 1.49085 89.4663 1.56165C89.625 1.63245 89.7821 1.70687 89.9375 1.78494C90.0929 1.863 90.2464 1.94462 90.398 2.02978C90.5496 2.11494 90.6992 2.20355 90.8467 2.29563C90.9942 2.38771 91.1394 2.48315 91.2825 2.58195C91.4256 2.68075 91.5663 2.78281 91.7047 2.88812C91.8431 2.99342 91.9789 3.10187 92.1123 3.21346C92.2456 3.32505 92.3763 3.43967 92.5043 3.55732C92.6325 3.67496 92.7578 3.79549 92.8802 3.91892C93.0027 4.04234 93.1222 4.16854 93.2388 4.2975C93.3555 4.42646 93.4691 4.55805 93.5797 4.69227C93.6902 4.82648 93.7976 4.96318 93.9018 5.10236C94.006 5.24154 94.107 5.38306 94.2047 5.52692C94.3024 5.67077 94.3967 5.8168 94.4876 5.96501C96.3964 9.02092 96.8316 12.8458 95.9999 16.3231C94.176 23.9488 86.9198 30.8886 80.4321 34.8337C79.4477 35.4324 77.3927 36.7648 76.3582 37.0889C75.9922 37.2036 75.6077 37.2367 75.2331 37.1467C74.0242 36.8563 72.7244 35.9749 71.6499 35.3565C66.1161 32.1724 60.864 27.8769 57.6009 22.3C56.0848 19.7086 55.1293 17.0447 54.7426 14.0601C54.4637 11.0513 55.0947 8.05832 56.8492 5.56709C58.9374 2.60193 62.0738 1.10509 65.5626 0.5Z" fill="#101055"/>
<path d="M67.3738 0.5H83.238C79.8989 1.22167 77.7342 2.00959 75.5397 4.75549C73.2837 1.93822 70.8261 1.08391 67.3738 0.5Z" fill="white"/>
<path d="M76.657 9.93804C76.9668 9.33086 77.1867 8.68785 77.489 8.07892C78.3555 6.33363 79.7321 5.00446 81.5935 4.38901C83.7429 3.67829 86.3871 3.8336 88.4115 4.85991C90.3896 5.86281 91.8156 7.67121 92.4981 9.76744C93.4451 12.676 92.9349 15.9413 91.5435 18.6156L91.5136 18.6719C91.4791 18.2462 91.7711 17.7256 91.9101 17.3241C92.6374 15.2232 92.8823 13.1749 91.9949 11.0802C91.2477 9.31599 89.8416 8.11536 88.0833 7.40718C85.8256 6.49776 82.9211 6.3866 80.6484 7.31332C79.942 7.60138 79.2396 8.05003 78.6159 8.48553C78.1637 8.8013 77.1723 9.77383 76.7381 9.92059C76.7119 9.92945 76.6841 9.93222 76.657 9.93804Z" fill="white"/>
<path d="M75.5489 33.4655C75.5255 33.4567 75.5019 33.4484 75.4787 33.4392C74.0515 32.8644 72.6441 31.9736 71.3568 31.1357C66.3866 27.9007 61.7666 23.591 59.3833 18.0624C58.2056 15.3305 57.595 11.9805 58.7401 9.13063C59.5638 7.08086 61.1549 5.53609 63.1853 4.6929C65.2609 3.83099 67.8637 3.7254 69.956 4.59524C72.3025 5.57075 73.535 7.63661 74.469 9.88608C74.4333 9.8788 74.3974 9.87269 74.3621 9.86422C73.9011 9.75402 72.7061 8.64818 72.2139 8.32124C69.3821 6.44005 65.3246 6.11475 62.2978 7.76667C60.802 8.583 59.5458 9.965 59.0734 11.6196C58.3861 14.0271 59.088 16.5872 60.2914 18.7049C63.1842 23.7962 68.7566 28.3235 73.7871 31.147C74.5185 31.5582 75.2714 31.9254 76.0458 32.2485C76.3886 32.3931 76.7949 32.5021 77.1178 32.6796C76.6015 32.9634 76.091 33.2344 75.5489 33.4655Z" fill="white"/>
<path d="M76.6571 9.93791C76.6842 9.9321 76.7121 9.92933 76.7383 9.92047C77.1725 9.77371 78.1639 8.80118 78.6161 8.4854C79.2398 8.04991 79.9422 7.60125 80.6485 7.31319C82.9212 6.38647 85.8257 6.49764 88.0835 7.40706C89.8417 8.11524 91.2479 9.31587 91.9951 11.0801C92.8825 13.1748 92.6376 15.2231 91.9103 17.324C91.7712 17.7255 91.4793 18.2461 91.5137 18.6718C91.1438 19.6342 90.4611 20.5847 89.8713 21.4302C89.5368 21.9081 89.1908 22.3776 88.8335 22.8387C88.4761 23.2998 88.1077 23.7519 87.7283 24.1951C87.3488 24.6382 86.9588 25.0718 86.5583 25.4959C86.1577 25.92 85.7471 26.3342 85.3264 26.7384C84.9057 27.1425 84.4753 27.5361 84.0354 27.9193C83.5956 28.3024 83.1466 28.6746 82.6886 29.036C82.2305 29.3972 81.764 29.7471 81.289 30.0857C80.8139 30.4243 80.3308 30.7511 79.8398 31.0661C78.9832 31.6252 78.0895 32.2144 77.1676 32.6601C77.1517 32.6679 77.1345 32.6732 77.118 32.6796C76.7951 32.5021 76.3888 32.3931 76.046 32.2485C75.2716 31.9254 74.5187 31.5582 73.7874 31.147C68.7568 28.3235 63.1844 23.7962 60.2916 18.7049C59.0882 16.5871 58.3863 14.0271 59.0736 11.6196C59.546 9.96498 60.8022 8.58298 62.298 7.76665C65.3248 6.11473 69.3823 6.44003 72.2141 8.32123C72.7063 8.64816 73.9013 9.754 74.3623 9.8642C74.3976 9.87267 74.4335 9.87878 74.4692 9.88606C74.692 10.2102 74.917 10.4076 75.3118 10.4896C75.6271 10.5551 76.0104 10.4748 76.2761 10.2946C76.4213 10.1962 76.5401 10.0671 76.6571 9.93791Z" fill="#8EE1E3"/>
<path d="M96.5636 39.0589C105.038 38.902 113.432 41.5264 120.596 45.9743C120.905 46.1704 121.212 46.3702 121.516 46.5737C121.82 46.7772 122.122 46.9844 122.421 47.1952C122.72 47.4062 123.017 47.6207 123.311 47.8387C123.605 48.0568 123.896 48.2784 124.184 48.5036C124.473 48.7288 124.758 48.9575 125.041 49.1896C125.324 49.4217 125.604 49.6573 125.882 49.8963C126.159 50.1352 126.433 50.3776 126.704 50.6233C126.976 50.8689 127.244 51.1178 127.509 51.37C127.774 51.6222 128.036 51.8776 128.295 52.1362C128.554 52.3946 128.81 52.6563 129.063 52.9212C129.315 53.1859 129.565 53.4537 129.811 53.7246C130.057 53.9955 130.3 54.2694 130.539 54.5461C130.779 54.8229 131.015 55.1026 131.247 55.3852C131.48 55.6677 131.709 55.953 131.935 56.2411C132.16 56.5292 132.383 56.82 132.601 57.1135C132.82 57.4071 133.035 57.7032 133.246 58.002C133.458 58.3007 133.665 58.602 133.869 58.9059C134.073 59.2097 134.274 59.516 134.47 59.8247C134.667 60.1334 134.86 60.4444 135.049 60.7578C135.238 61.0712 135.423 61.3868 135.604 61.7048C135.785 62.0227 135.963 62.3427 136.136 62.665C136.31 62.9872 136.479 63.3114 136.645 63.6378C136.811 63.9642 136.972 64.2925 137.13 64.6228C137.288 64.953 137.441 65.2852 137.591 65.6193C137.74 65.9533 137.886 66.2891 138.027 66.6267C138.168 66.9643 138.306 67.3035 138.439 67.6445C138.572 67.9854 138.701 68.3278 138.825 68.6719C138.95 69.0159 139.071 69.3615 139.187 69.7086C139.303 70.0555 139.415 70.4039 139.523 70.7536C139.631 71.1033 139.735 71.4543 139.834 71.8065C139.933 72.1588 140.028 72.5122 140.119 72.8668C140.21 73.2214 140.296 73.577 140.378 73.9336C140.458 74.2854 140.534 74.6381 140.605 74.9917C140.677 75.3452 140.744 75.6996 140.806 76.0549C140.869 76.41 140.927 76.7659 140.981 77.1226C141.035 77.4792 141.085 77.8365 141.13 78.1944C141.176 78.5522 141.217 78.9106 141.253 79.2695C141.29 79.6283 141.322 79.9876 141.35 80.3471C141.378 80.7068 141.401 81.0668 141.42 81.427C141.439 81.7872 141.454 82.1476 141.464 82.5082C141.475 82.8688 141.481 83.2294 141.482 83.5902C141.483 83.9508 141.481 84.3114 141.473 84.6721C141.466 85.0327 141.454 85.3932 141.438 85.7536C141.422 86.1139 141.401 86.474 141.376 86.8339C141.352 87.1938 141.322 87.5533 141.289 87.9125C141.255 88.2716 141.217 88.6303 141.174 88.9885C141.132 89.3467 141.085 89.7044 141.034 90.0614C140.983 90.4185 140.927 90.7749 140.868 91.1306C140.808 91.4863 140.744 91.8413 140.675 92.1954C140.607 92.5496 140.534 92.9029 140.457 93.2552C140.38 93.6076 140.298 93.9591 140.212 94.3094C140.127 94.6598 140.037 95.0091 139.943 95.3572C139.848 95.7055 139.75 96.0525 139.647 96.3983C139.545 96.7441 139.438 97.0886 139.327 97.4318C139.216 97.7749 139.1 98.1167 138.981 98.4571C138.862 98.7975 138.738 99.1363 138.61 99.4737C138.483 99.8111 138.351 100.147 138.215 100.481C138.079 100.815 137.939 101.148 137.795 101.478C137.651 101.809 137.504 102.138 137.351 102.465C137.199 102.792 137.044 103.118 136.884 103.441C136.724 103.764 136.56 104.086 136.392 104.405C136.224 104.724 136.053 105.042 135.877 105.357C135.702 105.672 135.522 105.985 135.339 106.296C135.156 106.606 134.969 106.915 134.779 107.221C128.34 117.468 118.639 124.596 106.808 127.315C106.312 127.429 105.814 127.534 105.314 127.631C104.813 127.728 104.312 127.816 103.809 127.896C103.305 127.975 102.801 128.045 102.295 128.107C101.79 128.169 101.283 128.221 100.776 128.266C100.268 128.309 99.7601 128.345 99.2514 128.371C98.7427 128.397 98.2336 128.414 97.7243 128.423C97.2151 128.431 96.7057 128.431 96.1964 128.422C95.6871 128.412 95.1781 128.394 94.6694 128.367C94.1608 128.34 93.6528 128.304 93.1454 128.259C92.638 128.214 92.1315 128.16 91.6259 128.098C91.1204 128.035 90.6162 127.964 90.1132 127.884C89.61 127.804 89.1085 127.715 88.6086 127.617C88.1087 127.519 87.6107 127.413 87.1145 127.298C86.6182 127.183 86.1241 127.059 85.6322 126.927C85.1403 126.794 84.6509 126.653 84.164 126.504C83.677 126.355 83.1928 126.197 82.7113 126.03C80.3217 125.221 77.9031 124.215 75.7617 122.871C69.5053 126.465 62.2687 128.063 55.121 128.365C54.6783 128.376 54.2356 128.38 53.7928 128.377C53.35 128.374 52.9074 128.364 52.4649 128.348C52.0224 128.331 51.5803 128.308 51.1387 128.278C50.6969 128.249 50.2556 128.212 49.815 128.169C49.3743 128.126 48.9344 128.076 48.4952 128.02C48.056 127.963 47.6179 127.9 47.1806 127.83C46.7433 127.761 46.3073 127.684 45.8724 127.601C45.4374 127.518 45.0038 127.429 44.5716 127.333C44.1394 127.236 43.7087 127.134 43.2796 127.025C42.8505 126.915 42.4232 126.8 41.9976 126.678C41.572 126.556 41.1483 126.427 40.7265 126.292C40.3049 126.157 39.8853 126.016 39.4679 125.868C39.0505 125.721 38.6354 125.567 38.2227 125.406C37.8099 125.246 37.3996 125.08 36.9919 124.907C36.5842 124.734 36.1792 124.555 35.777 124.37C35.3746 124.185 34.9752 123.994 34.5787 123.797C34.2525 123.636 33.9282 123.471 33.6059 123.302C33.2838 123.133 32.9637 122.961 32.6457 122.784C32.3278 122.607 32.012 122.426 31.6984 122.242C31.3849 122.057 31.0738 121.869 30.7649 121.676C30.456 121.484 30.1495 121.288 29.8454 121.088C29.5414 120.888 29.2398 120.685 28.9407 120.478C28.6417 120.27 28.3452 120.06 28.0514 119.845C27.7574 119.631 27.4662 119.413 27.1778 119.191C26.8893 118.969 26.6035 118.744 26.3205 118.515C26.0376 118.287 25.7575 118.054 25.4803 117.819C25.2031 117.583 24.9287 117.344 24.6574 117.102C24.386 116.86 24.1176 116.614 23.8523 116.365C23.5869 116.116 23.3247 115.864 23.0655 115.609C22.8064 115.353 22.5505 115.094 22.2978 114.833C22.0449 114.571 21.7954 114.306 21.5492 114.039C21.303 113.771 21.06 113.5 20.8205 113.226C20.5809 112.952 20.3448 112.676 20.1119 112.396C19.8791 112.116 19.6498 111.834 19.4241 111.549C19.1982 111.263 18.9759 110.975 18.7571 110.685C18.5384 110.394 18.3232 110.101 18.1117 109.805C17.9002 109.508 17.6924 109.21 17.4883 108.909C17.2841 108.608 17.0836 108.304 16.8868 107.998C16.6901 107.692 16.4972 107.383 16.308 107.073C16.119 106.762 15.9337 106.449 15.7523 106.133C15.5708 105.818 15.3933 105.5 15.2198 105.181C15.0462 104.861 14.8765 104.539 14.7108 104.215C14.5451 103.891 14.3835 103.565 14.2258 103.238C14.0681 102.91 13.9145 102.58 13.7649 102.248C13.6154 101.916 13.4699 101.583 13.3286 101.248C13.1872 100.912 13.05 100.576 12.917 100.237C12.7839 99.8983 12.655 99.558 12.5303 99.2162C12.4056 98.8744 12.2852 98.5312 12.1689 98.1864C12.0497 97.8472 11.9347 97.5066 11.8238 97.1646C11.713 96.8225 11.6064 96.4791 11.504 96.1345C11.4017 95.7898 11.3036 95.4439 11.2098 95.0968C11.1159 94.7497 11.0264 94.4015 10.9412 94.0522C10.856 93.7029 10.7751 93.3526 10.6985 93.0013C10.6219 92.65 10.5496 92.2978 10.4817 91.9448C10.4138 91.5916 10.3503 91.2378 10.2911 90.8832C10.232 90.5285 10.1772 90.1731 10.1268 89.8171C10.0764 89.4611 10.0304 89.1046 9.98883 88.7474C9.94723 88.3903 9.91004 88.0327 9.87727 87.6746C9.84449 87.3166 9.81615 86.9582 9.79222 86.5994C9.76829 86.2406 9.7488 85.8816 9.73373 85.5224C9.71866 85.1632 9.70803 84.8038 9.70182 84.4443C9.69561 84.0848 9.69385 83.7253 9.69652 83.3657C9.69919 83.0062 9.70629 82.6467 9.71783 82.2873C9.72938 81.9279 9.74535 81.5688 9.76575 81.2098C9.78615 80.8508 9.81098 80.4922 9.84024 80.1339C9.86949 79.7755 9.90316 79.4175 9.94125 79.06C9.97934 78.7025 10.0218 78.3455 10.0687 77.989C10.1156 77.6325 10.1669 77.2766 10.2226 76.9215C10.2783 76.5662 10.3383 76.2117 10.4027 75.858C10.4672 75.5043 10.5359 75.1514 10.6091 74.7993C10.6822 74.4473 10.7597 74.0962 10.8415 73.7461C10.9233 73.396 11.0094 73.0469 11.0998 72.6989C11.1902 72.3508 11.2849 72.004 11.3838 71.6584C11.4828 71.3127 11.586 70.9683 11.6935 70.6253C11.801 70.2821 11.9126 69.9403 12.0285 69.6C12.1444 69.2597 12.2645 68.9208 12.3888 68.5834C12.513 68.246 12.6414 67.9102 12.774 67.5759C12.9065 67.2417 13.0432 66.9092 13.1839 66.5783C13.3247 66.2475 13.4695 65.9184 13.6184 65.591C13.7673 65.2638 13.9201 64.9384 14.077 64.6149C14.2375 64.2834 14.402 63.9539 14.5706 63.6264C14.7391 63.2989 14.9116 62.9736 15.0881 62.6504C15.2646 62.327 15.4449 62.0059 15.6292 61.6871C15.8136 61.3682 16.0018 61.0517 16.1938 60.7374C16.3859 60.4232 16.5818 60.1113 16.7815 59.8018C16.9811 59.4924 17.1845 59.1854 17.3916 58.8809C17.5988 58.5764 17.8097 58.2744 18.0242 57.975C18.2388 57.6757 18.457 57.379 18.6787 57.085C18.9005 56.7909 19.1259 56.4996 19.3548 56.2111C19.5836 55.9226 19.8159 55.6369 20.0519 55.354C20.2877 55.0712 20.527 54.7912 20.7697 54.5142C21.0124 54.2372 21.2585 53.9632 21.5079 53.6921C21.7573 53.4211 22.0099 53.1532 22.2658 52.8883C22.5218 52.6236 22.7809 52.3619 23.0432 52.1033C23.3056 51.8448 23.5711 51.5896 23.8397 51.3377C24.1082 51.0856 24.3798 50.8369 24.6544 50.5915C24.9291 50.3461 25.2067 50.1041 25.4872 49.8655C25.7678 49.6269 26.0512 49.3918 26.3375 49.16C26.6239 48.9284 26.9129 48.7002 27.2047 48.4755C27.4966 48.2509 27.7912 48.0299 28.0885 47.8125C28.3857 47.595 28.6856 47.3813 28.988 47.1712C29.2906 46.9611 29.5956 46.7547 29.9031 46.552C30.2106 46.3494 30.5206 46.1505 30.833 45.9554C31.1454 45.7603 31.4601 45.569 31.7771 45.3816C32.0942 45.1942 32.4135 45.0107 32.7349 44.8311C33.0565 44.6514 33.3802 44.4758 33.706 44.3041C34.0319 44.1324 34.3597 43.9647 34.6896 43.801C35.0195 43.6373 35.3514 43.4776 35.6853 43.322C36.0191 43.1665 36.3547 43.015 36.6922 42.8675C37.0297 42.7201 37.369 42.5769 37.71 42.4377C38.051 42.2987 38.3937 42.1637 38.738 42.033C39.0823 41.9022 39.4282 41.7757 39.7756 41.6534C52.1169 37.4108 64.5418 38.5995 76.1851 44.2989C82.423 40.8164 89.4694 39.2391 96.5636 39.0589Z" fill="#101055"/>
<path d="M16.3006 99.2301C15.9057 98.2945 15.5767 97.3195 15.2572 96.3559C15.1513 96.0436 15.0494 95.73 14.9515 95.4152C14.8534 95.1003 14.7593 94.7843 14.6692 94.4671C14.5791 94.1499 14.4929 93.8317 14.4107 93.5125C14.3285 93.1932 14.2503 92.8728 14.1761 92.5516C14.1018 92.2303 14.0316 91.9081 13.9654 91.585C13.8992 91.2621 13.837 90.9383 13.7789 90.6137C13.7207 90.2892 13.6666 89.964 13.6166 89.638C13.5665 89.3121 13.5205 88.9856 13.4786 88.6586C13.4367 88.3315 13.3988 88.004 13.3651 87.676C13.3313 87.3479 13.3016 87.0196 13.276 86.6909C13.2505 86.3621 13.229 86.0331 13.2116 85.7038C13.1942 85.3746 13.1809 85.0451 13.1717 84.7155C13.1625 84.3859 13.1574 84.0562 13.1564 83.7265C13.1554 83.3968 13.1586 83.0671 13.1658 82.7374C13.173 82.4077 13.1844 82.0782 13.1998 81.7489C13.2152 81.4195 13.2348 81.0904 13.2584 80.7615C13.282 80.4326 13.3097 80.104 13.3415 79.7758C13.3733 79.4477 13.4092 79.1199 13.4492 78.7926C13.4892 78.4653 13.5332 78.1386 13.5813 77.8123C13.6294 77.4861 13.6816 77.1606 13.7378 76.8357C13.794 76.5108 13.8543 76.1866 13.9186 75.8632C13.9828 75.5397 14.0511 75.2172 14.1235 74.8955C14.1958 74.5738 14.2721 74.2531 14.3524 73.9332C14.4327 73.6134 14.517 73.2947 14.6052 72.977C14.6935 72.6592 14.7857 72.3427 14.8817 72.0273C14.9779 71.7119 15.078 71.3977 15.1819 71.0849C15.2858 70.7719 15.3936 70.4602 15.5053 70.15C15.617 69.8398 15.7326 69.531 15.8521 69.2236C15.9714 68.9163 16.0946 68.6105 16.2216 68.3062C16.3487 68.0019 16.4795 67.6992 16.6139 67.3981C16.7485 67.0972 16.8868 66.7978 17.0288 66.5002C17.1708 66.2026 17.3165 65.9069 17.4659 65.6129C17.6181 65.3055 17.7741 65 17.9339 64.6965C18.0937 64.393 18.2572 64.0915 18.4246 63.792C18.5919 63.4925 18.7629 63.1951 18.9376 62.8999C19.1122 62.6047 19.2905 62.3117 19.4726 62.0208C19.6545 61.7301 19.84 61.4416 20.0292 61.1554C20.2184 60.8693 20.411 60.5855 20.6072 60.304C20.8034 60.0227 21.0031 59.7438 21.2062 59.4673C21.4093 59.191 21.6159 58.9171 21.8258 58.6458C22.0358 58.3746 22.2491 58.1059 22.4657 57.8399C22.6823 57.5739 22.9022 57.3106 23.1253 57.05C23.3484 56.7896 23.5748 56.5319 23.8044 56.2769C24.034 56.022 24.2667 55.77 24.5024 55.5209C24.7382 55.2718 24.9772 55.0256 25.2191 54.7825C25.461 54.5393 25.706 54.2992 25.9539 54.0621C26.2019 53.8249 26.4527 53.591 26.7064 53.3602C26.9601 53.1294 27.2167 52.9017 27.476 52.6772C27.7354 52.4527 27.9976 52.2314 28.2625 52.0135C28.5274 51.7955 28.7949 51.5809 29.0651 51.3697C29.3354 51.1583 29.6083 50.9504 29.8837 50.7458C30.159 50.5413 30.4369 50.3402 30.7173 50.1426C30.9977 49.945 31.2805 49.7509 31.5657 49.5603C31.8509 49.3697 32.1384 49.1827 32.4282 48.9993C32.7182 48.8158 33.0103 48.6359 33.3046 48.4598C33.599 48.2836 33.8954 48.1111 34.194 47.9422C34.4926 47.7735 34.7933 47.6084 35.096 47.4471C35.3987 47.2857 35.7034 47.1281 36.0101 46.9744C36.3167 46.8206 36.6252 46.6707 36.9356 46.5246C37.2459 46.3785 37.5581 46.2363 37.872 46.098C38.1859 45.9596 38.5015 45.8252 38.8188 45.6947C39.1359 45.5642 39.4547 45.4376 39.7752 45.315C40.0956 45.1925 40.4174 45.0739 40.7408 44.9594C41.0641 44.8448 41.3888 44.7343 41.7149 44.6277C41.9721 44.5426 42.2302 44.46 42.4891 44.3799C42.748 44.2997 43.0076 44.2221 43.2681 44.147C43.5284 44.072 43.7895 43.9995 44.0513 43.9294C44.3131 43.8594 44.5756 43.792 44.8387 43.7271C45.1018 43.6623 45.3655 43.6 45.6298 43.5402C45.8942 43.4805 46.1591 43.4233 46.4245 43.3687C46.6899 43.3141 46.9559 43.2621 47.2223 43.2127C47.4888 43.1633 47.7557 43.1165 48.0231 43.0724C48.2905 43.0281 48.5583 42.9865 48.8264 42.9474C49.0946 42.9084 49.3631 42.8721 49.6319 42.8383C49.9008 42.8045 50.17 42.7733 50.4395 42.7448C50.709 42.7163 50.9788 42.6904 51.2487 42.6672C51.5187 42.6438 51.7889 42.6232 52.0593 42.6052C52.3297 42.5872 52.6003 42.5717 52.871 42.5589C53.1416 42.5462 53.4124 42.5361 53.6833 42.5286C53.9542 42.5212 54.2251 42.5164 54.4961 42.5141C54.7671 42.5119 55.0381 42.5123 55.3091 42.5154C55.5801 42.5185 55.851 42.5242 56.1218 42.5326C56.3927 42.5409 56.6635 42.5518 56.9342 42.5654C57.2048 42.579 57.4753 42.5953 57.7456 42.6142C58.016 42.633 58.2861 42.6545 58.5559 42.6788C58.8258 42.7029 59.0955 42.7296 59.365 42.759C59.6344 42.7884 59.9035 42.8204 60.1722 42.855C60.441 42.8896 60.7094 42.9269 60.9775 42.9667C61.2455 43.0066 61.5131 43.049 61.7803 43.094C62.0476 43.1392 62.3144 43.1868 62.5806 43.237C62.8469 43.2873 63.1127 43.3401 63.378 43.3955C63.6433 43.451 63.908 43.509 64.1721 43.5695C64.4362 43.6302 64.6997 43.6934 64.9627 43.7591C65.2256 43.8247 65.4878 43.893 65.7493 43.9639C66.0109 44.0347 66.2718 44.108 66.532 44.1839C66.7921 44.2598 67.0515 44.3382 67.3101 44.4191C69.1262 44.984 70.8961 45.6074 72.5963 46.4645C71.8983 46.9857 71.1962 47.5015 70.4903 48.012C68.7408 47.1988 66.7548 46.6532 64.888 46.1752C56.5718 44.0463 48.4568 44.4464 40.3879 47.3853C30.7929 50.88 22.1642 58.6967 17.8497 67.9647C17.7328 68.2154 17.6184 68.4672 17.5066 68.7202C17.3948 68.9731 17.2855 69.2271 17.1788 69.4822C17.072 69.7373 16.9679 69.9935 16.8663 70.2508C16.7648 70.5079 16.6657 70.7661 16.5692 71.0254C16.4729 71.2846 16.3791 71.5447 16.2879 71.8057C16.1966 72.0668 16.1081 72.3288 16.0221 72.5916C15.9361 72.8545 15.8527 73.1182 15.7721 73.3826C15.6914 73.6472 15.6134 73.9125 15.538 74.1786C15.4627 74.4446 15.39 74.7114 15.32 74.979C15.25 75.2466 15.1827 75.5148 15.118 75.7836C15.0534 76.0525 14.9914 76.322 14.9321 76.5922C14.8729 76.8623 14.8163 77.133 14.7625 77.4042C14.7087 77.6755 14.6576 77.9473 14.6092 78.2195C14.5609 78.4919 14.5152 78.7646 14.4723 79.0378C14.4294 79.311 14.3892 79.5847 14.3518 79.8587C14.3144 80.1326 14.2797 80.4069 14.2478 80.6816C14.2158 80.9563 14.1867 81.2313 14.1602 81.5066C14.1338 81.7819 14.1102 82.0575 14.0893 82.3332C14.0684 82.609 14.0502 82.885 14.0348 83.161C14.0195 83.4372 14.0069 83.7135 13.997 83.9898C13.9872 84.2662 13.9801 84.5426 13.9758 84.8191C13.9715 85.0956 13.97 85.3722 13.9713 85.6488C13.9725 85.9253 13.9765 86.2018 13.9833 86.4782C13.9901 86.7547 13.9996 87.0312 14.012 87.3074C14.0243 87.5837 14.0394 87.8598 14.0572 88.1358C14.0751 88.4118 14.0957 88.6875 14.1191 88.963C14.1424 89.2386 14.1686 89.5139 14.1975 89.789C14.2264 90.064 14.258 90.3387 14.2924 90.6131C14.3268 90.8875 14.364 91.1616 14.4039 91.4352C14.4437 91.7088 14.4864 91.9821 14.5317 92.2549C14.5771 92.5277 14.6252 92.8 14.6761 93.0719C14.7269 93.3436 14.7804 93.6149 14.8366 93.8857C14.9478 94.4176 15.0586 94.9521 15.2091 95.4745C15.4545 96.3256 16.3891 98.5119 16.3006 99.2301Z" fill="white"/>
<path d="M63.1835 106.708C59.501 101.606 57.0919 93.9744 56.5447 87.74C56.5122 87.3952 56.4841 87.05 56.4603 86.7045C56.4364 86.359 56.4167 86.0133 56.4013 85.6673C56.3859 85.3213 56.3748 84.9751 56.368 84.6288C56.3611 84.2825 56.3584 83.9362 56.3601 83.5898C56.3618 83.2435 56.3677 82.8973 56.378 82.5511C56.3881 82.2049 56.4025 81.8589 56.4212 81.513C56.4399 81.1672 56.4629 80.8216 56.49 80.4763C56.5173 80.1311 56.5487 79.7862 56.5844 79.4417C56.6201 79.0971 56.6601 78.7531 56.7042 78.4097C56.7483 78.0661 56.7967 77.7232 56.8494 77.3809C56.902 77.0385 56.9588 76.6969 57.0197 76.356C57.0808 76.0151 57.146 75.6749 57.2154 75.3356C57.2848 74.9963 57.3583 74.6579 57.436 74.3204C57.5138 73.9828 57.5956 73.6463 57.6815 73.3109C57.7676 72.9753 57.8577 72.6409 57.9519 72.3077C58.0462 71.9744 58.1445 71.6424 58.2468 71.3115C58.3493 70.9806 58.4557 70.6511 58.5662 70.3229C58.6767 69.9946 58.7912 69.6677 58.9098 69.3423C59.0284 69.0169 59.1509 68.693 59.2775 68.3705C59.4039 68.0482 59.5344 67.7274 59.6689 67.4081C59.8033 67.089 59.9416 66.7715 60.0839 66.4557C60.2261 66.14 60.3722 65.826 60.5222 65.5138C60.6722 65.2016 60.826 64.8913 60.9836 64.5829C61.1411 64.2745 61.3025 63.968 61.4677 63.6635C61.6329 63.3592 61.8017 63.0568 61.9743 62.7565C62.1468 62.4562 62.3231 62.1581 62.5031 61.8622C62.6829 61.5662 62.8665 61.2725 63.0537 60.9811C63.2408 60.6897 63.4315 60.4007 63.6257 60.1139C63.8201 59.8272 64.0179 59.5429 64.2191 59.2611C64.4204 58.9792 64.6251 58.6998 64.8332 58.4231C65.0414 58.1462 65.2529 57.872 65.4678 57.6004C65.6827 57.3287 65.9009 57.0598 66.1224 56.7936C66.3347 56.5391 66.5502 56.2873 66.7688 56.0382C66.9875 55.7891 67.2092 55.5428 67.434 55.2993C67.6587 55.0556 67.8865 54.8149 68.1174 54.577C68.3481 54.3391 68.5818 54.1041 68.8184 53.8721C69.0551 53.6401 69.2946 53.411 69.537 53.1849C69.7792 52.9588 70.0244 52.7357 70.2723 52.5158C70.5202 52.2958 70.7707 52.0789 71.0241 51.8651C71.2774 51.6514 71.5333 51.4409 71.7919 51.2336C72.0505 51.0262 72.3116 50.8221 72.5752 50.6213C72.8389 50.4204 73.105 50.2229 73.3735 50.0286C73.6422 49.8345 73.9132 49.6437 74.1865 49.4562C74.4599 49.2688 74.7354 49.0848 75.0133 48.9042C75.2912 48.7236 75.5713 48.5465 75.8537 48.3729C76.1361 48.1993 76.4205 48.0292 76.7071 47.8627C76.9937 47.6962 77.2823 47.5333 77.5729 47.374C77.8636 47.2147 78.1561 47.059 78.4507 46.907C78.7452 46.755 79.0415 46.6067 79.3397 46.462C79.6379 46.3174 79.9379 46.1765 80.2397 46.0394C80.5414 45.9023 80.8448 45.769 81.1498 45.6394C81.4549 45.5098 81.7615 45.384 82.0697 45.262C82.3779 45.1401 82.6876 45.022 82.9987 44.9078C83.3099 44.7936 83.6224 44.6832 83.9362 44.5768C84.2501 44.4704 84.5652 44.3679 84.8816 44.2693C85.1981 44.1708 85.5158 44.0762 85.8345 43.9856C86.1534 43.8948 86.4732 43.8082 86.7941 43.7256C87.1151 43.6428 87.4371 43.5642 87.76 43.4896C88.0829 43.415 88.4067 43.3444 88.7314 43.2778C89.0561 43.2112 89.3816 43.1486 89.7079 43.0901C90.034 43.0317 90.3609 42.9774 90.6886 42.9271C91.0161 42.8768 91.3443 42.8305 91.6731 42.7883C92.0018 42.7463 92.331 42.7082 92.6607 42.6742C92.9904 42.6404 93.3204 42.6106 93.6509 42.5849C104.004 41.6929 115.1 45.3375 123.035 52.0276C129.398 57.3924 134.04 64.2745 136.342 72.2945C136.852 74.0708 137.333 75.9493 137.491 77.795C137.466 77.7657 137.44 77.7376 137.416 77.7073C137.17 77.39 136.587 74.0204 136.422 73.3507C136.077 71.9538 135.59 70.6029 135.056 69.2686C133.963 66.5411 132.421 64.0853 130.675 61.732C130.481 61.4685 130.285 61.2074 130.085 60.9486C129.885 60.6898 129.682 60.4334 129.476 60.1793C129.27 59.9253 129.061 59.6737 128.849 59.4246C128.637 59.1754 128.423 58.9287 128.205 58.6845C127.987 58.4405 127.767 58.199 127.543 57.96C127.32 57.7211 127.094 57.4847 126.865 57.251C126.636 57.0175 126.405 56.7865 126.171 56.5583C125.936 56.3301 125.699 56.1047 125.46 55.882C125.22 55.6592 124.978 55.4394 124.734 55.2225C124.489 55.0055 124.242 54.7914 123.992 54.5802C123.742 54.369 123.49 54.1607 123.235 53.9554C122.981 53.7502 122.724 53.5479 122.465 53.3487C122.205 53.1495 121.944 52.9533 121.68 52.7601C121.416 52.567 121.149 52.377 120.881 52.1902C120.613 52.0032 120.342 51.8196 120.069 51.6391C119.797 51.4585 119.522 51.2812 119.245 51.107C118.968 50.933 118.689 50.7622 118.408 50.5946C118.128 50.4271 117.845 50.2628 117.56 50.1019C117.275 49.941 116.989 49.7835 116.7 49.6293C116.412 49.4751 116.122 49.3243 115.83 49.1768C115.538 49.0295 115.244 48.8855 114.949 48.745C114.654 48.6045 114.357 48.4674 114.058 48.334C113.76 48.2004 113.459 48.0703 113.158 47.9439C112.856 47.8173 112.553 47.6944 112.249 47.575C111.944 47.4556 111.638 47.3398 111.331 47.2276C111.024 47.1154 110.716 47.0067 110.406 46.9016C110.096 46.7967 109.785 46.6953 109.473 46.5977C109.161 46.4999 108.848 46.4059 108.533 46.3155C108.219 46.2251 107.904 46.1384 107.587 46.0555C107.271 45.9725 106.954 45.8933 106.636 45.8178C106.317 45.7422 105.998 45.6704 105.678 45.6025C105.359 45.5344 105.038 45.4701 104.716 45.4095C94.4233 43.4395 83.4487 45.9927 74.8262 51.8601C74.5535 52.0465 74.283 52.2361 74.015 52.4291C73.7469 52.622 73.4812 52.8182 73.218 53.0176C72.9547 53.2172 72.6939 53.4198 72.4356 53.6257C72.1773 53.8315 71.9215 54.0404 71.6683 54.2527C71.4151 54.4648 71.1645 54.6799 70.9167 54.8981C70.6687 55.1163 70.4235 55.3376 70.181 55.5619C69.9385 55.7862 69.6987 56.0133 69.4618 56.2435C69.2249 56.4736 68.9908 56.7066 68.7596 56.9424C68.5283 57.1782 68.3 57.4169 68.0746 57.6584C67.8492 57.8998 67.6268 58.144 67.4075 58.391C67.1881 58.6379 66.9717 58.8874 66.7584 59.1395C66.5452 59.3918 66.335 59.6466 66.1278 59.9039C65.9208 60.1612 65.7169 60.4211 65.5162 60.6835C65.3156 60.9458 65.1181 61.2105 64.9239 61.4777C64.7297 61.7449 64.5389 62.0144 64.3513 62.2863C64.1636 62.5581 63.9793 62.8321 63.7984 63.1085C63.6176 63.3849 63.4401 63.6634 63.266 63.9442C63.0919 64.2249 62.9213 64.5076 62.7541 64.7925C62.5871 65.0775 62.4234 65.3644 62.2633 65.6532C62.1031 65.9421 61.9466 66.2329 61.7936 66.5257C61.6406 66.8184 61.4912 67.1129 61.3454 67.4093C61.1997 67.7057 61.0576 68.0038 60.9191 68.3037C60.7807 68.6036 60.6458 68.9051 60.5147 69.2083C60.3836 69.5115 60.2563 69.8162 60.1327 70.1225C60.009 70.4288 59.8892 70.7366 59.773 71.0458C59.6569 71.355 59.5446 71.6656 59.4361 71.9776C59.3277 72.2896 59.2231 72.6028 59.1222 72.9174C59.0214 73.232 58.9245 73.5477 58.8314 73.8646C58.7384 74.1815 58.6492 74.4995 58.5638 74.8186C58.4786 75.1377 58.3972 75.4577 58.3198 75.7788C58.2423 76.0999 58.1688 76.4219 58.0992 76.7449C58.0296 77.0677 57.9641 77.3914 57.9024 77.7159C57.3657 80.5473 57.2112 83.3887 57.3096 86.2665C57.3455 87.3161 57.3618 88.375 57.4653 89.4206C57.9204 94.0158 59.3664 98.5429 61.2096 102.759C61.512 103.45 63.1879 106.272 63.1835 106.708Z" fill="white"/>
<path d="M16.3007 99.2302C16.3892 98.512 15.4546 96.3257 15.2092 95.4747C15.0587 94.9523 14.9479 94.4178 14.8367 93.8859C14.7805 93.6151 14.727 93.3438 14.6762 93.072C14.6253 92.8002 14.5772 92.5278 14.5318 92.2551C14.4865 91.9822 14.4439 91.709 14.404 91.4354C14.3641 91.1617 14.3269 90.8877 14.2925 90.6133C14.2581 90.3389 14.2265 90.0641 14.1976 89.789C14.1687 89.514 14.1425 89.2387 14.1192 88.9632C14.0958 88.6877 14.0752 88.4119 14.0573 88.136C14.0395 87.86 14.0244 87.5839 14.0121 87.3076C13.9997 87.0313 13.9902 86.7549 13.9834 86.4785C13.9766 86.202 13.9726 85.9255 13.9714 85.6489C13.9701 85.3724 13.9717 85.0958 13.9759 84.8193C13.9802 84.5428 13.9873 84.2664 13.9971 83.99C14.007 83.7136 14.0196 83.4374 14.035 83.1612C14.0503 82.8851 14.0685 82.6092 14.0894 82.3334C14.1103 82.0576 14.1339 81.7821 14.1603 81.5068C14.1868 81.2315 14.2159 80.9565 14.2479 80.6818C14.2798 80.4071 14.3145 80.1328 14.3519 79.8589C14.3893 79.5848 14.4295 79.3112 14.4724 79.038C14.5153 78.7648 14.561 78.4921 14.6093 78.2197C14.6577 77.9474 14.7088 77.6757 14.7626 77.4044C14.8164 77.1332 14.873 76.8625 14.9322 76.5924C14.9915 76.3222 15.0535 76.0527 15.1181 75.7838C15.1828 75.515 15.2501 75.2467 15.3201 74.9792C15.3902 74.7116 15.4628 74.4448 15.5381 74.1788C15.6135 73.9127 15.6915 73.6473 15.7722 73.3828C15.8528 73.1183 15.9362 72.8547 16.0222 72.5918C16.1082 72.329 16.1967 72.067 16.288 71.8059C16.3792 71.5448 16.473 71.2847 16.5694 71.0256C16.6658 70.7663 16.7649 70.5081 16.8664 70.2509C16.968 69.9937 17.0721 69.7375 17.1789 69.4823C17.2856 69.2273 17.3949 68.9733 17.5067 68.7203C17.6185 68.4674 17.7329 68.2156 17.8498 67.9649C22.1643 58.6968 30.793 50.8801 40.388 47.3855C48.4569 44.4466 56.5719 44.0465 64.8881 46.1754C66.7549 46.6533 68.7409 47.199 70.4904 48.0121C68.4537 49.5757 66.6273 51.2294 64.8632 53.097C56.234 50.4083 47.0963 50.9532 39.0425 55.1765C38.808 55.2988 38.5749 55.4239 38.3434 55.5518C38.1118 55.6799 37.8819 55.8107 37.6536 55.9443C37.4253 56.0778 37.1986 56.2143 36.9736 56.3535C36.7487 56.4927 36.5255 56.6346 36.304 56.7794C36.0825 56.9241 35.8629 57.0715 35.645 57.2216C35.4272 57.3717 35.2113 57.5245 34.9972 57.6799C34.7831 57.8354 34.5709 57.9935 34.3608 58.1541C34.1506 58.3148 33.9424 58.4779 33.7363 58.6437C33.5301 58.8095 33.326 58.9778 33.124 59.1486C32.9219 59.3194 32.722 59.4926 32.5243 59.6683C32.3265 59.8441 32.131 60.0222 31.9376 60.2027C31.7443 60.3833 31.5531 60.5662 31.3643 60.7514C31.1754 60.9367 30.9888 61.1242 30.8046 61.3139C30.6203 61.5038 30.4384 61.6959 30.2589 61.8902C30.0793 62.0845 29.9022 62.281 29.7275 62.4797C29.5528 62.6783 29.3806 62.8791 29.2108 63.082C29.0411 63.2849 28.8739 63.4899 28.7092 63.6969C28.5445 63.904 28.3823 64.113 28.2228 64.324C28.0632 64.535 27.9063 64.7479 27.752 64.9629C27.5977 65.1777 27.446 65.3945 27.297 65.6131C27.1481 65.8317 27.0018 66.0521 26.8583 66.2743C26.7147 66.4965 26.5739 66.7204 26.4358 66.9461C26.2977 67.1718 26.1625 67.3991 26.03 67.6281C25.8976 67.8571 25.768 68.0878 25.6413 68.32C25.5145 68.5522 25.3906 68.786 25.2695 69.0212C25.1485 69.2564 25.0304 69.493 24.9153 69.7312C24.8001 69.9694 24.6878 70.209 24.5785 70.4499C24.4693 70.6908 24.363 70.933 24.2596 71.1766C24.1562 71.42 24.0559 71.6648 23.9586 71.9108C23.8613 72.1568 23.7671 72.4039 23.6759 72.6523C23.5846 72.9006 23.4964 73.15 23.4113 73.4005C23.3263 73.651 23.2443 73.9025 23.1654 74.155C21.7865 78.5841 21.46 82.9343 21.875 87.5406C22.7087 96.0152 27.1408 103.872 33.6796 109.256C40.5858 114.944 49.0906 116.961 57.8832 116.096C58.4895 116.037 59.0936 115.961 59.6957 115.868C60.2978 115.776 60.8969 115.666 61.4929 115.541C62.0889 115.415 62.6809 115.272 63.269 115.114C63.8571 114.955 64.4403 114.78 65.0186 114.589L66.9732 116.565C68.7379 118.087 70.261 119.375 72.192 120.706C71.1188 121.362 69.8158 121.837 68.6393 122.279C68.3258 122.397 68.0109 122.511 67.6946 122.621C67.3784 122.731 67.0608 122.837 66.7419 122.939C66.423 123.041 66.1029 123.14 65.7817 123.234C65.4604 123.328 65.138 123.419 64.8144 123.505C64.491 123.592 64.1665 123.675 63.8409 123.753C63.5154 123.832 63.189 123.906 62.8616 123.977C62.5343 124.047 62.2061 124.114 61.8771 124.176C61.5481 124.239 61.2184 124.297 60.8881 124.352C60.5576 124.406 60.2265 124.456 59.8949 124.503C59.5632 124.549 59.2311 124.591 58.8985 124.629C58.5658 124.668 58.2327 124.702 57.8992 124.732C57.5656 124.762 57.2318 124.788 56.8977 124.809C56.5635 124.831 56.2291 124.849 55.8945 124.863C55.5599 124.876 55.2252 124.886 54.8904 124.891C54.5555 124.897 54.2207 124.898 53.8858 124.895C53.5509 124.892 53.2162 124.885 52.8815 124.875C52.5468 124.863 52.2123 124.848 51.8779 124.829C51.5437 124.81 51.2096 124.787 50.8758 124.759C50.5422 124.732 50.2088 124.7 49.8758 124.665C49.5429 124.629 49.2104 124.59 48.8784 124.546C48.5464 124.502 48.2149 124.455 47.884 124.403C47.5533 124.351 47.2232 124.295 46.8937 124.235C46.5642 124.175 46.2355 124.111 45.9077 124.043C45.5798 123.975 45.2527 123.903 44.9265 123.827C44.6005 123.751 44.2753 123.671 43.9511 123.587C43.627 123.503 43.3039 123.416 42.9818 123.324C42.6598 123.232 42.339 123.136 42.0193 123.036C41.6996 122.936 41.3813 122.833 41.0642 122.725C40.747 122.618 40.4312 122.506 40.1169 122.391C39.8024 122.276 39.4895 122.157 39.178 122.034C38.8665 121.911 38.5566 121.784 38.2483 121.653C37.9399 121.523 37.6332 121.388 37.3281 121.25C27.983 116.993 19.929 108.916 16.3007 99.2302Z" fill="#F8E076"/>
<path d="M66.973 116.565C66.3247 116.853 65.552 117.027 64.8703 117.23C64.3703 117.383 63.8672 117.526 63.3612 117.658C62.8551 117.79 62.3465 117.911 61.8354 118.022C61.3243 118.132 60.8111 118.232 60.2959 118.321C59.7805 118.41 59.2635 118.488 58.7449 118.555C58.2263 118.623 57.7065 118.679 57.1855 118.724C56.6646 118.77 56.143 118.804 55.6205 118.828C55.0981 118.851 54.5755 118.864 54.0525 118.865C53.5296 118.867 53.0068 118.857 52.4843 118.837C43.6973 118.417 35.9941 113.981 30.1776 107.548C29.9269 107.269 29.6809 106.986 29.4398 106.698C29.1987 106.411 28.9625 106.12 28.7313 105.824C28.5001 105.529 28.274 105.229 28.0529 104.926C27.8319 104.623 27.6161 104.316 27.4054 104.006C27.1949 103.695 26.9897 103.381 26.7897 103.064C26.5897 102.746 26.3953 102.425 26.2063 102.101C26.0172 101.777 25.8337 101.45 25.6558 101.12C25.478 100.79 25.3058 100.456 25.1392 100.12C24.9726 99.7839 24.8118 99.445 24.6568 99.1033C24.5017 98.7617 24.3525 98.4175 24.2091 98.0707C24.0659 97.724 23.9285 97.375 23.7969 97.0236C23.6655 96.6722 23.54 96.3186 23.4206 95.9629C23.3012 95.6073 23.1878 95.2497 23.0805 94.8902C22.9731 94.5308 22.872 94.1695 22.777 93.8065C22.6819 93.4436 22.5931 93.0791 22.5105 92.7132C22.4279 92.3472 22.3515 91.9799 22.2814 91.6113C22.0234 90.3145 21.7192 88.9074 21.785 87.582L21.8749 87.5405C22.7085 96.0151 27.1407 103.871 33.6795 109.256C40.5856 114.944 49.0905 116.96 57.8831 116.095C58.4894 116.036 59.0935 115.961 59.6956 115.868C60.2977 115.776 60.8968 115.666 61.4928 115.54C62.0888 115.415 62.6808 115.272 63.2689 115.114C63.857 114.955 64.4402 114.78 65.0185 114.589L66.973 116.565Z" fill="white"/>
<path d="M52.8803 54.8765C55.9625 54.5768 59.4039 55.1318 62.3936 55.8448C61.5192 57.3308 60.4364 58.71 59.5364 60.1895C59.212 60.727 58.899 61.271 58.5973 61.8216C58.2956 62.3722 58.0055 62.9289 57.7271 63.4917C57.4486 64.0544 57.182 64.6226 56.9273 65.1965C56.6726 65.7703 56.4299 66.3492 56.1994 66.9332C55.9688 67.5172 55.7505 68.1057 55.5446 68.6988C55.3386 69.2918 55.1451 69.889 54.9641 70.4901C54.783 71.0913 54.6146 71.696 54.4587 72.3042C54.3029 72.9124 54.1599 73.5236 54.0296 74.1377C53.9548 74.4776 53.8839 74.8183 53.817 75.1598C53.75 75.5013 53.6869 75.8434 53.6277 76.1863C53.5685 76.5293 53.5133 76.8728 53.462 77.217C53.4108 77.5612 53.3634 77.9059 53.3199 78.2512C53.2766 78.5965 53.2371 78.9422 53.2016 79.2884C53.1661 79.6346 53.1346 79.9811 53.1071 80.328C53.0796 80.6749 53.056 81.0221 53.0363 81.3695C53.0167 81.717 53.0011 82.0646 52.9895 82.4123C52.9778 82.7602 52.9702 83.1081 52.9665 83.456C52.9629 83.804 52.9632 84.1519 52.9675 84.4999C52.9718 84.8479 52.98 85.1958 52.9922 85.5436C53.0046 85.8913 53.0208 86.2389 53.041 86.5863C53.0612 86.9337 53.0855 87.2809 53.1137 87.6278C53.1418 87.9746 53.1739 88.321 53.2101 88.6672C53.2462 89.0133 53.2862 89.359 53.3302 89.7042C53.3742 90.0493 53.4222 90.3939 53.4742 90.7381C53.526 91.0822 53.5818 91.4257 53.6416 91.7684C53.7015 92.1113 53.7652 92.4534 53.8328 92.7947C53.9003 93.1361 53.9718 93.4766 54.0472 93.8163C54.1227 94.156 54.202 94.4949 54.2851 94.8328C54.3683 95.1706 54.4554 95.5076 54.5463 95.8435C54.6371 96.1794 54.7318 96.5143 54.8305 96.8479C54.929 97.1817 55.0314 97.5143 55.1375 97.8458C55.2437 98.1771 55.3536 98.5073 55.4674 98.8362C55.5811 99.1651 55.6985 99.4926 55.8198 99.8188C55.941 100.145 56.066 100.47 56.1947 100.793C56.3233 101.116 56.4556 101.438 56.5917 101.759C56.7277 102.079 56.8674 102.398 57.0108 102.715C57.1541 103.032 57.301 103.347 57.4515 103.661C57.6021 103.975 57.7563 104.287 57.914 104.597C58.0717 104.907 58.2329 105.215 58.3977 105.522C58.5624 105.828 58.7307 106.133 58.9025 106.436C59.9451 108.313 61.2648 109.97 62.4184 111.77C56.6633 113.248 51.0576 113.199 45.3458 111.626C41.3942 110.278 37.8856 108.442 34.7388 105.663C34.5627 105.505 34.3885 105.345 34.2163 105.183C34.0441 105.021 33.8738 104.857 33.7057 104.69C33.5375 104.524 33.3714 104.356 33.2073 104.185C33.0433 104.015 32.8813 103.843 32.7214 103.668C32.5616 103.494 32.4039 103.317 32.2483 103.139C32.0928 102.961 31.9396 102.781 31.7885 102.599C31.6373 102.417 31.4884 102.233 31.3419 102.047C31.1953 101.862 31.0509 101.674 30.9088 101.485C30.7669 101.296 30.6272 101.105 30.4899 100.912C30.3525 100.72 30.2175 100.526 30.085 100.33C29.9524 100.134 29.8222 99.9363 29.6945 99.7372C29.5668 99.5381 29.4415 99.3374 29.3186 99.1353C29.1958 98.9331 29.0755 98.7295 28.9577 98.5243C28.8398 98.3192 28.7245 98.1127 28.6117 97.9048C28.4989 97.6968 28.3887 97.4875 28.2811 97.2768C28.1734 97.0662 28.0683 96.8543 27.9658 96.6411C27.8634 96.4279 27.7636 96.2135 27.6664 95.9977C27.5692 95.7821 27.4746 95.5653 27.3827 95.3474C27.2908 95.1294 27.2016 94.9103 27.115 94.6901C27.0285 94.47 26.9447 94.2488 26.8635 94.0265C26.7825 93.8043 26.7041 93.5812 26.6284 93.3571C26.5528 93.133 26.4799 92.9079 26.4097 92.6819C26.3396 92.456 26.2723 92.2293 26.2077 92.0018C26.1432 91.7742 26.0814 91.5458 26.0224 91.3167C25.9634 91.0877 25.9072 90.8579 25.8538 90.6275C25.8005 90.397 25.75 90.1659 25.7024 89.9342C25.6546 89.7025 25.6097 89.4703 25.5677 89.2375C25.5257 89.0047 25.4866 88.7714 25.4504 88.5376C25.4141 88.3039 25.3806 88.0697 25.3501 87.835C25.3195 87.6005 25.2918 87.3656 25.267 87.1303C25.2422 86.8951 25.2203 86.6597 25.2014 86.4238C25.1823 86.1881 25.1662 85.9521 25.1529 85.7159C25.137 85.4794 25.124 85.2428 25.1139 85.006C25.1039 84.7692 25.0967 84.5323 25.0925 84.2954C25.0882 84.0584 25.0869 83.8214 25.0886 83.5844C25.0901 83.3474 25.0947 83.1104 25.1022 82.8735C25.1096 82.6367 25.12 82.3999 25.1334 82.1633C25.1467 81.9266 25.1629 81.6901 25.182 81.4539C25.2012 81.2177 25.2233 80.9817 25.2483 80.7461C25.2732 80.5104 25.301 80.2751 25.3319 80.04C25.3627 79.8051 25.3963 79.5705 25.4328 79.3363C25.4694 79.1021 25.5089 78.8684 25.5512 78.6352C25.5936 78.402 25.6388 78.1694 25.6868 77.9374C25.7349 77.7053 25.7858 77.4738 25.8396 77.2429C25.8933 77.0121 25.9499 76.7821 26.0094 76.5527C26.0689 76.3232 26.1312 76.0945 26.1963 75.8667C26.2614 75.6388 26.3294 75.4117 26.4001 75.1855C26.4708 74.9593 26.5442 74.7339 26.6205 74.5095C26.6968 74.2851 26.7758 74.0617 26.8575 73.8392C26.9393 73.6168 27.0238 73.3954 27.1111 73.175C27.1983 72.9547 27.2882 72.7355 27.3809 72.5173C27.4736 72.2992 27.5689 72.0822 27.6669 71.8663C27.7649 71.6505 27.8656 71.436 27.9689 71.2227C28.0721 71.0094 28.178 70.7974 28.2866 70.5867C28.3951 70.376 28.5063 70.1667 28.62 69.9587C28.7337 69.7508 28.8499 69.5443 28.9687 69.3392C29.0875 69.1341 29.2088 68.9305 29.3327 68.7284C29.4565 68.5263 29.5828 68.3258 29.7115 68.1269C29.8403 67.9279 29.9715 67.7305 30.1051 67.5348C30.2388 67.339 30.3748 67.1449 30.5132 66.9525C30.6517 66.7601 30.7924 66.5695 30.9355 66.3807C31.0787 66.1918 31.2241 66.0047 31.3719 65.8193C31.5196 65.634 31.6696 65.4505 31.8219 65.2688C31.9741 65.0873 32.1286 64.9076 32.2854 64.7298C37.7028 58.6022 44.777 55.3784 52.8803 54.8765Z" fill="white"/>
<path d="M63.1835 106.708C63.1879 106.272 61.5119 103.45 61.2096 102.759C59.3664 98.5429 57.9204 94.0158 57.4653 89.4206C57.3617 88.375 57.3455 87.3161 57.3096 86.2665C57.2111 83.3887 57.3657 80.5473 57.9024 77.7159C57.964 77.3914 58.0296 77.0677 58.0991 76.7449C58.1688 76.4219 58.2423 76.0999 58.3197 75.7788C58.3972 75.4577 58.4785 75.1376 58.5638 74.8186C58.6491 74.4995 58.7383 74.1814 58.8314 73.8646C58.9245 73.5477 59.0214 73.2319 59.1222 72.9174C59.2231 72.6028 59.3277 72.2896 59.4361 71.9775C59.5446 71.6656 59.6569 71.355 59.773 71.0458C59.8891 70.7366 60.009 70.4288 60.1326 70.1225C60.2563 69.8162 60.3836 69.5115 60.5147 69.2083C60.6458 68.9051 60.7806 68.6036 60.9191 68.3037C61.0576 68.0038 61.1997 67.7057 61.3454 67.4093C61.4912 67.1129 61.6406 66.8184 61.7936 66.5257C61.9465 66.2329 62.1031 65.9421 62.2632 65.6532C62.4234 65.3644 62.587 65.0774 62.7541 64.7925C62.9213 64.5076 63.0919 64.2249 63.2659 63.9442C63.44 63.6634 63.6175 63.3849 63.7984 63.1085C63.9793 62.8321 64.1635 62.5581 64.3512 62.2863C64.5388 62.0144 64.7297 61.7449 64.9238 61.4777C65.1181 61.2105 65.3155 60.9458 65.5162 60.6835C65.7169 60.421 65.9208 60.1612 66.1278 59.9039C66.3349 59.6465 66.5451 59.3918 66.7584 59.1395C66.9717 58.8874 67.188 58.6378 67.4075 58.391C67.6268 58.144 67.8492 57.8998 68.0746 57.6584C68.3 57.4169 68.5283 57.1782 68.7595 56.9424C68.9908 56.7065 69.2249 56.4736 69.4618 56.2435C69.6987 56.0133 69.9384 55.7861 70.181 55.5619C70.4235 55.3376 70.6687 55.1163 70.9167 54.8981C71.1645 54.6799 71.415 54.4647 71.6683 54.2526C71.9215 54.0404 72.1773 53.8314 72.4356 53.6257C72.6939 53.4198 72.9546 53.2171 73.2179 53.0176C73.4812 52.8182 73.7469 52.622 74.0149 52.4291C74.283 52.2361 74.5534 52.0464 74.8262 51.8601C83.4487 45.9927 94.4233 43.4395 104.716 45.4095C105.038 45.4701 105.359 45.5344 105.678 45.6024C105.998 45.6704 106.317 45.7422 106.636 45.8178C106.954 45.8933 107.271 45.9725 107.587 46.0555C107.904 46.1384 108.219 46.2251 108.533 46.3155C108.848 46.4059 109.161 46.4999 109.473 46.5977C109.785 46.6953 110.096 46.7966 110.406 46.9016C110.716 47.0067 111.024 47.1153 111.331 47.2275C111.638 47.3398 111.944 47.4556 112.249 47.575C112.553 47.6943 112.856 47.8173 113.158 47.9439C113.459 48.0703 113.76 48.2003 114.058 48.3339C114.357 48.4674 114.654 48.6044 114.949 48.745C115.244 48.8855 115.538 49.0294 115.83 49.1768C116.122 49.3243 116.412 49.4751 116.7 49.6293C116.989 49.7835 117.275 49.941 117.56 50.1019C117.845 50.2628 118.128 50.4271 118.408 50.5946C118.689 50.7622 118.968 50.933 119.245 51.107C119.522 51.2812 119.797 51.4585 120.069 51.6391C120.342 51.8195 120.613 52.0032 120.881 52.1901C121.149 52.377 121.416 52.5669 121.68 52.7601C121.943 52.9533 122.205 53.1495 122.465 53.3487C122.724 53.5479 122.981 53.7502 123.235 53.9554C123.49 54.1607 123.742 54.369 123.992 54.5802C124.242 54.7914 124.489 55.0055 124.734 55.2225C124.978 55.4394 125.22 55.6592 125.46 55.882C125.699 56.1046 125.936 56.3301 126.171 56.5583C126.405 56.7865 126.636 57.0174 126.865 57.251C127.094 57.4847 127.32 57.7211 127.543 57.96C127.767 58.199 127.987 58.4405 128.205 58.6845C128.422 58.9287 128.637 59.1753 128.849 59.4246C129.061 59.6737 129.27 59.9253 129.476 60.1793C129.682 60.4334 129.885 60.6898 130.085 60.9486C130.285 61.2074 130.481 61.4685 130.675 61.732C132.421 64.0853 133.963 66.5411 135.056 69.2686C135.59 70.6029 136.077 71.9538 136.422 73.3507C136.587 74.0204 137.17 77.39 137.416 77.7073C137.44 77.7376 137.466 77.7657 137.491 77.795C137.8 78.7287 137.825 80.3894 137.889 81.3941C137.917 81.8391 137.937 82.2843 137.951 82.7299C137.964 83.1755 137.97 83.6212 137.969 84.067C137.967 84.5129 137.959 84.9586 137.942 85.4042C137.926 85.8497 137.903 86.2948 137.872 86.7395C137.842 87.1843 137.804 87.6285 137.758 88.0719C137.713 88.5155 137.66 88.9581 137.601 89.3998C137.541 89.8416 137.474 90.2823 137.399 90.7218C137.325 91.1614 137.243 91.5996 137.154 92.0365C137.066 92.4734 136.97 92.9087 136.867 93.3424C136.763 93.7761 136.653 94.208 136.536 94.6381C136.419 95.0683 136.294 95.4963 136.163 95.9223C136.031 96.3483 135.893 96.772 135.747 97.1935C135.602 97.6149 135.45 98.0338 135.291 98.4503C135.132 98.8668 134.966 99.2804 134.793 99.6914C134.62 100.102 134.441 100.51 134.254 100.915C134.068 101.32 133.875 101.722 133.676 102.121C128.584 112.245 119.831 119.531 109.109 123.048C108.802 123.146 108.495 123.24 108.187 123.331C107.878 123.421 107.569 123.508 107.258 123.592C106.948 123.675 106.636 123.754 106.324 123.83C106.011 123.906 105.698 123.978 105.384 124.046C105.07 124.114 104.755 124.178 104.439 124.239C104.123 124.299 103.807 124.356 103.49 124.409C103.172 124.462 102.855 124.511 102.536 124.556C102.218 124.601 101.899 124.643 101.58 124.68C101.261 124.718 100.941 124.752 100.621 124.782C100.301 124.811 99.9804 124.837 99.6597 124.86C99.339 124.882 99.018 124.9 98.6968 124.914C98.3756 124.929 98.0544 124.939 97.733 124.946C97.4115 124.953 97.09 124.955 96.7685 124.954C96.447 124.953 96.1256 124.948 95.8042 124.94C95.4828 124.931 95.1616 124.918 94.8405 124.901C94.5195 124.885 94.1987 124.864 93.8781 124.84C93.5575 124.816 93.2372 124.787 92.9173 124.755C92.5975 124.723 92.278 124.688 91.959 124.648C91.6399 124.608 91.3214 124.565 91.0035 124.517C90.6855 124.47 90.3681 124.419 90.0513 124.363C89.7346 124.308 89.4186 124.249 89.1033 124.187C88.7879 124.124 88.4734 124.058 88.1596 123.987C87.846 123.917 87.5331 123.843 87.2211 123.765C86.9092 123.687 86.5983 123.606 86.2883 123.521C85.9783 123.435 85.6694 123.346 85.3616 123.253C85.0537 123.161 84.747 123.064 84.4416 122.964C84.1361 122.864 83.8318 122.76 83.5288 122.653C83.2258 122.545 82.9241 122.434 82.6238 122.319C82.3235 122.205 82.0247 122.086 81.7272 121.964C81.4297 121.842 81.1338 121.717 80.8394 121.588C80.5449 121.459 80.2521 121.326 79.9608 121.19C79.6695 121.054 79.38 120.914 79.0921 120.771C78.7535 120.603 78.4174 120.43 78.0837 120.252C77.7499 120.075 77.4186 119.893 77.0898 119.706C76.761 119.519 76.4348 119.328 76.1113 119.133C75.7877 118.937 75.467 118.737 75.1489 118.533C74.8308 118.329 74.5156 118.12 74.2033 117.907C73.891 117.694 73.5816 117.477 73.2752 117.255C72.9689 117.034 72.6656 116.808 72.3654 116.579C72.0652 116.349 71.7682 116.115 71.4745 115.877C71.1807 115.639 70.8903 115.397 70.6032 115.151C70.316 114.905 70.0322 114.655 69.752 114.402C69.4717 114.148 69.195 113.89 68.9218 113.629C68.6486 113.368 68.379 113.103 68.1131 112.834C67.8471 112.566 67.5849 112.293 67.3265 112.017C67.068 111.742 66.8133 111.462 66.5626 111.179C66.3117 110.896 66.0648 110.61 65.8218 110.321C65.5789 110.031 65.34 109.738 65.105 109.442C64.5458 108.741 63.4997 107.493 63.1835 106.708Z" fill="#F8E076"/>
<path d="M129.361 88.1506C129.842 88.9701 128.77 93.8796 128.493 94.9367C126.351 103.123 121.143 109.839 113.847 114.095C106.302 118.497 97.5962 120.11 89.0866 117.851C82.1337 116.006 76.5575 111.912 72.4543 106.031C71.8809 105.209 71.2792 104.372 70.7815 103.503C70.6719 103.311 70.6234 103.201 70.634 102.979C71.1017 103.5 71.517 104.083 71.9692 104.62C72.7724 105.558 73.6142 106.46 74.4944 107.327C79.013 111.743 85.1491 114.844 91.3693 115.948C92.5342 116.146 93.7064 116.282 94.8858 116.356C96.0652 116.429 97.2452 116.44 98.4257 116.389C105.103 116.136 110.384 114.184 115.833 110.365C116.003 110.247 116.172 110.127 116.339 110.006C116.507 109.884 116.673 109.761 116.838 109.636C117.003 109.511 117.167 109.385 117.33 109.257C117.492 109.129 117.653 108.999 117.814 108.868C117.974 108.737 118.133 108.604 118.29 108.47C118.448 108.336 118.604 108.2 118.759 108.063C118.914 107.926 119.067 107.787 119.219 107.647C119.371 107.507 119.522 107.365 119.672 107.222C119.821 107.079 119.969 106.934 120.116 106.788C120.263 106.642 120.408 106.495 120.552 106.346C120.696 106.197 120.838 106.047 120.979 105.895C121.12 105.744 121.259 105.591 121.397 105.437C121.535 105.282 121.672 105.127 121.807 104.97C121.941 104.813 122.075 104.655 122.207 104.496C122.339 104.336 122.469 104.175 122.598 104.013C122.726 103.851 122.854 103.688 122.979 103.524C123.105 103.359 123.229 103.193 123.351 103.027C123.474 102.86 123.594 102.692 123.714 102.523C123.833 102.353 123.95 102.183 124.066 102.012C124.182 101.84 124.296 101.667 124.409 101.494C124.521 101.32 124.632 101.145 124.741 100.969C124.85 100.794 124.958 100.617 125.063 100.439C125.169 100.261 125.273 100.082 125.375 99.9022C125.477 99.7222 125.578 99.5413 125.677 99.3595C125.775 99.1776 125.872 98.9948 125.967 98.811C126.063 98.6273 126.156 98.4427 126.248 98.2572C126.339 98.0716 126.429 97.8852 126.517 97.6979C126.605 97.5106 126.691 97.3225 126.776 97.1335C126.86 96.9445 126.943 96.7548 127.023 96.5643C127.104 96.3736 127.183 96.1823 127.26 95.9902C127.337 95.7982 127.412 95.6054 127.485 95.4119C127.558 95.2183 127.63 95.0241 127.699 94.8291C128.463 92.6562 128.961 90.4151 129.361 88.1506Z" fill="white"/>
<path d="M70.634 102.979C70.5075 102.8 70.3828 102.62 70.2599 102.439C70.137 102.258 70.0159 102.076 69.8968 101.892C69.7776 101.708 69.6602 101.523 69.5448 101.337C69.4294 101.151 69.3158 100.964 69.2042 100.776C69.0926 100.587 68.9829 100.398 68.8751 100.207C68.7673 100.016 68.6614 99.8248 68.5575 99.6322C68.4535 99.4394 68.3515 99.2456 68.2516 99.0508C68.1516 98.8559 68.0536 98.6601 67.9576 98.4634C67.8615 98.2666 67.7675 98.0688 67.6755 97.8701C67.5835 97.6714 67.4935 97.4718 67.4055 97.2713C67.3175 97.0708 67.2317 96.8694 67.1479 96.667C67.064 96.4648 66.9821 96.2617 66.9024 96.0578C66.8226 95.8539 66.7449 95.6492 66.6693 95.4436C66.5937 95.2381 66.5202 95.0319 66.4487 94.8248C66.3773 94.6179 66.308 94.4102 66.2408 94.2018C66.1736 93.9934 66.1085 93.7844 66.0456 93.5746C65.9826 93.3649 65.9217 93.1546 65.8629 92.9437C65.8042 92.7327 65.7477 92.5212 65.6933 92.3091C65.6389 92.097 65.5866 91.8844 65.5365 91.6712C65.4863 91.458 65.4384 91.2443 65.3927 91.0302C65.3469 90.8161 65.3033 90.6015 65.2619 90.3865C65.2204 90.1715 65.1811 89.956 65.1441 89.7402C65.107 89.5244 65.0721 89.3082 65.0395 89.0917C65.0068 88.8752 64.9763 88.6584 64.9481 88.4413C64.9198 88.2242 64.8937 88.0067 64.8699 87.789C64.846 87.5714 64.8243 87.3535 64.8048 87.1354C64.7854 86.9174 64.7682 86.6991 64.7531 86.4806C64.7381 86.2622 64.7253 86.0436 64.7148 85.8248C64.7041 85.6061 64.6957 85.3873 64.6896 85.1684C64.6834 84.9496 64.6795 84.7306 64.6777 84.5116C64.676 84.2927 64.6766 84.0737 64.6793 83.8548C64.682 83.6358 64.687 83.4169 64.6941 83.1981C64.7014 82.9276 64.7121 82.6572 64.7262 82.387C64.7402 82.1168 64.7575 81.8468 64.7782 81.5769C64.7989 81.3072 64.8229 81.0377 64.8503 80.7685C64.8775 80.4992 64.9081 80.2304 64.9421 79.9621C64.976 79.6936 65.0132 79.4256 65.0539 79.158C65.0944 78.8906 65.1382 78.6236 65.1854 78.3571C65.2325 78.0907 65.2829 77.8248 65.3366 77.5596C65.3903 77.2944 65.4473 77.0299 65.5075 76.7661C65.5677 76.5023 65.6311 76.2393 65.6978 75.9771C65.7645 75.7148 65.8344 75.4534 65.9076 75.193C65.9807 74.9324 66.0571 74.6729 66.1367 74.4143C66.2162 74.1556 66.2989 73.898 66.3848 73.6414C66.4707 73.3848 66.5597 73.1293 66.652 72.8749C66.7442 72.6205 66.8395 72.3673 66.938 72.1152C67.0364 71.8632 67.1379 71.6124 67.2425 71.3629C67.3471 71.1134 67.4548 70.8652 67.5655 70.6183C67.6762 70.3714 67.79 70.1259 67.9068 69.8818C68.0236 69.6377 68.1434 69.3951 68.2663 69.154C68.389 68.9129 68.5148 68.6733 68.6435 68.4352C68.7721 68.1972 68.9037 67.9609 69.0382 67.7261C69.1727 67.4913 69.3101 67.2582 69.4505 67.0268C69.5907 66.7954 69.7338 66.5658 69.8797 66.3379C70.0257 66.11 70.1744 65.884 70.3258 65.6598C70.4773 65.4357 70.6316 65.2134 70.7886 64.993C70.9455 64.7726 71.1052 64.5541 71.2676 64.3376C71.4299 64.1212 71.5949 63.9068 71.7626 63.6944C71.9302 63.482 72.1005 63.2717 72.2734 63.0635C72.4462 62.8553 72.6215 62.6493 72.7994 62.4455C72.9773 62.2416 73.1577 62.0399 73.3406 61.8405C73.5235 61.6411 73.7089 61.444 73.8967 61.2491C74.0844 61.0543 74.2745 60.8618 74.467 60.6716C74.6594 60.4814 74.8543 60.2937 75.0514 60.1083C75.2444 59.9263 75.4396 59.7467 75.6371 59.5694C75.8345 59.3923 76.0341 59.2176 76.2359 59.0453C76.4377 58.873 76.6416 58.7033 76.8476 58.5361C77.0536 58.369 77.2616 58.2045 77.4718 58.0425C77.6819 57.8804 77.8939 57.7211 78.108 57.5643C78.322 57.4076 78.538 57.2536 78.756 57.1023C78.9739 56.951 79.1936 56.8023 79.4152 56.6564C79.6368 56.5105 79.8602 56.3674 80.0854 56.2271C80.3105 56.0867 80.5373 55.9492 80.7659 55.8146C80.9944 55.6799 81.2246 55.5481 81.4565 55.4191C81.6883 55.2902 81.9217 55.1641 82.1568 55.041C82.3918 54.9178 82.6282 54.7975 82.8662 54.6804C83.1041 54.5631 83.3435 54.4488 83.5843 54.3374C83.8251 54.2261 84.0673 54.1178 84.3109 54.0125C84.5543 53.9072 84.7991 53.8049 85.0452 53.7056C85.2913 53.6065 85.5385 53.5104 85.787 53.4174C86.0354 53.3243 86.285 53.2343 86.5357 53.1474C86.7863 53.0606 87.0381 52.9769 87.2908 52.8963C87.5435 52.8157 87.7972 52.7382 88.0519 52.664C88.3066 52.5897 88.5622 52.5185 88.8186 52.4506C89.0751 52.3827 89.3323 52.318 89.5904 52.2565C89.8486 52.195 90.1073 52.1366 90.3668 52.0814C90.6264 52.0263 90.8865 51.9745 91.1473 51.9259C91.4081 51.8772 91.6695 51.8319 91.9314 51.7898C92.1933 51.7477 92.4557 51.7088 92.7186 51.6732C92.9816 51.6376 93.2449 51.6053 93.5086 51.5762C93.7723 51.5472 94.0363 51.5215 94.3006 51.499C94.565 51.4764 94.8296 51.4572 95.0944 51.4413C95.3593 51.4255 95.6243 51.4129 95.8894 51.4035C96.1546 51.3942 96.4197 51.3882 96.685 51.3855C96.9503 51.3827 97.2156 51.3833 97.4808 51.3872C97.7461 51.3911 98.0112 51.3983 98.2764 51.4088C107.318 51.7193 115.295 55.6918 121.409 62.2712C126.281 67.515 129.277 74.8385 129.603 81.9764C129.658 83.1754 129.669 84.3896 129.583 85.5872C129.521 86.4414 129.393 87.2955 129.361 88.1507C128.961 90.4152 128.463 92.6563 127.699 94.8292C127.63 95.0242 127.558 95.2184 127.485 95.4119C127.412 95.6055 127.337 95.7983 127.26 95.9904C127.183 96.1825 127.104 96.3738 127.023 96.5643C126.943 96.7549 126.86 96.9446 126.776 97.1336C126.691 97.3225 126.605 97.5107 126.517 97.698C126.429 97.8853 126.339 98.0717 126.248 98.2573C126.156 98.4428 126.063 98.6274 125.967 98.8111C125.872 98.9949 125.775 99.1777 125.677 99.3596C125.578 99.5414 125.478 99.7223 125.375 99.9023C125.273 100.082 125.169 100.261 125.063 100.439C124.958 100.617 124.85 100.794 124.741 100.97C124.632 101.145 124.521 101.32 124.409 101.494C124.296 101.668 124.182 101.84 124.066 102.012C123.95 102.183 123.833 102.353 123.714 102.523C123.594 102.692 123.474 102.86 123.351 103.027C123.229 103.194 123.105 103.359 122.979 103.524C122.854 103.688 122.726 103.851 122.598 104.013C122.469 104.175 122.339 104.336 122.207 104.496C122.075 104.655 121.941 104.813 121.807 104.97C121.672 105.127 121.535 105.283 121.397 105.437C121.259 105.591 121.12 105.744 120.979 105.896C120.838 106.047 120.696 106.197 120.552 106.346C120.408 106.495 120.263 106.642 120.116 106.788C119.969 106.934 119.821 107.079 119.672 107.222C119.522 107.365 119.372 107.507 119.219 107.647C119.067 107.787 118.914 107.926 118.759 108.063C118.604 108.2 118.448 108.336 118.29 108.47C118.133 108.604 117.974 108.737 117.814 108.868C117.654 108.999 117.492 109.129 117.33 109.257C117.167 109.385 117.003 109.511 116.838 109.636C116.673 109.761 116.507 109.884 116.339 110.006C116.172 110.127 116.003 110.247 115.834 110.366C110.384 114.184 105.103 116.136 98.4258 116.389C97.2452 116.441 96.0653 116.43 94.8859 116.356C93.7065 116.282 92.5343 116.146 91.3693 115.948C85.1492 114.844 79.0131 111.743 74.4945 107.327C73.6142 106.46 72.7725 105.558 71.9693 104.62C71.5171 104.083 71.1018 103.501 70.634 102.979Z" fill="#101055"/>
<path d="M81.6928 67.0132C82.1843 67.3658 82.5665 68.207 82.8492 68.7377C83.0774 69.1754 83.2967 69.6175 83.507 70.064C83.7175 70.5105 83.9188 70.961 84.111 71.4156C84.3033 71.8702 84.4863 72.3285 84.6602 72.7904C84.8339 73.2524 84.9983 73.7177 85.1534 74.1862C85.3084 74.6549 85.4539 75.1264 85.59 75.6008C85.7261 76.0752 85.8525 76.5522 85.9693 77.0318C86.0861 77.5114 86.1932 77.9931 86.2907 78.4769C86.3881 78.9608 86.4758 79.4464 86.5536 79.9338C87.8519 87.8925 85.9642 96.7735 81.2381 103.336C80.4687 104.405 79.6592 105.54 78.7281 106.474L77.8831 105.855C78.6896 104.795 79.5602 103.792 80.3411 102.709C80.5851 102.367 80.8223 102.02 81.0527 101.669C81.283 101.317 81.5062 100.961 81.7223 100.6C81.9384 100.24 82.1472 99.8754 82.3488 99.5066C82.5504 99.1378 82.7446 98.7651 82.9313 98.3887C83.1182 98.0121 83.2974 97.632 83.4689 97.2484C83.6406 96.8647 83.8046 96.4778 83.9608 96.0877C84.1171 95.6976 84.2655 95.3044 84.4062 94.9084C84.5468 94.5123 84.6794 94.1135 84.8041 93.7122C84.8735 93.4876 84.9404 93.2625 85.005 93.0366C85.0694 92.8107 85.1315 92.5841 85.1913 92.3569C85.251 92.1296 85.3082 91.9018 85.3631 91.6732C85.4179 91.4448 85.4703 91.2158 85.5203 90.9862C85.5703 90.7566 85.6179 90.5266 85.663 90.296C85.708 90.0654 85.7506 89.8344 85.7909 89.603C85.831 89.3714 85.8687 89.1395 85.9038 88.9072C85.9391 88.675 85.9718 88.4423 86.0021 88.2093C86.0324 87.9763 86.0602 87.743 86.0854 87.5094C86.1107 87.2758 86.1336 87.042 86.154 86.8081C86.1743 86.574 86.1921 86.3397 86.2075 86.1052C86.2228 85.8708 86.2356 85.6362 86.246 85.4015C86.2563 85.1667 86.2642 84.9319 86.2694 84.6971C86.2748 84.4622 86.2777 84.2273 86.2781 83.9923C86.2784 83.7574 86.2762 83.5225 86.2716 83.2876C86.2669 83.0526 86.2598 82.8178 86.2501 82.583C86.2404 82.3482 86.2283 82.1136 86.2136 81.8791C86.199 81.6447 86.1818 81.4104 86.1622 81.1763C86.1426 80.9421 86.1205 80.7083 86.0958 80.4747C86.0712 80.241 86.0441 80.0076 86.0145 79.7745C85.985 79.5415 85.9529 79.3087 85.9183 79.0763C85.8837 78.8439 85.8467 78.6119 85.8073 78.3802C85.7678 78.1487 85.7259 77.9175 85.6814 77.6868C85.637 77.4561 85.5902 77.2259 85.541 76.9962C85.4917 76.7665 85.4399 76.5373 85.3857 76.3086C85.3315 76.08 85.2749 75.8521 85.2159 75.6247C85.1568 75.3973 85.0954 75.1705 85.0315 74.9444C84.9676 74.7183 84.9014 74.4928 84.8327 74.2681C84.7641 74.0435 84.693 73.8196 84.6196 73.5963C84.5461 73.3732 84.4704 73.1508 84.3922 72.9293C84.314 72.7077 84.2335 72.487 84.1507 72.2671C84.0678 72.0473 83.9826 71.8284 83.8951 71.6103C83.2665 70.0227 82.4935 68.5189 81.6928 67.0132Z" fill="white"/>
<path d="M68.1741 86.2047C73.0748 86.2001 77.9753 86.2226 82.8757 86.2724C82.83 87.275 82.6442 88.287 82.4537 89.2715C81.7618 92.8444 80.481 95.9088 78.6363 99.0314C78.1459 99.7898 77.6224 100.525 77.0657 101.235C76.5088 101.946 75.921 102.631 75.3023 103.289C71.9819 99.3925 69.6663 95.0181 68.6614 89.9784C68.4156 88.7459 68.2067 87.462 68.1741 86.2047Z" fill="white"/>
<path d="M75.5688 64.3411C75.6043 64.3704 75.6418 64.3976 75.6757 64.429C76.3009 65.0076 76.8502 65.9033 77.3477 66.5941C77.5562 66.8897 77.7595 67.1888 77.9573 67.4915C78.1553 67.7942 78.3478 68.1004 78.5349 68.41C78.7219 68.7195 78.9034 69.0323 79.0794 69.3483C79.2553 69.6644 79.4255 69.9834 79.5902 70.3055C79.7547 70.6274 79.9135 70.9523 80.0665 71.28C80.2197 71.6078 80.3669 71.9381 80.5082 72.271C80.6495 72.604 80.7849 72.9394 80.9143 73.2771C81.0437 73.6148 81.167 73.9548 81.2843 74.2969C81.4016 74.6391 81.5127 74.9832 81.6178 75.3292C81.7229 75.6752 81.8218 76.0231 81.9146 76.3727C82.0073 76.7223 82.0938 77.0735 82.174 77.4262C82.2543 77.7789 82.3283 78.1328 82.3959 78.4881C82.4636 78.8435 82.525 79.1999 82.5799 79.5573C82.6349 79.9148 82.6835 80.2731 82.7258 80.6323C82.7681 80.9915 82.804 81.3514 82.8335 81.7119C82.8629 82.0724 82.8859 82.4332 82.9026 82.7946C80.5062 82.8415 78.0938 82.7745 75.6959 82.7631C73.1887 82.7494 70.6814 82.7501 68.1741 82.765C68.1975 81.3469 68.4281 79.893 68.6967 78.5027C69.7262 73.1733 72.0042 68.4429 75.5688 64.3411Z" fill="#9F7ED1"/>
<path d="M84.99 57.4089C85.2051 57.6655 85.417 57.9246 85.6259 58.1862C85.8347 58.4478 86.0403 58.7119 86.2428 58.9785C86.4451 59.2451 86.6442 59.5142 86.8401 59.7856C87.036 60.057 87.2286 60.3308 87.4179 60.607C87.6071 60.8831 87.793 61.1614 87.9755 61.4421C88.1581 61.7227 88.3372 62.0054 88.5128 62.2904C88.6885 62.5753 88.8607 62.8624 89.0293 63.1516C89.1981 63.4406 89.3633 63.7317 89.5249 64.0249C89.6865 64.318 89.8446 64.613 89.9991 64.91C90.1537 65.2069 90.3046 65.5058 90.4519 65.8064C90.5991 66.107 90.7427 66.4094 90.8825 66.7135C91.0225 67.0176 91.1587 67.3233 91.2914 67.6306C91.4239 67.938 91.5526 68.247 91.6776 68.5576C91.8027 68.868 91.924 69.18 92.0415 69.4935C92.159 69.8069 92.2726 70.1218 92.3824 70.438C92.4922 70.7542 92.5982 71.0717 92.7004 71.3904C92.8025 71.7092 92.9008 72.0292 92.9953 72.3503C93.0897 72.6715 93.1802 72.9938 93.2668 73.3171C93.3534 73.6405 93.436 73.9648 93.5148 74.2902C93.5936 74.6155 93.6683 74.9418 93.7391 75.269C93.81 75.5962 93.8769 75.9242 93.9396 76.253C94.0025 76.5817 94.0615 76.9112 94.1165 77.2415C94.1713 77.5716 94.2222 77.9024 94.2691 78.2339C94.316 78.5653 94.3588 78.8973 94.3977 79.2298C94.4365 79.5623 94.4712 79.8952 94.502 80.2286C94.5328 80.5619 94.5595 80.8955 94.5823 81.2295C94.6049 81.5635 94.6236 81.8977 94.6382 82.232C94.6528 82.5665 94.6633 82.9011 94.6697 83.2357C94.6763 83.5704 94.6787 83.9051 94.6771 84.2399C94.6754 84.5747 94.6697 84.9093 94.6601 85.2439C94.6503 85.5786 94.6365 85.913 94.6186 86.2472C94.6008 86.5814 94.579 86.9155 94.553 87.2493C94.5221 87.6381 94.4857 88.0265 94.4437 88.4143C94.4018 88.8021 94.3543 89.1892 94.3012 89.5756C94.248 89.962 94.1893 90.3476 94.1251 90.7324C94.0608 91.1171 93.9911 91.5009 93.9158 91.8836C93.8406 92.2664 93.7598 92.648 93.6735 93.0284C93.5873 93.4088 93.4956 93.7879 93.3984 94.1657C93.3012 94.5435 93.1987 94.9198 93.0908 95.2946C92.9828 95.6694 92.8694 96.0426 92.7506 96.4142C92.6319 96.7858 92.5078 97.1556 92.3784 97.5235C92.2491 97.8915 92.1145 98.2576 91.9746 98.6217C91.8346 98.9859 91.6895 99.3479 91.5392 99.7078C91.3889 100.068 91.2335 100.425 91.0728 100.781C90.9122 101.136 90.7464 101.49 90.5756 101.84C90.4049 102.191 90.2292 102.539 90.0483 102.885C89.8675 103.23 89.6818 103.573 89.4911 103.914C89.3004 104.254 89.1049 104.591 88.9045 104.926C87.7409 106.842 86.3903 108.614 85.0438 110.402C82.8106 109.242 80.7124 108.03 78.7283 106.474C79.6593 105.54 80.4688 104.405 81.2383 103.336C85.9643 96.7735 87.852 87.8925 86.5538 79.9338C86.4759 79.4464 86.3883 78.9608 86.2908 78.4769C86.1934 77.9931 86.0862 77.5114 85.9694 77.0318C85.8526 76.5522 85.7262 76.0752 85.5902 75.6008C85.4541 75.1264 85.3085 74.6549 85.1535 74.1862C84.9984 73.7177 84.834 73.2524 84.6603 72.7904C84.4865 72.3285 84.3034 71.8702 84.1111 71.4156C83.9189 70.961 83.7176 70.5105 83.5072 70.064C83.2968 69.6175 83.0775 69.1754 82.8493 68.7377C82.5666 68.207 82.1844 67.3658 81.693 67.0132C81.1037 66.2668 80.6534 65.363 80.1036 64.5764C79.4702 63.6703 78.6805 62.7987 78.1167 61.8552C80.1452 60.0937 82.5077 58.4582 84.99 57.4089Z" fill="#F8E076"/>
<path d="M96.1989 54.8039C100.603 54.6336 104.974 55.6494 108.995 57.399C109.209 57.494 109.422 57.5915 109.634 57.6916C109.846 57.7917 110.056 57.8943 110.266 57.9995C110.475 58.1047 110.683 58.2124 110.89 58.3226C111.096 58.4328 111.302 58.5455 111.506 58.6607C111.71 58.7759 111.912 58.8936 112.113 59.0137C112.314 59.1339 112.514 59.2564 112.712 59.3813C112.91 59.5063 113.107 59.6336 113.302 59.7633C113.497 59.8931 113.69 60.0252 113.882 60.1595C114.074 60.294 114.264 60.4307 114.453 60.5697C114.641 60.7088 114.828 60.8501 115.013 60.9936C115.198 61.1372 115.382 61.283 115.563 61.431C115.745 61.579 115.924 61.7291 116.102 61.8815C116.28 62.0338 116.456 62.1883 116.631 62.3449C116.805 62.5016 116.977 62.6603 117.147 62.8212C117.318 62.9819 117.486 63.1447 117.652 63.3097C117.819 63.4745 117.983 63.6414 118.146 63.8104C118.308 63.9792 118.468 64.15 118.626 64.3228C118.784 64.4955 118.941 64.6702 119.094 64.8467C119.248 65.0233 119.4 65.2017 119.55 65.3819C119.699 65.5621 119.847 65.7442 119.992 65.9279C120.137 66.1117 120.28 66.2973 120.421 66.4846C120.562 66.6718 120.7 66.8607 120.836 67.0513C120.973 67.242 121.106 67.4342 121.238 67.628C121.369 67.822 121.498 68.0174 121.625 68.2144C121.752 68.4114 121.876 68.6099 121.998 68.8099C122.12 69.0099 122.24 69.2113 122.357 69.4143C122.474 69.6172 122.588 69.8215 122.7 70.0272C122.812 70.2329 122.922 70.44 123.029 70.6483C123.136 70.8566 123.241 71.0662 123.343 71.2771C123.445 71.488 123.544 71.7 123.641 71.9133C123.738 72.1266 123.832 72.341 123.924 72.5567C124.015 72.7722 124.104 72.9888 124.191 73.2066C126.909 80.1157 126.813 88.3018 123.832 95.1125C123.733 95.3391 123.632 95.5645 123.528 95.7886C123.423 96.0128 123.317 96.2356 123.207 96.457C123.097 96.6785 122.985 96.8986 122.87 97.1174C122.755 97.336 122.637 97.5533 122.517 97.7691C122.396 97.9849 122.273 98.1992 122.148 98.412C122.022 98.6248 121.894 98.836 121.763 99.0456C121.632 99.2551 121.498 99.4631 121.362 99.6694C121.226 99.8758 121.088 100.08 120.947 100.283C120.805 100.486 120.662 100.687 120.516 100.887C120.37 101.086 120.221 101.284 120.07 101.479C119.919 101.675 119.766 101.869 119.61 102.061C119.455 102.252 119.297 102.442 119.136 102.63C118.976 102.818 118.813 103.004 118.648 103.188C118.483 103.372 118.316 103.554 118.146 103.734C117.977 103.914 117.805 104.092 117.631 104.267C117.457 104.443 117.281 104.616 117.103 104.788C116.925 104.959 116.745 105.128 116.563 105.295C116.38 105.462 116.196 105.626 116.009 105.789C115.823 105.951 115.635 106.111 115.444 106.268C115.254 106.426 115.062 106.581 114.868 106.734C114.673 106.887 114.477 107.038 114.28 107.186C114.082 107.334 113.882 107.479 113.681 107.622C113.479 107.766 113.276 107.906 113.071 108.044C112.866 108.182 112.659 108.318 112.451 108.451C112.243 108.584 112.033 108.714 111.821 108.842C111.61 108.97 111.397 109.095 111.182 109.218C110.968 109.34 110.752 109.46 110.534 109.578C110.317 109.695 110.098 109.809 109.877 109.921C109.657 110.033 109.435 110.142 109.212 110.248C108.989 110.355 108.765 110.458 108.539 110.559C108.313 110.66 108.087 110.758 107.859 110.853C107.63 110.948 107.401 111.041 107.171 111.13C106.878 111.244 106.583 111.352 106.286 111.455C105.989 111.559 105.691 111.657 105.39 111.75C105.09 111.842 104.788 111.93 104.485 112.013C104.182 112.095 103.877 112.173 103.571 112.245C103.265 112.317 102.958 112.383 102.65 112.445C102.342 112.506 102.033 112.562 101.723 112.613C101.413 112.664 101.102 112.71 100.79 112.75C100.478 112.79 100.166 112.824 99.853 112.854C99.5401 112.883 99.2268 112.907 98.913 112.926C98.5993 112.944 98.2854 112.957 97.9711 112.965C97.6569 112.973 97.3427 112.975 97.0285 112.972C96.7142 112.969 96.4001 112.96 96.0861 112.946C95.7722 112.932 95.4586 112.913 95.1453 112.888C94.832 112.864 94.5192 112.834 94.2069 112.798C93.8946 112.763 93.583 112.722 93.2722 112.675C92.9613 112.629 92.6514 112.578 92.3423 112.521C91.0733 112.299 89.7984 112.028 88.585 111.59C88.8823 111.108 89.2639 110.661 89.5957 110.2C90.1923 109.376 90.7564 108.53 91.2882 107.662C91.5026 107.319 91.7124 106.972 91.9175 106.623C92.1226 106.274 92.3229 105.922 92.5185 105.568C92.714 105.213 92.9047 104.856 93.0907 104.497C93.2765 104.137 93.4575 103.775 93.6335 103.41C93.8096 103.046 93.9808 102.679 94.147 102.309C94.3131 101.94 94.4742 101.569 94.6302 101.195C94.7864 100.822 94.9374 100.446 95.0833 100.068C95.2292 99.6907 95.37 99.3111 95.5056 98.9296C95.6413 98.5481 95.7717 98.1649 95.897 97.7798C96.0222 97.3948 96.1422 97.0082 96.2571 96.6199C96.3718 96.2317 96.4813 95.8419 96.5856 95.4507C96.6898 95.0595 96.7888 94.6669 96.8824 94.273C96.976 93.879 97.0642 93.4839 97.1471 93.0876C97.23 92.6913 97.3076 92.294 97.3797 91.8957C97.4519 91.4972 97.5187 91.0979 97.58 90.6977C97.6413 90.2975 97.6972 89.8965 97.7477 89.4948C97.792 89.1272 97.8318 88.7592 97.8671 88.3906C97.9023 88.022 97.9331 87.6531 97.9594 87.2838C97.9857 86.9144 98.0074 86.5448 98.0247 86.175C98.0419 85.8052 98.0545 85.4352 98.0626 85.065C98.0708 84.6948 98.0745 84.3246 98.0736 83.9543C98.0728 83.5841 98.0673 83.2139 98.0574 82.8438C98.0474 82.4737 98.0329 82.1038 98.0139 81.7341C97.9949 81.3642 97.9714 80.9947 97.9434 80.6256C97.9153 80.2564 97.8827 79.8876 97.8457 79.5192C97.8086 79.1508 97.767 78.783 97.721 78.4156C97.675 78.0482 97.6244 77.6815 97.5693 77.3154C97.5143 76.9492 97.4548 76.5838 97.3907 76.2191C97.3268 75.8544 97.2584 75.4906 97.1855 75.1276C97.1126 74.7646 97.0353 74.4026 96.9535 74.0414C96.8717 73.6803 96.7856 73.3202 96.6951 72.9612C96.6045 72.6023 96.5096 72.2444 96.4103 71.8877C96.311 71.531 96.2073 71.1756 96.0993 70.8214C95.9913 70.4673 95.879 70.1145 95.7624 69.7631C95.6457 69.4117 95.5248 69.0618 95.3996 68.7133C95.2744 68.3649 95.1449 68.0181 95.0112 67.6729C94.8775 67.3276 94.7397 66.984 94.5976 66.6421C94.4555 66.3002 94.3092 65.96 94.1588 65.6216C94.0085 65.2834 93.8539 64.9469 93.6952 64.6124C93.5366 64.2779 93.3739 63.9454 93.2071 63.6148C93.0403 63.2842 92.8695 62.9558 92.6947 62.6294C92.5198 62.303 92.341 61.9788 92.1583 61.6568C91.9756 61.3348 91.7889 61.0151 91.5983 60.6977C91.4078 60.3802 91.2133 60.0652 91.015 59.7525C90.8167 59.4398 90.6147 59.1296 90.4088 58.8218C90.2029 58.5141 89.9933 58.209 89.78 57.9063C89.5666 57.6038 89.3496 57.3038 89.1289 57.0065C88.9083 56.7092 88.684 56.4147 88.4561 56.1229C90.6258 55.2482 93.8544 54.9412 96.1989 54.8039Z" fill="white"/>
</g>
<defs>
<clipPath id="clip0_47_1518">
<rect width="150" height="150" fill="white" transform="translate(0 0.5)"/>
</clipPath>
</defs>
</svg>
