<svg width="150" height="151" viewBox="0 0 150 151" fill="none" xmlns="http://www.w3.org/2000/svg">
<g clip-path="url(#clip0_47_1897)">
<path d="M0 0.5H114.59H115.195H150V40.9666V41.4096V69.9906V71.2714V150.5H106.652H94.6862H53.521H38.9921H33.4619H19.5483H0V68.8916V67.9798V0.5Z" fill="#FEFEFE"/>
<path d="M0 67.9798C0.311792 67.0438 0.710918 66.2308 1.64628 65.7729C2.36571 65.4207 3.24568 65.337 3.99845 65.6339C4.72797 65.9217 5.25141 66.5365 5.54109 67.2528C5.8389 67.9893 5.88463 68.8164 5.5644 69.5535C5.54505 69.5974 5.52462 69.6409 5.5031 69.6839C5.48156 69.7267 5.45896 69.7691 5.4353 69.8109C5.41163 69.8527 5.38693 69.8938 5.3612 69.9344C5.33545 69.9749 5.30871 70.0148 5.28095 70.054C5.25321 70.0932 5.22449 70.1316 5.1948 70.1693C5.16512 70.2071 5.1345 70.2441 5.10296 70.2804C5.07141 70.3165 5.03896 70.3518 5.00563 70.3864C4.97229 70.421 4.93811 70.4547 4.90308 70.4876C4.86805 70.5205 4.83222 70.5524 4.79558 70.5834C4.75894 70.6145 4.72154 70.6446 4.68338 70.6737C4.64522 70.7029 4.60635 70.731 4.56678 70.7582C4.5272 70.7854 4.48696 70.8117 4.44606 70.8369C4.40517 70.8619 4.36366 70.8861 4.32155 70.9092C4.27944 70.9323 4.23678 70.9543 4.19355 70.9753C4.15033 70.9962 4.10661 71.016 4.06239 71.0348C4.01817 71.0534 3.97351 71.071 3.9284 71.0875C3.06217 71.3948 2.07248 71.1993 1.27122 70.7897C0.586273 70.4396 0.24425 69.5734 0 68.8917V67.9798Z" fill="#523E77"/>
<path d="M150 41.4095C149.903 41.8083 149.802 42.2004 149.626 42.5732C149.589 42.6527 149.548 42.7302 149.503 42.8055C149.458 42.8809 149.41 42.9539 149.357 43.0244C149.304 43.0948 149.249 43.1624 149.19 43.2273C149.13 43.2921 149.068 43.3538 149.002 43.4123C148.937 43.4709 148.869 43.526 148.797 43.5775C148.726 43.6292 148.653 43.6771 148.578 43.7214C148.501 43.7656 148.423 43.8059 148.343 43.8422C148.263 43.8786 148.182 43.9109 148.099 43.939C147.306 44.2065 146.315 44.1194 145.578 43.7291C144.888 43.3642 144.427 42.6974 144.214 41.9583C143.992 41.1844 144.069 40.402 144.466 39.698C144.864 38.992 145.558 38.4469 146.351 38.2631C147.114 38.0861 147.877 38.2764 148.537 38.68C149.476 39.2551 149.751 39.9484 150 40.9666V41.4095Z" fill="#523E77"/>
<path d="M2.62355 36.7697C3.3333 36.6948 3.96671 36.704 4.60033 37.0727C5.29707 37.4782 5.76327 38.1938 5.96129 38.9646C6.1602 39.7389 6.03857 40.5235 5.61986 41.2048C5.14976 41.9696 4.45631 42.3888 3.6063 42.6088C2.97457 42.6744 2.40756 42.6205 1.83006 42.3385C1.78598 42.3172 1.74247 42.2947 1.69953 42.271C1.65658 42.2474 1.61425 42.2227 1.57254 42.197C1.53082 42.1713 1.48978 42.1445 1.44942 42.1168C1.40905 42.0889 1.36941 42.0602 1.33049 42.0305C1.29156 42.0007 1.25341 41.9699 1.21603 41.9382C1.17865 41.9066 1.14209 41.8739 1.10635 41.8404C1.07061 41.8069 1.03573 41.7725 1.00171 41.7372C0.967693 41.702 0.934583 41.6658 0.902379 41.6288C0.870175 41.5919 0.838917 41.5542 0.808607 41.5157C0.778296 41.4772 0.748971 41.4379 0.72063 41.398C0.692289 41.358 0.664969 41.3174 0.638669 41.276C0.612369 41.2346 0.587124 41.1926 0.562932 41.15C0.53874 41.1074 0.515631 41.0642 0.493607 41.0205C0.471583 40.9766 0.45067 40.9323 0.430871 40.8875C0.41107 40.8426 0.392406 40.7974 0.37488 40.7517C0.357352 40.7059 0.340984 40.6597 0.325775 40.6131C0.0688221 39.8299 0.130076 38.9505 0.528551 38.2251C1.00488 37.3579 1.72537 37.0396 2.62355 36.7697Z" fill="#523E77"/>
<path d="M114.59 0.5H115.194C116.188 0.861796 117.103 1.36285 117.588 2.35834C117.609 2.40233 117.63 2.44684 117.649 2.49187C117.668 2.53688 117.686 2.58236 117.703 2.6283C117.72 2.67424 117.736 2.72058 117.751 2.76731C117.765 2.81406 117.779 2.86114 117.791 2.90855C117.803 2.95598 117.814 3.00368 117.824 3.05166C117.834 3.09963 117.842 3.14783 117.85 3.19625C117.857 3.24466 117.863 3.29323 117.868 3.34196C117.873 3.39068 117.877 3.4395 117.879 3.48841C117.881 3.53732 117.883 3.58626 117.883 3.63523C117.883 3.68421 117.881 3.73315 117.879 3.78206C117.876 3.83096 117.873 3.87977 117.868 3.92848C117.862 3.9772 117.856 4.02576 117.849 4.07416C117.841 4.12256 117.833 4.17074 117.823 4.2187C117.813 4.26666 117.802 4.31434 117.789 4.36174C117.777 4.40913 117.764 4.45619 117.749 4.50291C117.734 4.54961 117.718 4.59592 117.701 4.64183C117.682 4.69077 117.662 4.73919 117.641 4.7871C117.619 4.83501 117.597 4.88235 117.573 4.92912C117.549 4.97588 117.524 5.02202 117.498 5.06751C117.472 5.11302 117.444 5.15784 117.416 5.20197C117.388 5.2461 117.358 5.28949 117.327 5.33212C117.297 5.37476 117.265 5.4166 117.232 5.45763C117.2 5.49868 117.166 5.53887 117.131 5.5782C117.096 5.61754 117.061 5.65597 117.024 5.6935C116.987 5.73104 116.95 5.76762 116.911 5.80325C116.873 5.83888 116.833 5.87352 116.793 5.90716C116.753 5.94082 116.712 5.97342 116.67 6.00499C116.628 6.03656 116.585 6.06705 116.542 6.09647C116.498 6.12587 116.454 6.15416 116.409 6.18135C116.364 6.20853 116.319 6.23456 116.272 6.25944C116.226 6.28433 116.179 6.30802 116.132 6.33053C116.084 6.35305 116.036 6.37436 115.988 6.39446C115.25 6.69561 114.462 6.66929 113.738 6.34247C112.96 5.9911 112.37 5.36933 112.096 4.5558C112.066 4.46586 112.041 4.3747 112.02 4.28233C111.999 4.18995 111.983 4.09677 111.971 4.00281C111.959 3.90885 111.952 3.81454 111.949 3.71987C111.946 3.62521 111.948 3.53062 111.954 3.43612C111.961 3.34163 111.972 3.24766 111.987 3.15421C112.002 3.06076 112.022 2.96827 112.047 2.87674C112.071 2.78521 112.1 2.69507 112.133 2.60631C112.166 2.51755 112.203 2.43059 112.244 2.34542C112.736 1.35435 113.575 0.829752 114.59 0.5Z" fill="#523E77"/>
<path d="M144.77 69.4163C145.115 68.5222 145.283 67.2521 145.867 66.4953C145.992 66.3333 146.069 66.2874 146.267 66.2527C146.89 66.5603 147.371 68.6632 147.653 69.3634C148.413 69.6674 149.202 69.8254 150 69.9905V71.2714C149.272 71.597 148.456 71.7738 147.696 72.025C147.319 72.7503 147.012 74.575 146.607 75.0097C146.47 75.157 146.402 75.1339 146.222 75.1169C145.491 74.6499 145.007 72.6583 144.623 71.8159C144.561 71.8062 144.498 71.7956 144.436 71.7839C143.721 71.6519 142.231 71.377 141.818 70.7736C141.814 70.6597 141.794 70.6132 141.858 70.5091C142.259 69.8517 144.031 69.5996 144.77 69.4163Z" fill="#523E77"/>
<path d="M40.3945 0.731388C41.0671 0.654611 41.6944 0.701685 42.3178 0.98518C43.0373 1.3124 43.6149 1.89815 43.8839 2.64624C43.9011 2.69462 43.917 2.7434 43.9318 2.79258C43.9464 2.84175 43.9599 2.89127 43.9722 2.94112C43.9844 2.99098 43.9954 3.04111 44.0052 3.09152C44.0148 3.14192 44.0233 3.19254 44.0305 3.24337C44.0377 3.2942 44.0436 3.34517 44.0482 3.3963C44.0529 3.44743 44.0563 3.49864 44.0583 3.54993C44.0605 3.60123 44.0613 3.65254 44.0608 3.70387C44.0603 3.75521 44.0585 3.8065 44.0554 3.85774C44.0524 3.90899 44.0481 3.96012 44.0425 4.01115C44.0368 4.06218 44.03 4.11304 44.0219 4.16371C44.0137 4.2144 44.0042 4.26485 43.9936 4.31506C43.9828 4.36528 43.9709 4.41519 43.9577 4.4648C43.9445 4.51442 43.9301 4.56367 43.9145 4.61256C43.8989 4.66145 43.882 4.70992 43.8639 4.75797C43.8458 4.80602 43.8265 4.85358 43.8061 4.90066C43.7856 4.94775 43.7639 4.99429 43.7412 5.04029C43.3184 5.89724 42.5544 6.36777 41.6762 6.65784C41.0358 6.78425 40.3767 6.75259 39.768 6.50153C39.053 6.20663 38.543 5.62905 38.2622 4.91582C38.2425 4.86684 38.2241 4.81737 38.207 4.76742C38.1898 4.71748 38.174 4.66712 38.1596 4.61633C38.145 4.56556 38.1318 4.51445 38.12 4.463C38.1082 4.41153 38.0977 4.35979 38.0887 4.30778C38.0795 4.25578 38.0717 4.20357 38.0654 4.15116C38.0589 4.09874 38.0539 4.04619 38.0503 3.99351C38.0466 3.94084 38.0443 3.8881 38.0434 3.83531C38.0425 3.78252 38.043 3.72973 38.0449 3.67696C38.0467 3.62419 38.0499 3.5715 38.0545 3.5189C38.0591 3.46631 38.0651 3.41386 38.0725 3.36156C38.0799 3.30928 38.0886 3.25722 38.0986 3.20538C38.1087 3.15355 38.1201 3.10201 38.1329 3.05078C38.1457 2.99954 38.1597 2.94867 38.1751 2.89816C38.1905 2.84766 38.2073 2.7976 38.2253 2.74797C38.2434 2.69834 38.2627 2.64922 38.2832 2.60059C38.3038 2.55198 38.3257 2.50393 38.3488 2.45645C38.7761 1.55668 39.4811 1.05341 40.3945 0.731388Z" fill="#523E77"/>
<path d="M140.064 7.79248C140.123 7.80216 140.201 7.81308 140.256 7.8319C140.824 8.02691 141.422 10.6256 141.693 11.2985C142.46 11.5385 144.157 11.9181 144.771 12.3549C144.93 12.4681 144.969 12.528 144.997 12.7178C144.65 13.3382 142.449 13.7511 141.708 13.9603C141.377 14.8215 141.022 16.8256 140.413 17.3546C140.369 17.3367 140.268 17.2956 140.236 17.2793C139.719 17.0083 139.193 14.6196 139.013 13.9866C138.324 13.7796 135.685 13.1415 135.398 12.6228C135.679 12.0596 138.102 11.552 138.791 11.314C139.211 10.2551 139.446 8.7047 140.064 7.79248Z" fill="#523E77"/>
<path d="M13.6378 6.68115C13.7136 6.70072 13.7727 6.71285 13.8457 6.74689C14.4414 7.0246 14.839 9.4812 15.1062 10.165L15.1469 10.2671C15.9663 10.6013 16.8529 10.7451 17.6839 11.0457C17.9631 11.1466 18.4204 11.3012 18.5519 11.5871C18.2982 12.1137 15.766 12.7293 15.1119 12.9605C14.7542 13.8444 14.6224 14.8164 14.249 15.6945C14.1087 16.0244 14.0348 16.1555 13.6978 16.2951C13.0595 15.7591 12.6499 13.8 12.3962 12.931C11.6002 12.6933 9.33972 12.1779 8.80915 11.7156C8.70308 11.6231 8.72883 11.6142 8.71631 11.4857C9.12251 11.0006 11.4902 10.5261 12.2343 10.3238C12.7378 9.31392 13.0272 7.44908 13.6378 6.68115Z" fill="#523E77"/>
<path d="M17.8472 99.4372C17.3266 99.0158 16.9318 98.0698 16.6052 97.484C16.2693 96.8701 15.944 96.2507 15.6291 95.6258C15.3144 95.0008 15.0103 94.3707 14.717 93.7353C14.4237 93.1001 14.1414 92.46 13.8699 91.815C13.5984 91.1701 13.338 90.5207 13.0886 89.8668C12.8393 89.213 12.6011 88.5551 12.3742 87.8932C12.1473 87.2313 11.9317 86.5657 11.7274 85.8965C11.5232 85.2272 11.3304 84.5546 11.1491 83.8788C10.9678 83.2029 10.798 82.5242 10.6398 81.8425C10.5184 81.3211 10.4034 80.7982 10.2949 80.2738C10.1865 79.7494 10.0845 79.2238 9.98899 78.6971C9.89351 78.1701 9.80456 77.6421 9.72214 77.1131C9.63972 76.584 9.56385 76.0541 9.49454 75.5232C9.42523 74.9922 9.36249 74.4605 9.30634 73.928C9.25018 73.3955 9.20061 72.8624 9.15765 72.3287C9.11468 71.795 9.07832 71.2608 9.04857 70.7263C9.01882 70.1916 8.99568 69.6567 8.97915 69.1215C8.96263 68.5864 8.95273 68.0511 8.94946 67.5156C8.94618 66.9802 8.94952 66.4448 8.95948 65.9094C8.96945 65.3741 8.98604 64.8389 9.00924 64.304C9.03245 63.769 9.06226 63.2344 9.0987 62.7003C9.13513 62.1661 9.17815 61.6324 9.22778 61.0993C9.27742 60.5661 9.33364 60.0337 9.39644 59.5019C9.45925 58.9702 9.52862 58.4393 9.60455 57.9093C9.68049 57.3793 9.76297 56.8503 9.852 56.3223C9.94102 55.7943 10.0366 55.2675 10.1386 54.7419C10.2407 54.2162 10.3492 53.6919 10.4642 53.169C10.5793 52.6461 10.7007 52.1247 10.8287 51.6046C10.9566 51.0847 11.0909 50.5665 11.2317 50.0499C11.3724 49.5333 11.5195 49.0185 11.673 48.5055C11.8265 47.9925 11.9863 47.4815 12.1524 46.9725C12.3186 46.4635 12.491 45.9567 12.6696 45.4519C12.8483 44.9471 13.0332 44.4446 13.2243 43.9445C13.4154 43.4443 13.6126 42.9466 13.816 42.4513C14.0194 41.956 14.2289 41.4632 14.4445 40.9731C14.6601 40.483 14.8818 39.9956 15.1094 39.511C15.337 39.0264 15.5706 38.5446 15.8102 38.0658C16.0497 37.5869 16.2952 37.1111 16.5466 36.6383C16.7979 36.1656 17.0551 35.696 17.3181 35.2295C17.581 34.763 17.8496 34.3 18.1241 33.8402C18.3985 33.3804 18.6785 32.9241 18.9643 32.4713C20.4242 30.151 21.9794 27.8362 23.6862 25.6913C23.9779 25.3236 24.2735 24.9591 24.5729 24.5978C24.8723 24.2363 25.1755 23.8782 25.4826 23.5233C25.7896 23.1683 26.1004 22.8167 26.4149 22.4683C26.7294 22.12 27.0475 21.775 27.3694 21.4334C27.6912 21.0918 28.0166 20.7537 28.3456 20.419C28.6746 20.0842 29.0071 19.753 29.3431 19.4254C29.6792 19.0979 30.0186 18.7738 30.3615 18.4533C30.7044 18.1329 31.0506 17.8162 31.4002 17.5031C31.7499 17.19 32.1029 16.8807 32.459 16.5751C32.8152 16.2695 33.1745 15.9678 33.5371 15.6698C33.8997 15.3718 34.2655 15.0777 34.6343 14.7875C35.0032 14.4973 35.375 14.2111 35.7499 13.9288C36.1248 13.6465 36.5027 13.3682 36.8836 13.0939C37.2643 12.8196 37.648 12.5493 38.0345 12.2832C38.4211 12.0171 38.8105 11.755 39.2026 11.4972C39.5947 11.2393 39.9894 10.9856 40.3869 10.7361C40.7845 10.4866 41.1846 10.2413 41.5872 10.0003C41.9899 9.75926 42.3951 9.52254 42.8029 9.29013C43.2106 9.05772 43.6207 8.82966 44.0333 8.60595C44.4458 8.38223 44.8607 8.16292 45.278 7.94801C45.6952 7.73311 46.1146 7.52266 46.5363 7.31665C46.958 7.11065 47.3818 6.90914 47.8078 6.71212C48.2338 6.51511 48.6618 6.32265 49.0917 6.13473C49.5218 5.9468 49.9538 5.76345 50.3878 5.58469C50.8217 5.40593 51.2575 5.2318 51.6951 5.06229C52.1328 4.89278 52.5722 4.72794 53.0133 4.56775C53.4544 4.40757 53.8972 4.25208 54.3416 4.10129C54.786 3.9505 55.232 3.80444 55.6796 3.66313C56.127 3.5218 56.576 3.38524 57.0265 3.25345C57.4769 3.12166 57.9286 2.99465 58.3818 2.87245C58.8349 2.75024 59.2893 2.63285 59.745 2.52028C60.2005 2.40773 60.6573 2.30001 61.1152 2.19714C67.0176 0.855523 73.4886 0.309048 79.5261 0.753722C81.53 0.901309 83.5328 1.26112 85.5102 1.60818C94.643 3.21109 102.518 6.1981 110.374 11.1442C112.972 12.7793 115.374 14.6383 117.704 16.6331C118.045 16.9257 118.384 17.2216 118.72 17.521C119.056 17.8204 119.389 18.1231 119.719 18.4292C120.048 18.7352 120.375 19.0445 120.699 19.3571C121.022 19.6697 121.343 19.9856 121.66 20.3046C121.977 20.6235 122.291 20.9457 122.602 21.2711C122.913 21.5964 123.22 21.9248 123.524 22.2564C123.828 22.5878 124.129 22.9223 124.427 23.2599C124.724 23.5974 125.018 23.9379 125.309 24.2814C125.599 24.6248 125.887 24.9712 126.17 25.3204C126.454 25.6696 126.734 26.0216 127.011 26.3764C127.287 26.7313 127.56 27.0888 127.83 27.4491C128.099 27.8094 128.365 28.1724 128.627 28.538C128.889 28.9037 129.148 29.2719 129.403 29.6428C129.657 30.0136 129.908 30.387 130.156 30.7629C130.403 31.1387 130.646 31.5171 130.886 31.8978C131.126 32.2786 131.361 32.6617 131.593 33.0471C131.825 33.4327 132.053 33.8205 132.278 34.2105C132.502 34.6005 132.722 34.9928 132.939 35.3874C133.155 35.7818 133.367 36.1784 133.576 36.5771C133.784 36.9759 133.988 37.3768 134.189 37.7796C134.389 38.1824 134.585 38.5873 134.777 38.9941C134.97 39.4008 135.158 39.8095 135.342 40.22C135.526 40.6307 135.706 41.0431 135.881 41.4572C136.057 41.8714 136.229 42.2873 136.396 42.7048C136.563 43.1225 136.726 43.5418 136.885 43.9627C137.044 44.3836 137.199 44.806 137.35 45.2299C137.5 45.654 137.646 46.0795 137.788 46.5064C137.93 46.9334 138.068 47.3617 138.201 47.7914C138.334 48.2211 138.463 48.6521 138.588 49.0844C138.713 49.5166 138.833 49.9501 138.949 50.3849C139.065 50.8195 139.177 51.2553 139.284 51.6922C139.391 52.1293 139.494 52.5672 139.593 53.0062C139.742 53.689 139.882 54.374 140.01 55.0611C140.138 55.7483 140.256 56.4373 140.362 57.1281C140.469 57.819 140.564 58.5113 140.649 59.2053C140.734 59.8991 140.808 60.5942 140.87 61.2903C140.933 61.9865 140.985 62.6836 141.026 63.3814C141.066 64.0793 141.096 64.7776 141.115 65.4764C141.134 66.1752 141.141 66.874 141.138 67.5731C141.135 68.2721 141.12 68.9709 141.095 69.6695C141.07 70.3681 141.033 71.0661 140.986 71.7635C140.939 72.4609 140.88 73.1574 140.811 73.853C140.742 74.5486 140.661 75.2429 140.57 75.936C140.479 76.629 140.376 77.3204 140.263 78.0102C140.15 78.7001 140.026 79.3879 139.892 80.0739C139.757 80.7598 139.611 81.4434 139.455 82.1247C139.298 82.806 139.131 83.4847 138.953 84.1608C138.776 84.8368 138.587 85.5098 138.388 86.1799C137.968 87.603 137.271 90.2869 136.525 91.4696C136.243 90.5318 136.022 89.5728 135.75 88.6309C134.874 85.5958 133.956 82.5441 132.912 79.563C132.238 77.6386 131.406 75.8096 130.645 73.922C129.892 71.8459 128.66 70.0486 127.754 68.0573C127.971 67.099 127.838 65.8267 127.806 64.8379C127.778 64.038 127.733 63.2391 127.669 62.4413C127.606 61.6434 127.524 60.8474 127.425 60.0531C127.326 59.2589 127.209 58.4673 127.075 57.6783C126.94 56.8893 126.788 56.1037 126.619 55.3215C126.449 54.5393 126.262 53.7612 126.058 52.9873C125.854 52.2135 125.632 51.4445 125.394 50.6805C125.155 49.9165 124.899 49.1583 124.627 48.4057C124.355 47.6531 124.065 46.9069 123.76 46.1673C123.591 45.7691 123.418 45.373 123.24 44.979C123.062 44.585 122.879 44.1932 122.692 43.8036C122.504 43.4141 122.312 43.0269 122.115 42.6422C121.918 42.2573 121.716 41.8749 121.51 41.495C121.303 41.1151 121.092 40.7378 120.876 40.363C120.661 39.9883 120.441 39.6163 120.216 39.2469C119.991 38.8776 119.762 38.511 119.528 38.1473C119.294 37.7835 119.056 37.4227 118.814 37.0648C118.571 36.7067 118.325 36.3518 118.073 36C117.822 35.648 117.567 35.2992 117.307 34.9536C117.047 34.6079 116.783 34.2655 116.515 33.9263C116.247 33.5871 115.975 33.2512 115.699 32.9187C115.422 32.5861 115.142 32.257 114.858 31.9314C114.574 31.6056 114.285 31.2834 113.993 30.9647C113.701 30.6461 113.405 30.3311 113.105 30.0197C112.805 29.7083 112.501 29.4006 112.194 29.0966C111.886 28.7926 111.575 28.4924 111.26 28.196C110.946 27.8996 110.627 27.6071 110.305 27.3184C109.983 27.0298 109.658 26.7452 109.329 26.4646C109 26.1839 108.668 25.9073 108.332 25.6349C107.997 25.3623 107.658 25.0939 107.316 24.8296C106.973 24.5654 106.628 24.3054 106.28 24.0496C105.931 23.7938 105.579 23.5422 105.225 23.2951C104.87 23.0478 104.512 22.8049 104.152 22.5665C103.791 22.3281 103.427 22.0941 103.061 21.8645C102.695 21.6349 102.326 21.4098 101.954 21.1892C101.582 20.9687 101.207 20.7527 100.83 20.5413C100.453 20.3299 100.073 20.1231 99.6912 19.921C99.309 19.7189 98.9244 19.5215 98.5374 19.3287C98.1504 19.136 97.7611 18.9481 97.3695 18.7649C96.9779 18.5817 96.5841 18.4033 96.1881 18.2297C95.7921 18.0561 95.394 17.8874 94.9939 17.7235C94.5926 17.5567 94.1891 17.395 93.7837 17.2382C93.3783 17.0816 92.971 16.93 92.5617 16.7834C92.1525 16.6369 91.7415 16.4956 91.3287 16.3593C90.916 16.2231 90.5017 16.0921 90.0857 15.9662C89.6697 15.8403 89.2521 15.7196 88.8331 15.6041C88.414 15.4886 87.9936 15.3784 87.5719 15.2734C87.1501 15.1685 86.727 15.0689 86.3027 14.9745C85.8784 14.8802 85.453 14.7911 85.0265 14.7074C84.6 14.6236 84.1725 14.5452 83.7441 14.4722C83.3156 14.3991 82.8862 14.3315 82.456 14.2691C82.0259 14.2068 81.595 14.1499 81.1635 14.0983C80.7318 14.0468 80.2996 14.0006 79.8669 13.9599C79.4342 13.9191 79.0011 13.8838 78.5675 13.8539C78.1338 13.824 77.6998 13.7995 77.2657 13.7804C76.8314 13.7613 76.397 13.7477 75.9624 13.7395C75.5278 13.7313 75.0932 13.7285 74.6585 13.7311C74.2239 13.7338 73.7893 13.7419 73.355 13.7554C72.9205 13.7689 72.4863 13.7878 72.0523 13.8122C71.6183 13.8365 71.1847 13.8663 70.7515 13.9015C70.3183 13.9367 69.8856 13.9773 69.4534 14.0234C69.0211 14.0694 68.5895 14.1208 68.1586 14.1776C67.7277 14.2344 67.2976 14.2966 66.8682 14.3641C66.4388 14.4317 66.0103 14.5046 65.5828 14.5829C65.1553 14.6611 64.7287 14.7447 64.3033 14.8337C63.8779 14.9226 63.4536 15.0168 63.0305 15.1164C62.6073 15.2159 62.1855 15.3207 61.7651 15.4308C61.3446 15.5408 60.9256 15.6562 60.508 15.7768C60.0903 15.8973 59.6743 16.023 59.2598 16.154C58.8453 16.2849 58.4326 16.4211 58.0216 16.5624C57.6105 16.7036 57.2013 16.85 56.7939 17.0015C56.3865 17.153 55.981 17.3095 55.5776 17.4712C55.1741 17.6328 54.7727 17.7994 54.3734 17.9711C53.9759 18.1422 53.5807 18.3181 53.1876 18.4989C52.7944 18.6797 52.4036 18.8653 52.0151 19.0557C51.6265 19.2461 51.2404 19.4413 50.8567 19.6412C50.4729 19.8411 50.0917 20.0457 49.713 20.2549C49.3343 20.4642 48.9582 20.6781 48.5848 20.8967C48.2113 21.1151 47.8406 21.3382 47.4725 21.5658C47.1045 21.7935 46.7394 22.0256 46.3772 22.2622C46.0149 22.4988 45.6556 22.7399 45.2993 22.9853C44.9429 23.2307 44.5896 23.4804 44.2394 23.7345C43.8892 23.9887 43.5422 24.2471 43.1984 24.5097C42.8545 24.7724 42.5139 25.0393 42.1766 25.3103C41.8393 25.5813 41.5055 25.8564 41.175 26.1357C40.8444 26.4149 40.5174 26.6982 40.1938 26.9855C39.8702 27.2727 39.5502 27.5638 39.2338 27.8589C38.9174 28.1542 38.6047 28.4531 38.2957 28.7559C37.9866 29.0587 37.6813 29.3653 37.3797 29.6756C37.0783 29.986 36.7806 30.3 36.4867 30.6177C36.1929 30.9353 35.9031 31.2565 35.6172 31.5813C35.3313 31.9061 35.0494 32.2343 34.7716 32.5659C34.4937 32.8977 34.22 33.2327 33.9504 33.5711C33.6807 33.9096 33.4154 34.2513 33.1542 34.5962C32.893 34.9411 32.6361 35.2892 32.3834 35.6405C32.1308 35.9918 31.8825 36.3461 31.6386 36.7035C31.3946 37.0608 31.1551 37.4212 30.9199 37.7844C30.6848 38.1477 30.4543 38.5138 30.2282 38.8828C30.0021 39.2516 29.7806 39.6233 29.5638 39.9977C29.3468 40.372 29.1344 40.7489 28.9267 41.1285C28.7191 41.5081 28.5161 41.8902 28.3178 42.2749C28.1195 42.6595 27.926 43.0464 27.7372 43.4358C27.5485 43.8251 27.3645 44.2166 27.1853 44.6105C27.0062 45.0044 26.8319 45.4005 26.6625 45.7986C26.4931 46.1967 26.3285 46.5969 26.169 46.999C25.4808 48.7464 24.6628 50.7924 24.5577 52.6756C22.1452 54.1302 20.7208 56.2195 20.0379 58.9523C19.2655 62.0442 19.5315 65.9641 21.2111 68.7287C21.6097 69.3849 22.2344 69.984 22.5854 70.6432C22.9498 74.223 23.5714 77.7502 24.7025 81.1708C22.2014 82.7773 20.3354 85.7213 19.7184 88.6062C19.4994 89.6301 19.3693 90.6742 19.1878 91.7055L17.8472 99.4372Z" fill="#8FE1E3"/>
<path d="M54.3733 17.9712C54.7727 17.7995 55.1741 17.6328 55.5776 17.4712C55.981 17.3096 56.3864 17.1531 56.7938 17.0016C57.2013 16.85 57.6105 16.7036 58.0215 16.5624C58.4326 16.4211 58.8453 16.285 59.2598 16.154C59.6742 16.0231 60.0903 15.8973 60.508 15.7768C60.9255 15.6562 61.3446 15.5409 61.7651 15.4308C62.1855 15.3208 62.6073 15.216 63.0304 15.1164C63.4536 15.0169 63.8778 14.9227 64.3032 14.8337C64.7287 14.7448 65.1552 14.6612 65.5828 14.5829C66.0103 14.5047 66.4388 14.4318 66.8682 14.3642C67.2976 14.2967 67.7277 14.2345 68.1585 14.1777C68.5895 14.1209 69.0211 14.0694 69.4533 14.0234C69.8855 13.9774 70.3183 13.9368 70.7515 13.9016C71.1847 13.8664 71.6183 13.8366 72.0522 13.8122C72.4862 13.7879 72.9205 13.7689 73.3549 13.7554C73.7893 13.7419 74.2238 13.7338 74.6585 13.7312C75.0932 13.7285 75.5278 13.7313 75.9624 13.7395C76.3969 13.7478 76.8313 13.7614 77.2656 13.7805C77.6998 13.7995 78.1337 13.824 78.5674 13.854C79.001 13.8839 79.4342 13.9192 79.8669 13.96C80.2996 14.0007 80.7318 14.0469 81.1634 14.0984C81.595 14.15 82.0258 14.2069 82.456 14.2692C82.8862 14.3315 83.3155 14.3992 83.744 14.4723C84.1725 14.5453 84.5999 14.6237 85.0265 14.7074C85.453 14.7912 85.8784 14.8802 86.3027 14.9746C86.727 15.069 87.15 15.1686 87.5718 15.2735C87.9936 15.3785 88.414 15.4887 88.8331 15.6041C89.2521 15.7197 89.6696 15.8404 90.0856 15.9662C90.5017 16.0921 90.916 16.2232 91.3287 16.3594C91.7415 16.4956 92.1525 16.637 92.5617 16.7835C92.9709 16.9301 93.3783 17.0817 93.7836 17.2383C94.1891 17.395 94.5925 17.5568 94.9939 17.7236C95.394 17.8875 95.792 18.0562 96.188 18.2297C96.584 18.4034 96.9778 18.5818 97.3694 18.765C97.761 18.9482 98.1503 19.1361 98.5374 19.3288C98.9244 19.5216 99.309 19.719 99.6912 19.921C100.073 20.1232 100.453 20.33 100.83 20.5414C101.207 20.7528 101.582 20.9688 101.954 21.1893C102.326 21.4099 102.695 21.635 103.061 21.8646C103.427 22.0942 103.791 22.3282 104.152 22.5665C104.512 22.805 104.87 23.0479 105.225 23.2951C105.579 23.5423 105.931 23.7938 106.279 24.0497C106.628 24.3055 106.973 24.5655 107.316 24.8297C107.658 25.094 107.997 25.3624 108.332 25.6349C108.668 25.9074 109 26.184 109.329 26.4646C109.658 26.7453 109.983 27.0299 110.305 27.3185C110.627 27.6072 110.946 27.8997 111.26 28.1961C111.575 28.4925 111.886 28.7927 112.194 29.0967C112.501 29.4007 112.805 29.7084 113.105 30.0198C113.405 30.3311 113.701 30.6461 113.993 30.9648C114.285 31.2834 114.573 31.6056 114.858 31.9314C115.142 32.2571 115.422 32.5862 115.699 32.9187C115.975 33.2512 116.247 33.5871 116.515 33.9264C116.783 34.2656 117.047 34.608 117.307 34.9537C117.567 35.2993 117.822 35.6481 118.073 36C118.325 36.3519 118.571 36.7068 118.814 37.0648C119.056 37.4227 119.294 37.7836 119.528 38.1473C119.762 38.5111 119.991 38.8777 120.216 39.247C120.441 39.6163 120.661 39.9884 120.876 40.3631C121.092 40.7379 121.303 41.1152 121.509 41.4951C121.716 41.875 121.918 42.2574 122.115 42.6422C122.312 43.027 122.504 43.4141 122.692 43.8037C122.879 44.1932 123.062 44.585 123.24 44.9791C123.418 45.373 123.591 45.7691 123.76 46.1674C124.065 46.907 124.354 47.6532 124.627 48.4058C124.899 49.1583 125.155 49.9166 125.394 50.6805C125.632 51.4446 125.854 52.2136 126.058 52.9874C126.262 53.7613 126.449 54.5394 126.619 55.3216C126.788 56.1037 126.94 56.8893 127.075 57.6784C127.209 58.4674 127.326 59.259 127.425 60.0532C127.524 60.8474 127.606 61.6435 127.669 62.4413C127.733 63.2392 127.778 64.0381 127.806 64.838C127.838 65.8267 127.971 67.0991 127.754 68.0574C126.669 66.4603 125.713 64.7852 124.564 63.2297C119.965 57.0066 113.42 50.8017 105.55 49.3052C99.3369 48.1237 93.1388 49.6606 87.9654 53.2244C82.7405 56.8235 78.9391 61.7797 75.6621 67.1351C75.1386 67.981 74.6517 68.8474 74.2012 69.7344C73.9807 70.1598 73.7778 70.7162 73.5114 71.1025L57.7378 71.1066C54.735 71.1047 51.7221 71.0575 48.7209 71.1476C49.1263 70.8076 49.4655 70.3935 49.8867 70.0733C51.4813 68.0559 52.4093 66.0602 52.6293 63.459C52.8981 60.2814 52.1441 56.9244 50.052 54.4555C48.4352 52.5472 46.4705 51.7579 44.0373 51.5442C43.0234 49.5044 41.6327 47.8607 39.5208 46.91C37.5788 46.0357 35.1597 45.9809 33.1741 46.7467C30.816 47.6562 29.2753 49.5003 28.278 51.7645C26.8891 51.7698 25.8011 52.0616 24.5576 52.6757C24.6628 50.7925 25.4808 48.7465 26.1689 46.9991C26.3285 46.597 26.493 46.1968 26.6625 45.7987C26.8319 45.4005 27.0062 45.0045 27.1853 44.6105C27.3645 44.2167 27.5484 43.8251 27.7372 43.4359C27.926 43.0465 28.1195 42.6595 28.3177 42.275C28.5161 41.8903 28.719 41.5082 28.9267 41.1286C29.1344 40.749 29.3467 40.3721 29.5637 39.9977C29.7806 39.6233 30.0021 39.2517 30.2282 38.8828C30.4542 38.5139 30.6848 38.1478 30.9199 37.7845C31.155 37.4212 31.3946 37.0609 31.6385 36.7036C31.8825 36.3462 32.1308 35.9918 32.3834 35.6406C32.636 35.2893 32.893 34.9412 33.1542 34.5963C33.4153 34.2513 33.6807 33.9096 33.9503 33.5712C34.22 33.2328 34.4937 32.8977 34.7715 32.566C35.0494 32.2344 35.3313 31.9061 35.6172 31.5813C35.903 31.2565 36.1929 30.9353 36.4867 30.6178C36.7806 30.3001 37.0782 29.9861 37.3797 29.6757C37.6812 29.3654 37.9866 29.0588 38.2957 28.7559C38.6046 28.4532 38.9173 28.1542 39.2337 27.859C39.5501 27.5639 39.8702 27.2727 40.1938 26.9855C40.5173 26.6982 40.8444 26.415 41.175 26.1358C41.5054 25.8565 41.8393 25.5813 42.1766 25.3103C42.5139 25.0393 42.8545 24.7725 43.1983 24.5098C43.5422 24.2472 43.8892 23.9888 44.2394 23.7346C44.5896 23.4805 44.9429 23.2307 45.2992 22.9853C45.6556 22.7399 46.0149 22.4989 46.3772 22.2623C46.7394 22.0257 47.1045 21.7935 47.4725 21.5659C47.8405 21.3383 48.2113 21.1152 48.5847 20.8968C48.9582 20.6782 49.3342 20.4643 49.7129 20.255C50.0916 20.0457 50.4729 19.8411 50.8567 19.6412C51.2404 19.4413 51.6265 19.2462 52.0151 19.0557C52.4036 18.8654 52.7944 18.6798 53.1875 18.499C53.5806 18.3182 53.9759 18.1423 54.3733 17.9712Z" fill="url(#paint0_linear_47_1897)"/>
<path d="M28.2781 51.7646C29.2754 49.5004 30.8161 47.6563 33.1742 46.7468C35.1598 45.981 37.5788 46.0358 39.5209 46.9101C41.6328 47.8608 43.0235 49.5045 44.0373 51.5443C46.4706 51.758 48.4352 52.5473 50.0521 54.4556C52.1442 56.9246 52.8982 60.2815 52.6294 63.4591C52.4093 66.0603 51.4814 68.056 49.8867 70.0734C49.4656 70.3936 49.1263 70.8078 48.721 71.1477C51.7222 71.0577 54.7351 71.1048 57.7379 71.1067L73.5114 71.1026C73.0588 71.9451 72.5974 72.7806 72.2211 73.6608C67.8963 83.2056 65.2443 93.5697 63.2427 103.83C62.2169 109.089 61.3732 114.386 60.3927 119.653C59.6074 124.122 58.8507 128.644 58.3099 133.148C58.2016 135.172 58.3666 136.886 59.7765 138.474C60.907 139.749 62.3001 140.43 64.0007 140.529C65.4794 140.616 66.9917 140.549 68.4736 140.549C71.6799 140.548 74.9093 140.519 78.1138 140.613L90.2019 140.641C91.8903 140.653 93.682 140.526 95.3558 140.699C95.2067 142.625 95.075 144.552 94.9604 146.481C94.8706 147.816 94.7266 149.163 94.6862 150.5H53.521H38.9921H33.4619H19.5484C19.2087 150.389 18.9289 150.26 18.7015 149.973C18.5134 149.734 18.4351 149.453 18.4777 149.152C18.5127 148.905 18.5842 148.741 18.7484 148.55C19.5655 147.603 20.7542 146.797 21.7263 146.001C22.8046 145.118 23.8502 144.166 24.9854 143.358C25.1319 142.247 25.0601 141.07 25.0614 139.949L25.0667 134.009L25.0112 113.845C24.4049 115.832 24.774 117.744 23.3616 119.445C23.3071 119.51 23.251 119.575 23.1933 119.637C23.1356 119.7 23.0764 119.761 23.0156 119.821C22.9549 119.881 22.8927 119.939 22.829 119.996C22.7653 120.053 22.7003 120.108 22.6339 120.161C22.5675 120.215 22.4998 120.267 22.4309 120.317C22.3619 120.367 22.2918 120.415 22.2204 120.462C22.149 120.509 22.0765 120.554 22.003 120.597C21.9294 120.64 21.8547 120.681 21.779 120.72C21.7034 120.76 21.6269 120.797 21.5493 120.833C21.4719 120.868 21.3936 120.902 21.3144 120.933C21.2352 120.965 21.1552 120.995 21.0746 121.022C20.9939 121.05 20.9126 121.076 20.8307 121.1C20.7488 121.123 20.6664 121.145 20.5834 121.164C20.5004 121.184 20.417 121.201 20.3331 121.217C20.2492 121.232 20.165 121.245 20.0805 121.257C19.996 121.268 19.9112 121.277 19.8262 121.284C19.7396 121.292 19.6528 121.298 19.5659 121.302C19.4791 121.306 19.3922 121.308 19.3052 121.308C19.2182 121.307 19.1313 121.305 19.0444 121.3C18.9575 121.295 18.8708 121.288 18.7843 121.279C18.6978 121.27 18.6115 121.259 18.5256 121.246C18.4397 121.232 18.3541 121.217 18.269 121.199C18.1838 121.182 18.0991 121.162 18.0148 121.14C17.9306 121.118 17.847 121.094 17.764 121.068C17.681 121.042 17.5987 121.014 17.5172 120.984C17.4356 120.954 17.3548 120.922 17.2748 120.888C17.1947 120.854 17.1156 120.817 17.0375 120.779C16.9592 120.741 16.882 120.701 16.8059 120.659C16.7296 120.617 16.6545 120.573 16.5804 120.528C16.5064 120.482 16.4336 120.435 16.362 120.385C16.2903 120.336 16.2199 120.285 16.1508 120.232C16.0818 120.179 16.014 120.125 15.9476 120.068C14.9777 119.234 14.3538 117.954 14.2599 116.68C14.1522 115.219 14.6808 114.023 15.6111 112.931L17.8472 99.4374L19.1879 91.7057C19.3693 90.6744 19.4994 89.6303 19.7184 88.6063C20.3354 85.7215 22.2015 82.7774 24.7026 81.1709C23.5714 77.7504 22.9499 74.2232 22.5854 70.6434C22.2344 69.9842 21.6097 69.3851 21.2111 68.7288C19.5315 65.9642 19.2655 62.0443 20.0379 58.9525C20.7208 56.2197 22.1452 54.1304 24.5577 52.6758C25.8012 52.0617 26.8891 51.7699 28.2781 51.7646Z" fill="#101055"/>
<path d="M47.332 113.156C47.5772 113.961 47.8632 114.761 47.8844 115.61C47.8945 116.016 47.8258 116.418 47.8407 116.824C47.593 116.618 47.4206 116.487 47.3156 116.176C47.3122 115.17 47.2961 114.162 47.332 113.156Z" fill="#FEFEFE"/>
<path d="M34.169 149.905C34.5526 147.131 34.689 144.301 34.9139 141.508L36.0315 128.534C36.2882 130.417 36.3765 132.327 36.5491 134.22L37.4114 143.338C37.5752 145.239 37.592 147.55 37.9864 149.384C38.0621 149.735 38.1317 149.933 38.4213 150.151C38.5988 150.286 38.797 150.393 38.9921 150.5H33.4619C33.6991 150.307 33.9497 150.119 34.169 149.905Z" fill="#FEFEFE"/>
<path d="M22.5854 70.6433C23.945 71.7128 25.0131 72.2221 26.7605 72.1963C27.5482 74.4907 29.3306 76.3278 31.4599 77.4332C31.4495 77.8745 31.4502 78.3207 31.4196 78.761C29.7477 78.9603 28.0855 79.3684 26.5796 80.1393C25.9487 80.4625 25.3423 80.8729 24.7026 81.1709C23.5714 77.7503 22.9499 74.2231 22.5854 70.6433Z" fill="#523E77"/>
<path d="M47.3154 116.176C47.4205 116.487 47.5929 116.618 47.8406 116.823C48.14 118.365 48.7582 119.622 50.0894 120.522C50.161 120.569 50.2337 120.615 50.3077 120.659C50.3816 120.703 50.4565 120.745 50.5325 120.785C50.6085 120.826 50.6854 120.864 50.7632 120.9C50.8412 120.937 50.9199 120.971 50.9995 121.004C51.079 121.037 51.1593 121.067 51.2405 121.096C51.3215 121.124 51.4033 121.151 51.4857 121.175C51.5681 121.2 51.6511 121.222 51.7346 121.242C51.8181 121.263 51.9021 121.281 51.9865 121.297C52.071 121.314 52.1558 121.328 52.2408 121.34C52.326 121.352 52.4114 121.362 52.497 121.37C52.5827 121.377 52.6684 121.383 52.7542 121.387C52.8402 121.39 52.9261 121.392 53.0121 121.391C53.098 121.39 53.1839 121.387 53.2697 121.383C53.3556 121.378 53.4413 121.37 53.5268 121.361C53.6123 121.352 53.6975 121.341 53.7824 121.327C53.8673 121.314 53.9518 121.298 54.036 121.281C55.4834 120.98 56.6343 120.085 57.4161 118.85L57.4684 118.766C58.4245 119.129 59.4262 119.326 60.3925 119.653C59.6072 124.122 58.8505 128.644 58.3097 133.148C57.6468 133.038 56.9873 132.911 56.3311 132.766C55.675 132.621 55.0231 132.458 54.3755 132.279C53.728 132.099 53.0856 131.903 52.4485 131.689C51.8114 131.476 51.1804 131.245 50.5554 130.998C49.5055 130.583 48.4901 130.089 47.448 129.657C47.478 131.313 47.4906 132.969 47.4859 134.625C47.4864 135.437 47.5488 136.32 47.448 137.126C47.3679 136.248 47.4117 135.332 47.4109 134.45L47.3935 130.414C47.412 125.668 47.3859 120.922 47.3154 116.176Z" fill="#8FE1E3"/>
<path d="M31.7039 59.8813C32.6541 60.7557 33.0139 62.2419 34.3615 63.1348C34.837 63.4499 35.389 63.5994 35.9532 63.4657C37.4998 63.0986 38.4124 61.2291 39.1459 59.9821C39.8622 61.2662 40.7822 62.8649 42.0817 63.6277C42.6676 63.9716 43.0897 64.0263 43.7342 63.8496C43.745 63.9568 43.7554 64.063 43.762 64.1706C43.8256 65.1939 43.851 66.224 43.893 67.2488C44.0062 70.0169 43.8312 71.7444 41.9445 73.9113C41.8957 73.969 41.8451 74.0253 41.7927 74.0796C40.3838 75.5377 38.3937 76.3244 36.3813 76.3683C34.3377 76.413 32.1964 75.6602 30.7131 74.2375C29.2135 72.7992 28.5151 70.85 28.49 68.7954C28.4547 65.8983 29.6593 61.9897 31.7039 59.8813Z" fill="#FEFEFE"/>
<path d="M47.4482 129.657C48.4903 130.089 49.5057 130.583 50.5556 130.998C51.1806 131.245 51.8116 131.476 52.4487 131.689C53.0858 131.903 53.7282 132.099 54.3757 132.279C55.0233 132.458 55.6752 132.621 56.3313 132.766C56.9875 132.911 57.647 133.038 58.3099 133.148C58.2016 135.172 58.3666 136.885 59.7765 138.474C60.907 139.748 62.3001 140.43 64.0006 140.529C65.4794 140.615 66.9917 140.549 68.4735 140.549C71.6799 140.548 74.9093 140.519 78.1138 140.612L90.2019 140.64C91.8902 140.653 93.682 140.526 95.3558 140.699C95.2067 142.625 95.075 144.552 94.9604 146.48C94.8706 147.816 94.7266 149.163 94.6862 150.5H53.521C53.6133 150.41 53.7035 150.318 53.7917 150.225C54.0412 149.956 54.2386 149.643 54.2068 149.262C54.1894 149.054 54.1157 148.906 53.9881 148.745C53.4375 148.051 52.6263 147.462 51.951 146.886C50.4737 145.618 48.9756 144.376 47.4567 143.159C47.3858 141.163 47.4108 139.123 47.4482 137.126C47.549 136.32 47.4866 135.437 47.4861 134.625C47.4908 132.969 47.4782 131.313 47.4482 129.657Z" fill="#FEFEFE"/>
<path d="M45.5289 72.1418C46.7353 72.0681 47.7033 71.8106 48.7212 71.1476C51.7224 71.0575 54.7353 71.1047 57.738 71.1066L73.5116 71.1025C73.059 71.9449 72.5976 72.7804 72.2212 73.6607C67.8964 83.2054 65.2445 93.5695 63.2429 103.83C62.2171 109.089 61.3733 114.386 60.3929 119.653C59.4266 119.326 58.4249 119.129 57.4688 118.766C57.9028 117.969 58.1135 117.136 58.1082 116.23C58.0994 114.691 57.5987 113.546 56.5055 112.468C56.313 110.902 55.9476 109.322 55.6692 107.766L54.2684 99.6464L53.0328 92.6765C52.7459 91.0463 52.5598 89.3444 52.0281 87.7731C51.4531 86.0737 50.4689 84.4306 49.2709 83.0972C47.2963 80.899 44.0561 79.0892 41.0703 78.9296L41.0741 77.4461C43.1877 75.9923 44.5237 74.5243 45.5289 72.1418Z" fill="#523E77"/>
<path d="M33.6383 78.0737C35.4202 78.6039 37.0952 78.5571 38.888 78.1095C38.8668 78.7752 38.7591 79.5796 38.9327 80.225C39.0164 80.5355 39.181 80.7802 39.4795 80.9183C39.9644 81.1426 40.6961 81.0822 41.2331 81.1629C42.4469 81.3458 43.6781 81.7974 44.7505 82.3886C44.8776 82.4578 45.0033 82.5296 45.1275 82.6039C45.2518 82.6781 45.3745 82.7549 45.4957 82.8342C45.6168 82.9134 45.7362 82.995 45.8541 83.0791C45.972 83.1632 46.0881 83.2496 46.2024 83.3382C46.3168 83.427 46.4294 83.518 46.5401 83.6113C46.6507 83.7045 46.7595 83.8 46.8665 83.8977C46.9733 83.9953 47.0781 84.0951 47.181 84.1971C47.2838 84.2989 47.3845 84.4028 47.4832 84.5088C47.5818 84.6147 47.6782 84.7227 47.7725 84.8325C47.8668 84.9423 47.9588 85.054 48.0486 85.1675C48.1384 85.2811 48.2259 85.3964 48.3111 85.5135C48.3961 85.6306 48.4789 85.7494 48.5592 85.8698C48.6396 85.9902 48.7175 86.1122 48.793 86.2357C48.8684 86.3592 48.9413 86.4842 49.0117 86.6107C49.0821 86.7372 49.15 86.865 49.2152 86.9943C49.2804 87.1235 49.343 87.254 49.403 87.3857C50.4559 89.6397 50.7108 92.3226 51.1371 94.757C51.9666 99.4944 52.7311 104.251 53.6431 108.972C53.9333 110.475 54.0837 112.102 54.5132 113.564C54.5209 113.59 54.5292 113.616 54.5371 113.642C54.786 113.868 55.0418 114.097 55.2606 114.352C55.7674 114.944 56.0718 115.768 55.9908 116.548C55.9108 117.316 55.4828 118.013 54.8868 118.493C54.2192 119.031 53.3925 119.235 52.5487 119.111C51.5821 118.969 50.7542 118.426 50.3235 117.538C49.7874 116.431 50.2047 115.424 49.9623 114.295C49.4217 111.778 48.6373 109.285 47.9821 106.794C47.7298 105.834 47.4191 104.855 47.2669 103.875C47.078 102.658 47.1921 101.313 47.2051 100.079L47.2333 96.8631C47.2382 96.3194 47.292 95.7217 47.2208 95.1832C47.1886 94.9395 47.1098 94.6921 46.9489 94.5018C46.745 94.2608 46.3629 94.135 46.0552 94.1252C45.8258 94.1177 45.6104 94.2059 45.4476 94.3675C45.1385 94.6744 45.0561 95.1406 45.0338 95.5569C44.9525 97.0769 45.0685 98.6387 45.0635 100.164L45.1026 113.578L45.1067 133.835C45.1117 137.3 45.0189 140.789 45.1331 144.25C45.5715 144.662 46.0842 145.012 46.5572 145.384C47.6831 146.27 48.8891 147.2 49.8728 148.243L39.9414 148.284C39.7362 144.804 39.3991 141.325 39.1051 137.852L37.3063 117.852C37.2883 117.441 37.3006 117.039 37.0752 116.679C36.8768 116.362 36.5849 116.075 36.2053 116.004C35.9745 115.96 35.7424 116.013 35.5502 116.148C35.2234 116.379 35.057 116.778 34.9753 117.157C34.8142 117.903 34.7988 118.737 34.7226 119.498C34.5477 121.25 34.3824 123.003 34.2266 124.757C34.0215 126.969 33.7478 129.172 33.5374 131.383C33.342 133.437 33.211 135.501 33.0503 137.559C32.8749 139.977 32.6729 142.393 32.4443 144.807C32.343 145.948 32.2955 147.091 32.1307 148.225C28.9425 148.14 25.7406 148.225 22.5503 148.212C24.0451 146.797 25.9237 145.738 27.3096 144.231C27.4586 141.171 27.3366 138.052 27.3339 134.986L27.3249 119.355C27.2783 111.186 27.5022 103.01 27.3096 94.8415C27.2929 94.8141 27.2771 94.7863 27.2595 94.7595C27.0294 94.4076 26.7871 94.2033 26.3639 94.1243C26.0497 94.0657 25.7699 94.1152 25.5159 94.3152C25.3211 94.4684 25.2027 94.7535 25.157 94.9897C25.0217 95.6914 25.1049 96.5174 25.1105 97.2352L25.1478 101.567C25.1548 102.355 25.2123 103.186 25.1323 103.969C25.0442 104.832 24.7728 105.693 24.5531 106.53C24.071 108.34 23.5791 110.147 23.0771 111.951C22.8273 112.869 22.5035 113.825 22.3675 114.765C22.2968 115.254 22.5098 115.761 22.4775 116.255C22.4285 117.008 21.9134 117.834 21.3612 118.321C20.7769 118.835 19.997 119.156 19.2108 119.095C18.4454 119.034 17.7033 118.634 17.2076 118.054C17.1771 118.019 17.1474 117.982 17.1187 117.946C17.0899 117.909 17.0621 117.871 17.0352 117.833C17.0084 117.795 16.9825 117.756 16.9577 117.716C16.9328 117.677 16.9089 117.637 16.8861 117.596C16.8632 117.555 16.8414 117.514 16.8206 117.472C16.7998 117.43 16.7801 117.388 16.7614 117.345C16.7429 117.302 16.7253 117.259 16.7088 117.215C16.6924 117.171 16.6771 117.127 16.6628 117.083C16.6487 117.038 16.6356 116.993 16.6236 116.948C16.6117 116.903 16.6009 116.857 16.5912 116.812C16.5815 116.766 16.5731 116.72 16.5657 116.674C16.5584 116.628 16.5523 116.581 16.5473 116.535C16.5422 116.489 16.5383 116.442 16.5357 116.395C16.5331 116.349 16.5316 116.302 16.5313 116.255C16.531 116.209 16.5319 116.162 16.5341 116.115C16.5361 116.068 16.5394 116.022 16.5438 115.975C16.6816 114.633 17.625 114.369 17.8544 113.095L20.9484 94.8671C21.3071 92.8565 21.6227 89.8471 22.2618 88.0222C22.7846 86.5294 23.7045 85.0878 24.8724 84.0175C26.4711 82.5522 28.3249 81.7282 30.4198 81.2453C31.1711 81.0721 32.7937 81.2341 33.3339 80.7251C33.8745 80.2158 33.6152 78.7817 33.6383 78.0737Z" fill="#FEFEFE"/>
<path d="M73.5113 71.1025C73.7778 70.7162 73.9806 70.1597 74.2011 69.7343C74.6516 68.8474 75.1386 67.981 75.662 67.1351C78.939 61.7796 82.7404 56.8235 87.9654 53.2244C93.1387 49.6605 99.3368 48.1236 105.55 49.3052C113.42 50.8016 119.965 57.0066 124.563 63.2297C125.713 64.7852 126.669 66.4602 127.754 68.0574C128.66 70.0487 129.892 71.8459 130.645 73.922C131.406 75.8096 132.238 77.6386 132.912 79.563C133.956 82.5441 134.874 85.5958 135.75 88.6309C136.022 89.5728 136.243 90.5319 136.525 91.4697C136.527 91.5139 136.528 91.5581 136.531 91.6024C136.575 92.3837 137.123 93.96 137.342 94.7852C137.726 96.262 138.082 97.7452 138.412 99.2348C140.408 108.145 142.081 117.115 143.431 126.145C143.779 128.458 144.552 132.283 144.401 134.452C144.304 135.848 143.663 137.263 142.763 138.334C141.623 139.69 139.939 140.42 138.191 140.55C137.349 140.613 133.533 140.696 132.84 140.548C132.538 140.679 132.226 140.783 131.915 140.891C131.669 140.781 131.423 140.669 131.178 140.556C130.33 140.729 129.281 140.61 128.408 140.605C126.766 140.587 125.124 140.587 123.482 140.604C117.637 140.562 111.792 140.565 105.947 140.611C106.108 142.727 106.256 144.843 106.391 146.96C106.477 148.136 106.621 149.324 106.652 150.5H94.6861C94.7265 149.163 94.8705 147.816 94.9603 146.48C95.0748 144.552 95.2066 142.625 95.3556 140.699C93.6819 140.526 91.8901 140.653 90.2017 140.64L78.1137 140.612C74.9092 140.519 71.6798 140.548 68.4734 140.549C66.9916 140.549 65.4793 140.615 64.0005 140.529C62.3 140.43 60.9069 139.748 59.7763 138.474C58.3664 136.885 58.2015 135.172 58.3097 133.148C58.8506 128.644 59.6073 124.122 60.3926 119.653C61.373 114.386 62.2168 109.089 63.2426 103.83C65.2442 93.5695 67.8961 83.2055 72.2209 73.6607C72.5972 72.7805 73.0587 71.9449 73.5113 71.1025Z" fill="#FCEAAF"/>
<path d="M130.951 123.907C131.201 123.573 131.443 123.239 131.883 123.168C132.132 123.127 132.375 123.209 132.575 123.356C132.784 123.509 132.901 123.729 133.03 123.948L133.074 124.021L133.077 134.662C133.075 136.424 133.203 138.307 133.013 140.057C132.992 140.25 132.933 140.378 132.84 140.548C132.538 140.68 132.226 140.783 131.915 140.891C131.669 140.781 131.423 140.669 131.178 140.556C131.044 140.373 130.969 140.24 130.943 140.013C130.767 138.485 130.9 136.202 130.91 134.617C130.943 131.047 130.957 127.477 130.951 123.907Z" fill="#F9C73A"/>
<path d="M73.5116 71.1025C73.778 70.7162 73.9809 70.1597 74.2014 69.7343C74.6519 68.8474 75.1388 67.981 75.6623 67.1351C78.9393 61.7796 82.7407 56.8235 87.9656 53.2244C93.139 49.6605 99.3371 48.1236 105.55 49.3052C113.42 50.8016 119.965 57.0066 124.564 63.2297C125.713 64.7852 126.669 66.4602 127.754 68.0574C128.66 70.0487 129.892 71.8459 130.645 73.922C128.934 73.7899 127.155 73.9011 125.441 73.9589C125.077 73.4767 124.819 72.8722 124.521 72.3447C123.974 71.3983 123.412 70.4605 122.836 69.5313C119.48 64.1954 115.32 58.9334 109.68 55.9008C105.43 53.6155 100.949 52.8767 96.2688 54.3054C89.2362 56.4521 83.9632 62.6622 80.28 68.7354C79.2886 70.3702 78.432 72.0924 77.5392 73.7824C76.5812 73.7638 72.8558 73.9229 72.2212 73.6607C72.5975 72.7805 73.0589 71.9449 73.5116 71.1025Z" fill="#FEFEFE"/>
<path d="M98.16 97.3409C98.454 92.3507 98.705 87.3584 98.9132 82.364L99.1249 78.2926C99.1636 77.5308 99.157 76.7347 99.2603 75.9812C99.3077 75.6341 99.3855 75.1997 99.6722 74.9639C99.9284 74.7533 100.248 74.6731 100.574 74.7265C100.889 74.7779 101.198 74.9683 101.365 75.243C101.503 75.4694 101.541 75.7529 101.569 76.012C101.766 77.906 101.778 79.8497 101.894 81.7533L102.354 88.7582C102.498 91.6806 102.689 94.6001 102.925 97.5166C103.892 96.8292 104.801 96.0474 105.714 95.2898C108.267 93.1696 111.083 90.8761 112.706 87.9335C113.314 86.8319 113.674 85.5722 113.882 84.337C113.985 83.7254 114.015 82.3019 114.484 81.9136C114.752 81.6913 115.252 81.6106 115.586 81.6767C115.831 81.725 116.051 81.8576 116.188 82.0697C116.73 82.9099 116.171 84.7397 115.938 85.6293C115.509 87.2705 114.888 88.8713 113.949 90.2909C112.004 93.2321 108.963 95.5302 106.249 97.7277C105.23 98.5526 104.224 99.4346 103.163 100.203C103.297 103.309 103.487 106.412 103.732 109.511C106.839 109.882 109.28 110.928 111.981 112.433C113.57 110.53 114.889 108.192 115.495 105.779C115.69 105.004 115.689 104.081 116.025 103.358C116.187 103.01 116.426 102.714 116.825 102.652C117.136 102.604 117.52 102.803 117.743 103.004C118.047 103.279 118.125 103.55 118.125 103.952C118.125 107.193 115.807 111.154 113.857 113.678C115.058 114.717 116.25 115.748 117.315 116.931C117.535 117.176 117.749 117.426 117.958 117.68C118.167 117.935 118.371 118.193 118.57 118.456C118.769 118.719 118.962 118.985 119.149 119.256C119.337 119.527 119.519 119.801 119.695 120.079C119.872 120.357 120.042 120.639 120.207 120.924C120.372 121.209 120.531 121.498 120.684 121.79C120.837 122.081 120.984 122.376 121.125 122.674C121.265 122.971 121.4 123.272 121.529 123.575C121.657 123.878 121.779 124.184 121.895 124.492C122.011 124.801 122.121 125.111 122.224 125.424C122.327 125.737 122.424 126.052 122.514 126.368C122.605 126.685 122.688 127.003 122.766 127.324C122.843 127.644 122.913 127.965 122.977 128.289C123.041 128.612 123.098 128.936 123.149 129.261C123.2 129.587 123.244 129.913 123.281 130.24C123.318 130.568 123.349 130.895 123.372 131.224C123.519 133.257 123.471 135.302 123.474 137.339C123.475 138.414 123.553 139.534 123.482 140.605C117.637 140.562 111.792 140.565 105.947 140.611C106.108 142.727 106.256 144.843 106.391 146.96C106.477 148.136 106.621 149.324 106.652 150.5H94.686C94.7264 149.163 94.8704 147.816 94.9602 146.481C95.0748 144.552 95.2065 142.625 95.3556 140.699C93.6818 140.526 91.89 140.653 90.2017 140.64L78.1136 140.612C78.2131 137.408 77.9255 134.133 78.2607 130.946C78.7874 125.934 80.8152 120.681 84.1526 116.861C85.1409 115.73 86.2558 114.783 87.4205 113.842C85.227 111.024 83.2047 107.678 83.0786 103.996C83.0667 103.648 83.184 103.234 83.4455 102.992C83.6598 102.794 83.9589 102.716 84.2456 102.733C84.6275 102.754 85.0114 102.946 85.1982 103.289C85.4941 103.833 85.4074 104.655 85.5413 105.258C85.6187 105.592 85.7062 105.923 85.8036 106.251C85.9011 106.58 86.0084 106.905 86.1256 107.227C86.2428 107.549 86.3696 107.868 86.506 108.182C86.6425 108.496 86.7884 108.806 86.9437 109.112C87.099 109.417 87.2633 109.718 87.4368 110.013C87.6103 110.309 87.7926 110.599 87.9836 110.883C88.1747 111.168 88.3742 111.446 88.5821 111.719C88.7901 111.991 89.0062 112.257 89.2302 112.516C91.456 110.872 94.6888 109.687 97.4254 109.383C97.6011 107.266 97.7504 105.146 97.8733 103.025C97.924 102.059 97.899 101.074 97.987 100.113C96.2148 98.9394 94.4809 97.5385 92.8754 96.1435C88.9993 92.7755 86.1735 89.8114 85.0962 84.5232C84.9496 83.8035 84.6706 82.5991 85.127 81.9509C85.2919 81.7168 85.5628 81.5654 85.8452 81.5285C85.8811 81.5241 85.917 81.5216 85.9532 81.5211C85.9892 81.5205 86.0252 81.5219 86.0611 81.5252C86.0971 81.5286 86.1328 81.5337 86.1682 81.5408C86.2036 81.5478 86.2385 81.5567 86.2729 81.5676C86.3074 81.5783 86.3412 81.5909 86.3743 81.6052C86.4074 81.6196 86.4396 81.6357 86.471 81.6536C86.5024 81.6713 86.5328 81.6907 86.5621 81.7117C86.5915 81.7327 86.6197 81.7552 86.6466 81.7792C87.0064 82.0967 87.0807 82.6929 87.157 83.1424C87.516 85.2572 88.1543 87.11 89.2567 88.9681C90.8233 91.6089 93.3388 93.5816 95.7058 95.4719C96.5039 96.1091 97.3012 96.7883 98.16 97.3409Z" fill="#101055"/>
<path d="M89.2305 112.516C91.4563 110.872 94.6891 109.687 97.4257 109.384C97.2336 112.686 97.1037 116.036 96.7741 119.328C94.2301 117.145 91.439 115.039 89.2305 112.516Z" fill="#F9C73A"/>
<path d="M103.732 109.511C106.839 109.882 109.28 110.928 111.981 112.432C109.82 114.985 107.071 117.412 104.382 119.396C104.116 116.105 104.004 112.798 103.732 109.511Z" fill="#F9C73A"/>
<path d="M87.4205 113.842C89.1947 115.812 91.2133 117.55 93.2323 119.263C94.3308 120.195 95.4186 121.149 96.5557 122.033C96.3319 124.089 96.2969 126.189 96.1687 128.254L95.3556 140.699C93.6818 140.525 91.89 140.652 90.2017 140.64L78.1136 140.612C78.2131 137.408 77.9255 134.133 78.2607 130.946C78.7874 125.933 80.8152 120.681 84.1526 116.861C85.1409 115.73 86.2558 114.783 87.4205 113.842Z" fill="#F9C73A"/>
<path d="M113.857 113.678C115.058 114.717 116.25 115.748 117.315 116.93C117.535 117.176 117.749 117.426 117.958 117.68C118.167 117.935 118.371 118.193 118.57 118.456C118.769 118.719 118.962 118.985 119.149 119.256C119.337 119.527 119.519 119.801 119.695 120.079C119.872 120.357 120.042 120.639 120.207 120.924C120.372 121.209 120.531 121.498 120.684 121.79C120.837 122.081 120.984 122.376 121.125 122.674C121.265 122.971 121.4 123.272 121.529 123.575C121.657 123.878 121.779 124.184 121.895 124.492C122.011 124.801 122.121 125.111 122.224 125.424C122.327 125.737 122.424 126.051 122.514 126.368C122.605 126.685 122.688 127.003 122.766 127.324C122.843 127.644 122.913 127.965 122.977 128.289C123.041 128.612 123.098 128.936 123.149 129.261C123.2 129.587 123.244 129.913 123.281 130.24C123.318 130.568 123.349 130.895 123.372 131.224C123.519 133.257 123.471 135.302 123.474 137.339C123.475 138.414 123.553 139.534 123.482 140.605C117.637 140.562 111.792 140.565 105.947 140.611C105.676 139.057 105.653 136.845 105.536 135.223L104.654 122.138C105.98 120.767 107.642 119.603 109.113 118.385C110.842 116.953 112.396 115.379 113.857 113.678Z" fill="#F9C73A"/>
</g>
<defs>
<linearGradient id="paint0_linear_47_1897" x1="128.75" y1="45.377" x2="25.0654" y2="40.6981" gradientUnits="userSpaceOnUse">
<stop stop-color="#FDB70F"/>
<stop offset="1" stop-color="#FFEA97"/>
</linearGradient>
<clipPath id="clip0_47_1897">
<rect width="150" height="150" fill="white" transform="translate(0 0.5)"/>
</clipPath>
</defs>
</svg>
