<svg width="32" height="32" viewBox="0 0 32 32" fill="none" xmlns="http://www.w3.org/2000/svg">
<path d="M12.0549 15.997H19.4818C19.9025 15.997 20.1951 15.9475 20.3415 15.8321C20.4878 15.7166 20.5793 15.5023 20.5793 15.1725V14.2489C20.5793 13.9355 20.4878 13.7211 20.3415 13.6057C20.1951 13.4903 19.9025 13.4243 19.4818 13.4243H12.0549V15.997Z" fill="white"/>
<path fill-rule="evenodd" clip-rule="evenodd" d="M0 16C0 7.16333 7.16333 0 16 0C24.8367 0 32 7.16333 32 16C32 24.8367 24.8367 32 16 32C7.16333 32 0 24.8367 0 16ZM9 11H19.9756C20.6524 11 21.2012 11.0659 21.6403 11.1814C22.0793 11.3134 22.4451 11.5112 22.7744 11.7916C23.0854 12.0884 23.3049 12.4183 23.4329 12.7976C23.5611 13.1769 23.6342 13.6717 23.6342 14.2984V15.123C23.6342 16.1784 23.4329 16.9701 23.0305 17.4648C22.6281 17.9596 21.9695 18.2729 21.0549 18.4048L24 22H20.5793L17.9085 18.4213H12.0549V22H9V11Z" fill="white"/>
</svg>
