<svg width="215" height="91" viewBox="0 0 215 91" fill="none" xmlns="http://www.w3.org/2000/svg">
<path d="M203.026 34.7652C203.292 34.7822 203.555 34.6967 203.761 34.5264C203.897 34.4246 204.015 34.3004 204.109 34.1591L210.133 25.1786V34.0673C210.136 34.2521 210.208 34.4292 210.335 34.5632C210.402 34.631 210.482 34.684 210.571 34.7188C210.659 34.7536 210.754 34.7694 210.849 34.7652H214.284C214.376 34.7717 214.469 34.7569 214.555 34.7219C214.641 34.6869 214.718 34.6326 214.78 34.5632C214.848 34.5001 214.904 34.4235 214.941 34.3382C214.979 34.2529 214.999 34.1607 215 34.0673V17.0796C214.991 16.8925 214.913 16.7155 214.78 16.5831C214.648 16.4506 214.471 16.3723 214.284 16.3634H211.547C211.287 16.3493 211.031 16.4346 210.831 16.6021C210.694 16.7034 210.576 16.8277 210.482 16.9694L204.458 25.9683V17.0796C204.461 16.9857 204.443 16.8923 204.405 16.8065C204.367 16.7206 204.31 16.6445 204.238 16.5837C204.176 16.514 204.099 16.4583 204.014 16.4203C203.928 16.3824 203.836 16.3629 203.742 16.3634H200.29C200.196 16.3641 200.104 16.384 200.019 16.4219C199.933 16.4598 199.857 16.5149 199.794 16.5837C199.728 16.6484 199.676 16.7257 199.642 16.8109C199.607 16.8962 199.59 16.9876 199.592 17.0796V34.0673C199.594 34.2521 199.666 34.4292 199.794 34.5632C199.858 34.6296 199.935 34.6818 200.02 34.7166C200.106 34.7514 200.197 34.7679 200.29 34.7652H203.026ZM207.287 15.188C206.589 15.2056 205.896 15.0806 205.248 14.8207C204.724 14.6157 204.248 14.3029 203.852 13.9024C203.511 13.5446 203.248 13.1192 203.081 12.6536C202.934 12.2341 202.853 11.7941 202.842 11.3497C202.846 11.2169 202.891 11.0886 202.971 10.9824C203.022 10.9335 203.083 10.8953 203.149 10.8701C203.215 10.8448 203.286 10.8331 203.357 10.8355H205.56C205.628 10.8345 205.696 10.847 205.759 10.8722C205.822 10.8974 205.879 10.9349 205.928 10.9824C206.015 11.0842 206.061 11.2154 206.056 11.3497C206.059 11.6758 206.168 11.992 206.368 12.2496C206.478 12.386 206.618 12.4939 206.778 12.5643C206.938 12.6346 207.112 12.6653 207.287 12.6536C207.461 12.6669 207.636 12.6369 207.796 12.5665C207.956 12.496 208.097 12.3872 208.205 12.2496C208.418 11.9981 208.535 11.6793 208.535 11.3497C208.53 11.2154 208.576 11.0842 208.664 10.9824C208.711 10.9331 208.768 10.8945 208.832 10.8691C208.895 10.8438 208.963 10.8323 209.031 10.8355H211.198C211.267 10.8323 211.335 10.8438 211.398 10.8691C211.461 10.8945 211.519 10.9331 211.566 10.9824C211.653 11.0842 211.699 11.2154 211.694 11.3497C211.692 11.795 211.611 12.2364 211.456 12.6536C211.303 13.1259 211.038 13.5543 210.684 13.9024C210.298 14.3065 209.828 14.6201 209.307 14.8207C208.664 15.0739 207.978 15.1987 207.287 15.188ZM195.955 16.3634C196.054 16.349 196.154 16.3563 196.249 16.3848C196.344 16.4134 196.432 16.4625 196.506 16.5287C196.578 16.5894 196.635 16.6655 196.673 16.7514C196.711 16.8372 196.73 16.9306 196.727 17.0245V34.0122C196.726 34.1056 196.706 34.1978 196.668 34.2831C196.63 34.3684 196.575 34.445 196.506 34.5081C196.442 34.5745 196.365 34.6267 196.28 34.6615C196.194 34.6963 196.103 34.7129 196.01 34.7101H192.558C192.373 34.7101 192.195 34.6366 192.064 34.5057C191.933 34.3748 191.86 34.1973 191.86 34.0122V17.0796C191.853 16.987 191.868 16.8941 191.903 16.8082C191.938 16.7222 191.993 16.6454 192.062 16.5837C192.125 16.5149 192.202 16.4598 192.287 16.4219C192.372 16.384 192.464 16.3641 192.558 16.3634H195.955ZM185.873 29.0353C185.892 28.6406 185.761 28.2534 185.506 27.9517C185.313 27.7841 185.088 27.6583 184.845 27.5825C184.602 27.5066 184.345 27.4822 184.092 27.511H180.731V30.5596H184.092C184.345 30.5883 184.602 30.564 184.845 30.4881C185.088 30.4122 185.313 30.2864 185.506 30.1188C185.759 29.8162 185.89 29.4297 185.873 29.0353ZM175.864 17.0796C175.854 16.9785 175.867 16.8765 175.902 16.7812C175.937 16.6859 175.993 16.5996 176.066 16.5287C176.132 16.4584 176.212 16.4026 176.3 16.3647C176.389 16.3268 176.484 16.3075 176.58 16.3083H179.978C180.165 16.3172 180.342 16.3955 180.474 16.528C180.607 16.6604 180.685 16.8374 180.694 17.0245V23.2503H184.973C185.808 23.2357 186.638 23.3854 187.416 23.691C188.115 23.9625 188.743 24.3896 189.252 24.9399C189.747 25.4688 190.129 26.0939 190.372 26.7764C190.618 27.4915 190.742 28.2425 190.74 28.9985C190.743 29.7547 190.619 30.5059 190.372 31.2207C190.126 31.9021 189.745 32.5267 189.252 33.0572C188.742 33.6018 188.113 34.0227 187.416 34.2877C186.638 34.5933 185.808 34.743 184.973 34.7284H176.58C176.485 34.7327 176.39 34.7169 176.302 34.6821C176.213 34.6473 176.133 34.5942 176.066 34.5264C175.939 34.3924 175.867 34.2154 175.864 34.0306V17.0796ZM172.191 16.3634C172.378 16.3723 172.555 16.4506 172.688 16.5831C172.82 16.7155 172.898 16.8925 172.907 17.0796V34.0673C172.907 34.1607 172.887 34.2529 172.849 34.3382C172.811 34.4235 172.756 34.5001 172.687 34.5632C172.625 34.6326 172.548 34.6869 172.462 34.7219C172.376 34.7569 172.284 34.7717 172.191 34.7652H168.775C168.683 34.7679 168.591 34.7514 168.506 34.7166C168.42 34.6818 168.343 34.6296 168.279 34.5632C168.152 34.4292 168.08 34.2521 168.077 34.0673V27.5477H162.237V33.9938C162.236 34.0872 162.216 34.1794 162.179 34.2647C162.141 34.35 162.086 34.4266 162.017 34.4897C161.955 34.5591 161.878 34.6134 161.792 34.6484C161.706 34.6835 161.613 34.6983 161.521 34.6917H158.087C157.996 34.6969 157.905 34.6832 157.82 34.6516C157.734 34.62 157.656 34.5712 157.591 34.5081C157.521 34.4422 157.465 34.3625 157.427 34.274C157.389 34.1855 157.37 34.0901 157.37 33.9938V17.0796C157.379 16.8925 157.458 16.7155 157.59 16.5831C157.722 16.4506 157.9 16.3723 158.087 16.3634H161.613C161.8 16.3723 161.977 16.4506 162.109 16.5831C162.242 16.7155 162.32 16.8925 162.329 17.0796V23.4156H168.169V17.0796C168.147 16.9852 168.146 16.8872 168.165 16.7922C168.184 16.6972 168.223 16.6073 168.279 16.5287C168.342 16.4598 168.419 16.4047 168.504 16.3668C168.59 16.3289 168.682 16.309 168.775 16.3083L172.191 16.3634ZM150.594 29.0353C150.608 28.6382 150.47 28.2507 150.208 27.9517C150.016 27.7841 149.791 27.6583 149.547 27.5825C149.304 27.5066 149.047 27.4822 148.794 27.511H145.507V30.5596H148.867C149.121 30.5883 149.377 30.564 149.621 30.4881C149.864 30.4122 150.089 30.2864 150.281 30.1188C150.514 29.8076 150.625 29.4224 150.594 29.0353ZM149.712 23.3054C150.553 23.2926 151.389 23.4423 152.173 23.7461C152.867 24.0272 153.493 24.453 154.01 24.995C154.493 25.5292 154.868 26.1531 155.111 26.8315C155.371 27.5433 155.502 28.2958 155.497 29.0536C155.509 29.7909 155.391 30.5244 155.148 31.2207C154.902 31.8977 154.528 32.5211 154.046 33.0572C153.529 33.5935 152.903 34.013 152.21 34.2877C151.425 34.5915 150.59 34.7412 149.749 34.7284H141.411C141.318 34.735 141.226 34.7202 141.14 34.6852C141.054 34.6501 140.977 34.5958 140.915 34.5264C140.846 34.4634 140.791 34.3868 140.753 34.3015C140.715 34.2161 140.696 34.1239 140.695 34.0306V17.0796C140.704 16.8925 140.782 16.7155 140.915 16.5831C141.047 16.4506 141.224 16.3723 141.411 16.3634H153.422C153.609 16.3723 153.786 16.4506 153.918 16.5831C154.051 16.7155 154.129 16.8925 154.138 17.0796V19.8711C154.137 19.9645 154.117 20.0567 154.08 20.142C154.042 20.2273 153.987 20.3039 153.918 20.367C153.853 20.4325 153.776 20.4841 153.691 20.5189C153.605 20.5536 153.514 20.5706 153.422 20.569H145.507V23.3054H149.712ZM137.591 30.6514C137.685 30.651 137.777 30.6704 137.863 30.7084C137.948 30.7464 138.025 30.8021 138.087 30.8718C138.159 30.9325 138.216 31.0087 138.254 31.0945C138.292 31.1804 138.31 31.2737 138.307 31.3676V34.1591C138.307 34.2525 138.287 34.3447 138.249 34.43C138.211 34.5153 138.156 34.5919 138.087 34.655C138.024 34.7223 137.947 34.7752 137.861 34.8101C137.776 34.8449 137.683 34.8609 137.591 34.857H125.195C125.01 34.857 124.832 34.7835 124.701 34.6526C124.57 34.5217 124.497 34.3442 124.497 34.1591V17.0796C124.481 16.9782 124.491 16.8744 124.527 16.778C124.562 16.6817 124.621 16.5959 124.699 16.5287C124.762 16.4598 124.839 16.4047 124.924 16.3668C125.009 16.3289 125.101 16.309 125.195 16.3083H137.463C137.556 16.309 137.648 16.3289 137.733 16.3668C137.819 16.4047 137.895 16.4598 137.958 16.5287C138.024 16.5933 138.076 16.6706 138.11 16.7558C138.145 16.8411 138.162 16.9325 138.16 17.0245V19.816C138.16 20.0011 138.087 20.1786 137.956 20.3095C137.825 20.4404 137.648 20.5139 137.463 20.5139H129.364V23.3605H136.875C136.967 23.3588 137.058 23.3758 137.144 23.4106C137.229 23.4453 137.306 23.497 137.371 23.5625C137.44 23.6256 137.495 23.7021 137.533 23.7875C137.571 23.8728 137.59 23.965 137.591 24.0583V26.8498C137.582 27.0369 137.504 27.2139 137.371 27.3464C137.239 27.4788 137.062 27.5571 136.875 27.5661H129.364V30.5045L137.591 30.6514ZM110.815 21.4689C110.734 22.2791 110.971 23.089 111.476 23.7278C112.107 24.2333 112.912 24.4707 113.717 24.3889H116.637V17.0429C116.636 16.9409 116.66 16.8403 116.708 16.7504C116.757 16.6606 116.827 16.5843 116.912 16.5287C116.975 16.4598 117.052 16.4047 117.137 16.3668C117.222 16.3289 117.315 16.309 117.408 16.3083H120.861C120.954 16.309 121.046 16.3289 121.131 16.3668C121.217 16.4047 121.293 16.4598 121.356 16.5287C121.426 16.5903 121.48 16.6671 121.515 16.7531C121.55 16.839 121.565 16.9319 121.558 17.0245V34.0122C121.558 34.1973 121.485 34.3748 121.354 34.5057C121.223 34.6366 121.046 34.7101 120.861 34.7101H117.408C117.223 34.7101 117.045 34.6366 116.914 34.5057C116.784 34.3748 116.71 34.1973 116.71 34.0122V28.5027H113.037C112.095 28.5619 111.15 28.4297 110.26 28.1141C109.37 27.7985 108.553 27.3059 107.858 26.6662C107.218 25.9715 106.726 25.1546 106.41 24.2645C106.095 23.3745 105.962 22.4297 106.022 21.4872V17.0796C106.031 16.8925 106.109 16.7155 106.241 16.5831C106.374 16.4506 106.551 16.3723 106.738 16.3634H110.19C110.287 16.3626 110.382 16.3818 110.471 16.4198C110.559 16.4577 110.639 16.5135 110.705 16.5837C110.77 16.6484 110.822 16.7257 110.857 16.8109C110.891 16.8962 110.908 16.9876 110.907 17.0796L110.815 21.4689ZM99.2816 29.3842C98.8935 30.1277 98.4579 30.8454 97.9777 31.5329C97.5442 32.1536 97.0387 32.7208 96.4717 33.2225C95.9313 33.6979 95.309 34.0712 94.6352 34.3244C93.906 34.5906 93.1342 34.7213 92.358 34.7101H90.5215C90.3364 34.7101 90.1589 34.6366 90.028 34.5057C89.8971 34.3748 89.8236 34.1973 89.8236 34.0122V31.2207C89.817 31.1281 89.8318 31.0352 89.8669 30.9493C89.9019 30.8633 89.9562 30.7865 90.0256 30.7249C90.0887 30.656 90.1653 30.6009 90.2506 30.563C90.3359 30.5251 90.4281 30.5052 90.5215 30.5045H92.358C92.8013 30.4904 93.2221 30.3063 93.5333 29.9903C94.0508 29.4494 94.4785 28.8294 94.8005 28.1537L88.8319 17.1347C88.7654 17.0368 88.7273 16.9224 88.7217 16.8041C88.7191 16.7263 88.7326 16.6487 88.7612 16.5762C88.7898 16.5038 88.833 16.438 88.8881 16.3829C88.9432 16.3278 89.009 16.2846 89.0815 16.256C89.1539 16.2273 89.2315 16.2139 89.3094 16.2164H92.9824C93.2691 16.1959 93.5525 16.2881 93.7721 16.4736C93.9004 16.5876 94.0063 16.7246 94.0843 16.8776L97.3349 23.489L100.677 17.0245C100.768 16.8748 100.879 16.7387 101.008 16.6205C101.229 16.4384 101.511 16.3466 101.798 16.3634H105.471C105.548 16.3608 105.626 16.3743 105.699 16.4029C105.771 16.4315 105.837 16.4747 105.892 16.5298C105.947 16.5849 105.99 16.6507 106.019 16.7232C106.047 16.7956 106.061 16.8732 106.058 16.951C106.053 17.0693 106.015 17.1837 105.948 17.2816L99.2816 29.3842Z" fill="#B3B3B3"/>
<path d="M164.735 50.1357H167.967C171.64 50.1357 171.309 44.2038 167.967 44.2038H164.735V50.1357ZM168.096 40.1268C169.064 40.0568 170.037 40.1872 170.954 40.5099C171.87 40.8326 172.71 41.3407 173.421 42.0024C174.132 42.6641 174.699 43.4652 175.087 44.3559C175.475 45.2465 175.675 46.2075 175.675 47.179C175.675 48.1504 175.475 49.1114 175.087 50.002C174.699 50.8927 174.132 51.6938 173.421 52.3555C172.71 53.0172 171.87 53.5253 170.954 53.848C170.037 54.1707 169.064 54.3011 168.096 54.2311H164.735V57.8123C164.737 57.9071 164.72 58.0013 164.685 58.0894C164.65 58.1774 164.598 58.2574 164.531 58.3244C164.464 58.3914 164.384 58.4441 164.296 58.4792C164.208 58.5143 164.113 58.5311 164.018 58.5286H160.584C160.492 58.5302 160.401 58.5132 160.316 58.4785C160.23 58.4437 160.153 58.3921 160.088 58.3266C160.018 58.2607 159.962 58.181 159.924 58.0925C159.886 58.004 159.867 57.9086 159.868 57.8123V40.8246C159.869 40.7313 159.889 40.6391 159.927 40.5538C159.964 40.4684 160.02 40.3919 160.088 40.3288C160.153 40.2633 160.23 40.2116 160.316 40.1769C160.401 40.1421 160.492 40.1251 160.584 40.1268H168.096ZM157.554 40.1268C157.739 40.1293 157.916 40.2015 158.05 40.3288C158.116 40.3928 158.169 40.4699 158.203 40.5553C158.238 40.6407 158.255 40.7325 158.252 40.8246V43.6161C158.258 43.7087 158.244 43.8016 158.209 43.8876C158.174 43.9735 158.119 44.0503 158.05 44.112C157.987 44.1808 157.91 44.2359 157.825 44.2738C157.74 44.3117 157.647 44.3317 157.554 44.3324H152.926V57.8123C152.927 57.9086 152.908 58.004 152.87 58.0925C152.832 58.181 152.776 58.2607 152.706 58.3266C152.641 58.3921 152.564 58.4437 152.478 58.4785C152.393 58.5132 152.302 58.5302 152.21 58.5286H148.757C148.662 58.5311 148.568 58.5143 148.48 58.4792C148.392 58.4441 148.312 58.3914 148.245 58.3244C148.178 58.2574 148.125 58.1774 148.09 58.0894C148.055 58.0013 148.038 57.9071 148.041 57.8123V44.3324H143.431C143.244 44.3234 143.067 44.2451 142.935 44.1127C142.802 43.9802 142.724 43.8032 142.715 43.6161V40.8246C142.716 40.7313 142.736 40.6391 142.774 40.5538C142.811 40.4684 142.867 40.3919 142.935 40.3288C143 40.2633 143.077 40.2116 143.163 40.1769C143.248 40.1421 143.339 40.1251 143.431 40.1268H157.554ZM140.401 40.1268C140.586 40.1293 140.763 40.2015 140.897 40.3288C140.966 40.3919 141.021 40.4684 141.059 40.5538C141.097 40.6391 141.117 40.7313 141.117 40.8246V57.8123C141.118 57.9086 141.099 58.004 141.061 58.0925C141.023 58.181 140.967 58.2607 140.897 58.3266C140.763 58.4539 140.586 58.526 140.401 58.5286H136.948C136.764 58.526 136.587 58.4539 136.453 58.3266C136.385 58.2598 136.332 58.1795 136.297 58.0909C136.262 58.0023 136.246 57.9074 136.251 57.8123V51.4213H130.392V57.8491C130.393 57.9453 130.374 58.0407 130.336 58.1292C130.298 58.2177 130.242 58.2974 130.172 58.3633C130.107 58.4288 130.03 58.4805 129.944 58.5152C129.859 58.5499 129.768 58.567 129.676 58.5653H126.26C126.069 58.5655 125.885 58.4933 125.746 58.3633C125.679 58.2958 125.626 58.2154 125.592 58.127C125.557 58.0386 125.541 57.944 125.544 57.8491V40.8246C125.546 40.6398 125.618 40.4628 125.746 40.3288C125.885 40.1987 126.069 40.1265 126.26 40.1268H129.694C129.786 40.1251 129.878 40.1421 129.963 40.1769C130.048 40.2116 130.125 40.2633 130.19 40.3288C130.259 40.3919 130.314 40.4684 130.352 40.5538C130.39 40.6391 130.41 40.7313 130.41 40.8246V47.1606H136.251V40.8246C136.264 40.6639 136.336 40.5137 136.453 40.4022C136.587 40.2749 136.764 40.2028 136.948 40.2002L140.401 40.1268ZM122.569 54.323C122.753 54.3255 122.93 54.3977 123.064 54.525C123.132 54.5918 123.185 54.6721 123.22 54.7606C123.255 54.8492 123.271 54.9441 123.266 55.0392V57.8123C123.271 57.9074 123.255 58.0023 123.22 58.0909C123.185 58.1795 123.132 58.2598 123.064 58.3266C122.93 58.4539 122.753 58.526 122.569 58.5286H110.19C110.006 58.526 109.829 58.4539 109.695 58.3266C109.624 58.2607 109.569 58.181 109.531 58.0925C109.493 58.004 109.473 57.9086 109.474 57.8123V40.8246C109.475 40.7313 109.495 40.6391 109.533 40.5538C109.571 40.4684 109.626 40.3919 109.695 40.3288C109.829 40.2015 110.006 40.1293 110.19 40.1268H122.44C122.631 40.1265 122.815 40.1987 122.954 40.3288C123.082 40.4628 123.154 40.6398 123.156 40.8246V43.6161C123.158 43.7082 123.141 43.7996 123.106 43.8848C123.071 43.97 123.02 44.0473 122.954 44.112C122.888 44.1822 122.809 44.238 122.72 44.276C122.632 44.3139 122.536 44.3331 122.44 44.3324H114.249V47.1606H121.779C121.872 47.1613 121.964 47.1812 122.05 47.2191C122.135 47.2571 122.212 47.3121 122.275 47.381C122.341 47.445 122.393 47.5221 122.428 47.6075C122.463 47.6929 122.479 47.7847 122.477 47.8768V50.6683C122.479 50.7605 122.463 50.8522 122.428 50.9376C122.393 51.023 122.341 51.1002 122.275 51.1642C122.212 51.233 122.135 51.2881 122.05 51.326C121.964 51.3639 121.872 51.3839 121.779 51.3846H114.249V54.323H122.569ZM105.177 54.323H106.775C106.869 54.3204 106.964 54.3372 107.052 54.3723C107.14 54.4074 107.22 54.4601 107.287 54.5271C107.354 54.5941 107.406 54.6741 107.441 54.7621C107.477 54.8502 107.493 54.9445 107.491 55.0392V60.714C107.488 60.8988 107.416 61.0759 107.289 61.2099C107.222 61.2777 107.142 61.3307 107.053 61.3655C106.965 61.4003 106.87 61.4161 106.775 61.4119H103.855C103.762 61.4147 103.671 61.3981 103.585 61.3633C103.5 61.3285 103.423 61.2763 103.359 61.2099C103.231 61.0759 103.159 60.8988 103.157 60.714V58.5286H90.852C90.76 58.5302 90.6686 58.5132 90.5834 58.4785C90.4981 58.4437 90.4208 58.3921 90.3562 58.3266C90.286 58.2607 90.2301 58.181 90.1922 58.0925C90.1543 58.004 90.1351 57.9086 90.1358 57.8123V40.8246C90.1559 40.6619 90.2341 40.5118 90.3562 40.4022C90.4208 40.3367 90.4981 40.2851 90.5834 40.2503C90.6686 40.2156 90.76 40.1986 90.852 40.2002H94.2863C94.3783 40.1986 94.4697 40.2156 94.555 40.2503C94.6402 40.2851 94.7175 40.3367 94.7822 40.4022C94.851 40.4653 94.9061 40.5419 94.944 40.6272C94.9819 40.7125 95.0018 40.8047 95.0025 40.8981V54.3964H100.31V40.8246C100.311 40.7313 100.331 40.6391 100.369 40.5538C100.407 40.4684 100.462 40.3919 100.53 40.3288C100.595 40.2633 100.672 40.2116 100.758 40.1769C100.843 40.1421 100.934 40.1251 101.026 40.1268H104.461C104.651 40.1265 104.835 40.1987 104.975 40.3288C105.102 40.4628 105.174 40.6398 105.177 40.8246V54.323Z" fill="#B3B3B3"/>
<path d="M166.59 64.9016H168.077V68.3909H172.742V64.9016H174.23V73.1108H172.742V69.6765H168.077V73.1108H166.59V64.9016ZM156.103 63.8364C155.444 63.8889 154.788 63.6924 154.267 63.2855C154.05 63.0858 153.88 62.8406 153.769 62.5676C153.658 62.2946 153.608 62.0004 153.624 61.7061H154.634C154.627 61.878 154.658 62.0494 154.725 62.208C154.791 62.3667 154.892 62.5088 155.02 62.6243C155.298 62.8683 155.66 62.9935 156.03 62.9732C156.405 62.9945 156.773 62.8694 157.058 62.6243C157.184 62.5068 157.285 62.3648 157.355 62.2069C157.424 62.049 157.461 61.8786 157.462 61.7061H158.491C158.508 62.0023 158.458 62.2986 158.343 62.5723C158.228 62.8461 158.053 63.09 157.829 63.2855C157.335 63.6639 156.725 63.8587 156.103 63.8364ZM152.265 64.9016H153.752V70.8702L158.784 64.9016H160.125V73.1108H158.638V67.1238L153.624 73.1108H152.265V64.9016ZM142.109 72.0456C142.623 72.0572 143.13 71.9303 143.578 71.6783C143.99 71.4274 144.307 71.0461 144.478 70.5948V69.4561H142.146C140.921 69.4561 140.309 69.8785 140.309 70.7233C140.3 70.9127 140.339 71.1014 140.422 71.2716C140.506 71.4418 140.631 71.5881 140.787 71.6967C141.167 71.9474 141.617 72.0697 142.072 72.0456H142.109ZM142.458 64.8281C143.401 64.7575 144.335 65.0536 145.066 65.6545C145.379 65.9867 145.621 66.3799 145.776 66.8096C145.931 67.2394 145.995 67.6964 145.966 68.1522V73.1108H144.552V72.0272C144.296 72.4123 143.931 72.7128 143.505 72.8904C142.987 73.1062 142.431 73.2125 141.87 73.2026C141.078 73.2463 140.296 73.0053 139.666 72.5231C139.412 72.3111 139.207 72.0457 139.067 71.7458C138.926 71.4459 138.853 71.1188 138.853 70.7876C138.853 70.4564 138.926 70.1293 139.067 69.8294C139.207 69.5294 139.412 69.2641 139.666 69.0521C140.398 68.5497 141.28 68.3161 142.164 68.3909H144.515V68.0971C144.537 67.8267 144.499 67.5547 144.404 67.3007C144.309 67.0467 144.159 66.8169 143.964 66.6279C143.5 66.2491 142.908 66.0648 142.311 66.1137C141.829 66.111 141.351 66.1918 140.897 66.3524C140.469 66.4928 140.071 66.7107 139.722 66.9952L139.097 65.8749C139.555 65.5279 140.071 65.2666 140.621 65.1036C141.205 64.9243 141.811 64.8315 142.421 64.8281H142.458ZM133.018 64.8281V73.0373H131.549V66.2055H127.968L127.876 68.042C127.853 68.9728 127.754 69.9001 127.582 70.8151C127.503 71.475 127.263 72.1055 126.884 72.6516C126.727 72.8669 126.519 73.0399 126.279 73.1553C126.038 73.2706 125.773 73.3247 125.507 73.3128C125.197 73.3103 124.888 73.2671 124.589 73.1842V71.9354H124.956C125.146 71.9441 125.336 71.8987 125.501 71.8044C125.667 71.7102 125.803 71.5709 125.893 71.4028C126.103 71.0019 126.24 70.5665 126.297 70.1173C126.297 69.6214 126.407 68.9052 126.462 67.9869L126.719 64.9016L133.018 64.8281ZM111.825 64.8281H113.313V68.3175H117.977V64.8281H119.373V73.0373H117.885V69.6765H113.276V73.1108H111.788L111.825 64.8281ZM101.798 71.8252C102.293 71.8279 102.78 71.7013 103.212 71.4579C103.629 71.2162 103.967 70.859 104.185 70.4295C104.435 69.9675 104.562 69.4488 104.552 68.9235C104.559 68.3986 104.433 67.8804 104.185 67.4176C103.966 66.9936 103.627 66.6427 103.212 66.4075C102.779 66.1697 102.291 66.0494 101.798 66.0586C101.303 66.045 100.815 66.1656 100.384 66.4075C99.9625 66.6415 99.6181 66.9923 99.3918 67.4176C99.144 67.8804 99.0176 68.3986 99.0245 68.9235C99.0152 69.4488 99.1417 69.9675 99.3918 70.4295C99.6178 70.8597 99.9618 71.2165 100.384 71.4579C100.795 71.7249 101.271 71.877 101.761 71.8987L101.798 71.8252ZM101.798 73.1291C101.028 73.1412 100.268 72.9512 99.5938 72.5782C98.9634 72.2254 98.4375 71.7122 98.0695 71.0906C97.6971 70.4299 97.5069 69.682 97.5186 68.9235C97.5066 68.1709 97.6969 67.4288 98.0695 66.7748C98.4271 66.1451 98.9556 65.6294 99.5938 65.2872C100.273 64.929 101.03 64.7459 101.798 64.7547C102.559 64.7459 103.311 64.929 103.983 65.2872C104.621 65.6294 105.15 66.1451 105.507 66.7748C105.874 67.4303 106.058 68.1725 106.04 68.9235C106.058 69.6804 105.874 70.4284 105.507 71.0906C105.139 71.7122 104.613 72.2254 103.983 72.5782C103.312 72.9834 102.544 73.1992 101.761 73.2026L101.798 73.1291ZM91.4765 73.1291C91.194 73.1291 90.923 73.0169 90.7233 72.8172C90.5235 72.6174 90.4113 72.3465 90.4113 72.064C90.4082 71.9237 90.4343 71.7842 90.4881 71.6546C90.5418 71.5249 90.622 71.4079 90.7235 71.311C90.8218 71.2112 90.939 71.1322 91.0683 71.0786C91.1977 71.025 91.3365 70.9978 91.4765 70.9988C91.6093 70.9983 91.741 71.0239 91.8639 71.0744C91.9868 71.1248 92.0985 71.199 92.1927 71.2926C92.2914 71.3946 92.3683 71.5155 92.4189 71.6481C92.4694 71.7807 92.4924 71.9222 92.4865 72.064C92.491 72.2028 92.4672 72.3411 92.4167 72.4705C92.3662 72.5999 92.29 72.7178 92.1927 72.8169C92.1034 72.9328 91.9896 73.0274 91.8594 73.0941C91.7292 73.1608 91.5859 73.1978 91.4397 73.2026L91.4765 73.1291Z" fill="#B3B3B3"/>
<path d="M1.23046 5.82173L42.5335 29.6963L66.1143 16.0511V18.916L42.5335 32.5246L0 7.97044L1.23046 5.82173ZM7.76843 0C23.5808 8.8887 38.5667 5.32587 42.5335 20.073C45.527 8.8887 54.8749 8.22755 66.1143 4.70146V14.1962L42.5335 27.8047L4.42598 5.80336L7.76843 0ZM77.2986 0L80.6411 5.80336L77.2986 7.75006V9.58657L83.8366 5.80336L85.0854 7.95208L77.2986 12.4699V37.777L67.5835 43.3783V4.22397C70.9486 3.12751 74.2017 1.71314 77.2986 0ZM32.4511 28.7046V42.4601L37.6851 45.4719V31.7165L42.5335 34.5263L47.4003 31.7165V60.4946L52.6343 57.4643V28.7046L62.4413 23.0849V51.863L77.3904 43.2314V66.4999C77.4086 67.8068 77.0778 69.0948 76.4322 70.2312C75.7865 71.3676 74.8494 72.3111 73.7174 72.9645L42.5335 90.8704L11.5149 72.9645C10.383 72.3111 9.44581 71.3676 8.80015 70.2312C8.15449 69.0948 7.8237 67.8068 7.84189 66.4999V14.4717L17.557 20.073V66.1143L42.5886 80.5676L67.5835 66.1143V59.1539L42.5335 73.6072L22.736 62.1842V51.863L37.6851 60.4946V55.7931L22.736 47.1615V23.0849L32.4511 28.7046Z" fill="#B6B3B2"/>
</svg>
