<svg width="34" height="168" viewBox="0 0 34 168" fill="none" xmlns="http://www.w3.org/2000/svg">
<path d="M3.63361 68.4243L6.51576 70.0261V87.4653V87.7593L6.7726 87.9022L16.7752 93.4691L17.0185 93.6045L17.2618 93.469L27.2497 87.9021L27.5063 87.7591V87.4653V84.7844V83.9343L26.7632 84.3475L16.9963 89.7792L9.58526 85.6575V82.8267L14.8158 85.7377L15.5589 86.1513V85.3008V83.49V83.196L15.3021 83.0531L9.58526 79.8715V71.7432L12.4674 73.3502V78.3546V78.649L12.7249 78.7918L14.8164 79.9519L15.5589 80.3637V79.5146V75.0686L16.7525 75.7353L16.9959 75.8713L17.2395 75.7357L18.4411 75.067V85.3008V86.1524L19.1847 85.7374L21.2762 84.5703L21.5326 84.4272V84.1337V73.3515L24.4514 71.7393V81.9762V82.8267L25.1946 82.4131L30.4251 79.5021V87.6139H30.4251L30.4252 87.6211C30.4311 88.0318 30.3233 88.4377 30.1114 88.7971C29.8996 89.1564 29.5909 89.4571 29.2151 89.6664C29.2148 89.6665 29.2146 89.6667 29.2143 89.6668L16.997 96.4287L4.84445 89.6668L4.84443 89.6668C4.46828 89.4576 4.15922 89.1567 3.94726 88.7971C3.73539 88.4377 3.62762 88.0318 3.63355 87.6211L3.63361 87.6211V87.6139V68.4243ZM30.7009 62.6615L31.5313 64.0512L30.6437 64.5495L30.3884 64.6928V64.9855V65.6929V66.5102V66.5443V66.8034V76.2567L27.5063 77.8584V63.9914C28.6047 63.6273 29.6727 63.1827 30.7009 62.6615ZM25.9192 64.4794V67.1743L16.9964 72.1377L2.46232 64.0496L3.2906 62.6634C5.49808 63.7902 7.68001 64.382 9.58512 64.8987C10.3282 65.1002 11.0291 65.2903 11.673 65.4962C12.8947 65.887 13.9183 66.3318 14.7286 66.9958C15.5271 67.6501 16.1443 68.5389 16.5147 69.8663L16.9975 71.5963L17.4781 69.8657C18.0308 67.8752 19.1485 66.839 20.6845 66.1181C21.4683 65.7503 22.3612 65.4654 23.356 65.1848C23.7078 65.0856 24.0754 64.9861 24.4543 64.8836C24.928 64.7555 25.4193 64.6226 25.9192 64.4794Z" fill="#CACACA" stroke="url(#paint0_linear_126_174)"/>
<path d="M18 52L18 1.36346e-06" stroke="url(#paint1_linear_126_174)"/>
<path d="M18 107L18 168" stroke="url(#paint2_linear_126_174)"/>
<defs>
<linearGradient id="paint0_linear_126_174" x1="0" y1="79.5005" x2="34" y2="79.5005" gradientUnits="userSpaceOnUse">
<stop stop-color="#CACACA"/>
<stop offset="1" stop-color="#CACACA" stop-opacity="0"/>
</linearGradient>
<linearGradient id="paint1_linear_126_174" x1="18.5" y1="52" x2="18.5" y2="-2.18557e-08" gradientUnits="userSpaceOnUse">
<stop stop-color="#CACACA"/>
<stop offset="1" stop-color="#CACACA" stop-opacity="0"/>
</linearGradient>
<linearGradient id="paint2_linear_126_174" x1="17.5" y1="107" x2="17.5" y2="168" gradientUnits="userSpaceOnUse">
<stop stop-color="#CACACA"/>
<stop offset="1" stop-color="#CACACA" stop-opacity="0"/>
</linearGradient>
</defs>
</svg>
