<svg width="23" height="23" viewBox="0 0 23 23" fill="none" xmlns="http://www.w3.org/2000/svg">
<path fill-rule="evenodd" clip-rule="evenodd" d="M3.36914 3.36824C5.52359 1.21235 8.4507 0 11.5 0C14.5493 0 17.4764 1.21235 19.6309 3.36824C21.7871 5.52413 23 8.45124 23 11.5C23 14.5488 21.7871 17.4759 19.6309 19.6318C17.4764 21.7876 14.5493 23 11.5 23C8.4507 23 5.52359 21.7876 3.36914 19.6318C1.21289 17.4759 0 14.5488 0 11.5C0.000617134 8.44995 1.21248 5.525 3.36914 3.36824ZM11.9117 8.48988C10.794 8.95515 8.5587 9.91803 5.20573 11.3785C4.66127 11.5951 4.37557 11.8069 4.35042 12.0139C4.30617 12.3636 4.7441 12.5015 5.33917 12.6889C5.42079 12.7146 5.50537 12.7413 5.59206 12.7695C6.17964 12.9603 6.97026 13.1837 7.37995 13.1925C7.7537 13.2006 8.16878 13.0469 8.62698 12.7318C11.7607 10.6174 13.3761 9.54859 13.4785 9.52559C13.5504 9.50942 13.6492 9.48894 13.7157 9.54877C13.784 9.60843 13.7768 9.72163 13.7696 9.752C13.7273 9.93669 12.0134 11.5301 11.1216 12.3592C10.8413 12.6199 10.6421 12.805 10.6017 12.8471C10.5115 12.9409 10.4195 13.0296 10.331 13.1148C9.78572 13.6405 9.37662 14.0349 10.3538 14.6787C10.8276 14.9908 11.2058 15.2484 11.5837 15.5058C11.9899 15.7824 12.3957 16.0589 12.9197 16.4026C13.0545 16.4909 13.1831 16.5826 13.3085 16.6719C13.7847 17.0115 14.2126 17.3164 14.7417 17.2678C15.049 17.2396 15.3671 16.9506 15.527 16.0889C15.9079 14.0521 16.6572 9.63934 16.8297 7.8209C16.8459 7.6617 16.8261 7.45775 16.8117 7.36827C16.7956 7.27869 16.7632 7.15111 16.6482 7.05678C16.5099 6.94492 16.2978 6.92138 16.2026 6.92291C15.7696 6.93073 15.1065 7.16145 11.9117 8.48988Z" fill="white"/>
</svg>
