<svg width="35" height="48" viewBox="0 0 35 48" fill="none" xmlns="http://www.w3.org/2000/svg">
<path d="M11.8004 4.06802C14.586 2.49809 15.9766 1.71423 17.5 1.71423C19.0234 1.71423 20.414 2.49809 23.1996 4.06802L27.0746 6.2513C29.9642 7.8788 31.4101 8.69366 32.2051 10.0554C33 11.4172 33 13.0779 33 16.3994V20.2434C33 23.5648 33 25.2255 32.2029 26.5873C31.4101 27.9491 29.9664 28.7639 27.0746 30.3914L23.1996 32.5747C20.414 34.1447 19.0234 34.9285 17.5 34.9285C15.9766 34.9285 14.586 34.1447 11.8004 32.5747L7.92543 30.3914C5.03579 28.7639 3.58986 27.9491 2.79493 26.5873C2 25.2255 2 23.5648 2 20.2434V16.3994C2 13.0779 2 11.4172 2.79714 10.0554C3.58986 8.69366 5.03357 7.8788 7.92543 6.2513L11.8004 4.06802Z" stroke="#FFA05B" stroke-width="3" stroke-linecap="round" stroke-linejoin="round"/>
<path d="M10.8572 19.7983C10.8572 19.7983 12.5179 19.7983 14.1786 22.75C14.1786 22.75 19.4531 15.3698 24.1429 13.8928M28.3124 30.5L29.796 37.6078C30.7481 42.1737 31.2264 44.4566 30.2455 45.5394C29.2668 46.6222 27.5662 45.6922 24.1651 43.83L19.1298 41.0732C18.326 40.6348 17.9252 40.4133 17.5001 40.4133C17.0749 40.4133 16.6741 40.6348 15.8704 41.0732L10.8351 43.83C7.43393 45.69 5.73335 46.6222 4.75464 45.5394C3.77593 44.4566 4.252 42.1737 5.20414 37.6078L6.68771 30.5" stroke="#FFA05B" stroke-width="3" stroke-linecap="round" stroke-linejoin="round"/>
</svg>
