<svg width="74" height="47" viewBox="0 0 74 47" fill="none" xmlns="http://www.w3.org/2000/svg">
<path d="M73.7398 18.6815L69.3581 9.89261L71.2732 6.05141C71.7477 5.09836 71.5622 3.94842 70.8107 3.19588L68.344 0.722056C67.59 -0.0304797 66.4458 -0.211668 65.4967 0.258214L60.5634 2.73204C60.3273 2.85162 60.1105 3.00745 59.9227 3.19588L55.2712 7.85967L47.9699 11.5209L46.6065 8.78615C46.1874 7.94785 45.3346 7.41878 44.4 7.41878H39.4667C38.9801 7.41878 38.5031 7.56373 38.0984 7.83431L31.6066 12.1744L25.782 10.714L26.8732 8.52524C27.4826 7.30282 26.9888 5.81707 25.7699 5.20587L20.8366 2.73204C20.0007 2.31531 19.001 2.40469 18.2543 2.96638L8.56348 10.2538L3.83008 12.6273C2.99421 13.0465 2.46667 13.9029 2.46667 14.8403V19.7879C1.10326 19.7879 0 20.8956 0 22.2617V27.2094C0 27.6974 0.144531 28.1757 0.414323 28.5816L5.34766 36.0031C5.77643 36.6469 6.47982 37.054 7.25065 37.0999C8.02389 37.1506 8.76823 36.8293 9.27168 36.241L11.6854 33.4181C11.8178 33.2647 11.9286 33.0956 12.0202 32.9144L12.8657 31.2185C12.9235 31.2934 12.9885 31.3646 13.056 31.4323L15.5227 33.9061C16.2766 34.6611 17.4208 34.8447 18.3699 34.37L21.7134 32.6934L24.6667 35.6552V39.5785C24.6667 40.5159 25.1942 41.3723 26.0301 41.7914L30.9634 44.2653C31.3055 44.4368 31.6837 44.5262 32.0667 44.5262H44.4C44.783 44.5262 45.1612 44.4368 45.5033 44.2653L50.4366 41.7914C50.9135 41.5523 51.3014 41.1633 51.5398 40.685L52.4769 38.8067L56.7333 43.0767V44.5262C56.7333 45.8923 57.8366 47 59.2 47H61.6667C63.0301 47 64.1333 45.8923 64.1333 44.5262V42.4534L66.4723 35.4136C66.7686 34.5246 66.5374 33.5437 65.8773 32.8818L62.2014 29.1952L63.6757 26.2358L64.261 27.9921C64.4658 28.6142 64.9114 29.1288 65.4967 29.4223L70.4301 31.8961C71.1961 32.2766 72.1018 32.2392 72.8293 31.7874C73.5568 31.3369 74 30.5408 74 29.6832V19.7879C74 19.4038 73.9109 19.0245 73.7398 18.6815ZM69.0667 25.6802L68.6162 25.4555L66.4723 19.0052C66.1568 18.057 65.304 17.3914 64.3092 17.3201C63.283 17.2682 62.3725 17.7876 61.9268 18.6815L56.9935 28.5768C56.5189 29.5298 56.7044 30.6798 57.456 31.4323L61.3102 35.2989L59.9708 39.3285L53.544 32.8818C52.9852 32.3213 52.1975 32.0652 51.4049 32.1884C50.6221 32.3165 49.9476 32.8129 49.5935 33.5244L47.4954 37.7352L43.8171 39.5785H32.6496L29.6 38.0493V34.6309C29.6 33.975 29.3398 33.3456 28.8773 32.8818L23.944 27.9341C23.19 27.1804 22.0458 26.998 21.0967 27.4703L17.7533 29.1469L17.2667 28.6589V27.2094C17.2667 25.9737 16.3585 24.9276 15.1372 24.7585L12.6176 24.4094C11.5577 24.2693 10.546 24.808 10.0738 25.7538L7.74447 30.4285L7.6457 30.5421L4.93333 26.4605V24.7356C6.29674 24.7356 7.4 23.6279 7.4 22.2617V16.3695L10.9699 14.5793C11.1024 14.5129 11.2277 14.4344 11.3457 14.345L19.9935 7.84155L21.3569 8.52524L19.9935 11.26C19.6587 11.9316 19.6466 12.7179 19.9598 13.4004C20.2705 14.0817 20.8751 14.5842 21.6026 14.7666L31.4693 17.2404C32.1413 17.4059 32.8544 17.2839 33.4349 16.8986L40.2134 12.3664H42.8752L44.6602 15.9467C45.272 17.1703 46.751 17.6644 47.9699 17.0532L57.8366 12.1055C58.0727 11.9859 58.2895 11.8301 58.4773 11.6417L63.1288 6.97789L66.0171 5.52838L64.3935 8.78615C64.0466 9.48312 64.0466 10.3021 64.3935 10.9991L69.0667 20.3713V25.6802Z" fill="white"/>
</svg>
