<svg width="44" height="56" viewBox="0 0 44 56" fill="none" xmlns="http://www.w3.org/2000/svg">
<path d="M17.25 3H5.85C4.2768 3 3 4.29231 3 5.88462V50.1154C3 51.7077 4.2768 53 5.85 53H38.15C39.7232 53 41 51.7077 41 50.1154V27.0385M17.25 3H18.2C24.2469 3 30.0462 5.43131 34.322 9.75907C38.5979 14.0868 41 19.9565 41 26.0769V27.0385M17.25 3C19.5176 3 21.6923 3.91174 23.2958 5.53465C24.8992 7.15756 25.8 9.3587 25.8 11.6538V15.5C25.8 17.0923 27.0768 18.3846 28.65 18.3846H32.45C34.7176 18.3846 36.8923 19.2964 38.4958 20.9193C40.0992 22.5422 41 24.7433 41 27.0385M14.4 35.6923L20.1 41.4615L29.6 28" stroke="white" stroke-width="5" stroke-linecap="round" stroke-linejoin="round"/>
</svg>
