<svg width="49" height="49" viewBox="0 0 49 49" fill="none" xmlns="http://www.w3.org/2000/svg">
<path d="M46.9978 22.25C46.9798 28.1585 46.8043 31.349 45.1685 33.6822C44.4911 34.6497 43.6497 35.4911 42.6822 36.1685C40.07 38 36.38 38 29 38H20C12.62 38 8.93225 38 6.31775 36.1685C5.35034 35.4911 4.50891 34.6497 3.8315 33.6822C2 31.07 2 27.38 2 20C2 12.62 2 8.93225 3.8315 6.31775C4.50891 5.35034 5.35034 4.50891 6.31775 3.8315C8.93 2 12.62 2 20 2H23.375" stroke="#FFA05B" stroke-width="3" stroke-linecap="round" stroke-linejoin="round"/>
<path d="M29 11C29 11 31.25 11 33.5 15.5C33.5 15.5 40.6483 4.25 47 2M22.25 31.25H26.75M24.5 38V47M15.5 47H33.5" stroke="#FFA05B" stroke-width="3" stroke-linecap="round" stroke-linejoin="round"/>
</svg>
