<svg width="137" height="49" viewBox="0 0 137 49" fill="none" xmlns="http://www.w3.org/2000/svg">
<path d="M0.654743 3.12959L22.6326 15.9639L35.1802 8.62859V10.1687L22.6326 17.4843L0 4.28468L0.654743 3.12959ZM4.13367 0C12.5476 4.77831 20.5218 2.86304 22.6326 10.7907C24.2255 4.77831 29.1996 4.42289 35.1802 2.52737V7.63147L22.6326 14.947L2.35512 3.11972L4.13367 0ZM41.1315 0L42.9101 3.11972L41.1315 4.16621V5.15346L44.6104 3.11972L45.275 4.27481L41.1315 6.70345V20.3078L35.962 23.3189V2.27068C37.7526 1.68126 39.4836 0.920934 41.1315 0ZM17.2676 15.4308V22.8253L20.0527 24.4444V17.0499L22.6326 18.5604L25.2222 17.0499V32.5201L28.0073 30.8912V15.4308L33.2257 12.4098V27.88L41.1804 23.2399V35.7484C41.1901 36.451 41.014 37.1434 40.6705 37.7543C40.3269 38.3651 39.8282 38.8723 39.2259 39.2236L22.6326 48.8493L6.12722 39.2236C5.52489 38.8723 5.02623 38.3651 4.68267 37.7543C4.3391 37.1434 4.16308 36.451 4.17276 35.7484V7.77956L9.3423 10.7907V35.5411L22.6619 43.3108L35.962 35.5411V31.7994L22.6326 39.5691L12.0981 33.4284V27.88L20.0527 32.5201V29.9928L12.0981 25.3527V12.4098L17.2676 15.4308Z" fill="#B3B3B3"/>
<path d="M129.458 16.6207C129.624 16.6316 129.788 16.5765 129.916 16.4667C130.001 16.4011 130.074 16.321 130.133 16.2299L133.884 10.4396V16.1707C133.886 16.2899 133.931 16.404 134.01 16.4904C134.052 16.5341 134.102 16.5683 134.157 16.5908C134.212 16.6132 134.271 16.6234 134.33 16.6207H136.469C136.526 16.6249 136.584 16.6153 136.638 16.5928C136.691 16.5702 136.739 16.5352 136.778 16.4904C136.82 16.4497 136.855 16.4004 136.878 16.3454C136.902 16.2904 136.914 16.2309 136.915 16.1707V5.21774C136.909 5.09711 136.86 4.98297 136.778 4.89758C136.695 4.81219 136.585 4.76169 136.469 4.75593H134.765C134.603 4.74685 134.443 4.80187 134.319 4.90987C134.234 4.97518 134.16 5.05532 134.101 5.14669L130.35 10.9488V5.21774C130.352 5.15719 130.341 5.09699 130.317 5.04164C130.293 4.98628 130.258 4.93719 130.213 4.89803C130.174 4.85307 130.127 4.81716 130.073 4.79267C130.02 4.76818 129.963 4.75565 129.904 4.75593H127.754C127.696 4.75639 127.639 4.76924 127.586 4.79368C127.533 4.81813 127.485 4.85365 127.446 4.89803C127.405 4.93972 127.373 4.98955 127.351 5.04451C127.329 5.09947 127.319 5.1584 127.32 5.21774V16.1707C127.321 16.2899 127.366 16.404 127.446 16.4904C127.485 16.5332 127.533 16.5669 127.587 16.5894C127.64 16.6118 127.697 16.6224 127.754 16.6207H129.458ZM132.112 3.99811C131.677 4.00947 131.245 3.92888 130.842 3.76129C130.516 3.6291 130.219 3.4274 129.973 3.16923C129.76 2.93848 129.597 2.6642 129.493 2.36404C129.401 2.09355 129.351 1.80988 129.344 1.52333C129.346 1.43772 129.374 1.35499 129.424 1.28651C129.456 1.25497 129.494 1.23034 129.535 1.21408C129.576 1.19781 129.62 1.19023 129.664 1.19178H131.037C131.079 1.19115 131.121 1.1992 131.16 1.21546C131.199 1.23172 131.235 1.25586 131.265 1.28651C131.32 1.35217 131.348 1.43676 131.345 1.52333C131.347 1.73357 131.415 1.93743 131.54 2.10354C131.608 2.19147 131.695 2.26108 131.795 2.30644C131.894 2.3518 132.003 2.37156 132.112 2.36404C132.22 2.37259 132.329 2.35329 132.429 2.30786C132.529 2.26242 132.616 2.19225 132.683 2.10354C132.816 1.94137 132.889 1.73583 132.889 1.52333C132.886 1.43676 132.915 1.35217 132.969 1.28651C132.999 1.25471 133.034 1.2298 133.074 1.21346C133.113 1.19712 133.156 1.18973 133.198 1.19178H134.547C134.59 1.18973 134.632 1.19712 134.672 1.21346C134.711 1.2298 134.747 1.25471 134.776 1.28651C134.831 1.35217 134.859 1.43676 134.856 1.52333C134.855 1.81044 134.805 2.09505 134.708 2.36404C134.612 2.66854 134.448 2.94475 134.227 3.16923C133.987 3.42972 133.694 3.63191 133.37 3.76129C132.969 3.92455 132.542 4.00501 132.112 3.99811ZM125.055 4.75593C125.117 4.74664 125.179 4.75136 125.238 4.76978C125.298 4.78819 125.352 4.81984 125.399 4.8625C125.443 4.90167 125.479 4.95076 125.502 5.00612C125.526 5.06147 125.538 5.12167 125.536 5.18221V16.1352C125.535 16.1954 125.523 16.2548 125.499 16.3098C125.476 16.3648 125.441 16.4142 125.399 16.4549C125.359 16.4977 125.311 16.5314 125.257 16.5538C125.204 16.5763 125.147 16.5869 125.09 16.5851H122.94C122.824 16.5851 122.714 16.5377 122.632 16.4534C122.551 16.369 122.505 16.2545 122.505 16.1352V5.21774C122.501 5.15803 122.51 5.09815 122.532 5.04272C122.554 4.98728 122.588 4.93778 122.631 4.89803C122.67 4.85365 122.718 4.81813 122.771 4.79368C122.824 4.76924 122.882 4.75639 122.94 4.75593H125.055ZM118.777 12.9263C118.789 12.6718 118.707 12.4221 118.548 12.2276C118.429 12.1196 118.288 12.0385 118.137 11.9895C117.985 11.9406 117.825 11.9249 117.668 11.9434H115.575V13.9091H117.668C117.825 13.9276 117.985 13.9119 118.137 13.863C118.288 13.814 118.429 13.733 118.548 13.6249C118.706 13.4298 118.788 13.1805 118.777 12.9263ZM112.544 5.21774C112.538 5.15255 112.546 5.08681 112.568 5.02533C112.59 4.96386 112.625 4.90822 112.67 4.8625C112.711 4.81723 112.761 4.78123 112.816 4.75678C112.871 4.73233 112.93 4.71994 112.99 4.72041H115.106C115.222 4.72616 115.333 4.77666 115.415 4.86205C115.498 4.94744 115.546 5.06159 115.552 5.18221V9.19633H118.217C118.737 9.18692 119.253 9.28348 119.738 9.48051C120.173 9.65556 120.564 9.93091 120.881 10.2857C121.19 10.6268 121.427 11.0298 121.579 11.4698C121.732 11.9309 121.809 12.4151 121.808 12.9026C121.81 13.3901 121.732 13.8745 121.579 14.3353C121.426 14.7746 121.188 15.1774 120.881 15.5194C120.563 15.8706 120.172 16.1419 119.738 16.3128C119.253 16.5098 118.737 16.6064 118.217 16.597H112.99C112.931 16.5997 112.872 16.5895 112.817 16.5671C112.762 16.5446 112.712 16.5104 112.67 16.4667C112.591 16.3803 112.546 16.2662 112.544 16.147V5.21774ZM110.257 4.75593C110.373 4.76169 110.484 4.81219 110.566 4.89758C110.649 4.98297 110.697 5.09711 110.703 5.21774V16.1707C110.703 16.2309 110.69 16.2904 110.667 16.3454C110.643 16.4004 110.609 16.4497 110.566 16.4904C110.527 16.5352 110.48 16.5702 110.426 16.5928C110.372 16.6153 110.315 16.6249 110.257 16.6207H108.13C108.072 16.6224 108.015 16.6118 107.962 16.5894C107.909 16.5669 107.861 16.5332 107.821 16.4904C107.742 16.404 107.697 16.2899 107.695 16.1707V11.9671H104.059V16.1233C104.058 16.1835 104.046 16.243 104.022 16.298C103.998 16.353 103.964 16.4024 103.921 16.443C103.883 16.4878 103.835 16.5228 103.782 16.5454C103.728 16.568 103.67 16.5775 103.613 16.5733H101.474C101.417 16.5766 101.361 16.5678 101.308 16.5474C101.255 16.5271 101.206 16.4956 101.165 16.4549C101.121 16.4124 101.087 16.361 101.063 16.304C101.039 16.2469 101.028 16.1854 101.028 16.1233V5.21774C101.034 5.09711 101.082 4.98297 101.165 4.89758C101.247 4.81219 101.357 4.76169 101.474 4.75593H103.67C103.786 4.76169 103.896 4.81219 103.979 4.89758C104.061 4.98297 104.11 5.09711 104.116 5.21774V9.3029H107.752V5.21774C107.739 5.15688 107.738 5.0937 107.75 5.03243C107.761 4.97116 107.786 4.91322 107.821 4.8625C107.86 4.81813 107.908 4.78261 107.961 4.75816C108.014 4.73371 108.072 4.72086 108.13 4.72041L110.257 4.75593ZM96.808 12.9263C96.8168 12.6702 96.7309 12.4204 96.5679 12.2276C96.4482 12.1196 96.3081 12.0385 96.1565 11.9895C96.0049 11.9406 95.8451 11.9249 95.6873 11.9434H93.6402V13.9091H95.733C95.8908 13.9276 96.0506 13.9119 96.2022 13.863C96.3538 13.814 96.4939 13.733 96.6136 13.6249C96.7583 13.4242 96.8274 13.1759 96.808 12.9263ZM96.2591 9.23185C96.7828 9.22363 97.3031 9.32012 97.7915 9.51604C98.2236 9.69729 98.6135 9.97178 98.9352 10.3212C99.2365 10.6657 99.4696 11.068 99.6213 11.5053C99.7833 11.9643 99.8646 12.4495 99.8615 12.9381C99.8688 13.4134 99.7953 13.8864 99.6442 14.3353C99.4906 14.7718 99.2577 15.1738 98.958 15.5194C98.6357 15.8652 98.2458 16.1357 97.8144 16.3128C97.326 16.5087 96.8057 16.6052 96.282 16.597H91.0899C91.0323 16.6012 90.9744 16.5917 90.9209 16.5691C90.8674 16.5465 90.8195 16.5115 90.7812 16.4667C90.7383 16.4261 90.704 16.3767 90.6804 16.3217C90.6568 16.2667 90.6443 16.2072 90.6439 16.147V5.21774C90.6495 5.09711 90.6982 4.98297 90.7807 4.89758C90.8632 4.81219 90.9734 4.76169 91.0899 4.75593H98.5692C98.6857 4.76169 98.7959 4.81219 98.8784 4.89758C98.9609 4.98297 99.0097 5.09711 99.0152 5.21774V7.01757C99.0148 7.07777 99.0024 7.13722 98.9787 7.19223C98.9551 7.24723 98.9208 7.29661 98.878 7.33728C98.8377 7.37951 98.7896 7.41283 98.7365 7.43523C98.6834 7.45761 98.6265 7.46861 98.5692 7.46753H93.6402V9.23185H96.2591ZM88.7112 13.9683C88.7694 13.968 88.8271 13.9805 88.8803 14.005C88.9335 14.0295 88.9811 14.0654 89.02 14.1104C89.0646 14.1495 89.1001 14.1986 89.1239 14.254C89.1476 14.3093 89.159 14.3695 89.1572 14.4301V16.2299C89.1568 16.2901 89.1444 16.3496 89.1208 16.4046C89.0971 16.4596 89.0628 16.5089 89.02 16.5496C88.9806 16.593 88.9326 16.6271 88.8793 16.6496C88.826 16.6721 88.7687 16.6824 88.7112 16.6799H80.9918C80.8765 16.6799 80.766 16.6325 80.6845 16.5481C80.603 16.4637 80.5572 16.3492 80.5572 16.2299V5.21774C80.5474 5.15234 80.5538 5.08544 80.5758 5.0233C80.5978 4.96117 80.6347 4.90584 80.683 4.8625C80.7223 4.81813 80.77 4.78261 80.8231 4.75816C80.8762 4.73371 80.9336 4.72086 80.9918 4.72041H88.6311C88.6893 4.72086 88.7467 4.73371 88.7998 4.75816C88.8529 4.78261 88.9006 4.81813 88.9399 4.8625C88.9807 4.90419 89.0129 4.95403 89.0345 5.00899C89.0561 5.06394 89.0668 5.12288 89.0657 5.18221V6.98205C89.0657 7.10139 89.0199 7.21584 88.9384 7.30022C88.8569 7.3846 88.7464 7.43201 88.6311 7.43201H83.5878V9.26737H88.2652C88.3225 9.2663 88.3794 9.27729 88.4325 9.29968C88.4856 9.32207 88.5337 9.35539 88.574 9.39762C88.6168 9.4383 88.6511 9.48767 88.6747 9.54268C88.6984 9.59769 88.7108 9.65714 88.7112 9.71733V11.5172C88.7056 11.6378 88.6569 11.7519 88.5744 11.8373C88.4919 11.9227 88.3817 11.9732 88.2652 11.979H83.5878V13.8735L88.7112 13.9683ZM72.0372 8.04774C71.9869 8.57013 72.1345 9.09233 72.4489 9.50419C72.8421 9.83014 73.3431 9.98321 73.8441 9.93047H75.6625V5.19405C75.6618 5.12831 75.6772 5.06346 75.7072 5.0055C75.7372 4.94755 75.7808 4.89836 75.834 4.8625C75.8733 4.81813 75.921 4.78261 75.9741 4.75816C76.0273 4.73371 76.0847 4.72086 76.1428 4.72041H78.2928C78.351 4.72086 78.4084 4.73371 78.4615 4.75816C78.5146 4.78261 78.5623 4.81813 78.6016 4.8625C78.6448 4.90226 78.6786 4.95176 78.7004 5.00719C78.7223 5.06263 78.7315 5.12251 78.7274 5.18221V16.1352C78.7274 16.2545 78.6816 16.369 78.6001 16.4534C78.5186 16.5377 78.4081 16.5851 78.2928 16.5851H76.1428C76.0276 16.5851 75.917 16.5377 75.8355 16.4534C75.754 16.369 75.7082 16.2545 75.7082 16.1352V12.5829H73.421C72.8341 12.621 72.2458 12.5358 71.6915 12.3323C71.1373 12.1288 70.6286 11.8113 70.196 11.3988C69.7976 10.9509 69.4909 10.4241 69.2944 9.85027C69.0978 9.2764 69.0155 8.66727 69.0524 8.05959V5.21774C69.0579 5.09711 69.1067 4.98297 69.1892 4.89758C69.2717 4.81219 69.3819 4.76169 69.4984 4.75593H71.6484C71.7083 4.75547 71.7677 4.76785 71.8229 4.7923C71.878 4.81676 71.9276 4.85275 71.9686 4.89803C72.0094 4.93972 72.0416 4.98955 72.0632 5.04451C72.0848 5.09947 72.0954 5.1584 72.0944 5.21774L72.0372 8.04774ZM64.8553 13.1512C64.6136 13.6306 64.3424 14.0933 64.0433 14.5366C63.7734 14.9368 63.4586 15.3025 63.1056 15.626C62.769 15.9325 62.3815 16.1732 61.9619 16.3365C61.5078 16.5081 61.0272 16.5924 60.5439 16.5851H59.4002C59.285 16.5851 59.1744 16.5377 59.0929 16.4534C59.0114 16.369 58.9657 16.2545 58.9657 16.1352V14.3353C58.9616 14.2756 58.9708 14.2158 58.9926 14.1603C59.0144 14.1049 59.0482 14.0554 59.0915 14.0156C59.1307 13.9713 59.1784 13.9357 59.2316 13.9113C59.2847 13.8868 59.3421 13.874 59.4002 13.8735H60.5439C60.8199 13.8645 61.082 13.7458 61.2758 13.542C61.598 13.1933 61.8644 12.7935 62.0649 12.3579L58.3481 5.25326C58.3067 5.19011 58.283 5.11635 58.2795 5.04012C58.2779 4.98991 58.2863 4.93991 58.3041 4.89319C58.3219 4.84647 58.3488 4.80404 58.3831 4.76852C58.4174 4.733 58.4584 4.70515 58.5035 4.68669C58.5487 4.66823 58.597 4.65956 58.6454 4.66121H60.9327C61.1112 4.64794 61.2877 4.70743 61.4244 4.82698C61.5044 4.90051 61.5703 4.98886 61.6189 5.08748L63.6431 9.35026L65.7244 5.18221C65.7807 5.08567 65.8501 4.99795 65.9303 4.92171C66.0682 4.80432 66.2438 4.74512 66.4221 4.75593H68.7093C68.7578 4.75429 68.8061 4.76296 68.8512 4.78142C68.8963 4.79988 68.9373 4.82773 68.9716 4.86325C69.0059 4.89877 69.0328 4.9412 69.0506 4.98792C69.0685 5.03463 69.0768 5.08464 69.0753 5.13485C69.0718 5.21108 69.048 5.28484 69.0066 5.34799L64.8553 13.1512Z" fill="#B3B3B3"/>
<path d="M105.189 25.2318H107.17C109.421 25.2318 109.219 21.5826 107.17 21.5826H105.189V25.2318ZM107.249 19.0744C107.843 19.0314 108.439 19.1116 109.001 19.3102C109.562 19.5087 110.077 19.8212 110.513 20.2283C110.949 20.6354 111.296 21.1282 111.534 21.6761C111.772 22.224 111.894 22.8152 111.894 23.4128C111.894 24.0104 111.772 24.6016 111.534 25.1495C111.296 25.6974 110.949 26.1903 110.513 26.5973C110.077 27.0044 109.562 27.3169 109.001 27.5155C108.439 27.714 107.843 27.7942 107.249 27.7512H105.189V29.9543C105.191 30.0125 105.181 30.0705 105.159 30.1247C105.138 30.1789 105.105 30.2281 105.064 30.2693C105.023 30.3105 104.974 30.3429 104.92 30.3645C104.866 30.3861 104.808 30.3964 104.75 30.3949H102.646C102.589 30.3959 102.533 30.3854 102.481 30.3641C102.429 30.3427 102.381 30.3109 102.342 30.2706C102.299 30.2301 102.264 30.1811 102.241 30.1266C102.218 30.0722 102.206 30.0135 102.207 29.9543V19.5038C102.207 19.4463 102.219 19.3896 102.243 19.3371C102.266 19.2846 102.3 19.2375 102.342 19.1987C102.381 19.1584 102.429 19.1266 102.481 19.1053C102.533 19.0839 102.589 19.0734 102.646 19.0744H107.249ZM100.789 19.0744C100.902 19.076 101.01 19.1204 101.092 19.1987C101.133 19.2381 101.165 19.2856 101.186 19.3381C101.208 19.3906 101.218 19.4471 101.216 19.5038V21.221C101.22 21.278 101.211 21.3351 101.19 21.388C101.168 21.4409 101.135 21.4881 101.092 21.5261C101.054 21.5684 101.007 21.6023 100.955 21.6256C100.902 21.649 100.846 21.6612 100.789 21.6616H97.9522V29.9543C97.9526 30.0135 97.9409 30.0722 97.9176 30.1266C97.8944 30.1811 97.8602 30.2301 97.8171 30.2706C97.7775 30.3109 97.7301 30.3427 97.6779 30.3641C97.6257 30.3854 97.5696 30.3959 97.5132 30.3949H95.3973C95.3392 30.3964 95.2814 30.3861 95.2275 30.3645C95.1735 30.3429 95.1245 30.3105 95.0834 30.2693C95.0424 30.2281 95.0101 30.1789 94.9886 30.1247C94.9671 30.0705 94.9568 30.0125 94.9583 29.9543V21.6616H92.1333C92.0186 21.6562 91.9101 21.608 91.8289 21.5265C91.7478 21.445 91.6998 21.3361 91.6943 21.221V19.5038C91.6947 19.4463 91.707 19.3896 91.7302 19.3371C91.7534 19.2846 91.7872 19.2375 91.8294 19.1987C91.869 19.1584 91.9164 19.1266 91.9686 19.1053C92.0209 19.0839 92.0769 19.0734 92.1333 19.0744H100.789ZM90.2762 19.0744C90.3894 19.076 90.4979 19.1204 90.58 19.1987C90.6222 19.2375 90.656 19.2846 90.6792 19.3371C90.7025 19.3896 90.7147 19.4463 90.7151 19.5038V29.9543C90.7155 30.0135 90.7038 30.0722 90.6805 30.1266C90.6573 30.1811 90.6231 30.2301 90.58 30.2706C90.4979 30.3489 90.3894 30.3933 90.2762 30.3949H88.1602C88.0469 30.3933 87.9384 30.3489 87.8563 30.2706C87.8147 30.2295 87.7822 30.1801 87.7609 30.1256C87.7396 30.0711 87.7299 30.0128 87.7325 29.9543V26.0226H84.1421V29.9769C84.1425 30.0361 84.1308 30.0948 84.1075 30.1492C84.0843 30.2037 84.05 30.2527 84.007 30.2932C83.9674 30.3335 83.92 30.3653 83.8678 30.3866C83.8155 30.408 83.7595 30.4185 83.7031 30.4175H81.6097C81.4927 30.4176 81.3801 30.3732 81.2945 30.2932C81.2535 30.2517 81.2214 30.2022 81.2001 30.1479C81.1788 30.0935 81.1688 30.0353 81.1707 29.9769V19.5038C81.1723 19.3901 81.2165 19.2811 81.2945 19.1987C81.3801 19.1187 81.4927 19.0743 81.6097 19.0744H83.7144C83.7708 19.0734 83.8268 19.0839 83.879 19.1053C83.9313 19.1266 83.9786 19.1584 84.0183 19.1987C84.0605 19.2375 84.0942 19.2846 84.1175 19.3371C84.1407 19.3896 84.1529 19.4463 84.1533 19.5038V23.4015H87.7325V19.5038C87.7408 19.4049 87.7848 19.3125 87.8563 19.2439C87.9384 19.1656 88.0469 19.1212 88.1602 19.1196L90.2762 19.0744ZM79.3474 27.8077C79.4606 27.8092 79.5692 27.8536 79.6513 27.932C79.6928 27.973 79.7253 28.0224 79.7466 28.0769C79.768 28.1314 79.7777 28.1898 79.7751 28.2483V29.9543C79.7777 30.0128 79.768 30.0711 79.7466 30.1256C79.7253 30.1801 79.6928 30.2295 79.6513 30.2706C79.5692 30.3489 79.4606 30.3933 79.3474 30.3949H71.7614C71.6481 30.3933 71.5396 30.3489 71.4575 30.2706C71.4145 30.2301 71.3802 30.1811 71.357 30.1266C71.3337 30.0722 71.322 30.0135 71.3224 29.9543V19.5038C71.3229 19.4463 71.3351 19.3896 71.3583 19.3371C71.3815 19.2846 71.4153 19.2375 71.4575 19.1987C71.5396 19.1204 71.6481 19.076 71.7614 19.0744H79.2686C79.3855 19.0743 79.4982 19.1187 79.5837 19.1987C79.6618 19.2811 79.706 19.3901 79.7075 19.5038V21.221C79.7086 21.2776 79.6981 21.3339 79.6768 21.3863C79.6555 21.4387 79.6239 21.4863 79.5837 21.5261C79.5434 21.5693 79.4945 21.6036 79.4403 21.6269C79.386 21.6503 79.3276 21.6621 79.2686 21.6616H74.2488V23.4015H78.8634C78.9206 23.4019 78.9771 23.4142 79.0294 23.4375C79.0817 23.4609 79.1286 23.4947 79.1673 23.5371C79.208 23.5765 79.24 23.6239 79.2613 23.6765C79.2827 23.729 79.2928 23.7854 79.2911 23.8421V25.5594C79.2928 25.6161 79.2827 25.6725 79.2613 25.7251C79.24 25.7776 79.208 25.8251 79.1673 25.8644C79.1286 25.9068 79.0817 25.9407 79.0294 25.964C78.9771 25.9873 78.9206 25.9996 78.8634 26H74.2488V27.8077H79.3474ZM68.6887 27.8077H69.6679C69.726 27.8061 69.7837 27.8165 69.8377 27.838C69.8917 27.8596 69.9407 27.892 69.9817 27.9333C70.0228 27.9745 70.0551 28.0237 70.0766 28.0778C70.0981 28.132 70.1084 28.19 70.1069 28.2483V31.7393C70.1053 31.853 70.0611 31.9619 69.9831 32.0444C69.9421 32.0861 69.8929 32.1187 69.8386 32.1401C69.7843 32.1615 69.7262 32.1712 69.6679 32.1686H67.8783C67.8218 32.1703 67.7656 32.1602 67.7133 32.1388C67.661 32.1174 67.6137 32.0852 67.5744 32.0444C67.4964 31.9619 67.4522 31.853 67.4506 31.7393V30.3949H59.9097C59.8533 30.3959 59.7972 30.3854 59.745 30.3641C59.6928 30.3427 59.6454 30.3109 59.6058 30.2706C59.5627 30.2301 59.5285 30.1811 59.5053 30.1266C59.482 30.0722 59.4703 30.0135 59.4707 29.9543V19.5038C59.483 19.4036 59.531 19.3113 59.6058 19.2439C59.6454 19.2036 59.6928 19.1718 59.745 19.1505C59.7972 19.1291 59.8533 19.1186 59.9097 19.1196H62.0144C62.0708 19.1186 62.1268 19.1291 62.179 19.1505C62.2313 19.1718 62.2786 19.2036 62.3183 19.2439C62.3605 19.2827 62.3942 19.3298 62.4175 19.3823C62.4407 19.4348 62.4529 19.4915 62.4533 19.5489V27.8529H65.7061V19.5038C65.7065 19.4463 65.7187 19.3896 65.742 19.3371C65.7652 19.2846 65.799 19.2375 65.8412 19.1987C65.8808 19.1584 65.9281 19.1266 65.9804 19.1053C66.0326 19.0839 66.0886 19.0734 66.145 19.0744H68.2498C68.3667 19.0743 68.4793 19.1187 68.5649 19.1987C68.6429 19.2811 68.6871 19.3901 68.6887 19.5038V27.8077Z" fill="#B3B3B3"/>
<path d="M106.033 35.3284H106.942V37.4772H109.794V35.3284H110.703V40.3838H109.794V38.2689H106.942V40.3838H106.033V35.3284ZM99.6236 34.6724C99.2204 34.7048 98.8199 34.5837 98.501 34.3331C98.3685 34.2101 98.2646 34.0592 98.1967 33.8911C98.1288 33.7229 98.0985 33.5418 98.1082 33.3605H98.7255C98.7214 33.4664 98.7403 33.5719 98.781 33.6696C98.8218 33.7673 98.8833 33.8549 98.9613 33.926C99.1313 34.0762 99.3529 34.1534 99.5787 34.1409C99.8079 34.1539 100.033 34.0769 100.207 33.926C100.284 33.8536 100.346 33.7661 100.389 33.6689C100.431 33.5717 100.453 33.4667 100.454 33.3605H101.083C101.094 33.5429 101.063 33.7254 100.993 33.894C100.923 34.0626 100.815 34.2128 100.679 34.3331C100.377 34.5662 100.004 34.6861 99.6236 34.6724ZM97.2775 35.3284H98.1867V39.004L101.262 35.3284H102.082V40.3838H101.173V36.6968L98.1082 40.3838H97.2775V35.3284ZM91.0699 39.7278C91.384 39.7349 91.6942 39.6568 91.9679 39.5016C92.2199 39.3471 92.4135 39.1123 92.518 38.8344V38.1332H91.0924C90.344 38.1332 89.9699 38.3933 89.9699 38.9135C89.9642 39.0302 89.988 39.1463 90.039 39.2512C90.0901 39.356 90.1667 39.4461 90.2617 39.5129C90.4941 39.6673 90.7695 39.7427 91.0475 39.7278H91.0699ZM91.2832 35.2831C91.8598 35.2397 92.4307 35.422 92.8772 35.7921C93.0688 35.9966 93.2166 36.2388 93.3112 36.5034C93.4059 36.768 93.4454 37.0495 93.4272 37.3302V40.3838H92.5629V39.7165C92.4066 39.9537 92.1839 40.1387 91.923 40.2481C91.6068 40.381 91.2666 40.4464 90.924 40.4403C90.4398 40.4673 89.962 40.3188 89.577 40.0219C89.4214 39.8913 89.2963 39.7279 89.2104 39.5432C89.1246 39.3585 89.0801 39.1571 89.0801 38.9531C89.0801 38.7491 89.1246 38.5477 89.2104 38.363C89.2963 38.1783 89.4214 38.0149 89.577 37.8843C90.0239 37.575 90.5633 37.4311 91.1036 37.4772H92.5404V37.2962C92.5541 37.1297 92.531 36.9622 92.4728 36.8058C92.4146 36.6494 92.3227 36.5079 92.2037 36.3915C91.9203 36.1582 91.5581 36.0447 91.1934 36.0748C90.899 36.0731 90.6066 36.1229 90.3291 36.2218C90.0675 36.3083 89.824 36.4425 89.6106 36.6177L89.229 35.9278C89.5086 35.7141 89.8242 35.5532 90.1607 35.4528C90.5172 35.3424 90.8878 35.2852 91.2608 35.2831H91.2832ZM85.5134 35.2831V40.3385H84.6154V36.1314H82.4265L82.3704 37.2623C82.3561 37.8355 82.296 38.4066 82.1908 38.9701C82.1422 39.3765 81.9958 39.7647 81.7642 40.101C81.6681 40.2336 81.5409 40.3401 81.394 40.4112C81.2471 40.4822 81.0851 40.5155 80.9223 40.5082C80.7326 40.5067 80.5439 40.48 80.361 40.429V39.66H80.5855C80.702 39.6653 80.8175 39.6373 80.9188 39.5793C81.0201 39.5213 81.1031 39.4355 81.158 39.332C81.2867 39.0851 81.3704 38.817 81.405 38.5403C81.405 38.2349 81.4723 37.7939 81.506 37.2284L81.6632 35.3284L85.5134 35.2831ZM72.5595 35.2831H73.4687V37.432H76.32V35.2831H77.1731V40.3385H76.2638V38.2689H73.4463V40.3838H72.537L72.5595 35.2831ZM66.4305 39.5921C66.7333 39.5937 67.0312 39.5158 67.2949 39.3659C67.5497 39.217 67.7563 38.9971 67.8898 38.7326C68.0427 38.4481 68.12 38.1286 68.1143 37.8052C68.1185 37.4819 68.0413 37.1628 67.8898 36.8778C67.7556 36.6167 67.5489 36.4006 67.2949 36.2558C67.0303 36.1093 66.7323 36.0352 66.4305 36.0409C66.1284 36.0325 65.8297 36.1068 65.5662 36.2558C65.3088 36.3999 65.0983 36.6159 64.96 36.8778C64.8085 37.1628 64.7313 37.4819 64.7355 37.8052C64.7298 38.1286 64.8071 38.4481 64.96 38.7326C65.0981 38.9975 65.3084 39.2172 65.5662 39.3659C65.8178 39.5303 66.1084 39.624 66.4081 39.6373L66.4305 39.5921ZM66.4305 40.3951C65.9598 40.4025 65.4954 40.2855 65.0835 40.0558C64.6982 39.8386 64.3767 39.5225 64.1518 39.1397C63.9241 38.7328 63.8079 38.2722 63.815 37.8052C63.8077 37.3417 63.924 36.8847 64.1518 36.482C64.3704 36.0942 64.6934 35.7766 65.0835 35.5659C65.4984 35.3453 65.9614 35.2325 66.4305 35.2379C66.896 35.2325 67.3554 35.3453 67.7663 35.5659C68.1564 35.7766 68.4794 36.0942 68.698 36.482C68.9224 36.8856 69.0348 37.3427 69.0235 37.8052C69.0346 38.2713 68.9223 38.7319 68.698 39.1397C68.4731 39.5225 68.1516 39.8386 67.7663 40.0558C67.3564 40.3053 66.887 40.4382 66.4081 40.4403L66.4305 40.3951ZM60.1219 40.3951C59.9492 40.3951 59.7836 40.326 59.6616 40.203C59.5395 40.0799 59.4709 39.9131 59.4709 39.7391C59.4689 39.6527 59.4849 39.5669 59.5178 39.487C59.5506 39.4072 59.5997 39.3351 59.6617 39.2754C59.7217 39.214 59.7934 39.1653 59.8725 39.1323C59.9515 39.0993 60.0363 39.0826 60.1219 39.0832C60.2031 39.0828 60.2836 39.0987 60.3587 39.1297C60.4338 39.1608 60.5021 39.2064 60.5597 39.2641C60.62 39.3269 60.6671 39.4014 60.6979 39.483C60.7288 39.5647 60.7429 39.6518 60.7393 39.7391C60.742 39.8246 60.7275 39.9098 60.6966 39.9895C60.6657 40.0692 60.6192 40.1418 60.5597 40.2028C60.5051 40.2742 60.4356 40.3324 60.356 40.3735C60.2764 40.4146 60.1888 40.4374 60.0995 40.4403L60.1219 40.3951Z" fill="#B3B3B3"/>
</svg>
