<svg width="36" height="36" viewBox="0 0 36 36" fill="none" xmlns="http://www.w3.org/2000/svg">
<path fill-rule="evenodd" clip-rule="evenodd" d="M24.7713 27.3168C22.1661 29.3729 18.8764 30.6 15.3 30.6C6.85004 30.6 0 23.75 0 15.3C0 6.85004 6.85004 0 15.3 0C23.75 0 30.6 6.85004 30.6 15.3C30.6 18.8764 29.3729 22.1661 27.3168 24.7713L35.4728 32.9272C36.1757 33.6302 36.1757 34.7698 35.4728 35.4728C34.7698 36.1757 33.6302 36.1757 32.9272 35.4728L24.7713 27.3168ZM27 15.3C27 21.7617 21.7617 27 15.3 27C8.83827 27 3.6 21.7617 3.6 15.3C3.6 8.83827 8.83827 3.6 15.3 3.6C21.7617 3.6 27 8.83827 27 15.3Z" fill="#003250"/>
</svg>
