<svg width="95" height="20" viewBox="0 0 95 20" fill="none" xmlns="http://www.w3.org/2000/svg">
<rect y="16.9044" width="23" height="3" rx="1.5" transform="rotate(-45 0 16.9044)" fill="white"/>
<rect x="2.12134" y="0.640991" width="23" height="3" rx="1.5" transform="rotate(45 2.12134 0.640991)" fill="white"/>
<path d="M36.1165 14.096C35.4765 14.096 34.8845 13.992 34.3405 13.784C33.8045 13.568 33.3365 13.268 32.9365 12.884C32.5445 12.492 32.2365 12.036 32.0125 11.516C31.7885 10.996 31.6765 10.424 31.6765 9.8C31.6765 9.176 31.7885 8.604 32.0125 8.084C32.2365 7.564 32.5485 7.112 32.9485 6.728C33.3485 6.336 33.8165 6.036 34.3525 5.828C34.8965 5.612 35.4885 5.504 36.1285 5.504C36.7765 5.504 37.3725 5.616 37.9165 5.84C38.4685 6.056 38.9365 6.38 39.3205 6.812L38.5405 7.568C38.2205 7.232 37.8605 6.984 37.4605 6.824C37.0605 6.656 36.6325 6.572 36.1765 6.572C35.7045 6.572 35.2645 6.652 34.8565 6.812C34.4565 6.972 34.1085 7.196 33.8125 7.484C33.5165 7.772 33.2845 8.116 33.1165 8.516C32.9565 8.908 32.8765 9.336 32.8765 9.8C32.8765 10.264 32.9565 10.696 33.1165 11.096C33.2845 11.488 33.5165 11.828 33.8125 12.116C34.1085 12.404 34.4565 12.628 34.8565 12.788C35.2645 12.948 35.7045 13.028 36.1765 13.028C36.6325 13.028 37.0605 12.948 37.4605 12.788C37.8605 12.62 38.2205 12.364 38.5405 12.02L39.3205 12.776C38.9365 13.208 38.4685 13.536 37.9165 13.76C37.3725 13.984 36.7725 14.096 36.1165 14.096ZM40.3738 14V5.6H43.9858C44.8978 5.6 45.6138 5.784 46.1338 6.152C46.6538 6.52 46.9138 7.056 46.9138 7.76C46.9138 8.448 46.6658 8.976 46.1698 9.344C45.6738 9.704 45.0218 9.884 44.2138 9.884L44.4298 9.524C45.3658 9.524 46.0818 9.712 46.5778 10.088C47.0818 10.456 47.3338 10.996 47.3338 11.708C47.3338 12.428 47.0698 12.992 46.5418 13.4C46.0218 13.8 45.2458 14 44.2138 14H40.3738ZM41.5618 13.052H44.1898C44.8298 13.052 45.3098 12.936 45.6298 12.704C45.9578 12.464 46.1218 12.1 46.1218 11.612C46.1218 11.124 45.9578 10.768 45.6298 10.544C45.3098 10.32 44.8298 10.208 44.1898 10.208H41.5618V13.052ZM41.5618 9.296H43.9018C44.4858 9.296 44.9298 9.18 45.2338 8.948C45.5458 8.716 45.7018 8.376 45.7018 7.928C45.7018 7.472 45.5458 7.128 45.2338 6.896C44.9298 6.664 44.4858 6.548 43.9018 6.548H41.5618V9.296ZM49.8307 9.224H54.1507V10.244H49.8307V9.224ZM49.9387 12.956H54.8347V14H48.7387V5.6H54.6667V6.644H49.9387V12.956ZM56.1191 14V5.6H59.3951C60.1311 5.6 60.7591 5.716 61.2791 5.948C61.7991 6.18 62.1991 6.516 62.4791 6.956C62.7591 7.396 62.8991 7.92 62.8991 8.528C62.8991 9.136 62.7591 9.66 62.4791 10.1C62.1991 10.532 61.7991 10.868 61.2791 11.108C60.7591 11.34 60.1311 11.456 59.3951 11.456H56.7791L57.3191 10.892V14H56.1191ZM57.3191 11.012L56.7791 10.412H59.3591C60.1271 10.412 60.7071 10.248 61.0991 9.92C61.4991 9.592 61.6991 9.128 61.6991 8.528C61.6991 7.928 61.4991 7.464 61.0991 7.136C60.7071 6.808 60.1271 6.644 59.3591 6.644H56.7791L57.3191 6.044V11.012ZM69.9924 5.6H71.1924V14H69.9924V5.6ZM65.1684 14H63.9684V5.6H65.1684V14ZM70.1004 10.256H65.0484V9.212H70.1004V10.256ZM73.1881 12.944C73.6041 13.096 73.9881 13.136 74.3401 13.064C74.6921 12.984 75.0081 12.716 75.2881 12.26L75.6961 11.612L75.8161 11.48L78.9001 5.6H80.0881L76.3561 12.512C76.0761 13.04 75.7481 13.44 75.3721 13.712C75.0041 13.976 74.6041 14.12 74.1721 14.144C73.7481 14.176 73.3161 14.096 72.8761 13.904L73.1881 12.944ZM75.7801 12.548L72.0961 5.6H73.3801L76.4401 11.588L75.7801 12.548ZM82.5312 14V6.332L82.8312 6.644H79.6632V5.6H86.5872V6.644H83.4192L83.7072 6.332V14H82.5312ZM91.1297 8.528C92.1217 8.528 92.8857 8.752 93.4217 9.2C93.9577 9.64 94.2257 10.3 94.2257 11.18C94.2257 12.108 93.9337 12.812 93.3497 13.292C92.7737 13.764 91.9617 14 90.9137 14H87.4457V5.6H88.6337V8.528H91.1297ZM90.8657 13.052C91.5617 13.052 92.0937 12.896 92.4617 12.584C92.8377 12.272 93.0257 11.812 93.0257 11.204C93.0257 10.612 92.8417 10.176 92.4737 9.896C92.1057 9.616 91.5697 9.476 90.8657 9.476H88.6337V13.052H90.8657Z" fill="white"/>
</svg>
