<svg width="63" height="66" viewBox="0 0 63 66" fill="none" xmlns="http://www.w3.org/2000/svg">
<path d="M42.8692 10.9214L49.9015 3.89694C50.4766 3.32263 51.2565 3 52.0698 3C52.883 3 53.6629 3.32263 54.238 3.89694L59.1021 8.75556C59.677 9.33004 60 10.1091 60 10.9214C60 11.7337 59.677 12.5128 59.1021 13.0873L52.0698 20.1118M42.8692 10.9214L25.3666 28.4045C24.7914 28.9789 24.4682 29.758 24.468 30.5704V35.429C24.468 36.2415 24.7911 37.0207 25.3663 37.5952C25.9414 38.1697 26.7215 38.4924 27.5349 38.4924H32.3989C33.2122 38.4923 33.9922 38.1694 34.5672 37.5948L52.0698 20.1118M42.8692 10.9214L52.0698 20.1118M12.2006 38.4924H9.13372C7.50696 38.4924 5.94682 39.1379 4.79652 40.287C3.64623 41.436 3 42.9944 3 44.6193C3 46.2443 3.64623 47.8027 4.79652 48.9517C5.94682 50.1007 7.50696 50.7462 9.13372 50.7462H52.0698C53.6965 50.7462 55.2567 51.3917 56.4069 52.5407C57.5572 53.6898 58.2035 55.2482 58.2035 56.8731C58.2035 58.4981 57.5572 60.0565 56.4069 61.2055C55.2567 62.3545 53.6965 63 52.0698 63H39.8023" stroke="#003250" stroke-width="5" stroke-linecap="round" stroke-linejoin="round"/>
</svg>
