<svg width="91" height="60" viewBox="0 0 91 60" fill="none" xmlns="http://www.w3.org/2000/svg">
<path d="M18.4286 18.4287L35.7857 30.0001L53.1429 18.4287" stroke="#003250" stroke-width="5" stroke-linecap="round" stroke-linejoin="round"/>
<path d="M64.7143 57H10.7143C8.66833 57 6.70617 56.1872 5.25946 54.7405C3.81275 53.2938 3 51.3317 3 49.2857V10.7143C3 8.66833 3.81275 6.70617 5.25946 5.25946C6.70617 3.81275 8.66833 3 10.7143 3H60.8571C62.9031 3 64.8653 3.81275 66.312 5.25946C67.7587 6.70617 68.5714 8.66833 68.5714 10.7143V18.4286" stroke="#003250" stroke-width="5" stroke-linecap="round"/>
<path d="M87.8572 37.7145H64.7143M64.7143 37.7145L76.2857 26.1431M64.7143 37.7145L76.2857 49.2859" stroke="#003250" stroke-width="5" stroke-linecap="round" stroke-linejoin="round"/>
</svg>
