<svg width="64" height="64" viewBox="0 0 64 64" fill="none" xmlns="http://www.w3.org/2000/svg">
<path d="M4.3311 23.3C8.0344 11.5347 19.0544 3 32.0725 3C47.1467 3 59.5413 14.4463 61 29.1L55.2 27.9197M59.6689 40.7C57.8017 46.5922 54.106 51.7364 49.1178 55.3865C44.1297 59.0366 38.1085 61.0028 31.9275 61C16.8533 61 4.4587 49.5537 3 34.9L8.8 36.0803" stroke="#003250" stroke-width="5" stroke-linecap="round" stroke-linejoin="round"/>
<path d="M23.3058 36.4316V42.2084C23.2992 42.6739 23.4106 43.1335 23.6297 43.5442C23.8488 43.955 24.1684 44.3036 24.5586 44.5574C27.0062 46.0886 28.8651 46.5381 32.0145 46.6338C34.9174 46.7121 36.7386 46.2568 39.4472 44.5632C39.8441 44.3075 40.1694 43.9551 40.3926 43.5391C40.6159 43.1231 40.7296 42.6572 40.7232 42.1852V36.4316M46.5319 29.1439V37.8874M17.645 28.648C18.6948 26.4324 25.1995 22.5754 31.1358 20.6701C31.708 20.4883 32.3244 20.5026 32.8874 20.7107C38.1364 22.6305 43.977 25.5392 46.0969 27.8969C47.2018 29.1294 46.1201 30.7012 44.7832 31.6727C42.0659 33.6476 39.0702 35.1817 33.015 37.5104C32.3736 37.7562 31.6648 37.7613 31.0198 37.5249C24.8138 35.2194 19.008 32.2469 17.6943 29.6282C17.613 29.479 17.5664 29.3134 17.5578 29.1437C17.5493 28.974 17.5791 28.8046 17.645 28.648Z" stroke="#003250" stroke-width="5" stroke-linecap="round" stroke-linejoin="round"/>
</svg>
