<svg width="18" height="18" viewBox="0 0 18 18" fill="none" xmlns="http://www.w3.org/2000/svg">
<path d="M6.92308 15.9231C6.92308 17.0701 7.85295 18 9 18C10.1471 18 11.0769 17.0701 11.0769 15.9231V11.0769H15.9231C17.0701 11.0769 18 10.1471 18 9C18 7.85295 17.0701 6.92308 15.9231 6.92308H11.0769V2.07692C11.0769 0.92987 10.1471 0 9 0C7.85295 0 6.92308 0.929871 6.92308 2.07692V6.92308H2.07692C0.92987 6.92308 0 7.85295 0 9C0 10.1471 0.929871 11.0769 2.07692 11.0769H6.92308V15.9231Z" fill="#003250"/>
</svg>
