<svg width="43" height="33" viewBox="0 0 43 33" fill="none" xmlns="http://www.w3.org/2000/svg">
<path d="M28.659 12.9721L22.821 18.7054C22.4718 18.6122 22.1118 18.5637 21.75 18.561C20.6361 18.561 19.5678 18.9956 18.7802 19.7691C17.9925 20.5427 17.55 21.5918 17.55 22.6857C17.5527 23.0411 17.6021 23.3946 17.697 23.7375L16.059 25.3461C15.8622 25.5379 15.706 25.766 15.5994 26.0173C15.4927 26.2686 15.4378 26.5381 15.4378 26.8104C15.4378 27.0827 15.4927 27.3522 15.5994 27.6035C15.706 27.8548 15.8622 28.0829 16.059 28.2747C16.2542 28.468 16.4865 28.6214 16.7424 28.7261C16.9983 28.8308 17.2728 28.8847 17.55 28.8847C17.8272 28.8847 18.1017 28.8308 18.3576 28.7261C18.6135 28.6214 18.8458 28.468 19.041 28.2747L20.679 26.666C21.0282 26.7593 21.3882 26.8078 21.75 26.8104C22.8639 26.8104 23.9322 26.3758 24.7198 25.6023C25.5075 24.8288 25.95 23.7797 25.95 22.6857C25.9473 22.3304 25.8979 21.9768 25.803 21.6339L31.641 15.9006C32.0364 15.5123 32.2586 14.9856 32.2586 14.4364C32.2586 13.8872 32.0364 13.3605 31.641 12.9721C31.2455 12.5838 30.7092 12.3656 30.15 12.3656C29.5907 12.3656 29.0544 12.5838 28.659 12.9721ZM21.75 0C18.9923 0 16.2615 0.53344 13.7137 1.56986C11.1659 2.60628 8.85084 4.12539 6.90081 6.04045C2.96257 9.90808 0.750081 15.1537 0.750081 20.6234C0.738451 24.7082 1.97472 28.7025 4.29907 32.09C4.61096 32.544 5.09372 32.8577 5.64113 32.9621C6.18855 33.0665 6.75578 32.9531 7.21806 32.6468C7.68033 32.3405 7.99976 31.8664 8.1061 31.3288C8.21243 30.7912 8.09695 30.2342 7.78505 29.7802C6.09354 27.2962 5.12075 24.4076 4.97055 21.423C4.82034 18.4384 5.49836 15.4697 6.93222 12.834C8.36607 10.1983 10.5019 7.99452 13.1117 6.45798C15.7215 4.92145 18.7072 4.10985 21.75 4.10985C24.7928 4.10985 27.7785 4.92145 30.3883 6.45798C32.9981 7.99452 35.1339 10.1983 36.5678 12.834C38.0016 15.4697 38.6797 18.4384 38.5295 21.423C38.3792 24.4076 37.4065 27.2962 35.7149 29.7802C35.5602 30.0048 35.452 30.2573 35.3968 30.5231C35.3415 30.7889 35.3402 31.0627 35.3928 31.329C35.4455 31.5953 35.5511 31.8488 35.7037 32.0749C35.8563 32.301 36.0528 32.4954 36.2819 32.6468C36.6296 32.8762 37.0391 32.9983 37.4579 32.9974C37.8019 32.9979 38.1408 32.9154 38.4447 32.7572C38.7486 32.599 39.0083 32.3699 39.2009 32.09C41.5253 28.7025 42.7615 24.7082 42.7499 20.6234C42.7499 15.1537 40.5374 9.90808 36.5992 6.04045C32.6609 2.17281 27.3195 0 21.75 0Z" fill="#003250"/>
</svg>
