<svg width="43" height="46" viewBox="0 0 43 46" fill="none" xmlns="http://www.w3.org/2000/svg">
<path d="M23.388 0.294533L39.7213 6.3704C40.611 6.70124 41.3778 7.2936 41.919 8.0683C42.4602 8.84301 42.7501 9.76313 42.75 10.7057V23.119C42.7501 26.9877 41.6641 30.78 39.6138 34.0709C37.5635 37.3619 34.6299 40.0215 31.1417 41.7516L23.3157 45.6333C22.8296 45.8744 22.2935 46 21.75 46C21.2065 46 20.6704 45.8744 20.1843 45.6333L12.3583 41.7516C8.87009 40.0215 5.93646 37.3619 3.88616 34.0709C1.83587 30.78 0.749916 26.9877 0.75 23.119V10.7057C0.749882 9.76313 1.03981 8.84301 1.58102 8.0683C2.12224 7.2936 2.88895 6.70124 3.77867 6.3704L20.112 0.294533C21.1681 -0.0981776 22.3319 -0.0981776 23.388 0.294533ZM21.75 4.62981L5.41667 10.7057V23.119C5.4172 26.1277 6.26225 29.0768 7.85713 31.6359C9.45202 34.1951 11.7337 36.2632 14.4467 37.6085L21.75 41.2355L29.0533 37.6131C31.767 36.2674 34.0492 34.1986 35.6441 31.6386C37.239 29.0786 38.0837 26.1285 38.0833 23.119V10.7057L21.75 4.62981ZM21.75 13.7309C22.3688 13.7309 22.9623 13.9747 23.3999 14.4088C23.8375 14.8429 24.0833 15.4316 24.0833 16.0455V20.6747H28.75C29.3688 20.6747 29.9623 20.9186 30.3999 21.3527C30.8375 21.7867 31.0833 22.3755 31.0833 22.9894C31.0833 23.6032 30.8375 24.192 30.3999 24.626C29.9623 25.0601 29.3688 25.304 28.75 25.304H24.0833V29.9332C24.0833 30.5471 23.8375 31.1358 23.3999 31.5699C22.9623 32.004 22.3688 32.2478 21.75 32.2478C21.1312 32.2478 20.5377 32.004 20.1001 31.5699C19.6625 31.1358 19.4167 30.5471 19.4167 29.9332V25.304H14.75C14.1312 25.304 13.5377 25.0601 13.1001 24.626C12.6625 24.192 12.4167 23.6032 12.4167 22.9894C12.4167 22.3755 12.6625 21.7867 13.1001 21.3527C13.5377 20.9186 14.1312 20.6747 14.75 20.6747H19.4167V16.0455C19.4167 15.4316 19.6625 14.8429 20.1001 14.4088C20.5377 13.9747 21.1312 13.7309 21.75 13.7309Z" fill="#003250"/>
</svg>
