<svg width="43" height="40" viewBox="0 0 43 40" fill="none" xmlns="http://www.w3.org/2000/svg">
<path d="M0.75 4.21053C0.75 3.09383 1.1925 2.02286 1.98015 1.23323C2.7678 0.443608 3.83609 0 4.95 0H38.55C39.6639 0 40.7322 0.443608 41.5198 1.23323C42.3075 2.02286 42.75 3.09383 42.75 4.21053V27.3684C42.75 28.4851 42.3075 29.5561 41.5198 30.3457C40.7322 31.1353 39.6639 31.5789 38.55 31.5789H23.85V35.7895H30.15C30.707 35.7895 31.2411 36.0113 31.6349 36.4061C32.0288 36.8009 32.25 37.3364 32.25 37.8947C32.25 38.4531 32.0288 38.9886 31.6349 39.3834C31.2411 39.7782 30.707 40 30.15 40H13.35C12.793 40 12.2589 39.7782 11.8651 39.3834C11.4712 38.9886 11.25 38.4531 11.25 37.8947C11.25 37.3364 11.4712 36.8009 11.8651 36.4061C12.2589 36.0113 12.793 35.7895 13.35 35.7895H19.65V31.5789H4.95C3.83609 31.5789 2.7678 31.1353 1.98015 30.3457C1.1925 29.5561 0.75 28.4851 0.75 27.3684V4.21053ZM38.55 27.3684V4.21053H4.95V27.3684H38.55Z" fill="#003250"/>
</svg>
