<svg width="43" height="41" viewBox="0 0 43 41" fill="none" xmlns="http://www.w3.org/2000/svg">
<path d="M21.4503 41C20.3239 40.9987 19.2432 40.5653 18.4412 39.7931L3.48899 25.1731C3.1053 24.8007 2.86617 24.3096 2.81253 23.784L0.759804 2.49177C0.728381 2.15823 0.772714 1.82202 0.889642 1.50712C1.00657 1.19222 1.19321 0.90638 1.43627 0.669972C1.67843 0.432688 1.97122 0.250477 2.29378 0.136325C2.61634 0.0221742 2.96073 -0.0211057 3.30238 0.00957115L25.1126 2.01355C25.651 2.06591 26.154 2.29937 26.5355 2.67395L41.5111 17.2711C42.3045 18.048 42.75 19.1003 42.75 20.1974C42.75 21.2944 42.3045 22.3467 41.5111 23.1236L24.4361 39.7931C23.6427 40.5639 22.5697 40.9977 21.4503 41ZM7.45448 22.5315L21.4503 36.195L37.8955 20.1404L23.8996 6.47695L5.68168 4.81456L7.45448 22.5315Z" fill="#003250"/>
<path d="M15.922 18.2275C17.8544 18.2275 19.4209 16.6982 19.4209 14.8117C19.4209 12.9251 17.8544 11.3958 15.922 11.3958C13.9896 11.3958 12.423 12.9251 12.423 14.8117C12.423 16.6982 13.9896 18.2275 15.922 18.2275Z" fill="#003250"/>
</svg>
