<svg width="99" height="109" viewBox="0 0 99 109" fill="none" xmlns="http://www.w3.org/2000/svg">
<path fill-rule="evenodd" clip-rule="evenodd" d="M24.297 -0.000132769C24.5059 -7.50715e-05 24.7177 -1.66589e-05 24.9325 -1.66589e-05H74.0675C74.2823 -1.66589e-05 74.4941 -7.50715e-05 74.703 -0.000132769C80.0783 -0.00161502 83.5457 -0.00257111 86.449 1.00534L86.4581 1.00847L86.4671 1.01167C89.1794 1.97269 91.6343 3.54356 93.641 5.6033C95.6459 7.66123 97.1497 10.152 98.0354 12.8832C99.0022 15.8183 99.0014 19.343 99.0001 24.8794C99 25.0851 99 25.2936 99 25.505V28.7494C99 30.4063 97.6569 31.7494 96 31.7494C94.3431 31.7494 93 30.4063 93 28.7494V25.505C93 19.1225 92.9618 16.6534 92.335 14.7555L92.3322 14.7472L92.3296 14.7389C91.7288 12.8836 90.7072 11.1902 89.3434 9.79026C87.9817 8.39263 86.3153 7.32498 84.4725 6.67046C82.6539 6.04158 80.2934 5.99998 74.0675 5.99998H24.9325C18.7063 5.99998 16.346 6.04158 14.5273 6.67052C12.6849 7.32462 11.0187 8.39166 9.65705 9.78857C8.29319 11.1878 7.27141 12.8803 6.67007 14.7349L6.6662 14.7468C6.03788 16.6574 6 19.1249 6 25.505V69.9485C6 71.6054 4.65686 72.9485 3 72.9485C1.34315 72.9485 2.88989e-06 71.6054 2.88989e-06 69.9485V25.505C2.88989e-06 25.2952 -4.47938e-05 25.0882 -9.20007e-05 24.884C-0.00137016 19.3413 -0.00217986 15.8227 0.96449 12.8785C1.85089 10.1478 3.35525 7.65772 5.36053 5.60051C7.36719 3.54187 9.82159 1.97194 12.5333 1.01154L12.5421 1.00841L12.551 1.00534C15.4543 -0.00257134 18.9217 -0.00161502 24.297 -0.000132769ZM37.0419 31.7814C38.2116 30.608 40.1111 30.6049 41.2845 31.7745L49.5 39.9633L57.7155 31.7745C58.8889 30.6049 60.7884 30.608 61.9581 31.7814C63.1278 32.9549 63.1247 34.8544 61.9512 36.0241L53.7496 44.1991L61.9512 52.3741C63.1247 53.5438 63.1278 55.4433 61.9581 56.6167C60.7884 57.7902 58.8889 57.7933 57.7155 56.6236L49.5 48.4348L41.2845 56.6236C40.1111 57.7933 38.2116 57.7902 37.0419 56.6167C35.8722 55.4433 35.8753 53.5438 37.0488 52.3741L45.2504 44.1991L37.0488 36.0241C35.8753 34.8544 35.8722 32.9549 37.0419 31.7814ZM96 46.349C97.6569 46.349 99 47.6921 99 49.349V97.624C99 104.485 90.9356 108.474 85.6705 103.672L85.6651 103.667L85.6596 103.662C85.3114 103.341 84.8528 103.162 84.375 103.162C83.8972 103.162 83.4386 103.341 83.0904 103.662L83.0851 103.667L80.5957 105.938C80.5938 105.939 80.5919 105.941 80.59 105.943C78.4537 107.909 75.6544 109 72.75 109C69.843 109 67.0412 107.907 64.9043 105.938C63.8771 104.991 62.5277 104.464 61.125 104.464C59.7223 104.464 58.3729 104.991 57.3457 105.938C55.2088 107.907 52.407 109 49.5 109C46.593 109 43.7912 107.907 41.6543 105.938C40.6271 104.991 39.2777 104.464 37.875 104.464C36.4723 104.464 35.1229 104.991 34.0957 105.938C31.9588 107.907 29.157 109 26.25 109C23.3459 109 20.5468 107.91 18.4106 105.944C18.4085 105.942 18.4064 105.94 18.4043 105.938L15.915 103.667L15.9096 103.662C15.5614 103.341 15.1028 103.162 14.625 103.162C14.1472 103.162 13.6886 103.341 13.3404 103.662L13.3349 103.667L13.3295 103.672C8.06441 108.474 2.88989e-06 104.485 2.88989e-06 97.624V90.5481C2.88989e-06 88.8912 1.34315 87.5481 3 87.5481C4.65686 87.5481 6 88.8912 6 90.5481V97.624C6 99.5978 8.10958 100.307 9.28289 99.2422C10.7398 97.9037 12.647 97.1619 14.625 97.1619C16.6038 97.1619 18.5116 97.9042 19.9687 99.2437C19.9706 99.2454 19.9725 99.2471 19.9744 99.2488L22.465 101.521L22.4707 101.526C23.4979 102.473 24.8473 103 26.25 103C27.6527 103 29.0021 102.473 30.0293 101.526C32.1662 99.5562 34.968 98.4636 37.875 98.4636C40.782 98.4636 43.5838 99.5562 45.7207 101.526C46.7479 102.473 48.0973 103 49.5 103C50.9027 103 52.2521 102.473 53.2793 101.526C55.4162 99.5562 58.218 98.4636 61.125 98.4636C64.032 98.4636 66.8338 99.5562 68.9707 101.526C69.9979 102.473 71.3473 103 72.75 103C74.1527 103 75.5021 102.473 76.5293 101.526L76.535 101.521L79.0256 99.2488C79.0274 99.2472 79.0292 99.2455 79.031 99.2439C80.4882 97.9043 82.3961 97.1619 84.375 97.1619C86.353 97.1619 88.2601 97.9037 89.7171 99.2421C90.8904 100.307 93 99.5979 93 97.624V49.349C93 47.6921 94.3431 46.349 96 46.349ZM23.25 72.5235C23.25 70.8666 24.5931 69.5235 26.25 69.5235H34C35.6569 69.5235 37 70.8666 37 72.5235C37 74.1803 35.6569 75.5235 34 75.5235H26.25C24.5931 75.5235 23.25 74.1803 23.25 72.5235ZM46.5 72.5235C46.5 70.8666 47.8431 69.5235 49.5 69.5235H72.75C74.4069 69.5235 75.75 70.8666 75.75 72.5235C75.75 74.1803 74.4069 75.5235 72.75 75.5235H49.5C47.8431 75.5235 46.5 74.1803 46.5 72.5235Z" fill="url(#paint0_radial_82_63)"/>
<defs>
<radialGradient id="paint0_radial_82_63" cx="0" cy="0" r="1" gradientUnits="userSpaceOnUse" gradientTransform="translate(49.5 1.72853e-06) rotate(90) scale(82.5 82.5)">
<stop stop-color="#F8533E"/>
<stop offset="1" stop-color="#B8B8B8"/>
</radialGradient>
</defs>
</svg>
