<svg width="69" height="106" viewBox="0 0 69 106" fill="none" xmlns="http://www.w3.org/2000/svg">
<path fill-rule="evenodd" clip-rule="evenodd" d="M28.0518 23.7582C31.2191 23.7582 34.2566 22.5067 36.4962 20.2789C38.7358 18.0511 39.9939 15.0296 39.9939 11.8791C39.9939 8.72857 38.7358 5.70707 36.4962 3.47931C34.2566 1.25154 31.2191 0 28.0518 0C24.8846 0 21.8471 1.25154 19.6075 3.47931C17.3679 5.70707 16.1097 8.72857 16.1097 11.8791C16.1097 15.0296 17.3679 18.0511 19.6075 20.2789C21.8471 22.5067 24.8846 23.7582 28.0518 23.7582ZM28.0518 18.4786C29.8114 18.4786 31.4989 17.7833 32.7431 16.5457C33.9873 15.308 34.6863 13.6294 34.6863 11.8791C34.6863 10.1288 33.9873 8.4502 32.7431 7.21255C31.4989 5.97491 29.8114 5.2796 28.0518 5.2796C26.2923 5.2796 24.6047 5.97491 23.3605 7.21255C22.1163 8.4502 21.4173 10.1288 21.4173 11.8791C21.4173 13.6294 22.1163 15.308 23.3605 16.5457C24.6047 17.7833 26.2923 18.4786 28.0518 18.4786ZM2.14542 34.1722C5.52902 29.5816 11.2214 29.0378 14.7828 29.0378H41.3208C51.2301 29.0378 57.8355 33.2668 61.9144 38.5939C65.1201 42.7727 66.5771 47.49 67.222 49.5755L67.2379 49.6256C67.3307 49.9266 67.3971 50.1378 67.4502 50.2909C67.9693 51.8389 67.995 53.5086 67.5238 55.0717C67.0526 56.6348 66.1074 58.0149 64.8176 59.0233C66.0823 59.7018 67.1389 60.7081 67.8752 61.9355C68.6116 63.1629 69.0002 64.5657 69 65.995V102.952C69 103.652 68.7204 104.324 68.2227 104.819C67.725 105.314 67.05 105.592 66.3462 105.592C65.6424 105.592 64.9674 105.314 64.4697 104.819C63.972 104.324 63.6924 103.652 63.6924 102.952V65.995C63.6924 65.2949 63.4128 64.6235 62.9151 64.1284C62.4174 63.6334 61.7424 63.3552 61.0386 63.3552C60.3348 63.3552 59.6598 63.6334 59.1621 64.1284C58.6644 64.6235 58.3848 65.2949 58.3848 65.995V67.7558C58.3848 68.4559 58.1052 69.1273 57.6075 69.6224C57.1098 70.1175 56.4348 70.3956 55.731 70.3956C55.0272 70.3956 54.3521 70.1175 53.8545 69.6224C53.3568 69.1273 53.0772 68.4559 53.0772 67.7558V65.995C53.0772 63.4687 54.2661 61.217 56.1211 59.7651C54.3381 58.8089 52.9886 57.2125 52.3474 55.3012C52.2253 54.9369 52.1077 54.5753 51.9944 54.2162L52.0289 54.306L51.9652 54.1239C51.2646 51.9355 50.6145 49.9688 49.2531 48.1922C48.5606 47.259 47.6641 46.4944 46.6311 45.9563V98.0713C46.6335 100.106 45.8483 102.064 44.4385 103.538C43.0286 105.013 41.1022 105.891 39.0589 105.991C37.0156 106.09 35.0123 105.403 33.4644 104.073C31.9165 102.742 30.9428 100.87 30.7454 98.8447L28.8082 79.194H27.3008L25.3635 98.8447C25.1661 100.87 24.1925 102.742 22.6446 104.073C21.0967 105.403 19.0933 106.09 17.0501 105.991C15.0068 105.891 13.0804 105.013 11.6705 103.538C10.2606 102.064 9.47547 100.106 9.47788 98.0713V59.6595C8.84097 58.8465 8.23148 58.0501 7.64941 57.2705C5.1681 53.9523 2.87522 50.5364 1.49524 47.3343C0.343492 44.6575 -1.48763 39.0981 2.14542 34.1722ZM14.7828 34.3174C11.3727 34.3174 8.15629 34.9431 6.42335 37.2925C4.61081 39.7475 5.31406 42.8017 6.37028 45.2568C7.49549 47.8649 9.47522 50.8743 11.9061 54.1239C12.6262 55.0883 13.3958 56.0879 14.2149 57.1227L14.345 57.2863L18.8431 52.5954C17.35 50.5339 15.7696 48.5364 14.1061 46.6083C13.6444 46.0797 13.4127 45.3904 13.462 44.6918C13.5112 43.9933 13.8374 43.3429 14.3688 42.8836C14.9002 42.4243 15.5933 42.1938 16.2955 42.2428C16.9977 42.2918 17.6516 42.6163 18.1133 43.1449C19.6703 44.9432 21.155 46.8022 22.5638 48.7175L36.3901 34.3174H14.7828ZM43.5633 34.4072C43.4695 34.5557 43.361 34.6945 43.2395 34.8216L25.743 53.0574C27.0434 54.8313 28.3491 56.5789 29.798 58.3396C31.1353 59.9653 31.7686 62.0528 31.5586 64.143C31.3486 66.2331 30.3124 68.1546 28.6781 69.4849C27.0438 70.8151 24.9452 71.445 22.844 71.2361C20.7428 71.0272 18.8111 69.9965 17.4738 68.3709C16.6246 67.3361 15.7223 66.3039 14.7855 65.248V98.0686C14.7874 98.7453 15.0505 99.3953 15.5203 99.8846C15.9902 100.374 16.631 100.665 17.3104 100.698C17.9898 100.731 18.656 100.503 19.1713 100.061C19.6867 99.6195 20.0119 98.9979 20.0798 98.3247L22.4895 73.9144H33.6195L36.0265 98.3273C36.0875 99.0062 36.4101 99.6353 36.9268 100.083C37.4435 100.531 38.1142 100.762 38.7986 100.729C39.483 100.696 40.128 100.401 40.5986 99.9055C41.0692 99.4101 41.329 98.7528 41.3235 98.0713V39.3594L44.3621 39.8056C48.985 40.4814 51.7131 42.6882 53.4753 44.9901C55.4338 47.5455 56.3148 50.3067 56.9862 52.408L57.0234 52.5215C57.1455 52.9122 57.2649 53.2818 57.3817 53.6302C57.6113 54.2856 58.0911 54.8247 58.7173 55.1308C59.3436 55.4369 60.0658 55.4853 60.7277 55.2656C61.3895 55.0459 61.9378 54.5758 62.2537 53.957C62.5697 53.3381 62.628 52.6204 62.4159 51.9592L62.1771 51.1963L62.1691 51.1752C61.5322 49.1241 60.2982 45.1855 57.6975 41.7881C54.8659 38.0923 50.4367 34.9642 43.566 34.4045M22.0171 56.9352L18.1054 61.0111C19.2916 62.3389 20.4752 63.6799 21.5819 65.0236C21.8005 65.2979 22.0717 65.5263 22.3799 65.6954C22.688 65.8645 23.0269 65.9709 23.3768 66.0085C23.7267 66.046 24.0806 66.014 24.4179 65.9143C24.7553 65.8145 25.0693 65.649 25.3417 65.4274C25.6141 65.2057 25.8395 64.9324 26.0048 64.6234C26.17 64.3143 26.2718 63.9756 26.3042 63.627C26.3366 63.2784 26.299 62.9269 26.1935 62.5929C26.0881 62.2589 25.9169 61.9492 25.69 61.6816C24.4248 60.131 23.2009 58.5474 22.0197 56.9326" fill="url(#paint0_radial_82_45)"/>
<defs>
<radialGradient id="paint0_radial_82_45" cx="0" cy="0" r="1" gradientUnits="userSpaceOnUse" gradientTransform="translate(34.5 0.000239102) rotate(90) scale(80.2292 57.4998)">
<stop stop-color="#F8533E"/>
<stop offset="1" stop-color="#B8B8B8"/>
</radialGradient>
</defs>
</svg>
