<svg width="115" height="112" viewBox="0 0 115 112" fill="none" xmlns="http://www.w3.org/2000/svg">
<path fill-rule="evenodd" clip-rule="evenodd" d="M40.014 19.5491L53.594 6.09639C53.977 5.71754 54.5017 5.5 55.053 5.5C55.6043 5.5 56.1289 5.71748 56.5119 6.09639L63.573 13.0905L47.0121 29.5008L39.9169 22.4714C39.5362 22.0929 39.3266 21.5853 39.3266 21.0611C39.3266 20.5367 39.5364 20.0288 39.9176 19.6503C39.9508 19.6172 39.983 19.5835 40.014 19.5491ZM50.5642 33.02L67.1255 16.6093L95.761 44.9732L79.1941 61.3848L60.9033 43.2634C60.8592 43.2163 60.8137 43.1712 60.7669 43.1283L50.5642 33.02ZM60.0301 2.54358L101.03 43.1541C101.041 43.165 101.053 43.1761 101.064 43.1872C101.073 43.1958 101.081 43.2044 101.09 43.2132L101.115 43.2391L109.928 51.968C111.252 53.2806 112 55.0653 112 56.9311C112 58.797 111.251 60.5823 109.927 61.8948L96.2418 75.452C94.9176 76.7629 93.1271 77.4951 91.2651 77.4951C89.4031 77.4951 87.612 76.7622 86.2878 75.4513L77.4775 66.7226C77.4572 66.7034 77.4372 66.6838 77.4174 66.6638L77.392 66.6378L67.2733 56.6128L23.1528 107.986C23.1092 108.037 23.0635 108.086 23.0159 108.134C21.9372 109.202 20.6579 110.049 19.2515 110.626C17.8452 111.203 16.3387 111.5 14.8178 111.5C13.2969 111.5 11.7904 111.203 10.3841 110.626C8.97777 110.049 7.69843 109.202 6.61978 108.134L3.40446 104.943L3.40347 104.942C1.22694 102.784 0 99.8529 0 96.792C0 93.7307 1.22731 90.7994 3.40446 88.6412C3.4522 88.5939 3.50184 88.5485 3.55324 88.5052L55.3751 44.8248L45.3449 34.8875C45.3072 34.8538 45.2702 34.8186 45.2341 34.7822C45.2091 34.7569 45.1847 34.7313 45.161 34.7053L36.3944 26.0199C35.073 24.7077 34.3266 22.9248 34.3266 21.0611C34.3266 19.255 35.0277 17.5248 36.2737 16.2253C36.3128 16.1806 36.3538 16.137 36.3966 16.0946L50.0763 2.5431C51.4005 1.23221 53.191 0.5 55.053 0.5C56.9149 0.5 58.7059 1.23268 60.0301 2.54358ZM58.9413 48.358L63.7123 53.0848L19.4305 104.646C18.8322 105.223 18.1275 105.683 17.3532 106C16.5501 106.33 15.6885 106.5 14.8178 106.5C13.9472 106.5 13.0856 106.33 12.2825 106C11.4794 105.671 10.7513 105.188 10.139 104.582L6.92546 101.393L6.92447 101.392C5.68944 100.167 5 98.5125 5 96.792C5 95.1021 5.66511 93.4754 6.85904 92.258L58.9413 48.358ZM89.0045 15.2998C88.0236 14.3281 86.4407 14.3356 85.469 15.3165C84.4973 16.2974 84.5047 17.8803 85.4856 18.852L93.5315 26.8224C94.5124 27.7942 96.0953 27.7867 97.067 26.8058C98.0387 25.8249 98.0312 24.242 97.0504 23.2703L89.0045 15.2998ZM82 64.5L89.8062 71.8987C90.0476 72.2658 90.5513 72.7729 91.2651 72.7729C91.979 72.7729 92.4827 72.2658 92.7241 71.8987L106.408 58.3433C106.79 57.9646 107 57.4562 107 56.9311C107 56.406 106.79 55.8976 106.408 55.519L98.5 48L82 64.5Z" fill="url(#paint0_radial_82_59)"/>
<path fill-rule="evenodd" clip-rule="evenodd" d="M62 100C62 96.9624 64.4624 94.5 67.5 94.5H109.5C112.538 94.5 115 96.9624 115 100V106C115 109.038 112.538 111.5 109.5 111.5H67.5C64.4624 111.5 62 109.038 62 106V100ZM67.5 99.5C67.2239 99.5 67 99.7239 67 100V106C67 106.276 67.2239 106.5 67.5 106.5H109.5C109.776 106.5 110 106.276 110 106V100C110 99.7239 109.776 99.5 109.5 99.5H67.5Z" fill="url(#paint1_radial_82_59)"/>
<defs>
<radialGradient id="paint0_radial_82_59" cx="0" cy="0" r="1" gradientUnits="userSpaceOnUse" gradientTransform="translate(57.5 0.50025) rotate(90) scale(84.0136 95.833)">
<stop stop-color="#F8533E"/>
<stop offset="1" stop-color="#B8B8B8"/>
</radialGradient>
<radialGradient id="paint1_radial_82_59" cx="0" cy="0" r="1" gradientUnits="userSpaceOnUse" gradientTransform="translate(57.5 0.50025) rotate(90) scale(84.0136 95.833)">
<stop stop-color="#F8533E"/>
<stop offset="1" stop-color="#B8B8B8"/>
</radialGradient>
</defs>
</svg>
