<svg width="42" height="42" viewBox="0 0 42 42" fill="none" xmlns="http://www.w3.org/2000/svg">
<path fill-rule="evenodd" clip-rule="evenodd" d="M6.15234 6.1507C10.0866 2.21386 15.4317 0 21 0C26.5683 0 31.9134 2.21386 35.8477 6.1507C39.7852 10.0875 42 15.4327 42 21C42 26.5673 39.7852 31.9125 35.8477 35.8493C31.9134 39.7861 26.5683 42 21 42C15.4317 42 10.0866 39.7861 6.15234 35.8493C2.21484 31.9125 0 26.5673 0 21C0.00112694 15.4304 2.2141 10.0891 6.15234 6.1507ZM21.7517 15.5033C19.7108 16.3529 15.6289 18.1112 9.50611 20.7782C8.51189 21.1736 7.99018 21.5604 7.94424 21.9384C7.86344 22.577 8.66315 22.8288 9.74979 23.1711C9.89884 23.218 10.0533 23.2666 10.2116 23.3182C11.2846 23.6667 12.7283 24.0745 13.4764 24.0906C14.1589 24.1054 14.9169 23.8248 15.7536 23.2493C21.4761 19.3883 24.426 17.4366 24.613 17.3946C24.7442 17.365 24.9247 17.3276 25.0461 17.4369C25.1708 17.5458 25.1577 17.7525 25.1446 17.808C25.0672 18.1453 21.9376 21.0549 20.3091 22.569C19.7971 23.045 19.4335 23.3831 19.3597 23.46C19.1949 23.6312 19.0268 23.7932 18.8654 23.9488C17.8696 24.9087 17.1225 25.6289 18.9069 26.8045C19.7721 27.3744 20.4627 27.8448 21.1529 28.3149C21.8945 28.8201 22.6357 29.3249 23.5925 29.9526C23.8386 30.1138 24.0736 30.2813 24.3024 30.4444C25.1721 31.0644 25.9534 31.6213 26.9197 31.5325C27.4808 31.481 28.0616 30.9533 28.3536 29.3797C29.0492 25.6604 30.4175 17.6023 30.7325 14.2816C30.7621 13.9909 30.726 13.6185 30.6997 13.4551C30.6702 13.2915 30.6111 13.0586 30.4011 12.8863C30.1485 12.682 29.7613 12.639 29.5874 12.6418C28.7966 12.6561 27.5858 13.0774 21.7517 15.5033Z" fill="white"/>
</svg>
